<?xml version="1.0" encoding="utf-8"?>
<!-- Generator: Adobe Illustrator 23.0.3, SVG Export Plug-In . SVG Version: 6.00 Build 0)  -->
<svg version="1.1" id="Layer_1" xmlns="http://www.w3.org/2000/svg" xmlns:xlink="http://www.w3.org/1999/xlink" x="0px" y="0px"
	 viewBox="0 0 1301 605" style="enable-background:new 0 0 1301 605;" xml:space="preserve">
<style type="text/css">
	.st0{fill-rule:evenodd;clip-rule:evenodd;fill:#231F20;}
</style>
<path class="st0" d="M1188.96,435.18c2.61-2.39,22.78,9.74,24.12,11c0.36,0.36,3.37,2.94,4.92,4.26c0.81,0.7,2,1.87,3.25,3.08
	l1.08,0.89l0.67,0.44c2.28,1.99,8.14,7.52,7.94,10.74c-0.32,4.99-18.89,27.41-21.88,28.62c-3.47,1.39-38.78-18.3-38.78-18.3
	c-3.03-4.75,5.42-17.96,7.85-21.32c0.35-0.48,0.58-1.27,0.88-2.27c0.33-1.15,0.77-2.15,1.28-3.12c0.13-0.24,1.03-1.53,1.47-2.17
	c0.49-0.68,0.99-1.59,1.48-2.45c0.35-0.62,0.77-1.21,1.26-1.73c0,0,0.99-1.65,1.51-2.49
	C1186.95,438.72,1188.1,436.71,1188.96,435.18z"/>
<path class="st0" d="M1149.48,572.06c0,0,2.88-0.89,4.6-1.39c1.16-0.34,2.39-0.72,3.55-1.17c2.91-1.07,5.95-2.21,8.76-3.46
	c2.14-0.95,6.09-2.47,9.14-3.66c0.68-0.26,1.35-0.52,2.05-0.78l0.75-0.28c0.37-0.14,0.37-0.14,1.49-0.58l0.75-0.28l0.84-0.28
	l0.83-0.38l1.5-0.5c0.42-0.16,0.75-0.28,1.68-0.66c3.06-1.27,7-2.9,9.13-3.66c1.5-0.54,2.85-1.09,4.29-1.73
	c1.63-0.72,4.35-1.91,5.22-2.21c6.04-2.09,12.14-4.47,18.08-6.86c2.68-1.06,5.56-2.07,8.21-2.98c2.76-0.97,5.71-2.11,8.4-3.2
	c1.3-0.5,2.6-0.98,3.92-1.45c1.21-0.4,2.44-0.87,3.54-1.33c1.24-0.54,2.51-1.04,3.73-1.45c0.12-0.06,3.49-1.35,5.04-1.95l1.31-0.46
	l0.93-0.3l0.94-0.38l0.92-0.38l0.94-0.38c0.9-0.38,1.87-0.78,2.62-1.17c0.55-0.28,1.56-0.64,2.42-0.97
	c1.66-0.58,3.35-1.21,4.48-1.73l2.42-1.15c1.04-0.48,3.02-1.39,3.17-1.45l1.3-0.64l0.94-0.4l0.94-0.38
	c0.83-0.38,0.83-0.38,1.12-0.48c0.74-0.28,1.42-0.5,2.23-0.76c0.34-0.12,1.54-0.6,2.24-0.87c1.73-0.7,3.36-1.45,5.03-2.31
	c1.72-0.89,4.52-2.31,5.6-2.21c1.5,0.14,3.54,1.83,4.14,2.96c1.05,1.89,1.79,3.86,2.04,6.52c0.65,6.8-5.05,15.83-9.44,18.1
	c-0.7,0.34-1.59,0.56-2.42,0.76c-1.12,0.26-2.43,0.56-3.18,0.78c-1.82,0.52-3.7,1.15-5.41,1.75c-3.48,1.19-6.99,2.47-10.26,3.94
	c-0.61,0.28-1.6,0.54-2.15,0.68c-0.66,0.18-2.37,0.95-3.44,1.45c-0.83,0.36-1.86,0.84-2.99,1.25l-0.94,0.28l-1.49,0.58
	c-1.84,0.75-3.74,1.49-5.59,2.21l-0.75,0.28l-1.12,0.3l-0.74,0.28l-0.94,0.4l-0.93,0.38l-0.94,0.28l-0.75,0.28
	c-3.22,1.31-8.09,3.24-9.88,3.78c-3.04,0.9-6.41,2.05-9.33,3.38c-5.62,2.54-13.34,5.03-20.14,7.24c-1.83,0.58-6.83,2.57-10.08,3.86
	c-1.61,0.62-3.5,1.37-5.03,2.01c-0.64,0.26-1.79,0.78-2.62,1.17c-0.85,0.36-1.83,0.82-2.61,1.05c-3.54,1.06-6.98,2.45-10.26,3.94
	c-1.53,0.7-5.82,2.29-8.77,3.38c-2.11,0.78-4.12,1.67-6.15,2.6c-1.55,0.73-3.21,1.45-4.84,2.11c-0.79,0.32-1.62,0.64-2.42,0.96
	c-0.95,0.36-1.87,0.75-2.72,1.15c-1.81,0.95-3.64,1.89-5.86,2.23c-1.34,0.2-2.66-0.28-3.02-1.37c-1.34-4.04,0.52-8.53,2.02-12.01
	l0.34-2.63c0.22-1.31,0.54-2.51,0.99-3.56l0.37-0.76l0.36-0.84l0.27-1.03l0.27-0.75C1148.4,574.05,1149.08,572.32,1149.48,572.06z"
	/>
<path class="st0" d="M895.78,108.55c4.08-1.75,11-4.65,12.49-5.09c2.29-0.68,4.77,0.1,6.57,0.76c4.94,1.87,15.3,13.52,17.99,18.16
	c0.87,1.51,0.55,4.14,0.16,5.81c-1.33,5.53-8.45,17-15.28,16.53c-1.45-0.08-6.13-5.59-8.1-7.91c-0.56-0.66-1.33-1.55-1.65-2.19
	c-0.62-1.21-1.13-2.19-1.58-2.63c-0.62-0.6-3.91-3.34-4.39-3.38c-2.51-0.2-5.14,0.56-6.73,1.57c-3.82,2.47-6.64,4.39-10.13,6.78
	c0,0-1.63,1.27-2.04,1.71l-0.97,0.81l-1.45,1.27c-0.7,0.56-1.68,1.35-2.1,1.75c-0.58,0.56-2.11,1.99-2.26,2.05
	c-0.52,0.18,2.1,3.2,2.25,3.38c0.38,0.36,0.38,0.36,2.35,2.33c1.74,1.71,3.8,3.36,5.87,4.73c4.83,3.14,10.22,5.81,16.13,7.7
	c9.14,2.94,22.8,1.51,33.53,0.38c0.92-0.08,2.37-0.36,3.55-0.6l0.75-0.18c0.98-0.26,0.98-0.26,1.68-0.4l1.12-0.18l1.31-0.22
	l1.13-0.2l1.12-0.2l1.69-0.2l1.31-0.2c4.51-0.8,12.47-1.71,15.74,0.87c1.19,0.93,1.56,1.87,2.19,3.52
	c2.38,6.17-9.02,17.6-12.61,19.43c-0.08,0.04-2.03,0.66-2.24,0.68l-1.87,0.02c-3.75,0.04-3.75,0.04-5.8,0.26
	c-3.16,0.32-7.66,0.78-9.35,1.23c-3.44,0.89-6.89,1.87-10.08,2.92c-1.57,0.5-3.04,1.01-4.49,1.55c-1.35,0.5-2.94,1.09-4.1,1.45
	c-1.69,0.52-4,1.25-5.04,1.47c-1.59,0.32-3.05,0.89-4.49,1.45c-6.13,2.37-13.01,4.75-18.75,6.58c-0.79,0.24-3.05,1.23-4.38,1.83
	l-1.3,0.66l-0.75,0.38c-0.94,0.48-1.77,0.91-2.79,1.33l-0.84,0.38l-0.65,0.4l-0.74,0.36c-0.74,0.4-1.64,0.8-2.41,1.17
	c-1.66,0.76-3.44,1.31-5.41,1.83c-1.41,0.36-3.11-0.22-3.82-0.93c-0.92-0.88-1.08-2.07-1.01-3.78c0.04-1.2,0.91-2.47,1.62-3.1
	c0.83-0.7,1.57-1.89,2.15-2.86c0.62-1.05,1.19-2.21,1.37-3.66c0.32-2.66,0.44-3.7,1.66-5.33c1.08-1.47,2.91-3.06,4.39-4.16
	c0.74-0.56,1.77-0.87,2.93-1.19c0.81-0.24,3.45-1.13,2.93-1.77c-0.05-0.08-6.9-3.92-8.63-4.83c-2.2-1.15-5.85-3.12-7.64-5.53
	c-0.89-0.68-0.94-0.72-1.04-0.82c-0.26-0.3-0.26-0.3-0.92-0.89l-1.8-1.75c-0.81-0.99-0.84-1.03-0.84-1.03l-1.9-1.85
	c-2.12-2.07-4.41-5.39-5.28-8.69c-0.58-2.23,0.73-4.56,1.75-5.99c0.89-0.97,0.89-0.98,0.89-0.98c0.41-0.5,1.01-1.25,1.12-1.41
	c0.82-1.35,1.61-2.63,1.91-4.42c0.34-1.99,0.71-3.4,1.77-4.67C867.04,134.17,890.96,109.51,895.78,108.55z"/>
<path class="st0" d="M840.33,39.13l0.63-1.33c0.31-0.74,0.89-2.25,0.91-2.45c0.07-0.92-0.06-1.09-0.49-1.67
	c-0.6-0.82-0.96-1.29-0.96-1.69c0-0.54,1.7,0.56,1.7,0.56c0.66,0.42,0.74,0.48,1.46,0.32c0.76-0.18,1.58-3.26,1.77-4.3
	c0.43-2.25,0.8-3.38,1.98-4.77c0,0,1.48-1.89,2.21-2.84c0.76-0.96,1.7-2.17,2.37-2.92c0.88-0.96,2.01-2.09,3.3-3.26
	c0.35-0.28,0.35-0.28,0.96-0.9l0.93-0.95l1.02-0.87c0.74-1.53,13.31-10.1,15.49-11.16c1.9-0.92,7.85-0.6,11.41-0.4
	c3.7,0.22,8.59,1.51,12.02,2.68c1.98,0.68,4.11,1.23,6.39,1.61c2.48,0.44,5.52,0.95,7.5,1.43c1.12,0.26,2.53,0.48,3.94,0.7
	c1.28,0.2,3.44,0.54,4.13,0.7c1.2,0.28,2.46,0.54,3.75,0.7c1.57,0.22,4.04,0.54,4.69,0.7c2.09,0.5,5.61,1.01,8.45,1.41l1.5,0.16
	l1.13,0.18l1.32,0.18l1.31,0.16c1.72,0.3,3.95,0.68,4.42,0.99c1.25,0.84,2.39,1.63,2.85,3.16c0.67,2.31,0.42,4.69-0.21,6.74
	c-1.17,3.78-3.79,7.56-6.09,10.88c-0.06,0.1-0.84,0.78-0.96,0.89c-0.47,0.34-0.47,0.34-0.87,0.97c-0.36,0.58-1.06,1.41-1.7,2.13
	c-1.14,1.31-2.25,2.62-3.33,3.96c-0.73,0.92-2.37,2.63-3.51,3.8c-0.4,0.4-1.22,1.06-1.88,1.61c-0.66,0.54-1.29,1.15-1.83,1.79
	c-2.13,2.55-8.83,5.93-12.8,7.86c-7.46,3.6-17.19,6.98-26.29,10.12c-1.42,0.48-8.33,1.43-12.53,2.01c-1.93,0.26-3.77,0.62-5.99,1.19
	l-0.74,0.2c-0.92,0.24-1.75,0.44-2.81,0.58c-3.88,0.5-6.5-0.18-8.51-1.75c-1.31-1.03-0.75-2.92-0.24-4.67
	c0.17-0.58,26.14-13.62,27.82-14.3c10.22-4.1,23.42-9.43,31.27-14.42c0.91-0.56-8.03-2.03-9.16-2.21
	c-4.06-0.62-12.36-1.95-13.7-2.27c-6.92-1.65-20.78-4.93-24.4-4.04c-6.49,1.57-12.4,7.6-16.31,11.93c-2.11,2.33-4.69,5.19-8.4,5.77
	c-0.96,0.14-2.62-0.16-3.38-0.62c-0.42-0.26-0.67-0.52-0.95-0.92l-0.7-1.19l-2.87-0.18l-1.38-0.2c-0.67-0.28,1.74-0.56,1.74-0.56
	C838.17,40.32,840.34,39.92,840.33,39.13z"/>
<path class="st0" d="M556.31,173.21c0.85-0.6,4.57-2.39,6.86-3.5l0.92-0.38l0.65-0.38c0.67-0.36,1.4-0.76,2.05-1.06
	c1.35-0.58,4.42-1.97,4.48-2.01c0.06-0.02,2.34-1.07,3.35-1.53c1.44-0.64,3.04-1.37,4.48-2.11c1.19-0.6,2.42-1.23,3.72-1.73
	c1.47-0.56,2.82-1.25,4.1-1.91l0.74-0.28l0.75-0.3l0.56-0.28l1.68-0.76c0.41-0.16,0.41-0.16,1.31-0.58l0.64-0.28
	c0.65-0.26,0.65-0.26,1.59-0.68c2.67-1.17,5.43-2.41,8.02-3.74c2.42-1.25,4.94-2.43,7.45-3.54l0.74-0.28c0,0,2.03-0.82,2.61-1.07
	l0.74-0.28c0.64-0.28,1.49-0.67,2.62-1.07c1.23-0.36,1.23-0.36,1.5-0.48c2.57-1.17,6.79-2.64,10.07-3.76
	c2.36-0.83,6.65-2.54,9.69-3.76c0.6-0.24,1.24-0.46,1.87-0.68c1.15-0.36,2.09-0.76,3.17-1.25c0.76-0.34,1.86-0.78,2.8-1.15
	c1.19-0.48,2.35-0.96,3.54-1.45l0.65-0.28l0.84-0.38l0.74-0.4l0.93-0.38l0.74-0.38l0.74-0.38l0.75-0.38
	c0.11-0.04,1.99-0.76,2.79-1.06l1.13-0.38c0.56-0.18,0.56-0.18,1.31-0.48l22.2-8.67c3.44-1.33,8.56-3.32,10.63-4.14
	c0.21-0.08,1.37-0.6,1.49-0.66l1.3-0.68l0.74-0.28l1.5-0.68l0.73-0.28c1.9-0.84,5.2-2.31,6.16-2.67
	c6.74-2.56,20.66-9.69,31.67-15.35c2.36-1.21,5.76-2.98,7.22-4.22c2.15-1.85,4.71-3.28,7.47-4.55c2.36-1.09,4.83-2.03,7.27-2.98
	c1.27-0.5,3-1.17,3.91-1.65c1.51-0.77,3.34-1.71,4.29-1.63c3.29,0.26,4.98,4.61,6.18,7.7c1.95,5.03-2.84,15-5.11,17.32
	c-1.82,1.87-3.35,3.1-5.98,4.24c-0.3,0.14-0.91,0.34-1.68,0.58c-0.56,0.18-1.4,0.56-2.05,0.87c-0.35,0.16-1.21,0.48-1.68,0.68
	c-0.13,0.04-1.57,0.72-2.23,1.04c-9.54,4.61-19.3,9.11-28.89,13.44c-4.62,2.09-9.2,4.47-13.6,6.88c-0.72,0.4-5.02,2.35-7.46,3.46
	c-1.14,0.52-2.41,0.99-3.72,1.45c-0.28,0.1-0.4,0.16-1.4,0.66c-0.3,0.16-1.61,0.74-2.33,1.05c-7.87,3.48-18.75,7.5-28.16,11
	c-1.21,0.44-2.35,0.91-3.54,1.45c-1.05,0.44-2.47,1.03-3.73,1.53c-0.6,0.24-2.37,1.03-3.54,1.53c-1.04,0.46-2.95,1.31-3.35,1.45
	c-2.5,0.92-5.36,2.27-7.84,3.46c-1.09,0.52-2.18,0.95-3.36,1.35c-1.13,0.4-2.86,1.01-3.54,1.25c-9.21,3.58-23.31,9.07-27.97,11.18
	c-5.23,2.35-10.65,4.73-16.04,6.82c-2.72,1.06-9,3.82-13.61,5.87c-4.79,2.11-9.58,4.36-14.15,6.7c-2.22,1.15-4.24,2.46-6.24,3.82
	c-2.01,1.37-4.3,2.94-6.23,3.52c-1.34,0.42-2.92,0.06-3.53-0.64C548.73,196.48,554.45,175.83,556.31,173.21z"/>
<path class="st0" d="M235.18,364.33c-0.43-2.91,0.73-5.1,3.49-6.15c2.18-0.83,4.36-1.25,6.53-1.34c0.16-2.37,1.77-4.7,4.8-4.84
	c7.76-0.37,15.93,1.24,22.49,5.49c-1.98-3.49-4.56-7.2-6.98-10.11c-0.69-0.82-1.51-1.81-2.05-2.53c-0.81-1.09-1.68-2.27-2.53-3.14
	c-1.11-1.13-11.44-2.23-13.06-1.55c-0.69,0.28-1.47,0.76-2.37,1.45c-0.33,0.32-0.33,0.32-0.96,0.75c-0.49,0.3-1.03,0.76-1.46,1.17
	c-0.5,0.46-1.23,1.01-1.89,1.47c-0.53,0.4-1.09,0.92-1.55,1.39c-0.39,0.42-0.83,0.87-1.27,1.23c-1.1,0.95-3.01,2.57-3.45,2.94
	c-2.29,1.87-4.97,4.06-6.39,5.79c-0.72,0.88-2.14,2.35-3.25,3.48c-0.52,0.54-0.92,1.03-1.37,1.63c-0.5,0.7-0.51,4.2-0.36,4.04
	c0,0,3.13,1.59,3.46,1.77c0.48,0.26,0.48,0.26,1.13,0.54c0.8,0.34,1.62,0.7,2.44,1.11c0.91,0.44,4.4,1.75,6.78,2.64
	c0.23,0.08,0.47,0.17,0.7,0.26C236.58,369.44,235.56,366.92,235.18,364.33z"/>
<path class="st0" d="M127.73,173.51c0.69-0.52,1.42-0.7,2.54-1.01c0.92-0.24,1.82-0.68,2.61-1.07c1.08-0.52,2.19-0.98,3.36-1.43
	c0.75-0.3,0.75-0.3,1.49-0.68c0.57-0.3,1.41-0.67,2.05-0.97c0.53-0.24,0.53-0.24,1.31-0.28c0.96-0.06,0.96-0.06,1.67-0.48
	c0,0,2.75-1.29,3.73-1.73l0.74-0.38l1.31-0.68l0.74-0.28l0.75-0.38l0.75-0.3c0.73-0.28,1.58-0.67,2.41-1.05
	c8.4-3.84,18.48-8.45,25.53-12.09c4.36-2.23,16.68-7.79,26.64-12.27c0.82-0.36,2.21-0.99,2.61-1.15c1.11-0.46,3.35-1.35,3.35-1.35
	l1.31-0.58l0.74-0.38l0.94-0.38c1.08-0.48,1.08-0.48,1.31-0.58l0.92-0.38l0.75-0.38l0.74-0.38c2.06-0.93,5.44-2.43,6.34-2.8
	c0.96-0.36,4.27-1.83,6.35-2.77c33.58-15.15,81.41-36.85,100.05-47.73c0.95-0.56,2.91,0.2,4.27,0.74c1.21,0.46,3.45,4.53,3.76,6.09
	c1.41,7.12-0.74,14.08-4.17,17.88c-1.74,1.91-3.19,3.52-5.6,4.22c-2.53,0.75-4.9,1.59-7.27,2.8c-8.78,4.5-17.96,9.13-27.01,13.13
	l-27.96,13.24c-9.5,4.18-22.83,10.08-28.7,12.77c-8.92,4.08-18.16,8.29-27.4,12.09c-9.72,4.02-19.5,8.61-28.89,13.44
	c-0.83,0.44-1.75,0.87-2.6,1.25c-1.17,0.5-2.99,1.33-3.54,1.63c-1.15,0.62-2.23,1.21-3.54,1.71c-1.41,0.58-2.7,1.23-3.91,1.93
	c-0.9,0.52-1.91,0.89-2.99,1.25c-0.48,0.16-2.18,0.9-3.17,1.35c-0.66,0.3-5,2.37-7.45,3.54c-2.17,1.05-4.82,2.31-6.9,2.98
	c-1.21,0.4-5.26,2.43-7.08,3.36c-4.42,2.27-12.05,6.14-13.78,6.8c-6.74,2.61-5.14-10.4-3.33-13.26c0.17-0.26,0.59-1.03,0.63-1.41
	l0.16-3l0.17-1.69l0.53-1.89l0.27-0.74l0.28-0.74C126.24,176.81,126.76,175.04,127.73,173.51z"/>
<path class="st0" d="M1254.69,327.87c-0.1-1.15-0.1-1.15-0.4-2.43c-0.23-1.03-0.27-1.19-0.21-2.43c0.28-5.51-0.28-10.58-1.11-15.53
	c-1.31-7.91-2.95-17.86-3.68-19.63c-2.77-6.7-5.86-12.83-9.57-18.52c-4-6.16-18.02-25-23.25-27.38c-1.03-0.46-3.48-0.91-4.27,0.16
	c-0.88,1.21-4.16,16.05-4.31,18.77c-0.18,3.2-0.37,6.6-1.21,9.66c-0.85,3.12-2.65,10.28-1.54,13.5c1.67,4.83,5.01,7.95,8.5,10.92
	c3.1,2.63,5.63,6.54,7.75,10.16c2.6,4.44,6.1,10.42,7.81,12.93c1.41,2.05,2.5,4.28,3.54,6.7c0.31,0.72,2.89,6.72,2.38,7.06
	c-11.3,7.68-31.1,11.89-48.87,15.65c-10.3,2.17-23.43,4.97-28.58,6.3c-6.75,1.77-13.4,2.74-20.94,3.24
	c-2.37,0.16-4.71,0.46-6.92,0.83c-3.66,0.6-7.62,0.64-11.8,0.68c-7.02,0.08-7.02,0.08-9.36,0.3c-2.88,0.26-2.88,0.26-9.35,0.48
	c-5.49,0.16-13.08,0.14-18.92,0.02c-2.41-0.06-8.6-0.95-12.94-1.55c-1.27-0.18-4.12-0.36-6.38-0.5c-1.61-0.08-3.15-0.44-4.5-0.78
	l-1.13-0.26l-1.68-0.18l-0.75-0.18l-0.94-0.18l-0.75-0.18c-0.94-0.24-2.03-0.5-3.01-0.7c-0.99-0.22-1.96-0.4-3-0.52
	c-1.76-0.24-1.76-0.24-2.25-0.34c-1.01-0.26-1.01-0.26-1.69-0.36c-0.93-0.16-0.93-0.16-1.69-0.36
	c-10.22-2.66-27.21-13.42-33.15-20.56c-0.98-1.21-2.4-2.57-3.68-3.82c-0.65-0.64-1.95-2.19-2.96-3.42c-1.1-1.31-3.73-5.45-5.37-8.05
	c-2.03-3.22-5.11-8.1-5.72-9.31c-1.67-3.24-4.47-8.67-4.78-9.21c-1.53-2.6-2.89-6.09-4.13-9.31c-0.61-1.57-1.14-3.28-1.56-5.05
	c-0.4-1.71-0.97-3.2-1.64-4.64c-2.48-5.43-5.15-11.49-6.66-17.92c-1.5-6.42-3.55-14.18-6.68-19.49c-0.81-1.39-1.46-3.2-1.83-4.95
	c-0.22-1.05-0.5-2.35-0.59-3c-0.17-1.07-0.32-1.89-0.59-2.79c-1.01-3.36-2.58-8.69-2.78-8.99c-0.2-0.32-2.7-2.17-3.48-1.11
	c-3.32,4.51-7.06,28.99-7.12,37.03c-0.06,7.7,1.17,15.23,2.48,22.07c1.09,5.61,4.39,13.9,6.68,19.61
	c1.24,3.08,5.96,16.54,5.54,18.28c-1.05,4.39-16.84,27.38-21.32,28.42c-10.21,2.37-24.25,0.66-34.29-0.56
	c-7.13-0.87-15.62-0.89-23.29-0.7c-5.44,0.12-5.44,0.12-5.3-2.43c0.04-0.74,0.45-2.71,0.7-3.94c0.87-4.12,2.91-13.32,3.31-14.1
	c2.68-5.11,2.16-14.86-0.02-19.65c-0.19-0.4-1.39-1.61-2.24-2.45c-0.49-0.5-0.81-0.7-1.45-1.07l-1.23-0.64
	c-0.8-0.76-2.48,0.08-2.96,0.52c-0.58,0.58-0.88,1.43-1.04,2.41c-0.22,1.33-0.31,1.89-0.63,2.63c-0.03,0.1-0.7,2.11-0.99,3.02
	c-0.45,1.43-0.91,2.82-1.45,4.12c-0.42,1.01-1.13,2.71-1.28,3.2c-0.48,1.49-0.57,3.46-0.68,5.81c-0.08,1.55-0.65,2.92-1.17,4.14
	c-1.07,2.49-2.07,4.99-2.83,7.71c-0.42,1.55-0.82,3.02-1.07,4.69l-0.35,2.63l-0.16,1.87c-0.09,0.68-0.18,0.98-0.36,1.51
	c-0.35,1.01-1.46,4.14-1.46,4.14c-0.42,1.01-1.46,3.56-1.46,3.56c-0.9,3.32-5.02,12.07-7.05,13.94c-1.42,1.31-11.55-1.77-13.14-2.37
	c-0.54-0.22-0.54-0.22-1.32-0.64c-0.44-0.26-0.44-0.26-1.5-0.72c-0.76-0.36-2.36-1.06-2.46-1.11l-0.74-0.28l-0.75-0.26l-1.51-0.75
	l-0.95-0.36l-0.74-0.36l-0.75-0.28c0,0-2.03-0.82-2.83-1.17l-1.51-0.75c-0.19-0.1-0.19-0.1-1.5-0.64c-1.49-0.62-3.14-1.31-4.52-1.91
	c-1.98-0.84-3.79-1.65-5.65-2.55c-0.75-0.38-0.75-0.38-1.41-0.75c-0.65-0.36-0.65-0.36-1.42-0.72c-0.12-0.06-0.12-0.06-0.98-0.7
	l-0.72-0.4c-0.88,0.72-0.43-3.54-0.23-4.12c0.11-0.32,0.11-0.32,0.63-2.05l0.18-0.58c0.28-0.56,0.52-1.13,0.74-1.87l0.35-1.51
	l0.27-0.95c0.7-1.85,1.35-3.78,1.9-5.81c0.33-1.21,0.72-2.64,1.09-3.76c0.52-1.63,1.09-3.32,1.63-4.89c0.25-0.74,0.5-1.43,0.82-2.07
	c0.36-0.75,0.82-1.71,1.01-2.25c1.04-3.24,2.28-7.1,1.38-10.88c-0.43-1.79-4.42-7.2-7.09-5.83c-0.39,0.2-1.44,2.23-2.38,4.06
	c-0.69,1.31-1.48,2.65-2.21,3.86c-1.56,2.6-3.13,5.19-4.78,7.72c-0.5,0.76-1.26,1.93-1.48,2.35l-0.36,0.76l-0.37,0.76l-0.36,0.74
	c-0.69,1.23-1.46,2.41-2.21,3.58c-0.51,0.78-1.03,1.59-1.47,2.45c-0.36,0.7-0.7,1.27-1.11,1.89l-1.04,1.81
	c-0.17,0.3-0.82,1.19-1.18,1.67c-1.32,1.83-3.62,4.91-4.09,5.35c-1.53,1.37-3.44,3.08-4.56,4.44c-3.29,3.92-9.28,7.42-13.98,9.84
	c-4.75,2.43-10.87,4.26-16.98,6.09c-2.95,0.88-7.64,2.27-8.59,2.61c-2.68,0.97-6.38,2.31-8.4,2.62c-2.58,0.4-7.08,1.73-10.46,2.76
	c-3,0.88-6.23,1.61-9.71,2.35l-13.27,2.39l-0.94,0.18l-3.55,0.24l-1.32,0.2c-1.7,0.24-2.82,0.4-4.49,0.6l-1.12,0.2l-1.31,0.2
	l-1.31,0.2c-2.57,0.16-8.24,0.38-8.24,0.38c0.1-0.83,1.81-3.46,3.31-5.75c0.6-0.93,1.84-2.84,1.84-2.84c0.18-0.3,0.18-0.3,0.7-0.89
	c0.2-0.22,0.61-0.82,0.77-1.09c0.36-0.67,0.68-1.11,1.15-1.67l0.89-1.09c2.14-3.12,3.87-6.16,4.69-8.39
	c0.31-0.88,5.14-19.99,7.17-28.54c0.45-1.87,0.45-5.15-0.36-7.48c-0.51-1.47-4.63-5.37-6.69-3.66c-0.49,0.4-1.91,4.22-2.55,6.01
	c-0.69,1.91-1.58,3.78-2.66,5.37c-3.3,4.79-8.23,11.83-11.95,14.7c-1.22,0.95-2.55,2.19-3.63,3.3c-0.75,0.78-2.14,1.93-3.24,2.82
	c-1.08,0.9-2.78,2.29-3.4,2.74c-0.73,0.52-1.54,1.11-2.14,1.51c-0.56,0.4-0.56,0.4-1.21,0.76l-0.65,0.38
	c-6.76,5.03-22.75,10.62-35.14,14.9c-2.63,0.91-6.85,2.37-8.03,2.71c-0.1,0.04-1.45,0.54-2.05,0.78c-0.75,0.28-1.56,0.54-2.42,0.76
	c-0.86,0.22-1.66,0.5-2.42,0.77c-0.55,0.22-1.3,0.48-1.87,0.6c-4.2,0.89-9.64,2.03-11.39,2.56c-0.63,0.18-2.09,0.52-3.17,0.78
	c-0.05,0-1.51,0.38-2.25,0.58c-1.28,0.34-4.03,1.09-4.28,1.17c-0.89,0.3-2.22,0.62-3.18,0.78l-1.87,0.22l-1.87,0.2l-1.12,0.2
	c-0.85,0.16-1.64,0.34-2.43,0.58c-0.68,0.2-1.33,0.4-2.06,0.58c-0.7,0.18-1.68,0.4-2.42,0.58l-1.87,0.4l-0.74,0.2
	c0,0-1.53,0.38-2.24,0.58c-0.36,0.08-0.36,0.08-2.05,0.38l-0.94,0.2c-4.17,1.11-9.28,1.89-13.84,2.6c-2.55,0.4-4.9,0.82-7.09,1.29
	c-2.8,0.6-6.2,1.31-9.17,1.12c-1.71-0.08-2.88-0.14-4.02,0.52c-1.04,0.6-1.17,0.67-2.71,0.89c-1.4,0.2-1.4,0.2-2.24,0.38l-0.94,0.2
	l-1.5,0.2l-1.31,0.2l-1.31,0.22c-7.26,1.11-15.96,1.67-23.86,2.13c-2.07,0.1-8.73,0.81-13,1.27c-5.25,0.54-12.99,0.56-19.1,0.38
	c-2.82-0.08-3.7,0.04-5.8,0.44c-1.24,0.24-2.64,0.48-4.11,0.6c-0.69,0.06-4.07,0.38-4.61,0.44l-5.49,0.42l-2.43,0.02
	c-3.4,0.48-16.01-0.95-23.06-1.81c-3.67-0.44-7.31-0.82-11.06-1.19l-2.06-0.16l-2.71,0.04l-0.65-0.2l-2.25-0.14l-0.75-0.2
	l-1.32-0.16l-1.12-0.18c-2.98-0.46-4.94-0.76-8.07-0.84c-2.15-0.06-4.95-0.83-7.13-1.41c-2.98-0.82-7.47-2.07-9.21-2.82
	c-0.89-0.38-1.98-0.82-2.82-0.98l-1.13-0.18l-1.69-0.16c-1.29-0.36-2.51-0.73-3.38-1.01c-0.62-0.2-1.41-0.44-2.07-0.62
	c-3.27-0.91-6.41-2.19-9.21-3.56c-2.8-1.35-7.41-3.6-9.79-3.9c-4.03-0.54-8.38-1.12-12.01-2.41c-0.29-0.1-4.39-2.6-6.03-3.68
	l-1.2-0.67l-1.06-0.7c-0.96-0.72-2.1-1.57-2.65-1.95c-3.26-2.11-6.48-4.24-9.37-6.76c-8.16-7.04-16-14.42-23.68-21.94
	c-3.83-3.74-8.51-8.33-11.34-12.13c-3.57-4.79-6.71-8.17-11.99-11.26c-3.61-2.13-17.14-1.19-21.16,0.14
	c-7.92,2.59-24.09,28.1-27.78,37.01c-1.79,4.3-3.55,8.39-6.57,11.47c-2.51,2.57-5.18,5.29-7.17,8.35
	c-3.93,6.06-9.18,12.35-15.75,15.73c-4.97,2.55-11.46,5.57-17.53,6.64c-13.7,2.45-30.16,5.39-39.83,6.07
	c-6.1,0.42-12.69-0.36-18.18-1.87c-1.53-0.42-3.95-1.11-4.51-1.35c-1.59-0.73-2.98-1.15-5.07-1.53c-6.62-1.25-14.11-4.02-18.19-8.08
	c-4.54-4.51-10.04-10-12.96-14.99c-3.52-6.01-6.19-13.74-8.95-21.72c-1.72-5.01-2.84-11.12-3.37-17.12l-0.22-2.7l-0.01-0.76v-0.74
	c-0.15-2.54-0.33-5.55-0.83-7.48c-0.29-1.13-0.74-2.84-0.97-3.54c-0.22-0.66-0.46-1.53-0.6-2.25c-0.3-1.75-0.68-3.88-0.79-4.67
	c-0.03-0.2-0.32-3.8-0.43-5.23l-0.42-4.69L52,301.2l-0.22-2.82l-0.21-2.43l-0.23-3.74c-0.14-1.59-0.4-3.72-0.61-5.43
	c-0.1-0.8-0.51-2.76-0.81-4.1l-0.39-1.51l-0.38-1.11c-0.59-2.79-0.97-5.49-1.41-8.41c-0.29-2.07-0.59-4.56-0.82-6.74
	c-0.26-2.55-0.54-4.95-0.83-7.3c-0.34-2.88-0.63-5.39-0.83-8.41c-0.21-3.12-0.57-8.07-0.85-9.53c-1.02-5.27-2.39-12.33-3-16.27
	c0-0.06-0.53-3.04-0.8-4.49c-0.24-1.35-0.24-1.35-0.4-2.62l-0.21-1.69l-0.2-1.51c-0.18-1.19-0.45-2.41-0.78-3.54
	c-0.23-0.78-0.33-2.11-0.41-3c-0.65-8.53-1.43-17.1-2.89-24.68c-0.4-2.05-0.6-4.14-0.82-6.35c-0.22-2.17-0.51-4.24-0.82-6.36
	c-0.29-2.03-0.58-4.28-0.82-6.38c-0.08-0.68-0.39-3.42-0.44-3.84c-0.23-1.85-0.96-10.62-1.27-14.58c-0.28-3.56-0.53-6.74-1.04-9.82
	c-0.9-5.45-2.17-17.78-3.11-26.93l-0.2-1.33l-0.25-5.05c-0.05-0.72-0.25-2.09-0.4-2.8c-0.37-1.77-0.65-5.07-0.83-7.1l-0.26-6.66
	l-0.04-4.02L25.21,79c-0.14-1.15-0.38-2.93-0.59-3.56c-0.12-0.32-0.69-3.32-0.99-4.87c-0.3-1.57-0.61-2.94-1.08-4.28l-1.36-3.92
	c-0.19-0.58-0.45-1.47-0.67-2.23c-0.12-0.4-0.4-1.33-0.58-1.69c-0.55-1.09-2.01-3-3.32-3.16c-1.51-0.16-2.15-0.1-2.95,0.82
	c-3.02,3.02-8.58,35-8.66,42.02c-0.08,6.68,0.89,13.46,2.46,19.45c0.52,1.97,1.76,12.85,2.46,19.83l0.21,2.41l0.21,1.69l0.2,1.69
	l0.22,2.43l0.2,1.87l0.03,2.82c0.02,0.24,0.21,1.15,0.4,2.05c0.12,0.56,0.53,5.55,0.63,7.1c0.1,1.45,0.42,4.3,0.63,6.17
	c0.35,3.12,1.78,13.07,2.64,19.07c1.08,7.4,2.57,17.84,3.06,23.01c0.95,10,2.09,22.11,2.92,26.01c1.23,5.83,2.44,12.73,3.01,17.94
	c0.74,7.04,1.92,15.75,3.07,24.12c0.1,0.66,0.51,2.07,0.78,3c0.36,1.21,0.59,2.65,0.8,3.92c0.3,1.99,0.54,3.78,0.81,5.79l0.2,1.33
	l0.2,1.11l0.2,1.69l0.2,1.49c1.09,7.52,2.14,15.27,2.68,22.45c0,0.06,0.57,4.02,0.81,5.61l0.11,0.74c0.42,0.54,0.77,3.26,0.88,4.1
	c0.44,3.48,1.18,9.29,1.24,10.48c0.36,6.7,0.99,16.31,2.88,22.63c0.39,1.35,0.53,2.72,0.8,5.43c0.19,1.91,0.48,4.12,0.82,5.98
	c0.67,3.78,1.6,8.97,1.6,8.97c0.38,6.2,1.89,11.51,3.82,15.89c3.16,7.14,6.3,13.6,9.97,20.29c1.77,3.24,5.91,7.18,8.76,9.43
	c1.58,1.25,3.66,2.9,4.69,4.29c1.45,1.95,2.68,3.62,5.1,3.8c1.83,0.1,4.44,1.09,7.52,2.23c2.15,0.83,4.32,1.55,6.58,2.27
	c4.76,1.53,9.82,3.18,15.03,3.78c7.87,0.9,14.03,1.63,17.06,1.69c1.23,0,8.38-1.19,11.97-1.83l1.5-0.2l2.24-0.22l1.31-0.2l1.13-0.18
	l0.74-0.2l3.74-0.42h0.75l0.94-0.2c3.17-0.64,7.61-1.57,8.97-1.97c2.55-0.76,5.28-1.41,7.85-1.95c3.24-0.68,5.75-1.35,8.41-2.45
	c0.73-0.3,1.58-0.64,2.23-0.85c0.75-0.26,1.38-0.46,1.68-0.58c0.29-0.14,2.19-0.88,3.17-1.27c1.94-0.74,3.82-1.49,5.78-2.39
	c1.49-0.7,4.25-2.96,6.26-4.61c1.01-0.83,2.22-1.83,2.89-2.49c0.7-0.73,1.57-1.61,2.21-2.07c2.36-1.73,7.03-8.37,9.35-11.79
	c0.53-0.81,7.96-11.75,9.15-10.82c0.13,0.1,0.42,2.05,0.43,2.13l0.2,1.13l0.38,1.11c0.1,0.26,1.06,1.95,1.63,3
	c0.96,1.67,2.94,3.38,4.4,4.59c4.32,3.58,9.38,6.48,14.67,9.05c0.88,0.42,2.15,1.04,2.83,1.19l1.13,0.18l0.94,0.18l1.04,0.26
	c0.83,0.32,1.82,0.72,2.34,0.83c0.9,0.14,1.68,0.28,2.44,0.52c1.35,0.42,2.86,0.87,4.33,1.06c2.26,0.36,4.32,0.75,6.19,1.25
	c2.19,0.58,4.71,1.27,6.2,1.43c1.89,0.24,3.37,0.56,4.89,1.09l0.75,0.26l0.65,0.36l0.85,0.28c0.56,0.18,0.56,0.18,1.32,0.46
	l0.75,0.26c0.16,0.06,1.75,0.36,2.63,0.54c0.95,0.18,1.82,0.5,2.63,0.81c2.65,1.01,5.79,1.89,8.64,2.43
	c2.78,0.52,6.42,1.69,9.59,2.7c0.45,0.16,0.89,0.3,1.32,0.38l1.31,0.16l0.94,0.18c0.78,0.16,1.67,0.34,2.44,0.54
	c1.63,0.38,2.71,0.84,3.95,1.53c1.98,1.11,8.61,2.84,10.88,1.77c1.62-0.78,3.51-3.7,4.15-5.49c0.7-1.95,1.12-3.82,1.62-6.2
	c0.19-0.92,0.52-2.47,0.52-3c0.05-2.57,0.05-2.57,0.6-5.17c0.53-2.47,7.61,0.46,8.44,0.95c2.19,1.29,3.32,1.95,6.59,2.65
	c0.97,0.2,2.7,1.01,3.76,1.55c1.13,0.54,2.32,1.09,3.57,1.55c1.16,0.4,2.71,0.97,3.39,1.37c0.61,0.34,2.11,0.78,3.39,1.19
	c1.2,0.34,2.67,0.83,3.76,1.35c0.66,0.34,2.14,1.09,2.21,1.15c0.85,0.64,1.18,0.89,1.18,0.89c0.67,0.26,0.67,0.26,3,0.24l1.88-0.02
	l1.12,0.26l0.75,0.28l1.13,0.18l0.75,0.16l0.75,0.18l1.13,0.18c1.96,0.52,7.23,1.89,7.7,1.99c1.24,0.22,2.83,0.52,3.76,0.96
	c0.45,0.22,0.45,0.22,0.97,0.7c0.35,0.32,0.35,0.32,1.28,0.68c1.78,0.68,4.33,0.32,5.99-0.26c1.22-0.4,10.24-0.34,11.99-0.12
	l0.94,0.18l0.75,0.18l1.13,0.18l1.13,0.16l0.75,0.18l1.12,0.18c0.7,0.1,4.92,0.46,7.32,0.67l2.24,0.16l3.56,0.14l1.5,0.18l1.51,0.16
	l0.75,0.18l1.5,0.18c4.8,0.2,9.75,0.14,14.42-0.16c3.26-0.22,9.09-0.54,10.49-0.3c3.22,0.52,5.59,0.91,8.42-0.18
	c1.17-0.46,5.52-0.9,8.24-1.13c0,0,7.61-0.52,9.73-0.66l3-0.22l8.24-0.28l1.87-0.2c1.2-0.18,3.03-0.42,3.56-0.42
	c3.31-0.04,5.79-0.22,8.61-0.46l5.23-0.44l2.16-0.02l1.96-0.4c2.7-0.56,6.69-0.84,9.73-1.05c1.19-0.06,1.19-0.06,2.44,0.16
	l1.12,0.18c0.48,0.04,0.48,0.04,1.68-0.28c0.95-0.28,2.98-1.21,4.57-1.95c1.17-0.52,2.47-1.13,3.82-1.43
	c1.95-0.46,4.57-0.85,7.1-1.21c2.58-0.38,5.6-0.81,7.86-1.21c3.82-0.68,9.46-1.71,11.59-2.19c1.79-0.42,3.73-0.82,5.6-1.19
	c1.02-0.2,2.05-0.4,2.81-0.4c0.92,0,1.74-0.2,2.62-0.4c1.58-0.38,3.82-0.9,4.67-1.17c1.21-0.4,3.02-0.98,3.73-1.17
	c6.53-1.71,14.92-3.92,19.43-4.71c0.74-0.14,1.36-0.36,2.05-0.6c0.89-0.3,1.84-0.62,2.61-0.87c0.77-0.24,2.24-0.68,2.24-0.68
	c3.06-0.83,9.78-2.65,10.36-2.54c0.25,0.04,1.74,0.87,3.3,1.73c0.44,0.24,3.42,1.67,3.63,0.97c0.11-0.36-0.73-0.87-1.14-1.11
	l-1.2-0.58c0.59-0.26,1.84-0.66,2.81-0.9l0.94-0.2l0.94-0.2l1.49-0.38c1.32-0.4,4.92-1.47,5.75-0.04c0.14,0.24,2.11-0.06,3.24-0.26
	c2.98-0.48,5.32-0.14,9.55,0.46l1.69,0.16l1.32,0.18c0.37,0.06,1.96,0.26,2.24,0.34c0.29,0.1,0.75,0.48,0.9,0.68
	c0.36,0.46,0.36,0.46,0.74,0.28c0.2-0.1,2.45,0.12,2.49,0.12c1.6,0.16,1.6,0.16,5.25,0.32c2.55,0.1,6.44,0.2,9.64,0.26
	c7.68,0.18,16.31,0.36,21.64-0.04c7.31-0.58,17.19-1.41,23.56-3.08l0.93-0.2l0.75-0.18c1.4-0.52,1.4-0.52,1.68-0.58
	c1.2-0.26,3.43-0.74,3.55-0.78c1.02-0.3,2.22-0.69,3.17-1.07c0.83-0.34,2.09-0.7,3.36-1.07c1.69-0.5,5.13-1.51,5.78-1.75
	c1.41-0.52,2.49-0.92,4.12-1.19c1.1-0.16,2.24-0.46,3.18-0.77c1.77-0.62,3.42-1.29,5.03-2.03c1.64-0.74,3.47-1.45,5.41-2.03
	c0.32-0.1,0.32-0.1,1.87-0.38c0.55-0.12,1.17-0.24,1.68-0.4c0,0,0.01,0,1.68-0.4c0.16-0.02,1.2-0.42,1.31-0.46
	c0.81-0.32,0.81-0.32,1.21-0.58c1.9-1.25,2.82-1.55,3.82-1.91c0.19-0.08,4.75-3.58,6.36-4.91c0,0,1.23-0.8,1.82-1.19
	c0.43-0.26,0.43-0.26,1.3-0.76c0.6-0.4,1.39-1.09,1.8-1.45c0.54-0.5,1.1-0.99,1.64-1.39c0.52-0.38,0.98-0.82,1.43-1.29
	c0.73-0.78,0.73-0.78,0.89-0.98l1.34-1.29l0.66-0.46c0.17-0.14,1.09-0.99,1.56-1.43c0.48-0.46,2.61-2.4,3.28-1.73
	c0.08,0.08,0.41,0.96,0.52,1.27l0.29,0.74l0.77,1.49l0.38,0.74c2.56,4.99,6.44,8.79,10.8,11.87c0.57,0.42,1.18,0.74,1.89,1.01
	c0.7,0.26,1.24,0.52,1.87,0.83c0.69,0.34,1.17,0.66,1.74,1.06c0.58,0.42,1.21,0.78,1.85,1.15c2.2,1.23,6.87,3.9,7.54,4.42
	c1.16,0.91,9.5,4.27,13.16,5.65c2.46,0.93,16.07,4.45,18.02,3.46c3.97-2.05,6.19-5.35,8.14-9.35c1.02-2.11,3.77-7.08,5.87-10.86
	c1.4-2.49,3.86-8.97,5.47-13.26c0.71-1.89,4.73-10.84,5.72-11.08c2.13-0.46,10.53,4.99,13.81,7.12c5.24,3.4,11.18,7.28,12.54,7.82
	c0.45,0.18,1.02,0.58,1.55,0.99c0.66,0.48,1.36,0.84,2.22,1.13l0.94,0.26c0.88,0.3,1.98,0.64,2.25,0.72c0.58,0.2,0.58,0.2,1.33,0.46
	l0.74,0.28l1.88,0.34c0.75,0.24,2.25,0.75,2.25,0.75l0.75,0.16l0.94,0.18c4.4,1.33,21.13,4.91,25.31,2.53
	c6.42-3.64,17.55-17.8,21.08-24.58c0.97-1.85,2.1-3.96,3.31-5.67c1.03-1.43,2.16-3.76,3.12-5.73c0.61-1.25,1.15-2.56,1.65-3.94
	c0,0,0.94-2.23,1.28-3.02c0.4-0.93,3.01-5.87,3.3-6.03c0.51-0.28,2.39,2.94,2.85,3.72c0.72,1.23,1.5,2.47,2.28,3.72
	c0.6,0.95,3.37,5.03,4.96,7.34c3.55,5.21,8.23,12.07,9.51,14.4c0.73,1.35,1.76,2.55,2.89,3.48l0.62,0.42
	c0.94,0.67,2.17,1.53,2.62,1.97c0.76,0.75,2.54,2.49,2.54,2.49c0.18,0.2,0.41,0.54,0.81,1.17l0.42,0.62
	c0.4,0.48,0.96,0.97,1.47,1.33c1.25,0.89,2.52,1.77,3.78,2.57c0.64,0.44,1.28,0.74,2.07,1.03c0.78,0.28,1.34,0.58,1.97,1.01
	c1.17,0.76,2.61,1.69,3.34,2.35c0.97,0.87,2.54,1.71,3.74,2.25c5.41,2.47,13.52,6.11,18.8,6.82c2.47,0.32,5.29,0.68,7.13,1.03
	c0.77,0.16,1.58,0.4,2.25,0.64c0.75,0.28,1.63,0.44,2.62,0.62c0.44,0.08,1.34,0.34,1.7,0.46l0.74,0.26c0,0,1.86,0.5,2.64,0.73
	c0.84,0.22,3.94,1.45,3.94,1.45s3.57,0.3,4.88-0.04l1.31-0.4l1.31-0.02l1.95-0.14l0.48,0.4c0.1,0.06,1.51-1.09,1.68-1.23
	c0.2,0.46,3.56,1.57,4.5,1.63c9.4,0.68,26.58-0.34,40.07-1.19c9.71-0.62,18.56-1.55,27.88-2.74c3.41-0.44,7.3-0.97,9.72-1.89
	c1.89-0.72,3.72-1.45,5.6-1.85c3.56-0.75,7.45-1.37,11.79-1.81c3.54-0.36,6.23-0.91,8.96-1.77c2.41-0.8,5.12-1.55,7.86-1.79
	c3.91-0.34,6.57-0.87,9.71-1.61c2.11-0.48,4.14-1.15,6.17-1.83c0.8-0.28,1.98-0.68,2.6-0.88c0.44-0.12,0.75-0.18,1.69-0.38
	c0.61-0.14,0.61-0.14,1.49-0.4c4.4-1.31,9.51-2.72,14.01-3.88c6.29-1.65,22.35-11.14,25.67-15.83c2.37-3.36,4.24-8.35,5.2-12.89
	c0.14-0.67,0.14-0.67,0.17-1.69l0.14-4.12c0.05-0.95,0.19-1.95,0.34-2.82l0.18-0.92l0.17-1.13c0.24-1.89,0.24-1.89,0.35-2.25
	c0.64-2.37,1.75-6.42,1.8-6.76C1254.6,331.25,1254.82,329.38,1254.69,327.87z M271.49,395.99c-9.3,0.11-18.96-4.07-21.1-13.39
	c-7.66-3.67-14.09-10.71-15.21-18.27c-0.43-2.91,0.73-5.1,3.49-6.15c2.18-0.83,4.36-1.25,6.53-1.34c0.16-2.37,1.77-4.7,4.8-4.84
	c9.92-0.48,20.52,2.28,27.56,9.65c6.12,6.41,8.2,15.67,8.17,24.35C285.71,394.38,278.5,395.91,271.49,395.99z"/>
</svg>
