<?xml version="1.0" encoding="utf-8"?>
<!-- Generator: Adobe Illustrator 23.0.3, SVG Export Plug-In . SVG Version: 6.00 Build 0)  -->
<svg version="1.1" id="Layer_1" xmlns="http://www.w3.org/2000/svg" xmlns:xlink="http://www.w3.org/1999/xlink" x="0px" y="0px"
	 viewBox="0 0 500 200" style="enable-background:new 0 0 500 200;" xml:space="preserve">
<style type="text/css">
	.st0{fill-rule:evenodd;clip-rule:evenodd;fill:#231F20;}
</style>
<path class="st0" d="M410,141.4c0.7-0.7,6.3,2.7,6.7,3c0.1,0.1,0.9,0.8,1.4,1.2c0.2,0.2,0.6,0.5,0.9,0.9l0.3,0.2l0.2,0.1
	c0.6,0.6,2.3,2.1,2.2,3c-0.1,1.4-5.2,7.6-6.1,7.9c-1,0.4-10.7-5.1-10.7-5.1c-0.8-1.3,1.5-5,2.2-5.9c0.1-0.1,0.2-0.4,0.2-0.6
	c0.1-0.3,0.2-0.6,0.4-0.9c0-0.1,0.3-0.4,0.4-0.6c0.1-0.2,0.3-0.4,0.4-0.7c0.1-0.2,0.2-0.3,0.3-0.5c0,0,0.3-0.5,0.4-0.7
	C409.4,142.4,409.8,141.8,410,141.4z"/>
<path class="st0" d="M399.1,179.3c0,0,0.8-0.2,1.3-0.4c0.3-0.1,0.7-0.2,1-0.3c0.8-0.3,1.6-0.6,2.4-1c0.6-0.3,1.7-0.7,2.5-1
	c0.2-0.1,0.4-0.1,0.6-0.2l0.2-0.1c0.1,0,0.1,0,0.4-0.2l0.2-0.1l0.2-0.1l0.2-0.1l0.4-0.1c0.1,0,0.2-0.1,0.5-0.2
	c0.8-0.4,1.9-0.8,2.5-1c0.4-0.1,0.8-0.3,1.2-0.5c0.5-0.2,1.2-0.5,1.4-0.6c1.7-0.6,3.4-1.2,5-1.9c0.7-0.3,1.5-0.6,2.3-0.8
	c0.8-0.3,1.6-0.6,2.3-0.9c0.4-0.1,0.7-0.3,1.1-0.4c0.3-0.1,0.7-0.2,1-0.4c0.3-0.1,0.7-0.3,1-0.4c0,0,1-0.4,1.4-0.5l0.4-0.1l0.3-0.1
	l0.3-0.1l0.3-0.1l0.3-0.1c0.2-0.1,0.5-0.2,0.7-0.3c0.2-0.1,0.4-0.2,0.7-0.3c0.5-0.2,0.9-0.3,1.2-0.5l0.7-0.3
	c0.3-0.1,0.8-0.4,0.9-0.4l0.4-0.2l0.3-0.1l0.3-0.1c0.2-0.1,0.2-0.1,0.3-0.1c0.2-0.1,0.4-0.1,0.6-0.2c0.1,0,0.4-0.2,0.6-0.2
	c0.5-0.2,0.9-0.4,1.4-0.6c0.5-0.2,1.3-0.6,1.6-0.6c0.4,0,1,0.5,1.1,0.8c0.3,0.5,0.5,1.1,0.6,1.8c0.2,1.9-1.4,4.4-2.6,5
	c-0.2,0.1-0.4,0.2-0.7,0.2c-0.3,0.1-0.7,0.2-0.9,0.2c-0.5,0.1-1,0.3-1.5,0.5c-1,0.3-1.9,0.7-2.8,1.1c-0.2,0.1-0.4,0.1-0.6,0.2
	c-0.2,0-0.7,0.3-1,0.4c-0.2,0.1-0.5,0.2-0.8,0.3l-0.3,0.1l-0.4,0.2c-0.5,0.2-1,0.4-1.5,0.6l-0.2,0.1l-0.3,0.1l-0.2,0.1l-0.3,0.1
	l-0.3,0.1l-0.3,0.1l-0.2,0.1c-0.9,0.4-2.2,0.9-2.7,1c-0.8,0.2-1.8,0.6-2.6,0.9c-1.6,0.7-3.7,1.4-5.6,2c-0.5,0.2-1.9,0.7-2.8,1.1
	c-0.4,0.2-1,0.4-1.4,0.6c-0.2,0.1-0.5,0.2-0.7,0.3c-0.2,0.1-0.5,0.2-0.7,0.3c-1,0.3-1.9,0.7-2.8,1.1c-0.4,0.2-1.6,0.6-2.4,0.9
	c-0.6,0.2-1.1,0.5-1.7,0.7c-0.4,0.2-0.9,0.4-1.3,0.6c-0.2,0.1-0.4,0.2-0.7,0.3c-0.3,0.1-0.5,0.2-0.8,0.3c-0.5,0.3-1,0.5-1.6,0.6
	c-0.4,0.1-0.7-0.1-0.8-0.4c-0.4-1.1,0.1-2.4,0.6-3.3l0.1-0.7c0.1-0.4,0.1-0.7,0.3-1l0.1-0.2l0.1-0.2l0.1-0.3l0.1-0.2
	C398.8,179.9,399,179.4,399.1,179.3z"/>
<path class="st0" d="M328.8,50.9c1.1-0.5,3-1.3,3.5-1.4c0.6-0.2,1.3,0,1.8,0.2c1.4,0.5,4.2,3.7,5,5c0.2,0.4,0.2,1.1,0,1.6
	c-0.4,1.5-2.3,4.7-4.2,4.6c-0.4,0-1.7-1.5-2.2-2.2c-0.2-0.2-0.4-0.4-0.5-0.6c-0.2-0.3-0.3-0.6-0.4-0.7c-0.2-0.2-1.1-0.9-1.2-0.9
	c-0.7-0.1-1.4,0.2-1.9,0.4c-1.1,0.7-1.8,1.2-2.8,1.9c0,0-0.5,0.4-0.6,0.5l-0.3,0.2l-0.4,0.4c-0.2,0.2-0.5,0.4-0.6,0.5
	c-0.2,0.2-0.6,0.6-0.6,0.6c-0.1,0,0.6,0.9,0.6,0.9c0.1,0.1,0.1,0.1,0.7,0.6c0.5,0.5,1.1,0.9,1.6,1.3c1.3,0.9,2.8,1.6,4.5,2.1
	c2.5,0.8,6.3,0.4,9.3,0.1c0.3,0,0.7-0.1,1-0.2l0.2,0c0.3-0.1,0.3-0.1,0.5-0.1l0.3,0l0.4-0.1l0.3-0.1l0.3-0.1l0.5-0.1l0.4-0.1
	c1.2-0.2,3.5-0.5,4.4,0.2c0.3,0.3,0.4,0.5,0.6,1c0.7,1.7-2.5,4.9-3.5,5.4c0,0-0.6,0.2-0.6,0.2l-0.5,0c-1,0-1,0-1.6,0.1
	c-0.9,0.1-2.1,0.2-2.6,0.3c-1,0.2-1.9,0.5-2.8,0.8c-0.4,0.1-0.8,0.3-1.2,0.4c-0.4,0.1-0.8,0.3-1.1,0.4c-0.5,0.1-1.1,0.3-1.4,0.4
	c-0.4,0.1-0.8,0.2-1.2,0.4c-1.7,0.7-3.6,1.3-5.2,1.8c-0.2,0.1-0.8,0.3-1.2,0.5l-0.4,0.2l-0.2,0.1c-0.3,0.1-0.5,0.3-0.8,0.4l-0.2,0.1
	l-0.2,0.1l-0.2,0.1c-0.2,0.1-0.5,0.2-0.7,0.3c-0.5,0.2-1,0.4-1.5,0.5c-0.4,0.1-0.9-0.1-1.1-0.3c-0.3-0.2-0.3-0.6-0.3-1
	c0-0.3,0.3-0.7,0.4-0.9c0.2-0.2,0.4-0.5,0.6-0.8c0.2-0.3,0.3-0.6,0.4-1c0.1-0.7,0.1-1,0.5-1.5c0.3-0.4,0.8-0.8,1.2-1.2
	c0.2-0.2,0.5-0.2,0.8-0.3c0.2-0.1,1-0.3,0.8-0.5c0,0-1.9-1.1-2.4-1.3c-0.6-0.3-1.6-0.9-2.1-1.5c-0.2-0.2-0.3-0.2-0.3-0.2
	c-0.1-0.1-0.1-0.1-0.3-0.2l-0.5-0.5c-0.2-0.3-0.2-0.3-0.2-0.3l-0.5-0.5c-0.6-0.6-1.2-1.5-1.5-2.4c-0.2-0.6,0.2-1.3,0.5-1.7
	c0.2-0.3,0.2-0.3,0.2-0.3c0.1-0.1,0.3-0.3,0.3-0.4c0.2-0.4,0.4-0.7,0.5-1.2c0.1-0.6,0.2-0.9,0.5-1.3C320.8,58,327.4,51.2,328.8,50.9
	z"/>
<path class="st0" d="M313.4,31.6l0.2-0.4c0.1-0.2,0.2-0.6,0.3-0.7c0-0.3,0-0.3-0.1-0.5c-0.2-0.2-0.3-0.4-0.3-0.5
	c0-0.1,0.5,0.2,0.5,0.2c0.2,0.1,0.2,0.1,0.4,0.1c0.2,0,0.4-0.9,0.5-1.2c0.1-0.6,0.2-0.9,0.5-1.3c0,0,0.4-0.5,0.6-0.8
	c0.2-0.3,0.5-0.6,0.7-0.8c0.2-0.3,0.6-0.6,0.9-0.9c0.1-0.1,0.1-0.1,0.3-0.2l0.3-0.3l0.3-0.2c0.2-0.4,3.7-2.8,4.3-3.1
	c0.5-0.3,2.2-0.2,3.2-0.1c1,0.1,2.4,0.4,3.3,0.7c0.5,0.2,1.1,0.3,1.8,0.4c0.7,0.1,1.5,0.3,2.1,0.4c0.3,0.1,0.7,0.1,1.1,0.2
	c0.4,0.1,1,0.1,1.1,0.2c0.3,0.1,0.7,0.1,1,0.2c0.4,0.1,1.1,0.1,1.3,0.2c0.6,0.1,1.6,0.3,2.3,0.4l0.4,0l0.3,0l0.4,0l0.4,0
	c0.5,0.1,1.1,0.2,1.2,0.3c0.3,0.2,0.7,0.5,0.8,0.9c0.2,0.6,0.1,1.3-0.1,1.9c-0.3,1-1.1,2.1-1.7,3c0,0-0.2,0.2-0.3,0.2
	c-0.1,0.1-0.1,0.1-0.2,0.3c-0.1,0.2-0.3,0.4-0.5,0.6c-0.3,0.4-0.6,0.7-0.9,1.1c-0.2,0.3-0.7,0.7-1,1.1c-0.1,0.1-0.3,0.3-0.5,0.4
	c-0.2,0.1-0.4,0.3-0.5,0.5c-0.6,0.7-2.4,1.6-3.5,2.2c-2.1,1-4.8,1.9-7.3,2.8c-0.4,0.1-2.3,0.4-3.5,0.6c-0.5,0.1-1,0.2-1.7,0.3
	l-0.2,0.1c-0.3,0.1-0.5,0.1-0.8,0.2c-1.1,0.1-1.8,0-2.4-0.5c-0.4-0.3-0.2-0.8-0.1-1.3c0-0.2,7.2-3.8,7.7-4c2.8-1.1,6.5-2.6,8.7-4
	c0.3-0.2-2.2-0.6-2.5-0.6c-1.1-0.2-3.4-0.5-3.8-0.6c-1.9-0.5-5.8-1.4-6.8-1.1c-1.8,0.4-3.4,2.1-4.5,3.3c-0.6,0.6-1.3,1.4-2.3,1.6
	c-0.3,0-0.7,0-0.9-0.2c-0.1-0.1-0.2-0.1-0.3-0.3l-0.2-0.3l-0.8,0l-0.4-0.1c-0.2-0.1,0.5-0.2,0.5-0.2C312.8,32,313.4,31.9,313.4,31.6
	z"/>
<path class="st0" d="M234.7,68.8c0.2-0.2,1.3-0.7,1.9-1l0.3-0.1l0.2-0.1c0.2-0.1,0.4-0.2,0.6-0.3c0.4-0.2,1.2-0.5,1.2-0.6
	c0,0,0.6-0.3,0.9-0.4c0.4-0.2,0.8-0.4,1.2-0.6c0.3-0.2,0.7-0.3,1-0.5c0.4-0.2,0.8-0.3,1.1-0.5l0.2-0.1l0.2-0.1l0.2-0.1l0.5-0.2
	c0.1,0,0.1,0,0.4-0.2l0.2-0.1c0.2-0.1,0.2-0.1,0.4-0.2c0.7-0.3,1.5-0.7,2.2-1c0.7-0.3,1.4-0.7,2.1-1l0.2-0.1c0,0,0.6-0.2,0.7-0.3
	l0.2-0.1c0.2-0.1,0.4-0.2,0.7-0.3c0.3-0.1,0.3-0.1,0.4-0.1c0.7-0.3,1.9-0.7,2.8-1c0.7-0.2,1.8-0.7,2.7-1c0.2-0.1,0.3-0.1,0.5-0.2
	c0.3-0.1,0.6-0.2,0.9-0.3c0.2-0.1,0.5-0.2,0.8-0.3c0.3-0.1,0.7-0.3,1-0.4l0.2-0.1l0.2-0.1l0.2-0.1l0.3-0.1l0.2-0.1l0.2-0.1l0.2-0.1
	c0,0,0.6-0.2,0.8-0.3l0.3-0.1c0.2,0,0.2,0,0.4-0.1l6.2-2.4c1-0.4,2.4-0.9,2.9-1.1c0.1,0,0.4-0.2,0.4-0.2l0.4-0.2l0.2-0.1l0.4-0.2
	l0.2-0.1c0.5-0.2,1.4-0.6,1.7-0.7c1.9-0.7,5.7-2.7,8.8-4.3c0.7-0.3,1.6-0.8,2-1.2c0.6-0.5,1.3-0.9,2.1-1.3c0.7-0.3,1.3-0.6,2-0.8
	c0.4-0.1,0.8-0.3,1.1-0.5c0.4-0.2,0.9-0.5,1.2-0.5c0.9,0.1,1.4,1.3,1.7,2.1c0.5,1.4-0.8,4.2-1.4,4.8c-0.5,0.5-0.9,0.9-1.7,1.2
	c-0.1,0-0.3,0.1-0.5,0.2c-0.2,0-0.4,0.2-0.6,0.2c-0.1,0-0.3,0.1-0.5,0.2c0,0-0.4,0.2-0.6,0.3c-2.6,1.3-5.3,2.5-8,3.7
	c-1.3,0.6-2.5,1.2-3.8,1.9c-0.2,0.1-1.4,0.7-2.1,1c-0.3,0.1-0.7,0.3-1,0.4c-0.1,0-0.1,0-0.4,0.2c-0.1,0-0.4,0.2-0.6,0.3
	c-2.2,1-5.2,2.1-7.8,3c-0.3,0.1-0.7,0.3-1,0.4c-0.3,0.1-0.7,0.3-1,0.4c-0.2,0.1-0.7,0.3-1,0.4c-0.3,0.1-0.8,0.4-0.9,0.4
	c-0.7,0.3-1.5,0.6-2.2,1c-0.3,0.1-0.6,0.3-0.9,0.4c-0.3,0.1-0.8,0.3-1,0.3c-2.6,1-6.5,2.5-7.8,3.1c-1.4,0.7-3,1.3-4.4,1.9
	c-0.8,0.3-2.5,1.1-3.8,1.6c-1.3,0.6-2.7,1.2-3.9,1.9c-0.6,0.3-1.2,0.7-1.7,1.1c-0.6,0.4-1.2,0.8-1.7,1c-0.4,0.1-0.8,0-1-0.2
	C232.6,75.3,234.2,69.5,234.7,68.8z"/>
<path class="st0" d="M145.7,121.8c-0.1-0.8,0.2-1.4,1-1.7c0.6-0.2,1.2-0.3,1.8-0.4c0-0.7,0.5-1.3,1.3-1.3c2.2-0.1,4.4,0.3,6.2,1.5
	c-0.5-1-1.3-2-1.9-2.8c-0.2-0.2-0.4-0.5-0.6-0.7c-0.2-0.3-0.5-0.6-0.7-0.9c-0.3-0.3-3.2-0.6-3.6-0.4c-0.2,0.1-0.4,0.2-0.7,0.4
	c-0.1,0.1-0.1,0.1-0.3,0.2c-0.1,0.1-0.3,0.2-0.4,0.3c-0.1,0.1-0.3,0.3-0.5,0.4c-0.1,0.1-0.3,0.3-0.4,0.4c-0.1,0.1-0.2,0.2-0.4,0.3
	c-0.3,0.3-0.8,0.7-1,0.8c-0.6,0.5-1.4,1.1-1.8,1.6c-0.2,0.2-0.6,0.7-0.9,1c-0.1,0.1-0.3,0.3-0.4,0.5c-0.1,0.2-0.1,1.2-0.1,1.1
	c0,0,0.9,0.4,1,0.5c0.1,0.1,0.1,0.1,0.3,0.1c0.2,0.1,0.4,0.2,0.7,0.3c0.3,0.1,1.2,0.5,1.9,0.7c0.1,0,0.1,0,0.2,0.1
	C146.1,123.2,145.8,122.5,145.7,121.8z"/>
<path class="st0" d="M115.9,68.9c0.2-0.1,0.4-0.2,0.7-0.3c0.3-0.1,0.5-0.2,0.7-0.3c0.3-0.1,0.6-0.3,0.9-0.4c0.2-0.1,0.2-0.1,0.4-0.2
	c0.2-0.1,0.4-0.2,0.6-0.3c0.1-0.1,0.1-0.1,0.4-0.1c0.3,0,0.3,0,0.5-0.1c0,0,0.8-0.4,1-0.5l0.2-0.1l0.4-0.2l0.2-0.1l0.2-0.1l0.2-0.1
	c0.2-0.1,0.4-0.2,0.7-0.3c2.3-1.1,5.1-2.3,7.1-3.4c1.2-0.6,4.6-2.2,7.4-3.4c0.2-0.1,0.6-0.3,0.7-0.3c0.3-0.1,0.9-0.4,0.9-0.4
	l0.4-0.2l0.2-0.1l0.3-0.1c0.3-0.1,0.3-0.1,0.4-0.2l0.3-0.1l0.2-0.1l0.2-0.1c0.6-0.3,1.5-0.7,1.8-0.8c0.3-0.1,1.2-0.5,1.8-0.8
	c9.3-4.2,22.6-10.2,27.7-13.2c0.3-0.2,0.8,0.1,1.2,0.2c0.3,0.1,1,1.3,1,1.7c0.4,2-0.2,3.9-1.2,5c-0.5,0.5-0.9,1-1.6,1.2
	c-0.7,0.2-1.4,0.4-2,0.8c-2.4,1.2-5,2.5-7.5,3.6l-7.7,3.7c-2.6,1.2-6.3,2.8-8,3.5c-2.5,1.1-5,2.3-7.6,3.4c-2.7,1.1-5.4,2.4-8,3.7
	c-0.2,0.1-0.5,0.2-0.7,0.3c-0.3,0.1-0.8,0.4-1,0.5c-0.3,0.2-0.6,0.3-1,0.5c-0.4,0.2-0.7,0.3-1.1,0.5c-0.2,0.1-0.5,0.2-0.8,0.3
	c-0.1,0-0.6,0.2-0.9,0.4c-0.2,0.1-1.4,0.7-2.1,1c-0.6,0.3-1.3,0.6-1.9,0.8c-0.3,0.1-1.5,0.7-2,0.9c-1.2,0.6-3.3,1.7-3.8,1.9
	c-1.9,0.7-1.4-2.9-0.9-3.7c0-0.1,0.2-0.3,0.2-0.4l0-0.8l0-0.5l0.1-0.5l0.1-0.2l0.1-0.2C115.5,69.8,115.7,69.3,115.9,68.9z"/>
<path class="st0" d="M428.2,111.7c0-0.3,0-0.3-0.1-0.7c-0.1-0.3-0.1-0.3-0.1-0.7c0.1-1.5-0.1-2.9-0.3-4.3c-0.4-2.2-0.8-4.9-1-5.4
	c-0.8-1.9-1.6-3.6-2.7-5.1c-1.1-1.7-5-6.9-6.4-7.6c-0.3-0.1-1-0.3-1.2,0c-0.2,0.3-1.2,4.4-1.2,5.2c0,0.9-0.1,1.8-0.3,2.7
	c-0.2,0.9-0.7,2.8-0.4,3.7c0.5,1.3,1.4,2.2,2.4,3c0.9,0.7,1.6,1.8,2.1,2.8c0.7,1.2,1.7,2.9,2.2,3.6c0.4,0.6,0.7,1.2,1,1.9
	c0.1,0.2,0.8,1.9,0.7,2c-3.1,2.1-8.6,3.3-13.5,4.3c-2.9,0.6-6.5,1.4-7.9,1.7c-1.9,0.5-3.7,0.8-5.8,0.9c-0.7,0-1.3,0.1-1.9,0.2
	c-1,0.2-2.1,0.2-3.3,0.2c-1.9,0-1.9,0-2.6,0.1c-0.8,0.1-0.8,0.1-2.6,0.1c-1.5,0-3.6,0-5.2,0c-0.7,0-2.4-0.3-3.6-0.4
	c-0.4,0-1.1-0.1-1.8-0.1c-0.4,0-0.9-0.1-1.2-0.2l-0.3-0.1l-0.5,0l-0.2,0l-0.3,0l-0.2,0c-0.3-0.1-0.6-0.1-0.8-0.2
	c-0.3-0.1-0.5-0.1-0.8-0.1c-0.5-0.1-0.5-0.1-0.6-0.1c-0.3-0.1-0.3-0.1-0.5-0.1c-0.3,0-0.3,0-0.5-0.1c-2.8-0.7-7.5-3.7-9.2-5.7
	c-0.3-0.3-0.7-0.7-1-1.1c-0.2-0.2-0.5-0.6-0.8-0.9c-0.3-0.4-1-1.5-1.5-2.2c-0.6-0.9-1.4-2.2-1.6-2.6c-0.5-0.9-1.2-2.4-1.3-2.6
	c-0.4-0.7-0.8-1.7-1.1-2.6c-0.2-0.4-0.3-0.9-0.4-1.4c-0.1-0.5-0.3-0.9-0.5-1.3c-0.7-1.5-1.4-3.2-1.8-5c-0.4-1.8-1-3.9-1.9-5.4
	c-0.2-0.4-0.4-0.9-0.5-1.4c-0.1-0.3-0.1-0.7-0.2-0.8c0-0.3-0.1-0.5-0.2-0.8c-0.3-0.9-0.7-2.4-0.8-2.5c-0.1-0.1-0.7-0.6-1-0.3
	c-0.9,1.2-2,8-2,10.3c0,2.1,0.3,4.2,0.7,6.1c0.3,1.6,1.2,3.9,1.9,5.4c0.3,0.9,1.7,4.6,1.5,5.1c-0.3,1.2-4.7,7.6-5.9,7.9
	c-2.8,0.7-6.7,0.2-9.5-0.2c-2-0.2-4.3-0.2-6.5-0.2c-1.5,0-1.5,0-1.5-0.7c0-0.2,0.1-0.8,0.2-1.1c0.2-1.1,0.8-3.7,0.9-3.9
	c0.7-1.4,0.6-4.1,0-5.4c-0.1-0.1-0.4-0.4-0.6-0.7c-0.1-0.1-0.2-0.2-0.4-0.3l-0.3-0.2c-0.2-0.2-0.7,0-0.8,0.1
	c-0.2,0.2-0.2,0.4-0.3,0.7c-0.1,0.4-0.1,0.5-0.2,0.7c0,0-0.2,0.6-0.3,0.8c-0.1,0.4-0.3,0.8-0.4,1.1c-0.1,0.3-0.3,0.8-0.4,0.9
	c-0.1,0.4-0.2,1-0.2,1.6c0,0.4-0.2,0.8-0.3,1.1c-0.3,0.7-0.6,1.4-0.8,2.1c-0.1,0.4-0.2,0.8-0.3,1.3l-0.1,0.7l0,0.5
	c0,0.2,0,0.3-0.1,0.4c-0.1,0.3-0.4,1.1-0.4,1.1c-0.1,0.3-0.4,1-0.4,1c-0.2,0.9-1.4,3.3-2,3.9c-0.4,0.4-3.2-0.5-3.6-0.7
	c-0.1-0.1-0.1-0.1-0.4-0.2c-0.1-0.1-0.1-0.1-0.4-0.2c-0.2-0.1-0.7-0.3-0.7-0.3l-0.2-0.1l-0.2-0.1l-0.4-0.2l-0.3-0.1l-0.2-0.1
	l-0.2-0.1c0,0-0.6-0.2-0.8-0.3l-0.4-0.2c-0.1,0-0.1,0-0.4-0.2c-0.4-0.2-0.9-0.4-1.3-0.5c-0.5-0.2-1.1-0.5-1.6-0.7
	c-0.2-0.1-0.2-0.1-0.4-0.2c-0.2-0.1-0.2-0.1-0.4-0.2c0,0,0,0-0.3-0.2l-0.2-0.1c-0.2,0.2-0.1-1-0.1-1.1c0-0.1,0-0.1,0.2-0.6l0-0.2
	c0.1-0.2,0.1-0.3,0.2-0.5l0.1-0.4l0.1-0.3c0.2-0.5,0.4-1,0.5-1.6c0.1-0.3,0.2-0.7,0.3-1c0.1-0.5,0.3-0.9,0.5-1.4
	c0.1-0.2,0.1-0.4,0.2-0.6c0.1-0.2,0.2-0.5,0.3-0.6c0.3-0.9,0.6-2,0.4-3c-0.1-0.5-1.2-2-2-1.6c-0.1,0.1-0.4,0.6-0.7,1.1
	c-0.2,0.4-0.4,0.7-0.6,1.1c-0.4,0.7-0.9,1.4-1.3,2.1c-0.1,0.2-0.3,0.5-0.4,0.7l-0.1,0.2l-0.1,0.2l-0.1,0.2c-0.2,0.3-0.4,0.7-0.6,1
	c-0.1,0.2-0.3,0.4-0.4,0.7c-0.1,0.2-0.2,0.4-0.3,0.5l-0.3,0.5c0,0.1-0.2,0.3-0.3,0.5c-0.4,0.5-1,1.4-1.1,1.5c-0.4,0.4-1,0.9-1.3,1.2
	c-0.9,1.1-2.6,2.1-3.9,2.7c-1.3,0.7-3,1.2-4.7,1.7c-0.8,0.2-2.1,0.6-2.4,0.7c-0.7,0.3-1.8,0.6-2.3,0.7c-0.7,0.1-2,0.5-2.9,0.8
	c-0.8,0.2-1.7,0.4-2.7,0.7l-3.7,0.7l-0.3,0l-1,0.1l-0.4,0.1c-0.5,0.1-0.8,0.1-1.2,0.2l-0.3,0.1l-0.4,0.1l-0.4,0.1
	c-0.7,0-2.3,0.1-2.3,0.1c0-0.2,0.5-1,0.9-1.6c0.2-0.3,0.5-0.8,0.5-0.8c0-0.1,0-0.1,0.2-0.2c0.1-0.1,0.2-0.2,0.2-0.3
	c0.1-0.2,0.2-0.3,0.3-0.5l0.2-0.3c0.6-0.9,1.1-1.7,1.3-2.3c0.1-0.2,1.4-5.5,2-7.9c0.1-0.5,0.1-1.4-0.1-2.1c-0.1-0.4-1.3-1.5-1.9-1
	c-0.1,0.1-0.5,1.2-0.7,1.7c-0.2,0.5-0.4,1-0.7,1.5c-0.9,1.3-2.3,3.3-3.3,4.1c-0.3,0.3-0.7,0.6-1,0.9c-0.2,0.2-0.6,0.5-0.9,0.8
	c-0.3,0.2-0.8,0.6-0.9,0.8c-0.2,0.1-0.4,0.3-0.6,0.4c-0.2,0.1-0.2,0.1-0.3,0.2l-0.2,0.1c-1.9,1.4-6.3,2.9-9.7,4.1
	c-0.7,0.3-1.9,0.7-2.2,0.8c0,0-0.4,0.1-0.6,0.2c-0.2,0.1-0.4,0.1-0.7,0.2c-0.2,0.1-0.5,0.1-0.7,0.2c-0.2,0.1-0.4,0.1-0.5,0.2
	c-1.2,0.2-2.7,0.6-3.2,0.7c-0.2,0-0.6,0.1-0.9,0.2c0,0-0.4,0.1-0.6,0.2c-0.4,0.1-1.1,0.3-1.2,0.3c-0.2,0.1-0.6,0.2-0.9,0.2l-0.5,0.1
	l-0.5,0.1l-0.3,0.1c-0.2,0-0.5,0.1-0.7,0.2c-0.2,0.1-0.4,0.1-0.6,0.2c-0.2,0-0.5,0.1-0.7,0.2l-0.5,0.1l-0.2,0.1c0,0-0.4,0.1-0.6,0.2
	c-0.1,0-0.1,0-0.6,0.1l-0.3,0.1c-1.2,0.3-2.6,0.5-3.8,0.7c-0.7,0.1-1.4,0.2-2,0.4c-0.8,0.2-1.7,0.4-2.5,0.3c-0.5,0-0.8,0-1.1,0.1
	c-0.3,0.2-0.3,0.2-0.8,0.2c-0.4,0.1-0.4,0.1-0.6,0.1l-0.3,0.1l-0.4,0.1l-0.4,0.1l-0.4,0.1c-2,0.3-4.4,0.5-6.6,0.6
	c-0.6,0-2.4,0.2-3.6,0.4c-1.5,0.1-3.6,0.2-5.3,0.1c-0.8,0-1,0-1.6,0.1c-0.3,0.1-0.7,0.1-1.1,0.2c-0.2,0-1.1,0.1-1.3,0.1l-1.5,0.1
	l-0.7,0c-0.9,0.1-4.4-0.3-6.4-0.5c-1-0.1-2-0.2-3.1-0.3l-0.6,0l-0.8,0l-0.2-0.1l-0.6,0l-0.2-0.1l-0.4,0l-0.3,0
	c-0.8-0.1-1.4-0.2-2.2-0.2c-0.6,0-1.4-0.2-2-0.4c-0.8-0.2-2.1-0.6-2.6-0.8c-0.2-0.1-0.5-0.2-0.8-0.3l-0.3,0l-0.5,0
	c-0.4-0.1-0.7-0.2-0.9-0.3c-0.2-0.1-0.4-0.1-0.6-0.2c-0.9-0.3-1.8-0.6-2.6-1c-0.8-0.4-2.1-1-2.7-1.1c-1.1-0.1-2.3-0.3-3.3-0.7
	c-0.1,0-1.2-0.7-1.7-1l-0.3-0.2l-0.3-0.2c-0.3-0.2-0.6-0.4-0.7-0.5c-0.9-0.6-1.8-1.2-2.6-1.9c-2.3-2-4.4-4-6.6-6.1
	c-1.1-1-2.4-2.3-3.1-3.4c-1-1.3-1.9-2.3-3.3-3.1c-1-0.6-4.7-0.3-5.9,0c-2.2,0.7-6.7,7.8-7.7,10.3c-0.5,1.2-1,2.3-1.8,3.2
	c-0.7,0.7-1.4,1.5-2,2.3c-1.1,1.7-2.5,3.4-4.4,4.4c-1.4,0.7-3.2,1.5-4.9,1.8c-3.8,0.7-8.4,1.5-11,1.7c-1.7,0.1-3.5-0.1-5-0.5
	c-0.4-0.1-1.1-0.3-1.2-0.4c-0.4-0.2-0.8-0.3-1.4-0.4c-1.8-0.3-3.9-1.1-5-2.2c-1.3-1.2-2.8-2.8-3.6-4.2c-1-1.7-1.7-3.8-2.5-6
	c-0.5-1.4-0.8-3.1-0.9-4.7l-0.1-0.7l0-0.2v-0.2c0-0.7-0.1-1.5-0.2-2.1c-0.1-0.3-0.2-0.8-0.3-1c-0.1-0.2-0.1-0.4-0.2-0.6
	c-0.1-0.5-0.2-1.1-0.2-1.3c0-0.1-0.1-1.1-0.1-1.4l-0.1-1.3l-0.1-0.3l-0.1-0.8l-0.1-0.7l-0.1-1c0-0.4-0.1-1-0.2-1.5
	c0-0.2-0.1-0.8-0.2-1.1l-0.1-0.4l-0.1-0.3c-0.2-0.8-0.3-1.5-0.4-2.3c-0.1-0.6-0.2-1.3-0.2-1.9c-0.1-0.7-0.1-1.4-0.2-2
	c-0.1-0.8-0.2-1.5-0.2-2.3c-0.1-0.9-0.2-2.2-0.2-2.6c-0.3-1.5-0.7-3.4-0.8-4.5c0,0-0.1-0.8-0.2-1.2c-0.1-0.4-0.1-0.4-0.1-0.7
	l-0.1-0.5l-0.1-0.4c0-0.3-0.1-0.7-0.2-1c-0.1-0.2-0.1-0.6-0.1-0.8c-0.2-2.4-0.4-4.7-0.8-6.8c-0.1-0.6-0.2-1.1-0.2-1.8
	c-0.1-0.6-0.1-1.2-0.2-1.8c-0.1-0.6-0.2-1.2-0.2-1.8c0-0.2-0.1-0.9-0.1-1.1c-0.1-0.5-0.3-2.9-0.4-4c-0.1-1-0.1-1.9-0.3-2.7
	c-0.2-1.5-0.6-4.9-0.9-7.5l-0.1-0.4L88,48.9c0-0.2-0.1-0.6-0.1-0.8c-0.1-0.5-0.2-1.4-0.2-2l-0.1-1.8l0-1.1l-0.1-0.5
	c0-0.3-0.1-0.8-0.2-1c0-0.1-0.2-0.9-0.3-1.3c-0.1-0.4-0.2-0.8-0.3-1.2l-0.4-1.1c-0.1-0.2-0.1-0.4-0.2-0.6c0-0.1-0.1-0.4-0.2-0.5
	c-0.2-0.3-0.6-0.8-0.9-0.9c-0.4,0-0.6,0-0.8,0.2c-0.8,0.8-2.4,9.7-2.4,11.6c0,1.9,0.2,3.7,0.7,5.4c0.1,0.5,0.5,3.6,0.7,5.5l0.1,0.7
	l0.1,0.5l0.1,0.5l0.1,0.7l0.1,0.5l0,0.8c0,0.1,0.1,0.3,0.1,0.6c0,0.2,0.1,1.5,0.2,2c0,0.4,0.1,1.2,0.2,1.7c0.1,0.9,0.5,3.6,0.7,5.3
	c0.3,2.1,0.7,4.9,0.8,6.4c0.3,2.8,0.6,6.1,0.8,7.2c0.3,1.6,0.7,3.5,0.8,5c0.2,2,0.5,4.4,0.9,6.7c0,0.2,0.1,0.6,0.2,0.8
	c0.1,0.3,0.2,0.7,0.2,1.1c0.1,0.6,0.1,1,0.2,1.6l0.1,0.4l0.1,0.3l0.1,0.5l0.1,0.4c0.3,2.1,0.6,4.2,0.7,6.2c0,0,0.2,1.1,0.2,1.6
	l0,0.2c0.1,0.1,0.2,0.9,0.2,1.1c0.1,1,0.3,2.6,0.3,2.9c0.1,1.9,0.3,4.5,0.8,6.3c0.1,0.4,0.1,0.8,0.2,1.5c0.1,0.5,0.1,1.1,0.2,1.7
	c0.2,1,0.4,2.5,0.4,2.5c0.1,1.7,0.5,3.2,1.1,4.4c0.9,2,1.7,3.8,2.8,5.6c0.5,0.9,1.6,2,2.4,2.6c0.4,0.3,1,0.8,1.3,1.2
	c0.4,0.5,0.7,1,1.4,1.1c0.5,0,1.2,0.3,2.1,0.6c0.6,0.2,1.2,0.4,1.8,0.6c1.3,0.4,2.7,0.9,4.2,1c2.2,0.2,3.9,0.5,4.7,0.5
	c0.3,0,2.3-0.3,3.3-0.5l0.4-0.1l0.6-0.1l0.4-0.1l0.3,0l0.2-0.1l1-0.1h0.2l0.3-0.1c0.9-0.2,2.1-0.4,2.5-0.5c0.7-0.2,1.5-0.4,2.2-0.5
	c0.9-0.2,1.6-0.4,2.3-0.7c0.2-0.1,0.4-0.2,0.6-0.2c0.2-0.1,0.4-0.1,0.5-0.2c0.1,0,0.6-0.2,0.9-0.4c0.5-0.2,1.1-0.4,1.6-0.7
	c0.4-0.2,1.2-0.8,1.7-1.3c0.3-0.2,0.6-0.5,0.8-0.7c0.2-0.2,0.4-0.4,0.6-0.6c0.7-0.5,1.9-2.3,2.6-3.3c0.1-0.2,2.2-3.3,2.5-3
	c0,0,0.1,0.6,0.1,0.6l0.1,0.3l0.1,0.3c0,0.1,0.3,0.5,0.5,0.8c0.3,0.5,0.8,0.9,1.2,1.3c1.2,1,2.6,1.8,4.1,2.5
	c0.2,0.1,0.6,0.3,0.8,0.3l0.3,0l0.3,0l0.3,0.1c0.2,0.1,0.5,0.2,0.6,0.2c0.2,0,0.5,0.1,0.7,0.1c0.4,0.1,0.8,0.2,1.2,0.3
	c0.6,0.1,1.2,0.2,1.7,0.3c0.6,0.2,1.3,0.4,1.7,0.4c0.5,0.1,0.9,0.2,1.4,0.3l0.2,0.1l0.2,0.1l0.2,0.1c0.2,0,0.2,0,0.4,0.1l0.2,0.1
	c0,0,0.5,0.1,0.7,0.1c0.3,0,0.5,0.1,0.7,0.2c0.7,0.3,1.6,0.5,2.4,0.7c0.8,0.1,1.8,0.5,2.7,0.7c0.1,0,0.2,0.1,0.4,0.1l0.4,0l0.3,0
	c0.2,0,0.5,0.1,0.7,0.1c0.5,0.1,0.8,0.2,1.1,0.4c0.5,0.3,2.4,0.8,3,0.5c0.4-0.2,1-1,1.1-1.5c0.2-0.5,0.3-1.1,0.4-1.7
	c0.1-0.3,0.1-0.7,0.1-0.8c0-0.7,0-0.7,0.2-1.4c0.1-0.7,2.1,0.1,2.3,0.3c0.6,0.4,0.9,0.5,1.8,0.7c0.3,0.1,0.7,0.3,1,0.4
	c0.3,0.1,0.6,0.3,1,0.4c0.3,0.1,0.8,0.3,0.9,0.4c0.2,0.1,0.6,0.2,0.9,0.3c0.3,0.1,0.7,0.2,1,0.4c0.2,0.1,0.6,0.3,0.6,0.3
	c0.2,0.2,0.3,0.2,0.3,0.2c0.2,0.1,0.2,0.1,0.8,0.1l0.5,0l0.3,0.1l0.2,0.1l0.3,0l0.2,0l0.2,0l0.3,0c0.5,0.1,2,0.5,2.1,0.6
	c0.3,0.1,0.8,0.1,1,0.3c0.1,0.1,0.1,0.1,0.3,0.2c0.1,0.1,0.1,0.1,0.4,0.2c0.5,0.2,1.2,0.1,1.7-0.1c0.3-0.1,2.8-0.1,3.3,0l0.3,0
	l0.2,0l0.3,0l0.3,0l0.2,0l0.3,0c0.2,0,1.4,0.1,2,0.2l0.6,0l1,0l0.4,0l0.4,0l0.2,0l0.4,0c1.3,0.1,2.7,0,4,0c0.9-0.1,2.5-0.1,2.9-0.1
	c0.9,0.1,1.5,0.3,2.3,0c0.3-0.1,1.5-0.2,2.3-0.3c0,0,2.1-0.1,2.7-0.2l0.8-0.1l2.3-0.1l0.5-0.1c0.3,0,0.8-0.1,1-0.1
	c0.9,0,1.6-0.1,2.4-0.1l1.4-0.1l0.6,0l0.5-0.1c0.7-0.2,1.9-0.2,2.7-0.3c0.3,0,0.3,0,0.7,0l0.3,0c0.1,0,0.1,0,0.5-0.1
	c0.3-0.1,0.8-0.3,1.3-0.5c0.3-0.1,0.7-0.3,1.1-0.4c0.5-0.1,1.3-0.2,2-0.3c0.7-0.1,1.6-0.2,2.2-0.3c1.1-0.2,2.6-0.5,3.2-0.6
	c0.5-0.1,1-0.2,1.6-0.3c0.3-0.1,0.6-0.1,0.8-0.1c0.3,0,0.5-0.1,0.7-0.1c0.4-0.1,1.1-0.2,1.3-0.3c0.3-0.1,0.8-0.3,1-0.3
	c1.8-0.5,4.1-1.1,5.4-1.3c0.2,0,0.4-0.1,0.6-0.2c0.2-0.1,0.5-0.2,0.7-0.2c0.2-0.1,0.6-0.2,0.6-0.2c0.8-0.2,2.7-0.7,2.9-0.7
	c0.1,0,0.5,0.2,0.9,0.5c0.1,0.1,0.9,0.5,1,0.3c0-0.1-0.2-0.2-0.3-0.3l-0.3-0.2c0.2-0.1,0.5-0.2,0.8-0.2l0.3-0.1l0.3-0.1l0.4-0.1
	c0.4-0.1,1.4-0.4,1.6,0c0,0.1,0.6,0,0.9-0.1c0.8-0.1,1.5,0,2.6,0.1l0.5,0l0.4,0c0.1,0,0.5,0.1,0.6,0.1c0.1,0,0.2,0.1,0.2,0.2
	c0.1,0.1,0.1,0.1,0.2,0.1c0.1,0,0.7,0,0.7,0c0.4,0,0.4,0,1.5,0.1c0.7,0,1.8,0.1,2.7,0.1c2.1,0,4.5,0.1,6,0c2-0.2,4.8-0.4,6.5-0.9
	l0.3-0.1l0.2,0c0.4-0.1,0.4-0.1,0.5-0.2c0.3-0.1,1-0.2,1-0.2c0.3-0.1,0.6-0.2,0.9-0.3c0.2-0.1,0.6-0.2,0.9-0.3
	c0.5-0.1,1.4-0.4,1.6-0.5c0.4-0.1,0.7-0.3,1.1-0.3c0.3,0,0.6-0.1,0.9-0.2c0.5-0.2,0.9-0.4,1.4-0.6c0.5-0.2,1-0.4,1.5-0.6
	c0.1,0,0.1,0,0.5-0.1c0.2,0,0.3-0.1,0.5-0.1c0,0,0,0,0.5-0.1c0,0,0.3-0.1,0.4-0.1c0.2-0.1,0.2-0.1,0.3-0.2c0.5-0.3,0.8-0.4,1.1-0.5
	c0.1,0,1.3-1,1.8-1.4c0,0,0.3-0.2,0.5-0.3c0.1-0.1,0.1-0.1,0.4-0.2c0.2-0.1,0.4-0.3,0.5-0.4c0.1-0.1,0.3-0.3,0.5-0.4
	c0.1-0.1,0.3-0.2,0.4-0.4c0.2-0.2,0.2-0.2,0.2-0.3l0.4-0.4l0.2-0.1c0,0,0.3-0.3,0.4-0.4c0.1-0.1,0.7-0.7,0.9-0.5
	c0,0,0.1,0.3,0.1,0.4l0.1,0.2l0.2,0.4l0.1,0.2c0.7,1.4,1.8,2.4,3,3.3c0.2,0.1,0.3,0.2,0.5,0.3c0.2,0.1,0.3,0.1,0.5,0.2
	c0.2,0.1,0.3,0.2,0.5,0.3c0.2,0.1,0.3,0.2,0.5,0.3c0.6,0.3,1.9,1.1,2.1,1.2c0.3,0.3,2.6,1.2,3.6,1.6c0.7,0.3,4.5,1.2,5,1
	c1.1-0.6,1.7-1.5,2.3-2.6c0.3-0.6,1-2,1.6-3c0.4-0.7,1.1-2.5,1.5-3.7c0.2-0.5,1.3-3,1.6-3.1c0.6-0.1,2.9,1.4,3.8,2
	c1.5,0.9,3.1,2,3.5,2.2c0.1,0,0.3,0.2,0.4,0.3c0.2,0.1,0.4,0.2,0.6,0.3l0.3,0.1c0.2,0.1,0.5,0.2,0.6,0.2c0.2,0.1,0.2,0.1,0.4,0.1
	l0.2,0.1l0.5,0.1c0.2,0.1,0.6,0.2,0.6,0.2l0.2,0l0.3,0c1.2,0.4,5.9,1.4,7,0.7c1.8-1,4.9-4.9,5.8-6.8c0.3-0.5,0.6-1.1,0.9-1.6
	c0.3-0.4,0.6-1,0.9-1.6c0.2-0.3,0.3-0.7,0.5-1.1c0,0,0.3-0.6,0.4-0.8c0.1-0.3,0.8-1.6,0.9-1.7c0.1-0.1,0.7,0.8,0.8,1
	c0.2,0.3,0.4,0.7,0.6,1c0.2,0.3,0.9,1.4,1.4,2c1,1.4,2.3,3.3,2.6,4c0.2,0.4,0.5,0.7,0.8,1l0.2,0.1c0.3,0.2,0.6,0.4,0.7,0.5
	c0.2,0.2,0.7,0.7,0.7,0.7c0,0.1,0.1,0.1,0.2,0.3l0.1,0.2c0.1,0.1,0.3,0.3,0.4,0.4c0.3,0.2,0.7,0.5,1,0.7c0.2,0.1,0.4,0.2,0.6,0.3
	c0.2,0.1,0.4,0.2,0.5,0.3c0.3,0.2,0.7,0.5,0.9,0.7c0.3,0.2,0.7,0.5,1,0.6c1.5,0.7,3.7,1.7,5.2,1.9c0.7,0.1,1.5,0.2,2,0.3
	c0.2,0,0.4,0.1,0.6,0.2c0.2,0.1,0.5,0.1,0.7,0.2c0.1,0,0.4,0.1,0.5,0.1l0.2,0.1c0,0,0.5,0.1,0.7,0.2c0.2,0.1,1.1,0.4,1.1,0.4
	s1,0.1,1.4,0l0.4-0.1l0.4,0l0.5,0l0.1,0.1c0,0,0.4-0.3,0.5-0.3c0.1,0.1,1,0.4,1.2,0.5c2.6,0.2,7.4-0.1,11.1-0.3
	c2.7-0.2,5.1-0.4,7.7-0.8c0.9-0.1,2-0.3,2.7-0.5c0.5-0.2,1-0.4,1.6-0.5c1-0.2,2.1-0.4,3.3-0.5c1-0.1,1.7-0.3,2.5-0.5
	c0.7-0.2,1.4-0.4,2.2-0.5c1.1-0.1,1.8-0.2,2.7-0.4c0.6-0.1,1.1-0.3,1.7-0.5c0.2-0.1,0.5-0.2,0.7-0.2c0.1,0,0.2,0,0.5-0.1
	c0.2,0,0.2,0,0.4-0.1c1.2-0.4,2.6-0.8,3.9-1.1c1.7-0.5,6.2-3.1,7.1-4.4c0.7-0.9,1.2-2.3,1.4-3.6c0-0.2,0-0.2,0-0.5l0-1.1
	c0-0.3,0.1-0.5,0.1-0.8l0-0.3l0-0.3c0.1-0.5,0.1-0.5,0.1-0.6c0.2-0.7,0.5-1.8,0.5-1.9C428.2,112.6,428.3,112.1,428.2,111.7z
	 M155.8,130.5c-2.6,0-5.3-1.1-5.8-3.7c-2.1-1-3.9-3-4.2-5.1c-0.1-0.8,0.2-1.4,1-1.7c0.6-0.2,1.2-0.3,1.8-0.4c0-0.7,0.5-1.3,1.3-1.3
	c2.7-0.1,5.7,0.6,7.6,2.7c1.7,1.8,2.3,4.3,2.3,6.7C159.7,130.1,157.7,130.5,155.8,130.5z"/>
</svg>
