<?xml version="1.0" encoding="utf-8"?>
<!-- Generator: Adobe Illustrator 23.0.3, SVG Export Plug-In . SVG Version: 6.00 Build 0)  -->
<svg version="1.1" id="Layer_1" xmlns="http://www.w3.org/2000/svg" xmlns:xlink="http://www.w3.org/1999/xlink" x="0px" y="0px"
	 viewBox="0 0 1287 136" style="enable-background:new 0 0 1287 136;" xml:space="preserve">
<style type="text/css">
	.st0{fill-rule:evenodd;clip-rule:evenodd;fill:#231F20;}
	.st1{fill-rule:evenodd;clip-rule:evenodd;fill:#FFFFFF;}
	.st2{fill:#231F20;}
	.st3{fill:#9F1F00;}
</style>
<path class="st0" d="M664.3,97.4c0.6-0.4,1.3-0.9,1.9-1.3c0.6-0.4,1.3-0.8,1.9-1.3c1.2-0.9,2.5-1.7,3.7-2.6c0.2-0.1,0.6-0.6,0.9-0.8
	c0.2-0.2,0.8-0.9,0.7-1l-0.1-0.1l-0.1-0.1c-0.1-0.1-0.2-0.2-0.2-0.3c-0.1-0.1-0.3-0.4-0.4-0.6c-0.3-0.4-0.5-0.9-0.6-1.4
	c-0.2-0.6,0.1-1.7,0.3-2.4c0.1-0.5,0.2-0.9,0.2-1.6c-0.1-1,0.4-2.2,0.8-2.8c0.3-0.4,2.5-2.9,2.8-3l0.1,0c0.1,0,0.1,0,0.2-0.1
	c0.1,0,0.1,0,0.2-0.1l0.1,0l0.2-0.1c0.2-0.1,0.5-0.1,0.7-0.2c0.9-0.2,2.2-0.4,3.2-0.1c1.3,0.4,3.4,1,4.3,0.9c0.5,0,2.8-0.5,3-0.7
	l0.1,0l0.1,0c0.1,0,0.2-0.1,0.3-0.1c0.1-0.1,0.4-0.2,0.4-0.2c0.1-0.1,0.3-0.2,0.5-0.4c0.1-0.1,0.1-0.1,0.1-0.1c0.3-0.1,1-1,1.5-1.5
	c0.3-0.3,1.1-1.6,1-2.2c0-0.1-0.2-1.1-0.3-1.7c-0.1-0.5-0.3-1.8-0.3-1.8c-0.1-0.3-0.2-1.1-0.3-1.6c-0.1-0.6-0.2-1.2-0.3-1.8
	c-0.2-0.9-0.4-2-0.6-3c-0.1-0.3-0.4-2.5-0.6-4c-0.2-1.2-0.4-2.3-0.6-3.5c-0.1-0.5-0.2-1.2-0.3-1.5c-0.1-0.5-0.2-1-0.3-1.6
	c-0.4-2.3-1-5.7-1.2-7.2c-0.1-1.2,0.2-2.6,0.6-3.5c0-0.1,0.2-0.4,0.3-0.5c0,0,0.1-0.3,0.2-0.5c0.1-0.4,0.3-1,0.5-1.1
	c0.1-0.1,0.3,0,0.3,0.1c0.1,0,0.7,3.4,0.7,3.9l0,0.2l0,0.3l0,0.1l0,0.2l0,0.2l0,0.2l0,0.2c0,0.4,0.1,0.7,0.2,1.1c0,0,0.1,0.7,0.2,1
	c0,0.3,0.1,0.6,0.1,0.8c0.3,1.2,0.7,3.2,0.7,3.7c0,0.9,0.4,3.2,0.7,4.8c0,0.3,0.1,0.5,0.2,0.8c0.1,0.2,0.2,0.7,0.2,0.7
	c0.1,0.5,0.1,0.9,0.2,1.4c0,0.3,0.1,1.1,0.1,1.1c0.2,0.8,0.4,2,0.6,3c0.2,1.2,0.5,3.1,0.6,3.6c0.2,1.2,0.4,2.6,0.7,3.8
	c0.3,1.2,0.7,2.4,1.1,3.5c0.3,0.8,0.7,1.7,1.3,2.2c0.2,0.2,0.3,0.4,0.4,0.6c0.1,0.2,0.2,0.4,0.3,0.5l0.1,0.1l0.1,0.1l0.1,0.1
	c0.1,0.1,0.1,0.1,0.1,0.1c0.1,0.1,0.3,0.4,0.4,0.5c0.5,0.4,1.2,1,1.5,1.1c0,0,0.5,0.3,0.8,0.4c0.2,0.1,0.3,0.2,0.5,0.2
	c0.1,0,0.1,0,0.2,0.1c0.1,0,0.2,0.1,0.3,0.1c0.4,0.2,1.7,0.8,1.7,0.8c0.7,0.3,1.6,0.4,2.4,0.6c0.6,0.1,1.2,0.2,1.7,0.2
	c0.5,0.1,1.9,0.3,2,0.3c0.3,0,2.2-0.1,3.1-0.1c0.8,0,1.8-0.1,2.7-0.2c0.2,0,1.1-0.2,1.6-0.3c0.6-0.1,1.3-0.2,2-0.3
	c0.3,0,0.7-0.1,1-0.1l0.1,0l0.3,0l0.2,0l0.1,0c0.3,0,0.5-0.1,0.8-0.1c0.1,0,0.2,0,0.3-0.1c0.1,0,0.3-0.1,0.4-0.1
	c0.2,0,1.5-0.4,2.4-0.7c0.8-0.3,1.7-0.6,2.5-0.9c0.4-0.2,1-0.4,1.2-0.6c0.1,0,0.2-0.1,0.3-0.1c0.1-0.1,0.2-0.1,0.4-0.2l0.3-0.1
	c0.1,0,0.3-0.2,0.3-0.2c0-0.1-0.9-0.8-1.1-0.9c0,0-0.3-0.2-0.3-0.2s-0.1-0.1-0.2-0.1c-0.1,0-0.1,0-0.1-0.1c0,0-0.1-0.1-0.1-0.1
	c0,0-1.3-0.6-1.5-0.7c-0.2-0.1-0.5-0.2-0.8-0.3c-0.1,0-0.3-0.1-0.5-0.1c-0.1,0-0.3-0.1-0.4-0.1c-0.7-0.2-1.3-0.1-1.7,0.3
	c-0.3,0.3-0.6,0.6-1,0.8c-0.1,0.1-0.6,0.2-0.7,0.1l-0.2-0.1c-0.1,0-0.1-0.1-0.1-0.2c-0.1-0.3,0.6-1.7,0.8-1.9c0,0,0.1-0.1,0.1-0.1
	l0-0.1l0-0.4l0-0.1c0-0.2,0.1-0.3,0.2-0.4c0,0,0,0,0.1-0.2c0-0.1,0.1-0.2,0.1-0.2c0.1-0.1,0.3-0.4,0.3-0.4c0.4-0.4,0.8-0.9,1.1-1.4
	c0.3-0.4,0.8-1,1.2-1.3c0,0,0.4-0.1,0.5-0.2c0,0,0.2-0.1,0.2-0.1l0.2-0.1l0.1,0l0.1,0c0.2-0.1,0.4-0.1,0.6-0.2l0.1,0
	c0.2,0,0.2,0,0.2,0c0.1,0,0.1,0,0.2,0c0.1,0,0.2,0,0.3,0c0.7-0.3,6-0.4,6.7-0.3c0.9,0.2,2.1,0.5,2.8,0.8c0.3,0.2,0.7,0.4,1,0.5
	c0.1,0.1,0.3,0.2,0.3,0.3c0.1,0.1,0.3,0.2,0.4,0.3c0,0,0.3,0.3,0.4,0.4c0.1,0.1,0.1,0.2,0.2,0.3c0.1,0.1,0.2,0.3,0.2,0.3
	c0.1,0.1,0.3,0.8,0.3,1c0,0.2,0,1.4-0.1,1.5l0,0.2c0,0.1,0,0.2,0,0.2c0,0.1,0,0.1-0.1,0.2l0,0.1l0,0.1c-0.1,0.2-0.2,0.5-0.4,0.7
	c-0.3,0.5-0.6,1-0.8,1.5c-0.2,0.5-0.5,0.9-0.8,1.3c-0.3,0.4-0.7,1-0.8,1.3c0,0.2,1.3,0.8,1.5,0.8c0.2,0,0.3,0.1,0.5,0.1
	c0.1,0,0.3,0.1,0.4,0.1l0.5,0.1c0.1,0,0.2,0.1,0.3,0.1l0.1,0c0,0,0.3,0,0.3,0s0.5,0.1,0.5,0.1c0.2,0,0.3,0,0.4,0.1l0.1,0l0.1,0
	l0.1,0l0.6,0l0.4,0h0.1l1.2,0c0.2,0,0.8,0,1,0c0.1,0,0.3,0,0.4-0.1c1-0.2,2.2-0.5,2.7-0.6c0.6-0.2,1.2-0.6,1.8-1
	c0.4-0.3,0.8-0.7,1.1-1.2c0.2-0.3-0.8-3.3-0.9-3.6c-0.2-0.5-0.7-1.2-1-1.8c0,0-0.1-0.1-0.1-0.2c0,0-0.1-0.1-0.1-0.1
	c-0.1-0.1-0.1-0.1-0.2-0.2c-0.1-0.1-0.2-0.2-0.3-0.4c-0.5-0.8-1.1-1.6-1.7-2.4c0,0,0,0-0.2-0.2c-0.1-0.1-0.2-0.3-0.4-0.5
	c-0.1-0.1-0.1-0.1-0.1-0.1l-0.1-0.1l-0.1-0.1l0-0.1c-0.2-0.2-0.4-0.4-0.6-0.5c-0.2-0.1-0.3-0.3-0.5-0.6c-0.2-0.3,0-0.9,0.2-1.3
	l0-0.1l0-0.1l0-0.1c0-0.2,0.1-0.2,0.1-0.4c0-0.1,0.1-0.2,0.1-0.3l0-0.1l0-0.5l0-0.1c0.2-0.8,0.5-2.1,0.9-2.4c0.1-0.1,0.5,0,0.6,0.1
	c0.5,0.3,1,1,1.4,1.6c0.1,0.1,0.2,0.2,0.3,0.4c0.1,0.1,0.4,0.5,0.5,0.6c0.1,0.1,0.2,0.3,0.2,0.3l0.1,0.1l0,0.1l0.1,0.1
	c0,0,0,0,0.1,0.1c0.9,1.2,2.2,3.1,2.5,3.8c0.3,0.5,0.5,1.1,0.6,1.7c0.2,1,0.8,5.3,0.5,5.7c0,0-0.2,0.8-0.3,1
	c-0.1,0.4-0.2,0.9-0.4,1.2c-0.1,0.4-0.3,0.9-0.4,1.4c-0.1,0.5-0.3,1-0.5,1.5c-0.1,0.3-1.4,2-1.7,2.2c0,0-0.1,0.1-0.2,0.2
	c-0.1,0.1-0.2,0.1-0.3,0.2c-0.2,0.1-0.3,0.2-0.5,0.4c-0.3,0.2-1,0.6-1.1,0.7c-0.2,0.1-0.4,0.1-0.6,0.2c-0.1,0-0.2,0.1-0.3,0.1
	c0,0-0.1,0.1-0.1,0.1c-0.1,0.1-0.1,0.1-0.1,0.1c-0.4,0.1-0.8,0.2-1.2,0.3c-1,0.3-2.2,0.3-3.3,0.3c-1,0-2.2-0.1-3-0.3
	c-0.2-0.1-0.5-0.1-0.7-0.2c-0.2,0-0.4-0.1-0.5-0.2c0,0-0.1-0.1-0.1-0.1c-0.1-0.1-0.1-0.1-0.1-0.1c-0.1-0.1-0.3-0.1-0.4-0.2
	c-0.1-0.1-0.3-0.1-0.4-0.2c-0.1,0-0.3-0.1-0.5-0.1c-0.1,0-0.3-0.1-0.4-0.2c-0.2-0.1-0.4-0.2-0.6-0.3c-0.2-0.1-0.6-0.3-0.6-0.4
	c-0.2-0.1-0.5-0.4-0.5-0.4c-0.1-0.1-0.2-0.1-0.4-0.2c-0.1,0-0.2-0.1-0.2-0.2c-0.2-0.4-0.7-0.6-1.1-0.9c-0.1-0.1-0.2-0.1-0.3-0.2
	c-0.1-0.1-0.1-0.2-0.2-0.3c0,0-0.1-0.2-0.1-0.3c-0.1-0.1-0.1-0.2-0.2-0.3c-0.2,0-1.5,0.8-1.8,1c-0.6,0.4-1.2,0.7-1.9,1
	c-0.3,0.2-0.7,0.3-1,0.5c-0.3,0.2-0.6,0.3-0.9,0.4c-0.3,0.1-1,0.3-1.1,0.3c-0.3,0.1-0.8,0.4-1.1,0.4c-0.1,0-0.1,0-0.2-0.1
	c-0.1-0.1-0.1,0-0.1,0.1c0,0-0.3,0.2-0.4,0.2c-0.1,0.1-0.3,0.2-0.4,0.2c-0.2,0.1-0.5,0.1-0.6,0.2c-0.5,0.2-1.5,0.5-2.3,0.7
	c0,0-0.9,0.1-1.3,0.1c-0.3,0-0.6,0.1-0.8,0.1c-0.2,0.1-0.4,0.1-0.7,0.1l-0.2,0l-0.2,0l-0.2,0c-0.1,0-0.3,0-0.4,0.1l-1.5,0.3
	c-0.4,0.1-0.9,0.2-1.3,0.2c-0.5,0-1,0-1.4,0l-0.5,0l-0.3,0l-0.1,0l-0.7,0l-0.4,0l-0.1,0c-1,0-1.8,0-2.6-0.1c-0.2,0-0.2,0-0.3,0
	c-0.1,0-0.2,0-0.4-0.1c-0.2,0-0.4-0.1-0.7-0.1c-0.2,0-0.4,0-0.5-0.1c-0.2-0.1-1.3-0.2-1.9-0.3c-0.9-0.1-1.7-0.4-2.4-0.7
	c-0.3-0.2-0.6-0.3-0.9-0.5c-0.1-0.1-0.3-0.2-0.4-0.2c-0.1,0-0.2-0.1-0.2-0.1c-0.1-0.1-0.1-0.2-0.1-0.2c0,0,0,0.1,0,0.2
	c0,0-0.4-0.2-0.5-0.2l-0.1,0c0,0-0.2-0.1-0.3-0.1c-0.2-0.1-0.5-0.3-0.8-0.5c-0.2-0.2-0.5-0.3-0.7-0.5c-0.1-0.1-0.1-0.1-0.1-0.1
	c-0.1,0-0.1-0.1-0.2-0.2c0,0-0.1-0.1-0.1-0.1c-0.1-0.1-0.1-0.2-0.2-0.2c-0.3-0.3-0.9-1.1-1.1-1.5c-0.1-0.2-0.7-1.1-1.1-1.7
	c-0.2-0.3-0.3-0.6-0.4-1c-0.1-0.4-0.2-0.7-0.3-1c-0.1-0.3-0.2-0.6-0.3-0.9c-0.1-0.2-0.4-1.1-0.4-1.1c-0.2,0.1-0.5,1-0.6,1.3
	c-0.2,0.4-0.4,0.9-0.7,1.2c0,0-0.1,0.2-0.2,0.3l-0.1,0.1c-0.1,0.2-0.2,0.3-0.3,0.5c-0.2,0.2-0.7,0.8-0.7,0.8
	c-0.5,0.5-1.3,1.3-1.6,1.5c-0.3,0.2-0.6,0.4-1,0.6c-0.1,0.1-0.4,0.1-0.5,0.2c-0.1,0-0.2,0.1-0.2,0.1c-0.1,0-0.3,0.1-0.3,0.1
	c-0.1,0,0.2,0.7,0.2,0.7l0.3,0.8c0.2,0.5,0.3,1,0.4,1.6c0.1,0.4-0.2,1.9-0.2,2.2c-0.1,0.5-0.3,1.3-0.3,1.5c0,0.7-0.3,1.7-0.7,2.1
	c-0.3,0.3-1.9,0.7-2.5,0.7h-0.5l-0.4,0h-0.1c-0.5,0-0.8,0-1.1,0c-0.7,0-2.4-0.1-2.4-0.1l-0.2,0l-0.2,0l-0.1,0l-0.2,0l-0.1,0l-0.1,0
	c-0.1,0-0.3,0-0.4-0.1c-0.3-0.1-0.7-0.1-1-0.2c-0.3-0.1-0.5-0.2-0.8-0.3c-0.3-0.1-0.8-0.3-0.9-0.3c0,0-0.3,0.4-0.3,0.6
	c-0.1,0.1-0.1,0.2-0.1,0.3c-0.1,0.1-0.2,0.3-0.2,0.4c-0.2,0.3-0.4,0.7-0.7,1c-0.5,0.6-1.3,1.6-1.5,1.8c-1.1,1.1-2.3,2.2-3.8,3
	c-2.4,1.2-5.4,2.7-7.2,3.5c-0.7,0.3-1.4,0.5-2.3,0.6c-0.3,0-1.7,0.6-2.2,0.8c-0.3,0.1-0.6,0.1-1.1,0.2c-0.2,0-0.7,0.3-1,0.4
	c-1.4,0.7-1.7-0.4-1.2-0.7c0.9-0.5,1.8-1,2.7-1.4c0.5-0.2,1-0.5,1.4-0.8c0.4-0.2,1-0.6,1.2-0.7l0.2-0.1l0.2-0.1l0.2-0.1l0.1,0l0.1,0
	c0,0,0.3-0.2,0.4-0.2l0.1,0l0.1-0.1c0.3-0.1,0.5-0.2,0.7-0.4c0.2-0.1,0.5-0.3,0.7-0.4c0.5-0.2,0.9-0.5,1.4-0.8
	c0.1-0.1,0.2-0.1,0.3-0.2c0.1-0.1,0.2-0.1,0.3-0.2C663.9,97.6,664.1,97.5,664.3,97.4z"/>
<path class="st0" d="M607.6,92.3c0-0.1-0.1-0.5-0.1-0.5c0-0.2-0.1-0.4-0.1-0.5c0-0.1-0.1-0.3-0.1-0.4l0-0.1l0-0.1l0-0.1
	c-0.1-0.1-0.1-0.1-0.1-0.1c-0.1-0.3,0-1,0.1-1.4l0-0.2l0-0.1l0-0.2l0-0.1l0-0.1c0-0.1,0-0.1-0.1-0.2c-0.1-0.1-0.1-0.1-0.1-0.2
	c-0.1-0.3-0.1-0.5-0.1-1c0-0.2,0.1-0.7,0.2-1c0-0.1,0.1-0.3,0.1-0.4c0-0.1,0.1-0.3,0.1-0.4c0.3-1.4,0.7-2.6,1.2-3.7
	c0-0.1,0.1-0.2,0.1-0.3c0-0.1,0.1-0.4,0.2-0.5l0-0.1l0-0.1c0-0.1,0.1-0.3,0.1-0.3c0-0.2,0.1-0.4,0.1-0.5c0.1-0.3,0.3-0.6,0.4-0.8
	c0.2-0.3,0.3-0.5,0.4-0.9c0.2-0.6,0.5-1.1,1-1.4c0.8-0.5,0.7,1.5,0.5,1.9c-0.1,0.3-0.3,0.6-0.5,0.9c-0.1,0.1-0.2,0.3-0.2,0.5
	c0,0.1-0.1,0.2-0.1,0.3c0,0.2,0,0.2,0,0.2l0,0.1l0,0.1l0,0.1l0,0.1l0,0.1c0,0.1,0,0.1-0.1,0.2c0,0.1-0.1,0.2-0.1,0.3l-0.2,0.5l0,0.1
	c0,0.1,0,0.2-0.1,0.2c-0.2,0.6-0.4,1.4-0.5,2.1c-0.1,0.6-0.1,2.5,0.2,3c0,0.1,0.1,0.2,0.1,0.2c0.1,0.1,0.1,0.2,0.2,0.3
	c0.1,0.2,0.2,0.4,0.3,0.6c0.3,0.3,0.6,0.8,0.8,1.2c0.1,0.3,1.1,1.3,1.4,1.5c0.6,0.5,1.2,0.9,1.8,1.3c1.4,0.8,2.8,1.3,4.6,1.7
	c0.9,0.2,5,0.2,5.7,0c0.1,0,1.1-0.4,1.7-0.5c0,0,0.4-0.1,0.6-0.1c0.2,0,0.4-0.1,0.5-0.1c0.1,0,0.3-0.1,0.5-0.1
	c0.1,0,0.3-0.1,0.4-0.1c1.2-0.4,3.3-1.1,3.7-1.3l0.1,0c0.1-0.1,0.1-0.1,0.2-0.1c0.1,0,0.2-0.1,0.3-0.1l0.1,0l0.2-0.1
	c0.1,0,0.2-0.1,0.3-0.1c0.3-0.2,0.7-0.4,1-0.6c0.7-0.5,1.5-1.1,2.1-1.8c0.2-0.3,0.5-0.6,0.8-0.9c0.3-0.3,0.7-0.8,0.8-1
	c0.5-1.3,0-3.2-0.4-4.6c-0.2-1-0.6-2.3-1-3.2c-0.1-0.3-0.2-0.6-0.4-0.9c-0.1-0.3-0.2-0.4-0.3-0.7l0-0.1l-0.1-0.2
	c-0.1-0.1-0.1-0.2-0.2-0.3c-0.1-0.1-0.1-0.2-0.2-0.3c-0.1-0.1-0.1-0.2-0.2-0.3c-0.2-0.4-0.8-1.2-0.8-1.2c-0.3-0.3-0.6-0.9-0.8-1.3
	c-0.1-0.4,0.1-2.1,0.3-2.4c0.1-0.1,0.2-0.3,0.2-0.4c0.1-0.9,0.1-0.9,0.2-1.2c0-0.1,0-0.1,0-0.2c0-0.1,0-0.3,0.1-0.4
	c0.1-0.2,0.1-0.3,0.2-0.5c0.1-0.1,0.3-0.1,0.5-0.1c0.3,0,1.3,1.9,1.5,2.3c0.1,0.1,0.5,0.8,0.7,1.3c0.2,0.4,0.5,0.9,0.8,1.3
	c0.2,0.3,2.3,0.5,2.9,0.6c0.9,0.1,2.8,0.1,3.5-0.3c0,0,0.2-0.1,0.2-0.1c0.1,0,0.2-0.1,0.3-0.1l0.1,0c0.1,0,0.1,0,0.2-0.1
	c0,0,0.2-0.1,0.3-0.1c0.4-0.1,0.7-0.3,1-0.5c0.3-0.2,1-0.9,1.3-1.3c0.5-0.5,0.8-1.1,1.2-1.7c0.1-0.1,0.2-0.3,0.2-0.4
	c0.1-0.2,0.1-0.4,0.2-0.6c0.1-0.3,0.3-0.7,0.5-1c0,0,0.1-0.1,0.1-0.1c0-0.2,0.1-0.4,0.1-0.4c0.1-0.2,0.2-0.4,0.3-0.6l0.5-1.1
	c0.3-0.7,0.7-1.3,1.1-1.9c0.1-0.1,0.2-0.3,0.3-0.3c0.1-0.1,0.3-0.3,0.3-0.3c0.1-0.1,0.1-0.1,0.2-0.2c0.1-0.1,0.1-0.1,0.2-0.2
	c0-0.1,0.1-0.2,0.2-0.3c0-0.1,0.1-0.2,0.1-0.2c0.4-0.5,2.3-2.3,2.9-2.4c0.4-0.1,0.8,0,1.1,0.1c0.2,0.1,0.5,0.2,0.7,0.3
	c0.2,0.1,0.2,0.1,0.2,0.1c0,0,0.1,0.1,0.2,0.1c0.1,0.1,0.1,0.1,0.1,0.1c0.2,0.1,0.5,0.5,0.6,0.7c0.2,0.3,0.4,0.6,0.6,0.8
	c0.1,0.1,0.7,1.4,0.9,1.9c0.2,0.5,0.5,1.2,0.8,1.7c0.1,0.2,0.5,1.2,0.7,1.9c0,0.1,0,0.1,0.1,0.2l0,0.1c0,0.2,0,0.2,0,0.2l0,0.1
	l0,0.1c0,0,0.1,0.2,0.1,0.3c0.1,0.2,0.2,0.4,0.2,0.5l0,0.1l0,0.2c0,0.1,0.1,0.4,0.1,0.4c0.1,0.3,0.2,1.6,0.2,2c0,0.4-0.4,1.7-0.6,2
	c-0.1,0.1-0.1,0.3-0.2,0.5c0,0,0,0,0,0.3c0,0.1,0,0.2-0.1,0.3c-0.1,0.3-0.3,0.7-0.4,1c-0.1,0.2-0.3,0.4-0.5,0.5
	c-0.2,0.1-2.9,0.1-2.9,0.1c-0.2,0-0.4-0.1-0.6-0.1c-0.1,0-0.3,0-0.5-0.1l-0.2-0.1l-0.2,0l-0.2,0l-0.1,0l-0.1,0h-0.1
	c-0.1,0-0.1,0-0.3,0c-0.7-0.1-1.9-0.4-2.2-0.5c-1.1-0.4-2.2-1-3.1-1.7c-0.4-0.2-0.8-0.6-1-1c-0.1-0.1-0.5,0.5-0.5,0.6
	c-0.1,0.3-0.3,0.6-0.5,0.8c-0.2,0.3-0.7,0.9-1,1.4c-0.5,0.7-1.8,2.2-2.4,2.4c0,0-0.6,0.3-0.8,0.4c-0.1,0.1-0.2,0.1-0.4,0.2
	c-0.1,0-0.1,0-0.2,0c-0.1,0-0.2,0-0.3,0.1c-0.3,0.1-0.6,0.2-1,0.3c-0.4,0-0.7,0.2-1.1,0.3c-0.2,0.1-0.8,0-1.1,0
	c-0.1,0-0.4-0.1-0.4,0c0,0.1,0,0.6,0,0.8c0,0.4,0,1.1-0.1,1.6c0,0.1-0.1,0.6-0.1,0.9c0,0.4-0.1,1-0.1,1.3c-0.1,1.2-0.4,2.5-0.7,3.5
	c-0.1,0.4-0.2,0.8-0.3,1.3c-0.1,0.5-0.3,1-0.4,1.5c-0.1,0.2-0.2,0.4-0.3,0.6c0,0.1-0.1,0.1-0.2,0.2c0,0,0,0-0.1,0.2
	c0,0-0.1,0.2-0.1,0.2c-0.1,0.3-0.6,0.7-0.8,1c-0.1,0.1-0.3,0.3-0.4,0.5l-0.3,0.5c0,0.1-0.1,0.1-0.1,0.2c-0.1,0.1-0.1,0.2-0.2,0.3
	c-0.1,0.1-0.2,0.3-0.2,0.3c-0.1,0.1-0.2,0.1-0.2,0.2c0,0.1-1,0.8-1.3,1c-0.1,0.1-0.1,0.1-0.4,0.3l-0.2,0.2c-0.2,0.1-0.5,0.3-0.8,0.5
	c-0.8,0.5-1.7,0.9-2.6,1.2c-0.1,0-0.4,0.2-0.6,0.3c-0.1,0.1-0.4,0.1-0.7,0.2c-0.2,0-0.8,0.3-1.2,0.4c-0.3,0.1-0.9,0.2-1.4,0.3
	c0,0-0.4,0-0.6,0.1c-0.1,0-0.3,0.1-0.4,0.1l-0.1,0c-0.1,0-0.1,0-0.2,0.1c-0.1,0-0.3,0.2-0.3,0.2c-0.3,0.1-0.6,0.1-0.7,0.2
	c-0.2,0.1-0.4,0.1-0.7,0.1h-0.3l-0.6,0h-0.3c-0.7,0-3.3,0-3.5-0.1c-0.1,0-1.1-0.2-1.4-0.2c-0.1,0-0.7-0.2-1-0.3
	c-0.3-0.1-0.6-0.2-0.9-0.3c-0.2-0.1-0.3-0.1-0.5-0.2l-0.1,0l-0.1,0l-0.1,0c-0.1,0-0.2-0.1-0.3-0.1c-0.7-0.2-3.3-2-3.7-2.5
	c-0.1-0.1-0.2-0.3-0.3-0.4c-0.1-0.1-0.2-0.3-0.3-0.4c-0.1-0.1-0.2-0.3-0.3-0.4c-0.1-0.1-0.3-0.3-0.3-0.5c-0.1-0.1-0.1-0.2-0.1-0.3
	c0-0.1-0.1-0.1-0.1-0.2c-0.1-0.2-0.3-0.5-0.3-0.6c-0.1-0.2-0.2-0.4-0.3-0.5C607.8,92.6,607.6,92.4,607.6,92.3z"/>
<path class="st0" d="M422.3,79.4c0.7-1.5,1.3-3.1,2.3-4.3c0.4-0.5,0.8-1.1,1.3-1.6c0.2-0.2,0.5-0.4,0.8-0.6c0.3-0.2,0.7-0.4,0.8-0.7
	l0-0.1l0-0.1c0,0,0.1-0.2,0.1-0.2l0.1-0.1c0-0.1,0.1-0.1,0.1-0.2c0.1-0.1,0.2-0.4,0.2-0.4l0.1-0.1l0.2-0.2c0.6-0.9,1.5-1.8,2.3-2.5
	c0.4-0.3,0.8-0.7,1.4-0.8c0.1,0,0.2-0.1,0.3-0.1l0.2,0c0.1,0,0.6,0,0.6,0l0.2,0.1c0.2,0,0.2,0,0.2,0.1l0.2,0.1c0,0,0.1,0.1,0.2,0.1
	c0.5,0.4,1,0.9,1.4,1.4c0.1,0.1,0.3,0.2,0.4,0.3c0,0,0.3,0.3,0.4,0.4c0,0,0.2,0.2,0.2,0.2c0,0,0.1,0.2,0.3,0.3l0.1,0
	c0.1,0,0.1,0.1,0.2,0.2c0.2,0.2,0.4,0.4,0.6,0.6c0.3,0.2,0.6,0.4,0.8,0.6c0.4,0.4,1.1,1,1.6,1.2c0.3,0.1,1.2,0.6,1.2,0.6
	c0.4,0.2,0.7,0.4,1.1,0.5c0.8,0.3,2.3,0.8,2.5,0.9c0.4,0.1,0.8,0.2,1.2,0.2c0.5,0,1.5,0.1,1.7,0.1c0.2,0.1,4.5-0.3,4.9-0.5l0.1,0
	l0.1,0l0.3,0l0.1,0c0,0,0.3-0.1,0.4-0.1c0.4-0.1,0.9-0.3,1.1-0.3c0.1-0.1,0.2-0.1,0.3-0.1c0.1,0,0.3-0.1,0.4-0.2l0.1,0l0.2-0.1
	l0.1,0l0.1,0c0.1,0,0.1,0,0.2-0.1c0.4-0.2,1.2-0.5,1.3-0.6c0.6-0.4,1.4-0.9,1.9-1.4c0.6-0.6,1.2-1.4,1.4-2.1c0-0.2-0.3-1.3-0.4-1.7
	c-0.2-0.6-0.4-1.3-0.5-1.9c-0.1-0.7-0.3-1.3-0.4-2c-0.1-0.4-0.2-1.2-0.4-1.8l-0.9-4.4c-0.3-1.5-0.6-3-0.9-4.5l-0.9-4.8
	c-0.1-0.8-0.3-1.7-0.4-2.5c-0.1-0.6-0.3-1.6-0.4-2.3c-0.3-1.5-0.8-3.9-0.9-4.6c-0.1-0.7-0.3-1.3-0.5-1.9c-0.1-0.3-0.2-0.7-0.2-1.1
	c0-0.4-0.1-0.8-0.1-1.2c-0.1-0.5-0.1-0.9-0.1-1.3c0-0.8,0.9-3.7,1.4-3.3c0.5,0.3,1.3,3.2,1.4,3.9l0,0.2l0,0.3c0,0,0,0,0,0.2l0,0.3
	l0,0.3c0,0.1,0,0.2,0,0.3l0,0.1l0,0.3c0,0.1,0,0.3,0.1,0.4l0,0.1l0,0.2l0,0.1l0,0.3l0,0.2c0.1,0.8,0.3,1.7,0.5,2.5
	c0,0.1,0.1,0.4,0.1,0.4c0,0.1,0.1,0.3,0.1,0.5c0,0.2,0.1,0.4,0.1,0.7l0,0.2l0,0.5c0,0.2,0,0.3,0,0.4l0,0.2v0.2l0,0.1
	c0,0,0,0.1,0,0.3c0,0.2,0.1,0.5,0.1,0.7c0,0.2,0.1,0.5,0.1,0.7c0,0.2,0,0.3,0.1,0.6c0.3,1.2,0.6,3.4,0.9,5.3
	c0.1,0.9,0.3,2.1,0.5,2.6c0.2,0.6,0.5,2.2,0.5,2.2l0,0.1l0,0.2l0,0.1l0,0.1l0,0.2l0,0.2c0,0.2,0,0.3,0.1,0.5l0,0.1l0,0.1l0,0.1
	c0,0.2,0,0.2,0.1,0.4l0,0.1l0,0.2l0,0.3l0.1,0.7c0,0.2,0.1,0.4,0.1,0.5c0,0.2,0.1,0.4,0.1,0.6c0,0.2,0.1,0.3,0.1,0.5
	c0.2,0.6,0.4,1.4,0.5,1.8l0,0.1l0,0.1l0.1,0.5c0,0.2,0.1,0.4,0.1,0.5c0,0.1,0.1,0.3,0.1,0.5c0,0.2,0.1,0.5,0.1,0.6
	c0.4,1.1,0.9,2.4,1.2,3.4c0.1,0.5,0.6,1.2,0.9,1.7c0.1,0.1,0.2,0.3,0.3,0.3c0.1,0.1,0.2,0.3,0.4,0.5l0.2,0.2c0,0,0,0,0.1,0.1
	c0.1,0,0.2,0.2,0.2,0.2l0.2,0.2c0,0,0,0,0.1,0.1c0,0,0,0,0.1,0.1c0,0.1,0.1,0.2,0.1,0.2l0.4,0.4l0.2,0.2c0.4,0.4,0.9,0.8,1.4,1
	c0.6,0.3,1.4,0.7,1.8,0.8c0.2,0.1,0.9,0.3,0.9,0.3c0,0,0,0,0.3,0c0.1,0,0.2,0,0.3,0.1c0,0,0,0,0.2,0c0.1,0,0.7,0,0.5-0.1
	c-0.2-0.1-1.8-2.4-1.9-2.7c-0.3-0.5-0.5-1.1-0.7-1.6c-0.1-0.3-0.2-0.6-0.3-0.8c-0.1-0.3-0.2-0.5-0.3-0.8c-0.1-0.3,0.2-1.2,0.3-1.5
	c0.1-0.3,0.2-0.9,0.3-1.4c0.1-0.6,0.4-1.6,0.7-2.3c0.7-2.1,1.7-4.2,2.8-5.8c0.2-0.3,0.6-0.7,1-1.2c0.1-0.1,0.1-0.1,0.1-0.1
	c0-0.1,0.2-0.2,0.2-0.2c0.1,0,0.2-0.2,0.2-0.2c0.2-0.4,2.4-1.6,2.9-1.8c0.5-0.2,1.1-0.3,1.6-0.3c0.3,0,0.5-0.1,0.8-0.1l0.4,0l0.2,0
	l0.1,0c0.2,0,0.4,0,0.5,0.1c0.2,0.1,0.7,0.2,1,0.2c0.1,0,0.2,0,0.2,0.1c0,0,0.3,0.1,0.5,0.1c0.2,0,0.5,0.1,0.7,0.2
	c0.2,0.1,0.5,0.2,0.7,0.3l0.1,0.1c0.1,0.1,0.2,0.1,0.2,0.1c0.2,0.1,0.2,0.1,0.4,0.1c0.4,0.1,1.9,1,2.2,1.2c0.4,0.4,1.5,1.4,1.7,1.7
	c0.1,0.3,0,0.6-0.1,0.8c-0.1,0.2-0.5,0.5-0.7,0.6c-0.1,0.1-0.6,0.2-0.7,0c-0.1-0.1-0.6-0.5-0.7-0.6c-0.3-0.2-0.7-0.4-1-0.6
	c-0.7-0.3-1.5-0.7-2.3-0.8c-0.7-0.1-1.8,0.1-2.5,0.2c-0.6,0.1-0.9,0.2-1.4,0.4c-0.8,0.4-1.8,0.8-2.4,1.1c-0.3,0.1-1,0.8-1.8,1.4
	c-0.3,0.3-0.7,0.5-0.9,0.8c-0.1,0.1-0.4,0.4-0.7,0.7c-0.1,0.1-0.1,0.1-0.1,0.1c0,0-0.3,0.5-0.4,0.8c-0.1,0.1-0.1,0.2-0.3,0.3
	c-0.1,0.1-0.4,0.2-0.4,0.3c0,0-0.1,0.5-0.2,0.7c-0.1,0.3-0.2,0.8,0,1.2c0.2,0.5,0.4,1.3,0.6,1.5c0.1,0.1,0.2,0.4,0.3,0.6
	c0,0.1,0,0.1,0.1,0.2l0.1,0.2l0.1,0.2l0,0.1l0,0.1c0.2,0.3,0.5,0.7,0.8,1.1c0.3,0.4,1,1.1,1.5,1.6c0.6,0.6,1,1,1.8,1.4
	c0.4,0.2,0.8,0.3,1.2,0.5c0.4,0.1,1.1,0.4,1.3,0.4c0.6,0.1,1.4,0.1,2.1,0.1l0.4,0l0.3,0l0.3,0c0.1,0,0.3,0,0.4,0
	c0.1,0,1.2-0.5,1.9-0.8c0.2-0.1,0.6-0.3,0.9-0.5c0.3-0.2,0.6-0.3,0.9-0.5c0.7-0.3,1.3-0.8,1.9-1.3c0.6-0.5,1.5-1.3,1.7-1.5
	c0.3-0.4,1.1-1.1,1.6-1.6c0.1-0.1,0.5-0.7,0.7-1l0-0.1l0-0.1l0-0.1c0-0.1,0.1-0.2,0.1-0.3c0.1-0.1,0.3-0.4,0.4-0.5
	c0.2-0.1,0.3,0,0.4,0.1c0.2,0.1,0.3,0.4,0.3,0.7c0.1,0.5-0.4,2-0.7,2.8c-0.2,0.5-0.3,0.8-0.5,1.2c0,0.1-0.1,0.2-0.2,0.4l-0.1,0.1
	l0,0.1l-0.1,0.2c-0.1,0-0.1,0-0.1,0.1c0,0.1,0,0.2-0.1,0.2c-0.2,0.3-0.4,0.6-0.6,0.8c-0.1,0.1-0.5,0.5-0.7,0.9
	c-0.3,0.4-1,1.1-1.5,1.6c-0.5,0.5-1.1,1-1.7,1.4c-0.1,0.1-0.1,0.1-0.2,0.2c-0.1,0-0.1,0.1-0.2,0.1l-0.1,0c-0.1,0.1-0.1,0.1-0.1,0.1
	c0,0,0,0-0.2,0.1c0,0-0.1,0.1-0.2,0.1l-0.1,0.1c-0.1,0.1-0.1,0.1-0.1,0.1c-0.1,0.1-0.2,0.1-0.4,0.2c-0.1,0-0.2,0.1-0.2,0.1
	c-0.1,0-0.2,0.1-0.3,0.2c-1.4,0.9-3,1.5-4.8,2.2c0,0-0.3,0.1-0.5,0.1c0,0-0.1,0-0.2,0.1c-0.1,0-0.3,0.1-0.3,0.1
	c-0.1,0-0.3,0.1-0.4,0.1c-0.2,0-0.3,0.1-0.5,0.1c-0.2,0-0.4,0.1-0.6,0.1c-0.1,0-0.3,0.1-0.5,0.1c-0.2,0.1-1,0.3-1,0.3
	c-2.3,0.3-4.5,0.5-6.6,0.3c-0.8-0.1-2.3-0.7-3.3-1.1c-0.7-0.3-2-1.1-2.5-1.7c0,0-0.2-0.2-0.3-0.4l-0.1-0.1c-0.1-0.2-0.4-0.5-0.5-0.6
	c-0.3-0.3-0.7-0.7-0.9-1.2l0-0.1l-0.1-0.2c0,0-0.1-0.3-0.2-0.4c-0.1-0.3-0.2-0.5-0.4-0.8c-0.1-0.2-0.2-0.4-0.3-0.7
	c-0.1-0.2-0.2-0.6-0.3-0.8c0,0-0.2,0.4-0.2,0.4c0,0.1-0.1,0.2-0.1,0.2c0,0.1-0.1,0.2-0.1,0.3c-0.1,0.1-0.2,0.6-0.3,0.9
	c-0.3,0.8-0.6,1.4-1.1,1.9c-0.7,0.8-1.4,1.4-2.1,2.1c-0.7,0.6-1.8,1-2.7,1.3c-0.9,0.3-2.9,1-3.1,1l-0.3,0c-0.4,0-0.4,0-0.6,0.1
	l-0.1,0l-0.2,0c-0.2,0-0.4,0.1-0.6,0.1h-0.1l-0.3,0l-0.1,0l-0.2,0c-0.2,0-1,0.1-1.7,0.1c0,0-0.3,0-0.4,0c-0.2,0-0.2,0-0.3,0
	c-0.4,0-0.9-0.1-1.2,0l-0.1,0c-0.1,0-0.1,0-0.2,0.1c-0.2,0.1-0.5,0-0.7-0.1c-0.2-0.1-0.5-0.2-0.9-0.2c-0.1,0-0.3-0.1-0.4-0.1
	l-0.1-0.1l-0.2-0.1c-0.2-0.1-0.7-0.2-0.9-0.2c0,0-0.1,0.3-0.1,0.3c0,0.2,0,0.4-0.2,0.6l0,0.2l0,0.2c0,0-0.1,0.2-0.1,0.3
	c-0.1,0.4-0.3,0.8-0.6,1.1c-0.1,0.1-0.3,0.2-0.6,0.2c-0.1,0-0.1,0-0.2,0l-0.1,0l-0.1,0l-0.1,0c-0.3-0.1-0.6-0.1-0.9-0.1
	c-0.2,0-1.3-0.1-2-0.2c-1.2-0.2-2.2-0.4-3.2-0.7c-1.7-0.5-4.1-1.2-5-1.8c-0.7-0.4-1.2-1.2-1.6-1.9c0,0-0.6,0.2-0.6,0.2
	c-0.2,0.1-0.4,0.2-0.6,0.3c-0.5,0.3-0.8,0.7-1.2,1.1c-0.4,0.4-0.8,0.9-1.2,1.3c-0.7,0.7-0.9,1-0.8,2.4c0.1,1,0.2,2.1,0.2,3.1
	c0,0.2,0,0.5,0.1,0.7c0.1,0.2,0.1,0.4,0.1,0.7c0,0.1,0,0.3,0.1,0.4c0.1,0.3,0.1,0.5,0.1,1c0,0.3,0.2,1.2,0.2,1.8
	c0,0.2,0.1,0.5,0.1,0.6l0,0.1l0,0.1c0,0.1,0.1,0.2,0.1,0.3c0.1,0.4,0.2,1.1,0.2,1.6c0.2,1.8,0.6,3.7,1,5.4l0.1,0.4l0,0.4l0,0.5
	l0.1,0.1l0,0.3l0,0.3l0,0.2c0,0.3,0.1,0.6,0.1,0.8l0,0.1l0,0.2c0,0.1,0,0.3,0.1,0.5c0,0.3,0.1,0.5,0.1,0.7c0.1,0.3,0.1,0.6,0.1,0.7
	c0,0.3,0.1,0.5,0.1,0.8c0,0.2,0,0.2,0,0.2c0,0.1,0,0.2,0.1,0.3c0.3,1.9,0.8,4.7,0.9,5.9l0.2,1.4c0,0,0.1,0.4,0.1,0.6
	c0,0,0.1,0.5,0.1,0.7c0.1,0.6,0.2,1.1,0.2,1.7c0.1,0.6,0.1,1.2,0.2,1.7c0.3,1.1,0.5,2.2,0.3,3.6c-0.1,0.8-0.2,1.7-0.6,2.3
	c-0.1,0.1-0.2,0.2-0.4,0.1c-0.3,0-1.4-3.7-1.4-4.1c0-0.1-0.1-0.6-0.1-0.8c0-0.1-0.1-0.4-0.1-0.5c0-0.2-0.1-0.4-0.1-0.6
	c0-0.1,0-0.2-0.1-0.4l0-0.1l0-0.1l0-0.2l0-0.1l0-0.1l0-0.1c0-0.2-0.1-0.3-0.1-0.5c-0.2-1.4-0.4-2.8-0.6-4.2c0-0.2,0-0.3-0.1-0.5
	c0-0.1-0.1-0.5-0.1-0.5c0-0.1-0.1-0.6-0.2-0.9c-0.1-0.6-0.2-1.3-0.3-1.8c-0.1-0.6-0.2-1.2-0.3-1.7c0-0.2-0.1-0.4-0.1-0.7
	c0-0.2,0-0.4-0.1-0.6c0-0.1-0.1-0.4-0.1-0.5l0-0.1l0-0.2c0-0.3,0-0.3,0-0.4c-0.2-1.3-0.5-2.9-0.6-3.8c-0.2-1.2-0.4-2.3-0.6-3.5
	l0-0.2c0-0.3,0-0.3,0-0.4l0-0.1l0-0.1l0-0.1l0-0.1l0-0.2l0-0.1l0-0.2c0-0.1,0-0.1,0-0.2c0-0.3-0.1-0.6-0.2-0.8
	c-0.1-0.3-0.1-0.6-0.2-0.8c-0.2-0.9-0.2-1.7-0.3-2.6c0-0.1-0.1-1.1-0.1-1.6c0-0.2,0-0.5,0-0.7l0-0.6l0-0.6l0-0.2v-0.1l0-0.6l0-0.3
	l0-0.2l0-0.3c0-0.4,0.1-0.9,0.2-1.2l0-0.1l0-0.1c0-0.2,0.1-0.6,0.1-0.7c0.1-0.2,0.1-0.6,0.1-0.8C421.9,81.5,422.2,80,422.3,79.4z"/>
<path class="st0" d="M743.4,95.9c0.2-0.2,0.3-0.4,0.5-0.6c0.1,0,0.3-0.4,0.5-0.6c0.1-0.1,0.1-0.1,0.2-0.2c0.1,0,0.2-0.1,0.4-0.3
	c0.3-0.3,0.7-0.2,1-0.1c0,0,0.2,0.1,0.2,0.1c0.1,0,0.1,0,0.2,0.1l0.2,0.1l0.4,0.1l0.1,0l0.1,0l0.1,0l0.1,0c0.2,0.1,0.4,0.1,0.5,0.2
	c0.1,0,0.1,0,0.2,0.1c0,0,0.1,0,0.2,0.1l0.1,0l0.1,0c0.1,0,0.2,0.1,0.3,0.1c0.2,0.2,0.5,0.3,0.8,0.4c0.2,0.1,0.9,0,0.9,0
	c0,0,0.3-0.6,0.3-0.6c0.1-0.1,0.1-0.2,0.2-0.3c0.1-0.1,0.1-0.2,0.2-0.3c0.1-0.2,0.2-0.3,0.3-0.5c0.2-0.2,0.4-0.5,0.4-0.5
	c0.2-0.4,1.3-1.8,1.7-2c0.1-0.1,0.3-0.1,0.4,0c0.9,0.6,2.2,1.4,2.7,1.8c0.4,0.3,1.3,1.3,1.5,1.7c0.1,0.3,0,0.5-0.2,0.8l-0.1,0.3
	l-0.1,0.2c-0.1,0.1-0.1,0.1-0.1,0.1c-0.1,0.3-0.2,0.3-0.4,0.5c0,0-0.3,0.3-0.4,0.4c-0.3,0.3-0.5,0.6-0.7,0.9
	c-0.2,0.3-0.5,0.6-0.9,0.8c-0.3,0.1-0.8-0.4-1.1-0.6c-0.3-0.2-0.7-0.4-1.1-0.6c-0.4-0.2-0.9-0.4-1.2-0.7c-0.1-0.1-1-0.6-1.1-0.6
	l0,0.1l0,0.1c0,0.1,0,0.1-0.1,0.2c-0.1,0.1-0.2,0.3-0.2,0.3c-0.1,0.1-0.1,0.1-0.1,0.1c0,0.1,0,0.1-0.1,0.1c-0.1,0.1-0.1,0.2-0.2,0.2
	c-0.2,0.2-0.3,0.3-0.4,0.5c-0.2,0.2-0.4,0.5-0.5,0.6c-0.5,0.6-1.5,1.8-2.1,1.9c-0.3,0.1-0.8-0.2-1.2-0.4c-0.2-0.1-0.7-0.3-1.1-0.5
	c-0.4-0.2-1.1-0.5-1.3-0.5c-0.4-0.1-0.8-0.2-1.1-0.4c-0.1-0.1-0.2-0.3-0.2-0.4c0-0.2,0.1-0.3,0.2-0.5c0.1-0.1,0.2-0.4,0.2-0.4
	c0,0,0.1-0.4,0.1-0.4l0,0.1c0,0,0.1-0.1,0.1-0.1c0-0.1,0.1-0.2,0.2-0.3h0.1c0,0,0.1-0.1,0.1-0.1C743.3,96.7,743.4,96.2,743.4,95.9z"
	/>
<path class="st0" d="M731.5,49.6c0,0,0.2-0.1,0.3-0.1c0.1,0,0.2,0,0.2-0.1c0,0,0.2-0.1,0.3-0.1c0.1,0,0.2-0.1,0.3-0.1l1.2-0.4
	c0.9-0.3,1.7-0.7,2.6-1c1.7-0.7,3.7-1.6,5.1-2.1c1.6-0.6,3.4-1.4,5.1-2.2c0.2-0.1,0.4-0.2,0.6-0.2c0.1,0,0.2-0.1,0.3-0.1l0.1,0
	l0.1,0c0.1,0,0.1,0,0.2-0.1c0.3-0.1,1.2-0.6,1.2-0.6c0.6-0.4,1.8-1,2.3-1.1c0.1,0,0.5,0.1,0.6,0.2c0.8,0.8,0.1,2.3-0.4,3
	c-0.1,0.2-0.6,0.4-1,0.5c-0.2,0.1-0.9,0.4-1.3,0.6c-0.1,0-0.2,0.1-0.2,0.1c-0.1,0.1-0.2,0.2-0.3,0.2l-0.2,0c-0.1,0-0.1,0-0.3,0.1
	l-0.1,0l-0.2,0.1c-0.2,0.1-0.4,0.2-0.6,0.3c0,0-0.5,0.2-0.8,0.3c-0.4,0.1-0.7,0.3-1.1,0.4c-0.2,0.1-0.4,0.2-0.6,0.3
	c-0.1,0-0.1,0-0.2,0.1l-0.2,0.1c-0.1,0.1-0.2,0.1-0.4,0.2c-1,0.4-2.5,1-2.9,1.1c-0.4,0.2-0.9,0.4-1.4,0.5c-0.5,0.2-0.9,0.3-1.4,0.5
	c-0.2,0.1-0.6,0.2-0.7,0.3l-0.1,0l-0.1,0.1c-0.1,0-0.2,0.1-0.4,0.2c-0.1,0-0.2,0.1-0.2,0.1c-0.1,0-0.2,0.1-0.3,0.1
	c-0.1,0-0.1,0-0.2,0.1c0,0-0.1,0.1-0.1,0.1l-0.2,0.1l-0.1,0l-0.1,0c0,0-0.4,0.2-0.6,0.3c-0.1,0.1-0.4,0.2-0.6,0.3
	c-0.1,0-0.9,0.3-1.5,0.5c0,0-0.1,0-0.2,0.1c-0.1,0-0.4,0.1-0.4,0.1c-0.2,0.1-0.4,0.1-0.7,0.2c-0.1,0-0.2,0.1-0.3,0.2
	c-0.1,0.1-0.2,0.1-0.4,0.2c-0.3,0.1-0.6,0.1-0.8-0.1C730.5,52.4,731.3,49.8,731.5,49.6z"/>
<path class="st0" d="M720.1,39.3c0,0,0.3-0.4,0.4-0.5c0.1-0.1,0.1-0.1,0.1-0.1l0.2-0.2c0,0,0,0,0.1-0.1c0.3-0.3,0.6-0.6,0.9-0.9
	c0.5-0.5,1.9-1.2,2.6-1.4c0.2-0.1,2.4-0.2,2.8-0.2c1.1,0,2.9,0.5,4.3,0.9l0.1,0l0.2,0l0.1,0l0.1,0l0.1,0l0.1,0l0.1,0
	c0.1,0,0.6,0.2,0.9,0.3c0.2,0,0.7,0.2,1.1,0.2c0.4,0.1,0.7,0.2,1.1,0.4c0.1,0,0.2,0.4,0.3,0.5c0,0.4-0.1,0.8-0.2,1.1
	c-0.2,0.5-0.5,0.9-0.8,1.3c-0.9,1.1-2.2,1.9-3.6,2.5c-0.2,0.1-0.4,0.2-0.5,0.2c-0.2,0.1-0.4,0.2-0.6,0.2c-0.4,0.2-0.8,0.3-1.3,0.6
	c-0.4,0.2-0.8,0.3-1.3,0.4c-0.3,0.1-0.5,0.1-0.7,0.1c-0.3-0.1-0.7-0.2-1-0.1c-0.3,0.1-0.5,0.2-0.8,0.3c-0.2,0.1-0.5,0.2-0.8,0.2
	c-0.4,0.1-1-0.2-1.1-0.5c0-0.1,0.2-0.3,0.3-0.5c0,0,0.3-0.2,0.4-0.2c0.1-0.1,0.5-0.2,0.5-0.2c0.1-0.1,0.2-0.1,0.2-0.1
	c0.1,0,0.2-0.1,0.3-0.1c0.2-0.1,0.3-0.2,0.5-0.3c0.3-0.2,0.6-0.3,0.9-0.5c0.3-0.1,0.6-0.4,0.9-0.5c0.6-0.3,1.2-0.7,1.8-1
	c0.3-0.2,0.7-0.3,0.9-0.5c0.1,0,0.1,0,0.2-0.1c0.1,0,0.2-0.1,0.3-0.1c0.1,0,0.5-0.3,0.5-0.3c0-0.1-2.9-0.8-3.1-0.8
	c-0.7-0.1-1.8-0.2-2-0.1l-0.2,0l-0.2,0l-0.2,0c-0.2,0-0.5,0.1-0.6,0.1c-0.3,0.1-0.7,0.1-0.8,0.2c-0.6,0.3-1.2,0.7-1.7,1.1
	c-0.5,0.4-1.2,0.9-1.7,1c-0.4,0.1-0.5-0.1-0.6-0.3C719.3,41,720,39.4,720.1,39.3z"/>
<path class="st0" d="M680.8,33.6L680.8,33.6l0.4-0.1c0.1,0,0.2-0.1,0.2-0.1c0.2-0.1,0.4-0.2,0.6-0.3l1.2-0.6
	c0.8-0.4,1.6-0.8,2.5-1.1c1.6-0.7,4.6-1.9,5.2-2.2c0.1,0,0.1,0,0.2-0.1l0.1,0l0.2-0.1c0.1,0,0.3-0.1,0.3-0.1l0.1,0l0.2-0.1
	c0.1,0,0.3-0.2,0.5-0.2c0.2-0.1,0.5-0.2,0.7-0.3c0.2-0.1,0.4-0.2,0.6-0.3c0.2-0.1,0.4-0.2,0.5-0.3c0.4-0.2,0.8-0.4,1.2-0.6l1-0.4
	c0.1-0.1,0.5-0.2,0.5-0.2c0.2-0.1,0.4-0.2,0.6-0.3c0.7-0.3,2-1,2.4-1.1c0.4-0.1,0.8,0.4,0.9,0.7c0.2,0.6-0.4,2.2-0.7,2.5
	c-0.3,0.4-1.8,0.9-2.5,1.1c0,0-0.4,0.2-0.5,0.2c-0.2,0.1-0.4,0.2-0.7,0.3c-0.2,0.1-0.5,0.2-0.7,0.3c-0.2,0.1-0.5,0.2-0.7,0.3
	c-0.2,0.1-0.9,0.4-1.3,0.6c-0.2,0.1-0.5,0.3-0.6,0.3c-0.2,0.1-0.3,0.2-0.6,0.3c-0.4,0.1-0.9,0.3-1.2,0.5c-0.4,0.2-0.8,0.4-1.3,0.5
	c-0.3,0.1-1.7,0.7-2.7,1.1c-0.2,0.1-0.6,0.2-0.6,0.3c0,0-0.4,0.2-0.6,0.2l-0.1,0l-0.1,0l-0.1,0l-0.1,0.1l-0.1,0l-0.1,0
	c-0.2,0.1-0.4,0.2-0.5,0.2c-0.4,0.2-0.8,0.4-1.3,0.6c-0.2,0.1-0.9,0.4-1.3,0.6c-0.2,0.1-0.5,0.2-0.5,0.3c-0.2,0.1-0.4,0.2-0.6,0.3
	c-0.4,0.2-1,0.5-1.1,0.6c-1,0.2-0.6-1.2-0.4-1.7l0.1-0.2l0.1-0.6l0-0.1l0-0.1l0-0.1C680.5,34,680.7,33.6,680.8,33.6z"/>
<path class="st1" d="M674.7,85c0.6,0.4,1.5,1.1,1.8,1.2c0.4,0.2,0.7,0.3,1.1,0.5c0.2,0.1,0.5,0.2,0.7,0.2c0.1,0,0.2,0.1,0.2,0.1
	c0.1,0,0.3,0.1,0.3,0.1c0.6,0.2,1.4,0.3,2,0.3c0.3,0,0.6,0,0.9,0c0.4,0,0.4,0,0.4,0l0.8,0l1.5,0c0.1,0,0.5,0,0.5-0.1
	c-0.2-0.2-0.4-0.5-0.6-0.8c-0.1-0.2-0.2-0.4-0.3-0.5c-0.1-0.2-0.2-0.4-0.3-0.5c0-0.1-0.1-0.2-0.1-0.3c0,0-0.1-0.2-0.1-0.3
	c-0.1-0.2-0.2-0.3-0.3-0.5c0-0.1-0.4-0.5-0.7-0.9c-0.1-0.1-0.4-0.4-0.7-0.6c-0.1-0.1-0.2-0.2-0.3-0.2c-0.1-0.1-0.2-0.1-0.3-0.1
	c-0.1,0-0.3-0.1-0.3-0.2c-0.1,0-0.6-0.2-1-0.3c-0.2,0-0.3-0.1-0.5-0.2c-0.1,0-0.3-0.1-0.3-0.1l-0.1,0c-0.1,0-0.1,0-0.1-0.1
	c-0.5-0.1-1.4,0-1.8,0.1c-0.8,0.2-1.9,0.7-2.3,1.2c-0.1,0.1-0.1,0.1-0.2,0.2c-0.1,0-0.1,0.1-0.2,0.2c-0.1,0.1-0.3,0.3-0.3,0.5
	c0,0.2,0.1,0.4,0.3,0.6c0.1,0.1,0.1,0.1,0.2,0.2C674.5,84.8,674.6,84.9,674.7,85z"/>
<path class="st0" d="M668.7,57.6c0.1,0,0.3-0.2,0.5-0.2c0.2-0.1,0.3-0.2,0.5-0.2c0.1,0,0.1-0.1,0.2-0.1c0,0,0.1-0.1,0.2-0.1
	c0,0,0.3-0.1,0.5-0.2c0.7-0.3,1.3-0.6,2-0.9c0.6-0.3,1.3-0.6,1.9-0.9c0.6-0.3,1.4-0.6,2-0.9c0.6-0.3,1.2-0.6,1.8-0.8
	c0.7-0.2,1.3-0.5,1.9-0.9c0.3-0.2,0.6-0.3,0.9-0.4c0.2-0.1,0.3-0.1,0.4-0.2l0.2-0.1c0.1,0,0.3-0.1,0.3-0.1c0.3-0.2,0.6-0.3,0.9-0.5
	c0.1-0.1,0.4-0.2,0.4-0.2c0.1,0,0.1-0.1,0.2-0.2c0.1-0.1,0.2-0.2,0.2-0.2c0.2-0.1,0.5,0,0.6,0.1c0.2,0.2,0.3,0.4,0.4,0.7
	c0.1,0.3-0.1,1.1-0.2,1.3c-0.2,0.4-0.4,0.8-0.7,1.2c-0.2,0.2-0.4,0.4-0.7,0.5c0,0-0.3,0.2-0.5,0.2c-0.2,0.1-0.4,0.2-0.5,0.3
	c-0.1,0.1-0.3,0.1-0.4,0.2c-0.2,0.1-0.3,0.1-0.5,0.2l-0.1,0l-0.1,0l-0.1,0l-0.2,0.1l-0.2,0.1l-0.1,0.1l-0.1,0l-0.1,0
	c-0.9,0.5-2.6,1.2-4,1.8c-0.2,0.1-0.6,0.3-0.8,0.4c-0.3,0.2-0.7,0.4-1,0.5c-0.7,0.2-1.4,0.6-2,1c-0.1,0.1-0.3,0.1-0.4,0.1
	c-0.2,0-0.3,0.1-0.5,0.2c0,0,0,0-0.2,0.1c-0.1,0-0.2,0.1-0.3,0.1c-0.1,0-0.2,0.1-0.2,0.1l-0.1,0c0,0-0.2,0.1-0.2,0.1
	c-0.1,0.1-0.6,0.3-0.9,0.5c-0.1,0.1-0.2,0.2-0.4,0.3c-0.2,0.1-0.3,0.2-0.5,0.3c-0.2,0-0.5,0-0.7,0c-0.1,0-0.2-0.3-0.3-0.4
	C667.6,60,668.4,57.6,668.7,57.6z"/>
<path class="st1" d="M655.6,70.5c0.1,0.1,3.1,0.5,3.5,0.4c0.1,0-0.2-0.6-0.2-0.7c-0.1-0.2-0.2-0.5-0.3-0.7c-0.2-0.4-0.4-0.9-0.6-1.3
	c-0.2-0.4-1.1-2.1-1.4-2.3c-0.3-0.2-0.7-0.4-0.7-0.5c-0.2-0.1-1.1-0.3-1.2-0.3c-0.4,0-0.7,0.3-1.1,0.6l-0.2,0.2c0,0-0.2,0.2-0.3,0.3
	c0,0,0,0-0.1,0.1c0,0-0.1,0.1-0.1,0.1c-0.2,0.1-1.5,1.5-1.5,1.6c0,0.1,0.2,0.4,0.3,0.4c0,0,0.1,0.1,0.2,0.2c0,0,0,0,0.2,0
	c0.1,0,0.2,0.1,0.2,0.1c0.4,0.2,0.8,0.4,1.1,0.6C654,69.9,654.8,70.2,655.6,70.5z"/>
<path class="st0" d="M645.2,89.5c0.1,0,0.1,0,0.2,0c0.2,0,0.3,0,0.5,0c0.2,0,0.3-0.1,0.5-0.2c0.4-0.1,0.8-0.3,1.1-0.5
	c0.3-0.2,0.7-0.3,1.1-0.5c0.4-0.1,0.8-0.3,1.1-0.4c0.5-0.2,1.4-0.5,2-0.8c0.7-0.2,1.4-0.5,2.1-0.8c0.1-0.1,1.3-0.6,2-0.9
	c0.3-0.2,0.7-0.3,1-0.4c0.2-0.1,0.5-0.2,0.6-0.2l0.1,0c0,0,0,0,0.2-0.1l0.1,0l0.2-0.1c0.2-0.1,0.3-0.1,0.5-0.2
	c0.2-0.1,0.4-0.1,0.5-0.2c0.4-0.1,0.7-0.3,1.1-0.4c0.3-0.2,0.7-0.3,1-0.5c0.3-0.2,0.8-0.5,1-0.5c0.2-0.1,0.4,0.1,0.5,0.2
	c0.2,0.2,0.3,0.4,0.4,0.7c0.2,0.5-0.2,1.5-0.4,1.8c-0.2,0.4-0.4,0.6-0.7,0.9c-0.1,0.1-0.2,0.1-0.3,0.1l-0.1,0l-0.2,0l-0.1,0
	c-0.1,0-0.2,0.1-0.3,0.1c-0.1,0.1-0.2,0.1-0.4,0.2c-0.4,0.2-0.9,0.4-1.3,0.6c-0.4,0.2-0.9,0.4-1.4,0.5c-0.4,0.1-0.8,0.2-1.1,0.4
	c-0.1,0.1-0.3,0.1-0.5,0.2c-0.3,0.1-0.5,0.1-0.7,0.3c-0.1,0-0.2,0.1-0.3,0.1c-0.1,0-0.2,0.1-0.4,0.2c-0.1,0-0.2,0.1-0.2,0.1
	c-0.1,0-0.3,0.1-0.4,0.2c-0.3,0.2-0.8,0.5-1.1,0.6l-0.1,0l-0.2,0l-0.2,0c0,0-0.2,0.1-0.3,0.1l-0.1,0l-0.2,0l-0.1,0
	c-0.2,0.1-0.2,0.1-0.2,0.1c-0.2,0-0.2,0-0.2,0.1c-0.4,0.1-0.8,0.4-1.3,0.6c-0.4,0.2-0.8,0.4-1.3,0.5c-0.2,0.1-0.4,0.1-0.6,0.2
	c-0.2,0-0.4,0.1-0.6,0.2c-0.4,0.1-0.9,0.3-1.3,0.5l-1.2,0.6c-0.4,0.2-1.1,0.4-1.2-0.2C644.2,92.1,644.8,89.7,645.2,89.5z"/>
<path class="st0" d="M619.1,62.4c0.5-0.1,2.3,1.3,2.6,1.6c0.7,0.7,1.3,1.4,1.8,2.2c0.3,0.5-0.7,1.8-1,2.1c-0.2,0.2-0.4,0.7-0.6,1.1
	c-0.1,0.3-0.5,0.7-0.9,0.7c0,0-2.2-1.3-2.2-1.4c-0.2-0.2-0.7-0.5-1-0.7c-0.4-0.2-0.8-0.5-0.9-0.9c-0.1-0.4,0.3-1.2,0.5-1.5
	c0.2-0.4,0.4-0.8,0.5-1.3C617.9,64.2,618.8,62.5,619.1,62.4z"/>
<path class="st0" d="M616.2,39.2c-1.2,0.2-1.5,0.4-1.9,1.3c-0.1,0.1-0.1,0.2-0.1,0.3c0,0-0.1,0.2-0.1,0.2c-0.1,0.2-0.2,0.4-0.3,0.5
	c-0.1,0.2-0.7,0.8-0.9,0.3c-0.6-1,0.9-5,1.3-5.5c0.2-0.2,1.2-0.7,1.5-0.8c0.2,0,0.3-0.1,0.5-0.1l0.3,0l0.3,0c0.5,0,0.7,0,0.7,0
	l0.1,0l0.1,0c0,0,0.1,0,0.2,0.1c0.2,0.1,0.4,0.2,0.5,0.2c0.3,0.1,0.6,0.3,0.8,0.5c0.8,0.5,1.6,1.6,2.2,2.5c0.3,0.4,0.8,0.9,1.2,1.3
	l0.1,0.1l0.1,0.1l0.3,0.3l0.1,0.1c0.1,0.1,0.2,0.2,0.4,0.2c0.1,0.1,0.3,0.2,0.3,0.3c0.1,0.2,0.2,0.4,0.2,0.7c0,0.7-0.5,2.3-1,2.4
	c-0.2,0.1-0.6,0.1-0.9,0c-0.3,0-0.7-0.1-0.9,0c-0.3,0.2-0.6,0.3-0.9,0.4c-0.2,0-0.5,0.1-0.5,0.1l-1,0.1c-0.1,0-1.3,0.2-1.8,0.2
	c-0.6,0.1-1.1,0.1-1.5,0.3c-0.6,0.2-2.8,1.6-3,2.1c-0.6,1.3-0.2,4.5,0,6.1c0.2,1.7,0.7,5,0.7,5.6l0,0.2v0.3c0,0.2,0,0.5,0,0.8
	c0,0.5-0.1,1.1,0,1.6c0,0.2,0,0.4-0.1,0.6c-0.1,0.3-0.4,1.1-0.5,1.2c-0.2,0.1-0.2,0.1-0.4,0.1c-0.2,0-0.3-0.8-0.3-1
	c-0.1-0.6-0.1-1.2-0.2-1.8c-0.2-1.1-0.3-2.4-0.4-3.4c-0.1-1-0.3-2.8-0.4-3.3c-0.2-1.5-0.4-3.1-0.4-4.7c0-1.8,0.7-4,1.8-4.7
	c0.5-0.3,1-0.8,1.5-1.3c0.5-0.5,1-0.9,1.5-1.2c0.4-0.3,0.9-0.5,1.5-0.6c0.2,0,0.4-0.1,0.7-0.1c0.2,0,0.5-0.1,0.7-0.1
	c0.2,0,0.2,0,0.3,0c0.2,0,0.2,0,0.3,0c0.1,0,0.1,0,0.3,0c0.3,0,0.6,0,0.8-0.1c0.1,0-0.5-0.6-0.5-0.7c-0.1-0.1-0.2-0.2-0.3-0.3
	c0-0.1-0.2-0.2-0.3-0.4C617.9,39.7,616.8,39.1,616.2,39.2z"/>
<path class="st0" d="M574.3,87c0.3-0.3,2.5,1.5,2.6,1.6l0.4,0.3c0.1,0.1,0.1,0.1,0.1,0.1c0.2,0.2,0.4,0.4,0.6,0.5
	c0.2,0.2,0.4,0.4,0.6,0.5c0.2,0.2,0.5,0.4,0.5,0.5c0.1,0.2,0.1,0.5,0,0.8c-0.3,1-1.3,2.8-2,3.3c-0.1,0.1-0.3,0.2-0.5,0.2
	c-0.6-0.1-4.4-2.6-4.6-3c-0.1-0.2-0.1-0.4,0-0.6c0-0.1,0.2-0.4,0.3-0.6c0-0.1,0.2-0.4,0.3-0.6c0,0,0.2-0.4,0.3-0.5
	c0.1-0.2,0.2-0.4,0.2-0.6c0.1-0.3,0.4-0.8,0.6-1.1c0-0.1,0.1-0.3,0.2-0.4C574,87.3,574.2,87.2,574.3,87z"/>
<path class="st0" d="M559.8,48.7c0,0,3.1-1.4,3.7-1.7l1-0.5c0.2-0.1,0.3-0.1,0.5-0.2c0.1-0.1,0.3-0.1,0.5-0.2
	c0.5-0.2,1.3-0.5,1.9-0.8l3.8-1.6c0.2-0.1,0.5-0.2,0.8-0.3c0,0,0.6-0.3,1-0.4c0.6-0.3,2-0.9,2-0.9c0.5-0.3,1.5-0.8,1.7-0.9
	c0.3-0.1,0.6-0.3,0.9-0.5l0-0.1l0.1-0.1c0.1,0,0.1-0.1,0.2-0.1c0,0,0,0,0.1-0.1c0-0.1,0.1-0.1,0.2-0.1c0.2-0.1,0.7,0.1,0.8,0.2
	c0.2,0.2,0.5,0.4,0.5,0.7c0.1,0.4-0.3,1.5-0.5,1.7c-0.2,0.5-0.5,0.8-1,1l-0.1,0c-0.2,0-0.2,0-0.2,0.1c-0.1,0-0.1,0-0.1,0.1
	c0,0,0,0-0.1,0c-0.1-0.1-0.6,0.2-0.8,0.3c-0.1,0-0.2,0.1-0.2,0.1c-0.1,0.1-0.3,0.1-0.4,0.2c0,0-0.1,0.1-0.2,0.1
	c-0.1,0-0.1,0-0.2,0.1l-0.1,0l-0.1,0l-0.2,0.1c-0.7,0.5-1.8,0.9-2.6,1.2c-0.2,0.1-0.5,0.2-0.7,0.3l-0.1,0.1l-0.2,0.1
	c-0.1,0.1-0.4,0.2-0.4,0.2c-0.5,0.2-1,0.3-1.5,0.5c-0.6,0.3-1.8,0.8-2.7,1.1l-0.1,0l-0.1,0l-0.1,0l-0.2,0.1l-0.1,0l-0.1,0l-0.2,0.1
	c-0.2,0.1-0.2,0.1-0.2,0.1l-0.1,0c-0.1,0-0.1,0-0.2,0.1c-0.2,0.1-0.4,0.2-0.7,0.3c-0.3,0.1-0.7,0.3-0.8,0.3
	c-0.8,0.4-1.6,0.9-2.5,1.2c-0.3,0.1-0.9,0.4-1.3,0.7c-0.1,0-0.2,0.1-0.2,0.1c0,0,0,0-0.2,0c-0.1,0-0.1,0-0.2,0.1
	c-0.1,0-0.2,0.1-0.3,0.2c-0.1,0-0.7,0.1-0.7,0c0-0.1-0.1-0.1-0.1-0.1c-0.1-0.2,0-0.4,0-0.7c0-0.4,0-0.4,0.1-0.6
	c0.1-0.1,0.1-0.2,0.2-0.4c0-0.2,0.1-0.4,0.2-0.6l0.1-0.1C559.7,49.2,559.8,48.8,559.8,48.7z"/>
<path class="st0" d="M547.5,34.3c0,0,0.2-0.1,0.3-0.2c0,0,0.3-0.2,0.4-0.2c0.3-0.2,0.7-0.4,0.9-0.5c0.3-0.2,1.9-0.6,2.2-0.5l0.5,0
	h0.1c0.1,0,0.1,0,0.3,0l0.2,0h0.1l0.9,0c0.1,0,0.5,0.1,0.6,0.1l0.1,0l0.1,0l0.1,0l0.1,0c0.1,0,0.4,0.1,0.6,0.1
	c0.3,0.1,0.6,0.2,0.9,0.3c0.3,0.1,0.6,0.2,0.9,0.3c0.2,0.1,0.4,0.1,0.6,0.1c0.1,0,0.3,0.1,0.5,0.1c1,0.3,3.3,1,3.6,1.4
	c0.2,0.3-0.6,2-0.8,2.4c0,0-0.3,0.3-0.4,0.4c-0.1,0.1-0.2,0.1-0.2,0.2c-0.1,0.1-0.3,0.2-0.3,0.2c-0.1,0.1-0.1,0.1-0.2,0.1
	c-0.2,0.1-0.3,0.1-0.4,0.2c-0.1,0-0.3,0.2-0.5,0.3c-0.2,0.1-0.3,0.2-0.5,0.4l-0.1,0.1l-0.1,0.1c-0.2,0.1-0.2,0.1-0.2,0.1
	c-0.1,0.1-0.1,0.1-0.2,0.1c-0.1,0.1-0.3,0.2-0.3,0.2c-0.2,0.1-0.4,0.3-0.6,0.4c-0.1,0.1-1.6,0.7-2.4,1.1c-0.4,0.2-0.9,0.4-1.3,0.7
	c-0.4,0.2-1,0.6-1.5,0.6c0,0-0.3,0-0.7-0.1c-0.2,0-0.4,0.1-0.5,0.1c-0.3,0.1-0.6,0.2-0.9,0.3c-0.3,0.1-0.8-0.3-0.9-0.5
	c-0.1-0.4,3.6-2.7,3.9-2.8c0.2-0.1,0.4-0.2,0.5-0.3c0.2-0.1,0.4-0.2,0.5-0.3c0.1,0,0.2-0.1,0.2-0.1c0.1-0.1,0.2-0.1,0.3-0.2
	c0.1-0.1,0.4-0.2,0.6-0.3c0.3-0.1,2.1-1.3,2.1-1.4c0,0-0.3-0.1-0.3-0.1c-0.2,0-0.4-0.1-0.6-0.1c-0.2,0-0.6-0.2-1-0.3
	c-0.1,0-0.3-0.1-0.4-0.1c-0.1,0-0.2-0.1-0.3-0.1c-0.1,0-0.2-0.1-0.4-0.1c-0.1,0-0.1,0-0.2,0c-0.1,0-0.4-0.1-0.4-0.1
	c0-0.1-2.2-0.2-2.4-0.2c-0.3,0-1.7,0.3-1.8,0.5c-0.1,0.1-0.3,0.2-0.5,0.3c-0.2,0.1-0.4,0.2-0.5,0.3c-0.1,0-0.5,0.4-0.8,0.7
	c-0.1,0.1-0.3,0.3-0.4,0.3c-0.2,0.1-0.3,0.2-0.5,0.4c-0.2,0.3-0.6,0.7-0.8,0.8c-0.1,0.1-0.5,0.1-0.4,0l-0.1-0.1
	c0-0.1-0.1-0.1-0.1-0.3c0-0.3,0-0.5,0.1-0.7c0,0,0.1-0.3,0.2-0.4c0-0.1,0.1-0.3,0.2-0.5c0.2-0.5,0.4-0.9,0.6-1.3
	C546.1,35.8,546.9,35,547.5,34.3z"/>
<path class="st0" d="M505.4,93L505.4,93l0.3-0.1l0.1,0l0.1,0c0.1,0,0.1,0,0.2-0.1c0.1,0,0.2,0,0.3-0.1l0.1,0l0.2,0l0.1,0
	c0,0,0.2-0.1,0.2-0.1l0.1,0l0.2-0.1c0.1,0,0.2-0.1,0.2-0.1c0.3-0.1,0.6-0.2,0.9-0.3c0.1,0,0.2-0.1,0.2-0.1c0.1,0,0.3-0.1,0.3-0.1
	l0.1,0l0.1,0l0.1,0c0,0,0.2-0.1,0.3-0.1c0.1,0,0.2-0.1,0.3-0.1c0.1,0,0.2-0.1,0.3-0.1l0.5-0.1c0.2-0.1,0.4-0.1,0.6-0.2
	c0.2-0.1,0.4-0.1,0.5-0.2c0.8-0.3,1.8-0.6,2.4-0.8c0.7-0.2,1.5-0.4,2-0.6c0.1-0.1,1.4-0.5,2.3-0.8c0.2-0.1,0.4-0.1,0.6-0.2
	c0.2-0.1,0.4-0.1,0.5-0.2c0,0,0.2-0.1,0.3-0.1l0.1,0l0.2-0.1c0.2-0.1,0.6-0.2,0.7-0.2c0.4-0.1,0.8-0.2,1.2-0.4
	c0.2-0.1,0.4-0.1,0.5-0.2c0.2-0.1,0.4-0.2,0.6-0.2c0,0,0.4-0.2,0.5-0.2c0,0,0,0,0.2-0.1c0.1,0,0.2-0.1,0.2-0.1l0.1,0l0.1,0
	c0.1,0,0.2-0.1,0.3-0.1l0.1,0l0.1,0c0.1,0,0.2-0.1,0.2-0.1c0.2-0.1,0.5,0,0.6,0.1c0.2,0.2,0.4,0.4,0.4,0.6c0.2,0.8-0.6,2.6-1.1,2.9
	c-0.2,0.1-0.4,0.2-0.7,0.2c-0.2,0-0.4,0.1-0.5,0.2c-0.4,0.1-0.8,0.3-1.2,0.5c-0.1,0-0.4,0.1-0.5,0.2c-0.2,0.1-0.5,0.2-0.7,0.3
	c-0.2,0.1-0.4,0.1-0.6,0.2c-0.3,0-0.6,0.1-0.8,0.2c-0.2,0.1-1.6,0.5-2.5,0.8c-0.1,0-0.2,0.1-0.3,0.1l-0.1,0l-0.2,0.1
	c-0.2,0.1-0.4,0.1-0.7,0.2c-0.2,0-0.5,0.1-0.5,0.1c-0.2,0.1-0.4,0.2-0.6,0.2c-1.7,0.4-3.5,1.1-5.1,1.7c-1.2,0.4-4.9,1.7-4.9,1.7
	c-0.1,0-0.3-0.1-0.3-0.2C504.3,95.8,505.2,93.3,505.4,93z"/>
<path class="st0" d="M573.4,80.3c-0.3,0.1-0.5,0.2-0.7,0.3c-0.1,0-0.6,0.2-0.8,0.3c-0.6,0.2-1.2,0.4-1.8,0.6c-0.9,0.2-2.1,0.1-3,0
	c-0.2,0-0.5,0-0.7-0.1c-0.1,0-0.3-0.1-0.4-0.1c-0.7-0.1-1.6-0.2-2.1-0.5c-0.3-0.2-0.9-0.5-1-0.6c-0.1-0.1-0.3-0.3-0.5-0.5
	c-0.1-0.1-0.1-0.1-0.2-0.2c-0.4-0.3-1.6-1.2-1.7-1.2c0,0-1.8,1.1-1.9,1.2c-0.5,0.4-1.3,0.9-2,1.2c-0.2,0.1-1.8,0.8-3,1.3
	c-0.7,0.3-2,0.8-3.2,1.1c-0.4,0.1-1,0.3-1.6,0.4c-0.1,0-0.4,0.1-0.4,0.1c-0.1,0-0.1,0-0.2,0.1c-0.1,0.1-0.1,0.1-0.2,0.1
	c-0.4,0.1-0.9,0.2-1.1,0.2l-0.1,0l-0.3,0l-0.5,0l-0.1,0c-0.1,0-0.1,0-0.2,0c-0.1,0-0.1,0-0.2,0l-0.1,0l-0.3,0c-0.2,0-0.2,0-0.3,0
	c-0.2,0-0.4,0.1-0.5,0.1c-0.4,0.1-0.7,0.1-1.1,0.1c-0.1,0-0.3,0-0.5,0c0,0-0.6,0-0.9,0c-0.2,0-0.5,0.1-0.7,0.1
	c-0.4,0.1-3.1-0.1-3.6-0.2l-0.2,0c-0.1,0-0.3,0-0.4-0.1l-0.1,0l-0.3,0c-0.2,0-0.2,0-0.4,0c-0.4-0.1-0.8-0.1-1.2-0.3
	c-0.8-0.3-1.7-0.6-2.4-1.1c-0.3-0.2-0.8-0.4-1.1-0.5c-0.4-0.2-0.8-0.4-1.1-0.7c-0.7-0.5-1.5-1.1-2-1.7c-0.1-0.2-0.3-0.3-0.4-0.5
	l-0.1-0.1c-0.1-0.1-0.1-0.1-0.1-0.1c0,0-0.1-0.1-0.1-0.1c0,0,0,0-0.1-0.1c-0.3-0.3-0.7-0.7-0.9-1c-0.1-0.1-0.2-0.3-0.2-0.3
	c-0.1-0.1-0.2-0.3-0.2-0.3c-0.1-0.1-0.2-0.3-0.2-0.4c-0.1-0.1-0.2-0.3-0.2-0.4c-0.1-0.2-0.2-0.3-0.2-0.5l-0.1-0.2
	c-0.1-0.1-0.1-0.2-0.2-0.3l0-0.1c0-0.1-0.1-0.3-0.1-0.3c-0.1-0.1-0.2-0.4-0.2-0.4c0-0.1-0.1-0.3-0.2-0.4c-0.1-0.1-0.1-0.2-0.2-0.4
	l-0.2-0.6c-0.1-0.4-0.6-1.5-0.6-1.6c-0.1-0.1-0.2,0.4-0.2,0.5c0,0.2-0.1,0.4-0.2,0.6l-0.1,0.2c0,0.1-0.1,0.3-0.1,0.3l0,0.1l0,0.1
	c0,0.1-0.1,0.2-0.1,0.3c-0.1,0.1-0.6,1.1-0.8,1.5l-0.1,0.2l-0.1,0.2c-0.1,0.1-0.1,0.3-0.2,0.4c-0.1,0.1-0.1,0.2-0.2,0.3l-0.1,0.1
	l-0.1,0.1c-0.1,0.1-0.1,0.1-0.1,0.1c-0.1,0.3-1,1.1-1.2,1.3c-1.4,0.9-2.9,1.8-4.7,2.3c-1,0.3-2,0.7-3.1,0.8c-0.3,0-0.8,0.1-0.9,0.2
	c-0.2,0.1-0.5,0.2-0.7,0.2c-0.5,0-0.8,0.1-1.1,0.2c-0.4,0.1-1,0.2-1.5,0.1l-0.3,0h-0.2c-0.3,0-0.9,0-1.3,0c-0.3,0-0.9-0.1-1-0.1
	c0,0-0.4-0.1-0.6-0.2c-0.2-0.1-0.4-0.1-0.5-0.2c-0.1-0.1-0.1-0.1-0.2-0.1c-0.1,0-0.1-0.1-0.2-0.2c-0.1,0-0.1-0.1-0.2-0.2l0-0.1
	c-0.1-0.1-0.1-0.1-0.1-0.1c-0.1-0.1-0.4-1-0.5-1.3c0-0.5,0.4-3.7,0.6-3.9c0,0,0.1-0.2,0.2-0.3c0.1-0.1,0.1-0.2,0.2-0.2
	c0.3-0.2,0.5,0.3,0.6,0.4c0.1,0.2,0.3,0.4,0.5,0.5c0.3,0.2,1,0.3,1.6,0.4c3.7,0.5,8.4-1,11.2-2c0.1-0.1,0.3-0.1,0.4-0.2l0.1-0.1
	c0,0,0.1-0.1,0.2-0.1c0.1,0,0.1,0,0.2-0.1c0.1,0,0.1,0,0.2-0.1c0.1,0,0.1,0,0.2-0.1l0.2-0.1l0.1,0c0.2-0.1,0.4-0.2,0.6-0.4
	c0.2-0.1,0.5-0.3,0.7-0.4c0.7-0.4,2-2.3,2.3-3.1c0.1-0.2,0-0.5-0.1-0.7c-0.1-0.2-0.2-0.5-0.2-0.7l0-0.1l0-0.1l0-0.1l0-0.1l0-0.1
	l0-0.1l0-0.1l0-0.1l0-0.1l0-0.1l-0.1-0.2c-0.3-0.9-0.7-2.2-0.9-2.7c-0.1-0.2-0.3-0.9-0.4-1.3l0-0.1l0-0.1l0-0.1
	c0-0.1-0.1-0.4-0.1-0.4c-0.1-0.2-0.1-0.4-0.2-0.6c-0.3-0.9-0.9-2.7-0.9-2.9c-0.1-0.6-0.1-2-0.1-3.1c0-0.5,0-1.7,0.1-1.7
	c0.1-0.2,0.5-1,0.6-1.1c0.1-0.1,0.3,0,0.4,0.1c0.1,0.1,0.4,0.7,0.4,1c0.1,0.4,0.2,0.9,0.3,1.2l0,0.1l0,0.1c0,0.1,0,0.1,0.1,0.2
	c0,0.1,0.1,0.1,0.1,0.2c0,0.2,0.1,0.3,0.1,0.4c0,0.2,0.1,0.4,0.1,0.5l0,0.1l0,0.1l0,0.1l0,0.2l0,0.1l0.1,0.2
	c0.1,0.2,0.2,0.4,0.2,0.6c0,0.1,0.1,0.2,0.1,0.2l0,0.1l0.1,0.2c0.1,0.2,0.2,0.8,0.4,1.3c0.1,0.4,0.2,0.7,0.3,1
	c0.1,0.3,0.2,0.7,0.3,1c0.2,0.8,0.6,2.3,0.7,2.5c0.1,0.4,0.2,0.8,0.4,1.2c0,0.1,0.1,0.2,0.1,0.3c0,0.1,0.1,0.2,0.1,0.3
	c0,0.1,0.1,0.2,0.1,0.3c0,0.1,0.1,0.2,0.1,0.3c0.1,0.2,0.1,0.4,0.1,0.6c0,0.3,0.1,0.5,0.2,0.7c0,0,0.1,0.2,0.1,0.3
	c0,0,0.1,0.2,0.1,0.3l0,0.1c0.1,0.1,0.1,0.1,0.1,0.1l0,0.1l0,0.1c0.2,0.7,0.6,1.5,1,2.2c0.1,0.2,0.8,0.9,1.1,1.3
	c0.1,0.1,0.4,0.5,0.5,0.7c0,0.1,0.2,0.2,0.3,0.3c0.1,0.1,0.2,0.2,0.3,0.4c0.3,0.4,1.4,1.2,2,1.7c0.7,0.5,1.6,1.2,2.3,1.6
	c0.2,0.1,0.4,0.2,0.7,0.3c0.2,0.1,0.4,0.1,0.6,0.3c0.4,0.2,0.8,0.4,1.2,0.6c1.1,0.4,2.4,0.6,3.8,0.8c1.1,0.2,2.7,0.1,3.7,0
	c1.1-0.1,2.1-0.2,3.1-0.4c0.2,0,0.4-0.1,0.6-0.1c0.3,0,1-0.1,1.1-0.1c0.2,0,0.7-0.1,0.8-0.2l0.2,0l0.1,0l0.1,0l0.2,0
	c0,0,0.2,0,0.3-0.1l0.1,0l0.1,0l0.2,0l1.2-0.3c0.9-0.2,1.7-0.5,2.5-0.8c0.9-0.4,1.8-0.7,2.6-1.1c0,0,0.3-0.1,0.5-0.2
	c0.2-0.1,0.5-0.2,0.6-0.3l0.1,0l0.1,0l0.1,0c0.1-0.1,0.4-0.2,0.4-0.2c0.1-0.1,0.5-0.3,0.5-0.4c-0.1-0.3-0.4-0.3-0.8-0.3
	c0,0-0.2-0.1-0.3-0.2c-0.1-0.1-0.2-0.1-0.3-0.2c-0.2-0.1-0.4-0.2-0.7-0.4c-0.2-0.1-0.4-0.2-0.7-0.3c-0.5-0.2-0.9-0.4-1.6-0.6
	c-0.7-0.2-2-0.4-2.7-0.3c-0.1,0-0.4,0.3-0.5,0.4c-0.1,0.1-0.4,0.3-0.5,0.4c-0.4,0.3-1,0.5-1.1-0.2c0-0.3,1.2-2.8,1.4-3.4
	c0-0.1,0.1-0.2,0.2-0.2c0.1-0.1,0.1-0.2,0.2-0.3c0.1-0.1,0.1-0.2,0.2-0.3c0,0,0.1-0.2,0.2-0.3c0.1-0.2,0.3-0.4,0.4-0.6
	c0.1-0.1,0.4-0.4,0.4-0.5c0.4-0.9,2.8-1.9,4.1-2.1c3-0.5,5.8,0,8,0.9c0.6,0.3,2.3,1.6,2.6,2.3c0,0,0.1,0.2,0.1,0.3
	c0.1,0.2,0.2,0.4,0.2,0.6c0,0.3,0,1-0.1,1.3c-0.1,0.2-0.3,0.6-0.4,0.9c-0.1,0.1-0.1,0.1-0.1,0.2c0,0-0.1,0.2-0.1,0.3l-0.2,0.4
	c-0.1,0.3-0.4,0.8-0.4,0.9c-0.1,0.3-0.3,0.6-0.5,0.9c0,0,0,0-0.1,0.1c-0.1,0.1-0.1,0.1-0.2,0.2c-0.1,0.1-0.2,0.2-0.2,0.2
	c0,0-0.1,0.1-0.1,0.1c-0.1,0-0.1,0-0.1,0.1c-0.3,0.2,0,0.3,0.2,0.4c0.1,0,0.4,0.2,0.4,0.2c0.1,0,0.3,0.1,0.4,0.2
	c1.1,0.5,2.6,0.7,4.1,0.8c2.1,0,5.8-1.3,6.6-2.4c0.1-0.1-1-2.6-1.1-2.8c0,0-0.1-0.2-0.2-0.3l0-0.1l0-0.1l-0.1-0.2
	c-0.1-0.2-0.3-0.4-0.4-0.6c0,0,0-0.1-0.1-0.2l-0.1-0.2c0-0.1,0-0.1-0.1-0.2l0-0.1l-0.2-0.2l-0.1-0.2c-0.1-0.1-0.2-0.3-0.2-0.3
	c0,0-0.5-0.6-0.6-0.6c-0.1-0.1-0.4-0.5-0.6-0.7c-0.2-0.2-0.4-0.5-0.7-0.6c-0.3-0.1-0.6-0.7-0.7-1.1c0-0.2,0.1-1,0.2-1.4
	c0-0.2,0.1-0.5,0.1-0.5c0.1-0.2,0.1-0.5,0.2-0.9c0.1-0.5,0.5-2,0.8-2.2c0.2-0.1,0.3,0,0.5,0.1c0.2,0.1,1.1,1,1.4,1.5
	c0.2,0.2,0.5,0.6,0.7,0.7c0.1,0.1,0.2,0.2,0.3,0.4c0.1,0.1,0.3,0.4,0.4,0.4c0.4,0.2,1.6,2.6,1.8,3c0.4,1.3,0.7,2.6,1,4.1
	c0.1,0.5-0.5,3.3-0.6,3.7c-0.2,0.4-0.3,0.8-0.4,1.3c-0.1,0.6-0.2,1-0.4,1.4c-0.1,0.3-0.5,0.9-0.8,1c0,0-0.3,0.3-0.4,0.3
	c0,0-0.2,0.1-0.3,0.2c-0.1,0.1-0.2,0.1-0.3,0.2c0,0,0,0-0.1,0.1l-0.1,0.1c0,0,0,0-0.1,0.1l-0.1,0.1c-0.1,0.1-0.2,0.2-0.3,0.2l-0.1,0
	l-0.1,0C573.5,80.3,573.4,80.3,573.4,80.3z"/>
<path class="st0" d="M469.9,90.2c0,0,0.5,0,0.5,0c0.2,0,0.2,0,0.3,0l0.2,0c0,0,0,0,0.2-0.1c0.4-0.1,0.7-0.2,1.1-0.4l0.1-0.1
	c0.1,0,0.1,0,0.2-0.1l0.2-0.1l0.2-0.1c0.3-0.1,0.5-0.2,0.9-0.3c1-0.3,2.7-0.8,3.1-0.9c0.5-0.2,1-0.3,1.5-0.4c0.5-0.1,1-0.3,1.5-0.4
	c0.1,0,0.1,0,0.2,0c0.1,0,0.1,0,0.5-0.1l0.1,0l0.1,0l0.1,0c0.2,0,0.3-0.1,0.5-0.1c0.2-0.1,0.5-0.1,0.7-0.2c0.2-0.1,0.5-0.1,0.7-0.3
	c0.4-0.2,1.2-0.4,1.6-0.6c0.3-0.1,1-0.3,1.4-0.5c0.2-0.1,0.3-0.1,0.5-0.2c0.1,0,0.1,0,0.2-0.1l0.1,0l0.1,0l0.2-0.1l0.1-0.1
	c0.1-0.1,0.2-0.1,0.4-0.1c0.3-0.1,0.5-0.2,0.8-0.3c0.1-0.1,0.2-0.1,0.3-0.2c0.2-0.1,0.3-0.2,0.5-0.2c0.1,0,0.3,0.1,0.5,0.3
	c0.1,0.1,0.2,0.5,0.3,0.7c0.1,0.7-0.5,2.4-0.9,2.6c-0.2,0.1-0.4,0.2-0.6,0.2c-0.3,0-0.5,0.1-0.7,0.2c-0.1,0-0.2,0.1-0.2,0.1
	c-0.1,0-0.3,0.1-0.5,0.2c-0.1,0-0.1,0-0.2,0.1c0,0-0.3,0.1-0.4,0.2c-0.5,0.2-1.1,0.5-1.5,0.6c-0.3,0.1-0.9,0.3-1.3,0.5
	c-1.6,0.7-4,1.3-6,1.8c-0.4,0.1-0.8,0.2-1.2,0.4c-0.5,0.2-0.9,0.3-1.4,0.4c-1,0.2-2,0.6-2.9,1c-0.4,0.2-2.6,1.1-2.8,0.5
	C468.8,92.8,469.5,90.6,469.9,90.2z"/>
<path class="st0" d="M450,19.7c0.2-0.3,0.9-1.1,1.4-1.7c0.1-0.1,0.2-0.3,0.4-0.4c0.1-0.1,0.4-0.4,0.4-0.4c0,0,0.3-0.2,0.5-0.3
	c0.1,0,0.1-0.1,0.2-0.1l0.1-0.1c0,0,0.1-0.1,0.1-0.1c0.3-0.4,2.5-0.7,3.2-0.7c0.9,0,2,0.3,2.8,0.5c0.8,0.2,1.6,0.4,2.1,0.6
	c0.6,0.3,1.3,0.6,1.8,0.8c0.3,0.1,0.7,0.2,0.8,0.3c0.4,0.1,0.9,0.3,1.2,0.4c0.1,0.1,0.2,0.4,0.2,0.5c-0.2,0.9-0.5,1.5-0.9,2.2
	c-0.2,0.3-0.4,0.5-0.6,0.7c-0.2,0.2-0.7,0.6-0.7,0.6c0,0-0.2,0.2-0.4,0.3c-0.2,0.1-0.3,0.2-0.4,0.3l-0.1,0.1c-0.1,0-0.2,0.1-0.4,0.3
	c0,0-0.1,0.1-0.2,0.1c-0.3,0.2-0.5,0.4-0.8,0.5l-0.2,0.1l-0.2,0.1l-0.1,0l-0.1,0l-0.1,0.1c-0.1,0-0.2,0.1-0.2,0.1
	c-0.2,0.2-2.9,1.3-3.3,1.4c-0.3,0.1-0.7,0-0.9-0.1c-0.2-0.1-0.5-0.1-0.7,0l-0.1,0c-0.1,0.1-0.1,0.1-0.1,0.1c0,0-0.2,0.1-0.3,0.1
	c-0.2,0.1-0.5,0.1-0.7,0.1c-0.4,0-0.7-0.2-1-0.3c-0.4-0.2,0.5-0.7,0.6-0.8c0.1-0.1,0.3-0.2,0.5-0.2c0.2-0.1,0.4-0.2,0.6-0.3
	c0.2-0.1,1.3-0.7,2.2-1.3l0.3-0.1l0.1,0l0.1,0l0.1,0c0.2-0.1,0.5-0.3,0.6-0.3c0.2-0.1,0.3-0.2,0.5-0.3c0.1,0,0.2-0.1,0.3-0.1
	c0.1-0.1,0.3-0.1,0.4-0.2c0.1,0,0.1-0.1,0.2-0.1c0.1,0,0.2-0.1,0.3-0.1c0.2-0.1,0.4-0.2,0.5-0.3c0,0,0.2-0.1,0.2-0.1
	c0.1,0,0.1,0,0.1-0.1l0.1-0.1c0.1-0.1,0.4-0.3,0.4-0.4c0,0-0.8-0.4-0.9-0.5c-0.3-0.2-0.7-0.3-1.1-0.5c0,0,0,0-0.3,0
	c0,0-0.2,0-0.4-0.1c-0.2,0-0.4-0.1-0.6-0.1c-0.1,0-0.2-0.1-0.4-0.1c-0.2,0-0.3,0-0.4-0.1c-0.1,0-0.3-0.1-0.3-0.1l-0.3,0
	c-0.1,0-0.2,0-0.3,0c-0.2,0-1.8,0-1.9,0.1l-0.2,0l-0.2,0c-0.2,0-0.3,0.1-0.4,0.2l-0.1,0l-0.1,0l-0.1,0c-0.1,0.1-0.3,0.1-0.4,0.2
	c-0.5,0.3-0.9,0.7-1.3,1.1c-0.4,0.4-0.7,0.7-1.1,1.1c-0.2,0.1-0.4,0.4-0.6,0.4c-0.5,0.1-0.5-0.7-0.4-1.1l0.1-0.2c0,0,0-0.1,0.1-0.2
	l0.1-0.3l0.1-0.2C449.7,20.3,449.9,19.8,450,19.7z"/>
<path class="st0" d="M439.2,91.8c0,0,0.2,0,0.3-0.1l0.1,0c0,0,0,0,0.2-0.1c0,0,0.2-0.1,0.2-0.1c0.1,0,0.2-0.1,0.3-0.1
	c0.1-0.1,0.4-0.2,0.5-0.2c0.6-0.2,1.2-0.5,1.8-0.8c0.4-0.2,1-0.4,1.6-0.6c0.6-0.2,1.2-0.4,1.8-0.7l0.2-0.1l0.1,0l0.1,0l0.4-0.2
	l0.2-0.1l0.1,0l0.1,0l0.2-0.1l0.2-0.1c0.5-0.2,1.1-0.4,1.6-0.6c0.5-0.2,1.1-0.4,1.5-0.5c0.1,0,0.4-0.2,0.4-0.2
	c0.1-0.1,0.3-0.1,0.4-0.2c0.3-0.1,0.7-0.2,0.9-0.3c0.2,0,0.5,0,0.6,0.1c0.1,0.2,0.2,0.3,0.3,0.5c0.1,0.2-0.1,0.9-0.1,1.2
	c0,0.1-0.6,0.8-1,1.3c0,0.1-0.5,0.2-0.8,0.3c-0.3,0.1-0.7,0.3-1,0.4c-0.2,0.1-0.6,0.2-0.9,0.3l-0.2,0l-0.1,0l-0.2,0
	c-0.2,0-0.4,0.1-0.5,0.2c-0.3,0.1-0.7,0.3-1,0.4c-0.2,0.1-0.7,0.3-1,0.4c0,0-0.4,0.2-0.6,0.3l-0.1,0l-0.1,0l-0.1,0l-0.1,0
	c-0.3,0.1-0.6,0.2-0.8,0.3c-0.2,0-0.3,0.1-0.4,0.2c-0.1,0.1-0.3,0.1-0.5,0.2c-0.2,0.1-0.4,0.1-0.5,0.2c-0.2,0.1-0.4,0.2-0.5,0.3
	c-0.6,0.2-1.3,0.4-1.8,0.7c-0.2,0.1-0.3,0.1-0.4,0.2c-0.1,0.1-0.3,0.2-0.4,0.2c-0.1,0-0.3,0.1-0.4,0.2c-0.2,0.1-0.4,0.2-0.6,0.2
	c-0.2,0-0.4,0-0.5-0.1c-0.1-0.1-0.1-0.4-0.1-0.6c0-0.2,0.1-0.5,0.1-0.7c0,0,0.1-0.2,0.1-0.3c0,0,0.1-0.1,0.1-0.2v-0.2l0-0.1
	C438.7,92.6,438.9,92.1,439.2,91.8z"/>
<path class="st0" d="M429.5,101.5c0.4-0.3,1-0.5,1.6-0.7l0.1,0l0.1,0l0.1,0l0.1,0c0.2,0,0.2,0,0.2,0c0.1,0,0.2,0,0.3-0.1
	c0.2-0.1,0.6-0.2,0.9-0.3c0.3-0.1,1.2-0.5,1.9-0.7c0.1,0,0.2-0.1,0.3-0.1c0.2,0,0.3-0.1,0.4-0.2c0.3-0.1,0.6-0.2,0.9-0.3
	c1.1-0.4,3.2-1.2,3.4-1.2c0.6-0.2,1.2-0.4,1.8-0.6c0.6-0.3,1.3-0.7,1.8-0.8c0.3-0.1,0.5,0.1,0.6,0.2c0.6,0.4-0.4,2.8-0.8,3
	c-0.4,0.3-1,0.5-1.5,0.7c-0.3,0.1-0.6,0.2-0.8,0.4c-0.1,0-0.6,0.2-0.9,0.3c-1.2,0.4-2.3,0.8-3.4,1.2c-0.1,0-0.1,0-0.2,0.1l-0.1,0
	c-0.1,0-0.4,0.1-0.5,0.2c-0.2,0.2-0.5,0.3-0.7,0.4c-0.7,0.1-1.5,0.3-2.1,0.6c-0.6,0.3-1.1,0.5-1.9,0.6c-0.2,0-0.3,0.1-0.5,0.1
	l-0.1,0.1c-0.1,0-0.2,0.1-0.3,0.1c-0.4,0.1-0.9,0.2-1,0.2c-0.1,0-0.2-0.1-0.3-0.2C428.4,104.1,429.3,101.8,429.5,101.5z"/>
<path class="st1" d="M429.8,74.3c0.1,0,1.2,0.4,1.4,0.5c0.4,0.2,0.8,0.3,1.3,0.5c0.3,0.1,0.9,0.3,1.3,0.5c0.2,0.1,0.4,0.1,0.6,0.2
	c0.2,0,0.5,0.1,0.6,0.2c0.4,0.1,2.4,0.7,2.7,0.6c0,0-0.2-0.3-0.2-0.4c-0.1-0.1-0.2-0.2-0.2-0.3c-0.2-0.3-0.4-0.7-0.6-0.8
	c-0.2-0.2-0.3-0.5-0.5-0.8c-0.2-0.4-0.3-0.7-0.6-1c-0.4-0.4-0.8-0.9-1.1-1.3c-0.2-0.3-0.9-1.4-1.2-1.5c-0.8-0.3-3.1,1.2-3.4,1.4
	c-0.2,0.2-0.3,0.3-0.5,0.4c-0.2,0.2-0.4,0.3-0.5,0.6c-0.1,0.2,0.1,0.4,0.3,0.7c0.1,0.1,0.2,0.2,0.3,0.3l0.1,0.1
	C429.7,74.2,429.8,74.3,429.8,74.3z"/>
<path class="st0" d="M394.3,49.1c0.3,0,3.2,2.1,3.5,2.3c0.3,0.3,0.7,0.6,0.8,1c0.1,0.3-0.4,1.1-0.6,1.4c-0.1,0.2-0.3,0.4-0.4,0.5
	c-0.2,0.1-0.3,0.3-0.4,0.4c-0.6,0.7-1.2,1.5-1.8,1.7c-0.6,0.2-4-2.4-4.2-2.6c0-0.1-0.2-0.5,0-0.6l0.7-1.1c0.1-0.2,0.2-0.5,0.3-0.6
	c0.2-0.2,0.3-0.3,0.4-0.5C393.1,50.5,393.9,49.4,394.3,49.1z"/>
<path class="st0" d="M387.8,42.7c0.3-0.1,0.9,0.3,0.9,0.4c0,0.1-0.1,0.3-0.1,0.3c-0.1,0.1-0.1,0.1,0,0.3l0.1-0.1l0-0.1
	c0-0.1,0-0.2,0.1-0.2c0,0.1,0,0.1,0.1,0c0.1,0,0.1-0.1,0.1,0c0.1,0,0.1,0,0.1,0c0.1,0,0.1,0,0.2,0.2l0.2,0.1l0.1,0
	c0.1,0,0.2,0.1,0.3,0.2c0.1,0.1,0.3,0.3,0.5,0.4c0.1,0.1,0.3,0.2,0.3,0.2c0.1,0.1,0.2,0.2,0.3,0.2c0.7,0.6,1.2,1.6,0.3,3
	c-0.1,0.1-0.1,0.1-0.2,0.2c-0.1,0.1-0.2,0.2-0.3,0.3c-0.1,0.1-0.3,0.3-0.3,0.4c-0.3,0.5-0.8,1.1-1.1,1.3c-0.2,0.1-0.2,0.1-0.5,0.1
	c0,0-0.2-0.1-0.2-0.2c-0.1-0.1-0.1-0.2-0.2-0.2l-0.1,0l-0.1,0l-0.1,0c-0.1,0-0.2-0.1-0.3-0.2c-0.1,0-0.1-0.1-0.2-0.2
	c-0.1,0-0.2-0.1-0.3-0.2c-0.1,0-0.2-0.1-0.2-0.2c-0.1-0.1-0.2-0.2-0.5-0.4l-0.1-0.1c-0.1-0.1-0.1-0.1-0.1-0.1
	c-0.2-0.1-0.3-0.2-0.5-0.4c-0.2-0.2-0.8-0.7-0.9-0.7c-0.1-0.1-0.1-0.4-0.1-0.6C385,46.4,387.6,42.8,387.8,42.7z"/>
<path class="st0" d="M386.3,51.3c0.2-0.1,2.1,1,2.4,1.1c0,0,0.5,0.2,0.7,0.3c0.2,0.1,0.4,0.2,0.6,0.3c0,0,0.4,0.3,0.5,0.4
	c0.1,0.1,0.1,0.1,0.2,0.1c0.2,0.1,0.3,0.1,0.4,0.2c0.2,0.3-0.3,1.1-0.4,1.3c-0.1,0.1-0.1,0.2-0.2,0.2l-0.1,0.1
	c-0.1,0.1-0.1,0.1-0.3,0.3c-0.1,0.1-0.1,0.1-0.1,0.1c0,0-0.1,0.1-0.1,0.1c-0.1,0.2-0.2,0.3-0.4,0.5c-0.1,0.2-0.2,0.3-0.3,0.5
	c-0.1,0.2-0.2,0.3-0.4,0.5c0,0.1-0.1,0.1-0.1,0.2c-0.1,0.1-0.2,0.2-0.2,0.3c-0.4,0.4-0.8,0.5-1.3,0.2c-0.4-0.3-0.7-0.5-1.1-0.7
	c-0.3-0.1-2.4-1.3-2.5-1.4c0-0.1-0.2-0.5-0.1-0.6l1.4-2.1c0.1-0.3,0.5-0.7,0.7-1.1c0,0,0.1-0.2,0.1-0.2c0,0,0.1-0.1,0.2-0.3
	C386,51.6,386.1,51.4,386.3,51.3z"/>
<path class="st0" d="M397.6,28.9c0.2,0,0.4,0,0.5,0.1c0.2,0.2,0.4,0.4,0.4,0.7c0.1,0.4-0.1,0.9-0.2,1.4c-0.1,0.2-0.1,0.4-0.2,0.6
	c0,0.1-0.1,0.2-0.1,0.3l-0.1,0.1c-0.1,0.1-0.1,0.1-0.1,0.1c-0.1,0.2-0.5,0.3-0.8,0.3c-0.2,0-0.6,0.2-0.9,0.3
	c-0.6,0.2-0.9,0.4-1.4,0.6c-0.5,0.2-1,0.4-1.5,0.6c-0.5,0.2-1.2,0.4-1.5,0.6c-0.1,0-0.3,0.1-0.4,0.1c-0.1,0-0.3,0.1-0.4,0.1
	c-0.3,0.1-0.6,0.2-0.8,0.4c-0.4,0.2-1.1,0.6-1.5,0.7c-0.6,0.1-1.1,0.3-1.7,0.5c-0.2,0.1-0.5,0.2-0.7,0.3c-0.2,0.1-0.8,0.4-0.8,0.4
	c-0.5,0.2-1.1,0.4-1.6,0.7c-0.4,0.2-1.1,0.4-1.6,0.6c-0.3,0.1-0.6,0.2-0.9,0.4c-0.3,0.2-0.5,0.3-0.8,0.4c-0.2,0.1-0.5,0.2-0.8,0.4
	c-0.2,0.1-0.5,0.3-0.8,0.4c-0.1,0.1-0.2,0.1-0.4,0.2c-0.1,0.1-0.3,0.1-0.4,0.2c-0.2,0.1-0.5,0.2-0.8,0.3c-0.2,0.1-0.5,0.2-0.7,0.3
	c-0.2,0.1-1,0.3-1,0.3c-0.1,0.1-0.2,0.1-0.3,0.2c-0.1,0.1-0.2,0.1-0.3,0.2c-0.2,0.1-0.6,0.2-0.9,0.3c-0.3,0.1-0.5,0.2-0.8,0.4
	c-0.2,0.1-0.7,0.3-0.9,0c-0.2-0.5,0.3-2.9,0.6-3.2c0.1-0.1,2.5-1.1,3-1.3c1.1-0.3,2.2-0.8,3.2-1.2l1.4-0.7c0.1,0,0.1,0,0.2-0.1
	l0.2-0.1l0.1-0.1c0.1-0.1,0.1-0.1,0.1-0.1c0.1-0.1,0.2-0.1,0.4-0.2l0.2-0.1l0.1,0c0.1,0,0.2-0.1,0.2-0.1c0.2-0.1,0.4-0.2,0.6-0.3
	c0.1,0,0.2-0.1,0.3-0.1c0.2,0,0.3-0.1,0.5-0.2c0.1,0,0.3-0.1,0.3-0.1c0.1,0,0.3-0.1,0.5-0.2c0.1-0.1,0.3-0.1,0.4-0.2
	c0.1-0.1,0.2-0.1,0.4-0.2c0.5-0.2,1.1-0.4,1.6-0.7c0.3-0.2,0.9-0.4,1.4-0.5c0.4-0.1,1-0.4,1.6-0.6c0.5-0.2,1.4-0.6,1.7-0.7
	c1-0.4,2-0.8,2.9-1.1C395.4,29.8,397.6,28.9,397.6,28.9z"/>
<path class="st0" d="M350.3,90.4c0,0.3-0.1,0.7-0.2,1.1c-0.1,0.2-0.3,0.8-0.3,0.8l-0.1,0l-0.1,0.1l0,0.1l-0.1,0.1
	c-0.1,0.1-0.1,0.1-0.1,0.2c0,0.1-0.1,0.1-0.2,0.2c-0.1,0.1-0.2,0.2-0.4,0.4l-0.1,0.1c-0.1,0.1-0.1,0.1-0.1,0.1
	c-0.3,0.4-0.8,1-1.3,1.1c-0.5,0.1-4.9-3-4.9-3c-0.1-0.2-0.1-0.5,0-0.7c0.2-0.4,0.5-0.9,0.7-1.2c0.2-0.4,0.5-0.8,0.7-1.1
	c0-0.1,0.1-0.2,0.2-0.2c0.1-0.1,0.1-0.2,0.2-0.3c0,0,0.1-0.1,0.1-0.1c0,0,0,0,0.1-0.1l0.1-0.1l0.1-0.1c0.2-0.4,0.5-0.6,0.8-0.9
	c0.2-0.1,1.4,0.6,1.5,0.7c0.4,0.3,1,0.7,1.3,0.8C348.8,88.5,350.4,89.6,350.3,90.4z"/>
<path class="st0" d="M345,43.3c1.4-0.1,4.6,0.8,6.8,1.4c1,0.3,2,0.5,3,0.7c1.4,0.3,0.3,2.4-0.1,3c-0.1,0.1-0.3,0.3-0.4,0.3
	c-0.1,0-0.2,0.1-0.3,0.1c-0.1,0-0.2,0.1-0.2,0.1c-0.3,0.2-0.7,0.4-0.9,0.6c-0.5,0.5-1.1,0.8-1.8,1.1c-1.3,0.6-4.2,2-4.8,2.1
	c-0.1,0-1,0-1.1-0.1H345c0,0-0.1,0-0.2,0.1c-0.1,0-0.2,0.1-0.2,0.1c-0.2,0.1-0.5,0.2-0.8,0.3c-0.2,0-0.4-0.1-0.5-0.2
	c-0.2-0.4-0.1-0.8,0.2-1c0.3-0.2,0.6-0.4,0.8-0.6c0.5-0.5,1.1-0.9,1.8-1.2c0.7-0.2,4.2-2.2,4.2-2.4l-0.1,0l-0.2-0.1l-0.1,0l-0.1-0.1
	c-0.2-0.1-0.5-0.1-0.7-0.2c-0.5-0.1-0.9-0.3-1.4-0.3c-1.5-0.3-3.4-0.7-4.7-0.3c-0.8,0.2-1.5,0.7-2,1.2c-0.3,0.3-1.8,1.4-2.1,0.9
	c-0.2-0.4,0-1,0.1-1.4c0-0.1,0.1-0.2,0.1-0.2l-0.1-0.2l0.1,0c0.1,0,0.1,0,0.2-0.2l0-0.1c0.3-0.6,1-1.2,1.6-1.7c0,0,0.1-0.1,0.2-0.2
	c0,0,0.2-0.1,0.2-0.1c0.1,0,0.1-0.1,0.2-0.2c0.2-0.2,0.7-0.6,0.8-0.6C343.1,43.7,343.8,43.4,345,43.3z"/>
<path class="st0" d="M337.5,88.3L337.5,88.3l0.1,0.1l0,0.1c0.1,0.1,0.2,0.1,0.3,0.2c0.2,0.1,0.5,0.2,0.7,0.3
	c0.4,0.2,1.2,0.6,1.2,0.6c0.3,0.2,0.7,0.5,1.1,0.7c0.2,0.1,1,0.5,1.1,0.7c0.1,0.1,0.1,0.2,0.1,0.4l0,0.1v0.4c0,0-0.1,0.2-0.1,0.2
	c0,0.1,0,0.1-0.1,0.2c0,0-0.1,0.2-0.1,0.3c0,0.1-0.1,0.2-0.1,0.3c-0.1,0.2-0.4,0.7-0.6,1c-0.4,0.6-0.8,1.3-1.3,1.9
	c-0.1,0.1-0.4,0.2-0.6,0.3c-0.5,0.1-4.6-2.5-4.6-2.5c-0.5-0.9,0.2-2.4,0.9-2.9c0.1-0.1,0.2-0.2,0.2-0.4c0-0.2,0.1-0.4,0.2-0.5
	c0,0,0,0,0.1-0.3c0-0.1,0-0.1,0.1-0.2c0,0,0,0,0.1-0.1l0.1-0.1c0,0,0.1-0.1,0.1-0.2l0-0.1l0-0.1c0,0,0.2-0.2,0.2-0.2
	C336.9,88.5,337.2,88.2,337.5,88.3z"/>
<path class="st0" d="M318.9,36.1c0,0,0.1,0,0.2-0.1c0.1,0,0.2-0.1,0.3-0.1c0.2-0.1,0.4-0.2,0.5-0.3c0.1,0,0.6-0.3,0.9-0.5
	c0.3-0.2,0.6-0.4,0.8-0.5c0.3-0.2,0.6-0.3,0.8-0.5c0.2-0.2,1.2-0.7,1.9-1.1c0.6-0.3,1.7-0.9,2-1.1c0.5-0.4,1.2-0.8,1.8-1
	c0.7-0.3,1.4-0.6,2-1c0,0,0.3-0.1,0.5-0.2c0,0,0.3-0.2,0.5-0.3c0.1,0,0.5-0.3,0.8-0.5c0.4-0.3,1.8-1.1,2.3-0.8
	c1.1,0.6-0.1,3-0.8,3.5c-0.1,0.1-0.3,0.1-0.4,0.2c-0.2,0-0.3,0.1-0.4,0.2c-0.3,0.2-0.7,0.4-1,0.5c-0.1,0.1-0.6,0.3-0.8,0.5
	c-0.3,0.2-0.6,0.4-1,0.5c-1.3,0.6-2.7,1.3-3.8,2.1c-0.3,0.2-0.6,0.3-0.9,0.5c-0.3,0.1-0.6,0.3-0.9,0.5l-1.9,1.1
	c-0.5,0.3-1.7,1-1.8,1.1c-0.3,0.1-0.6,0.3-0.9,0.5c-0.3,0.2-0.7,0.4-0.9,0.5c-0.8,0.2-0.6-1.2-0.4-1.6c0,0,0.1-0.1,0.1-0.2l0-0.5
	l0-0.1c0-0.1,0.1-0.3,0.1-0.4C318.7,36.7,318.9,36.2,318.9,36.1z"/>
<path class="st0" d="M318.3,65c0.2-0.5,1.3-1.8,2.1-2.7c0.4-0.4,2.5-2.5,3-2.7c0.8-0.4,2-0.6,2.7,0.1c0.2,0.2,0.4,0.5,0.6,0.7
	c0.1,0.1,0.3,0.3,0.3,0.4c0.1,0.1,0.1,0.1,0.3,0.1c0,0,0.1,0.1,0.2,0.2c0,0,0.3,0.8,0.3,0.9c-0.1,0.6-0.4,1.5-0.7,2
	c-0.1,0.2-0.9,0.9-1.1,0.5c-0.4-0.6-1-1.4-1.5-1.9c-0.2-0.1-0.4-0.2-0.6-0.3c-0.2,0-1,0.1-1,0.2l-0.1,0l-0.1,0.1l-0.1,0l-0.1,0.1
	c-0.1,0.1-0.3,0.2-0.4,0.3c-0.2,0.2-0.5,0.5-0.7,0.7c-0.3,0.3-1.3,1.1-1.4,1.5c-0.1,0.1,0.3,0.5,0.5,0.7c0.1,0.1,0.2,0.1,0.2,0.2
	c0.1,0.1,0.2,0.2,0.3,0.3c0,0,0,0,0.3,0.2c0,0,0,0,0.1,0.1c0,0,0.2,0.1,0.2,0.2c0.1,0,0.3,0.2,0.3,0.2l0.1,0.1l0.1,0
	c0.1,0,0.1,0.1,0.2,0.1c0.2,0.2,1.9,0.9,2.3,1c0.6,0.2,1.4,0.3,2.1,0.4c0.8,0.1,2.6-0.2,3.7-0.4c0.7-0.1,2.4-0.4,2.5-0.4
	c0.2,0,0.3,0.2,0.4,0.3c0.1,0.2,0,0.6,0,0.8c0,0.1-0.1,0.3-0.2,0.4c0,0-0.2,0.3-0.2,0.4l-0.1,0.2c0,0.1-0.1,0.2-0.1,0.2
	c-0.1,0.1-0.2,0.4-0.3,0.4l-0.1,0.1c0,0,0,0-0.1,0.1c-0.1,0.1-0.2,0.1-0.3,0.2h-0.2l-0.3,0c-0.1,0-0.3,0-0.4,0.1l-0.1,0
	c-0.1,0-0.1,0-0.2,0l-0.1,0c-0.1,0-0.1,0-0.2,0c-0.2,0-0.6,0.1-0.6,0.1c-0.1,0-0.2,0-0.4,0l-0.1,0c0,0,0,0-0.2,0l-0.1,0
	c-0.2,0-0.2,0-0.3,0.1l-0.3,0l-0.3,0l-0.1,0l-0.2,0l-0.1,0c-0.1,0-0.3,0-0.4,0.1c-0.1,0-0.2,0.1-0.4,0.1c-0.1,0-0.2,0.1-0.2,0.1
	c-0.2,0-0.4,0.1-0.6,0.1c-0.4,0.1-0.8,0.2-1.2,0.3c-0.3,0.1-0.7,0.3-1.1,0.3c-0.7,0.2-1.7,0.4-2.1,0.7l-0.1,0l-0.1,0
	c-0.1,0-0.1,0.1-0.2,0.1l-0.1,0.1l-0.2,0.1c-0.2,0.2-0.5,0.3-0.7,0.4c-0.1,0-0.4,0-0.5-0.1c-0.2-0.3,0-0.8,0.1-1.1
	c0,0,0.1-0.5,0.1-0.8c0-0.2,0.1-0.4,0.2-0.5c0.2-0.3,0.4-0.5,0.7-0.6c0.2-0.1,0.4-0.1,0.6-0.2c0.1,0,0.5-0.3,0.5-0.3
	c0,0-0.3-0.1-0.4-0.2l-0.2-0.1c-0.1,0-0.2-0.1-0.3-0.1c-0.2-0.1-0.5-0.3-0.7-0.4c-0.6-0.5-2-1.7-2.1-1.8c-0.2-0.3-0.4-0.6-0.5-0.8
	C317.5,67,318.1,65.2,318.3,65z"/>
<path class="st0" d="M308.2,47.8c0.4-0.1,1.5-0.7,2.1-1c0.1-0.1,0.3-0.2,0.4-0.2c0.2,0,0.4-0.1,0.5-0.2c0.3-0.2,0.7-0.4,1-0.6
	c0.1-0.1,0.3-0.2,0.4-0.2c0.1,0,0.2-0.1,0.3-0.1c0.1,0,0.3-0.1,0.4-0.1c0.3-0.1,0.6-0.3,0.9-0.5c0.7-0.4,1.3-0.7,2.1-1
	c0.4-0.2,0.7-0.3,1-0.5c0.3-0.2,0.7-0.4,1-0.5c0.7-0.4,1.7-0.8,2.1-1.1c0.1-0.1,0.3-0.2,0.4-0.2c0.1,0,0.3-0.2,0.5-0.3
	c0.3-0.2,0.7-0.4,1-0.5c0.3-0.1,0.9-0.3,1-0.4c0.3-0.3,0.8,0.2,0.9,0.5c0.2,0.6-0.8,2.5-1.1,2.9c-0.1,0.2-0.5,0.3-0.8,0.4
	c-0.4,0.2-0.7,0.3-1,0.5l-1.8,1c-0.1,0.1-0.3,0.2-0.4,0.3c-0.1,0.1-0.2,0.2-0.3,0.2c-0.2,0.1-0.7,0.3-1,0.5c-0.1,0-0.3,0.1-0.4,0.2
	c-0.1,0.1-0.2,0.1-0.3,0.1c-0.1,0-0.2,0.1-0.3,0.1c-0.3,0.2-0.7,0.4-1,0.5c-1.3,0.6-2.5,1.3-3.8,1.9c-0.6,0.3-1.2,0.6-1.9,0.8
	c-0.4,0.1-0.7,0.3-1.1,0.5c-0.3,0.2-0.7,0.4-1,0.5c-0.2,0.1-0.3,0-0.4-0.1C307.3,50.7,307.9,47.9,308.2,47.8z"/>
<path class="st0" d="M330.3,79.2c1-0.1,3.3-0.5,4.8-0.8c1.2-0.2,2.7-0.6,3.5-0.9c0.9-0.4,2.4-1.1,2.6-1.2c0.1,0,0.2-0.1,0.2-0.1
	l0.2-0.1c0.2-0.1,0.2-0.1,0.2-0.1c0.2-0.1,0.2-0.1,0.2-0.1c0.1,0,0.1,0,0.1-0.1c0,0,0.1-0.1,0.1-0.1c0.2-0.2,0.8-0.7,0.9-0.8
	c0,0,0.7-0.7,0.8-0.8c0.2-0.3,0.7-0.8,0.7-0.9c0.5-0.5,1.4-1.3,1.7-1.4c0.3-0.1,0.6-0.1,0.8,0c0.5,0.2,0.8,0.4,1.1,0.7
	c0.3,0.3,0.6,0.6,0.9,0.8c0.3,0.2,0.6,0.6,0.8,0.9c0.1,0.2,0.2,0.3,0.4,0.5c0.1,0,0.1,0.1,0.2,0.1c0.1,0.1,0.2,0.1,0.3,0.2
	c0.3,0.3,2.9,1.4,4,1.8c0.3,0.1,1.2,0.3,1.8,0.5c0.7,0.2,1.6,0.4,2.2,0.5c0.5,0.1,1,0.1,1.4,0.2c0.3,0,1.2,0.1,1.8,0.2
	c0.8,0.1,2.8,0,4,0c1.3,0,2.9-0.1,3.9-0.2c0.1,0,0.1,0,0.4,0c0.1,0,0.3,0,0.5-0.1c0.2,0,0.4-0.1,0.6-0.1l0.1,0l0.2-0.1l0.1,0l0.1,0
	l0.1,0c0.1,0,0.2,0,0.2,0l0.2,0l0.1,0c1.4-0.3,2.7-0.6,3.9-1.1c1-0.3,2.4-0.8,3.2-1.4c0,0,0.1-0.1,0.2-0.1l0.1,0l0.1,0
	c0.1,0,0.2-0.2,0.4-0.2c0.1-0.1,0.2-0.2,0.3-0.3l0.2-0.1c0.1,0,0.1,0,0.2-0.1c0.1-0.1,0.2-0.1,0.3-0.2c0.1-0.1,0.3-0.2,0.4-0.3
	l0.1-0.1l0.1-0.1c0.1-0.1,0.3-0.3,0.3-0.3c0,0,0,0,0.1-0.1l0.1-0.1c0,0,0.2-0.2,0.2-0.3c0,0,0.3-0.3,0.4-0.5
	c0.1-0.2,0.3-0.3,0.4-0.5c0.1-0.1,0.2-0.2,0.2-0.3l0.1-0.2c0.4-0.5,0.6-1.3,0.9-2c0.1-0.3,0.3-0.8,0.5-0.9c0.6-0.3,0.7,0.5,0.7,0.9
	c0,0.6-1.1,3.9-1.3,4.3c-0.1,0.1-0.1,0.3-0.2,0.4c-0.1,0.2-0.2,0.5-0.3,0.6l0,0.1l-0.1,0.1c-0.1,0.2-0.1,0.2-0.1,0.2
	c-0.1,0.2-0.2,0.4-0.3,0.5l-0.1,0.1c-0.1,0.1-0.1,0.1-0.2,0.2c0,0-0.1,0.1-0.1,0.2c0,0-0.1,0.1-0.2,0.2c-0.2,0.2-0.5,0.7-0.5,0.9
	c0,0,0.4,0,0.4,0l0.4,0l0.2,0c0.2,0,1.1,0,1.3,0l0.2,0l0.7,0c0.7,0,1.8-0.1,2.1-0.2c0.4-0.1,0.7-0.2,1.1-0.2c0.4,0,0.9-0.1,1.3-0.2
	c1.3-0.4,2.7-0.8,3.6-1.1c0.3-0.1,0.7-0.4,1-0.6c0.3-0.2,0.8-0.6,1-0.7c0.3-0.2,0.9-1.3,1.1-1.6c0.1-0.1,0.6-1.3,1-2.2
	c0.5-1,1.9-3.8,2.1-3.9c0.1-0.1,0.3,0,0.4,0.1c0.2,0.2,0.3,0.3,0.3,0.7c0.1,0.6-0.4,1.6-0.7,2.1c-0.1,0.3-0.5,1.3-0.7,1.9
	c-0.1,0.3-0.3,0.7,0,0.9c0.3,0.2,0.5,0.4,0.8,0.5c0.5,0.3,1.2,0.5,1.8,0.8c1.1,0.4,2.2,0.8,3.4,1.1l0.4,0.1c0.1,0,0.1,0,0.2,0
	c0.1,0,0.3,0.1,0.4,0.1c1.2,0,1.2,0,1.1-2.1c-0.1-0.9-0.1-2-0.2-2.8c0-0.3,0-0.4-0.2-0.5c-0.1-0.1-0.2-0.3-0.2-0.5
	c-0.1-0.6,0.1-1.3,0.3-1.8c0-0.1,0.1-0.2,0.1-0.3c0-0.1,0.1-0.2,0.1-0.4c0-0.1,0.1-0.2,0.2-0.3c0.1-0.1,0.1-0.2,0.2-0.3
	c0.2-0.6,0.7-2.4,1.1-2.5c0.2-0.1,0.3,0,0.4,0.1c0.2,0.2,0.4,0.6,0.5,1c0.2,0.7,0.3,1.7,0.3,2.5c0.1,1.8,0.2,3.6-0.1,5.1
	c-0.2,1.2-0.5,2.3-0.8,3.3c-0.3,0.9-0.9,2.4-1,2.7c-0.4,0.7-0.8,1.2-1.3,1.7c-0.8,0.7-1.8,0.5-3,0.3c0,0-0.4-0.1-0.6-0.2
	c-0.2-0.1-0.4-0.1-0.6-0.2c0,0-0.2-0.1-0.3-0.1l-0.1,0c-0.1,0-0.3-0.1-0.3-0.1l-0.1,0l-0.1,0l-0.1,0c-0.1,0-0.2-0.1-0.3-0.1
	c-0.8-0.2-1.7-0.5-2.2-0.8c-0.2-0.1-0.4-0.3-0.6-0.4c0,0-0.2-0.2-0.3-0.2c-0.1-0.1-0.1-0.1-0.1-0.1c0,0-0.1-0.1-0.1-0.1
	c-0.4-0.3-0.8-0.6-1.1-0.8c-0.2-0.1-0.8,0.9-1,1.1c0,0.1,0,0.1-0.1,0.2l-0.1,0.2c-0.1,0.1-0.1,0.2-0.2,0.3c0,0.1,0,0.1-0.1,0.1
	c0,0,0,0-0.1,0.1c0,0,0,0-0.1,0.1c0,0-0.1,0.1-0.1,0.1c-0.1,0.2-1.8,1.4-2.1,1.5c-0.9,0.4-2.5,1.1-3,1.2l-0.3,0l-0.1,0l-0.1,0
	c-0.2,0-0.5,0.1-0.6,0.1c-0.2,0.1-0.4,0.1-0.7,0.1c-0.2,0-0.4,0.1-0.6,0.1c-0.1,0-0.1,0-0.5,0c-0.2,0-0.2,0-0.3,0
	c-0.2,0-0.4,0.1-0.6,0.1c-0.2,0-0.3,0.1-0.5,0.2c-0.2,0.1-0.5,0.1-0.8,0.1c0,0-0.3-0.1-0.5-0.2c0,0-0.6-0.1-0.8-0.1
	c-0.3,0-1-0.1-1-0.1c-0.2,0-0.6-0.1-0.7-0.1c-0.2-0.1-0.4-0.1-0.7-0.1c-0.2,0-0.8-0.1-1.2-0.1c-0.2,0-0.4,0-0.5,0
	c-0.3,0-0.5,0-0.7,0c-0.2,0-0.5-0.1-0.6-0.1c-0.1,0-0.2-0.1-0.3-0.1c-0.1-0.1-0.2-0.1-0.4-0.1c-0.1,0-1.7,0.5-2,0.7
	c0,0-0.8,0.2-1.1,0.3c-0.2,0-0.5,0.2-0.6,0.2c-0.2,0-0.3,0.1-0.5,0.1c-0.4,0.2-1.6,0.4-2.4,0.5c-0.2,0-0.5,0.1-0.5,0.1
	c-0.1,0.1-0.4,0.1-0.6,0.2c-0.3,0.1-0.6,0.1-1,0.1c-0.3,0-0.7,0.1-0.9,0.1c-0.2,0.1-0.4,0.1-0.7,0c0,0-0.9,0-1.2,0.1
	c-0.7,0-1.6,0-2.3,0c-1,0-2.2-0.1-3,0c-0.3,0-0.6,0.1-0.8,0c-0.3-0.1-0.8-0.1-1-0.1c-0.4,0-1.2-0.1-1.7-0.2l-0.2,0l-0.2,0
	c-0.1,0-0.1,0-0.2,0l-0.1,0l-0.1,0l-0.1,0l-0.3,0l-0.1,0l-0.1,0c-1-0.1-2.3-0.3-2.9-0.6c-0.3-0.1-0.6-0.2-0.9-0.4l-0.1,0l-0.2-0.1
	l-0.2-0.1l-0.2-0.1c0,0,0,0-0.2-0.1c0,0-0.2-0.1-0.3-0.1c-0.1,0-0.1,0-0.2-0.1c-0.1-0.1-0.2-0.1-0.4-0.2c-0.1-0.1-0.3-0.2-0.3-0.2
	c-0.1,0-0.5-0.3-0.7-0.5c-0.1,0-0.1,0-0.1-0.1c-0.1-0.1-0.3-0.3-0.3-0.3c-0.2-0.2-0.3-0.3-0.5-0.5c-0.1-0.2-0.3-0.4-0.5-0.6
	c-0.6-0.7-1.6-1.6-2.2-2c-0.2-0.1-0.5,0-0.7,0c-0.1,0-0.2,0.2-0.4,0.3c0,0-0.3,0.2-0.4,0.3c-0.1,0.1-0.3,0.2-0.4,0.3l-0.1,0.1
	c0,0-0.1,0.1-0.2,0.2l-0.2,0.2c-0.1,0.1-0.3,0.3-0.3,0.3c0,0-0.1,0.2-0.2,0.3c-0.1,0.1-0.1,0.2-0.2,0.3c-0.1,0.1-0.3,0.3-0.3,0.4
	c-0.1,0.1-0.3,0.4-0.4,0.4c-0.2,0.1-0.4,0.3-0.6,0.4c-0.2,0.2-0.4,0.3-0.6,0.5c-0.4,0.2-1.2,0.8-1.3,0.8c0,0,0,0-0.2,0.1l-0.1,0
	l-0.2,0.1c-0.1,0-0.2,0.1-0.3,0.1l-0.1,0l-0.1,0c-0.4,0.2-0.9,0.4-1.1,0.4c-0.4,0.1-0.8,0.2-1.1,0.4c-0.2,0.1-1,0.2-1.7,0.3
	c-0.2,0-0.4,0.1-0.5,0.1c-0.1,0-0.2,0.1-0.3,0.1c-0.1,0-0.3,0-0.4,0.1l-0.2,0l-0.1,0l-0.1,0c-0.2,0-0.2,0-0.2,0
	c-0.2,0.1-0.4,0.1-0.7,0.1c-1,0.2-2.6,0.4-3.4,0.5c-0.2,0-0.4,0.1-0.6,0.1c-0.2,0.1-1.1,0.1-1.7,0.1c-0.8,0-1.4,0.1-2,0.3
	c-0.3,0.1-0.7,0.1-1,0c-0.3-0.1-1-0.1-1.3,0c-0.3,0.1-0.6,0.1-0.9,0.1c-0.5,0-0.8,0-1.3,0c-0.3,0-0.7,0.1-0.8,0.2
	c-0.2,0.1-0.5,0.2-0.8,0.1c0,0-0.6-0.1-0.9-0.1c-0.2,0-0.3,0-0.5,0l-0.1,0l-0.2,0c-0.2,0-0.4,0-0.7,0c-0.2,0-0.4,0-0.6,0
	c0,0-0.3-0.1-0.4-0.1l-0.1,0l-0.1,0l-0.1,0c-0.3,0-0.6-0.1-0.9,0c-0.2,0.1-0.7,0.2-0.8,0c-0.2-0.1-1.1-0.4-1.6-0.6
	c-0.1,0-0.4-0.1-0.4-0.1c-0.1,0-0.4-0.1-0.4-0.1c-0.2-0.1-0.4-0.1-0.6-0.2c-0.2-0.1-0.3-0.1-0.5-0.2c-0.5-0.1-1.9-1.3-2.7-1.9
	c-0.9-0.7-1.4-1.9-1.9-3c-0.1-0.3-0.4-1.1-0.6-1.6c-0.1-0.2-0.2-0.6-0.2-0.8c0,0-0.1-0.8-0.1-1.1c0-0.2-0.1-0.4-0.1-0.6
	c-0.1-0.1-0.1-0.8-0.2-1.2c0-0.4-0.1-0.9-0.2-1.3c-0.2-0.9-0.3-1.9-0.5-2.8c0-0.4-0.2-1.7-0.2-1.7c-0.1-0.5-0.2-1.1-0.2-1.6
	c-0.1-0.6-0.1-1-0.2-1.6c0-0.1,0-0.1,0-0.3l0-0.1l0-0.1l0-0.1l0-0.1l0-0.1l0-0.2l0-0.6l0-0.1c0,0-0.1-1.3-0.2-1.7
	c-0.1-0.8-0.1-1.5-0.2-2.2c-0.1-0.6-0.3-2.5-0.4-3.9c-0.1-0.6-0.2-1.4-0.2-1.7c-0.1-0.5-0.2-1.4-0.2-2.1l0-0.4l0-0.2l0-0.2l0-0.2
	l0-0.2l0-0.2l0-0.1l0-0.2c0-0.2,0-0.4,0-0.4c0-0.1,0-0.3-0.1-0.6l0-0.1l0-0.1c0-0.2-0.1-0.4-0.1-0.5c0-0.4-0.4-2-0.5-3
	c-0.1-0.5-0.2-0.9-0.3-1.4c-0.1-0.5-0.2-1.1-0.3-1.6c-0.2-0.9-0.4-1.7-0.7-2.5c-0.1-0.4-0.4-1.1-0.4-1.1c-0.2-0.4-0.5-1.1-0.5-1.3
	c-0.2-0.8,1.7-4.4,1.9-4.8c0.1-0.1,0.3-0.1,0.4,0c0.2,0.2,1.2,2.9,1.4,3.5c0.2,0.7,0.5,1.7,0.5,2.2c0.1,1.1,0.2,2,0.5,2.9
	c0,0.1,0,0.1,0,0.2c0,0.2,0.1,0.4,0.1,0.6c0,0,0.1,0.3,0.1,0.3l0,0.3v0.1c0,0.2,0.1,0.6,0.1,0.8c0,0.4,0.1,1,0.1,1.1
	c0.2,1.1,0.3,2.4,0.4,3.6c0.1,1.4,0.3,3.6,0.5,4.5c0.1,0.6,0.2,1.2,0.2,1.8c0,0.7,0.1,1.4,0.2,2.1l0.2,1.8c0.1,0.5,0.2,0.8,0.3,1.3
	c0.1,0.2,0.1,0.4,0.1,0.6c0,0.3,0,0.3,0,0.7l0,0.2v0.5c0,0.2,0.1,1,0.2,1.5c0.2,1.2,0.4,2.6,0.4,3.8c0.1,0.8,0.2,2.2,0.5,2.8
	c0.1,0.3,0.2,0.7,0.2,1c0,0.6,0.1,1.1,0.2,1.6c0.2,0.8,0.4,1.7,0.6,2.3c0.5,1.1,1.2,2.4,2,3c0.6,0.4,1.4,1,1.8,1.2
	c0.2,0.1,0.5,0.3,0.5,0.3c0.2,0.1,0.3,0.2,0.6,0.3l0.1,0l0.2,0.1l0.2,0c0.2,0.1,0.5,0.2,0.7,0.3c0.1,0.1,1.9,0.5,1.9,0.5
	c0.4,0,1.1,0.1,1.6,0.2c0.4,0,0.7,0.1,1.1,0.1c0.7,0,0.7,0,0.8,0.1c0.1,0.1,0.1,0.1,0.1,0.1l0-0.1l0.2,0c0.9,0,0.9,0,1,0
	c0.1,0,0.1,0,0.5,0c0.6,0,0.9,0,1.7,0c1,0,2.7-0.1,3.3-0.2l0.1,0l0.6,0l0.1,0l0.3,0l0.8,0l0.3,0l0.3,0
	C328.6,79.3,329.6,79.3,330.3,79.2z"/>
<g>
	<path class="st2" d="M943.7,91c-0.1-0.2-0.6-0.7-1-0.5c-0.7,0.4-1.5,0.8-2.2,1.1c-0.4,0.2-0.8,0.3-1.1,0.4
		c-0.4,0.1-0.8,0.3-1.1,0.4c-0.2,0.1-0.5,0.2-0.5,0.2c0,0-0.2,0.1-0.2,0.1l-0.1,0c0,0-0.2,0.1-0.3,0.1c-0.3,0.1-0.8,0.3-1,0.4
		c-0.1,0-0.4,0.2-0.6,0.3c-0.2,0.1-0.4,0.2-0.6,0.3c-0.2,0.1-0.4,0.2-0.6,0.2c-0.1,0-0.3,0.1-0.5,0.2c-1.3,0.6-2.8,1.1-4.2,1.5
		c-0.4,0.1-0.8,0.3-1.3,0.5c-0.3,0.1-0.7,0.3-1.1,0.4c-0.8,0.3-1.7,0.6-2.2,0.6c-0.6,0.5-0.9,1.9-1.1,2.9c0,0.1,0.1,0.4,0.2,0.5
		c0.2,0.1,0.5,0.1,0.7,0.1c0.2-0.1,0.8-0.3,1.1-0.4c0.4-0.2,1.1-0.4,1.1-0.4c0,0,0.1,0,0.2-0.1c0.1,0,0.2-0.1,0.3-0.1
		c0.2-0.1,0.4-0.1,0.6-0.2c0.4-0.2,0.9-0.4,1.2-0.5c0.1,0,0.2-0.1,0.2-0.1l0.1,0l0.2-0.1c0.2-0.1,0.4-0.1,0.6-0.2
		c0.4-0.1,0.9-0.2,1.2-0.3c0.4-0.2,0.7-0.3,1.1-0.5c0.2-0.1,0.4-0.2,0.5-0.2c0.2-0.1,0.3-0.1,0.5-0.2c1.7-0.8,3.6-1.6,4.5-1.9
		c1.5-0.5,3-1.1,4.2-1.7C943.2,93.7,944.2,91.8,943.7,91z"/>
	<path class="st2" d="M834.9,47c0.6,0,0.9-0.1,1.2-0.3c0.2-0.1,0.6-0.4,0.7-0.4c0.3-0.1,0.6-0.2,0.9-0.4c0.2-0.1,0.6-0.3,0.8-0.4
		c0,0,2.4-1.1,3.3-1.6c0.2-0.1,0.3-0.1,0.5-0.2c0.2-0.1,0.3-0.1,0.4-0.2c0.1-0.1,0.3-0.1,0.5-0.2c0.2,0,0.4-0.1,0.5-0.1
		c0.3-0.1,0.5-0.2,0.8-0.3c0.3-0.1,0.5-0.2,0.8-0.3c0.3-0.2,0.6-0.3,0.9-0.5c0.2-0.1,0.5-0.3,0.8-0.4c0.1,0,0.2-0.1,0.2-0.1
		c0.1,0,0.1,0,0.1,0c0.1,0,0.2-0.1,0.3-0.2c0.1,0,0.2-0.1,0.3-0.1l0.1-0.1l0.1,0l0.1,0c0.1,0,0.1-0.1,0.2-0.1
		c0.5-0.3,1.2-0.5,1.8-0.7c0.6-0.2,1.3-0.5,1.8-0.7c1.1-0.5,2.5-1.2,3.3-1.5c0.1,0,3.1-1.5,3.1-1.5c0.2-0.3,0.5-0.7,0.5-0.8
		c0-0.1,0-0.1,0.1-0.3l0-0.1c0-0.1,0-0.1,0-0.2c0-0.1,0.1-0.2,0.1-0.2c0-0.1,0.1-0.1,0.1-0.2c0.2-0.6-0.3-2-1-1.7
		c-0.1,0-0.2,0.1-0.3,0.2c-0.1,0.1-0.2,0.1-0.3,0.2l-0.1,0l-0.2,0.1c-0.2,0.1-0.4,0.2-0.4,0.2c-0.2,0.1-0.5,0.2-0.7,0.3l-0.2,0.1
		c-0.2,0.1-0.2,0.1-0.2,0.1c0,0,0,0-0.2,0.1c-0.9,0.4-2,0.9-2.9,1.3c-0.2,0.1-0.8,0.3-0.8,0.3c-0.2,0.1-0.5,0.3-0.8,0.4
		c-0.5,0.2-1.2,0.5-1.5,0.6c-0.9,0.3-2,0.8-2.8,1.1c-0.9,0.5-1.9,0.9-2.9,1.3c-0.9,0.3-1.9,0.7-2.7,1.2c-1,0.5-1.9,0.9-2.9,1.4
		l-0.2,0.1c0,0,0,0-0.2,0.1l-0.4,0.2c-0.1,0-0.4,0.2-0.4,0.2c-0.1,0-0.2,0.1-0.3,0.1c-0.4,0.2-1.4,0.5-1.6,0.5
		c-0.2,0-0.4,0.6-0.5,0.9c-0.1,0.2-0.1,0.4-0.1,0.6v0.1c0,0.3,0,0.3,0,0.4C834.6,45.6,834.2,46.9,834.9,47z"/>
	<path class="st2" d="M829.5,98.1L829.5,98.1c-0.1-0.2-0.3-0.4-0.3-0.4c-0.1-0.1-0.1-0.1-0.1-0.1c0-0.1-0.1-0.1-0.1-0.2
		c0,0,0,0-0.1-0.1l-0.3-0.3c-0.1-0.1-3.2-2.5-3.7-2.3c-0.1,0-1.1,0.7-1.1,0.7c-0.1,0.2-0.3,0.5-0.3,0.8c-0.1,0.3-0.2,0.6-0.4,0.8
		c-0.4,0.4-0.7,0.9-1.1,1.4c0,0-0.2,0-0.3,0.1c-0.2,0-0.4,0-0.6,0.1c-0.1,0-0.3,0-0.4,0.1c-0.1,0-0.3,0.1-0.4,0
		c-0.1,0-0.2-0.1-0.3-0.1c-0.1,0-0.2-0.1-0.3-0.1c0,0-0.2-0.1-0.3-0.1c-0.1,0-0.2-0.1-0.3-0.1c-0.2-0.1-0.4-0.2-0.5-0.3l-0.2-0.1
		l-0.3-0.1c-0.4-0.2-1.8-0.9-2.1-0.8c-0.2,0-0.3,0.2-0.5,0.4c-0.1,0.1-0.4,0.3-0.6,0.4l-0.1,0.2c-0.1,0.1-0.1,0.2-0.1,0.3
		c0,0.1,0,0.1-0.1,0.2l0,0.1c0,0.1-0.1,0.2-0.1,0.3c-0.2,0.4-0.3,0.6-0.6,0.9c-0.2,0.2-0.4,0.7-0.6,1c-0.3,0.5-0.3,0.5-0.1,1
		c0.1,0.2,0.7,0.4,1,0.5c0.2,0.1,0.7,0.3,1.1,0.5c0.1,0.1,0.4,0.2,0.4,0.2l0.2,0.1l0.1,0c0.2,0.1,0.6,0.3,0.6,0.3
		c0.3,0.2,1,0.5,1.3,0.4c0.8-0.4,1.7-1.2,2.1-1.8c0.1-0.2,1.7-2.1,1.7-2.1c0.2,0,1,0.5,1.1,0.6c0.3,0.3,0.7,0.5,1.1,0.7
		c0.1,0.1,0.2,0.1,0.4,0.2c0.1,0,0.2,0.1,0.3,0.1c0.1,0.1,0.2,0.1,0.4,0.2c0.1,0,0.2,0.1,0.2,0.1c0.3,0.2,0.7,0.6,0.9,0.7
		c0.2,0.1,0.4,0,0.6,0c0.2-0.1,0.5-0.5,0.8-0.8c0.2-0.3,0.6-0.7,0.7-0.8c0.3-0.2,0.6-0.4,0.8-0.7c0.1-0.1,0.2-0.3,0.3-0.5
		c0.1-0.1,0.3-0.5,0.3-0.5c0.1-0.1,0.1-0.4,0-0.5C829.6,98.2,829.6,98.2,829.5,98.1z"/>
	<path class="st2" d="M812.1,53c0.3-0.2,1.3-1.2,1.5-1.5c0.2-0.2,1.6-1,1.9-1.1c0.1,0,0.1-0.1,0.2-0.1c0.1-0.1,0.2-0.1,0.3-0.1
		c0.3-0.1,0.7-0.1,0.8-0.2c0.4-0.1,2.2-0.1,2.5-0.1c0.6,0.1,1.3,0.3,1.8,0.5c0.1,0,0.4,0.1,0.4,0.1c0.1,0.1,0.2,0.1,0.3,0.1
		c0.1,0,0.2,0.1,0.3,0.1c0.1,0,0.3,0.1,0.2,0.1c-0.2,0.2-0.7,0.5-1,0.7c-0.3,0.2-0.7,0.4-1,0.6c-0.3,0.2-0.6,0.4-0.9,0.7l-0.2,0.2
		l-0.2,0.2l-0.1,0.1l0,0.1c0,0-0.1,0.1-0.2,0.1c-0.2,0.2-0.5,0.3-0.8,0.4c-0.1,0.1-0.3,0.1-0.5,0.2c-0.1,0-0.2,0.1-0.3,0.1
		c-0.2,0.1-0.5,0.2-0.7,0.3c-0.2,0.1-0.4,0.2-0.6,0.3c0,0,0,0-0.2,0.1l-0.2,0.1c0,0-0.2,0.1-0.3,0.2c-0.1,0.1-0.2,0.1-0.3,0.2
		c-0.1,0.1-0.3,0.1-0.3,0.2c-0.1,0.1-0.2,0.1-0.3,0.2c-0.1,0.1-0.2,0.1-0.3,0.2c-0.2,0.1-0.4,0.3-0.6,0.4c-0.1,0.1,0,0.3,0,0.3
		c0.4,0.3,2.5-0.3,3.2-0.5l0.1,0h0.3c0.2,0,0.2,0,0.3,0l0.1,0l0.1,0l0.1,0c0.2,0,0.3-0.1,0.5-0.2c0.4-0.2,0.8-0.4,1.1-0.5
		c0.7-0.1,3.4-1.5,4.5-2.2c1-0.6,3.9-2.6,3.3-4.4c-0.1-0.2-0.2-0.3-0.4-0.5c-0.1-0.1-0.3-0.2-0.5-0.2c-0.3,0-0.5-0.1-0.7-0.1l-0.1,0
		l-0.1,0l-0.2,0l-0.3-0.1l-0.1,0c-0.1,0-0.3-0.1-0.4-0.1l-0.2,0l-0.1,0l-0.1,0c-0.2-0.1-0.5-0.2-0.8-0.2c-1.6-0.5-3.5-1.2-5.3-1
		c-0.4,0-1.8,0.3-1.9,0.4c0,0-0.1,0-0.2,0.1l-0.2,0.1l-0.1,0l-0.1,0l-0.1,0c-0.1,0.1-0.3,0.1-0.4,0.2l-0.1,0l-0.2,0.1
		c-0.4,0.2-0.8,0.4-1,0.6c-0.2,0.2-0.5,0.7-0.7,1.1c-0.2,0.3-0.4,0.7-0.6,0.9C812.3,50.1,810.7,53.7,812.1,53z"/>
	<path class="st2" d="M784.4,39.7c0.4-0.3,0.7-0.6,1.3-0.8c0.1,0,0.1,0,0.1-0.1c0.1,0,0.1,0,0.2-0.1c0.1,0,0.2-0.1,0.3-0.1
		c0.3-0.1,0.6-0.1,0.8-0.3c0.1-0.1,0.2-0.1,0.4-0.1c0.1,0,0.3-0.1,0.4-0.2c0.1-0.1,0.2-0.1,0.3-0.2c0.6-0.4,1.2-0.7,1.7-0.8
		c0.7-0.2,1.3-0.4,1.5-0.6c0.1-0.1,0.4-0.2,0.7-0.3c0.2-0.1,0.5-0.2,0.7-0.3c0.4-0.2,0.8-0.4,1.3-0.6c1-0.3,2-0.7,2.9-1.1
		c0.5-0.2,1-0.4,1.6-0.6c0.4-0.1,1-0.3,1.4-0.6c0.5-0.4,2.1-0.9,3-1.2l1.3-0.6c0.4-0.2,0.9-0.4,1.2-0.7c0.2-0.2,0.8-1.8,0.6-2.2
		c0-0.1-0.1-0.2-0.1-0.2c0-0.1,0-0.1-0.1-0.2l-0.1-0.1l0-0.1c-0.1-0.1-0.4-0.3-0.6-0.3c-0.5,0.2-0.9,0.4-1.4,0.6
		c-0.1,0.1-0.2,0.1-0.4,0.2l-0.2,0.1l-0.1,0c-0.1,0.1-0.3,0.2-0.3,0.2c-0.1,0.1-0.2,0.1-0.3,0.1c-0.5,0.2-1,0.4-1.4,0.6
		c-0.4,0.1-0.8,0.3-1.2,0.4c-1.8,0.8-3.6,1.5-5.5,2.2c-0.9,0.3-1.9,0.8-2.8,1.2c-0.8,0.4-1.8,0.9-2.7,1.2c-0.9,0.3-1.9,0.7-2.7,1.1
		c-0.2,0.1-0.4,0.2-0.7,0.3c-0.1,0-0.2,0.1-0.3,0.1l-0.1,0c-0.5,0.2-1.3,0.6-1.4,0.6c-0.1,0-0.4,1.1-0.5,1.2c0,0.1-0.1,0.2-0.1,0.3
		c0,0.1-0.1,0.4-0.1,0.4c0,0-0.2,0.5-0.2,0.5c-0.1,0,0,0.7,0.1,0.8C783.2,40.2,784.2,39.9,784.4,39.7z"/>
	<path class="st3" d="M921.3,77.6c0.3-0.5,0.6-1,0.8-1.6c0.2-0.6,0.6-1.7,0.5-2.4c-0.1-1.1-0.6-2.7-1.2-3.4
		c-1.2-1.3-5.7-2.2-8.1-2.1c-0.9,0-1.9,0.2-2.9,0.3c-0.7,0.1-1.6,0.2-2.4,0.3c-0.3,0-0.3,0-0.4,0c-0.3,0-0.3,0-0.3,0l-0.2,0l-0.2,0
		l-0.1,0c-0.4,0.1-1.1,0.1-1.1,0.1c-0.2,0-0.5,0.1-0.7,0.1l-0.3,0l-0.1,0l-0.4,0l-0.3,0l-0.1,0l-0.1,0l-0.2,0
		c-0.8,0.1-1.7,0.2-2.5,0.3c-0.7,0.1-1.3,0.2-2,0.3c-0.2,0-0.2,0-0.5,0c-0.4,0-0.4,0-0.6,0l-0.2,0l-0.2,0l-0.2,0
		c-0.4,0-0.8,0.1-1.2,0.1c-0.4,0.1-0.9,0.1-1.4,0.2l-0.3,0l-0.4,0c-0.2,0-0.4,0-0.6,0.1c-0.9,0.2-1.8,0.2-2.8,0.3
		c-0.9,0.1-1.8,0.1-2.6,0.3c-0.3,0.1-1.4,0.2-2.1,0.3c-0.4,0.1-0.9,0.1-1.4,0.2c-0.2,0-0.5,0-0.7,0.1c-0.2,0-0.4,0-0.6,0.1
		c-0.4,0.1-1,0.1-1.2,0.2c-0.2,0-0.8,0.1-1.2,0.1c-0.2,0-0.3,0-0.4,0c-0.7,0-0.7,0-0.7,0c-0.2,0-0.5,0-0.7,0.1
		c-0.4,0-1.1,0.1-1.4,0.1c-0.4,0.1-1,0.1-1.5,0.2c-0.4,0-0.8,0.1-1.1,0.1c0,0-0.9,0-1.2,0c-0.2,0-0.4,0-0.6,0.1
		c-0.2,0-0.4,0.1-0.6,0.1l-0.3,0l-0.4,0l-0.2,0c-0.2,0-0.9,0.1-1.4,0.1c-0.3,0-0.3,0-1.2,0l-0.6,0c-0.3,0-0.9,0-1.3,0
		c-0.5,0-0.5,0-1,0h-0.2l-0.3,0l-1.4,0l-0.3,0c-0.3,0-0.3,0-0.6,0l-0.2,0c-0.3,0-0.6,0-0.8,0c-2.4,0-6.7,0-7.7-0.1
		c-2.6-0.2-6.1-0.5-7.4-0.7c-0.3-0.1-0.8-0.1-1.1-0.2c-0.3,0-0.7-0.1-1-0.2c-0.1,0-0.1,0-0.4,0l-0.3-0.1c-0.2,0-0.3,0-0.5-0.1
		c-0.2,0-0.4-0.1-0.6-0.1c-0.8-0.3-1.8-0.7-2.4-1c-0.5-0.2-1.1-0.7-1.3-1.1c-0.1-0.2-0.2-0.4-0.1-0.6c0.1-0.2,1.7-2.6,1.9-2.8
		c0.3-0.3,0.6-0.6,0.9-0.9c0.2-0.2,0.4-0.3,0.5-0.4c0.1-0.1,0.5-0.3,0.5-0.3c0,0,0,0,0.1-0.1l0.4-0.3c0.1,0,0.1,0,0.1-0.1l0.1-0.1
		c0,0,0,0,0.1-0.1l0.1-0.1c0.1-0.1,0.2-0.1,0.2-0.2c0.1-0.1,0.2-0.1,0.2-0.2c0.2-0.1,0.4-0.2,0.5-0.3c0.2-0.1,0.4-0.3,0.5-0.4
		l0.2-0.1l0.1,0l0.1,0c0.1,0,0.1-0.1,0.2-0.2l0.1-0.1c0.1-0.1,0.1-0.1,0.1-0.1l0.1-0.1c0,0,0,0,0.1-0.1c0.1-0.1,0.1-0.1,0.1-0.1
		c0.1-0.1,0.1-0.1,0.1-0.1c0.3-0.3,0.7-0.5,0.9-0.6c0.1-0.1,0.2-0.1,0.3-0.2c0,0,0.2-0.1,0.2-0.1c0.1-0.1,0.2-0.1,0.3-0.2
		c0.1,0,0.2-0.1,0.2-0.1c0.2-0.1,0.4-0.2,0.6-0.3c0.2-0.1,0.4-0.3,0.5-0.5c0.2-0.2,0.2-0.2,0.2-0.2c0.1,0,0.2-0.1,0.2-0.1
		c0.3-0.3,0.9-0.6,1.3-0.7c0.1-0.1,0.3-0.1,0.4-0.2c0,0,0,0,0.1-0.1c0,0,0,0,0.2-0.1c0.1,0,0.1-0.1,0.2-0.1c0.1-0.1,0.1-0.1,0.2-0.1
		c0.1,0,0.2-0.1,0.3-0.1c0.4-0.2,0.8-0.4,1.2-0.6c0.8-0.4,1.8-1,2.6-1.3c0.5-0.2,1.2-0.6,1.4-0.7l0.1,0l0.1,0l0.1,0l0.1,0
		c0,0,0.1,0,0.3-0.1l0.1,0c0.1,0,0.2-0.1,0.3-0.2c0,0,2.3-3.8,2.2-4.4c0-0.2-0.1-0.3-0.3-0.5c-0.1-0.1-0.4-0.1-0.5-0.1
		c0,0-0.1,0-0.2,0.1l-0.1,0l-0.1,0l-0.1,0c-0.1,0.1-0.2,0.1-0.3,0.2c-0.1,0-0.2,0.1-0.3,0.2c-0.1,0.1-0.2,0.1-0.3,0.2
		c-0.1,0.1-0.3,0.1-0.4,0.2c-0.1,0.1-0.4,0.1-0.4,0.2l-0.6,0.4c-0.1,0-0.2,0.1-0.4,0.2c-0.1,0.1-0.2,0.1-0.4,0.2
		c-0.2,0.1-0.5,0.3-0.7,0.4c-0.5,0.3-1,0.5-1.5,0.7c-1,0.4-2,0.9-3,1.5l-0.2,0.1l-0.1,0c-0.1,0.1-0.2,0.1-0.3,0.2
		c-0.1,0-0.2,0.1-0.3,0.2c-0.1,0.1-0.2,0.1-0.3,0.2c-0.2,0.1-0.4,0.3-0.6,0.4l0,0.1c-0.1,0.1-0.1,0.1-0.2,0.2
		c-0.1,0.1-0.2,0.1-0.3,0.2c-0.5,0.3-1.3,0.8-1.4,0.8c-0.4,0.2-0.9,0.5-1.2,0.8c-0.7,0.6-1.4,1.1-2.1,1.6c-0.7,0.5-1.4,1.2-2,1.8
		c-0.2,0.2-0.6,0.7-0.9,1c-0.1,0.1-0.1,0.1-0.1,0.1l-0.1,0.1l-0.1,0.1c-0.1,0.1-0.1,0.1-0.1,0.1c-0.1,0.1-0.1,0.1-0.1,0.1
		c0,0.1,0,0.1-0.1,0.1c-0.1,0.1-0.2,0.2-0.2,0.3c-0.2,0.2-2.7,3.7-2.9,4c0,0,0,0-0.1,0.1l-0.1,0.1l0,0.1c-0.1,0.1-0.1,0.2-0.1,0.2
		c0,0.1,0,0.1-0.1,0.2c0,0.1,0,0.1-0.1,0.2l-0.1,0.2c-0.1,0.2-0.5,0.9-0.6,1.3c-0.2,0.4-0.4,0.8-0.6,1.2c-0.2,0.4-0.4,0.7-0.6,1.1
		c-0.2,0.4-0.2,1-0.1,1.5c0,0.2,0.4,1,0.6,1.1c0.3,0.2,0.6,0.4,0.8,0.6c0,0,0.6,0.4,0.9,0.6c0.3,0.2,0.7,0.4,1.1,0.5
		c0.2,0.1,0.5,0.2,0.5,0.2c0,0,0,0,0.2,0l0.1,0c0.1,0,0.1,0,0.1,0.1c0.2,0.1,0.5,0.2,0.8,0.2c0.3,0,0.7,0.1,0.9,0.2
		c0.2,0.1,0.5,0.1,0.8,0.2c0.4,0,0.7,0.1,1,0.1l0.1,0l0.1,0c0.1,0,0.1,0,0.2,0l0.1,0l0.1,0l0.1,0c0.1,0,0.6,0.1,0.8,0.1
		c0.7,0,0.8,0,0.8,0.1l0.1,0l0.2,0c0.2,0,0.3,0,0.4,0l0.4,0h0.4l0.3,0c0.2,0,0.2,0,0.4,0.1c0,0,0.2,0.1,0.2,0.1
		c0.6,0,1.5,0.1,2.1,0.1c0.7,0,1.6,0,2.3,0.1c0,0,0.8,0,1.1,0c0.3,0,0.8,0,1,0c0.3,0.1,0.7,0.1,1,0.1h0.1l0.2,0c0.1,0,0.1,0,0.2,0
		c0.2,0.1,0.3,0.1,0.6,0.1l0.8,0l1.4,0h0.6l0.1,0c0.6-0.1,1.3-0.1,2-0.1c0.7,0,1.6,0,1.9-0.1c0.5-0.1,1.4-0.2,1.9,0
		c0.3,0.1,0.5,0.1,0.8,0.1c0.7-0.2,1.9-0.2,2.8-0.2c0.2,0,0.2,0,0.4,0c0.1,0,0.1,0,0.3,0c0.3,0,0.7,0,1,0c0.4,0,0.9,0.1,1.1,0
		c0.5-0.2,1.3-0.3,1.9-0.3c0.2,0,0.2,0,0.5,0c0.1,0,0.1,0,0.3,0c0.1,0,0.2,0,0.3-0.1c0.4-0.1,0.8-0.2,1.2-0.2c0.7,0,0.9,0,1.6-0.1
		c0.3,0,0.5,0,0.8,0c0.1,0,0.2,0,0.3-0.1c0.1-0.1,0.1-0.1,0.1-0.1c0.2,0,0.4,0,0.6,0c0.1,0,0.3-0.1,0.3-0.1c0.1,0,0.3-0.1,0.3-0.1
		c0.2,0,0.3,0,0.4,0c0.1,0,0.1,0,0.6,0c0.4,0,0.7,0,0.8,0c0.1,0,0.2,0,0.3-0.1c0.1,0,0.2-0.1,0.3-0.1l0.1,0l0.2,0l0.1,0l0.1,0
		c0.1,0,0.1,0,0.5,0l0.2,0l0.1,0l0.1,0l0.2,0l0.5,0l0.1,0c0.3-0.1,0.5-0.1,0.8-0.1c0.1,0,0.4,0,0.8-0.1c0.3,0,1.2-0.1,1.2-0.1
		c0.3,0,1,0,1.5-0.1c0.4,0,0.7-0.1,1-0.1c0.5-0.1,1-0.2,1.4-0.1c0.3,0,1.3-0.1,2-0.2c0.1,0,0.3-0.1,0.4-0.1c0.1,0,0.2-0.1,0.3-0.1
		c0.3,0,0.5,0,0.8,0c0.2,0,0.4,0,0.4,0c1.6-0.1,3.2-0.3,4.7-0.6c1.2-0.2,3-0.4,4.5-0.6c0.6-0.1,3-0.4,4.3-0.6
		c2.4-0.4,6.6,0.5,8.1,1.4c0.3,0.2,0.7,0.5,0.9,0.8l0,0.1l0.1,0.2c0,0,0.1,0.2,0.2,0.3c0.1,0.1,0.1,0.2,0.2,0.4
		c0,0.1,0.1,0.2,0.1,0.2l0,0.1c0,0-0.4,0-0.7,0c-0.1,0-0.7,0-0.7,0c-0.4,0-0.7,0.1-1,0.1l-0.2,0l-0.2,0l-0.2,0l-0.2,0
		c-0.2,0-0.4,0-0.6,0.1c-0.3,0-0.5,0-0.8,0.1c0,0,0,0-0.2,0l-0.1,0l-0.3,0l-0.3,0c-0.5,0-1,0.1-1.5,0.1c0,0-0.5,0-0.5,0
		c-0.1,0-0.4,0.1-0.4,0.2c-0.1,0.1-0.2,0.2-0.3,0.2c-0.4,0.1-1,0.2-1.4,0.2c-0.1,0-1.6,0.3-2.1,0.4c-1.7,0.4-3.3,0.6-5,0.8
		c-0.7,0.1-1.4,0.2-2.1,0.4c-0.2,0.1-0.5,0.1-0.7,0.1c0,0-0.4,0.1-0.5,0.1c-0.1,0-0.2,0-0.3,0c-0.1,0-0.1,0-0.3,0l-0.3,0
		c-0.2,0-0.2,0-0.3,0c-0.8,0.2-1.5,0.3-2.3,0.4c-0.2,0-0.7,0.1-1.1,0.2l-0.2,0l-0.1,0l-0.1,0l-0.1,0l-0.1,0l-0.2,0
		c0,0-0.6,0.1-0.8,0.1c-0.1,0-0.1,0-0.2,0c-0.1,0-0.2,0-0.2,0c-0.3,0-0.9,0.1-1.3,0.2c-0.3,0-0.6,0.1-1,0.1c-0.3,0-0.7,0.1-0.9,0.1
		c-0.2,0-0.8,0.1-1.1,0.2c-1.4,0.3-4.2,0.6-6.2,0.8c-1,0.1-2,0.3-2.9,0.4c-0.3,0.1-0.7,0.1-1,0.1c-0.4,0-0.8,0.1-1.1,0.1l-0.2,0
		l-0.8,0l-0.1,0l-0.2,0c0,0-0.5,0.1-0.7,0.1c-2.3,0.3-4.3,0.5-6.7,0.7c-1,0.1-2.1,0.2-3.1,0.2c-0.1,0-1.8,0-2.5,0.1l-0.5,0h-0.2
		c-0.8,0-0.8,0-1.3,0c-0.1,0-0.5,0-0.5,0c-0.2,0-0.9,0-1.3,0.1c-0.7,0-1.3,0-2,0c-2.3,0-4.5,0-6.8,0c-0.7,0-1.7,0-2.1,0
		c-0.5,0-1.1-0.1-1.6-0.1l-1.8,0.1c-0.3,0-0.5,0-0.7-0.1c-0.7-0.1-1.4-0.2-2.3-0.2c0,0-0.9-0.1-1.2-0.2c-0.3-0.1-0.9-0.1-1.1-0.1
		c-0.5,0-0.9,0-1.2-0.1c-0.4-0.1-0.7-0.1-1.1-0.2c-0.3,0-1.5-0.3-2.1-0.4c-0.4-0.1-0.9-0.2-1.3-0.2c-0.2,0-0.4-0.1-0.6-0.1
		c-0.1,0-0.2,0-0.3,0c-0.3,0-0.3,0-0.4,0c-0.8-0.1-2-0.5-2.6-0.9c-0.7-0.4-1.4-0.7-2.3-1c-0.8-0.3-1.7-0.6-2.2-1
		c-0.7-0.4-1.7-1.1-2.2-1.1c-0.4,0-0.8,0.1-1.1,0.3c-0.2,0.1-0.4,0.3-0.5,0.5l-0.1,0.1c0,0.1,0,0.1-0.1,0.2c0,0,0,0-0.1,0.1
		l-0.1,0.1c-0.1,0.1-0.3,0.3-0.4,0.5c-0.1,0.1-0.3,0.3-0.5,0.5c-0.3,0.3-0.8,0.8-1,0.9c-0.2,0.1-0.4,0.3-0.6,0.4
		c-0.2,0.1-0.4,0.3-0.5,0.4c-0.4,0.3-0.9,0.5-1.4,0.7c-0.8,0.2-1.6,0.4-2.5,0.5c-0.7,0.1-1.6,0.1-2.4-0.1c-0.5-0.1-0.9-0.2-1.3-0.4
		c-0.1,0-0.2-0.1-0.3-0.1l-0.1,0l-0.2,0c0,0-0.2-0.1-0.3-0.1c-0.1-0.1-0.3-0.1-0.3-0.1c-0.8-0.3-2.8-2-3.8-2.9
		c-0.1-0.1-1.3-2.1-1.8-3c-0.3-0.5-0.5-1.2-0.6-1.7c-0.1-0.4-0.1-0.7-0.2-1.1c0,0-0.1-0.4-0.2-0.6c-0.1-0.1-0.1-0.3-0.1-0.5
		c0,0-0.1-0.3-0.1-0.5l-0.1-0.3l0-0.1l0-0.1l0-0.2c0-0.1,0-0.2-0.1-0.3l-0.3-2.2c-0.1-0.3-0.1-0.6-0.2-0.8c-0.1-0.2-0.1-0.5-0.2-0.9
		c0-0.2,0-0.4-0.1-0.6c0-0.1,0-0.2-0.1-0.3c0-0.1,0-0.2-0.1-0.3c0-0.1-0.1-0.2-0.1-0.4c0,0-0.1-0.7-0.2-1c-0.1-0.3-0.1-0.7-0.1-1
		c0-0.2,0-0.4-0.1-0.5c0-0.1-0.1-0.2-0.1-0.4c0-0.1,0-0.2-0.1-0.2c0-0.1-0.1-0.2-0.1-0.3c0-0.2-0.1-0.5-0.2-0.7l0-0.1l0-0.1l0-0.1
		c0-0.1-0.1-0.4-0.1-0.4c-0.2-0.6-0.2-1.4-0.2-2c0-0.4-0.1-0.7-0.2-1c-0.1-0.3-0.1-0.5-0.1-0.8c0-0.3-0.2-1.1-0.3-1.6
		c-0.1-0.3-0.2-0.8-0.2-0.9c0-0.4,0-0.8-0.1-1.2c-0.1-0.3-0.2-0.8-0.2-0.8c0-0.3-0.1-0.9-0.1-1c-0.1-0.4-0.2-0.8-0.4-1.2
		c-0.2-0.5-0.3-1.8-0.3-2.5c-0.1-0.7-0.2-1.5-0.3-2.3c0-0.3,0-0.6,0-1c0-0.1,0-0.9,0-1.2c0-0.2-0.1-0.6-0.2-0.8
		c-0.1-0.2-0.3-0.4-0.4-0.4c-0.2,0-0.4,0-0.5,0.1c-0.1,0.1-0.2,0.3-0.2,0.4c0,0.1-0.1,0.4-0.1,0.4c-0.2,0.2-0.2,0.4-0.2,0.8
		c0,0.2,0,0.9-0.1,0.9c-0.4,0.3-0.6,1.6-0.6,2.2c0,1.4,0.9,7.6,1.4,10.8c0,0.3,0.1,0.7,0.2,1c0.1,0.3,0.2,1,0.2,1
		c0.1,0.9,0.2,1.8,0.4,2.7c0.1,0.5,0.2,1,0.2,1.6c0,0.4,0.1,0.9,0.2,1.3c0.1,0.9,0.4,2.7,0.3,3c-0.3,1-0.5,2.1-0.7,3.2
		c-0.1,0.7-0.6,1.9-1,2.6c-0.4,0.8-0.9,1.5-1.4,2.2l-0.4,0.5c-0.1,0.1-0.2,0.2-0.2,0.2c-0.1,0-0.1,0.1-0.2,0.2
		c-0.1,0.1-0.7,1-0.8,0.9c-0.1-0.1-0.1-0.8-0.1-1.1c0-0.7,0-1.4-0.1-2c0-0.3,0-0.6-0.1-0.9c0-0.2-0.1-0.4-0.1-0.5
		c-0.1-0.8-0.1-1.5-0.3-2.2c-0.2-0.9-0.6-2.1-1.1-2.7c-0.4-0.5-1.1-1.6-1.6-2.3c-0.1-0.2-1.1-1.5-1.6-2.1c-0.3-0.4-0.6-0.7-0.9-1
		c-0.1-0.1-0.1-0.1-0.2-0.2l-0.1-0.1c-0.1-0.1-0.1-0.2-0.2-0.2l-0.1-0.1c-0.1-0.1-0.1-0.1-0.2-0.2l-0.1-0.1l-0.1-0.1
		c-0.5-0.7-1.3-1.5-1.9-2c-0.3-0.3-0.7-0.6-1-0.9c-0.3-0.3-0.7-0.6-1-0.9c-0.7-0.5-1.3-1.1-1.9-1.7c-0.3-0.3-0.8-0.6-1.2-0.8
		c-0.1-0.1-0.2-0.1-0.3-0.2c-0.1-0.1-0.2-0.2-0.3-0.2c-0.1-0.1-0.2-0.1-0.3-0.2c-0.1-0.1-0.2-0.2-0.3-0.2c-0.3-0.2-0.9-0.5-1.2-0.8
		c-0.2-0.2-0.8-0.6-1.2-0.8c-0.2-0.1-0.5-0.3-0.6-0.4c-0.2-0.2-0.4-0.3-0.6-0.4l-1.2-0.8c-0.1-0.1-0.2-0.1-0.4-0.2
		c-0.1,0-0.3-0.1-0.4-0.2c-0.2-0.1-0.4-0.2-0.7-0.3c-0.2-0.1-0.6-0.3-0.7-0.4c-0.2-0.1-0.6-0.4-0.6-0.4c-0.5-0.3-1.7-1.1-2.5-1.6
		c-0.6-0.4-2.2-1.5-2.5-1.5c-0.2,0-0.4,0-0.5,0.1c-0.3,0.3-0.7,3.3-0.6,4c0,0.4,0.1,1.1,0.2,1.3c0.1,0.4,0.2,1,0.2,1.6
		c0,0.6,0.2,1.3,0.3,1.9c0.1,0.3,0.2,0.5,0.4,0.7c0.4,0.3,0.8,0.6,1.2,0.9c0,0,0.1,0.1,0.2,0.1l0.1,0.1c0.1,0.1,0.2,0.1,0.3,0.2
		l0.2,0.1l0.1,0c0.2,0.1,0.3,0.2,0.4,0.2c0.8,0.5,4.3,2,5.5,1.3c0.1-0.1,0.2-0.3,0.3-0.5c0,0,0,0,0-0.2c0-0.1,0-0.1,0.1-0.2
		c0,0,0.1-0.1,0.1-0.1c0.1-0.1,0.1-0.1,0.1-0.1c0-0.1,0.1-0.2,0.1-0.2l0-0.2l0-0.1c0.2,0,1.8,1,2,1.2c0.6,0.4,1.3,0.9,1.9,1.2
		c0.2,0.1,0.6,0.4,0.8,0.6c0.1,0.1,0.2,0.2,0.4,0.4c0.1,0.1,0.2,0.2,0.3,0.3c0.2,0.2,0.4,0.4,0.6,0.6c0,0,0.3,0.2,0.4,0.3l0.1,0
		l0.1,0.1l0.1,0.1c0.3,0.2,0.6,0.5,0.8,0.7c0.2,0.2,0.6,0.5,0.7,0.6c0.4,0.4,0.9,0.8,1.4,1.2c0.1,0.1,0.3,0.4,0.5,0.5
		c0.1,0.2,0.3,0.4,0.4,0.5c0.3,0.4,0.9,0.9,0.9,1c0.5,0.7,1.2,1.5,1.8,2.1c0.5,0.5,1.2,1.5,1.8,2.2c0.6,0.8,1.2,1.6,1.5,2.6
		c0.1,0.3,0.2,0.6,0.3,1c0,0.2,0.1,0.5,0.1,0.8c0,0.2,0.1,0.4,0.1,0.6c0.1,0.4,0.4,2.4,0.4,2.4c-0.1,0.1-0.2,0.2-0.3,0.3
		c-0.1,0.1-0.2,0.2-0.3,0.3c0,0-0.2,0.2-0.3,0.3c-0.1,0.1-0.1,0.1-0.2,0.2c-0.4,0.4-0.8,0.8-1.2,1.1c-0.2,0.1-0.8,0.4-1.2,0.5
		c-0.5,0.2-0.9,0.4-1.3,0.7c-0.3,0.3-0.8,0.6-1.2,0.8l-0.1,0l-0.5,0l-0.1,0c-0.1,0-0.2,0.1-0.3,0.1c0,0-0.2,0.1-0.4,0.2l-0.1,0
		l-0.2,0.1c-1,0.5-2.4,1-2.8,1.1c-1,0.3-1.8,0.6-2.7,0.9c-0.3,0.1-0.6,0.2-0.8,0.3c-0.2,0.1-0.4,0.2-0.7,0.3c-0.1,0-0.3,0.1-0.4,0.1
		c0,0-0.2,0-0.3,0.1c-0.3,0.1-0.5,0.1-0.7,0.2c-0.4,0.2-0.9,0.4-1.4,0.5c-0.3,0.1-0.6,0.1-1,0.2c-0.2,0-0.4,0.1-0.6,0.2
		c-0.4,0.1-0.9,0.3-1.3,0.4c-0.2,0-0.2,0-0.3,0l-0.3,0l-0.2,0c-0.2,0-0.3,0-0.5,0.1c-0.3,0.1-0.7,0.1-1,0.2
		c-0.7,0.1-1.4,0.3-2.1,0.3c-0.7,0.1-1.4,0.2-2.1,0.4c-0.1,0-0.2,0.1-0.3,0.2c-0.1,0.1-0.1,0.2-0.2,0.2c-0.1,0.1-0.2,0.1-0.3,0.2
		l-0.1,0.1l-0.1,0.2c-0.1,0,0,0.7,0,0.8c0.1,0.1,0.3,0.3,0.4,0.3c0.2,0,0.4,0,0.7-0.1l0.1,0l0.2,0c0.2,0,0.4,0,0.6-0.1
		c0.1,0,0.4-0.1,0.6-0.1c0.5,0,1.3-0.1,1.4-0.2l0.1,0l0.1,0l0.1,0l0.1,0c0.1,0,0.3-0.1,0.4-0.1c0.8-0.1,3.4-0.4,3.8-0.1
		c0.3,0.1,0.5,0.1,0.8,0.1c0.2,0,0.3,0,0.5,0c0,0,0.6,0,0.7,0c0.2,0,0.7,0,0.7,0l0.5,0h0.3c0,0,0.1,0,0.2-0.1c0.1,0,0.1,0,0.2-0.1
		l0.2,0l0.1,0c0,0,0.5-0.1,0.5-0.1c0.3,0,0.3,0,0.4,0l0.1,0l0.2,0l0.1,0c0.1,0,0.3-0.1,0.4-0.1l0.3,0l0.3,0l0.1,0
		c0.6-0.1,1-0.2,1.6-0.3l0.2,0l0.1,0c0,0,0.3,0,0.3,0l0.2,0l0.1,0c0,0,0.2,0,0.4,0.1c0,0,0.3,0,0.5,0c0.3,0,0.6-0.3,0.8-0.5
		c0.1-0.1,0.3,0,0.4,0c0.2,0,0.3,0.1,0.6,0c0.2,0,0.5-0.3,0.7-0.4c0,0,0.1-0.1,0.2-0.1c0,0,0.2-0.1,0.2-0.1l0.2-0.1
		c0.1,0,0.1,0,0.2-0.1c0.2-0.1,0.5-0.2,0.7-0.3l0.1,0c0.1,0,0.1,0,0.2-0.1c0,0,0.1,0,0.2-0.1c0.1,0,0.1,0,0.2-0.1
		c0.6-0.2,1.2-0.4,1.6-0.7c0.4-0.3,0.9-0.5,1.3-0.7c0.2-0.1,0.3-0.2,0.4-0.3c0.1-0.1,0.2-0.3,0.3-0.4c0.2-0.2,0.5-0.5,0.8-0.7
		c0.2-0.2,0.5-0.4,0.7-0.6c0,0,0.5-0.5,0.8-0.7c0.5-0.5,1-1,1.3-1.6c0.2-0.4,0.5-0.9,0.6-1c0.1-0.1,0.2-0.3,0.4-0.4
		c0.1-0.1,0.3-0.3,0.3-0.4c0.1-0.2,0.6-1.4,0.9-2.1c0.1-0.2,0.2-0.4,0.2-0.6c0.1-0.2,0.2-0.4,0.2-0.6c0.1-0.2,0.1-0.4,0.2-0.5
		c0.1-0.2,0.2-0.3,0.2-0.5c0.1-0.4,0.2-0.8,0.4-1.3l0.1-0.6c0-0.1,0.1-0.2,0.1-0.3c0-0.1,0-0.1,0-0.2c0.1-0.2,0.1-0.4,0.1-0.6
		c0-0.2,0.1-0.4,0.1-0.6c0-0.1,0.3-1,0.4-0.9c0,0.1,0.2,0.7,0.2,1c0.1,0.3,0.1,0.7,0.2,0.9c0.1,0.2,0.1,0.5,0.2,0.8
		c0,0.3,0.2,0.9,0.2,0.9c0,0.2,0.1,0.3,0.1,0.5c0,0.1,0,0.2,0.1,0.3l0.2,0.8c0,0.2,0.1,0.5,0.2,0.8l0,0.1l0,0.1l0,0.2l0,0.1
		c0,0.2,0.1,0.5,0.1,0.5c0.2,0.6,0.5,1.6,0.8,2.4c0.2,0.5,0.4,0.9,0.6,1.4l0,0.1l0,0.1l0.1,0.1c0,0.1,0.1,0.2,0.1,0.2
		c0.1,0.2,0.2,0.4,0.3,0.6c0.3,0.7,0.9,1.4,1.4,2c0.2,0.2,0.5,0.4,0.8,0.6c0.3,0.2,0.5,0.3,0.7,0.6c0.4,0.4,0.8,0.9,1.4,1.2
		c0.3,0.1,1.4,0.6,2.1,0.9c0.9,0.4,2.2,0.6,3.5,0.4c1.6-0.2,3.4-0.6,4.5-1.3c0.3-0.2,1.7-1.3,2.5-2c0.4-0.3,0.8-0.7,1.1-1.1
		c0.1-0.2,1-1,1.2-0.9c0.5,0.2,0.9,0.4,1.3,0.7c0.3,0.3,0.9,0.5,1.3,0.7c0.6,0.3,1.4,0.6,1.5,0.7c0.2,0.1,0.4,0.3,0.5,0.5
		c0.1,0.2,0.3,0.3,0.5,0.4c0.1,0.1,0.2,0.1,0.3,0.2c0.1,0.1,0.3,0.2,0.3,0.2c0.1,0,0.4,0,0.6,0c0.2,0,0.4,0,0.5,0.1
		c0.2,0.1,0.5,0.2,0.6,0.3c0.1,0.1,0.2,0.1,0.3,0.1l0.3,0.1l0.7,0l0.2,0c0.3,0,0.8,0.1,1,0.2c0,0,0.1,0.1,0.1,0.1l0.1,0.1
		c0.1,0.1,0.3,0.1,0.5,0.2l0.5,0c0.1,0,0.1,0,0.3,0c0.2,0,0.4,0.1,0.6,0.1c0.2,0,0.4,0.1,0.6,0.1c0.2,0,0.4,0,0.5,0.1
		c0.3,0.1,0.6,0.2,0.9,0.2c0.4,0,0.8,0,1.1,0c0.3,0,0.6,0,0.9,0.1c0.4,0.1,0.9,0.1,1.5,0.2c0.4,0,0.8,0,1,0.1
		c0.4,0.1,0.6,0.2,1.1,0.2c1.4,0,2.7,0,4.1,0c1.3,0,3.1,0.1,4.3,0.1c1.1,0,2.6,0,3.7-0.1c0.3,0,0.6,0,0.9,0c0.3,0,0.5,0,0.8,0
		c0.5-0.1,1,0,1.5,0c0.3,0,0.5,0,0.7,0c0,0,0.7-0.1,0.9-0.1c0.1,0,0.1,0,0.3,0c0.2,0,0.3,0,0.5,0c0.2,0,0.8,0,1.2,0l0.3,0l0.2,0
		l0.2,0c0.3,0,0.8,0,0.9,0c0.3,0.1,0.5,0.2,0.8,0.1c1-0.2,2.2-0.3,3.3-0.5c0.4,0,0.9,0,1.4,0c0.2,0,0.4,0,0.6-0.1
		c0.1,0,0.3-0.1,0.4-0.1l0.1,0l0.1,0c0.1,0,0.3-0.1,0.5-0.1l0.4,0l0.2,0l0.2,0c0.1,0,0.3,0,0.5,0c0.1,0,0.3,0,0.4-0.1
		c0.1,0,0.1,0,0.3,0c0.2,0,0.5,0,0.7-0.1c0.3-0.1,0.5-0.1,0.8-0.1c0.7-0.1,1.5-0.2,2.2-0.1c0.4,0,0.7,0,1.1-0.1
		c0.3-0.1,0.7-0.2,1-0.2l0.4,0h0.1c0.6,0,0.6,0,0.7,0l0.2,0l0.1,0l0.1,0l0.1,0l0.2,0l0.5,0c0.7-0.2,2-0.4,2.8-0.5
		c1.1-0.1,1.9-0.2,2.8-0.4c0.4-0.1,0.9-0.2,1.2-0.3c0.1,0,0.3,0,0.2-0.1c0-0.1,0-0.1-0.2-0.1c-0.1,0-0.1,0-0.1-0.1l-0.2-0.1
		c-0.2,0,0.1,0,0.2,0c0,0,0.3,0.1,0.3,0.1c0.2,0.3,0.3,0.3,0.7,0.2l0.2-0.1c0.2,0,0.6,0,0.9,0c0.1,0,0.5,0,0.5,0
		c0.2,0,0.3-0.1,0.5-0.1l0.1,0l0.1,0c0.2,0,0.5-0.1,0.7-0.1c0.2,0,0.5,0,0.6,0c0.2,0,0.4-0.1,0.6-0.1l0.2-0.1l0.1,0
		c0.1,0,0.6-0.1,0.9-0.1l0.1,0l0.2,0c0.2,0,0.4-0.1,0.6-0.1c0.2-0.1,0.6-0.2,0.9-0.2c0.5,0,0.8,0,1.1-0.1c0.1-0.1,0.3-0.1,0.4-0.2
		c0.1,0,0.2-0.1,0.3-0.1c0.2,0,0.5-0.1,0.8-0.1c0.4,0,0.6,0,0.8,0c0.6-0.2,1.2-0.3,1.8-0.3c0.5,0,1.2-0.2,1.7-0.4
		c0.3-0.1,0.7-0.1,0.9-0.1c0.2,0,0.6-0.1,0.8-0.1c0.3-0.1,0.6-0.1,0.9-0.2c0.4,0,0.7-0.1,1-0.2c0.2-0.1,0.5-0.1,0.7-0.1
		c0.2,0,0.5-0.1,0.8-0.2c0.2,0,0.3-0.1,0.5-0.1c0.3,0,0.5,0,0.7-0.1c0.1,0,0.3-0.1,0.4-0.1c0.4,0,0.6,0,0.7-0.1
		c0.5-0.2,1.1-0.3,1.7-0.3c0.9-0.1,2.1-0.3,2.4-0.3c0.3,0,0.7,0,1-0.1c0.2-0.1,0.8-0.2,0.8-0.2h0.2l0.3,0l0.2,0h0.1l0.1,0l0.2,0
		c0.2,0,0.3,0,0.5-0.1c0.1,0,0.2,0,0.3,0c0,0-0.1,0.1-0.1,0.1l-0.1,0.1c0,0,0.1,0.1,0.1,0.1l0,0.1c0,0.3,0,0.3,0,0.5
		c-0.1,0.2-0.1,0.5-0.1,0.6c0,0,0,0.1,0,0.1l4.4-4.8C921,78.2,921.2,77.7,921.3,77.6z"/>
	<path class="st2" d="M929.8,89.5c1-0.5,2.5-1.1,3-1.2c0.3-0.1,1.9-1.1,2.2-1.3c0.1-0.1,0.2-0.1,0.2-0.2c0.1-0.1,0.1-0.1,0.2-0.2
		l0.1-0.1c0.1-0.1,0.1-0.1,0.1-0.1c0,0,0,0,0.1-0.1c0.1-0.1,0.3-0.3,0.4-0.5c0.1-0.1,0.1-0.2,0.2-0.3l0-0.1l0.1-0.2
		c0.1-0.2,0.4-1.2,0.5-1.7c0-0.2,0.1-0.4,0.2-0.6c0-0.1,0.1-0.2,0.2-0.3c0.1-0.1,0.1-0.1,0.2-0.2c0.3-0.8,0.6-2.8,0.8-4.3
		c0.2-1.2,0.1-2.7,0-4c-0.2-1.9-0.4-3.6-0.6-5.4c-0.1-0.7-0.2-1.7-0.3-2c-0.1-0.4-0.2-0.9-0.3-1.3l-0.3-1.8l0-0.1l0-0.1l0-0.1
		c0-0.2,0-0.4-0.1-0.5c0-0.1-0.1-0.2-0.1-0.3c0-0.2-0.1-0.4-0.1-0.5c-0.2-0.9-0.6-2.3-0.6-3.1c0-0.5-0.8-4.4-1.2-6.2
		c-0.1-0.6-0.3-1.2-0.3-1.8c-0.1-0.6-0.2-1.2-0.3-1.8c0-0.1-0.3-0.9-0.4-1.3c0-0.1-0.3-1.5-0.3-1.5c0,0,0.3,0,0.4,0l0.3,0
		c0.2-0.1,2.4-3.1,1.9-4.1c-0.2-0.4-0.8-0.9-1.2-1.2c0,0-0.8-0.9-1.1-1.3c-0.5-0.6-0.9-1.4-1.2-2.2c-0.1-0.2-0.2-1-0.3-1.6
		c-0.1-0.4-0.3-1-0.8-0.8c-0.3,0.2-0.6,0.6-0.8,0.8c0,0.1-0.1,0.1-0.1,0.2c0,0.2-0.1,0.2-0.1,0.3l0,0.1l-0.1,0.2
		c0,0.1,0,0.1-0.1,0.2l0,0.1c0,0.1-0.1,0.2-0.1,0.3c0,0-0.2,0.4-0.3,0.5c-0.1,0.1-0.1,0.2-0.1,0.3c0,0.1-0.1,0.3-0.1,0.3
		c-0.1,0.2-0.3,0.5-0.3,0.5c0,0.1-0.2,0.5-0.3,0.5c-0.1,0,0,0.9,0,1l0,0.5l0,0.1l0,0.1l0,0.2c0,0.2,0.2,0.6,0.3,0.8
		c0.1,0.3,0.6,1.4,0.8,1.5c0.1,0,0.1,0.5,0.2,0.6c0,0.1,0.1,0.5,0.1,0.7c0.1,0.5,0.2,1.5,0.2,1.6c0.2,0.7,0.4,1.6,0.4,2.2
		c0.1,1.4,0.5,2.8,0.8,4c0,0.2,0.3,1.5,0.4,2.2c0,0.2,0.1,0.4,0.1,0.6l0,0.2l0,0.1l0,0.1c0.1,0.3,0.2,0.8,0.2,0.9
		c0.2,1.4,0.5,2.9,0.8,4.2c0.3,1.4,0.6,2.9,0.8,4.3c0.1,0.8,0.2,1.5,0.4,2.1c0.1,0.6,0.3,1.3,0.4,1.9c0,0.2,0.1,0.5,0.1,0.7l0,0.2
		l0,0.1l0,0.3l0,0.5c0,0,0.1,0.2,0.1,0.4c0,0.1,0.1,0.2,0.1,0.3c0.2,0.8,0.3,1.7,0.4,2.5c0.1,1,0.2,1.9,0.4,2.9
		c0.1,0.4,0.1,0.8,0.2,1.1c0.1,0.3,0.2,0.8,0.2,1.1c0,0.5-0.4,1.2-0.7,1.5c-0.1,0.2-0.3,0.3-0.5,0.4c0,0-0.3,0.2-0.5,0.3
		c-0.2,0.1-0.3,0.2-0.5,0.3l-0.2,0.1c-0.1,0.1-0.1,0.1-0.2,0.1c-0.1,0-0.2,0.1-0.2,0.1c-0.3,0.2-0.7,0.4-1,0.5
		c-0.2,0.1-0.6,0.2-0.8,0.3c0,0-0.2,0.1-0.3,0.1c-0.2,0.1-0.3,0.1-0.4,0.1c-0.1,0-0.1,0-0.2,0.1c-0.1,0-0.2,0.1-0.3,0.1l-0.2,0.1
		l-0.1,0l-0.2,0.1c-1.3,0.5-2.5,1.1-3.8,1.3c-0.1,0-0.3,0-0.4,0c0,0,0,0-0.2,0c-0.2,0-0.6,0-0.8,0H925h-0.1c-0.9,0-1.8,0.1-2.5-0.1
		c-0.7-0.1-1.3-0.3-1.8-0.6c-0.6-0.2-1-0.5-1.3-0.9c-0.2-0.3-1-1.4-0.8-1.8c0,0,0.3-0.1,0.4-0.1c0,0,0.2-0.1,0.2-0.1
		c0.1-0.1,0.2-0.2,0.3-0.3c0.1-0.1,0.1-0.2,0.2-0.3c0-0.1,0.1-0.1,0.1-0.2c0,0,0.1-0.2,0.2-0.3c0.2-0.4,0.6-1.1,0.9-1.7
		c0.1-0.2,0.2-0.4,0.3-0.6l-4.4,4.8c0,0.2,0.1,0.4,0.1,0.7c0,0.1,0,0.1,0,0.2c0,0,0.1,0.3,0.1,0.3c-0.1,0-0.1-0.1-0.1-0.1l0-0.1
		c0,0-0.1,0.4,0,0.6l0.1,0.1l0,0.4l0,0.1l0,0.2l0,0.1l0,0.2c0,0.2,0.1,0.4,0.1,0.5c0.1,0.2,0.2,0.3,0.2,0.5c0,0.2,0.1,0.4,0.1,0.4
		c0.2,0,0.3,0.3,0.3,0.7c0.1,0.3,0.1,0.5,0.3,0.7c0.2,0.2,0.8,0.9,0.9,0.9c0,0,0,0,0.1,0.1l0.2,0.1l0.1,0c0.1,0.1,0.2,0.1,0.3,0.1
		c0.1,0,0.1,0,0.2,0l0.1,0l0.2,0.1c0.1,0,0.1,0.1,0.2,0.1l0.2,0.1c2,0.4,4.8,0.6,6.8,0C927.3,90.5,928.9,89.9,929.8,89.5z"/>
</g>
</svg>
