<?xml version="1.0" encoding="utf-8"?>
<!-- Generator: Adobe Illustrator 23.0.3, SVG Export Plug-In . SVG Version: 6.00 Build 0)  -->
<svg version="1.1" id="Layer_1" xmlns="http://www.w3.org/2000/svg" xmlns:xlink="http://www.w3.org/1999/xlink" x="0px" y="0px"
	 viewBox="0 0 1287 136" style="enable-background:new 0 0 1287 136;" xml:space="preserve">
<style type="text/css">
	.st0{fill-rule:evenodd;clip-rule:evenodd;fill:#231F20;}
	.st1{fill-rule:evenodd;clip-rule:evenodd;fill:#FFFFFF;}
	.st2{fill-rule:evenodd;clip-rule:evenodd;fill:#F41B00;}
</style>
<path class="st0" d="M483.8,60.9c0.7,0,1.4,0.1,1.9,0.4c0.2,0.1,0.4,0.2,0.6,0.4c0.2,0.1,0.5,0.4,0.6,0.5c0.4,0.2,1,1.3,1.3,1.9
	c0.4,0.7,0.6,1.6,0.8,2.4c0.2,1.3,0.1,2.9-0.1,4.2c-0.1,0.4-0.1,0.9-0.1,1.4c0,0.2-0.1,0.7-0.2,1c-0.3,1-0.7,2.3-1.2,3.1
	c-0.5,0.9-1.8,2.9-1.8,3c-0.6,0.7-2.2,2.5-2.2,2.5c-0.4,0.3-1,0.6-1.6,0.9c-0.1,0.1-1.3,1-1.3,1.1c0,0,0.5-0.1,0.6-0.1
	c0.2-0.1,0.4-0.1,0.7-0.1c0.3,0,0.3,0,0.5-0.1c0.1,0,0.4-0.1,0.6-0.1c0.2,0,0.7-0.1,0.7-0.1h0.2c0.1,0,0.2,0,0.4,0
	c0.4-0.1,1.1-0.1,1.4-0.3c0.2-0.1,0.5-0.1,0.8-0.2c0.3,0,0.6-0.1,0.9-0.2c0,0,0.9-0.1,1.4-0.1c0.2,0,0.5-0.1,0.7-0.1
	c0,0,0.6-0.1,0.8-0.1l0.3-0.1l0.2,0c0,0,0.1,0,0.3-0.1c0.4-0.1,1.7-0.4,1.7-0.4c0.5-0.2,1-0.4,1.5-0.4c0.8-0.1,1.7-0.5,2.3-0.8
	c0.8-0.3,1.6-0.7,2.4-1c0.6-0.2,1.6-0.7,2.3-1.1c0.2-0.1,0.3-0.2,0.5-0.3l0.2-0.2l0.1-0.1c0.1-0.1,0.1-0.1,0.1-0.1
	c0.1-0.1,0.4-0.2,0.4-0.3c0.1-0.1,0.2-0.1,0.2-0.2c0.1-0.1,0.2-0.2,0.3-0.2c0.4-0.3,0.8-0.8,1.1-1.3c0.3-0.4,0.7-1,1-1.3
	c0.2-0.2,1.6-2.5,1.6-2.7c0-1,0.8-2.6,1.2-3.5c0.9-1.7,2-3.4,3-5c0.1-0.1,0.3-0.3,0.4-0.4c0.1-0.1,0.3-0.3,0.6-0.5L512,62l0.1-0.1
	l0.1-0.1c0.1,0,0.1-0.1,0.2-0.2c0.1-0.1,0.1-0.1,0.2-0.2c0.6-0.6,1.4-1.1,2.4-1.2c0.5-0.1,1.1,0.2,1.6,0.3c0.6,0.2,2.3,1.9,2.6,2.4
	c0.4,0.7,0.8,1.4,1,2.3c0.1,0.4,0.4,1.2,0.4,1.4c0.1,0.5,0.3,1,0.4,1.4c0.3,0.8,0.6,1.7,0.8,2.6c0.1,0.3,0.2,1.5,0.3,2.3
	c0.1,1.1,0.3,2.5,0.1,3.4c0,0.1-0.1,0.4-0.2,0.5l-0.2,0.3l0,0.1c-0.1,0.2-0.2,0.5-0.3,0.8c-0.1,0.5-0.4,1.5-0.6,1.7
	c-0.1,0.1-0.2,0.1-0.4,0.1c-0.5,0-1.1-0.1-1.4,0l-0.1,0l-0.1,0l-0.4,0l-0.1,0l-0.3,0.1l-0.3,0h-0.5l-0.3,0c-1.3,0.1-3.6-0.2-4.7-0.6
	c-0.9-0.3-2.8-1.1-2.8-1.1c-0.3-0.1-1-0.7-1.6-1c-0.2-0.1-0.6-0.4-0.7-0.5c-0.1-0.1-0.2-0.2-0.3-0.3c-0.1-0.1-0.1-0.1-0.2-0.2
	c-0.1-0.1-0.1-0.1-0.1-0.2c-0.1-0.1-0.5,0.6-0.6,0.7l-0.2,0.3l-0.1,0.1l-0.2,0.3c-0.1,0.2-0.3,0.5-0.5,0.7c-0.2,0.3-0.3,0.5-0.5,0.8
	c-0.3,0.5-0.6,1-0.9,1.4c-0.4,0.4-0.7,0.9-1.1,1.3c-0.7,0.9-1.5,1.7-2.6,2.2c-0.5,0.3-1.1,0.6-1.6,0.9c-0.5,0.3-1,0.6-1.7,0.9
	c-1,0.4-1.8,0.7-2.9,0.9c-0.5,0.1-1.1,0.3-1.4,0.5c-0.3,0.2-1,0.3-1.7,0.4c0,0,0.2,0.4,0.2,0.4l0.2,0.2l0.1,0.1l0.1,0.1
	c0.2,0.3,0.4,0.5,0.5,0.7c0.2,0.6,0.3,1.4,0.3,2.1c0,0.2-0.1,0.5-0.2,0.7c-0.1,0.4,0,0.8,0,1.2c0.3,1.3,0.1,3-0.1,4.2
	c-0.1,0.6-0.2,1.2-0.3,1.8c0,0.1,0,0.1,0,0.3c0,0.2,0,0.5-0.1,0.7c0,0.3-0.1,0.6-0.2,0.8c0,0.1-1.5,2.1-1.6,2.1
	c-0.4,0.2-1.6,0.4-2.3,0.6c-1,0.2-2.7-0.3-3.6-0.6c-0.1,0-0.3-0.2-0.4-0.2c-0.2-0.1-0.3-0.2-0.5-0.3c-0.3-0.2-0.7-0.4-0.9-0.5
	c-0.1,0-0.5-0.4-0.8-0.5c-0.1-0.1-0.3-0.2-0.4-0.3c-0.1-0.1-0.3-0.2-0.4-0.3c-0.6-0.4-1-0.8-1.5-1.4c-0.2-0.2-0.4-0.5-0.6-0.6
	c-0.2-0.1-0.5-0.5-0.7-0.7c-0.4-0.4-1.5-2-2.3-3.1c-0.4-0.5-0.8-1.1-1.1-1.6l-0.1-0.2c0-0.1,0-0.1-0.2-0.4c-0.1-0.1-0.1-0.2-0.2-0.3
	c-0.1-0.2-0.5-1-0.6-1c-0.5-0.2-4.2,0.1-5.4,0.2c-0.5,0-1.7-0.3-2-0.6c-0.3-0.2-0.4-0.7-0.4-1.1c0-0.2-1,0-1.2,0.1
	c-0.1,0-0.2,0.1-0.3,0.1c-0.1,0-0.3,0.1-0.4,0.1c-0.6,0.1-1.1,0.3-1.6,0.4c-0.7,0.2-1.9,0.3-2.7,0.4c-0.4,0-0.9,0.1-1.3,0.2
	c-0.4,0.1-0.6,0-1,0c-0.3,0-0.7,0-1.1,0.1l-0.2,0.1l-0.3,0.1l-0.9,0l-0.3,0c-0.3,0.1-0.7,0.1-1.1,0c-0.4-0.1-0.6-0.1-1,0
	c-2,0.3-4.1,0.6-6.4,0.7c-0.7,0.1-1.3,0.1-2,0.1c-0.8,0-1.6,0-2.4,0.1c-0.8,0.1-1.7,0.3-2.5,0.4c-0.3,0-0.6,0.1-0.8,0.1
	c0,0-0.6,0-0.8,0.1l-0.3,0l-0.5,0l-0.5,0l-0.1,0l-0.1,0c-0.1,0-0.1,0-0.2,0.1c-0.5,0.1-0.9,0.1-1.3,0.1c-0.7-0.1-2-0.1-2.8-0.1
	c-0.9,0-1.7,0.1-2.5,0.1c-1.2,0.1-2.4,0.1-3.6,0.1c-0.6,0-1.3,0-1.9-0.1c-0.3,0-0.4,0-0.9,0H422l-0.3,0l-0.1,0c-0.2,0-0.8,0-1.1,0
	c-0.3,0-0.3,0-0.6-0.1c-0.1,0-0.3-0.1-0.5,0l-0.2,0l-0.1,0c-0.1,0-0.2,0-0.3,0c-0.2,0-0.3-0.1-0.4-0.2c-0.1-0.1-0.1-0.1-0.7-0.1
	c-0.2,0-1.3-0.1-1.4-0.2c-0.1-0.1-2-1.1-2.3-1.2l-0.1-0.1l-0.1-0.1c-0.1,0-0.3-0.1-0.4-0.1c-0.1,0-0.1,0-0.3-0.1l-0.2-0.1l-0.1-0.1
	l-0.1,0c0,0,0,0-0.1-0.1c-0.1-0.1-0.1-0.1-0.2-0.2h-0.1c-0.2,0.1-0.2,0.1-0.2,0.1l0-0.1c0,0,0.1-0.1,0-0.1l-0.2,0l0-0.1
	c0,0-0.2-0.1-0.3-0.1l-0.2-0.1c0,0-0.3,0-0.4,0l-0.1-0.2c-0.3-0.3-0.6-0.5-0.9-0.8c-0.2-0.3-1.6-1.6-1.9-1.5c-0.1,0-0.8,0.5-1.1,0.7
	c0,0-0.5,0.2-0.7,0.3c-0.1,0-0.3,0.3-0.5,0.5c-0.2,0.2-0.7,0.5-1.2,0.7l-0.1,0c0,0-0.2,0.1-0.2,0.1l-0.1,0.1
	c-0.1,0.1-0.1,0.1-0.2,0.1c-0.3,0.1-0.6,0.2-0.8,0.4c-0.3,0.2-0.7,0.5-1.1,0.7l-0.1,0c-0.3,0.1-0.3,0.1-0.3,0.1l-0.1,0
	c-0.2,0-0.2,0-0.3,0.1c-0.2,0.1-0.3,0.1-0.4,0.1c-0.1,0.1-0.3,0.2-0.5,0.2c-0.5,0.1-0.9,0.3-1.4,0.5c-0.5,0.2-1.1,0.5-1.4,0.6
	c-0.3,0.1-0.7,0.1-0.8,0.2c-0.2,0-0.3,0.1-0.6,0.1l-0.1,0l-0.2,0c-0.1,0-0.8,0.1-0.8,0.1c0,0-0.5,0-0.6,0l-0.1,0l-0.2,0l-0.2,0
	l-0.7,0l-0.1,0c-0.6,0-1-0.1-1.2-0.1c-0.9-0.4-2.1-0.8-2.7-1.2c-0.7-0.4-2-1.3-2.1-1.5c0,0-0.2-0.3-0.3-0.4l-0.2-0.2
	c0-0.1-0.4-0.5-0.5-0.8c-0.1-0.1-0.2-0.3-0.3-0.3c-0.1-0.1-0.3-0.4-0.5-0.6c-0.1-0.1-0.2-0.3-0.3-0.5c-0.6-1.4-1.1-2.6-1.6-4.2
	c-0.2-0.7-0.4-1.5-0.6-2.3c-0.1-0.5-0.3-1.2-0.3-1.6l0-0.1l0-0.1l0-0.2l0-0.1l0-0.2l0-0.1l0-0.2c0-0.1-0.1-0.3-0.1-0.4
	c0-0.2-0.1-0.3-0.1-0.5c0-0.2-0.1-0.4-0.1-0.6l0-0.1l0-0.1l0-0.1c-0.1-0.3-0.1-0.3-0.1-0.3l0-0.1l0-0.2l0-0.1l0-0.1l0-0.1
	c-0.1-0.4-0.2-1-0.3-1.3c-0.1-0.4-0.2-0.8-0.3-1.3c-0.2-1.1-1-4.9-1.2-5.2c-0.1-0.1-0.5,0.6-0.5,0.6l-0.1,0.1l-0.1,0.1
	c-0.1,0.1-0.1,0.1-0.1,0.2c-0.1,0.2-0.1,0.3-0.2,0.5c-0.3,0.6-0.8,1.3-1,1.7c-0.2,0.3-0.8,0.9-1.2,1.2c-0.4,0.4-0.9,0.8-1.2,1.2
	c-0.2,0.2-1.1,0.7-1.4,0.8c0,0-0.5,0.2-0.7,0.3c-0.2,0.1-0.3,0.1-0.5,0.1c-0.2,0-0.4,0.1-0.4,0.2c0,0.5,0.1,1,0.2,1.5
	c0.1,0.7,0.2,1.3,0.2,2.1c0,0.4,0.1,0.7,0.1,1c0.1,0.6,0.1,1.5,0,2.1c0,0.3,0,0.4,0,0.6l0,0.3l0,0.7c0,0.3-0.1,0.8-0.2,1.1
	c-0.1,0.4-0.3,0.9-0.3,1.3c-0.1,0.6-0.2,1.3-0.4,1.6c-0.1,0.2-0.1,0.4-0.2,0.6c0,0.2-0.2,0.8-0.2,0.8c-0.1,0.3-0.2,0.6-0.3,1.1
	c0,0.2-0.2,0.5-0.3,0.7c-0.2,0.4-0.8,1.7-1.2,2.6c0,0.1-0.1,0.2-0.1,0.3c0,0.1-0.1,0.2-0.1,0.3c-0.1,0.2-0.2,0.5-0.2,0.6
	c-0.2,0.4-0.4,0.7-0.7,1.1c-0.2,0.3-0.5,0.5-0.9,0.7c-0.4,0.2-0.7,0.5-1.1,0.8c0,0-0.3,0.3-0.4,0.5c-0.1,0.1-0.3,0.3-0.4,0.4
	c-0.4,0.2-0.7,0.5-1,0.8c-0.1,0.1-1.2,0.6-2.2,1.1c-0.1,0.1-0.2,0.1-0.3,0.2c-0.1,0.1-0.2,0.1-0.4,0.2c-0.2,0.1-0.5,0.2-0.7,0.3
	c-0.1,0.1-0.2,0.1-0.3,0.2c-0.1,0.1-0.1,0.1-0.2,0.2c-0.1,0.1-0.4,0.2-0.6,0.3c-0.2,0.1-0.3,0.1-0.6,0.2c-0.3,0-0.6,0.1-0.9,0.1
	c-0.1,0-0.2,0.1-0.3,0.1c-0.1,0.1-0.2,0.1-0.3,0.1c-0.2,0.1-0.4,0.1-0.7,0.1c0,0-0.4,0.1-0.4,0.2c-0.2,0-0.5,0.1-0.6,0.1h-0.4
	l-0.2,0c-0.1,0-0.1,0.1-0.2,0.2c-0.1,0.1-0.2,0.2-0.4,0.3c-0.4,0.1-3.5,0.2-5,0.2c-1.6,0-3.5-0.3-5.1-0.5c-0.7-0.1-2-0.4-2.5-0.8
	c-0.5-0.4-1.2-0.7-1.8-1l-0.2-0.1c-0.1-0.1-0.1-0.1-0.1-0.1l-0.2-0.1l-0.1,0l-0.1-0.1l-0.1-0.1c-0.2-0.1-0.4-0.2-0.5-0.2
	c-0.1,0-0.1,0-0.2-0.2c-0.1-0.1-0.1-0.1-0.2-0.1c-0.3-0.2-2.3-2.3-2.5-2.6c0,0-0.2-0.4-0.3-0.6l-0.1-0.1c-0.1-0.1-0.1-0.1-0.1-0.1
	l-0.2-0.3c-0.2-0.3-0.6-1.2-0.6-1.3c-0.1-0.3-0.1-0.6-0.2-0.9c0-0.3-0.1-0.4-0.1-0.8c0-0.3,0-0.5-0.1-0.7c-0.1-0.2-0.1-0.3-0.1-0.7
	l0-0.1c0-0.1,0-0.1-0.1-0.2c0-0.2-0.1-0.5-0.1-0.8c0-0.3,0-0.6-0.1-0.8c-0.2-0.8,0-2.8,0.2-3.6c0.1-0.2,0.3-1.6,0.4-2.3
	c0-0.3,0.6-2,1-3c0-0.1,0.2-0.5,0.3-0.7c0.1-0.3,0.2-0.5,0.4-0.8c0.1-0.3,0.2-0.5,0.4-0.8c0.1-0.3,0.3-0.6,0.4-0.8
	c0-0.1,0.1-0.2,0.1-0.3c0-0.1,0-0.1,0.1-0.3c0-0.1,0-0.2,0.1-0.3l0-0.1l0.1-0.3l0-0.1l0.1-0.2c0.1-0.2,0.2-0.5,0.4-0.7
	c0.1-0.1,0.4-0.5,0.5-0.5l0.5,0l0.2,0.1c0.1,0.1,0.1,0.1,0.1,0.1c0.1,0.2,0.1,0.4,0.1,0.6c0,0.2-0.2,0.5-0.2,0.7l-0.2,0.3
	c-0.1,0.1-0.1,0.2-0.1,0.3c0,0.1-0.1,0.3-0.1,0.3c0,0.1,0,0.2-0.1,0.3c-0.1,0.1-0.2,0.5-0.2,0.8c0,0.2-0.1,0.4-0.2,0.6
	c-0.2,0.5-0.3,1.1-0.5,1.6c-0.4,1.5-0.7,3-0.5,4.7c0,0.1,0.1,0.3,0.2,0.4c0,0.1,0.1,0.2,0.1,0.4c0,0.3,0.1,0.6,0.1,1v0.2v0.2
	c0,0.5,0.2,1.4,0.4,2.1c0.3,1.3,2.9,3.9,4,4.4c0.9,0.5,2.7,1.4,3,1.5c1,0.2,2,0.5,2.9,0.6c0.8,0.1,1.8,0.1,2.5,0.1
	c0.9-0.1,1.8-0.1,2.8-0.2c0.9,0,2-0.2,2.9-0.3c0.1,0,0.3-0.1,0.4-0.2c0.1-0.1,0.3-0.1,0.3-0.1c0,0,0.2-0.1,0.3-0.1
	c0,0,0.2-0.1,0.2-0.1c0.1-0.1,0.2-0.1,0.2-0.1l0.8-0.2l0.1,0l0.1,0l0.1,0c0.2-0.1,0.3-0.1,0.5-0.1c1-0.2,2.2-0.6,3.1-1
	c1-0.6,2.4-1.3,3.1-1.8c0,0,0.2-0.2,0.3-0.3c0.1-0.1,0.2-0.2,0.3-0.2c0.1-0.1,0.2-0.2,0.3-0.3c0.1-0.1,0.3-0.2,0.4-0.3
	c0.2-0.2,0.5-0.3,0.7-0.5c0.1-0.1,0.2-0.2,0.3-0.3c0.1-0.1,0.3-0.3,0.4-0.3c0.8-0.4,1.9-3.2,2.4-4.4c0.2-0.5-0.5-3.4-0.7-3.9
	c-0.1-0.2-0.3-1.1-0.4-1.6c-0.1-0.7-0.3-1.4-0.5-1.8l0-0.1c0-0.1,0-0.1-0.1-0.2c-0.1-0.2-0.1-0.4-0.2-0.5c-0.2-0.3-0.4-0.6-0.5-1
	l-0.1-0.2l-0.1-0.1l-0.1-0.1c-0.1-0.2-0.2-0.4-0.3-0.6c-0.1-0.2-0.2-0.4-0.3-0.6l-0.1-0.2c0,0-0.1-0.2-0.1-0.2
	c-0.2-0.5-0.6-1.4-0.9-2.1c-0.1-0.3-0.3-0.7-0.5-1.1c-0.2-0.3-0.5-0.7-0.5-1c0-0.2,0.1-1.2,0.2-1.7c0-0.2,0.1-0.7,0.1-0.8
	c0,0-0.1-0.2-0.1-0.3c-0.1-0.2,0-0.5,0-0.6l0-0.1l0-0.1l0-0.1l0-0.1l0.1-0.2c0-0.1,0.1-0.2,0.1-0.3l0.1-0.3l0-0.1l0-0.5
	c0-0.2,0.1-0.4,0.3-0.5c0.1-0.1,0.4-0.2,0.5-0.1c0.7,0.3,1.3,1.6,1.7,2.5c0.1,0.2,0.2,0.5,0.3,0.8c0,0.1,0.1,0.2,0.2,0.3
	c0.1,0.1,0.1,0.1,0.1,0.2c0,0.1,0.1,0.2,0.1,0.3c0.2,0.5,0.6,0.9,1,1.2c0.1,0.1,1.2-0.3,1.4-0.4l0.5-0.2c0,0,0.3-0.1,0.4-0.1
	c0.1,0,0.1,0,0.5-0.1c0.2,0,0.3,0,0.5-0.1c0.4-0.1,1.8-0.9,2.7-1.5c0.5-0.3,1.4-1.5,1.7-2c0.5-0.8,0.9-1.7,1.2-2.7
	c0,0,0.2-0.9,0.3-1.2c0-0.2,0.1-0.6,0.1-0.7c0-0.3,0.1-1,0.2-1c0.5-0.4,0.5-0.4,1.1,0.1c0.3,0.3,1.8,4.2,1.9,5
	c0.2,0.9,0.7,3.3,0.7,3.3c0.3,0.8,0.5,1.8,0.6,2.9c0.2,1.2,0.4,2.6,0.7,3.5c0.1,0.2,0.1,0.4,0.1,0.6c0,0.2,0.1,0.5,0.2,0.8
	c0,0.2,0.1,0.5,0.2,0.6l0.2,1.1c0.5,1.7,1,3.3,1.7,4.8c0.7,1.4,1.8,2.6,2.9,3.5c0.4,0.3,1.7,1,2.6,1.5c1,0.5,4,0.8,5,0.4
	c0,0,0.4-0.1,0.4-0.1c0.2,0,0.2,0,0.3-0.1c0.2,0,0.4-0.1,0.5-0.2c0.1,0,0.3-0.1,0.4-0.1c0.2-0.1,0.5-0.1,0.6-0.2
	c0.7-0.3,1.3-0.5,2.1-0.8c0.8-0.3,3.6-1.5,3.9-1.9c0.4-0.4-2.4-2.5-2.5-2.7c-1-0.7-2.2-1.4-3.8-1.6c-0.7-0.1-2.1-0.2-2.6,0.2
	c-0.1,0.1-0.2,0.1-0.2,0.2c-0.1,0.1-0.2,0.1-0.2,0.2c-0.1,0.1-0.2,0.1-0.3,0.2c-0.1,0.1-0.2,0.2-0.4,0.2c-1.2,0.4-1.1-1-0.8-1.7
	l0.1-0.2c0.1-0.1,0.1-0.1,0.1-0.2c0-0.1,0-0.1,0.1-0.3l0-0.1l0.2-0.2c0-0.1,0.1-0.1,0.1-0.2c0,0,0-0.1,0.1-0.6
	c0-0.2,0.1-0.3,0.2-0.7c0.1-0.2,1.1-2,1.3-2.2c0.1-0.1,0.2-0.2,0.3-0.3c0.1-0.2,0.2-0.2,0.4-0.4c0.4-0.2,0.7-0.5,1.1-0.7
	c0.6-0.3,1.7-0.8,2.6-1.2c0.8-0.3,2-0.8,2.4-0.9c1.2-0.3,5.9-0.6,6.9-0.2c0,0,0.7,0.2,1,0.3c0.3,0.1,0.9,0.2,1,0.2
	c0.6,0.2,1.1,0.5,1.6,0.9c0.5,0.5,1,1.1,1.4,1.7c0.5,0.9,0.9,2,0.9,3.4c0,0.5-1,3.3-1.2,3.7c-0.5,0.9-1.3,1.9-2.1,2.5
	c-0.2,0.2-0.5,0.4-0.6,0.5c-0.1,0.1-0.7,0.5-0.4,0.7c0.1,0.1,0.4,0.2,0.4,0.2c0.1,0.1,0.2,0.2,0.4,0.3c0.3,0.2,0.7,0.4,0.9,0.5
	c0.6,0.3,1.2,0.5,1.9,0.6c0.1,0,0.3,0.1,0.6,0.2l0.2,0.1c0.1,0,0.2,0.1,0.2,0.1c0.5,0,0.6,0.1,0.7,0.1l0.2,0.1
	c0.1,0,0.2,0.1,0.3,0.1c1.1,0.4,5.9,1.2,7.2,0.6l0.2-0.1c0,0,0.4-0.3,0.5-0.4l0.2-0.1l0.1-0.1c0.1-0.1,0.2-0.1,0.2-0.2
	c0.4-0.3,1.2-0.8,1.7-1.2c0.6-0.4,1.2-0.8,1.6-1.2c0.2-0.2,0.5-0.4,0.7-0.6c0,0,0.3-0.2,0.4-0.3c0.1-0.1,0.4-0.3,0.4-0.4
	c0,0,0.1-0.4,0.1-0.5c0,0,0.1-0.2,0.1-0.2c0,0,0.1-0.2,0.1-0.2c0.1-0.8,0.2-2.2,0.2-2.5c0.4-1.7,0.3-4,0.3-5.8
	c-0.1-1.4-0.2-2.7-0.5-4.1c0-0.2,0-0.2-0.1-0.4c0-0.3,0-0.3-0.1-0.4c0-0.1,0-0.1-0.1-0.3c0-0.2,0-0.2-0.1-0.3l-0.1-0.3l0-0.1l0-0.2
	c0-0.1,0-0.1-0.1-0.4c0-0.2,0-0.4-0.1-0.5c-0.2-0.9-0.3-1.9-0.5-2.7c-0.1-0.8-0.3-1.8-0.5-2.5c0-0.1-0.1-0.3-0.1-0.4
	c0,0-0.1-0.2-0.1-0.3l0-0.7l0-0.1c-0.1-0.3-0.2-0.7-0.3-1c0-0.1,0-0.1-0.1-0.2l-0.1-0.3l-0.1-0.2l0-0.1l0-0.1l-0.1-0.3l0-0.1
	c0-0.1-0.1-0.4-0.1-0.5c-0.1-0.2-0.2-0.6-0.3-0.9c0-0.1-0.1-0.3-0.1-0.4c0-0.2-0.1-0.4-0.1-0.6c0-0.3,0-0.7-0.1-0.8
	c-0.1-0.8-0.3-1.7-0.5-2.5c-0.4-1.6-0.7-3.3-1-4.9c-0.3-1.5-0.7-3-1.1-4.3c-0.2-0.7-0.5-1.6-0.7-2c-0.3-0.5-0.7-1.1-0.8-1.8
	c-0.2-0.7-0.5-2.4-0.5-2.4c0-0.3,0.4-1.2,0.6-1.6l0.1-0.2l0.2-0.3c0,0,0,0,0.1-0.3v-0.2v-0.3c0-0.1,0.1-0.3,0.2-0.4
	c0.3-0.4,0.5-0.8,0.7-1.3c0.2-0.6,0.5-0.9,1-1.2c0.2-0.1,0.5,0.1,0.6,0.2c0.2,0.4,0.3,0.8,0.4,1.5c0,0.5,0.1,1.5,0.3,1.7l0,0.1
	l0.1,0.1l0.1,0.1l0.1,0.2c0.1,0.3,0.1,0.3,0.1,0.3c0,0,0.3,0.5,0.5,0.6c0.3,0.5,0.7,0.9,1.2,1.2c0.2,0.1,0.5,0.3,0.7,0.4
	c0.2,0.1,0.5,0.3,0.7,0.4c0.3,0.2,1.1,0.8,1.2,1.2c0.1,0.7-0.7,2.2-1.1,3c-0.1,0.2-0.3,0.6-0.3,0.7l0,0.1l0,0.1l0,0.1
	c0,0.1-0.1,0.2-0.1,0.3c-0.2,0.4-0.5,0.7-0.9,0.9c0,0,0.1,0.2,0.1,0.2c0,0.1,0.1,0.2,0.1,0.2c0,0.2,0,0.2,0.1,0.2
	c0,0.1,0.1,0.3,0.1,0.3c0.1,0.9,0.2,1.9,0.3,2.5c0.2,1,0.5,1.9,0.7,2.7c0,0.1,0.1,0.3,0.1,0.5l0,0.1c0,0.2,0.1,0.4,0.1,0.5
	c0.1,0.2,0.1,0.5,0.2,0.7c0,0.2,0.1,0.5,0.1,0.7c0.2,0.7,0.5,1.7,0.7,2.5c0.2,0.7,0.4,2.3,0.5,3.3c0.1,0.5,0.2,1,0.3,1.4
	c0.1,0.2,0.2,0.6,0.2,0.8l0,0.3l0,0.3c0,0.2,0.1,0.7,0.1,0.7l0,0.1l0,0.4c0,0.1,0,0.2,0.1,0.3c0,0.1,0,0.1,0.1,0.4
	c0,0.2,0.1,0.4,0.1,0.7c0,0.1,0,0.1,0.1,0.3c0,0.1,0.1,0.4,0.1,0.5c0,0.3,0.1,0.9,0.1,1c0.2,0.9,0.2,2.2,0.3,3.2
	c0,1.2,0.1,2.8,0,3.6c0,0-0.1,1.3-0.1,1.7c0,0.5-0.1,1-0.2,1.4l0,0.2l0,0.2l0,0.5l0,0.2c0,0.2,0,0.2-0.1,0.4l0,0.2l0,0.1l0,0.1
	c-0.1,0.4-0.2,0.8-0.3,1.2c-0.1,0.5-0.3,1.2-0.2,1.6c0,0,0.3-0.3,0.4-0.3l0.2-0.2c0.1-0.1,0.2-0.2,0.4-0.4c0.1-0.1,0.1-0.1,0.3-0.3
	c0.1-0.1,0.2-0.2,0.2-0.2c0.6-0.5,1.2-1,1.8-1.5c1.1-1,2.5-2.3,3.3-3.2c1-1.1,2.2-2.1,3.3-3.1c0.3-0.2,0.6-0.5,0.9-0.7
	c0.4-0.2,0.8-0.5,1.1-0.7c0.6-0.5,1.2-1,2-1.3c1.2-0.5,2.6-1.1,4.1-1.1c0.7,0,1.3,0.1,1.9,0.3c0.4,0.1,1.2,0.2,1.8,0.3
	c0.8,0.1,1.7,0.4,2.3,0.8c1,0.5,2.7,2.9,2.7,4.4c0,0.2,0,0.4-0.1,0.5C460,73,460,73,460,73c0,0.1,0,0.1-0.1,0.2c0,0-0.1,0.5-0.1,0.8
	c0,0.3-0.1,0.8-0.1,1c-0.1,0.8-0.4,2.4-0.5,2.5l0,0.1l0,0.2c0,0.1-0.1,0.3-0.2,0.5l0,0.1l0,0.1l-0.1,0.2l-0.1,0.3
	c-0.2,0.4-0.4,1-0.6,1.3c-0.4,0.8-0.9,1.5-1.3,2.2c-0.3,0.5-0.9,1.1-1.4,1.5c-0.3,0.2-1.2,1.3-1.3,1.6c0,0.1,1.9-0.3,2-0.3
	c0.2,0,0.4-0.1,0.6-0.1c0.1,0,0.4,0,0.6-0.1l0.3,0l0.3,0l0.3,0l0.3,0l0.5,0c0.2,0,0.2,0,0.4-0.1l0.1,0l0.1,0l0.1,0l0.2-0.1l0.1,0
	c0.2,0,0.4-0.1,0.6-0.1c0.2,0,0.6-0.1,0.7-0.1c0.1,0,0.2-0.1,0.3-0.1c0.1,0,0.2-0.1,0.4-0.1c0.3,0,0.9-0.2,1-0.2
	c0.4-0.2,1.8-0.5,2.5-0.7l0.2,0l0.1,0c0.2,0,0.3-0.1,0.4-0.1c0.2-0.1,0.4-0.1,0.6-0.2c0.1,0,0.4-0.1,0.6-0.2c0,0,0.2-0.1,0.3-0.1
	c0.1,0,0.2-0.1,0.3-0.1c0.2,0,0.2,0,0.2-0.1l0.1-0.1l0.2-0.1c0.2-0.1,0.6-0.2,0.6-0.2c0.4-0.1,0.8-0.3,1.3-0.4
	c0.2-0.1,0.4-0.1,0.7-0.2c0.2,0,0.5-0.1,0.7-0.2c0.4-0.1,0.7-0.3,1.1-0.5l0.1-0.2l0.1-0.2c0.1-0.1,0.1-0.3,0.2-0.4
	c0-0.1,0.2-0.5,0.3-0.8c0.2-0.6,0.4-1.3,0.7-1.8l0.1-0.2l0-0.1l0-0.1c0-0.1,0.1-0.3,0.1-0.4l0.1-0.4c0.1-0.2,0.1-0.4,0.2-0.5
	l0.3-0.9c0-0.1,0.2-0.7,0.4-1c0.4-1.2,1.5-3.9,1.6-4.1c0.2-0.4,0.6-1.2,0.8-1.8c0.1-0.3,0.5-1,0.5-1c0-0.1,0.2-0.4,0.3-0.5l0.2-0.2
	c-0.1-0.1-0.1-0.1,0-0.2l0.1-0.1l0-0.1l0.1-0.2c0.1-0.3,0.2-0.5,0.4-0.8c0.3-0.5,0.6-0.9,0.9-1.4C480.7,63.2,483.3,61,483.8,60.9z"
	/>
<path class="st0" d="M338,49.4c1.1-0.7,3.9-2.1,6.1-3.2c0.5-0.2,1.5-0.7,1.6-0.8c0.6-0.2,1.1-0.5,1.7-0.8c0.1,0,0.5-0.2,0.8-0.3
	c0.1-0.1,0.2-0.1,0.4-0.2c0,0,0.3-0.1,0.4-0.2c0.4-0.2,1.2-0.6,1.7-0.8c1.1-0.5,2.2-1.1,3.3-1.5c0.3-0.1,0.5-0.2,0.8-0.4
	c0.3-0.1,0.7-0.4,0.8-0.4c0.2-0.1,0.4-0.2,0.7-0.3c0.3-0.1,0.5-0.3,0.8-0.4c1-0.3,2.1-1,3-1.5c0.5-0.3,1.1-0.6,1.5-0.8
	c0.3-0.1,0.6-0.2,0.9-0.4c0.1,0,0.3-0.2,0.4-0.2c0.1-0.1,0.3-0.2,0.4-0.2c0.2-0.1,0.4,0.1,0.5,0.2c0.6,0.5,0.3,2.6-0.1,3.2
	c-0.2,0.3-0.6,0.8-0.8,0.9c-0.7,0.2-1.1,0.4-1.7,0.7c-0.5,0.3-1.1,0.5-1.6,0.7c-0.6,0.2-1.2,0.5-1.8,0.7c-0.3,0.1-0.5,0.3-0.7,0.4
	c-0.3,0.2-0.5,0.3-0.9,0.4c-0.5,0.2-1.2,0.5-1.7,0.7c-0.2,0.1-0.5,0.2-0.7,0.4c-0.3,0.1-0.5,0.3-0.8,0.4c-0.6,0.2-1.2,0.5-1.7,0.7
	c-0.5,0.3-1.1,0.6-1.5,0.8c-0.3,0.1-0.5,0.2-0.8,0.4c-0.2,0.1-0.5,0.2-0.7,0.3c-0.3,0.1-0.5,0.2-0.8,0.3l-0.1,0.1
	c-0.1,0.1-0.1,0.1-0.2,0.1c-0.1,0.1-0.1,0.1-0.2,0.1c0,0-0.1,0.1-0.2,0.1c-0.4,0.2-0.9,0.4-1.3,0.7c-0.1,0.1-0.2,0.1-0.3,0.2
	l-0.2,0.1l-0.1,0l-0.1,0l-0.9,0.4c-1,0.4-2.8,1.2-3.3,1.6c-0.1,0.1-0.2,0.1-0.3,0.2c-0.1,0.1-0.3,0.2-0.4,0.2l-0.1,0.1l-0.1,0.1
	l-0.1,0.1c-0.1,0.1-0.4,0.2-0.4,0.2c-0.3,0.3-0.9,0.8-1.2,0.9c-0.2,0-0.4-0.1-0.5-0.2C336.9,52.4,337.7,49.7,338,49.4z"/>
<path class="st0" d="M347.8,60.1l0.1-0.1l0.1-0.1l0.1-0.2c0-0.1,0-0.1,0.2-0.2c0.1-0.1,0.1-0.1,0.1-0.2c0.1-0.1,0.2-0.2,0.2-0.4
	c0.1-0.1,0.1-0.1,0.1-0.4c0-0.2,0-0.3,0.1-0.4c0.3-0.4,0.7-0.4,1.1-0.1c0,0,0.2,0.2,0.3,0.2c0.1,0,0.1,0.1,0.2,0.1
	c0,0,0.1,0.1,0.2,0.2c1.1,0.7,2.9,2,3.3,2.3c0.4,0.3,1.1,1,1.2,1.4c0.1,0.4,0,0.9-0.1,1.2c-0.1,0.3-1.7,2.6-1.9,2.8
	c-0.3,0.2-0.6,0.5-0.9,0.6c-0.1,0-0.5-0.2-0.7-0.3c-0.2-0.1-0.5-0.3-0.9-0.4l-0.3-0.1l-0.1,0l-0.2-0.1c-0.1,0-0.2-0.1-0.3-0.1
	c-0.1,0-0.3-0.1-0.4-0.1c-0.3-0.1-0.5-0.2-0.6-0.5c0-0.1-0.4-0.3-0.6-0.4c-0.1-0.1-0.2-0.1-0.3-0.2c-0.1-0.1-0.3-0.2-0.3-0.2
	c-0.1-0.1-0.3-0.2-0.3-0.2l-0.1-0.1L347,64c-0.1-0.1-0.1-0.8-0.1-0.9c0.1-0.2,0.1-0.4,0.2-0.6c0.1-0.2,0.2-0.4,0.3-0.7
	c0,0,0.1-0.2,0.1-0.2l0.1-0.1c0.1-0.1,0.1-0.1,0.1-0.2l0-0.1l0-0.5v-0.1C347.7,60.3,347.8,60.2,347.8,60.1z"/>
<path class="st0" d="M419,101c0.2,0.1,0.4,0.3,0.6,0.5c0.3,0.5-0.2,2.6-0.5,3c-0.1,0.2-0.4,0.4-0.6,0.5c-0.1,0-0.5,0.2-0.9,0.4
	c-0.3,0.1-0.7,0.3-1,0.4c-0.2,0.1-0.7,0.3-1,0.4c-0.1,0-0.1,0.1-0.2,0.1l-0.2,0.1l-0.1,0.1l-0.1,0.1l-0.1,0.1l-0.1,0.1l-0.1,0.1
	c-0.3,0.2-0.6,0.3-1,0.5c-0.2,0.1-0.6,0.3-0.9,0.5c-0.2,0.1-0.4,0.2-0.5,0.3c-0.1,0-0.1,0-0.2,0.1c-0.1,0-0.3,0.1-0.3,0.1
	c-0.4,0.1-0.9,0.3-1.3,0.3c-0.8,0.1-1.3,0.2-1.9,0.5c-0.6,0.3-1.2,0.5-1.9,0.7c-0.5,0.1-1.2,0.5-1.8,0.7c-0.2,0.1-1.2,0.5-1.9,0.7
	c-0.3,0.1-0.6,0.3-1,0.4c-0.1,0.1-0.4,0.2-0.4,0.2l-0.2,0.1c-0.1,0-0.2,0.1-0.3,0.1c-0.4,0.2-0.7,0.3-1.1,0.4
	c-0.3,0.1-0.8,0.3-1,0.3c-0.4,0.2-1.4,0.6-2,0.9c-0.1,0.1-0.3,0.1-0.4,0.2c-0.1,0.1-0.3,0.1-0.4,0.2c-0.4,0.1-0.8,0.2-1.1,0.4
	l-0.1,0.1l-0.3,0.2c-0.1,0.1-0.1,0.1-0.2,0.1c-0.1,0.1-0.2,0.2-0.2,0.2c-0.3,0.2-0.9,0.5-1.3,0.2c-0.6-0.5,0.5-3.4,0.8-3.7
	c0.2-0.2,2.5-1.2,3.1-1.4c1.2-0.5,2.3-0.9,3.5-1.4c0.1,0,0.2-0.1,0.3-0.1c0,0,0,0,0.2-0.1l0.3-0.1l0.1,0l0.2-0.1l0.2-0.1
	c0.2,0,0.2,0,0.2-0.1c0.5-0.2,1.5-0.5,1.7-0.6c0.6-0.3,2.2-0.8,3.4-1.2c1-0.3,2-0.7,3-1.1c0.4-0.2,0.9-0.3,1.4-0.5
	c0.5-0.2,1.4-0.4,1.6-0.5c1.1-0.4,2.1-1,3.1-1.5C416.5,102,418.4,101,419,101z"/>
<path class="st0" d="M428.3,108.3c2-0.9,4-1.7,6-2.5c0.8-0.3,2.9-1,2.9-1c0.9-0.4,1.9-0.8,2.9-1.1c1.9-0.6,4.3-1.5,6.4-2.3
	c0.3-0.1,0.7-0.3,0.9-0.3l0.1-0.1l0.2-0.1c0.2-0.1,0.2-0.1,0.2-0.1c0.1,0,0.1,0,0.2-0.1c0,0,0.6-0.2,0.8-0.3
	c0.3-0.1,0.6-0.3,0.9-0.4c0.6-0.2,1.3-0.5,1.8-0.7c0.3-0.1,0.6-0.3,0.9-0.5l0.1-0.1l0.3-0.2c0.1,0,0.1-0.1,0.2-0.1
	c0.5-0.2,0.8,0.6,0.9,1c0.1,0.4-0.3,1.9-0.4,2.3c-0.2,0.4-0.7,0.9-1.1,1.1l-0.6,0c-0.1,0-0.3,0-0.3,0.1c-0.2,0-0.3,0.1-0.4,0.2
	l-0.1,0.1l-0.1,0.1l-0.1,0.1l-0.1,0l-0.1,0l-0.2,0.1c-0.1,0.1-1,0.4-1.5,0.7c0,0-0.4,0.1-0.5,0.2l-0.7,0.2c-0.5,0.2-1.2,0.4-1.5,0.5
	l-0.1,0.1l-0.2,0.1l-0.1,0c-0.2,0.1-0.3,0.1-0.3,0.1c-0.1,0-0.2,0.1-0.3,0.1c-0.2,0.1-0.4,0.1-0.5,0.2c-0.4,0.2-1.2,0.6-1.4,0.6
	c-0.2,0.1-1,0.3-1.5,0.5c-0.5,0.2-1.3,0.4-1.6,0.5c-1,0.4-2,0.8-3.1,1.2l-0.1,0l-0.2,0.1l-0.1,0c-0.1,0.1-0.1,0.1-0.2,0.1l-0.1,0
	l-0.1,0.1l-0.1,0.1l-0.2,0.1l-0.2,0.1l-0.1,0l-0.1,0.1l-0.1,0l-0.1,0l-0.1,0l-0.3,0.1c-0.1,0-0.1,0-0.2,0.1l-0.2,0.1l-0.2,0.1
	c-1.1,0.3-2.1,0.8-3,1.3c-0.1,0.1-0.2,0.1-0.4,0.1c-0.1,0-0.2,0.1-0.3,0.1c-0.3,0.1-0.5,0.2-0.8,0.3c-0.1,0.1-0.2,0.1-0.3,0.2
	c-0.1,0.1-0.2,0.2-0.4,0.2c-0.2,0.1-0.7,0.3-0.8,0.4c-0.1,0-0.3,0-0.3,0l-0.1-0.1l-0.1-0.1C426.7,111.8,428.1,108.4,428.3,108.3z"/>
<path class="st1" d="M457.4,76.2c-0.1,0-0.7-0.1-0.7-0.1c0,0-0.4-0.6-0.5-0.7c-0.2-0.2-0.4-0.5-0.6-0.7c-0.5-0.4-1.1-0.7-1.7-1
	c-0.7-0.3-1.4-0.6-2.3-0.7c-0.5-0.1-1-0.1-1.4-0.2c-0.3-0.1-1-0.2-1.2-0.2c-3.5,0.2-5.5,1.9-7.5,3.6c-1.4,1.2-3.6,3.4-5.5,5.3
	c-0.9,0.9-1.9,1.7-2.9,2.5c-0.5,0.4-1,0.8-1.4,1.3c-0.4,0.5-0.8,1-1.3,1.3c-0.1,0.1,1.8-0.1,2.3-0.1c0.2,0,0.5-0.1,0.7-0.1l0.2,0
	l0.2,0l0.1,0c1-0.1,2-0.1,2.9-0.1c0.4,0,0.8,0,1.1-0.1c0.2,0,0.5-0.1,0.6-0.1c0.1,0,0.4-0.1,0.5-0.1c0.6,0,1-0.1,1.4-0.2
	c0.7-0.2,1.6-0.4,2.1-0.5c0.7-0.1,1.3-0.3,2-0.5c0.2-0.1,0.5-0.1,0.7-0.2c0.2-0.1,0.5-0.2,0.8-0.3c0.5-0.1,1-0.3,1.4-0.6
	c0.1-0.1,0.2-0.1,0.3-0.1c0.1,0,0.3-0.1,0.4-0.1c0.3-0.1,0.6-0.2,0.9-0.4c0.8-0.4,2.3-1.1,2.7-1.4c0.1-0.1,0.2-0.1,0.3-0.2
	c0.1-0.1,0.2-0.1,0.3-0.2c0.2-0.1,0.4-0.3,0.6-0.4c0.2-0.1,0.3-0.2,0.5-0.3c0.2-0.1,0.4-0.3,0.6-0.5
	C454.8,79.4,457.4,76.6,457.4,76.2z"/>
<path class="st0" d="M490.5,38.3c0.2,0.1,0.4,0.4,0.4,0.6c0.2,0.5-0.6,2.6-0.9,2.9c-0.2,0.2-0.5,0.4-0.9,0.8l-0.2,0.2
	c-0.1,0.1-0.4,0.3-0.4,0.3c-0.3,0.4-1.4,1.7-1.4,1.7c-0.3,0.2-0.5,0.4-0.7,0.7c-0.1,0.2-0.6,0.5-0.8,0.8c-0.5,0.5-1.2,0.9-1.9,1.2
	c-1.5,0.7-3,1.4-4.8,1.8c-0.8,0.2-2.2,0.5-2.6,0.7c-0.2,0.1-0.5,0.2-0.7,0.3c-0.1,0.1-0.1,0.1-0.2,0.1l-0.1,0l-0.1,0.1l-0.1,0
	c-0.3,0.1-0.8,0.1-1.1-0.1c-0.2-0.1-0.3-0.6,0-0.7l0.1-0.1l0.1-0.1c0.1-0.1,0.2-0.2,0.3-0.2c0.1-0.1,0.3-0.2,0.4-0.2
	c0,0,0.3-0.2,0.3-0.2c0.1-0.1,0.3-0.2,0.4-0.2l0.2-0.1l0.1-0.1l0.3-0.2l0.1-0.1l0.2-0.1l0.1-0.1c0.1-0.1,0.1-0.1,0.2-0.1
	c1.1-0.6,2.6-1.5,3.3-1.8c0.5-0.2,2-1.2,3.1-1.8c0.4-0.3,0.9-0.6,1.4-0.9l0.2-0.1c0,0,0,0,0.1-0.1c0,0,0,0,0.3-0.2
	c0.1-0.1,0.6-0.4,0.6-0.5l-0.1,0c-0.4,0-0.7,0-0.9-0.1l-0.3,0l-0.2,0l-0.1,0c-0.2,0-1.2,0-1.9,0c-1.3,0-3.9,0-4.2,0
	c-1.1,0.1-3.5,0.5-4.1,1.1c-0.3,0.3-0.8,0.7-1,0.8c-0.3,0.3-0.8,0.8-1,0.9c-0.1,0.1-0.4,0.1-0.5,0c-0.7-0.4,1-3.3,1.2-3.6
	c0.5-0.8,1.4-1.5,2.1-2.1c0.7-0.6,2-0.9,3.1-1.1c1.3-0.2,3.5-0.2,5.4-0.2l4.1,0.2l0.8,0c0.4,0,0.7,0,1.4,0l0.1,0L490.5,38.3z"/>
<path class="st1" d="M483.5,75.7c0,0,0.3-0.3,0.4-0.4c0.2-0.2,0.5-0.4,0.5-0.5l0.9-1.1c0.5-0.6,1.5-1.9,1.4-2.4
	c-0.1-0.5-0.8-1.8-1.2-2.3c-0.1-0.2-0.3-0.4-0.5-0.6c0,0-0.2-0.2-0.3-0.2c-0.1-0.1-0.1-0.1-0.2-0.1c-0.1,0-0.2-0.1-0.2-0.1
	c-0.1-0.1-1.1-0.4-1.3-0.4c-0.9,0-2.2,1.5-2.7,2.1c-0.6,0.7-1.2,2.1-1.7,3.3c-0.5,1.2-1.1,2.5-1.5,3.7c0,0.1-0.1,0.3-0.2,0.5l0,0.1
	l-0.1,0.1l0,0.1l0,0.1l0,0.1c0,0-0.1,0.2-0.1,0.2c-0.1,0.2-0.2,0.4-0.2,0.4c-0.1,0.3-0.3,0.6-0.4,0.9c-0.1,0.2-0.3,0.8-0.3,0.9
	c0,0,0.5-0.2,0.5-0.2c0.1,0,0.1,0,0.2-0.1c0.1,0,0.3-0.1,0.4-0.2c0.2-0.1,0.4-0.2,0.5-0.2c0.2-0.1,0.4-0.2,0.6-0.3
	c0.2-0.1,0.4-0.2,0.5-0.3c0.1,0,0.3-0.2,0.5-0.3c0,0,0.4-0.2,0.5-0.2c0.2-0.1,0.3-0.2,0.5-0.3c0.2-0.1,1-0.7,1.7-1.2l0.1,0l0.2-0.1
	c0.1,0,0.1,0,0.2-0.1c0,0,0,0,0.3-0.2l0.2-0.1C483,76.1,483.3,76,483.5,75.7z"/>
<path class="st1" d="M482.3,95.8c0.3,0.2,1.4,0.6,2.2,0.9c0,0,0.7,0.1,1,0.2c0.2,0,0.5,0.1,0.7,0.1l0.2,0h0.4l0.2,0
	c0.3,0,0.3,0,0.3-0.1c0.2-0.1,0.2-0.1,0.2-0.1c0.3,0,0.3,0,0.4-0.1c0.3-0.1,0.6-0.2,0.7-0.3c0.6-0.5,1.9-2.1,1.7-3.2
	c0-0.1-2.8-1.9-3.1-2c-0.7-0.4-2.1-0.5-3-0.5l-0.5,0c-0.5,0-0.5,0-0.9,0.1c-0.6,0-2.3,0.1-2.4,0.1c-0.6,0-1.7,0.1-1.9,0.1h-0.1
	l-1.1,0c-0.2,0-0.6,0.1-0.8,0.1c-0.2,0,0.7,0.5,0.7,0.5c0.3,0.1,0.5,0.4,0.7,0.6c0.2,0.2,0.5,0.6,0.5,0.7c0.2,0.3,0.3,0.5,0.6,0.7
	c0.4,0.2,1,0.7,1.5,1.2C480.8,94.8,481.7,95.4,482.3,95.8z"/>
<path class="st0" d="M507.2,46.4c0,0,0.5-0.5,0.7-0.7c0-0.1,0-0.1,0.1-0.1c0.1-0.1,0.3-0.3,0.4-0.4c0.1-0.2,0.3-0.4,0.5-0.5
	c0.3-0.3,0.6-0.6,0.9-1c0.1-0.1,0.2-0.3,0.4-0.4c0.1-0.1,0.2-0.2,0.2-0.2l0.2-0.3c0.1-0.1,0.8-1,0.7-1.1c0,0-1.2-0.6-1.4-0.6
	c-1-0.3-2.5-0.9-3.1-1.2c-0.4-0.3-1.1-0.8-1.3-1.1c-0.3-0.4-0.5-1-0.7-1.5c-0.2-0.5,0-1.2,0.1-1.7c0.2-1,0.6-2.1,1-2.9
	c0.5-0.8,1.1-1.8,1.5-2.3c0.4-0.5,2.4-2.4,2.8-2.5c0.3-0.1,0.9-0.3,1.2-0.2c0.8,0.2,1.5,0.4,1.9,0.8c0.3,0.4,0.6,0.8,0.9,1.3
	c0.5,0.9,0.8,2.3,1,3.6c0,0.3,0.1,0.6,0.1,0.9c0,1.2,0,1.2,0,1.8c0,0,0,0.6-0.1,0.6l0,0.3l-0.1,0.3l0,0.2c0,0.2-0.1,0.4-0.1,0.5
	c-0.1,0.4-0.2,1.2-0.2,1.2c-0.1,1-0.2,1.9-0.5,2.6c-0.3,0.8-0.9,1.7-1.5,2.4c0,0.1-0.5,0.8-0.8,1.2c-0.1,0.1-0.1,0.1-0.1,0.2
	l-0.1,0.1l-0.1,0.1l-0.1,0.1c0,0.1-0.2,0.3-0.4,0.6c-0.1,0.2-0.3,0.3-0.4,0.5c-0.1,0.1-0.3,0.3-0.4,0.4c0,0-0.3,0.3-0.4,0.4
	c-0.1,0.1-0.2,0.2-0.2,0.2c-0.1,0.1-0.2,0.2-0.3,0.3c-0.5,0.7-1.1,1.3-1.9,1.8c-0.7,0.5-1.4,0.9-2.1,1.4c-0.7,0.5-1.5,1-2.3,1.5
	l-0.1,0.1l-0.1,0.1l-0.3,0.2l-0.2,0.1l-0.2,0.1l-0.1,0.1l-0.1,0.1l-0.1,0.1c-0.1,0-0.4,0.2-0.6,0.3c-0.1,0.1-0.3,0.1-0.3,0.2
	c-0.1,0.1-0.3,0.1-0.5,0.3l-0.1,0.1l-0.1,0.1c-0.1,0.1-0.1,0.1-0.2,0.1l-0.2,0.1l-0.1,0.1l-0.1,0.1c0,0,0,0-0.1,0.1
	c-0.4,0.3-1,0.7-1.1,0.7c-1.1,0.2-1.1-0.4-0.5-0.9l1.2-1.3c0.8-0.8,2.1-2.1,2.6-2.5C503.4,49.9,506.7,47.3,507.2,46.4z"/>
<path class="st1" d="M513.4,38c0.2-0.7-0.3-3.6-0.6-4.1c-0.1-0.1-0.2-0.3-0.2-0.4c0-0.1-0.1-0.3-0.2-0.4c-0.1-0.2-0.4-0.7-0.5-0.8
	c-0.7-0.5-1-0.6-1.9-0.2c-0.1,0-0.8,0.7-0.8,0.8c-0.2,0.3-0.5,0.6-0.8,0.8c-0.3,0.2-0.5,0.7-0.7,1.1c-0.2,0.3-0.1,0.5,0.2,0.6
	c0.1,0.1,0.2,0.1,0.3,0.2c0,0,0.2,0.1,0.3,0.2c0.4,0.2,0.8,0.5,1.3,0.6c0.4,0.1,0.8,0.3,1.2,0.5c0.3,0.1,0.8,0.4,1.2,0.6
	c0.2,0.1,0.5,0.2,0.7,0.4C512.9,37.8,513.4,38,513.4,38z"/>
<path class="st1" d="M514.7,73.3c1.2,0.4,3,0.5,4.3,0.3c0,0-0.1-0.4-0.1-0.4c0-0.1-0.1-0.2-0.1-0.3c0-0.1-0.1-0.5-0.2-0.7
	c-0.1-0.4-0.3-0.9-0.4-1.3c-0.2-0.5-0.4-1.2-0.5-1.4c-0.1-0.2-0.2-0.4-0.3-0.7c0-0.1-0.1-0.2-0.2-0.3c0-0.1,0-0.1-0.1-0.1
	c-0.1-0.1-0.1-0.1-0.1-0.1c-0.1-0.1-1.5-1.4-1.8-1.5c-0.2-0.1-0.3-0.2-0.5-0.3c-0.1,0-0.3-0.1-0.3-0.1l-0.2,0c-0.1,0-0.2,0-0.2-0.1
	c-0.9-0.4-2.9,1.4-3.2,1.8l-0.2,0.2c0,0-0.2,0.2-0.2,0.2c-0.1,0.1-0.2,0.3-0.3,0.3c-0.2,0.2-0.3,0.4-0.5,0.6c0,0-0.1,0.2-0.1,0.2
	l-0.1,0.1l-0.1,0.1c-0.1,0.1-0.2,0.3-0.2,0.4c-0.3,0.4-0.2,0.5,0.2,0.7c0.1,0.1,0.7,0.4,0.7,0.4c0.5,0.3,1,0.5,1.5,0.7
	c0.1,0,0.3,0.1,0.4,0.2c0.2,0.1,0.2,0.1,0.2,0.1c0.1,0,0.1,0,0.2,0.1c0.3,0.1,0.5,0.2,0.8,0.3c0.1,0,0.2,0.1,0.3,0.1
	c0.1,0,0.2,0.1,0.3,0.1C514.1,73.2,514.6,73.3,514.7,73.3z"/>
<path class="st0" d="M568.5,83.1c0,0,0.6-0.5,0.7-0.6c0.1,0,0.5-0.5,0.7-0.7c0.4-0.4,1-1,1.3-1.4c0.7-0.9,1.9-2.7,1.9-3.7
	c0,0-0.1-0.4-0.2-0.6c-0.1-0.3-0.1-0.6-0.2-1c-0.1-0.6-0.3-1.7-0.4-2c-0.2-0.6-0.3-1.2-0.3-1.8c-0.1-0.7-0.2-1.7-0.3-2.1
	c-0.1-0.4-0.5-2.4-0.7-3.8c-0.1-0.3-0.1-0.7-0.2-1l0-0.3c0-0.3,0-0.3-0.1-0.5l0-0.2l-0.1-0.6c0-0.3-0.1-0.7-0.2-1
	c-0.1-0.4-0.1-0.7-0.2-1c0-0.3-0.1-0.6-0.2-0.9c-0.1-0.3-0.1-0.5-0.2-0.8s-0.1-0.6-0.2-0.9c-0.1-0.3-0.1-0.6-0.2-0.8
	c-0.1-0.6-0.3-1.6-0.4-1.8c-0.1-0.2-0.2-1.3-0.3-2c-0.1-0.6-0.2-1.1-0.3-1.6c-0.1-0.2-0.1-0.5-0.2-0.6l0-0.1V51l0-0.2
	c0-0.2,0-0.3-0.1-0.4c-0.1-0.3-0.3-1-0.4-1.4c-0.1-0.3-0.1-0.5-0.2-0.8c-0.1-0.4-0.2-0.7-0.2-1.2c-0.1-1.3,0.2-2.5,0.4-3.8
	c0-0.2,0.1-0.4,0.1-0.5c0.1-0.2,0.2-0.6,0.2-0.7l0.1-0.2c0-0.1,0.1-0.4,0.1-0.4c0-0.2,0.1-0.4,0.1-0.4l0.1-0.1
	c0.1-0.1,0.1-0.1,0.1-0.1l0.2-0.1c0.1,0,0.5,0,0.4,0.1l0.4,1.1c0.2,0.3,0.3,0.7,0.4,1.1c0.2,0.9,0.4,1.9,0.7,2.8
	c0.1,0.2,0.1,0.6,0.2,1c0,0.3,0.1,0.7,0.1,1c0,0.2,0.1,0.5,0.2,0.7c0,0.1,0.1,0.2,0.1,0.3l0,0.1c0,0.2,0,0.2,0.1,0.3
	c0,0.2,0.1,0.9,0.1,1.4c0,0.1,0.1,0.6,0.2,0.9c0.1,0.3,0.1,0.6,0.1,0.9c0,0.3,0.1,0.7,0.2,1c0.2,0.6,0.4,2.4,0.6,3.7
	c0.2,1.2,0.4,2.8,0.6,3.9c0.1,0.5,0.2,1.1,0.3,1.6c0.1,0.6,0.3,1.8,0.3,1.9c0.1,0.6,0.3,1.6,0.3,1.8c0,0.3,0.1,0.5,0.1,0.8
	c0.1,0.3,0.1,0.6,0.2,0.9c0,0.1,0.2,0.8,0.3,1.2l0,0.1l0,0.1c0,0.1,0.1,0.2,0.1,0.3c0.1,0.2,0.1,0.5,0.2,0.6c0,0.2,0,0.2,0.1,0.3
	c0,0.5,0,0.5,0.1,0.6l0.1,0.5l0,0.3l0,0.2c0.1,0.3,0.1,0.7,0.2,1c0,0,0.2,0.7,0.2,1c0.1,0.3,0.1,0.5,0.1,0.8c0,0,0.1,0.4,0.1,0.5
	c0.1,0.2,0.1,0.5,0.2,0.7c0.1,0.3,0.2,0.5,0.2,0.9c0.2,1,0.4,2.1,0.6,3.2c0.4,1.7,1,3.6,1.8,5c0.7,1.2,1.8,3.1,2.6,3.7
	c0.2,0.1,0.8,0.6,1.2,0.9c0.4,0.3,0.9,0.6,1.3,0.8c0.7,0.3,1.6,0.8,2.1,0.9c2.1,0.5,2.6,0.1,3.6-0.9c0.4-0.4,0.6-0.6,0.4-1.2
	c-0.1-0.2-0.3-1.5-0.4-2.3l-0.3-1.8l-0.1-0.3c0-0.2-0.1-0.5-0.1-0.6l0-0.1c0-0.3,0-0.3-0.1-0.3l0-0.1l0-0.2l0-0.2
	c-0.1-0.3-0.2-0.7-0.3-1.1c-0.1-0.3-0.2-0.8-0.2-1c0-0.1-0.2-0.7-0.3-1.1l0-0.1l0-0.2l-0.1-0.3c0,0,0-0.3-0.1-0.6
	c0,0-0.1-0.4-0.1-0.5c-0.2-1.1-0.5-2.4-0.8-3.6c-0.1-0.5-0.4-1.7-0.4-1.7c0-0.1-0.1-0.3-0.1-0.4c0-0.3-0.1-0.6-0.1-0.8l0-0.1l0-0.1
	l0-0.1l0-0.1l-0.1-0.1c0-0.1,0-0.1-0.1-0.2c-0.6-1.7-1.6-5.1-1.7-6c-0.3-2-0.6-3.8-0.9-5.8c0-0.3-0.1-0.7-0.2-1
	c-0.1-0.4-0.2-0.9-0.2-1.2c0-0.2-0.1-0.4-0.1-0.6c0-0.2-0.1-0.4-0.1-0.5c0-0.2,0-0.2-0.1-0.3c0-0.1,0-0.1-0.1-0.2
	c0-0.2-0.1-0.4-0.1-0.6c-0.1-0.3-0.2-0.6-0.3-1c0-0.1,0-0.1-0.1-0.3l0-0.5l0-0.1l0-0.1l0-0.1c0-0.4,0-0.4-0.1-0.5
	c0-0.1-0.2-0.8-0.2-1.1c-0.1-0.4-0.1-0.8-0.2-1.2c-0.3-1.4-0.9-4.2-0.9-4.7c0-0.2,0.1-0.5,0.1-0.8l0-0.1l0-0.1l0-0.1l0-0.1
	c0.1-0.4,0.1-0.4,0.1-0.4l0-0.1l0-0.1c0-0.2,0-0.2,0-0.6c0-0.2,0-0.2,0-0.4c0.1-0.5,0.6-2.3,0.6-2.4c0.1-0.1,0.3-0.2,0.5-0.2
	c0.2,0,0.5,0.2,0.5,0.4c0.2,0.4,0.7,3.3,0.9,4.4c0.2,1.2,0.6,2.9,1,4.3c0.1,0.3,0.2,0.7,0.2,1c0,0.3,0.1,0.7,0.3,1.1
	c0.2,0.6,0.4,1.3,0.5,1.9c0.1,0.7,0.4,2.7,0.4,2.7l0,0.1l0,0.1c0,0.2,0,0.2,0.1,0.3c0.1,0.1,0.1,0.3,0.1,0.4
	c0.1,0.3,0.2,0.7,0.3,1.1c0.3,1.5,0.5,3,1,4.2c0.2,0.5,0.3,0.9,0.5,1.4c0.2,0.6,0.3,1.3,0.5,1.8l1.1,3.6c0,0.1,0,0.1,0.1,0.2
	c0,0.1,0,0.1,0.1,0.2l0.1,0.2l0,0.1l0,0.2c0.1,0.3,0.3,0.8,0.3,0.9c0.1,0.3,0.2,0.6,0.3,0.9c0.1,0.2,0.2,0.7,0.4,1
	c0.5,1.2,1.2,2.4,1.9,3.5c0.3,0.4,0.6,0.8,0.9,1.1c0.1,0.1,0.2,0.2,0.2,0.2c0.1,0.1,0.2,0.2,0.3,0.3c0.1,0.1,0.2,0.2,0.3,0.3
	c0.1,0.1,0.3,0.3,0.3,0.3c0,0,1.9,1.7,2,1.8c0.3,0.2,0.9,0.7,1.1,0.7c0.5,0.2,0.9,0.5,1.4,0.7c0.1,0.1,0.6,0.2,0.8,0.3
	c0.1,0,0.4,0.1,0.4,0.1c0.1,0,0.4,0.1,0.6,0.2c0.6,0.2,1.3,0.4,2.1,0.5c0.3,0,0.5,0.1,0.8,0.1c0.3,0,0.9,0.1,1.2,0.1
	c0.1,0,0.8,0,0.8,0c0,0,2-0.2,2.1-0.3c0,0,0,0,0.3-0.1c0.1,0,0.1,0,0.3-0.1c0.1,0,0.2,0,0.3-0.1c0.2,0,0.5-0.1,0.7-0.1
	c0.1,0,0.4,0,0.6-0.1c0.2,0,1-0.2,1-0.2c0.2-0.1,0.7-0.2,1-0.3c0.3-0.1,0.6-0.2,0.9-0.3c0.3-0.1,0.6-0.3,0.9-0.4
	c0.1-0.1,0.6-0.3,1-0.4c1.2-0.5,2-1.1,2.9-1.9c0.7-0.6,1.3-1.5,1.8-2.2c0.3-0.5,0.6-1,0.8-1.4c0.1-0.3,0.2-0.5,0.2-0.8
	c0.1-0.3,0.2-0.7,0.4-0.8c0.1-0.1,0.7-0.2,0.7-0.1l0.1,0.1c0.1,0,0.1,0.1,0.2,0.1c0.1,0.1,0.1,0.2,0.2,0.3c0.1,0.4,0.2,0.9,0.1,1.4
	c-0.1,0.9-0.3,1.5-0.6,2.2c-0.2,0.5-0.6,1.8-0.5,2c0,0.2,3.1,0.8,3.3,0.9c2.2,0.2,6.3,0.7,7.6,0.2c0.6-0.2,3.7-1.9,4.1-2.3
	c0.2-0.2,0.4-0.3,0.6-0.5c0.2-0.1,0.4-0.3,0.5-0.5c0.1-0.1,0.1-0.1,0.5-0.5c0.2-0.1,0.2-0.1,0.2-0.1c0-0.1,0-0.1,0.1-0.2
	c0.1-0.1,0.1-0.1,0.1-0.2l0.1-0.1c0.1-0.1,0.2-0.2,0.2-0.2l0.2-0.2l0.2-0.3c0.2-0.3,0.5-0.8,0.6-0.9c0.1-0.2-1-3-1.2-3.5
	c-0.4-1.1-1.1-2.7-1.6-3.5c0-0.1-0.3,1.1-0.3,1.4c-0.1,0.3-0.2,0.7-0.4,1c-0.7,1.6-2,3.6-3.5,4.4c-0.5,0.3-1,0.5-1.7,0.6
	c-0.5,0-1.3,0-1.7-0.2c-0.7-0.3-2-1-2.3-1.4c-0.1-0.1-1.4-1.5-1.4-1.5c-0.2-0.1-1-2.3-1.1-2.7c-0.1-0.5,0-1.2,0.1-1.6
	c0.1-0.5,0.1-1,0-1.6c0-0.4,0.1-0.9,0.2-1.3c0.1-0.2,0.1-0.4,0.1-0.7c0-0.5,0.1-0.7,0.1-1.1c0-0.1,0-0.1,0.1-0.2
	c0-0.1,0-0.1,0.1-0.2c0-0.2,0-0.2,0.1-0.2c0-0.1,0.1-0.2,0.1-0.3c0.1-0.5,0.9-2.3,1.4-3.5c0.2-0.5,0.6-1.1,0.9-1.6
	c0.2-0.3,0.3-0.5,0.5-0.8c0.2-0.3,0.3-0.6,0.5-0.9c0.2-0.2,0.8-0.9,1-0.9c0.4-0.1,1.1-0.3,1.4-0.2c0.6,0.2,1.1,0.4,1.6,0.6
	c0.6,0.3,1.5,1.1,1.9,1.5c0.2,0.3,0.5,0.6,0.8,0.9c0.3,0.3,0.6,0.6,0.8,0.9c0.2,0.2,0.5,0.6,0.8,0.9c0.2,0.3,0.6,0.7,0.7,1l1.8,3.1
	c0,0,0.1,0.3,0.2,0.4c0,0.1,0.1,0.3,0.2,0.4c0.1,0.3,0.3,0.5,0.4,0.8c0,0.1,0.4,1.1,0.6,1.8c0.7,2.1,0.9,5,0.8,7.5
	c0,0.9-0.5,2.2-0.8,3c-0.2,0.4-0.4,1-0.5,1.6c0,0.2-0.2,0.5-0.3,0.7c0,0.1-0.1,0.2-0.1,0.3l-0.1,0.1c-0.1,0.1-0.1,0.1-0.1,0.2
	c-0.1,0.3-1.6,2.7-1.9,2.9l-0.1,0.1c0,0,0,0-0.4,0.4c0,0,0,0-0.1,0.1l-0.1,0.1c-0.1,0.1-0.2,0.2-0.3,0.3c0,0-0.4,0.4-0.6,0.6
	c-0.2,0.2-0.5,0.4-0.7,0.5c-0.5,0.3-1.6,0.7-2.2,0.8c-0.2,0.1-0.4,0.1-0.5,0.2c-0.2,0.1-0.4,0.2-0.5,0.2c-0.3,0.1-0.7,0.2-1.1,0.3
	c-0.7,0.2-1.4,0.2-2.2,0.2c-0.8-0.1-1.5-0.3-2.1-0.5c-0.2-0.1-0.6-0.3-0.9-0.4c-0.3-0.2-0.6-0.3-1-0.5c-0.6-0.2-1.1-0.6-1.7-0.9
	c-0.7-0.4-3.2-2-3.6-1.9c0,0-2.3,2.7-2.4,2.8c-0.3,0.5-5.2,3-5.7,3.1c-0.8,0.1-1.3,0.2-1.9,0.4c-0.3,0.1-0.3,0.1-0.3,0.1l-0.1,0
	l-0.3,0.1l-0.3,0.1c-0.1,0-0.1,0-0.4,0c-0.8,0-0.8,0-1,0c-0.1,0-0.2,0.1-0.3,0.1l-0.1,0l-0.1,0l-0.2-0.1c-0.2,0.1-0.2,0.2-0.5,0.2
	l-0.3,0l-0.3,0c-0.2,0-0.6,0.1-1,0.2c-0.2,0-0.5,0-0.6,0c-0.4,0-1,0-1.5,0c-0.4,0-1.4-0.4-1.9-0.5c-0.2-0.1-0.3-0.1-0.5-0.1
	c-0.3,0-0.5,0-0.8-0.1c0,0-0.2-0.1-0.3-0.1h-0.1l-0.1,0c-0.1,0-0.2,0-0.3-0.1c-0.2-0.1-0.2-0.1-0.2-0.1c-0.5-0.1-1.9-0.9-2.3-1.2
	c-0.2-0.2-1.1-1-1.8-1.5c-0.1-0.1-0.6-0.6-0.9-0.9c0,0-0.3-0.3-0.4-0.4c-0.1-0.1-0.4-0.4-0.4-0.4c0,0,0,1.7,0.1,1.9
	c0,0.4,0,1.2-0.1,1.6c0,0.2-0.1,0.2-0.1,0.3l0,0.4l0,0.6l0,0.3c0,0.2,0,0.5-0.1,0.5l0,0.2c0,0.2,0,0.2-0.1,0.4
	c-0.1,0.6-0.2,1.3-0.3,1.9c-0.2,1.1-0.7,3.1-1.2,3.7c-0.2,0.2-0.3,0.4-0.5,0.6c-0.2,0.2-0.6,0.4-0.7,0.6c-0.2,0.2-0.3,0.4-0.5,0.7
	c-0.1,0.2-0.4,0.5-0.6,0.7c-0.2,0.2-2,0.2-2.4,0.2c-0.4,0-1-0.2-1.5-0.3c-0.8-0.2-1.6-0.6-2.1-1c-0.5-0.3-1.6-1.1-1.7-1.2
	c-0.4-0.4-1.6-1.4-1.6-1.4c-0.4-0.3-1.8-2.3-2-2.8c-0.7-1.6-1.3-3.1-1.8-5c-0.2-0.6-0.4-1.8-0.7-2.8c-0.1-0.2-0.2-0.9-0.3-1.3
	c-0.1-0.3-0.2-0.7-0.2-0.8c0-0.2-0.1-0.9-0.2-0.9c-0.1,0-0.2,0.5-0.3,0.6c-0.1,0.3-0.2,0.6-0.3,0.9c-0.1,0.2-0.3,0.6-0.4,0.7
	c-0.2,0.2-0.3,0.4-0.4,0.7c-0.5,0.9-1,1.9-1.7,2.6c-0.1,0.2-0.4,0.5-0.4,0.5c-0.2,0.2-0.4,0.4-0.5,0.6c-0.3,0.2-1,0.9-1.2,1.2
	c-0.1,0.1-1.3,0.9-1.8,1.2l-0.1,0.1c0,0-0.2,0.1-0.3,0.2c-0.2,0.1-0.3,0.2-0.5,0.3l-0.9,0.6c-0.7,0.5-2.6,1.4-4.3,2.3
	c-0.7,0.3-1.5,0.6-2.3,0.8c-0.2,0-0.4,0.1-0.6,0.2l-0.1,0.1l-0.1,0.1c-0.1,0-0.2,0.1-0.4,0.1c0,0-0.5,0.1-0.7,0.1
	c-0.2,0-0.5,0.1-0.7,0.2c-0.1,0.1-0.3,0.1-0.5,0.2c-0.1,0-0.1,0-0.3,0c-0.2,0-0.6,0-0.8,0.1c-0.5,0.1-1,0.3-1.4,0.4
	c-0.2,0-0.3,0-0.6,0l-0.1,0l-0.1,0c-0.2,0-0.6,0.1-0.7,0.2c-0.1,0-0.2,0.1-0.2,0.1l-0.3,0c-0.8,0-0.8,0-0.9,0.1l-0.1,0
	c-0.1,0-0.1,0-0.3,0.1l-0.2,0l-0.7,0h-0.1h-0.2h-0.1c-0.2,0-0.5,0-0.7-0.1c-0.2-0.1-0.5-0.1-0.7-0.1c-1,0-2.4-0.1-3.3-0.3
	c-0.3-0.1-0.6-0.1-1-0.1c-0.1,0-0.1,0-0.2-0.1c-0.1,0-0.3-0.1-0.3-0.1c-0.4-0.1-0.9-0.3-1.3-0.5c-1.5-0.6-2.9-1.4-4-2.3
	c-0.9-0.9-2.5-2.3-2.8-3c-0.1-0.4-0.4-0.9-0.5-1c-0.2-0.3-0.4-0.6-0.5-0.9l-0.1-0.2l0-0.1l0-0.1l0-0.1c0-0.2-0.1-0.3-0.1-0.5
	c-0.1-0.2-0.1-0.4-0.2-0.5c-0.1-0.2-0.1-0.5-0.2-0.9c-0.1-0.7-0.3-4.2-0.2-4.3l0.1-0.3l0-0.2l0-0.1c0-0.2,0-0.2,0.1-0.5
	c0-0.7,0-0.7,0.1-0.8c0.1-0.3,0.1-0.6,0.2-0.9c0.2-0.5,0.2-1,0.3-1.7c0-0.4,0.2-0.8,0.3-1.1l0.1-0.1c0.1-0.1,0.1-0.1,0.1-0.2
	c0-0.1,0.1-0.3,0.2-0.5c0-0.1,0.1-0.3,0.1-0.5c0-0.1,0.1-0.3,0.1-0.4c0.1-0.2,0.5-1.1,0.8-1.7c0,0,0.3-0.5,0.4-0.7
	c0.1-0.2,0.3-0.5,0.4-0.8c0.2-0.5,0.5-1.3,0.7-1.6c0.2-0.2,0.7-0.2,0.8,0.2c0,0.3,0,0.6,0,0.8l-0.1,0.3l-0.1,0.2
	c-0.1,0.3-0.5,1.6-0.5,1.6c-0.1,0.7-0.3,1.3-0.6,1.9c-0.2,0.6-0.4,1.1-0.5,1.8c-0.1,0.5-0.1,1.2-0.2,1.5c-0.1,0.4-0.2,0.8-0.2,1.3
	c0,0,0.1,0.3,0.1,0.5c0,0.1,0,0.1,0.1,0.4l0,0.3c0,0.6,0,0.6,0.1,0.7l0,0.1l0,0.1l0,0.1l0,0.1c0,0,0,0,0.1,0.3
	c0,0.1,0.1,0.3,0.1,0.4c0.2,0.4,0.4,0.8,0.5,1.2c0.1,0.4,0.4,0.8,0.6,1.3c0,0.1,0.6,0.8,1,1.2l0.3,0.3c0.1,0.1,0.1,0.1,0.2,0.2
	c0.2,0.2,2.2,1.9,2.4,1.9c0.2,0.1,1.1,0.5,1.6,0.7c0.2,0.1,0.5,0.2,0.7,0.4c0.2,0.1,0.6,0.3,0.9,0.3c0.2,0,0.4,0.1,0.5,0.1
	c0.1,0,0.1,0,0.2,0.1l0.1,0l0.2,0l0.2,0c0.2,0,0.5,0.1,0.7,0.1c0.1,0,1.1,0.1,1.1,0.2l0.3,0l0.2,0l0.4,0l0.1,0
	c0.1,0,0.8,0.1,1.2,0.1c0.3,0,0.9,0.1,0.9,0.1h0.4h0.2l0.2,0l0.4,0c0.3,0,1.3-0.1,1.8-0.2l0.1,0l0.3-0.1c0.2-0.1,0.4-0.1,0.6-0.1
	c1.1-0.1,2.1-0.3,3.2-0.6c1.2-0.3,2.9-0.9,4.2-1.4c1.5-0.6,2.6-1.1,4-2c0.5-0.4,1.1-0.8,1.7-1.1C567.1,84,568.4,83.3,568.5,83.1z"/>
<path class="st0" d="M536.5,37c0.1-0.1,5.2-3.2,5.6-3.4c2-1,3.9-2.2,5.7-3.4c1.8-1.2,3.7-2.2,5.7-3.3c1-0.5,1.9-1.1,2.8-1.7
	c0.1-0.1,0.2-0.1,0.3-0.1c0,0,0,0,0.1-0.1c0,0,0.1-0.1,0.2-0.1c0.2-0.1,0.5-0.3,0.7-0.5c0.2-0.1,0.5-0.4,0.5-0.4
	c0.2-0.2,0.4-0.5,0.6-0.5c0.2,0,0.6,0.6,0.8,0.9c0.1,0.1-0.4,2.6-0.4,2.6c-0.2,0.6-1.5,1.4-2.3,1.8c-0.4,0.2-1.3,0.8-1.3,0.8
	c-0.4,0.3-1.1,0.8-1.3,0.9c-1,0.2-3.2,1.5-4.8,2.3c-0.7,0.4-1.9,1-2.2,1.3c-0.6,0.5-1.4,1-2.1,1.4c-0.8,0.4-1.7,0.9-2.3,1.3
	c-0.7,0.5-1.4,0.9-2.2,1.3c-0.7,0.4-1.5,0.8-2.1,1.3c-0.5,0.4-1.7,1.3-2,1.4c-0.2,0.1-0.5,0.1-0.6-0.1c-0.4-0.5-0.2-1.5,0-2
	c0.1-0.2,0.1-0.3,0.1-0.6c0,0,0.1-0.3,0.1-0.4C536.3,37.5,536.4,37.2,536.5,37z"/>
<path class="st0" d="M540.8,77.2c0.3-0.1,0.7-0.1,1.2,0l0.2,0.1c0,0,0.2,0,0.3,0.1c0.3,0,0.5,0.1,0.6,0.1c1.6,0,6.1-0.3,6.5-0.5
	c0,0,0.2,0,0.2-0.1c0.1,0,0.3-0.1,0.3-0.1c0,0,0.3-0.1,0.4-0.2c0.1-0.1,0.3-0.1,0.5-0.2c0.2-0.1,0.3-0.1,0.5-0.2
	c0.2-0.1,1.1-0.5,1.7-0.8c1.2-0.5,2.3-1.1,3.3-1.8c0.1-0.1,0.4-0.3,0.6-0.5c0.1-0.1,0.2-0.2,0.3-0.3c0.1-0.1,0.3-0.3,0.3-0.3
	c0.1-0.1,0.4-0.4,0.5-0.6c0,0,0.5-0.7,0.3-0.7l-0.1-0.1l-0.1-0.2c-0.1-0.1-0.2-0.2-0.3-0.2c-0.2-0.1-0.4-0.3-0.6-0.4
	c-0.2-0.1-0.9,0-1.1,0c-0.4,0-1,0.1-1.3-0.1c-0.3-0.1-0.9-0.3-1.3-0.4c-0.5-0.1-1.2-0.3-1.6-0.6l-0.1-0.1l-0.1-0.1l-0.1-0.1
	l-0.1-0.1c-0.1-0.1-0.2-0.2-0.4-0.3l-0.1-0.1c-0.1-0.1-0.1-0.1-0.2-0.1c-0.1,0-0.1-0.1-0.2-0.1c-0.1-0.1-0.1-0.1-0.2-0.1
	c-0.1,0-0.5-0.7-0.6-0.8c0,0,0-0.1-0.1-0.2c0-0.1-0.1-0.3-0.1-0.4c0,0,0-0.2-0.1-0.3l0-0.3c0-0.4,0-0.8,0-0.8l0-0.2l0-0.3l0.1-0.3
	c0-0.1,0-0.1,0-0.3c0-0.1,0.1-0.3,0.1-0.4c0.1-0.4,0.2-1,0.3-1.5c0.1-0.9,0.4-1.6,0.7-2.4c0.3-0.8,0.6-1.6,0.9-2.3
	c0.1-0.3,0.3-0.6,0.4-1c0.1-0.2,0.2-0.4,0.2-0.5c0.1-0.2,0.2-0.5,0.3-0.5c0.2-0.5,0.9-1.6,1.3-2.1c0.2-0.3,0.4-0.7,0.6-1
	c0.2-0.3,0.5-0.7,0.7-1c0.5-0.7,1-1.4,2.1-1c0.2,0.1,0.3,0.1,0.6,0.1c0.4,0,0.6,0.1,0.8,0.3c0.1,0.1,0.3,0.3,0.4,0.5
	c0.2,0.2,0.4,0.4,0.4,0.4c0.5,1.1-0.8,3.9-1.2,4.9c-0.3,0.6-0.7,1.5-1.3,0.8c-0.2-0.3-1.5-1-1.9-0.8c-0.8,0.3-2.6,3.6-2.8,4.7
	c0,0.4,0.1,0.5,0.2,0.8c0.3,0.5,1.5,0.9,2.2,1.2c0.4,0.1,1,0.3,1.5,0.4c0,0,1.4,0,1.8,0l0.4,0c0.1,0,0.8,0.1,0.8,0.1l0.3,0.1
	l0.1,0.1c0.1,0.1,0.2,0.2,0.3,0.4l0.1,0.2l0.1,0.2c0.1,0.1,0.2,0.3,0.3,0.4c0.5,0.9,0.8,1.9,0.8,3.3c0,0.6-0.2,1.2-0.4,1.7
	c-0.1,0.2-0.2,0.5-0.3,0.7c-0.1,0.2-0.3,0.6-0.4,0.7c-0.4,1-0.7,1.9-1.1,2.8c-0.3,0.6-0.9,1.6-1.4,2.3c-0.5,0.7-1.1,1.4-1.7,2
	c0,0-0.2,0.1-0.3,0.1c-0.1,0-0.1,0-0.3,0c-0.2,0-0.2,0-0.3,0.1c-0.1,0.1-0.2,0.1-0.3,0.2c-0.1,0.1-0.3,0.2-0.3,0.2
	c-0.3,0.1-0.9,0.4-1.4,0.5c-0.2,0.1-1,0.3-1.7,0.4c-0.2,0-0.4,0.1-0.5,0.1c-0.2,0-0.5,0-0.6,0.1c-0.5,0.1-1.1,0.2-1.3,0.2
	c-1.7-0.1-8.1-0.5-8.6-0.9c-0.2-0.2-0.4-0.3-0.4-0.4C539.8,78.9,540.6,77.6,540.8,77.2z"/>
<path class="st0" d="M571.8,28l0.1-0.1l0.1-0.1c0.2-0.1,0.3-0.2,0.5-0.3l0.2-0.1c0.1,0,0.2-0.1,0.4-0.2l0.1-0.1l0.1-0.1l0.1-0.1
	l0.1-0.1l0.2-0.1c0.1-0.1,0.3-0.2,0.3-0.2c0.2-0.1,0.3-0.2,0.5-0.3c0.1-0.1,0.4-0.2,0.5-0.3c0.2-0.1,0.3-0.2,0.5-0.3
	c0.1,0,0.6-0.4,1-0.6c0.3-0.2,0.7-0.4,1-0.6c0.7-0.4,1.8-0.9,2.2-1.1c0.1-0.1,0.7-0.4,1-0.6c0.2-0.1,0.4-0.2,0.5-0.3
	c0,0,0.4-0.2,0.5-0.3c0.7-0.4,1.8-1,2.1-1.1c1.4-0.7,3-1.5,4.2-2.3c0.6-0.4,1.7-1.2,2.5-1.8c0.4-0.3,0.9-0.7,1.3-0.9
	c0.2-0.1,0.2-0.1,0.2-0.1c0.1-0.1,0.1-0.1,0.2-0.1c0.1-0.1,0.4-0.2,0.4-0.2c0.2-0.1,0.7-0.5,0.8-0.4c0.3,0.1,0.4,0.3,0.5,0.5
	c0,0.1,0.1,0.2,0.1,0.3v0.1v0.2c0,0.1,0,0.6,0,0.6c0,0-0.2,1-0.2,1.1c-0.1,0.3-0.2,0.7-0.4,0.9c-0.1,0.2-0.5,0.5-0.7,0.6
	c-0.4,0.2-1,0.4-1.1,0.5c0,0-0.6,0.4-0.8,0.5c-0.2,0.1-0.6,0.4-0.9,0.6c-0.3,0.2-1.1,0.7-1.7,1.1c-0.1,0.1-0.3,0.2-0.4,0.3
	c0,0-0.4,0.3-0.5,0.3l-0.1,0.1c-0.1,0.1-0.3,0.1-0.3,0.2c-0.1,0.1-0.1,0.1-0.2,0.1c-0.1,0-0.3,0.1-0.3,0.2c-0.4,0.3-2.4,1.3-3.8,2
	c-0.1,0-0.3,0.2-0.4,0.2c-0.2,0.1-0.3,0.2-0.5,0.3c-0.2,0.1-0.3,0.2-0.5,0.3c0,0-0.3,0.2-0.5,0.3c-0.2,0.1-0.3,0.2-0.5,0.3
	c-0.2,0.1-0.3,0.2-0.5,0.3c-0.1,0.1-0.1,0.1-0.2,0.1l-0.1,0c-0.1,0-0.1,0-0.3,0.1c-0.2,0.1-0.4,0.2-0.5,0.3c0,0-0.3,0.1-0.4,0.2
	l-0.1,0l-0.1,0c-0.1,0-0.2,0.1-0.3,0.2c-0.2,0.1-0.3,0.2-0.5,0.3c-0.2,0.1-0.3,0.2-0.5,0.3c-0.5,0.4-1.1,0.9-1.7,1.2
	c-0.3,0.2-0.6,0.4-0.9,0.5c-0.4,0.2-1,0.5-1.1,0.6c-0.1,0.1-0.1,0.1-0.2,0.1c-0.1,0.1-0.3,0.1-0.4,0.2l-0.8,0.6
	c-0.1,0.1-0.3,0.2-0.5,0.3c-0.2,0.1-0.6-0.1-0.6-0.2c-0.3-0.5,0-1.6,0.2-2.2l0-0.1l0-0.1l0-0.2c0-0.1,0.1-0.2,0.1-0.3
	c0.1-0.1,0.1-0.1,0.1-0.2l0-0.1c0-0.2,0-0.2,0.1-0.2c0.1-0.2,0.1-0.2,0.1-0.2C571.6,28.2,571.6,28.2,571.8,28z"/>
<path class="st0" d="M592.3,40.9c0.2-0.2,0.5-0.3,0.8-0.5c0.2-0.1,0.5-0.3,0.8-0.5c0,0,0.2-0.2,0.4-0.2c0,0,0,0,0.2-0.1
	c0.1-0.1,0.1-0.1,0.2-0.1c0.1,0,0.6-0.3,0.8-0.5c0.6-0.4,2.2-1.2,3.4-1.9c0.5-0.3,1.1-0.6,1.6-0.9c0.5-0.3,1.2-0.7,1.8-1l0.2-0.1
	c0.1-0.1,0.1-0.1,0.2-0.1c0,0,0,0,0.2-0.1c0,0,0,0,0.2-0.1l0.2-0.1c0.2-0.1,0.2-0.1,0.2-0.1c0.1-0.1,0.3-0.2,0.4-0.2
	c0.2-0.1,0.6-0.3,0.8-0.5c0.1,0,0.1-0.1,0.2-0.1c0.2-0.1,0.2-0.1,0.2-0.1c0.1,0,0.4-0.2,0.5-0.3c2.3-1.2,4.5-2.5,6.7-3.7
	c0.6-0.3,1.2-0.6,1.7-0.9c0.1-0.1,1-0.6,1.7-0.9c0.5-0.3,0.9-0.6,1.3-0.9c0.4-0.3,0.9-0.8,1.5-0.9c0.2-0.1,0.5,0.3,0.5,0.4
	c0.1,0.3,0.2,0.5,0.2,1c0,0.5-0.3,1.8-0.5,2.2c-0.3,0.5-0.9,0.8-1.5,1.1c-0.3,0.1-1,0.6-1.5,1c-0.9,0.6-2.3,1.3-3.5,1.8l-0.2,0.1
	l-0.1,0.1l-0.1,0.1l-0.1,0.1l-0.1,0.1l-0.1,0l-0.2,0.1L611,34c-0.1,0.1-0.4,0.2-0.6,0.3l-0.1,0.1l-0.2,0.1l-0.2,0.1l-0.2,0.1
	c-0.1,0.1-0.3,0.2-0.4,0.2l-0.2,0.1l-0.1,0.1l-0.1,0.1l-0.1,0.1c-0.6,0.3-1.2,0.6-1.9,0.9l-0.3,0.2l-0.1,0.1
	c-0.2,0.1-0.2,0.1-0.2,0.1l-0.2,0.1c-0.3,0.2-0.6,0.3-0.9,0.5c-0.2,0.1-0.6,0.3-0.9,0.5c-0.3,0.2-0.7,0.3-1,0.5
	c-0.3,0.1-0.6,0.3-0.8,0.4l-0.1,0.1l-0.1,0.1c-0.1,0.1-0.1,0.1-0.2,0.1c-0.1,0.1-0.4,0.3-0.5,0.3c-0.3,0.1-0.5,0.3-0.8,0.5
	c-0.3,0.2-0.6,0.4-0.9,0.5c-0.4,0.2-1.2,0.6-1.8,0.9c-0.6,0.3-1.2,0.7-1.8,0.9c-0.5,0.2-1,0.6-1.5,0.9c-0.2,0.2-0.5,0.3-0.7,0.4
	c-0.3,0.2-0.5,0.3-0.8,0.5c0,0-0.2,0.2-0.3,0.3c-0.1,0.1-0.2,0.2-0.4,0.3c-0.2,0.2-0.7,0.5-0.7,0.5c-0.2,0-0.4-0.1-0.5-0.1
	c-0.1,0-0.1-0.1-0.1-0.2l-0.1-0.1l0-0.6v-0.2c0,0,0.1-0.3,0.1-0.5c0-0.2,0.1-0.3,0.1-0.4c0.1-0.2,0.2-0.5,0.2-0.7
	c0-0.3,0.1-0.5,0.3-0.8l0-0.1l0-0.1l0.1-0.1C592.2,41,592.2,40.9,592.3,40.9z"/>
<path class="st0" d="M613.3,92.7c0.9-0.2,4.8,3.5,5,4c0.1,0.3,0.2,0.7,0.2,1.1c0,0.5-0.2,1.2-0.4,1.6c-0.2,0.4-0.4,0.6-0.7,0.9
	c-0.3,0.3-0.5,0.6-0.6,1.1c-0.1,0.3-0.5,1.1-0.8,1c-0.1,0-0.3-0.3-0.5-0.4c-0.1-0.1-0.3-0.2-0.5-0.3c-0.5-0.2-0.8-0.3-1.1-0.6
	c-0.1,0-0.4-0.4-0.4-0.4c-0.2-0.1-0.3-0.3-0.5-0.4c-0.2-0.1-0.4-0.2-0.6-0.3c-0.1-0.1-0.2-0.1-0.3-0.2c-0.1-0.1-0.2-0.1-0.3-0.2
	c-0.1-0.1-0.2-0.1-0.3-0.2l-0.1-0.1c-0.1-0.1-0.1-0.1-0.2-0.1c-0.2-0.1-0.4-0.2-0.5-0.4c-0.2-0.3,0.1-1.4,0.3-1.9
	c0.1-0.3,0.2-0.5,0.3-0.8l0.1-0.1c0,0,0.1-0.1,0.1-0.1l0-0.1v-0.1c0-0.1,0.1-0.2,0.1-0.3c0.1-0.2,0.2-0.5,0.4-0.7
	c0.1-0.2,0.3-0.6,0.4-0.8C612.7,93.3,612.9,93.1,613.3,92.7z"/>
<path class="st0" d="M628.4,42.8c0-0.4,0.3-1,0.5-1.4l0-0.1l0-0.1l0-0.1c0-0.1,0.1-0.2,0.2-0.3c0.2-0.4,0.2-0.4,0.3-0.9
	c0-0.1,1.5-2.4,1.5-2.4c0.1,0,0.5-0.2,0.6,0l0.1,0.1c0.1,0,0.2,0.1,0.2,0.1c0.1,0,0.1,0,0.2,0.1c0,0,0,0,0.1,0.1
	c0.1,0.1,0.3,0.2,0.5,0.3l0.1,0.1c0.1,0.1,0.6,0.4,0.6,0.4c0.2,0.1,0.4,0.3,0.7,0.5c0.2,0.1,1.5,1.1,2.5,1.8
	c0.3,0.2,0.7,0.6,0.8,0.9c0.1,0.4-0.6,2.3-0.8,2.4c-0.1,0.1-0.3,0.2-0.5,0.3c-0.2,0.1-0.3,0.3-0.4,0.4c-0.2,0.4-0.5,0.8-0.7,1.1
	c-0.2,0.3-0.6,0.7-1,0.4c-0.1-0.1-0.5-0.2-0.7-0.3c-0.3-0.1-0.6-0.2-0.6-0.3c-0.9-0.7-3.9-2.6-4-2.6l0,0.1c0,0.3,0,0.4-0.1,0.4
	l0,0.1l0,0.1l0,0.1l0,0.1c-0.1,0.3-0.2,0.8-0.3,0.9c-0.4,0.5-0.8,1-1.1,1.6c-0.2,0.4-0.7,1.3-1.1,1.9c-0.1,0.1-0.4,0.2-0.5,0.2
	c0,0-1.8-0.9-2.1-1.1c-0.2-0.1-0.4-0.2-0.5-0.3c-0.1,0-0.4-0.1-0.4-0.1c-0.1,0-0.3-0.1-0.4-0.1c-0.3-0.2-1-0.6-1-0.6
	c-0.2-0.2-0.1-0.8,0-1.1c0-0.1,0.1-0.2,0.1-0.3c0.1-0.1,0.2-0.4,0.2-0.5c0.1-0.3,0.2-0.6,0.3-0.7c0.1-0.1,0.2-0.3,0.2-0.3
	c0.1-0.6,0.1-0.8,0.2-0.9c0.1-0.1,0.1-0.1,0.2-0.2c0.1,0,0.2-0.2,0.3-0.4c0.1-0.2,0.2-0.5,0.3-0.7c0.1-0.3,0.1-0.4,0.3-0.6
	c0.1-0.1,0.4-0.3,0.5-0.1l0,0.1l0,0.1c0,0.5,0.1,0.2,0.1,0.2l0.1-0.5c0,0,0.1,0.1,0.1,0.1c0.1,0.1,0.1,0.1,0.3,0.2
	c0.1,0,0.2,0.1,0.3,0.2l0.1,0l0.2,0.1h0.1c0,0,0.3,0.1,0.4,0.2c0.2,0.1,0.4,0.2,0.6,0.2c0.4,0.1,0.8,0.3,1.2,0.5
	c0.2,0.1,0.4,0.2,0.6,0.4C627.6,42.7,628.4,42.9,628.4,42.8z"/>
<path class="st0" d="M625.9,98.3c0.6-0.2,1.8-0.8,2.7-1.2l0.1,0c0.1,0,0.1,0,0.2-0.1c0.1-0.1,0.2-0.1,0.3-0.2
	c0.2-0.1,0.5-0.2,0.7-0.3c0.2-0.1,0.4-0.2,0.6-0.3c0.3-0.1,0.6-0.3,0.8-0.4c1.7-0.9,5.2-2.5,5.6-2.7c1.9-0.8,3.8-1.7,5.6-2.6
	c0.1,0,0.9-0.4,1.4-0.6c0.5-0.2,1-0.5,1.5-0.7c0.2-0.1,0.4-0.2,0.6-0.3c0.2-0.1,0.4-0.2,0.6-0.3c0.5-0.2,1-0.5,1.5-0.7l0.3-0.2
	l0.1-0.1c0.1-0.1,0.3-0.2,0.4-0.3c0.3-0.2,0.6-0.5,0.7-0.6c0.6-0.1,0.9,0.6,0.9,1.1c0.1,0.7-0.3,1.7-0.5,2.2
	c-0.1,0.3-0.6,0.8-0.8,0.9c-0.8,0.5-1.9,1.2-2.7,1.4c-0.2,0-1,0.4-1.6,0.7c-0.4,0.2-1.5,0.7-1.5,0.7c-0.7,0.2-2.1,0.9-3.1,1.4
	c-0.3,0.1-1,0.4-1.6,0.7c-0.3,0.1-0.6,0.2-0.9,0.4c-0.3,0.1-0.5,0.3-0.8,0.4c-1,0.4-2.1,0.9-3,1.4c-0.2,0.1-0.5,0.3-0.8,0.4
	c-0.2,0.1-0.5,0.3-0.7,0.4c-0.3,0.1-0.5,0.2-0.9,0.3c-0.1,0-0.2,0.1-0.3,0.2c-0.1,0.1-0.3,0.2-0.4,0.2c-0.2,0.1-0.4,0.2-0.7,0.3
	c-0.3,0.1-0.6,0.2-0.9,0.4c-0.2,0.1-0.5,0.3-0.8,0.4l-0.1,0.1l-0.2,0.1l-0.2,0.1c-0.2,0.1-0.2,0.1-0.2,0.1c-0.5,0.3-1.1,0.6-1.4,0.8
	c-0.2,0.1-0.4,0.3-0.5,0.4c-0.1,0.1-0.4,0.3-0.6,0.4c-0.2,0.1-0.4,0-0.6-0.1C624,101.7,625.5,98.4,625.9,98.3z"/>
<path class="st1" d="M630.6,68.4c0.3,0,0.9-0.1,1.4-0.2c0.5-0.1,1.1-0.6,1.5-0.9c0.2-0.2,1.2-1.3,1.3-1.6c0-0.1-0.1-1-0.2-1.2
	c-0.6-0.9-1.5-1.9-2.2-2.6c-0.6-0.6-1.6-1.3-2.7-1.3c-0.6,0-1.4,1.7-1.7,2.3c-0.2,0.5-0.5,0.9-0.6,1.4c-0.1,0.2-0.2,0.5-0.3,0.8
	c0,0.1-0.1,0.2-0.1,0.3c0,0.1-0.1,0.6,0,0.6c0,0,0.2,0.2,0.2,0.2l0.2,0.1c0,0,0.3,0.2,0.5,0.3c0.1,0.1,0.4,0.3,0.6,0.4
	c0.1,0.1,0.1,0.1,0.2,0.2C629,67.8,630,68.4,630.6,68.4z"/>
<path class="st0" d="M642.7,99.4c1.2,0,2.1,0.2,3.1,0.3c1,0.2,2.4,0.4,3.4,0.3c0.4,0,0.7-0.1,1.1-0.1c0.3,0,0.5,0,0.7-0.1
	c0.3,0,0.6-0.1,0.9-0.1l0.3,0c0.8,0,0.8,0,0.8,0l0.2,0c0.2,0,0.2,0,1.1,0h0.4l0.2,0l0.2,0c0.3,0,0.7,0,1.1,0.1c0.1,0,0.3,0,0.5-0.1
	c0.2,0,0.5-0.1,0.9-0.1c0.2,0,0.3-0.1,0.5-0.1c0,0,0.4-0.1,0.7-0.2l0.1,0h0.1l0.1,0l0.2,0h0.2l0.3,0c0.2,0,0.5-0.1,0.7-0.2
	c0.3-0.1,0.8-0.3,1.2-0.5c0.5-0.2,0.9-0.3,1.4-0.5c0.3-0.1,0.9-0.4,1.3-0.7c0.2-0.1,0.4-0.2,0.5-0.4c0,0,0.6-0.2,0.7-0.3
	c0,0,0.2-0.1,0.3-0.1c0,0,0.2-0.1,0.3-0.1c0,0,0.4,0,0.5,0c0.2,0,0.3,0,0.5-0.1c0,0,0.4-0.4,0.5-0.4c0.2-0.1,0.3-0.2,0.5-0.4
	c0.7-0.5,1.5-1,2.3-1.4c0.7-0.4,2.2-1.2,2.4-1.4c0,0,0.3-0.3,0.4-0.4c0.1-0.1,0.5-0.5,0.9-0.9c0.1-0.1,0.9-0.9,1.3-1.3
	c0.2-0.2,0.4-0.4,0.5-0.6c0.2-0.3,0.4-0.5,0.7-0.7c0.1-0.1,0.2-0.2,0.3-0.3c0.1-0.2,0.2-0.3,0.3-0.5c0,0,0,0,0.1-0.2
	c0-0.1,0.2-0.2,0.2-0.2c0.1-0.1,0.3-0.4,0.3-0.4c0.9-0.9,1.7-2.1,2.3-3.3c0.7-1.2,1.4-2.5,1.9-4c0.2-0.6,0.5-1.6,0.5-2.2
	c0,0-0.2-0.7-0.3-1c-0.1-0.3-0.2-0.7-0.3-1c-0.1-0.3-0.3-0.7-0.4-1c-0.1-0.2-0.4-0.9-0.5-0.8l0,0.2l-0.1,0.6l-0.1,0.5l0,0.1l0,0.2
	c-0.1,0.6-0.1,1-0.3,1.4c-0.2,0.4-0.7,1-1.1,1.4c-0.2,0.3-0.4,0.5-0.5,0.8c-0.1,0.1-0.2,0.3-0.4,0.5c-0.1,0.1-0.2,0.2-0.2,0.2
	c-0.3,0.3-2,0.6-2.6,0.7c-0.3,0-1.5-0.4-2.2-0.6c-0.3-0.1-1.7-1-1.8-1.3c-0.1-0.1-0.1-0.1-0.1-0.2l-0.1-0.1
	c-0.1-0.2-0.1-0.2-0.2-0.2l-0.1-0.1c-0.1-0.2-0.3-0.5-0.5-0.7c-0.3-0.5-0.5-0.9-0.8-1.6c-0.1-0.4-0.2-2.6-0.1-3c0-0.1,0-0.1,0.1-1
	l0-0.5l0-0.8c0-0.3,0.1-0.7,0.1-1c0.2-1,0.5-2.9,0.7-3.3c0.8-2.1,2.1-4.6,4-5.7c0.3-0.2,1.2,0.1,1.5,0.2c2.1,0.6,5.7,5,6.5,6.9
	c0.5,1,0.9,2,1.3,3.1c0.3,0.9,0.5,2,0.6,3l0,0.6c0,0.4,0,0.4,0.1,0.8l0,0.3v0.5l0,0.8l0,0.1c0,0-0.1,0.4-0.1,0.7l0,0.2
	c0,0.2,0,0.5,0,0.7c-0.1,0.6-0.2,1.1-0.3,1.6c0,0.2-0.1,0.5-0.1,0.8c0,0.4-0.1,0.8-0.1,1.1c0,0.2-0.2,0.7-0.2,0.7
	c-0.1,0.2-0.1,0.3-0.2,0.5c-0.1,0.7-0.4,1.6-0.6,2.1c-0.1,0.3-0.3,0.7-0.3,0.9c0,0.6-0.2,0.9-0.5,1.3c-0.4,0.6-0.8,1.2-0.9,1.7
	c-0.3,0.9-0.5,1.6-0.9,2.2c-0.1,0.3-0.8,0.9-1.3,1.4c-0.2,0.2-0.4,0.5-0.5,0.8c-0.2,0.4-0.3,0.7-0.5,1c0,0-0.2,0.2-0.4,0.3
	c-0.1,0.1-0.3,0.2-0.4,0.3c-0.3,0.3-0.7,0.7-0.8,0.7c-0.3,0.2-0.6,0.4-0.8,0.6c-0.1,0.1-0.2,0.2-0.3,0.4c-0.1,0.2-0.2,0.3-0.3,0.5
	c-0.4,0.5-0.9,0.9-1.5,1.3c-0.3,0.2-0.5,0.4-0.7,0.7c-0.2,0.3-0.5,0.6-0.7,0.7c-0.8,0.4-1.6,0.8-2.6,1.1c-0.1,0-0.3,0.1-0.5,0.2
	c-0.2,0.1-0.4,0.2-0.6,0.2c-0.1,0-0.2,0.1-0.3,0.1c-0.1,0.1-0.2,0.1-0.3,0.1c-0.2,0.1-0.5,0.2-0.8,0.2c-1.9,0.3-5.2,0.4-8.1,0.5
	l-0.3,0h-0.1l-0.2,0l-0.5,0l-0.2,0c-0.2,0-0.2,0-0.4,0l-2.8,0.1c-0.5,0-1.1-0.1-1.7-0.2c-0.2,0-0.7-0.1-0.7,0.1
	c-0.1,0.2-0.1,0.3-0.4,0.1l-0.1-0.1l-0.1-0.1c0,0-0.2-0.1-0.2-0.1l-0.1,0l-0.5,0c-0.5-0.1-1.8-0.1-2.5-0.1c-1.1,0-2.3-0.1-3.1-0.3
	c-0.8-0.2-1.8-0.4-2.8-0.4c-0.3,0-0.3-0.1-0.1-0.4l0-0.1l0-0.1l0-0.2l0.1-0.1l0.1-0.2l0-0.4l0-0.2l0.1-0.1
	C642.6,99.5,642.7,99.5,642.7,99.4z"/>
<path class="st0" d="M644.2,25c0.1-0.2,0.4-1.2,0.6-1.9c0.2-0.6,0.4-1.2,0.6-1.8c0.3-0.7,0.6-1.5,0.8-2c0.1-0.1,0.2-0.3,0.3-0.5
	l0.1-0.1l0.1-0.1c0.1-0.1,0.1-0.1,0.1-0.1c0.1-0.2,0.3-0.4,0.4-0.6l0.1-0.1c0.1-0.1,0.1-0.2,0.1-0.2c0.1-0.3,1.2-1.2,1.5-1.3
	c1.1-0.3,2.8,0,3.5,0.5c1,0.7,2.1,1.6,2.7,2.7c1.1,2,1.2,4,0.7,6.8c0,0.2-0.5,1.1-0.8,1.7c-0.2,0.4-1.2,1.3-1.8,1.9
	c-0.4,0.4-1.4,1-2,1.4c-0.2,0.1-0.3,0.2-0.6,0.2c-0.2,0.1-0.5,0.2-0.7,0.3c-0.3,0.2-1.2,0.6-1.2,0.6c-0.4,0.1-1.9,0.2-2.1,0.1
	l-0.2,0l-0.3-0.1c-0.1,0-0.3-0.1-0.3-0.1c-0.1,0-0.2-0.1-0.3-0.1l-0.1-0.1c-0.1-0.1-0.2-0.1-0.2-0.1c-0.6-0.2-1.5-1.2-1.7-1.9
	c-0.1-0.5-0.1-1.3,0.1-1.7c0.1-0.3,0.2-0.8,0.2-1.2c0-0.5,0.1-1,0.2-1.5c0-0.1,0.1-0.3,0.1-0.4l0-0.1l0-0.1l0-0.1L644.2,25z"/>
<path class="st1" d="M646.4,28.2c2.5,0.5,4.4-0.6,6-1.5c0.4-0.2,1.8-1.3,1.7-1.7c0-0.4-0.5-1.6-0.7-1.8c-0.3-0.4-0.9-1-1.3-1.5
	c-0.2-0.2-0.4-0.3-0.6-0.4c-0.1-0.1-0.3-0.2-0.4-0.2l-0.2-0.1l-0.2-0.1c-0.6-0.3-1.7-0.2-2.3,0c-0.3,0.1-1,1-1.2,1.3
	c-0.5,0.8-0.9,1.9-1.3,2.9c-0.2,0.6-0.4,1.2-0.5,1.9c-0.1,0.4-0.1,0.7,0.2,0.9C645.8,27.9,646.1,28,646.4,28.2z"/>
<path class="st0" d="M648.2,34l0.2-0.1c0,0,0.2-0.1,0.3-0.1c0.2,0,0.4,0.1,0.5,0.2c0.1,0.1,0.1,0.7,0.2,1c0,0.2,0,0.5,0.1,0.7
	c0,0.3,0,0.3,0.1,0.5v0.2l0,0.2c0,0.2,0.1,0.6,0.1,0.7c0.2,0.7,0.4,1.5,0.6,2.2c0.2,0.5,0.4,1.4,0.5,1.7c0.1,0.7,0.3,1.5,0.5,2.2
	c0.1,0.3,0.2,0.7,0.3,1l0,0.2l0,0.5c0,0,0.1,0.3,0.1,0.3c0,0.2,0.1,0.5,0.1,0.5c0,0.1,0,0.2,0.1,0.3l0,0.2l0,0.1
	c0,0.2,0.1,0.4,0.1,0.5c0,0.1,0.2,0.4,0.2,0.4s0.1,0.3,0.1,0.3l0,0.1l0,0.3c0.4,1.5,0.8,3.2,1.1,4.7c0.3,1.4,1,5.4,1,5.4
	c0.1,0.4,0.2,1.2,0.2,1.2c0.1,0.6,0.1,1.2,0.3,1.7c0,0,0.2,0.6,0.2,1c0.1,0.4,0.3,1,0.3,1.2c0.3,1.8,0.6,3.7,0.9,5.4
	c0.1,0.5,0.2,1.1,0.3,1.6c0.1,0.8,0.1,1.7,0.2,2.2c0.1,0.5,0.2,1.3,0.2,1.6c0.1,0.9,0.1,1.8,0.2,2.5c0.1,1-0.1,3.5-0.3,5.2l0,0.2
	l0,0.1l0,0.1c-0.1,0.2-0.1,0.5-0.1,0.8l0,0.4c0,0.2,0,0.2,0,0.3l-0.1,0.6l0,0.4l0,0.3c-0.1,1-0.8,3.2-1.3,3.7
	c-0.3,0.3-0.4-0.3-0.4-0.7c0-1,0-2.1,0.1-2.9l0-0.5l0-0.3c0-0.4,0-0.5,0-0.8c0-1.6,0-3.1-0.2-4.6c-0.3-2.1-0.8-5.6-1-6.7
	c-0.1-0.7-0.3-1.5-0.4-2.2l-0.2-1.1c0-0.2-0.1-0.4-0.1-0.5c0-0.2-0.1-0.5-0.1-0.5c-0.1-1.4-0.3-2.6-0.6-3.9l0-0.1l0-0.1l0-0.2l0-0.3
	l-0.1-0.2c0-0.1-0.1-0.3-0.1-0.4c0-0.2-0.1-0.7-0.1-0.8c0-0.1-0.1-0.5-0.1-0.8l0-0.1l0-0.2l0-0.1l0-0.2c0-0.2-0.1-0.4-0.1-0.6
	c0-0.2-0.1-0.4-0.1-0.5c0-0.2,0-0.2,0-0.4c0-0.2,0-0.4-0.1-0.6c-0.1-0.9-0.3-1.5-0.5-2.3c-0.1-0.3-0.3-1-0.3-1.1
	c0-0.1-0.1-0.4-0.1-0.4c-0.1-0.2-0.1-0.4-0.2-0.6l-0.1-0.2l0-0.1l0-0.1l0-0.1l0-0.1l0-0.1l-0.1-0.2l0-0.1l0-0.1l0-0.7l0-0.1
	c0-0.2-0.2-0.8-0.2-0.8c-0.2-0.6-0.5-1.4-0.5-2c0-0.9-0.2-1.6-0.5-2.3c-0.4-1.2-1-2.9-1.1-3.7c-0.2-1.2-0.3-2.6-0.3-3.8
	c0-0.2,0.1-0.5,0.1-0.6c0-0.1,0.1-0.5,0.1-0.7c0-0.2,0-0.2,0.1-0.3c0-0.1,0.1-0.2,0.1-0.2c0-0.1,0-0.2,0-0.3c0-0.2,0-0.2,0-0.5
	C647.6,36.3,648.2,34,648.2,34z"/>
<path class="st0" d="M777.1,10.2c0.1-0.1,0.1-0.1,0.2-0.2c0.1-0.1,0.2-0.3,0.3-0.3c0.2-0.1,0.5,0.1,0.5,0.2c0.4,0.4-0.1,2.5-0.3,3
	c-0.2,0.3-0.3,0.7-0.4,1c-0.1,0.2-0.1,0.4-0.2,0.5c-0.1,0.2-0.2,0.3-0.3,0.5c-0.3,0.7-0.5,1.1-1.2,1.3c-0.6,0.2-1.2,0.5-1.8,0.9
	c0,0-0.3,0.2-0.5,0.2l-0.5,0.2c-0.3,0.2-0.6,0.3-0.9,0.5l-0.2,0.1c-0.2,0.1-0.2,0.1-0.2,0.1c-0.2,0.1-0.4,0.2-0.6,0.3
	c-0.1,0.1-0.4,0.2-0.4,0.2c-0.2,0.1-0.4,0.2-0.5,0.3c-0.1,0.1-1.1,0.6-1.8,0.9l-1,0.5c-0.1,0.1-0.3,0.1-0.4,0.2
	c-0.2,0.1-0.4,0.2-0.6,0.3c-0.3,0.1-1.2,0.6-1.8,0.9c0,0-0.6,0.4-0.9,0.5c-0.1,0-0.3,0.1-0.4,0.2c-0.1,0-0.1,0-0.2,0.1
	c-0.1,0-0.3,0.1-0.4,0.2c0,0-0.3,0.2-0.4,0.2c-0.1,0.1-0.3,0.2-0.5,0.2c-0.3,0.1-0.7,0.3-1,0.5c-0.7,0.3-1.4,0.7-2,1
	c-0.5,0.2-1.2,0.6-1.7,0.9c-0.6,0.4-1.2,0.7-1.9,1c-0.6,0.3-1.2,0.6-1.8,0.9c-0.7,0.3-1.3,0.6-1.9,1c-0.5,0.3-1.3,0.8-1.7,0.9
	c-0.4,0.1-1.5,0.6-2.2,1c-0.6,0.3-1.2,0.7-1.7,1c-0.6,0.4-1.2,0.7-1.9,1c-0.3,0.2-1,0.6-1.5,1c-0.1,0.1-0.2,0.1-0.4,0.2
	c-0.2,0.1-0.3,0.2-0.5,0.3c-0.1,0-0.3,0.1-0.6,0.2c-0.2,0-0.5,0.2-0.7,0.3l-3.5,2c-0.7,0.4-2.1,1.4-3.1,2.1c-0.5,0.3-1,0.7-1.5,1
	c-0.4,0.3-0.9,0.7-1.4,1c-0.2,0.1-0.2,0.1-0.6,0.5c-0.1,0.1-0.1,0.1-0.2,0.1c0,0,0,0-0.2,0.1l-0.2,0.2c0,0-0.1,0.1-0.1,0.1
	c-0.2,0.1-0.7,0.6-0.7,0.6c-0.2,0.2-0.4,0.4-0.7,0.6c-0.3,0.3-0.9,0.9-1.2,1.3c0,0-0.4,0.6-0.5,0.9c-0.1,0.1-0.1,0.3-0.2,0.3
	c-0.1,0.1-0.2,0.3-0.3,0.4c-0.1,0.1,0.3,0.4,0.4,0.4c0.2,0.1,0.3,0.2,0.4,0.4c0.3,0.3,0.6,0.6,0.9,0.9c0.6,0.5,1.4,1.1,1.9,1.6
	c0.2,0.2,0.6,0.5,0.9,0.8c0.3,0.2,0.8,0.6,0.9,0.8c0,0,0.4,0.3,0.5,0.4l0.1,0.1l0.1,0.1l0.3,0.2l0.1,0.1c0,0,0.2,0.1,0.3,0.2
	c0.2,0.1,0.3,0.2,0.5,0.4c0.4,0.3,1.3,1,2,1.5c0.3,0.2,0.7,0.5,1,0.7c0.3,0.2,0.8,0.5,1.1,0.8l0.1,0.1l0.2,0.1l0.1,0.1
	c0.1,0.1,0.1,0.1,0.2,0.2c0.1,0.1,0.2,0.2,0.2,0.2c0.2,0.2,0.3,0.3,0.5,0.4c0.2,0.1,0.3,0.2,0.5,0.4c0.6,0.6,1.2,1.2,1.7,1.8
	c0.3,0.3,0.7,0.8,0.8,0.9c0.1,0.1,0.5,0.6,0.8,0.9c0.5,0.5,1.2,1.2,1.5,1.8c0.1,0.1,0.5,0.7,0.7,0.9c0.3,0.3,0.5,0.6,0.7,0.9
	c0.4,0.5,1,1.5,1.4,2.3c0.8,1.3,1.5,3.5,2.1,5.4c0.6,2,1.2,4,1.5,6.4c0.1,0.7,0.1,1.6-0.1,2.2c-0.1,0.3-0.2,0.7-0.2,1.2
	c0,0.2-0.1,0.3-0.1,0.4c0,0.1-0.1,0.3-0.1,0.5l0,0.1l0,0.4l0,0.2c0,0.3-0.1,0.5-0.1,0.7c-0.1,0.7-0.7,2.4-1.3,2.7l-0.2,0.2l-0.1,0.1
	c-0.1,0.1-0.3,0.2-0.5,0.3c-0.4,0.2-0.7,0.4-1.1,0.6c-1.6,0.8-3.2,1.3-5.2,1.7c-0.3,0-0.6,0.1-0.8,0.2c-0.3,0.1-0.5,0.1-0.8,0.1
	c-0.7,0.1-2,0.2-2.5,0.3c-0.1,0-0.4,0.1-0.4,0.1l-0.6,0.1c-0.3,0-0.5,0-0.6,0.1c-0.2,0.1-0.4,0.1-0.6,0.1c-0.1,0-0.3,0.1-0.5,0.1
	l-0.2,0l-0.4,0l-0.2,0c-0.4,0.1-3.6-0.3-4.6-0.5c-0.5-0.1-1.1-0.2-1.5-0.4c-0.2-0.1-0.3-0.1-0.5-0.2c-0.2-0.1-0.4-0.2-0.7-0.2
	c-1-0.3-2.1-0.5-3-0.9c-0.1-0.1-0.1-0.1-0.2-0.1c0,0-0.2-0.1-0.3-0.1c-0.1,0-0.2-0.1-0.3-0.2l-0.3-0.2l-0.1,0l-0.2-0.1l-0.1-0.1
	c0,0-0.1-0.1-0.3-0.1c-0.1,0-0.1,0-0.2-0.1c-0.1,0-0.2-0.1-0.3-0.1c-0.3-0.1-2.7,1.1-3.4,1.4c0,0-0.3,0.1-0.4,0.1
	c-0.1,0-0.3,0.1-0.5,0.1c-0.1,0-0.3,0.1-0.3,0.1c-0.1,0.1-0.3,0.1-0.5,0.2c-0.2,0.1-0.5,0.3-0.8,0.4c-0.3,0.1-0.6,0.3-0.9,0.4
	c-1,0.3-2.2,0.6-3.1,1c-0.2,0.1-1.2,0.3-1.8,0.4c-0.4,0.1-0.8,0.1-1.2,0.2l-0.1,0l-0.1,0l-0.1,0l-0.1,0c-0.2,0-0.8,0.1-0.8,0.1
	c0.2-0.1-0.8-0.1-1-0.1c-0.2,0-0.3,0-0.5,0l-1,0c-0.2,0-0.2,0-0.3,0c-0.1,0-0.1,0-0.3,0c-0.1,0-0.3,1.1-0.4,1.4
	c-0.1,0.4-0.2,1.2-0.3,1.4c0,0.1,0,0.1-0.1,0.2c0,0.1-0.1,0.3-0.1,0.4c0,0.1-0.1,0.3-0.1,0.5l-0.1,0.5l0,0.1l0,0.2
	c0,0-0.1,0.3-0.1,0.3c-0.1,0.1-0.1,0.1-0.1,0.1c0,0.1,0,0.2-0.1,0.3l-0.1,0.6c-0.1,0.4-0.3,0.9-0.4,1.1c-0.2,0.4-0.3,0.9-0.4,1.3
	c-0.1,0.5-0.2,1-0.5,1.4c0,0-0.1,0.2-0.2,0.2l-0.1,0.2l-0.1,0.2c-0.2,0.3-0.3,0.5-0.5,0.8c-0.1,0.2-0.2,0.5-0.3,0.8
	c-0.1,0.3-0.2,0.7-0.4,0.9c-0.1,0.1-0.6,0.9-0.9,1.4c0,0-0.1,0.3-0.2,0.4c-0.1,0.1-0.1,0.3-0.2,0.4c-0.2,0.2-0.3,0.5-0.5,0.7
	c-0.4,0.3-1,1.1-1.5,1.7c-0.2,0.3-0.5,0.6-0.8,0.8c-0.1,0.1-0.5,0.5-0.8,0.8c-0.1,0.1-4.2,2.4-4.4,2.4c-0.3,0.1-0.7,0.3-1.2,0.4
	c-0.1,0.1-0.3,0.1-0.4,0.1l-0.3,0.1l-0.3,0l-0.2,0c-0.1,0-0.7,0.2-1,0.3c-0.4,0.1-0.8,0.2-1.3,0.3c-0.2,0-0.6-0.1-0.8-0.1
	c-0.2-0.1-0.7-0.2-0.8-0.1c-0.1,0-1.1,0.2-1.3,0.3c-0.2,0-0.3,0-0.5,0c-0.1,0-0.2,0-0.5-0.1l-0.1,0l-0.2,0l-0.4,0l-0.2,0
	c0,0-0.7,0-0.8,0c-0.2,0-0.6,0-1,0c-0.4,0-0.9-0.1-1.4-0.1c-0.5-0.1-1-0.2-1.4-0.3c-0.2,0-0.2,0-0.3-0.1c0,0-0.3-0.1-0.4-0.1
	l-0.3-0.1c-0.2,0-0.3-0.1-0.5-0.1c-0.1,0-0.1,0-0.3-0.1c-0.2,0-0.3-0.1-0.5-0.1l-0.1,0l-0.2,0c-0.1,0-0.2-0.1-0.3-0.1l-0.1,0
	l-0.2-0.1c0,0,0,0-0.2-0.1l-0.2-0.1c-0.1,0-0.2-0.1-0.3-0.1c-0.2-0.1-0.4-0.1-0.6-0.1c-0.2,0-0.5-0.1-0.6-0.2
	c-0.8-0.3-1.6-0.6-2.4-0.8c-0.9-0.2-1.7-0.5-2.5-0.9c-0.1-0.1-1.5-0.6-2.5-0.9c-0.2-0.1-0.3-0.2-0.4-0.3c-0.1-0.2-0.2-0.3-0.5-0.4
	c-0.2-0.1-0.5-0.2-0.7-0.3c-0.1-0.1-0.2-0.1-0.3-0.2l-0.2-0.1l-0.1-0.1c-0.2-0.1-0.2-0.5-0.2-0.7c0-0.5,0.5-0.7,0.9-0.9
	c0.7-0.2,1.4,0.2,1.9,0.5c0.7,0.4,1.8,0.9,2.7,1.1c0.2,0.1,0.5,0.1,0.7,0.2c0.2,0.1,0.5,0.1,0.8,0.2c0.6,0.1,1.4,0.3,1.7,0.4
	c0.9,0.4,2.1,0.6,3.2,0.8c1,0.1,3.3,0.4,3.3,0.4c0.7,0,2-0.1,2.4-0.1c0.2,0,0.4-0.1,0.5-0.1l0.6-0.1c0,0,0.6,0,0.6-0.1
	c0,0,0.4-0.1,0.5-0.2c0.1,0,0.6-0.1,0.9-0.1c0.1,0,0.7-0.2,1.2-0.4c0.8-0.3,1.5-0.5,2.4-0.7c1.8-0.2,3.4-1.2,4.7-2
	c0.4-0.3,1.2-0.8,1.7-1.2c0.2-0.1,0.5-0.5,0.7-0.8c0.1-0.1,0.5-0.4,0.7-0.6c0.5-0.4,1.2-0.9,1.8-1.5c0.1-0.1,0.1-0.1,0.3-0.3
	l0.1-0.1l0.1-0.1l0.2-0.2l0.2-0.1l0.1-0.1l0.1-0.1c0.1-0.1,0.1-0.1,0.1-0.2l0.2-0.3l0.1-0.2c0.1-0.1,0.1-0.2,0.1-0.2
	c0.1-0.1,0.1-0.1,0.2-0.2c0,0,0.2-0.2,0.3-0.3c0.3-0.3,0.7-0.9,0.9-1.3c0-0.1,0.1-0.2,0.2-0.3c0.1-0.1,0.1-0.2,0.2-0.3
	c0.1-0.2,0.3-0.5,0.4-0.7c0,0,0.1-0.2,0.2-0.3c0.1-0.1,0.1-0.2,0.2-0.3l0-0.1c0-0.1,0.1-0.2,0.2-0.3l0.1-0.1l0.1-0.2l0-0.1l0.1-0.2
	l0.1-0.2l0.1-0.1c0.1-0.2,0.2-0.5,0.4-0.7c0.3-0.4,0.7-1.2,0.8-1.6l0-0.1l0-0.1l0.1-0.2c0-0.2,0-0.2,0.1-0.2c0,0,0.1-0.2,0.1-0.3
	c0.1-0.4,0.3-1,0.2-1.1l-0.1,0l-0.2,0c-0.2,0-0.3-0.1-0.5-0.2c-0.3-0.1-0.7-0.3-0.9-0.4c-0.6-0.3-1.1-0.8-1.5-1.3
	c-0.5-0.5-1-1.8-1.4-3c-0.6-1.6-0.9-3.7-0.5-5.7c0.1-0.2,0.2-0.4,0.4-0.5c0.1-0.1,0.6-0.1,0.6,0c0,0,0.6,1.2,0.8,1.4
	c0.1,0.2,0.3,0.6,0.3,0.6c0.1,0.2,0.4,0.6,0.4,0.6c0.3,0.5,0.9,1,1.4,1.3c0.5,0.3,1.2,0.6,1.8,0.7c1.1,0.2,2.3,0.4,3.3,0.5
	c1.1,0.1,2.3,0,3.4-0.2c1.7-0.2,3.1-0.7,4.5-1.2c0.2-0.1,0.5-0.2,0.6-0.2c0.2-0.1,0.4-0.2,0.6-0.2c0.1,0,0.1,0,0.3-0.1l0.1,0
	c0.1,0,0.5-0.2,0.5-0.2c0,0-0.3-0.6-0.5-0.8c-0.2-0.3-0.4-0.7-0.5-1c-0.1-0.4-0.2-1-0.3-1.2c0-0.3,0-1.3-0.1-1.3
	c-0.1-0.2-0.2-0.3-0.2-0.6c-0.1-0.2,0.1-1.4,0.2-2.1v-0.1l0-0.6c0-0.1,0-0.1,0-0.2c0.1-0.4,0.1-0.7,0.1-1.1c0-0.3,0.4-1.4,0.5-1.6
	c0.1-0.2,0.3-0.4,0.4-0.6c0.2-0.2,0.3-0.5,0.4-0.8c0-0.1,0.1-0.3,0.1-0.3c0-0.2,0-0.2,0.2-0.3c0,0,0.1-0.2,0.1-0.2
	c0,0,0.1-0.2,0.2-0.3c0.1-0.1,0.2-0.3,0.2-0.4c0-0.1,0.1-0.2,0.2-0.3c0,0,0.2-0.3,0.2-0.4c0.1-0.2,0.3-0.5,0.4-0.7
	c0.5-0.7,1.6-2.3,1.7-2.4c0.4-0.3,0.8-0.7,1.1-1c0.2-0.2,0.3-0.3,0.5-0.4c0,0,0.2-0.2,0.3-0.3c0.1-0.1,0.1-0.2,0.3-0.2
	c0.1-0.1,0.4-0.2,0.4-0.2c0.1-0.1,0.1-0.1,0.2-0.1c0.1-0.1,0.1-0.1,0.1-0.1c0.3-0.2,0.6-0.3,0.9-0.4c0.5-0.1,1.1,0,1.4,0.2
	c0.7,0.3,1.3,0.5,1.8,1c1.2,1,2.1,2.3,2.9,3.7c0.7,1.3,1.2,3.4,1.7,5.3c0.2,0.6,0,1.7,0,2.4c0,0.3-0.1,0.5-0.2,0.8l-0.1,0.2
	c0,0.1-0.1,0.2-0.1,0.3l-0.1,0.2l0,0.1l0,0.3l0,0.1c0,0.2-0.1,0.4-0.2,0.6c0,0.1,0,0.1-0.1,0.2c0,0.1-0.1,0.2-0.1,0.3
	c-0.1,0.2-0.2,0.4-0.2,0.6c-0.1,0.3-0.4,0.6-0.6,0.9c-0.2,0.3-0.5,0.6-0.7,1c-0.2,0.4-0.4,0.7-0.7,1c-0.2,0.2-0.6,0.8-0.6,1
	c0,0.1,3.6,0.8,3.8,0.9c1.2,0.2,2.4,0.3,3.7,0.3c0.6,0,1.2-0.2,1.7-0.3c0.4-0.1,1.7-0.3,2.3-0.4c1.4-0.2,3.2-0.4,4.1-0.7
	c2-0.6,4.1-1.3,5.5-2.5c0.2-0.1,0.2-0.4,0.1-0.6l-0.1-0.1c-0.1-0.2-0.1-0.2-0.1-0.2c0-0.1,0-0.1-0.1-0.2l-0.1-0.2
	c-0.1-0.2-0.1-0.3-0.2-0.4c-0.1-0.1-0.2-0.4-0.2-0.4c-0.1-0.2-0.3-0.6-0.4-0.9c0,0-0.1-0.2-0.1-0.2c-0.1-0.2-0.1-0.2-0.1-0.3
	c0,0-0.1-0.3-0.2-0.4c-0.5-1.2-0.9-2.4-1.5-3.6c-0.3-0.7-0.9-1.6-1.4-2.4c-0.5-0.7-1.1-1.6-1.5-2.1c-0.6-0.6-1.2-1.3-1.8-2
	c-0.3-0.3-0.7-0.9-0.9-1c-0.3-0.3-0.8-0.6-1-0.9c-0.5-0.7-1.2-1.4-1.9-1.9c-0.7-0.6-1.4-1.1-2.2-1.5c-0.2-0.1-0.9-0.6-1.1-0.8
	c-0.1-0.1-0.2-0.2-0.4-0.3l-0.1-0.1c-0.2-0.1-0.4-0.3-0.5-0.5c-0.3-0.4-1.7-1.6-2-1.6c0,0,0,0.4,0,0.4v0.2c0,0.1,0,0.1,0,0.3
	c0,0-0.1,0.4-0.1,0.6c-0.1,0.2-0.3,0.9-0.5,1c-0.5,0.1-0.9-0.2-1.3-0.4c-0.3-0.2-0.7-0.4-1.1-0.6c-0.4-0.1-0.8-0.3-1.2-0.5
	c-0.2-0.1-0.4-0.2-0.5-0.3c-0.1-0.1-0.3-0.2-0.3-0.2c-0.1,0-0.2-0.1-0.2-0.1l-0.3-0.2c-0.1-0.1-0.1-0.1-0.2-0.1l-0.1-0.1
	c0,0-0.4-0.4-0.6-0.7c-0.1-0.1-0.5-1-0.7-1.6c-0.1-0.3-0.2-4.9,0-5.2l0-0.3l0-0.2l0-0.1l0-0.2l0-0.1l0-0.2l0-0.2l0.1-0.3l0-0.3
	l0-0.2l0-0.1l0-0.1l0-0.1l0-0.1l0-0.2c0-0.1,0.1-0.3,0.1-0.4c0-0.1,0.1-0.3,0.1-0.4c0.1-0.3,0.1-0.6,0.2-0.7c0,0,0.1-0.1,0.2-0.1
	c0.1,0,0.2-0.1,0.2-0.2c0-0.2,0-0.4,0.1-0.6l0-0.1l0.1-0.1c0-0.1,0-0.4,0-0.5c0-0.5,0.1-0.9,0.3-1.2c0.2-0.3,0.2-0.7,0.3-1.2
	c0-0.3,0.3-0.6,0.4-0.9c0.3-0.5,0.7-1,1-1.5c0.3-0.5,0.8-1.1,1.2-1.5c0.7-0.8,1.8-1.6,2.7-2.2c1-0.6,2-1.3,2.9-2.1
	c0.1-0.1,0.2-0.2,0.4-0.3l0.2-0.2c0,0,0.2-0.2,0.3-0.2c0.1-0.1,0.3-0.2,0.4-0.3c0.3-0.2,1.2-0.7,1.8-1.1c1-0.6,3.3-1.9,3.3-1.9
	c0.5-0.3,1.2-0.7,1.8-0.9c0.1-0.1,0.3-0.1,0.4-0.2c0.2-0.1,0.4-0.3,0.4-0.3c0.2-0.1,0.3-0.1,0.4-0.2c0.1-0.1,0.4-0.2,0.5-0.3
	c1.2-0.5,2.5-1.2,3.6-1.9c0.1-0.1,0.3-0.1,0.4-0.2c0.1-0.1,0.3-0.2,0.5-0.3l0.1,0l0.2-0.1c0,0,0.1,0,0.2-0.1c0.1,0,0.3-0.1,0.4-0.2
	c0.1-0.1,0.1-0.1,0.2-0.1l0.1-0.1l0.2-0.1l0.1,0l0.1-0.1l0.1-0.1l0.1-0.1c0.3-0.1,0.9-0.5,1-0.5c1-0.7,2.4-1.3,3.6-1.9
	c2.3-1.1,7.1-3.6,7.5-3.8c0.2-0.1,0.6-0.3,0.9-0.4c0.3-0.1,0.7-0.3,1-0.5c0.6-0.3,1.2-0.6,1.9-1c1.2-0.7,2.3-1.2,3.5-1.7
	c0.3-0.1,0.6-0.3,0.9-0.4c0.3-0.2,0.8-0.4,1-0.5c0.2-0.1,0.2-0.1,0.2-0.1c0.1,0,0.1,0,0.2-0.1c0.1,0,0.1,0,0.2-0.1
	c0.1-0.1,0.2-0.1,0.3-0.1c0,0,0.4-0.2,0.5-0.2c0.2-0.1,0.4-0.2,0.6-0.2C773.5,11.9,777,10.2,777.1,10.2z"/>
<path class="st1" d="M673.3,72.9c0.5,0.4,1.1,0.8,1.7,1c0.1,0,0.3,0.1,0.4,0.1l0.2,0l1,0l0.1,0l0.1,0c0.3,0,0.3,0,0.4-0.1l0.2-0.1
	c0.3-0.1,0.5-0.2,0.7-0.3c0.3-0.3,0.6-0.6,0.8-0.9c0.1-0.1,0.1-0.2,0.2-0.2c0.1-0.1,0.1-0.1,0.2-0.2c0.1-0.2,0.4-0.5,0.4-0.5
	c0.2-0.5-3.2-3.7-3.3-3.7l-0.2-0.1c-0.1-0.1-0.2-0.1-0.3-0.2l-0.2-0.1l-0.1-0.1c-0.1-0.1-0.1-0.1-0.2-0.1c-0.5-0.2-0.9-0.2-1.2,0.1
	c-0.5,0.5-0.9,1-1.3,1.7c-0.3,0.5-0.9,1.8-0.9,2.1c0,0.3,0.3,0.7,0.5,1c0.1,0.1,0.2,0.3,0.3,0.4C673,72.5,673.3,72.9,673.3,72.9z"/>
<path class="st0" d="M682.4,45.5c0.3-0.1,1.8-1.7,2.6-2.5c0.7-0.7,2.6-2.6,2.6-2.6c0.3-0.2,2.6-3.1,2.7-3.3c0-0.1-2.1-1-2.3-1.1
	c-0.4-0.1-1-0.4-1.2-0.4c-0.4-0.1-1-0.3-1.3-0.5l-0.1,0c-0.1,0-0.2-0.1-0.2-0.2c-0.1-0.1-0.3-0.3-0.4-0.4l-0.5-0.5l-0.1-0.1
	c-0.1-0.1-0.2-0.2-0.2-0.2c-0.2-0.2-0.4-1-0.5-1.4c-0.1-0.6,0-1.6,0.1-2.1l0-0.1l0-0.1l0-0.1c0-0.1,0.1-0.3,0.1-0.4
	c0.1-0.2,0.2-0.4,0.2-0.6c0.2-0.6,0.4-1.2,0.6-1.6c0.4-0.9,1.6-2,2.4-2.5c0.2-0.1,0.6-0.3,0.9-0.5c0.2-0.1,0.3-0.1,0.6-0.1
	c0.1,0,0.4-0.1,0.5-0.1c0.9-0.3,1.5-0.2,2.2,0.4c0.4,0.4,0.9,0.8,1.1,1.3c0.3,0.7,1,2.1,1,2.3c0.2,0.7,0.4,1.9,0.4,2.2
	c0.1,2.2-0.1,4.7-0.6,6.6c-0.3,1-1.1,2.5-1.7,3.2c-0.4,0.5-1.3,1.7-1.3,1.8c-0.1,0.1-0.3,0.3-0.3,0.4c0,0-0.3,0.4-0.5,0.6
	c-0.1,0.1-0.1,0.1-0.1,0.2c-0.1,0.1-0.1,0.1-0.2,0.2c-0.1,0.1-0.2,0.2-0.2,0.2c-0.3,0.4-0.7,0.7-1.1,0.9c-0.3,0.3-1.2,0.9-1.2,0.9
	c-0.2,0.1-0.5,0.4-0.5,0.4c-0.1,0.1-0.2,0.2-0.3,0.3c-0.1,0.1-0.2,0.2-0.3,0.2c-0.4,0.3-0.8,0.7-1.3,0.9c-1.5,0.9-5.9,3.4-6.2,3.4
	c-0.8,0.2-1.4,0.1-1-0.7c0,0,0.5-0.4,0.6-0.5c0.2-0.2,0.5-0.3,0.7-0.5c0.1-0.1,0.9-0.7,1.4-1C680.5,47.2,682.2,45.9,682.4,45.5z"/>
<path class="st1" d="M691.8,33.7c0.4-0.3-0.2-2.6-0.4-3.1c-0.2-0.6-1.4-2.3-2-2.4c-0.3-0.1-0.8-0.1-1,0c0,0-0.4,0.2-0.6,0.2
	c-0.1,0-0.2,0.1-0.3,0.1c-0.3,0.1-0.6,0.3-0.9,0.5c-0.3,0.2-0.9,0.8-0.8,1.4c0.1,0.2,1,0.8,1.3,0.9c0.6,0.2,1.3,0.4,1.8,0.6
	c0.6,0.3,1.2,0.5,1.7,0.8l0.3,0.2l0.2,0.1c0.1,0.1,0.1,0.1,0.2,0.1c0.1,0.1,0.2,0.1,0.3,0.3l0.1,0.2
	C691.7,33.6,691.8,33.7,691.8,33.7z"/>
<path class="st0" d="M698.6,43.3c0.1-0.1,0.1-0.1,0.1-0.2c0.1-0.1,0.1-0.1,0.2-0.2c0.3-0.1,0.5-0.2,0.8-0.4c0.2-0.1,0.4-0.2,0.7-0.3
	c0.2-0.1,0.8-0.4,0.8-0.4c0.2-0.1,0.4-0.2,0.6-0.3l0.1,0c0.2-0.1,0.2-0.1,0.2-0.1c0.1,0,0.1,0,0.2-0.1l0.2-0.1l1.3-0.7
	c1.9-1,3.8-2,5.7-2.9l0.1-0.1l0.1-0.1l0.1-0.1l0.1-0.1c0.1-0.1,0.1-0.1,0.2-0.1c0.1,0,0.2-0.1,0.3-0.1c0.1,0,0.3-0.2,0.5-0.2
	c0.2-0.1,0.4-0.2,0.6-0.3c0.2-0.1,0.5-0.2,0.8-0.4c0.2-0.1,0.4-0.2,0.7-0.3c0.2-0.1,0.5-0.2,0.8-0.4c0.3-0.1,1-0.5,1.4-0.7
	c0.9-0.5,1.8-1,2.7-1.5c0.4-0.2,0.9-0.5,1.3-0.7c0.1-0.1,0.4-0.3,0.7-0.5c0,0,0.1-0.1,0.2-0.1c0.1-0.1,0.2-0.2,0.3-0.2
	c0.4-0.1,0.7,0.4,0.9,0.7c0.1,0.2-0.2,2.4-0.3,2.6c-0.2,0.4-0.5,0.8-0.7,1c-0.1,0.1-0.4,0.2-0.6,0.2c-0.2,0.1-0.5,0.2-0.8,0.4
	c0,0-0.2,0.2-0.3,0.2l-0.2,0.1c0,0-0.4,0.2-0.6,0.3c-0.4,0.2-1.1,0.6-1.3,0.7c-0.3,0.1-1,0.5-1.5,0.7c-0.8,0.4-1.7,0.9-2.6,1.2
	l-0.1,0l-0.1,0.1l-0.1,0.1c-0.1,0.1-0.3,0.1-0.4,0.2c-0.1,0-0.2,0.1-0.3,0.2c-0.1,0.1-0.3,0.2-0.4,0.2c-0.1,0-0.3,0.1-0.4,0.1
	c-0.2,0.1-0.3,0.1-0.5,0.2c-0.2,0.1-0.5,0.3-0.7,0.4c-1,0.4-1.9,1-2.7,1.5c-0.2,0.1-0.4,0.2-0.7,0.3l-0.2,0.1l-0.1,0l-0.1,0
	c-0.1,0-0.1,0-0.2,0.1c-0.2,0.1-0.9,0.5-1.4,0.7c0,0-0.3,0.1-0.4,0.2c-0.1,0-0.2,0.1-0.3,0.2c-0.2,0.1-0.4,0.3-0.6,0.4
	c-0.4,0.2-0.9,0.5-1.3,0.7c-0.5,0.2-1.1,0.5-1.3,0.8c-0.3,0.3-0.8,0.7-1.2,0.9c-1.1,0.4-0.9-1.6-0.6-2.1c0.1-0.1,0.1-0.2,0.1-0.3
	c0,0,0-0.1,0.1-0.4c0-0.1,0-0.3,0.1-0.3C698.3,44,698.5,43.4,698.6,43.3z"/>
<path class="st0" d="M708.8,55.4c0,0,0.2-0.4,0.3-0.5c0.1-0.1,0.2-0.4,0.3-0.6l0-0.1l0.1-0.1l0.1-0.2c0.1-0.3,0.3-0.6,0.4-0.7
	c0.1-0.1,0.7-0.2,0.8,0c0,0,0.8,0.4,1.1,0.6c0.4,0.2,0.7,0.4,1.1,0.6l0.1,0.1l0.1,0.1c0.1,0.1,0.2,0.1,0.3,0.2
	c0.2,0.1,0.4,0.2,0.5,0.3c0.4,0.2,0.9,0.5,1,0.6c0,0,0.2,0.1,0.2,0.2c0,0,0.2,0.2,0.3,0.3c0.1,0.1,0.4,0.3,0.5,0.5
	c0.4,0.4,0.6,0.7,0.8,1.3c0.1,0.3-0.3,1.3-0.5,1.5c-0.1,0.2-0.3,0.5-0.5,0.5c-0.2,0.2-0.4,0.3-0.5,0.5c-0.1,0.1-0.1,0.2-0.2,0.3
	c0,0.1-0.1,0.3-0.1,0.4c-0.1,0.3-0.3,0.6-0.4,0.8c-0.5,0.6-0.7,0.5-1.3,0.2c-0.2-0.1-0.4-0.2-0.6-0.2c-0.3-0.1-0.8-0.2-0.8-0.2
	c-0.4-0.3-0.9-0.6-1.3-0.8c-0.5-0.3-1-0.5-1.6-0.7c-0.3-0.1-0.9-0.7-1.1-1c-0.2-0.4,0.1-1.5,0.3-1.8c0.1-0.1,0.1-0.2,0.1-0.3
	c0-0.1,0.1-0.2,0.2-0.4c0.1-0.1,0.1-0.2,0.1-0.3C708.7,55.9,708.8,55.7,708.8,55.4z"/>
<path class="st1" d="M721.5,80.2c0.4,0.1,3.6-1.8,4-2.1c0.7-0.5,2.4-2.3,2.8-3c0.3-0.6-2.6-4.7-2.8-4.8c-0.1-0.1-0.1-0.1-0.1-0.1
	l-0.1-0.1c-0.2-0.2-0.4-0.3-0.6-0.5c-0.5-0.3-1.1-0.6-1.6-0.7c-0.5-0.1-2.3,0.9-2.5,1.2l-2,2.1c-0.2,0.2-1.2,1.9-1.4,2.3
	c-0.1,0.2-0.2,0.4-0.3,0.6c-0.1,0.2-0.3,0.5-0.4,0.7c-0.2,0.5,0.4,1,0.7,1.3C718.3,78.4,719.6,79.6,721.5,80.2z"/>
<path class="st0" d="M723.5,19.8c0.2-0.3,1.9-1.1,2.9-1.6c0.5-0.3,1.2-0.6,1.6-0.7c0.5-0.2,1.1-0.5,1.6-0.7c1-0.5,2.1-1,2.9-1.4
	c1.1-0.5,2.2-1,3.2-1.5c0.8-0.5,1.8-1,2.8-1.4c0.5-0.3,1.1-0.5,1.6-0.7c0.3-0.1,1.1-0.5,1.6-0.8c0.9-0.4,2.9-1.4,3-1.4
	c1-0.4,2-0.9,2.9-1.4c0.1-0.1,0.4,0.1,0.5,0.2c0.2,0.1,0.3,0.5,0.3,0.8c0,0.3-0.4,2.5-0.5,2.7c-0.1,0.1-0.1,0.2-0.2,0.2
	c-0.2,0.2-0.4,0.4-0.5,0.5l-0.1,0l-0.5,0l-0.2,0l-0.2,0.1l-0.1,0.1l-0.3,0.2c-0.1,0.1-0.3,0.2-0.4,0.2c-0.2,0.1-0.5,0.2-0.7,0.3
	c-0.1,0.1-0.5,0.2-0.7,0.3c-1.1,0.4-2.1,0.8-3.1,1.3c-0.5,0.2-1.4,0.7-1.5,0.7c-0.1,0.1-0.2,0.1-0.3,0.1c-0.1,0-0.3,0.1-0.4,0.2
	c-0.1,0.1-0.2,0.1-0.3,0.1c-0.2,0.1-0.3,0.1-0.5,0.2l-0.1,0l-0.1,0.1c-0.1,0-0.1,0-0.3,0.1l-0.2,0.1c-0.2,0.1-0.5,0.3-0.7,0.4
	c0,0-0.5,0.2-0.7,0.3c-0.1,0.1-0.3,0.1-0.5,0.2l-0.1,0.1l-0.1,0.1l-0.1,0.1c-2,1-3.9,1.9-6,2.8c-0.5,0.2-0.9,0.4-1.3,0.7
	c-0.5,0.3-1,0.6-1.5,0.8c-0.5,0.2-1,0.5-1.4,0.8c-0.3,0.3-0.9,0.7-1.2,0.7c-0.2,0-0.4-0.1-0.5-0.2C722.5,22.7,723.2,20.4,723.5,19.8
	z"/>
<path class="st0" d="M783.1,37.7c0.4,0,0.9,0.5,0.9,0.9v0.1l0,0.6c0,0.1,0,0.2-0.1,0.3c0,0.2-0.1,0.3-0.1,0.5
	c-0.1,0.5-0.2,1.1-0.3,1.3c-0.2,0.3-0.5,0.6-0.7,0.7c-0.3,0.1-0.3,0.1-0.7,0.1c-0.1,0-0.3,0.1-0.4,0.1l-0.1,0.1l-0.1,0.1l-0.1,0.1
	c-0.1,0.1-0.3,0.2-0.4,0.2c-0.2,0.1-0.5,0.3-0.7,0.4c-0.2,0.1-0.4,0.3-0.6,0.3c-0.5,0.2-1,0.3-1.4,0.6c-0.5,0.3-1.1,0.6-1.6,0.7
	c-1.1,0.3-2,0.8-2.9,1.2c-1,0.5-2.1,1-3.2,1.5c-0.1,0.1-0.2,0.1-0.3,0.2c0,0-0.3,0.1-0.4,0.2c-0.1,0-0.6,0.2-0.9,0.3
	c-0.5,0.2-1.1,0.4-1.6,0.7c-0.1,0.1-0.2,0.1-0.3,0.1c-0.1,0.1-0.3,0.1-0.4,0.2c-0.2,0.1-0.6,0.3-0.7,0.4c-0.3,0.1-0.5,0.2-0.7,0.4
	c-0.1,0.1-0.6,0.3-0.9,0.4c-0.5,0.2-1,0.5-1.5,0.8c-0.3,0.2-0.4,0.2-0.9,0.4c-0.2,0-0.6,0.2-0.8,0.4c-0.4,0.2-0.9,0.5-1.3,0.8
	c-0.4,0.3-0.9,0.8-1.2,0.9c-0.2,0.1-0.4,0-0.6-0.1c-0.6-0.4,0.4-3.4,0.7-3.7c1.6-1.3,3.7-2.2,5.7-3c1.1-0.5,2.2-0.9,3.1-1.5
	c0.5-0.3,2-0.9,3.2-1.4c1-0.4,2-0.9,3-1.5c0.8-0.5,2.2-1.1,3.3-1.5c1.1-0.5,2.6-1.1,3.2-1.5c0.2-0.1,0.9-0.5,1.4-0.7
	c0.1-0.1,0.3-0.1,0.3-0.2l0.1-0.1l0.2-0.1l0.1-0.1c0.1-0.1,0.3-0.1,0.4-0.2C782.9,37.8,783.1,37.7,783.1,37.7z"/>
<path class="st0" d="M768.4,59.9c0.1-0.4,1.2-2.9,1.7-2.2c0,0,1.3,0.7,1.6,0.8c0.5,0.2,1.1,0.6,1.6,0.8c0.7,0.4,2.3,1.4,2.5,1.8
	c0.1,0.2-0.3,1.5-0.4,1.7c-0.2,0.4-0.5,0.8-0.9,1.2c-0.1,0.1-0.1,0.1-0.1,0.1c-0.1,0.1-0.1,0.2-0.2,0.2c0,0.1-0.1,0.2-0.2,0.3
	c-0.1,0.2-0.1,0.3-0.3,0.4c-0.1,0.1-0.1,0.1-0.2,0.2c0,0.1-0.1,0.2-0.2,0.3c-0.1,0.1-0.4,0.5-0.4,0.5c-0.1,0.1-0.4,0.3-0.4,0.3
	l-0.1-0.1c0,0,0,0-0.2-0.1c-0.1-0.1-0.3-0.1-0.4-0.2l-0.1-0.1c-0.1,0-0.1,0-0.3-0.1l-0.1-0.1l-0.1-0.1l-0.1,0l-0.1,0
	c0,0-0.1-0.1-0.2-0.1c0,0,0,0-0.2-0.1c0,0,0,0-0.3-0.1c-0.4-0.1-2.5-1.2-2.6-1.5c-0.1-0.3-0.1-0.3-0.2-0.4c-0.1-0.1-0.1-0.2-0.1-0.4
	c-0.1-0.6,0.2-1.2,0.5-1.6c0.1-0.2,0.3-0.6,0.3-0.7C768.3,61,768.4,59.9,768.4,59.9z"/>
<path class="st0" d="M794.6,101.6c0.3-0.2,5.2,2.3,5.4,2.5c0.1,0.1,1.1-0.1,1.1-0.1l0-0.1l0-0.1l0.1-0.1l0.1-0.2
	c0.1-0.2,0.2-0.4,0.3-0.6l0.1-0.1l0.1-0.1l0.1-0.1l0.1-0.1l0.1-0.1c0.1-0.1,0.1-0.1,0.1-0.8c0-0.1,0.1-0.3,0.2-0.4
	c0.2-0.3,0.6-1,0.6-1c0.1-0.2,0.2-0.4,0.3-0.6c0.1-0.2,0.2-0.4,0.4-0.5c0.7-0.6,6.1,3.5,6.1,3.6c0.1,0.2-0.3,1.2-0.4,1.6
	c-0.2,0.4-0.4,0.7-0.9,1.1c-0.2,0.2-0.5,0.7-0.8,1.2c-0.1,0.1-0.9,0.8-1.1,0.9c-0.2,0.1-2.3-0.8-2.6-1c-0.2-0.1-0.4-0.2-0.6-0.3
	c-0.1,0-0.2-0.1-0.3-0.2c-0.1,0-0.2-0.1-0.3-0.2c-0.2-0.1-1.4-0.7-1.4-0.5c-0.3,1-0.6,1.7-1.1,2.5c-0.1,0.1-0.4,0.8-0.6,1.2
	c-0.1,0.2-0.3,0.5-0.4,0.7c-0.1,0.1-0.1,0.1-0.1,0.1l-0.1,0.1c-0.1,0.1-0.1,0.1-0.1,0.1c0,0.1-0.5,0.4-0.6,0.5
	c-0.1,0-0.9-0.4-1.3-0.7c-0.2-0.1-1-0.5-1.5-0.7c-0.5-0.2-1.1-0.5-1.4-0.7c-0.4-0.2-1.1-0.5-1.3-0.7c-0.4-0.5,0-1.4,0.2-1.9
	c0.1-0.1,0.1-0.3,0.2-0.3c0.1-0.1,0.1-0.2,0.2-0.4c0-0.1,0.1-0.3,0.1-0.4l0-0.2c0-0.2,0-0.2,0-0.3c0.2-0.4,0.4-0.9,0.7-1.2
	C794.1,102.6,794.5,101.8,794.6,101.6z"/>
<path class="st2" d="M802.8,82.6c0.3-0.1,0.5,0.1,0.6,0.2c0.1,0.1,0.3,0.3,0.3,0.5c0.1,0.3,0.2,0.4,0.4,0.6c0.2,0.2,0.8,0.4,1.2,0.4
	c1.7,0.2,4.1,0.1,5.4-0.2c0.7-0.2,1.4-0.4,2.1-0.6l0.3-0.1l0.2-0.1l0.1,0c0.1,0,0.1,0,0.2-0.1c0.2-0.1,0.4-0.1,0.6-0.2
	c0.2,0,0.6-0.1,0.7-0.1c0.3-0.1,0.6-0.2,0.8-0.3c0.4-0.1,0.9-0.3,1.2-0.4c0.8-0.4,2-1,2.3-1.2c0.8-0.6,2.4-1.8,2.7-2.2
	c0.5-0.8,1-1.8,1.4-2.7c0.1-0.3-0.1-1.3-0.3-1.8c-0.1-0.3-0.3-1.1-0.4-1.7c-0.2-1.1-0.6-2.8-0.8-3.4c0-0.1-0.1-0.3-0.1-0.5
	c0-0.1,0-0.3-0.1-0.4c0-0.1-0.1-0.6-0.2-1c-0.1-0.5-0.3-1.1-0.4-1.6c0,0-0.1-0.3-0.1-0.4c0-0.1-0.1-0.2-0.1-0.3
	c0-0.1-0.1-0.3-0.1-0.4c0-0.1-0.1-0.3-0.1-0.4c0-0.1-0.2-0.7-0.2-1.1l0-0.1l0-0.1l0-0.1c-0.1-0.2-0.1-0.4-0.1-0.7
	c-0.1-1.2-0.2-2.6-0.1-3.7c0.1-0.7,0.5-3.6,1-3.7c0.5-0.1,0.7,0.8,0.7,1.2c0,0.3,0.3,0.9,0.4,1.3c0.3,1,0.5,1.9,0.7,3
	c0.2,1.3,0.5,2.3,0.9,3.4c0.1,0.4,0.3,1.4,0.4,2.2c0.1,0.6,0.2,1.2,0.4,1.7c0.1,0.4,0.3,1.2,0.4,1.3c0.1,0.6,0.2,1.5,0.3,1.9
	c0.1,0.5,0.3,1.2,0.3,1.4c0.1,0.4,0.2,1,0.4,1.5c0,0,0.2,0.5,0.2,0.7c0,0,0.1,0.4,0.2,0.6c0.1,0.4,0.3,0.8,0.4,1.2
	c0,0.1,0.1,0.2,0.1,0.3c0,0.1,0.1,0.2,0.1,0.3l0.2,0.6c0.2,0.6,0.3,1.1,0.5,1.5c0.2,0.4,0.4,0.8,0.6,1.2c0.1,0.2,0.2,0.3,0.3,0.4
	c0.1,0.2,0.2,0.3,0.3,0.5c0.4,0.7,0.9,1.8,1.3,2.2c0.9,1,1.8,2.1,2.7,2.8c1,0.8,3.2,1.9,5,1.3c0.5-0.2,1-0.3,1.4-0.7
	c0.5-0.5,1.2-1.2,1.3-1.8c0-0.3-0.1-0.9-0.3-1.5c-0.1-0.3-0.2-1.3-0.3-1.9c-0.2-1-0.3-2.1-0.6-3.1c-0.2-1.1-0.5-2.2-0.6-3.4
	c-0.2-2-0.7-4.3-1.3-6.2l-0.1-0.2c0-0.1-0.1-0.4-0.1-0.4l0-0.1l0-0.1c0,0-0.1-0.2-0.1-0.3c0,0,0-0.1-0.1-0.5c0,0-0.1-0.3-0.1-0.4
	c0-0.1-0.1-0.5-0.2-0.8c-0.2-0.9-0.4-1.8-0.6-2.7c-0.4-1.5-0.8-3.8-1.3-6l0-0.1l0-0.1l-0.1-0.4l-0.1-0.6c0-0.1,0-0.1-0.1-0.2
	c0-0.1-0.1-0.2-0.1-0.4c0-0.1-0.1-0.3-0.1-0.4c0-0.1-0.1-0.3-0.1-0.3l0-0.1l0-0.1l0-0.1l0-0.1l0-0.1c0-0.1,0-0.1-0.1-0.2
	c0-0.1-0.1-0.2-0.1-0.3c-0.1-0.3-0.1-0.6-0.2-0.7c-0.1-0.2-0.1-0.3-0.1-0.5c0-0.2,0-0.5-0.1-0.7c0-0.2-0.1-0.5-0.2-0.7
	c0,0-0.1-0.4-0.1-0.6c-0.1-0.5-0.2-1.1-0.3-1.6c-0.2-1-0.4-2-0.7-2.9c-0.1-0.2-0.4-1.8-0.6-2.9l0-0.2l0-0.1l-0.1-0.4l0-0.1l0-0.1
	l0-0.2l0-0.2l0-0.2l0-0.1l0-0.1l0-0.2l0-0.5l0-0.3l0-0.2l0-0.5v-0.2c0-0.1-0.1-0.5-0.1-0.5c0,0-0.3-0.3-0.3-0.4l-0.1-0.1l-0.1-0.2
	l0-0.2l-0.1-0.2c-0.1-0.2-0.2-0.4-0.3-0.6c-0.1-0.2-0.2-0.4-0.2-0.5c0-0.3-0.1-0.7-0.3-1.1c-0.2-0.4-0.3-0.8-0.4-1.2
	c-0.1-0.4,0.3-1.4,0.5-1.7c0-0.1,0.2-0.3,0.2-0.3c0.1-0.1,0.1-0.1,0.1-0.2l0-0.1l0.1-0.2c0.1-0.9,0.1-0.9,0.2-1
	c0.1-0.2,0.4-0.7,0.6-1c0.1-0.2,0.2-0.5,0.3-0.7c0.1-0.2,0.2-0.5,0.4-0.5c0.5-0.1,0.8,0.3,1,0.7c0.2,0.5,0.4,1,0.6,1.4
	c0.4,0.8,0.8,1.6,1.3,2.2c0.1,0.1,0.5,0.6,0.8,0.9c0.1,0.1,0.3,0.3,0.4,0.4c0.2,0.1,0.4,0.4,0.6,0.6l0.1,0.1l0.2,0.1
	c0,0,0.1,0.1,0.2,0.2c0.1,0.1,0.1,0.1,0.2,0.2c0.1,0.1,0.3,0.3,0.4,0.4c0.1,0.1,0.3,0.3,0.4,0.4c0.4,1-0.3,2.3-0.9,2.8
	c0,0-0.2,0.1-0.2,0.2c-0.1,0.1-0.1,0.1-0.2,0.2c-0.1,0.1-0.1,0.2-0.1,0.4c0,0.1-0.1,0.3-0.1,0.4c-0.2,0.4-0.5,0.9-0.9,1
	c-0.2,0.1-0.4,0-0.5-0.1l-0.1-0.1c0,0-0.1-0.1-0.2-0.1c-0.2-0.1,0.3,1,0.3,1c0.1,0.2,0.1,0.4,0.1,0.7c0,0.2,0.1,0.8,0.1,1.1
	c0.1,0.9,0.3,2,0.6,2.7c0.2,0.4,0.3,0.7,0.4,1.2l0,0.1l0,0.1c0,0.3,0,0.4,0.1,0.5l0,0.1l0,0.2l0,0.1c0,0.1,0,0.1,0.1,0.3
	c0.1,0.2,0.1,0.4,0.1,0.7c0,0.2,0.1,0.5,0.2,0.7c0,0,0,0.3,0.1,0.3c0,0.2,0,0.3,0.1,0.5l0,0.1l0,0.2l0,0.1l0,0.2l0,0.2
	c0,0.2,0.1,0.4,0.2,0.5c0.1,0.1,0.1,0.4,0.2,0.6c0.1,0.3,0.1,0.6,0.1,0.8c0,0.3,0.1,0.6,0.1,0.9c0.2,0.9,0.3,1.8,0.6,2.6
	c0,0,0.1,0.2,0.1,0.2c0.1,0.1,0.1,0.1,0.1,0.2l0,0.2l0,0.2c0,0.1,0,0.3,0.1,0.4l0.3,1.4c0,0.1,0.1,0.3,0.1,0.4c0,0,0.1,0.2,0.1,0.2
	c0,0.1,0,0.2,0.1,0.3c0,0.1,0.1,0.4,0.1,0.6c0,0.1,0,0.2,0,0.3l-0.1,0.1c-0.1,0.1-0.1,0.1,0.1,0.1c0,0,0.4,1.6,0.4,1.7
	c0.1,0.2,0.2,0.7,0.2,0.8c0,0.2,0.1,0.5,0.1,0.5c0,0.4,0.1,0.7,0.1,0.9c0,0.1,0.1,0.6,0.2,0.9c0.1,0.3,0.1,0.7,0.2,1l0.4,2.3
	c0.3,1.4,0.6,2.9,0.8,4.4c0.1,0.8,0.2,1.6,0.4,2.3c0.2,0.9,0.4,1.9,0.4,3l0,0.3v0.5l0,0.9c0,0.8,0,0.8,0,1.6l0,1.1l0,0.1l0,0.2
	l0,0.2c0,0.1-0.1,0.2-0.1,0.3l0,0.1l0,0.1c0,0.1,0,0.2-0.1,0.3c-0.1,0.4-0.2,0.7-0.4,1.2c-0.2,0.8-0.8,2.8-0.8,2.8
	c-0.3,0.6-0.6,1-1,1.4c-0.2,0.2-0.4,0.5-0.5,0.7c-0.2,0.3-0.3,0.4-0.5,0.6c0,0-0.2,0.1-0.2,0.1c-0.1,0-0.3,0.1-0.3,0.1
	c-0.2,0.1-0.3,0.2-0.5,0.3c-0.2,0.2-0.8,0.3-1.2,0.4c-0.5,0.1-1.4,0-1.9-0.1c-0.8-0.3-1.7-0.6-2.1-0.8c-0.4-0.2-1.2-0.8-1.7-1.2
	c-0.8-0.6-1.8-1.7-2.4-2.5c-0.9-1.3-1.7-2.6-2.4-4.1c-0.5-1-0.9-2-1.3-3.1c-0.2-0.5-0.3-1-0.5-1.5c-0.1-0.2-0.4-1.5-0.5-1.5
	c0,0-0.2,0.4-0.3,0.5c-0.1,0.2-0.2,0.5-0.3,0.7c-0.1,0.2-0.2,0.5-0.3,0.7c-0.1,0.2-0.2,0.5-0.3,0.7c0,0.1-0.1,0.3-0.1,0.3l-0.1,0.1
	c-0.1,0.1-0.1,0.1-0.1,0.2c-0.1,0.2-0.1,0.4-0.2,0.6c-0.2,0.5-0.4,1.1-0.7,1.5c-0.4,0.5-2.1,2-2.7,2.3c-0.1,0-0.5,0.3-0.8,0.5
	c-0.2,0.2-0.7,0.5-0.8,0.5c-0.1,0-0.1,0-0.2,0.1l-0.1,0l-0.2,0c-0.2,0.1-0.4,0.2-0.5,0.3c-0.3,0.2-0.6,0.4-0.9,0.5l-2.2,0.6
	c-0.6,0.2-1.3,0.4-1.9,0.6c0,0-0.3,0.1-0.5,0.1c-0.3,0-0.5,0.1-0.7,0.2c-0.3,0.1-0.7,0.2-1.1,0.3c-0.9,0.1-1.8,0.1-2.9,0.1
	c-0.4,0-0.9,0-1.3,0c-0.2,0-0.4,0-0.6-0.1c-0.9-0.3-1.7-0.5-2.2-1.3c-0.6-0.9-0.7-2.6-0.4-3.8l0-0.1l0.1-0.2l0-0.2l0-0.4l0-0.2
	c0-0.1,0.1-0.2,0.1-0.3c0-0.1,0.1-0.3,0.1-0.3C802.3,83.7,802.6,82.6,802.8,82.6z"/>
<path class="st0" d="M810.5,116.7c-0.6-0.7,0.4-3.5,0.9-3.8c0.2-0.1,0.3-0.2,0.6-0.3c0.3-0.1,0.6-0.2,0.9-0.3c0.1,0,0.5-0.2,0.8-0.3
	c0.2-0.1,0.6-0.2,0.8-0.3c1-0.4,2-0.9,3.1-1.3c0.8-0.4,2.1-0.9,3.2-1.3c1-0.4,2.1-0.8,3-1.2c1.9-0.8,4-1.7,6-2.3
	c0.5-0.1,1-0.4,1.4-0.6l0.4-0.2l0.1-0.1l0.1-0.1l0.1-0.1l0.1-0.1c0.1-0.1,0.2-0.1,0.4-0.2l0.1-0.1l0.1-0.1l0.1-0.1l0.1-0.1l0.1-0.1
	c0.1-0.1,0.1-0.1,0.2-0.1l0.1-0.1l0.1-0.1l0.1-0.1c0.3-0.1,0.5-0.2,0.8-0.3c0.3-0.1,0.5-0.2,0.7-0.4c0.2-0.2,0.4-0.3,0.7-0.3
	c0.2,0,0.4,0.4,0.5,0.6c0.2,0.7-0.2,2.3-0.6,2.9c-0.2,0.3-0.5,0.7-0.9,0.8c-0.4,0.2-1,0.4-1.5,0.6c-0.5,0.2-1,0.4-1.5,0.7
	c-0.3,0.2-0.9,0.4-1.4,0.6c-0.2,0.1-0.5,0.2-0.8,0.3l-0.1,0c-0.1,0-0.1,0-0.2,0.1c-0.1,0-0.2,0.1-0.4,0.1c-0.1,0.1-1,0.3-1.4,0.5
	c-0.4,0.1-1.4,0.4-1.5,0.4c-1,0.4-2,0.9-3.1,1.3c-0.3,0.1-0.6,0.2-0.8,0.4c-0.1,0.1-0.5,0.2-0.7,0.3c-0.2,0.1-1.1,0.3-1.6,0.5
	c-0.3,0.1-0.6,0.2-0.8,0.3c-0.1,0.1-0.2,0.1-0.3,0.2c-0.1,0.1-0.2,0.1-0.4,0.2c-0.5,0.2-1.1,0.4-1.6,0.6c-0.5,0.2-1,0.4-1.5,0.6
	c-0.6,0.2-1.1,0.4-1.6,0.7c-0.5,0.2-1,0.4-1.4,0.8C811.4,116.5,811,116.8,810.5,116.7z"/>
<path class="st0" d="M816.4,40.8c0.3-0.3,3,1.5,3.1,1.6c0,0,0,0,0.1,0.1l0.2,0.1c0.1,0.1,0.2,0.2,0.3,0.3c0.2,0.2,0.3,0.4,0.5,0.6
	c0.3,0.5,0.6,1.3,0.6,2.2c0,0.3-0.3,1-0.4,1.3c-0.2,0.4-0.4,0.7-0.6,1c-0.2,0.3-0.4,0.6-0.6,1c-0.1,0.3-0.4,0.7-0.7,1
	c-0.2,0.3-0.5-0.3-0.6-0.4c-0.1-0.2-0.3-0.4-0.5-0.5c0,0-0.6-0.3-1-0.4c-0.2-0.1-0.3-0.1-0.4-0.2c-0.1-0.1-0.3-0.2-0.5-0.3
	c-0.3-0.2-1.5-0.9-1.6-1.2c-0.2-0.5,0-1.1,0.2-1.5c0.2-0.4,0.5-1.3,0.5-1.5C815.1,43.2,816.3,40.8,816.4,40.8z"/>
<path class="st0" d="M819.8,20.2c0.1-0.2,0.3-0.5,0.4-0.7c0.1-0.3,0.2-0.6,0.3-0.8c0.1-0.2,0.2-0.5,0.4-0.7c0.1-0.1,0.6-0.5,0.7-0.1
	c0.1,0.5,0.2,1,0.1,1.6c-0.1,0.5-0.2,1.4-0.1,1.5c0.2,0.7,2.1,1.1,3,0.9c0.8-0.2,1.7-0.5,2.2-1c0.4-0.4,0.4-1.2,0.4-1.8
	c0-0.2,0-0.4-0.1-0.5c0-0.1,0-0.2-0.1-0.3c-0.1-0.5-0.1-1.1,0-1.5c0.1-0.7,1-2.7,1.6-2.7c0.2,0,0.4,0.3,0.5,0.5
	c0.2,0.4,0.3,2.6,0.2,3.1c-0.1,0.5-0.2,2.4,0.3,2.5c0.7,0.1,1.4,0,2.1-0.2c0.5-0.1,1.7-0.8,2.5-1.2c0,0-0.2-1.9-0.2-2.1
	c-0.1-0.6-0.2-1.9-0.2-2.1c0.1-0.5,0.2-1.2,0.2-1.3c0.2-0.2,0.3-0.4,0.3-0.6c0.1-0.3,0.6-1.8,1.1-1.4c0.2,0.2,0.3,0.4,0.4,0.7
	c0,0.3,0.1,0.9,0.2,1.4l0,0.3l0,0.1l0,0.1l0,0.5l0.1,0.5c0.1,1,0.3,2.7,0.3,3.1c0,0.2-0.2,0.9-0.3,1.3c0,0.2-0.2,0.4-0.2,0.7
	l-0.1,0.1l-0.1,0.2c0,0.1-0.1,0.2-0.1,0.3c-0.2,0.7-1.5,1.6-2.2,2c-0.2,0.1-0.5,0.2-0.8,0.3c-0.3,0.1-0.5,0.2-0.8,0.4l-0.2,0.1
	c-0.2,0.1-0.2,0.1-0.2,0.1c-0.1,0.1-0.1,0.1-0.1,0.1c-0.2,0.1-0.5,0.3-0.7,0.4c-0.7,0.2-1.7,0.2-2.4,0.1c-0.3,0-0.8,0.3-1.1,0.5
	c-0.7,0.4-1.7,1-2.1,1.1c-0.6,0.2-1.3,0.5-2,0.6c-0.5,0-0.8-0.1-1.2-0.2c-0.3-0.1-0.6-0.2-0.8-0.4c-0.2-0.2-0.5-0.4-0.7-0.6
	C818.8,24.3,819.2,21.8,819.8,20.2z"/>
<path class="st0" d="M842.7,27.7c0.5-0.9,3.5-5.1,4-5.3c0.2-0.1,0.9,0.4,1.3,0.6c0.5,0.3,1,0.5,1.5,0.7c0.2,0.1,1.1,0.2,1.2,0.2
	c0,0,0.2-0.4,0.2-0.4l0.1-0.1l0.1-0.2l0.1-0.1c0.1-0.1,0.2-0.3,0.2-0.4c0.1-0.2,0.2-0.3,0.3-0.5c0-0.1,0-0.1,0.1-0.2
	c0-0.1,0-0.2,0.1-0.2c0.1-0.1,0.2-0.3,0.3-0.4l0.1-0.1l0.1-0.1c0.1-0.1,0.1-0.1,0.1-0.2l0.1-0.2l0.1-0.1c0,0,0-0.1,0.1-0.2l1-1.7
	c0.1-0.2,0.3-0.5,0.5-0.8c0.1-0.1,0.3-0.3,0.5-0.6l0.2-0.1c0.1-0.2,3-2.3,3.3-2.3c0.5-0.2,1.1-0.2,1.8-0.2c0.4,0,1.3,0.4,1.6,0.6
	c0.4,0.4,0.9,0.9,1.1,1.4c0.4,1,0.4,2.1,0.2,3.2c-0.1,0.3-0.3,0.8-0.4,1.2l-0.1,0.3c0,0.1-0.1,0.2-0.1,0.3c0,0.1-0.1,0.2-0.1,0.3
	c-0.1,0.1-0.1,0.2-0.2,0.4c-0.1,0.1-0.4,0.7-0.6,1l-0.1,0.2l0,0.1l-0.1,0.2c-0.1,0.1-0.2,0.2-0.2,0.2c-0.1,0.1-0.2,0.2-0.2,0.2
	c-0.5,0.7-4.2,2.9-5.2,3.3c-0.4,0.2-1.2,0.4-1.7,0.5c-0.5,0.1-1,0.3-1.4,0.4c-0.2,0.1-1.7-0.1-1.8-0.1c-0.2,0-0.4-0.1-0.6-0.1
	c-0.3-0.1-0.8-0.2-1.1-0.3c-0.9-0.1-1-0.1-1.5-0.5c-0.1,0-0.6-0.3-0.9-0.5c-0.1,0-0.5,0.2-0.8,0.3c-0.3,0.1-1.6,1.8-1.8,2.1
	l-0.1,0.1c0,0.1,0,0.1-0.1,0.2c-0.1,0.1-0.2,0.3-0.2,0.4c-0.1,0.3-0.2,0.5-0.3,0.8c-0.1,0.3-1,1.3-1.4,0.7
	C841.3,30.9,842.4,28.3,842.7,27.7z"/>
<path class="st2" d="M847.9,33.5c0.1-0.1,0.3-0.2,0.5-0.1c0.2,0.2,0.4,0.3,0.6,0.5c0.1,0.1,0.2,0.9,0.2,1.3c0,0.3,0.1,0.5,0.1,0.7
	c0,0.1,0,0.1,0.1,0.5l0,0.2l0,0.2c0.1,0.9,0.3,1.9,0.5,2.7c0.2,0.7,0.4,1.6,0.5,2.1c0.2,0.4,0.2,0.7,0.2,1.2c0,0.5,0.1,1.1,0.2,1.6
	c0.1,0.4,0.2,0.6,0.3,0.9c0,0.1,0.2,0.7,0.2,1c0.1,0.4,0.2,0.9,0.2,1.4c0,0,0.1,0.4,0.1,0.5c0,0.1,0,0.1,0.1,0.3l0,0.1l0,0.2
	c0.1,0.8,0.3,1.5,0.5,2.2l0.1,0.2c0,0.1,0,0.2,0.1,0.3l0,0.2l0,0.3c0,0.1,0,0.3,0.1,0.4c0,0.2,0.1,0.4,0.1,0.6c0,0,0,0,0.1,0.5
	c0,0.1,0,0.2,0.1,0.3c0.7,3.3,1.3,6.7,1.8,10.2c0.3,1.7,0.6,3.9,0.9,4.9c0,0.1,0.2,1.8,0.2,2.5c0,0.1,0,0.4,0.1,0.5
	c0.1,0.2,0.1,0.4,0.1,0.7c0,0.4,0.1,0.7,0.1,1.1c0,0.3,0.1,0.6,0.1,0.8c0,0.2,0,0.3,0,0.3c0,0.3,0,0.3,0.1,0.5
	c0,0.3,0.1,0.6,0.1,0.7c0,1.5,0,3.8-0.3,4.8c0,0-0.1,0.8-0.2,1.3l0,0.1c0,0.1,0,0.2-0.1,0.4l0,0.2l0,0.5c0,0,0,0.2-0.1,0.3
	c-0.1,0.3-0.1,0.6-0.2,1c-0.1,0.3-0.1,0.6-0.2,1c-0.1,0.6-0.4,1.5-0.8,1.9c-0.1,0.1-0.2,0.1-0.4,0.1c-0.3,0-0.1-1.3-0.1-1.6
	c0.1-0.4,0.3-2.4,0.2-2.6c0,0-0.2-1.6-0.2-2.1c0-0.3-0.1-1.2-0.1-1.2l0-0.1l0-1.4l-0.1-0.5l0-0.2l0-0.3c0-0.1,0-0.1-0.1-0.3
	c0-0.2-0.1-0.5-0.1-0.8l0-0.3l0-0.2l0-0.2l0-0.3c0,0-0.1-0.5-0.1-0.8c-0.3-1.9-0.7-4.6-0.9-5.7c-0.1-0.5-0.3-1.4-0.3-1.5
	c0-0.2-0.1-0.5-0.1-0.8l0-0.1l-0.1-0.2c0-0.1-0.1-0.3-0.1-0.4c-0.3-2.5-0.7-4.5-1.2-6.8l-0.1-0.3l0-0.2l0-0.1c0-0.2-0.1-0.3-0.1-0.5
	l0-0.1l0-0.1l0-0.2l0-0.2c0-0.1-0.1-0.3-0.1-0.5c0-0.1,0-0.1-0.1-0.7l0-0.4l0-0.1l0-0.1l0-0.1l0-0.1c0-0.2,0-0.2-0.1-0.3
	c0-0.2,0-0.2-0.1-0.3c0-0.1,0-0.1-0.1-0.3c0-0.1,0-0.2-0.1-0.3c-0.2-0.7-0.4-1.5-0.5-2.2c-0.1-0.7-0.3-1.5-0.5-2.3
	c0-0.2-0.1-0.4-0.1-0.7c0-0.2-0.1-0.3-0.1-0.5c0-0.1,0-0.1-0.1-0.3l0-0.2l0-0.2c0,0-0.1-0.4-0.2-0.6c0-0.1,0-0.2-0.1-0.3l0-0.3
	l0-0.2c0,0-0.1-0.3-0.1-0.4c0-0.1-0.1-0.3-0.1-0.4c-0.1-0.2-0.2-0.5-0.2-0.5c-0.2-0.8-0.4-1.6-0.5-2.5c0-0.3-0.1-0.5-0.1-0.7
	c0,0-0.1-0.8-0.1-1.1c0-0.4-0.1-1-0.1-1.2c0-0.3-0.1-0.7-0.1-1c0.1-0.4,0.1-0.9,0.3-1.4c0.1-0.3,0.1-0.5,0.1-0.8c0-0.3,0-0.6,0.1-1
	C847.2,35.4,847.8,33.6,847.9,33.5z"/>
<path class="st1" d="M854,24.2c0.5,0,1.7-0.4,2.5-0.7c0.8-0.3,3.8-2,4.2-2.7c0.2-0.3-0.4-1.1-0.6-1.3c-0.3-0.3-0.8-0.6-1.4-0.7
	c-0.4-0.1-1.1,0-1.4,0.2c-1.1,0.6-2.1,1.2-2.9,2.1c-0.4,0.4-2.1,2.8-1.9,3.1C852.6,24.3,853.7,24.2,854,24.2z"/>
<path class="st2" d="M864.9,85.3c0.3-0.8,0.6-1.8,0.9-2.5c0.2-0.4,0.6-1.6,0.9-2.4c0.3-0.8,0.6-1.6,1-2.3c0-0.1,0.1-0.3,0.2-0.4
	c0.1-0.2,0.2-0.4,0.3-0.5c0.5-0.5,0.8-0.3,0.8,0.6c0,0.2-0.1,0.4-0.2,0.6c-0.1,0.2-0.1,0.3-0.2,0.5c0,0.1-0.1,0.3-0.1,0.4
	c0,0.1,0,0.1-0.1,0.2c0,0.1-0.1,0.2-0.1,0.3c-0.2,0.7-0.5,1.6-0.6,2c0,0.3-0.1,0.5-0.1,0.8c-0.1,0.2-0.1,0.6-0.2,0.7l0,0.1l-0.1,0.3
	c0,0.1-0.1,0.3-0.1,0.5c0,0.1-0.1,0.5-0.1,0.5l0,0.1l-0.1,0.2c-0.2,0.8-0.7,3.8-0.7,3.8c0,0.2,0,0.3,0.1,0.4
	c0.1,0.2,0.1,0.4,0.2,0.5c0.1,0.6,0.2,1.3,0.3,1.5c0.1,0.3,0.4,1.1,0.6,1.6c0.3,0.9,2.1,3.2,2.9,3.5c0.2,0.1,0.7,0.5,1,0.7
	c0.3,0.2,0.7,0.5,1.1,0.6c0.1,0,0.2,0.1,0.3,0.1l0.5,0.2c0.3,0.1,0.5,0.2,0.9,0.2c0.2,0,0.7,0.1,1,0.2c0.3,0.1,1.3,0.2,2,0.2
	c0.9,0.1,2.6-0.1,3.8-0.2c1-0.1,2.6-0.6,3.7-1c0.3-0.1,0.6-0.2,0.9-0.3c0.2-0.1,0.3-0.1,0.5-0.2c0.1-0.1,0.2-0.2,0.4-0.2
	c0.3-0.1,0.5-0.3,0.8-0.5c0.2-0.1,0.7-0.4,0.7-0.4c1-0.5,4.3-3.1,4.7-4.1c0-0.1,0.1-0.2,0.2-0.3l0-0.1l0.1-0.2
	c0.1-0.1,0.1-0.1,0.1-0.2c0,0,0.2-0.6,0.4-1c0-0.1,0-0.9-0.1-1.3l-0.1-0.3l0-0.1l0-0.1c-0.1-0.3-0.1-0.6-0.1-0.9
	c-0.2-1.3-0.3-2.4-0.5-3.7c0-0.1,0-0.2-0.1-0.4l0-0.2l0-0.3c0-0.1,0-0.2-0.1-0.3c0-0.1-0.1-0.3-0.1-0.4c-0.1-0.4-0.2-1.1-0.3-1.6
	c0-0.2-0.1-0.4-0.1-0.6c0,0-0.1-0.2-0.1-0.2v-0.3c0-0.3,0-0.3,0-0.4c0-0.2-0.1-0.4-0.1-0.5c0-0.2,0-0.2-0.1-0.3
	c0-0.2-0.1-0.5-0.1-0.6c-0.3-1.7-1-5.2-1-5.5c-0.1-0.2-0.1-0.4-0.1-0.6c0-0.2,0-0.6-0.1-0.9c-0.1-0.5-0.2-1-0.3-1.5
	c-0.2-0.9-0.3-1.7-0.5-2.6c-0.4-1.7-0.7-3.4-1-5.2c-0.1-0.9-0.3-1.9-0.5-2.6c-0.3-0.9-0.4-1.7-0.5-2.7c-0.1-0.7-0.3-1.6-0.5-2.3
	c-0.2-0.7-0.4-1.7-0.5-2.5c0-0.3-0.1-0.6-0.1-0.9c-0.1-0.4-0.1-0.7-0.2-1.1c0-0.2-0.1-0.5-0.1-0.7c0-0.1,0-0.1-0.1-0.2
	c0-0.1-0.1-0.2-0.1-0.3c0-0.2-0.2-1.4-0.3-2.1c-0.1-0.4-0.1-0.9-0.1-1.3c0-0.4-0.1-1.1-0.1-1.2c-0.5-0.4-1.5-4.1-1.5-4.9
	c0-0.3,0.4-1.2,0.6-1.4c0.1-0.1,0.1-0.2,0.2-0.3l0.1-0.1l0.1-0.1c0.1-0.1,0.1-0.3,0.1-0.4c0-0.2,0.1-0.6,0.1-0.6
	c0.1-0.2,0.2-0.4,0.3-0.6c0.1-0.2,0.2-0.4,0.3-0.6c0.1-0.1,0.2-0.3,0.2-0.3c0.1-0.1,0.1-0.2,0.2-0.2c0.1-0.3,0.2-0.5,0.4-0.6
	c0.4-0.2,0.7,0.2,0.8,0.5c0.1,0.1,0.1,0.3,0.2,0.5c0,0.2,0.1,0.4,0.2,0.6c0.1,0.4,0.2,0.7,0.3,1.1c0.1,0.3,0.2,0.8,0.4,1
	c0,0.1,0.2,0.4,0.3,0.6l0.1,0.1c0,0,0,0,0.1,0.2l0.2,0.3c0.2,0.4,0.6,1.1,0.7,1.2c0.5,0.6,1,1.4,1.3,2.1c0.3,0.7-0.3,2.3-0.6,2.8
	c0,0.1-0.2,0.2-0.2,0.3l-0.3,0.3c-0.1,0.1-0.3,0.5-0.4,0.7c-0.1,0.2-0.2,0.5-0.4,0.7c-0.1,0.1-0.2,0.2-0.2,0.3
	c-0.2,0.2-0.2,0.2-0.2,0.3c0,0.1,0.1,0.3,0.1,0.4c0.1,0.1,0.2,0.4,0.2,0.4c0,0.1,0.2,1,0.2,1.6c0,0.4,0.4,1.5,0.6,2.1
	c0.2,0.7,0.3,1.8,0.4,2.7c0.1,0.8,0.3,1.9,0.5,2.7c0.1,0.4,0.6,2.5,0.9,4.1l0,0.1c0,0.1,0.1,0.2,0.1,0.3c0,0.2,0,0.5,0.1,0.6
	c0,0.2,0.1,0.3,0.1,0.5c0,0.1,0,0.1,0.1,0.5c0,0.1,0,0.2,0.1,0.3c0.1,0.3,0.3,1.8,0.4,2.5c0.1,0.7,0.3,1.6,0.4,2.2
	c0.1,0.3,0.3,0.9,0.3,1.1l0,0.3l0,0.3l0,0.2l0,0.3c0,0.3,0.1,0.5,0.1,0.8c0.7,3.6,1.3,7.1,1.7,10.8c0.2,2,0.1,4.6,0.1,7
	c0,0.7-0.1,1-0.2,1.6c0,0.1-0.1,0.2-0.1,0.2l0,1l0,0.2c0,0.3-0.1,0.5-0.1,0.8l-0.6,2.1c-0.2,0.7-0.5,1.7-0.6,1.9
	c0,0-0.2,0.4-0.2,0.6c0,0.1-0.2,0.3-0.2,0.5c-0.1,0.2-0.2,0.4-0.3,0.6l-0.1,0.2c-0.1,0.1-0.1,0.2-0.1,0.2c-0.3,0.4-0.7,0.8-1.1,1.2
	c0,0-0.4,0.4-0.6,0.6c-0.1,0.1-0.2,0.2-0.3,0.3c0,0-0.2,0.2-0.3,0.3c-0.3,0.4-0.9,0.9-1.2,1.1c-0.3,0.2-0.6,0.4-0.8,0.5
	c-0.3,0.1-0.6,0.3-0.9,0.5c-0.1,0.1-0.3,0.2-0.4,0.2c-0.1,0.1-0.2,0.1-0.3,0.2c-0.2,0.2-0.5,0.4-0.6,0.5c-0.6,0.3-1.3,0.6-2,0.7
	c-0.6,0.2-1.4,0.4-2,0.5c-0.2,0-0.6,0.2-0.9,0.3c0,0-0.8,0.2-1.1,0.3c-0.9,0.2-3,0.2-4.4,0.2c-0.8,0-4.4-0.7-4.8-1.1
	c-0.1-0.1-0.1-0.1-0.2-0.1c0,0-0.2-0.1-0.2-0.1c-0.2-0.1-0.4-0.3-0.5-0.3c-0.3-0.2-0.6-0.4-0.8-0.6c-0.2-0.2-0.5-0.4-0.8-0.6
	c-0.1-0.1-0.3-0.2-0.5-0.3l-0.1-0.1c-0.1,0-0.2-0.2-0.2-0.2c-0.9-0.8-1.8-1.9-2.3-3.1l-0.2-0.3L865,98c-0.1-0.2-0.2-0.4-0.3-0.5
	c-0.2-0.4-0.3-0.8-0.4-1.2l0-0.1l0-0.1l0-0.2c0-0.2,0-0.2-0.1-0.3c0-0.1,0-0.2-0.1-0.3c0-0.2-0.1-0.6-0.1-0.6
	c-0.1-0.3-0.1-0.7-0.1-1.2c0-0.7,0-1.2-0.1-2.1C863.8,91,864.7,85.7,864.9,85.3z"/>
<path class="st0" d="M879.9,117.5c-0.3,0.1-0.5,0-0.7-0.1c-0.7-0.4,0.6-3.5,0.8-3.7c0.1-0.1,1.1-0.5,1.7-0.7l0.1,0l0.1,0l0.1,0
	l0.2-0.1l0.2-0.1c0.1,0,0.3-0.1,0.4-0.2l0.1,0l0.1,0l0.1-0.1l0.1,0c1-0.4,2.3-0.9,3.1-1.1c1.2-0.4,2.3-0.8,3.4-1.2
	c0.3-0.1,0.7-0.3,0.9-0.3c0.2,0,0.5-0.1,0.8-0.2c0.1,0,0.2-0.1,0.3-0.1c0.1,0,0.3-0.1,0.4-0.1c0.1,0,0.3-0.1,0.4-0.1
	c0.1,0,0.3-0.1,0.4-0.1c0.1,0,0.2-0.1,0.3-0.1c0.1,0,0.3-0.1,0.4-0.1c0.3-0.1,0.6-0.2,0.9-0.4c0.5-0.2,1.1-0.5,1.7-0.7
	c1.2-0.4,2.3-1,3.4-1.5c0.5-0.3,1.6-0.8,1.7-0.8c0.3-0.1,0.7-0.3,0.9-0.4c0.3-0.1,0.8-0.4,0.9-0.4c0.1,0,0.2,0.1,0.3,0.2l0.1,0.2
	l0.1,0.2c0.3,0.3-0.3,2.8-0.5,3c-0.2,0.3-0.6,0.6-0.9,0.7l-0.2,0c-0.4,0-0.4,0-0.5,0.1c-0.1,0-0.2,0.1-0.3,0.1
	c-0.2,0.1-0.5,0.2-0.8,0.4l-0.1,0l-0.1,0.1l-0.1,0.1l-0.1,0.1c-0.1,0-0.2,0.1-0.3,0.1c-0.1,0.1-0.3,0.1-0.4,0.2
	c-0.9,0.4-1.8,0.9-2.7,1.2c-0.5,0.2-1.1,0.4-1.4,0.5c-0.1,0.1-0.9,0.4-1.5,0.5c-1,0.3-2,0.7-3,0.9c-0.1,0-0.2,0.1-0.3,0.1
	c-0.1,0-0.2,0.1-0.3,0.1l-0.1,0.1l-0.2,0.1c0,0-0.2,0.1-0.3,0.1l-0.2,0.1l-0.4,0.1l-0.1,0l-0.1,0l-0.1,0c-0.2,0.1-0.5,0.1-0.7,0.2
	c-0.4,0.1-0.9,0.3-1.3,0.5c-0.1,0-0.2,0.1-0.3,0.1l-0.1,0c-0.1,0-0.2,0-0.3,0.1c-0.3,0.1-0.6,0.2-0.8,0.3c-0.9,0.4-1.8,0.8-2.8,1
	C881.9,116.4,880.7,117.1,879.9,117.5z"/>
<path class="st0" d="M903.5,37.6c0.3,0.1,0.6,0.4,0.7,0.8c0.3,0.9,0.7,2.3,0.8,3.1c0.1,0.9,0.2,1.7,0.5,2.4c0.2,0.5,0.2,1.4,0.2,1.9
	c0,0.4,0,0.4,0.1,0.7c0,0.2,0.1,0.5,0.1,0.7c0.1,0.5,0.1,0.8,0.3,1.2c0.1,0.5,0.2,1.2,0.2,1.8c0,1.1,0.1,2,0.3,2.9
	c0.1,0.7,0.2,1.3,0.4,1.9c0.2,0.9,0.3,1.7,0.4,2.7c0,2,0.4,4.2,0.8,6c0.1,0.7,0.3,1.9,0.3,2.6c0,1.5,0.2,2.9,0.3,4.2
	c0,0.2,0.1,0.5,0.1,0.6c0,0.1,0,0.1,0.1,0.3l0,0.2l0,0.3c0,0.1,0,0.4,0.1,0.5c0,0,0,0.2,0.1,0.3c0,0.1,0,0.1,0,0.2l0,0.5l0,0.2V74
	c0,0.1,0.1,1.1,0.1,1.6c0,0.2,0,0.4,0.1,0.6c0,0.2,0.1,0.5,0.1,0.6c0,0.3,0.1,0.8,0.1,0.8c0,0.2,0.1,0.6,0.1,0.6l0,0.3l0.1,0.5
	c0,0.1,0,0.1,0.1,0.3c0,0.1,0,0.1,0.1,0.5c0.1,0.7,0.2,1.5,0.4,2.1c0.1,0.4,0.5,1.3,0.5,1.3c0.2,0.4,0.6,1.1,0.6,1.3
	c0.3,0.7,2.4,2.6,3.1,2.8c0.8,0.3,1.5,0.5,2.4,0.7c1.8,0.4,3.4,0.1,4.8-0.4c0.7-0.3,2.4-1.1,2.8-1.6c0.1-0.1,0.1-0.2,0.2-0.2
	c0.1-0.1,0.2-0.2,0.3-0.3c0-0.1,0-0.1,0.1-0.1c0,0,0.1-0.1,0.1-0.1c0.1-0.1,0.2-0.2,0.2-0.3c0.1-0.1,0.1-0.2,0.2-0.3l0.1-0.2
	l0.1-0.1l0.1-0.1c0.1-0.1,0.2-0.4,0.2-0.4l0.1-0.1l0.1-0.2l0.1-0.1c0-0.1,0.3-0.5,0.4-0.7c0.1-0.2,0.5-0.8,0.5-0.8l0.1-0.1
	c0-0.1,0-0.1,0.1-0.2c0.1-0.1,0.2-0.3,0.2-0.4l0.1-0.2l0-0.2l0-0.1c0,0,0.1-0.2,0.2-0.3c0.2-0.4,0.5-1.2,0.8-1.8
	c0.1-0.2,0.3-0.5,0.4-0.7c0.2-0.2,0.3-0.4,0.5-0.7c0.3-0.5,1.8-1.7,2.4-1.9c1.1-0.5,2.8-0.7,4.1-0.4c1.1,0.2,2.5,0.5,3.6,0.7
	c0.9,0.2,2.7-0.1,3.7-0.3c1.6-0.3,4.8-2.7,5.5-4c0.1-0.1,0.1-0.3,0.2-0.5c0-0.2,0.1-0.5,0.1-0.6c0-0.1,0.1-0.2,0.2-0.3
	c0,0,0.2-0.6,0.1-0.6l-0.1-0.2c0-0.1-0.1-0.2-0.1-0.3c-0.1-0.2-0.2-0.4-0.3-0.6l-0.1-0.1l-0.1-0.1c-0.1-0.1-0.1-0.3-0.1-0.3
	c-0.1-0.2-0.2-0.4-0.3-0.5c-0.3-0.6-1-1.8-1.1-2.1c-0.1-0.1-0.3-0.4-0.3-0.5c-0.1-0.1-0.1-0.1-0.1-0.2c0-0.1-0.1-0.2-0.2-0.3
	c0-0.1-0.3-0.4-0.3-0.3c0,0.1-0.1,0.7-0.2,0.9c-0.1,0.5-0.1,1.1-0.3,1.5c-0.2,0.4-0.3,1.1-0.4,1.5c-0.2,0.9-1.6,2.6-2.3,2.9
	c0,0-0.3,0.1-0.5,0.1c-0.1,0-0.2,0.1-0.3,0.1c-0.1,0-0.2,0.1-0.3,0.2c-0.1,0-0.2,0.1-0.3,0.1c-0.2,0.1-1.8-0.3-2-0.4
	c-0.6-0.3-1.7-0.7-1.9-1c-0.2-0.2-0.5-0.4-0.8-0.6l-0.3-0.3c-0.1-0.1-0.2-0.2-0.3-0.3l-0.1-0.2c-0.2-0.2-1.1-1.6-1.2-1.9
	c-0.1-0.3,0-2.2,0-3.2c0.1-1.5,0.5-3.7,0.8-5.4l0.1-0.2c0,0,0.1-0.2,0.1-0.3c0.1-0.2,0.2-0.5,0.2-0.7c0.1-0.3,0.2-0.5,0.3-0.8
	c0-0.1,0.1-0.2,0.2-0.3c0.1-0.1,0.1-0.2,0.1-0.3c0.3-0.8,0.8-1.6,1.2-2.3c0.1-0.1,0.3-0.4,0.3-0.4c0.1-0.2,0.2-0.4,0.3-0.6
	c0.1-0.2,0.2-0.3,0.4-0.4c0.2-0.1,0.3-0.3,0.5-0.4c0.7-0.6,2.3-0.2,2.9,0.3c0.2,0.2,0.4,0.4,0.6,0.5c0.1,0.1,0.1,0.1,0.3,0.3
	c0.2,0.1,0.2,0.1,0.2,0.1c0.1,0.1,0.2,0.2,0.2,0.2c0.4,0.4,0.8,0.8,1.2,1.1c0.7,0.7,2,2.1,2.2,2.4c0.6,1.1,1.2,2.1,1.9,3.1
	c0.7,1,1.3,2.3,1.6,3.6c0.3,1.4,0.4,3,0.4,4.5c0,0.6-0.1,1.2-0.2,1.7l0,0.1l-0.1,0.2c-0.1,0.2-0.1,0.4-0.1,0.7
	c-0.1,0.5-0.1,1-0.2,1.3c-0.1,0.3-0.2,0.6-0.3,1c-0.1,0.3-0.2,0.6-0.3,0.9c0,0-0.1,0.3-0.1,0.5c0,0.1,0,0.1-0.1,0.2l0,0.1l0,0.1
	c-0.1,0.5-0.4,1.4-0.7,1.7l0,0.1c-0.1,0.2-0.1,0.2-0.1,0.2c0,0-0.1,0.2-0.2,0.3c-0.1,0.2-0.3,0.4-0.4,0.5c-0.1,0.1-0.1,0.2-0.2,0.2
	c-0.1,0.1-0.2,0.3-0.2,0.4c-0.1,0.2-0.4,0.5-0.4,0.5c-0.8,0.7-2.3,1.8-3.2,2.1c-0.6,0.2-1.5,0.5-1.9,0.7c-0.1,0,0.1,0.8,0.1,1
	l0.1,0.3c0,0.2,0.1,0.5,0.1,0.7c0,0,0.1,0.6,0.1,0.9c0,0.1,0.1,1.6,0.1,1.7c0,0-0.1,0.7-0.1,0.7l0,0.5c0,0.4,0,0.8-0.2,1.1
	c-0.2,0.5-0.3,0.8-0.4,1.4c0,0.5-0.5,1.9-0.8,2.1c-0.1,0.1-1.7,0.5-1.9,0.6c-0.4,0.1-0.9,0.1-1.4,0.1c-0.2,0-0.7,0-0.9,0l-0.6,0
	l-0.1,0l-0.3,0l-0.6-0.1l-0.1,0l-0.1,0l-0.1,0l-0.7-0.2l-0.1,0l-0.2,0l-0.2,0c-0.1,0-0.3-0.1-0.4-0.1c-0.3-0.1-0.7-0.2-0.9-0.2
	c-0.2,0-0.4-0.1-0.5-0.2c-0.1,0-0.3-0.1-0.5-0.1c0,0-0.2-0.1-0.3-0.1c-0.2-0.1-0.4-0.1-0.7-0.2c0,0-0.2-0.1-0.3-0.1l-0.2-0.1l-0.1,0
	c-0.4-0.1-1.2-0.8-1.7-1.3c-0.6-0.5-1.1-1.5-1.3-2.5c-0.1-0.3-0.9,1.1-0.9,1.1c-0.2,0.5-0.5,1-0.8,1.4c-0.5,0.8-1.5,2.2-1.8,2.4
	c-0.3,0.2-0.6,0.4-0.8,0.7c-0.1,0.1-0.3,0.2-0.4,0.2c-0.2,0.1-0.4,0.2-0.5,0.3c-0.2,0.2-0.6,0.4-0.9,0.6c-0.1,0-0.6,0.2-0.6,0.2
	l-0.1,0.1l-0.1,0.1l-0.1,0.1l-0.1,0.1c-0.1-0.1-0.1-0.1-0.3,0c-0.1,0-0.1,0-0.2,0.1c-0.1,0-0.1,0.1-0.2,0.1
	c-0.5,0.2-1.2,0.3-1.8,0.3c-1,0.1-2.3-0.1-3.2-0.4c-0.9-0.3-1.9-0.5-2.4-1.1c0,0-0.3-0.3-0.4-0.4l-0.2-0.2l-0.1-0.1l-0.1-0.1
	c-0.1-0.1-0.3-0.3-0.4-0.5c-0.1-0.1-0.3-0.3-0.4-0.4c-0.2-0.2-1.3-1.7-1.4-2.1c-0.4-0.8-0.7-2.5-1-4.1c-0.2-0.8-0.4-2-0.4-2.4
	c-0.1-0.8-0.2-1.9-0.2-2.5c-0.1-0.8-0.1-1.9-0.2-2.4c0-0.1-0.1-0.3-0.1-0.5c0-0.2,0-0.2-0.1-0.6c0-0.6,0-0.8-0.1-0.9
	c0-0.6-0.1-1.2-0.2-1.7c-0.1-0.3-0.1-0.8-0.1-1.2c0-0.7-0.1-1.4-0.1-1.9c0-0.4-0.1-0.8-0.2-1.2c-0.1-0.3-0.2-1.2-0.2-1.7
	c-0.1-0.6-0.1-0.9-0.2-1.5c-0.1-0.5-0.3-2.2-0.5-3.5c-0.1-0.4-0.1-0.9-0.2-1.2c0-0.2-0.1-1-0.2-1.7c-0.1-1.4-0.3-3.1-0.5-4
	c-0.1-0.7-0.2-1.5-0.4-2.1c-0.1-0.4-0.2-1-0.2-1.5c-0.1-0.7-0.1-1.5-0.2-2c-0.1-0.6-0.3-1.7-0.5-2.6c-0.1-0.5-0.2-0.9-0.2-1.5
	c0-0.1-0.1-0.7-0.2-1.1l-0.1-0.3c-0.1-0.3-0.1-0.3-0.1-0.3c0-0.1-0.1-0.3-0.1-0.4c-0.1-0.3-0.2-0.6-0.2-0.8c-0.1-0.4-0.2-0.8-0.3-1
	c-0.2-0.2-0.4-0.6-0.5-0.7c-0.2-1.1,0.8-4,1.3-4.5C902.7,37.3,903.2,37.5,903.5,37.6z"/>
<path class="st0" d="M904.8,23.1c0.1,0,0.2-0.1,0.2-0.1c0.1,0,0.2-0.1,0.3-0.1c0.2-0.1,0.5-0.2,0.7-0.3c0.4-0.1,1.2-0.5,1.2-0.5
	c0.8-0.3,2.1-0.9,2.5-1c0.1,0,0.9-0.4,1.3-0.5c0.4-0.2,1.1-0.4,1.3-0.5c0.2-0.1,0.4-0.2,0.6-0.2c0.2-0.1,0.4-0.2,0.7-0.3
	c0,0,0.5-0.2,0.8-0.3c0.1-0.1,0.3-0.1,0.4-0.2c0.1-0.1,0.2-0.1,0.4-0.2l0.1-0.1l0.1,0l0.1,0l0.2-0.1c0.1,0,0.2-0.1,0.3-0.1
	c0.1,0,0.2-0.1,0.3-0.1c0.5-0.2,1-0.3,1.4-0.5c0.8-0.4,1.9-1,2.6-1.2c0.9-0.3,1.7-0.7,2.5-1.1c0.1-0.1,0.2-0.1,0.3-0.2l0.1,0
	l0.3-0.1c0.1,0,0.2-0.1,0.3-0.2c0.1-0.1,0.2-0.1,0.3-0.2c0.2-0.1,0.5-0.2,0.7-0.3c0.2-0.1,0.6-0.3,0.6-0.3c0.6-0.5,0.8,1.5,0.6,1.9
	c0,0.1-0.2,0.5-0.2,0.8c-0.1,0.4-0.2,0.7-0.4,1c-0.1,0.2-0.3,0.3-0.4,0.4c-0.1,0.1-0.2,0.1-0.3,0.2l-0.2,0c-0.3,0.1-0.3,0.1-0.4,0.1
	c-0.3,0.1-0.9,0.4-1.4,0.6c-0.8,0.4-1.8,0.9-2.7,1.2c-0.9,0.3-1.8,0.7-2.6,1.1c-1,0.5-1.8,0.8-3,1.2c-0.3,0.1-1.5,0.6-2.5,1.1
	l-0.2,0.1c-0.1,0-0.2,0.1-0.3,0.1l-0.1,0l-0.1,0l-0.1,0.1c-0.1,0-0.4,0.1-0.4,0.1c-0.1,0-0.2,0.1-0.3,0.1c-0.1,0-0.3,0.1-0.3,0.1
	l-0.1,0.1c-0.2,0.1-0.2,0.1-0.2,0.1c-0.1,0.1-0.3,0.1-0.4,0.2c-0.2,0.1-0.5,0.3-0.6,0.3c-0.2,0.1-0.5,0.2-0.7,0.3
	c-0.1,0.1-0.4,0.2-0.6,0.2c-0.2,0.1-0.4,0.1-0.6,0.2c-0.5,0.2-1,0.4-1.4,0.6c-0.1,0-0.3,0.2-0.5,0.4c-0.2,0.1-0.5,0.3-0.8,0.3
	c-0.2,0-0.4,0-0.5-0.2c-0.1-0.1-0.2-0.6-0.1-0.8l0-0.3c0,0,0-0.1,0.1-0.2l0-0.1l0-0.1l0-0.1c0-0.1,0.1-0.3,0.2-0.4
	c0.1-0.1,0.1-0.3,0.2-0.4C904.2,24,904.4,23.5,904.8,23.1z"/>
<path class="st0" d="M925.3,27c0.2-0.4,4.5-2.2,5.3-2.4c1-0.3,1.9-0.7,2.8-1.2c0.8-0.4,1.8-0.8,2.7-1.1c1-0.3,1.8-0.7,2.7-1.2
	c0.9-0.5,1.8-0.9,2.8-1.3c0.9-0.4,1.8-0.8,2.7-1.3c0.4-0.2,0.9-0.5,1.3-0.7c0.2-0.1,0.4-0.2,0.6-0.4c0.2-0.2,0.5-0.4,0.6-0.4
	c0.2,0,0.4,0.1,0.5,0.2c0.1,0.2,0.4,0.8,0.4,1.1l0,0.3l-0.1,0.4c0,0.1,0,0.1-0.1,0.3l0,0.1l0,0.1c-0.1,0.3-0.2,0.6-0.3,0.9
	c-0.1,0.2-0.6,0.7-0.8,0.8c-0.2,0.2-0.4,0.2-0.8,0.2c-0.2,0-0.5,0.2-0.7,0.3c-0.4,0.2-1,0.5-1.2,0.7c-0.3,0.3-0.7,0.5-1.2,0.7
	c-1,0.3-1.8,0.6-2.6,1c-0.8,0.4-1.8,0.9-2.8,1.2c-0.2,0.1-0.5,0.2-0.7,0.3l-0.1,0.1l-0.2,0.1c-0.1,0-0.2,0.1-0.3,0.2
	c-0.2,0.1-0.4,0.2-0.6,0.2c-0.3,0.1-0.5,0.2-0.7,0.3c-0.3,0.1-0.5,0.2-0.8,0.3c-0.1,0-0.2,0.1-0.4,0.1c-0.1,0-0.2,0.1-0.3,0.1
	c-0.2,0.1-0.5,0.2-0.7,0.3l-0.3,0.1l-0.1,0l-0.2,0.1c-0.9,0.4-1.8,0.8-2.7,1.1c-0.9,0.3-2.1,0.8-2.6,1.1c-0.1,0-0.2,0.2-0.3,0.3
	c0,0-0.1,0.1-0.1,0.1c-0.1,0.1-0.1,0.1-0.2,0.1c-0.2,0.2-0.6,0.5-0.7,0.5c-0.6,0.2-0.6-0.1-0.6-0.1c-0.1-0.1-0.1-0.1-0.1-0.1
	c0-0.1-0.1-0.3-0.1-0.4l0-0.3l0-0.1l0-0.1c0-0.1,0.1-0.3,0.1-0.4c0.1-0.2,0.2-0.5,0.2-0.6c0.1-0.1,0.1-0.2,0.2-0.3
	c0.1-0.3,0.1-0.4,0.2-0.6c0.1-0.1,0.1-0.2,0.2-0.3C925.1,27.2,925.2,27,925.3,27z"/>
<path class="st1" d="M930.4,83.7l0.1,0.1c0.2,0.1,0.2,0.1,0.2,0.1l0.1,0.1L931,84l0.2,0.1c0.1,0,0.3,0.1,0.4,0.2
	c0.1,0,0.2,0.1,0.3,0.1c0.1,0,0.3,0.1,0.3,0.2c0.1,0.1,0.2,0.1,0.2,0.1l0.2,0.1l0.1,0c0.2,0,0.3,0.1,0.5,0.1l1.8,0.5l0.1,0
	c0.2,0.1,0.2,0.1,0.2,0.1c0.1,0,0.2,0,0.3,0.1c0.3,0,0.3,0,0.3,0.1c0,0,0,0,0.3,0.1l0.3,0.1l0.1,0l0.2,0c0.1,0,0.3,0,0.3,0.1
	c0.2,0.1,1.6,0.1,2,0.1c0.2,0,1.2,0,1.2-0.2c-0.4-0.9-1.6-3.6-2-3.9c-0.2-0.2-0.6-0.5-0.8-0.8c-0.3-0.3-0.6-0.6-1-0.8
	c0,0-0.1,0-0.3-0.1c-0.1,0-0.3-0.1-0.4-0.1c-0.2-0.1-0.5-0.2-0.7-0.3c-0.4-0.2-0.8-0.4-1.3-0.5c-0.6-0.1-1.3-0.1-1.9-0.1
	c-1,0.1-1.8,1.1-2.3,1.8c-0.1,0.2-0.6,1.5-0.4,1.7C929.6,83,930.2,83.7,930.4,83.7z"/>
<path class="st0" d="M935.2,37.2c0.4-0.4,2.7,1.1,2.9,1.3c0.2,0.2,0.3,0.4,0.5,0.5c0.2,0.2,0.5,0.6,0.5,0.6c0.3,0.4,0.8,1,0.8,1.3
	c0.1,0.8-0.7,2-1,2.5c-0.2,0.3-0.5,0.7-0.6,0.9c0,0.1-0.2,0.4-0.3,0.6c0,0.1-0.1,0.2-0.2,0.4c-0.1,0.1-0.1,0.1-0.1,0.1
	c-0.1,0.1-0.3,0.2-0.5,0.1c0,0-0.1-0.1-0.2-0.1c-0.1-0.1-0.2-0.2-0.2-0.2c-0.1-0.1-0.3-0.3-0.4-0.3c-0.2-0.1-0.5-0.3-0.6-0.3
	c-0.2-0.1-0.4-0.2-0.6-0.3c-0.2-0.2-0.8-0.4-1.3-0.6c-0.5-0.2-0.9-0.5-0.8-1.1c0,0,0.1-0.5,0.2-0.6l0.1-0.3c0,0,0.1-0.2,0.1-0.3
	c0-0.1,0.1-0.2,0.2-0.3c0.1-0.1,0.1-0.2,0.1-0.3c0-0.1,0.1-0.3,0.1-0.3c0-0.2,0.1-0.6,0.1-0.6C933.9,39.4,935,37.3,935.2,37.2z"/>
<path class="st1" d="M938.9,63.7c0.5,0.5,2.1,0.9,3.1,0.9c0.3,0,1.1-0.5,1.3-0.7c0.2-0.1,0.5-0.4,0.6-0.6c0,0,0.3-0.4,0.4-0.6
	c0-0.1,0.1-0.2,0.2-0.2c0.1-0.1,0.2-1.3,0.1-1.3c0,0-0.1-0.1-0.2-0.2c-0.1-0.1-0.2-0.2-0.3-0.3c-0.2-0.2-0.4-0.4-0.7-0.6l-0.4-0.3
	l-0.1-0.1l-0.4-0.4c-0.2-0.1-0.2-0.1-0.2-0.1c-0.3-0.3-2.1-2.1-2.7-1.3l-0.2,0.1c-0.1,0.1-0.1,0.1-0.1,0.1c-0.1,0.1-0.2,0.2-0.3,0.4
	l-0.1,0.1c-0.1,0.1-0.1,0.1-0.1,0.2c-0.1,0.1-0.1,0.1-0.1,0.2c0,0-0.1,0.1-0.1,0.2c-0.2,0.1-1,2.1-1,2.5c-0.2,0.8-0.1,0.8,0.3,1.3
	c0.1,0.2,0.4,0.5,0.4,0.5l0.1,0.1l0.2,0.1C938.8,63.5,938.9,63.7,938.9,63.7z"/>
<path class="st0" d="M375.5,100.1c1.1,0.3,2.6,1.1,2.9,1.4c0.4,0.3,1.1,0.6,1.5,0.8c0.1,0.1,0.5,0.2,0.5,0.2c0.1,0,0.5,0.1,0.5,0.1
	c0.2,0.1,0.3,0.1,0.5,0.2c0.1,0,0.1,0,0.2,0.1c0.1,0.1,0.2,0.2,0.2,0.1l0-0.1l0-0.1l0-0.1l0.1-0.1l0.1-0.2c0,0,0.1-0.3,0.2-0.4
	c0-0.1,0-0.1,0.1-0.2c0-0.1,0.1-0.2,0.1-0.2c0-0.1,0.1-0.3,0.2-0.4c0.1-0.1,0.2-0.3,0.2-0.4l0-0.1l0-0.2l0-0.3
	c0-0.1,0.1-0.3,0.2-0.4c0.2-0.4,0.6-1,0.7-1.4c0.1-0.3,0.1-0.5,0.3-0.7c0.1-0.1,0.2-0.1,0.3-0.1c0.1,0,0.5-0.1,0.5,0
	c0,0,0.9,0.4,0.9,0.4c0.3,0.1,0.6,0.3,0.8,0.5c0,0,0.1,0.1,0.2,0.1c0.2,0.1,0.2,0.1,0.2,0.1l0.1,0.1l0.1,0.1c0.1,0,0.1,0.1,0.2,0.1
	c0.2,0.2,0.5,0.4,0.7,0.6c0.1,0.1,0.3,0.3,0.6,0.5c0,0,0.2,0.2,0.3,0.2c0.1,0.1,0.4,0.3,0.4,0.3c0.2,0.2,0.4,0.4,0.7,0.5
	c0.2,0.1,0.6,0.4,0.6,0.6c0.3,1.3-0.6,2.2-1.2,2.8c-0.1,0.1-0.2,0.3-0.3,0.5c-0.1,0.2-0.3,0.4-0.4,0.6c-0.2,0.4-0.6,0.9-1.1,0.9
	c-0.4,0.1-2.9-1.1-3.1-1.3c-0.3-0.2-2.4-1.5-2.6-1.4c0,0-0.3,0.6-0.3,0.7c-0.1,0.2-0.2,0.6-0.3,0.7l-0.8,0.9
	c-0.1,0.2-0.3,0.4-0.4,0.6c-0.1,0.2-0.2,0.4-0.4,0.6c-0.1,0.1-0.3,0.3-0.4,0.5c-0.1,0.2-0.3,0.4-0.5,0.5c-0.8,0.3-2.2,0-2.8-0.4
	c-0.4-0.3-1-0.6-1.5-0.8c-0.9-0.4-2.5-1-3-1.6c0,0-0.1-0.4,0-0.6c0-0.2,0.1-0.5,0.2-0.7l1-2.4c0.2-0.3,0.4-0.7,0.5-0.9
	C373.2,100.9,373.9,99.4,375.5,100.1z"/>
<path class="st2" d="M775.8,102.3c-0.1,0-0.2,0-0.3,0c-0.7,0.2-1.4,0.3-2.5,0.3c-0.3,0-0.6,0-0.9,0.1c-0.2,0-0.4,0.1-0.6,0.1l-0.2,0
	c-0.1,0-0.1,0-0.4-0.1l-0.5-0.1l-0.3,0l-0.3,0h-0.1c-0.4,0-0.8,0-1.1-0.1c-0.2,0-1-0.2-1.2-0.2l-0.1,0c0,0,0,0-0.2-0.1
	c-0.1,0-0.4-0.1-0.4-0.1l-0.2-0.1l-0.2,0l-0.2,0c-0.1,0-0.3-0.1-0.5-0.2c0,0-0.6-0.2-1-0.4c-0.3-0.1-0.6-0.3-0.9-0.4
	c-0.3-0.1-0.9-0.6-1.4-1l-0.2-0.1l-0.3-0.2c-0.1-0.1-0.1-0.1-0.2-0.1c0,0,0,0-0.1-0.1l-0.2-0.1l-0.1-0.1c-0.1-0.1-0.1-0.2-0.1-0.2
	c-0.3-0.2-1.6-2.3-1.9-2.9c-0.5-0.9-1-2.5-1.2-3.5c-0.2-0.9,0.1-7.7,0.5-8.3c0.1-0.3,0.2-0.7,0.4-1c0.1-0.2,0.1-0.4,0.2-0.7
	c0-0.1,0-0.1,0.1-0.2c0-0.1,0.1-0.3,0.1-0.3c0-0.1,0.2-0.5,0.3-0.7c0-0.1,0-0.1,0.1-0.3l0-0.1l0.1-0.2c0.1-0.4,0.2-0.8,0.4-1.2
	c0.1-0.2,0.3-0.6,0.3-0.6c0.1-0.2,0.2-0.4,0.3-0.6c0.1-0.3,0.4-0.8,0.5-1c0.2-0.4,0.4-0.8,0.6-1.2c0,0,0.1-0.4,0.2-0.5
	c0.1-0.2,0.1-0.4,0.3-0.5c0.1-0.1,0.3-0.1,0.5-0.1c0.6,0-0.1,2.1-0.2,2.3c0,0-0.1,0.2-0.1,0.2c0,0.2-0.1,0.3-0.1,0.4
	c-0.1,0.2-0.2,0.5-0.3,0.7c-0.2,0.3-0.3,0.7-0.4,1c-0.5,1.5-1.2,6.3-0.9,7.7l0,0.1l0,0.1l0,0.2l0,0.1l0,0.1l0,0.3
	c0,0.1,0,0.3,0.1,0.4l0.1,0.2c0,0.3,0,0.3,0.1,0.5l0.1,0.2c0,0.1,0.1,0.2,0.1,0.3c0.1,0.4,0.5,1,0.7,1.4c0.1,0.1,0.1,0.2,0.2,0.3
	l0.1,0.2c0.1,0.2,0.1,0.2,0.1,0.2c0.1,0.1,0.2,0.2,0.2,0.2l0.1,0.1l0.1,0.1l0.1,0.1c0.1,0.3,0.8,0.9,1.2,1.1
	c0.2,0.2,0.5,0.3,0.7,0.5c0.2,0.1,0.6,0.4,0.7,0.5c0.7,0.5,2.5,1,3.7,1.3c1,0.2,2.3,0.4,3.4,0.3c2.7-0.1,5.6-0.5,7.5-1.3
	c0.4-0.2,0.8-0.3,1.2-0.5c0,0,0.1,0,0.2-0.1c0.1,0,0.2-0.1,0.3-0.1c0.1,0,0.3-0.1,0.3-0.1c0.1,0,0.2-0.1,0.3-0.1
	c0.2-0.1,0.3-0.1,0.5-0.2c0.2-0.1,0.5-0.2,0.7-0.3c0.2-0.1,0.4-0.2,0.5-0.3c0.1-0.1,0.2-0.1,0.3-0.2c0.1,0,0.2-0.1,0.3-0.1
	c0.1-0.2,0.3-0.3,0.5-0.4c0.2-0.1,0.4-0.3,0.6-0.4c0.3-0.3,1-0.9,1.1-0.9c0.2-0.2,0.8-0.8,1.1-1.2c0.4-0.4,0.8-0.9,1.1-1.4
	c0.4-0.7,0.9-1.3,1.2-2.1c0.2-0.4,0.3-1.2,0.3-1.8c0-0.2-0.1-0.6-0.1-0.7c-0.1-0.2-0.1-0.4-0.2-0.7c0-0.2-0.1-0.5-0.1-0.7
	c0-0.2-0.1-0.6-0.1-0.8l-0.3-1.1l-0.2-0.6l0-0.1c0-0.1-0.1-0.2-0.1-0.3c-0.3-0.9-0.6-1.8-1-2.6c-0.5-0.9-1-1.9-1.4-2.8
	c0-0.1-0.1-0.2-0.1-0.3c-0.1-0.1-0.1-0.2-0.2-0.3c-0.1-0.2-0.3-0.5-0.4-0.8c-0.1-0.2-0.2-0.5-0.4-0.7c-0.1-0.1-0.1-0.1-0.1-0.2
	c0,0-0.1-0.2-0.1-0.2c-0.1-0.1-0.1-0.1-0.2-0.3l0-0.1l-0.1-0.1l-0.1-0.2l0-0.1c-0.1-0.1-0.1-0.3-0.2-0.4l-0.1-0.1l-0.1-0.2
	c-0.1-0.2-0.2-0.4-0.4-0.6c-0.1-0.2-0.3-0.4-0.3-0.6c-0.1-0.4,0.1-1.4,0.2-1.9c0-0.2,0.1-0.4,0-0.5c-0.1-0.2-0.1-0.5-0.1-0.8
	c0-0.3,0.5-2.4,0.5-2.5c0.2-0.2,0.4-0.1,0.6-0.1c0.3,0.1,0.7,0.7,1,1.1c0,0.1,0.3,0.5,0.4,0.8c0.1,0.3,0.3,0.6,0.4,0.8
	c0,0,0,0,0.1,0.2c0,0.1,0,0.1,0.1,0.2c0,0,0,0,0.1,0.2l0.1,0.2c0.1,0.1,0.1,0.1,0.1,0.2c0,0.1,0,0.1,0.1,0.2l0.1,0.2l0.1,0.2
	c0.2,0.2,0.3,0.5,0.5,0.8c0.2,0.2,0.3,0.5,0.5,0.6c0.7,0.3,1.6,0.5,2.4,0.6c2.6,0.3,7.9-0.9,9.3-2.1c0.1-0.1-0.8-2.2-0.9-2.3
	c-0.1-0.1-0.1-0.2-0.2-0.3l-0.1-0.1l-0.1-0.2c-0.1-0.1-0.3-0.4-0.4-0.6c-0.3-0.4-0.5-0.7-0.8-1c-0.1-0.1-0.2-0.2-0.3-0.3
	c0,0-0.1-0.1-0.1-0.1c-0.1-0.2-0.3-0.4-0.4-0.6c-0.1-0.1-0.2-0.2-0.2-0.3l0-0.1l-0.1-0.1l-0.1-0.2c0,0-0.1-0.2-0.2-0.2
	c-0.1-0.1-0.2-0.3-0.3-0.3c-0.1-0.5,0-1.4,0.2-1.9c0.1-0.3,0.1-0.7,0.1-1c0-0.2,0-0.5,0-0.8c0.1-0.4,0.2-1.1,0.3-1.3l0.1-0.3
	c0-0.2,0.1-0.5,0.1-0.5c0-0.1,0.1-0.2,0.2-0.3c0.1,0,0.5-0.1,0.5,0l0.1,0c0,0,0,0,0.2,0.1c0.1,0.1,0.2,0.2,0.5,0.5l0.1,0.2
	c0,0,0.1,0.1,0.1,0.1c0,0,0.5,0.5,0.7,0.8l0.1,0.1l0.1,0.1c0.5,0.6,1.6,2.1,1.7,2.2c0.4,0.8,0.7,1.5,0.9,2.5c0,0.2,0.1,0.4,0.1,0.6
	l0.1,0.3c0,0.2,0.1,0.4,0.1,0.4c0,0.2,0.1,0.4,0.1,0.6c0,0,0.1,0.5,0.1,0.7c0,0.2,0.1,0.6,0.1,0.6c0.1,0.2,0,2.1-0.1,2.5
	c-0.1,0.4-0.1,1-0.2,1.8c0,0.1-0.1,0.6-0.2,0.8c0,0.1-0.1,0.3-0.1,0.5c0,0.2-0.1,0.5-0.1,0.6c-0.3,1-0.5,1.9-1.2,2.4
	c-0.5,0.4-1.5,0.9-2.4,1.4c-0.8,0.4-2.2,0.8-3.2,1c-0.6,0.1-1.7,0.2-2,0.3c-0.4,0.1-0.7,0.1-1.1,0.1c0,0-0.6,0-0.6,0.1l0,0.1v0.2
	c0,0.1,0,0.3,0,0.4c0,0.1,0.1,0.7,0.2,1.2c0.1,1,0.2,2.1,0.2,3l-0.2,3.7c0,1-0.1,1.9-0.2,2.8l0,0.1l-0.1,0.2c0,0-0.1,0.4-0.1,0.5
	c0,0-0.2,1-0.3,1.4c-0.1,0.3-0.1,0.6-0.2,1c0,0.1-0.1,0.3-0.1,0.4l-0.1,0.3c-0.1,0.2-0.1,0.2-0.1,0.2c0,0.1-0.1,0.2-0.2,0.3
	c-0.1,0.1-0.1,0.2-0.2,0.3c0,0.1-0.1,0.2-0.1,0.3c0,0.2,0,0.2-0.1,0.2c-0.2,0.5-0.4,1-0.6,1.3c0,0.1-0.4,0.4-0.6,0.6
	c-0.2,0.2-0.4,0.4-0.6,0.7c-0.4,0.6-0.8,1.1-1.3,1.5c-0.7,0.7-2.7,2.3-3,2.4c-0.9,0.3-1.9,0.7-2.7,1.2c-0.3,0.1-0.5,0.2-0.8,0.3
	C779.6,102.1,775.9,102.3,775.8,102.3z"/>
</svg>
