<?xml version="1.0" encoding="utf-8"?>
<!-- Generator: Adobe Illustrator 23.0.3, SVG Export Plug-In . SVG Version: 6.00 Build 0)  -->
<svg version="1.1" id="Layer_1" xmlns="http://www.w3.org/2000/svg" xmlns:xlink="http://www.w3.org/1999/xlink" x="0px" y="0px"
	 viewBox="0 0 1287 136" style="enable-background:new 0 0 1287 136;" xml:space="preserve">
<style type="text/css">
	.st0{fill-rule:evenodd;clip-rule:evenodd;fill:#231F20;}
</style>
<path class="st0" d="M738.5,51.5l-0.1-0.2l0.1-0.1c-0.1,0-0.1,0-0.1,0l-0.2,0l0,0.1c-0.2,0.1-0.9-0.9-1.1-1.2
	c-0.4-0.5-0.7-1.2-0.9-1.9c-0.1-0.3,0.3-1.2,0.4-1.5c0.1-0.2,0.2-0.5,0.3-0.6c0.1-0.3,0.2-0.5,0.3-0.7c0.1-0.7,0.9-2,1.3-2.4
	c0.1-0.1,0.6,0,0.6,0.1l0.1,0.2c0.1,0.1,0.1,0.1,0.1,0.2l0.1,0.1l0.1,0.1c0.1,0.1,0.1,0.1,0.1,0.2c0,0.1,0,0.1,0.1,0.2l0.1,0.2
	l0.1,0.1l0.1,0.1c0.2,0.4,0.5,0.9,0.8,1.2c0.5,0.6,1.1,1,1.7,1.5c0.5,0.4,1.7,1.4,1.8,1.5c0.1,0.2-0.4,1.8-0.5,1.9
	c-0.3,0.3-0.5,0.8-0.6,0.9c-0.1,0.4-0.3,0.8-0.6,1.1c-0.1,0.2-0.3,0.3-0.4,0.4c-0.1,0-0.2,0.1-0.3,0.1c-0.1,0-0.2,0-0.3,0
	c-0.2,0-0.2,0-0.3,0c0,0,0.2,1.1,0.2,1.2c0,0.2,0.1,0.7,0.2,1.1c0.1,0.3,0.1,0.8,0.2,1c0,0.2,0.1,0.3,0.1,0.4c0,0.1,0.1,0.3,0.1,0.4
	c0.2,0.7,0.6,2.3,0.9,3.5c0.2,0.6,0.3,1.4,0.5,2.1c0.1,0.6,0.3,1.3,0.4,1.9c0.3,1.3,0.8,3.3,0.9,3.9l0.8,4l0.4,2l0.1,0.3l0,0.4
	l0,0.2l0,0.1l0,0.2c0,0.2,0,0.3,0.1,0.4l0.1,0.2c0,0.1,0,0.1,0.1,0.2c0,0.2,0.1,0.5,0.1,0.6c0.1,0.7,0.4,1.9,0.4,2.2
	c0.1,0.5,0.3,1.6,0.4,2.2l0.2,1c0,0.1,0,0.1,0.1,0.3l0,0.2l0,0.2l0.1,0.3l0.1,0.2c0.1,0.4,0.2,4.7,0.1,5c0,0,0,0.3-0.1,0.3l0,0.2
	l0,0.2c0,0.2-0.1,0.5-0.1,0.6c0,0-0.1,0.5-0.1,0.6c0,0.2-0.1,0.5-0.1,0.7c-0.1,0.3-0.1,0.5-0.2,0.8c0,0.1-0.1,0.3-0.1,0.4
	c-0.1,0.1-0.1,0.2-0.2,0.4l0,0.1l-0.1,0.2l0,0.1c0,0.2-0.1,0.4-0.1,0.6c-0.1,0.3-0.2,0.7-0.3,0.9c-0.1,0.3-0.3,0.5-0.6,0.5
	c-0.1,0-0.6,0.2-0.9,0.3c-0.3,0.1-0.6,0.3-0.9,0.4c-0.2,0.1-0.4,0.1-0.6,0.1c-0.3,0-0.7,0-0.9,0.1c-0.4,0.1-1,0.2-1.2,0.2
	c-0.1,0-0.8,0.2-1.1,0.2l-0.1,0l-0.2,0l-0.3,0c-0.1,0-0.1,0-0.2,0.1c-0.1,0-0.1,0-0.2,0c-0.2,0-0.5,0.1-0.5,0.1
	c-0.1,0.1-0.3,0.1-0.5,0.2c-0.7,0.2-1.5,0.4-2.2,0.5c-0.5,0.1-1,0.1-1.5,0.2c-0.6,0-0.6,0-0.8,0.1c-0.3,0-0.7,0.1-0.8,0.1
	c-0.2,0-0.8,0.1-1.2,0.2c-0.1,0-1.4,0.2-2.1,0.2c-0.3,0-0.8,0.1-1.3,0.2c-0.6,0.1-1.2,0.1-1.8,0.1c-0.2,0-0.4,0-0.5,0.1
	c-0.2,0-0.6,0.1-0.7,0.1c-0.3,0-0.6,0.1-0.9,0.1l-0.2,0l-0.2,0h-0.3c-0.5,0-0.5,0-0.7,0c-0.3,0-0.6,0.1-0.9,0.1h-0.2h-0.2
	c-0.1,0-0.3,0-0.4,0.1c-0.2,0-0.4,0.1-0.6,0.1c-0.4,0-1.3,0-1.4,0.1l-0.2,0l-0.1,0c-0.1,0-0.5,0-0.6,0c-0.1,0-0.4,0-0.6,0.1l-0.1,0
	l-0.3,0l-0.2,0l-0.1,0c-0.5,0-1.1,0.1-1.3,0.1c-0.9,0.3-1.7,0.4-2.8,0.3c-0.5,0-1.1-0.1-1.6-0.1l-0.1,0l-0.1,0l-0.2,0l-0.6,0
	c-0.4,0-1.8-0.1-1.8-0.1c-0.4-0.1-0.8-0.3-1.1-0.5c-0.5-0.4-1.4-1.3-1.5-2c-0.1-0.4-0.1-1,0-1.4c0.1-0.3,0.2-0.8,0.3-1.2
	c0.1-0.4,0.2-1,0.3-1.1c0.2-0.7,0.5-1.5,0.8-1.7c0.1-0.1,0.4,0,0.4,0c0,0.2,0.2,0.9,0.3,1.1c0.1,0.2,0.8,0.6,1,0.7
	c0.6,0.1,1.3,0.3,1.8,0.3c0.4,0,1.4,0,1.7,0.1c0.1,0,0.6,0,0.7,0c0.3,0,0.3,0,0.9-0.1h0.2l0.6,0h0.1c0.3,0,0.7,0,1,0
	c0.1,0,0.4,0,0.5-0.1l0.3,0l0.3,0c0.1,0,0.3-0.1,0.5-0.1c0.1,0,0.6-0.1,0.8-0.1c0.6-0.1,1.1-0.2,1.6-0.3c0.1,0,0.1,0,0.5,0h0.2
	l0.3,0l0.3,0c0.6,0,1.5-0.1,1.7-0.1c0.2,0,1.1-0.1,1.6-0.1c0.5,0,1-0.1,1.4-0.1c2.1-0.2,9.1-1.1,9.1-1.1c0.2,0,0.4-0.1,0.6-0.1
	l0.2,0l0.2,0c0.2,0,0.3,0,0.5-0.1c0.1,0,0.2,0,0.3,0c0.2,0,0.4-0.1,0.6-0.1c0.3,0,0.6-0.1,0.9-0.2l0.1,0l0.1,0c0.1,0,0.2,0,0.2-0.1
	c0.2-0.1,0.4-0.1,0.6-0.2c0.4-0.1,0.8-0.2,1.1-0.3l2.6-0.5c0.2,0,0.4-0.1,0.6-0.1l0.2,0l0.2,0l0.3,0c0.1,0,0.2,0,0.4-0.1
	c0.3-0.1,0.8-0.2,1-0.4c0.1-0.1-0.3-2-0.4-2.4c-0.1-0.2-0.2-0.6-0.2-0.9c-0.1-0.3-0.2-1-0.3-1c0-0.1,0-0.1,0-0.3
	c0-0.3,0-0.3-0.1-0.5c-0.1-0.3-0.1-0.5-0.1-0.8c0-0.3-0.2-0.9-0.3-1.3l0-0.1l0-0.2l-0.1-0.3l0-0.1l0-0.2l0-0.1c0-0.1,0-0.1-0.1-0.2
	c0-0.2-0.1-0.5-0.1-0.5c0-0.1,0-0.1-0.1-0.2c0-0.1-0.1-0.2-0.1-0.3c-0.3-1.7-0.6-3.9-0.9-4.9c-0.2-0.6-0.5-1.8-0.5-2.1
	c-0.1-0.8-0.3-1.5-0.5-2.2c0,0-0.1-0.4-0.1-0.6l0-0.1l0-0.1l0-0.2l0-0.1c0-0.2-0.1-0.3-0.1-0.5c0-0.1,0-0.1-0.1-0.2l0-0.2l0-0.2
	l0-0.1c-0.2-0.6-0.4-1.5-0.5-2.2c-0.2-1.4-0.6-2.6-1-3.9l-0.1-0.2c0-0.1,0-0.1-0.1-0.4c0-0.2,0-0.4-0.1-0.5c0,0-0.1-0.4-0.1-0.5
	c0-0.2,0-0.2-0.1-0.3c0-0.2,0-0.3-0.1-0.4c0-0.1-0.1-0.5-0.1-0.5l0-0.1l0-0.1c0-0.1-0.1-0.3-0.1-0.4c-0.1-0.4-0.1-0.9-0.2-1.3
	c-0.1-0.3-0.1-0.7-0.2-1c-0.1-0.4-0.2-0.8-0.2-1.3l-0.1-0.3l0-0.1l0-0.1c0,0,0-0.4-0.1-0.4c0,0,0-0.3-0.1-0.5l-0.1-0.9l0-0.5l0-0.5
	l0-0.3l0-0.2c0,0,0-0.1,0-0.1c-0.1,0-0.4-0.3-0.3-0.4l0.2,0.1l0.2,0L738.5,51.5z"/>
<path class="st0" d="M707.5,57.2c0.1-0.1,0.2-0.3,0.3-0.4c0.1-0.1,0.2-0.3,0.3-0.4c1.1-0.6,3.6-1.9,5.7-2.9c1.9-1,3.7-2,5.5-3
	c0,0,0.4-0.3,0.6-0.4l0.1-0.1l0.1,0l0.1-0.1l0.1-0.1l0.1,0l0.1-0.1l0.1,0c0.2-0.1,0.5-0.2,0.7-0.4c0.3-0.1,0.5-0.3,0.8-0.4
	c0.4-0.2,1.2-0.7,1.3-0.7c0.4-0.3,0.9-0.5,1.3-0.8c0.6-0.3,1.7-1,2.6-1.5c0.1-0.1,0.2-0.1,0.3-0.2c0,0,0.2-0.1,0.4-0.2l0.1-0.1
	l0.1,0l0.1-0.1l0.1-0.1c0.1-0.1,0.2-0.1,0.4-0.2c0.2-0.1,0.4-0.2,0.6-0.4c0.1-0.1,0.2-0.2,0.3-0.2c0.1-0.1,0.2-0.2,0.3-0.2
	c0.6-0.4,1.1,1.2,0.9,1.7c-0.2,0.6-0.5,1.5-0.7,1.8c-0.2,0.3-0.7,0.7-1.1,0.9c-0.2,0.1-0.5,0.2-0.8,0.4c-0.3,0.1-0.5,0.2-0.8,0.4
	c-0.9,0.5-2.1,1.2-2.6,1.6c-0.2,0.1-0.4,0.2-0.6,0.3c-0.2,0.1-0.5,0.3-0.7,0.4l-0.7,0.4c-0.1,0.1-0.1,0.1-0.2,0.1
	c-0.1,0.1-0.1,0.1-0.2,0.1l-0.1,0l-0.1,0.1l-0.2,0.1c0,0-0.5,0.2-0.7,0.4l-0.8,0.4c-0.5,0.3-1.1,0.6-1.5,0.8
	c-0.4,0.2-0.9,0.5-1.3,0.8c-0.4,0.3-0.9,0.6-1.4,0.8c-0.9,0.5-1.9,1-2.9,1.5c-0.5,0.2-0.9,0.4-1.3,0.7c-0.3,0.2-1,0.5-1.4,0.8
	l-1.5,0.7c-0.2,0.1-0.5,0.3-0.7,0.4c-0.2,0.1-0.4,0.3-0.7,0.3c-0.2,0-0.4-0.1-0.5-0.2c-0.2-0.4-0.1-0.8,0.1-1.2
	c0.1-0.2,0.2-0.5,0.2-0.6C707.4,57.9,707.4,57.2,707.5,57.2z"/>
<path class="st0" d="M717.3,83.5c0.1,0,0.4,0.1,0.6,0.2c0.1,0.1,0.3,0.1,0.5,0.2c0.1,0,0.3,0.1,0.5,0.1c0.1,0,0.2,0.1,0.3,0.1
	c0.1,0,0.3,0.1,0.3,0.1c0.2,0,0.4,0,0.7,0c0.3,0,0.3,0,0.7,0c0.5,0,0.8,0,1.3,0c0.3,0,0.6,0,0.9,0c0.1,0,0.3,0,0.5-0.1
	c0.1,0,0.3-0.1,0.5-0.2c0.1-0.1,0.3-0.1,0.5-0.2c0.2,0,0.4-0.1,0.5-0.1l0.8-0.1l0.2-0.1l0.1,0l0.2-0.1c0.1,0,0.4-0.1,0.5-0.2
	c0.1,0,0.2,0,0.3,0c0.2,0,0.3,0,0.6-0.1c0.2,0,0.4-0.1,0.5-0.2c0.6-0.4,1.5-0.9,1.8-1.1c0.1-0.1,0.3-0.2,0.4-0.2
	c0.2-0.1,0.3-0.2,0.5-0.3c0.2-0.2,0.8-0.6,0.7-0.8c0-0.1-1.1-0.6-1.3-0.6h-0.2h-0.3l-0.3,0l-0.6,0l-0.3,0h-0.1h-0.2l-0.2,0h-0.2
	c-0.4,0-0.4,0-0.4,0c-0.2,0-0.5-0.1-0.7-0.1c-0.2,0-1-0.4-1.4-0.7c-0.2-0.1-0.6-0.3-0.7-0.3c-0.1,0-0.2-0.1-0.2-0.1
	c-0.1-0.1-0.2-0.1-0.3-0.2c-0.2-0.1-0.6-0.7-0.8-0.9c-0.1-0.3-0.1-0.9,0-1.2c0.2-0.4,0.3-0.9,0.4-1.4c0.1-0.6,0.2-1.1,0.4-1.6
	c0.3-1,0.8-2,1.3-2.9l0.7-1.3l0.1-0.2c0,0,0.1-0.2,0.2-0.4l0.4-0.6c0.2-0.4,0.5-0.8,0.7-1.2c0.1-0.2,0.3-0.4,0.4-0.5
	c0.1-0.1,0.3-0.4,0.4-0.5c0.2-0.4,1.8-1.6,2.3-1.8c0.2-0.1,0.4,0.1,0.5,0.2c0.1,0.1,0.1,0.1,0.1,0.1c0.2,0,0.3,0,0.4,0.1
	c0.2,0.3,0.3,0.6,0.4,0.6c0.2,0.2,0.5,0.4,0.5,0.5c0.1,0.5-0.4,1.7-0.5,2.1c-0.2,0.5-0.5,1.4-0.7,2c-0.1,0.3-0.7,1.8-1.1,1.1
	c-0.1-0.1-0.7-0.7-1.1-1.1c-0.1-0.1-0.6,0.1-0.8,0.1c-0.2,0.1-1,0.6-1,0.8c0,0-0.1,0.2-0.2,0.2c-0.1,0.1-0.1,0.2-0.2,0.3
	c-0.1,0.2-0.3,0.4-0.4,0.6c-0.1,0.1-0.1,0.2-0.2,0.3c-0.1,0.1-0.1,0.3-0.2,0.4c-0.1,0.1-0.3,0.6-0.4,0.5c-0.1,0,0.2,0.3,0.2,0.3
	l0.2,0.2c0.2,0.2,0.5,0.4,0.7,0.4c0.6,0.3,1.5,0.6,1.8,0.7h0.6h0.9l1,0.1c0.3,0,0.6,0.1,0.8,0.1c0.4,0.1,0.8,0.2,1.1,0.4
	c0.3,0.2,0.5,0.5,0.7,0.8c0.2,0.3,0.2,0.8,0.2,1.3c0,1-0.2,1.8-0.4,2.5c-0.2,0.6-0.3,1-0.5,1.7c-0.2,0.7-0.4,1.3-0.7,1.8
	c-0.2,0.4-0.6,0.9-1,1.2c-0.5,0.3-1.3,1-1.5,1.1c-0.1,0.1-0.6,0.3-1,0.5c-0.1,0.1-0.4,0.2-0.5,0.2c-0.2,0-0.3,0-0.5-0.1
	c-0.1,0-0.3,0-0.4,0c-0.6,0.5-1.2,0.9-2.3,1c-0.6,0-1.2-0.1-1.7-0.2c-0.3-0.1-1.3-0.1-1.9-0.1c-0.6,0-1.8-0.1-1.9-0.1l-0.1,0l-0.1,0
	l-0.1,0l-0.1,0c-0.1,0-0.1,0-0.2,0c-0.1,0-0.2-0.1-0.3-0.1l-0.1,0l-0.2,0l-0.1,0l-0.1,0c-0.5-0.1-1-0.3-1.5-0.5
	C715.7,85.4,716.7,83.6,717.3,83.5z"/>
<path class="st0" d="M738.1,107.3c0.1,0,2.3,0.4,2.5,0.5c0.7,0.2,1.6,0.5,2.3,0.6c0.4,0,1,0.1,1.3,0.1c0.6,0,1.3,0,2,0
	c0.2,0,0.5,0,0.7-0.1c0.4-0.1,0.8-0.1,1.2,0c0.4,0.1,1.1,0,1.6-0.1c0.4,0,0.7-0.1,1.1-0.2c0.3-0.1,0.7-0.2,1-0.2
	c0.7-0.1,1.3-0.3,1.9-0.5c0.5-0.2,1.4-0.5,1.6-0.6c0.1,0,0.3-0.1,0.4-0.1l0.2,0l0.1,0c0.1,0,0.2-0.1,0.4-0.1c0.2,0,0.7-0.2,1-0.4
	c0.9-0.4,1.9-0.9,2.6-1.4c0.3-0.2,1-0.7,1.2-0.8l0.4-0.3c0.1-0.1,0.1-0.1,0.2-0.2c0.1-0.1,0.2-0.2,0.3-0.2c0.1-0.1,1.2-1.1,1.4-1.4
	c0.1-0.1,0.3-0.3,0.4-0.4c0.1-0.1,0.2-0.2,0.3-0.4c0.1-0.2,0.2-0.3,0.4-0.5c0.1-0.1,0.1-0.1,0.2-0.1c0.1-0.1,0.1-0.1,0.2-0.2
	c0.5-0.5,1.1-1.1,1.4-1.5l0.1-0.2l0.1-0.1c0.1-0.1,0.1-0.1,0.2-0.2c0.1-0.2,0.1-0.2,0.1-0.2L767,98c0.1-0.1,0.1-0.1,0.1-0.2
	c0.1-0.1,0.1-0.3,0.2-0.3c0-0.1,0.1-0.1,0.2-0.2c0,0,0.1-0.2,0.2-0.2c0.5-0.6,0.9-1.4,1.2-2.1c0-0.1,0.2-0.4,0.3-0.6
	c0.1-0.2,0.2-0.4,0.3-0.5c0.2-0.4,0.3-0.7,0.5-1.1c0.2-0.5,0.3-0.9,0.4-1.5c0.1-0.6-0.1-1-0.5-1.6l-0.1-0.1l-0.1-0.2
	c-0.1-0.1-0.1-0.1-0.1-0.2l-0.1-0.1c-0.1-0.1-0.1-0.2-0.1-0.2c-0.1-0.1-0.2-0.3-0.2-0.4l-0.1-0.2l-0.1-0.1l0-0.1l0-0.1L769,88
	c0,0,0,0-0.1-0.1l-0.1-0.1c-0.1-0.1-0.1-0.1-0.1-0.1c-0.2-0.3-2.3-2.6-2.6-2.9c-0.4-0.3-1-0.9-1.4-1.4c-0.2-0.2-0.4-0.5-0.7-0.7
	c-0.3-0.3-0.7-0.6-0.7-0.7c-0.1-0.5,0-1.3,0-1.8c0-0.2,0.1-0.8,0.1-0.8l0-0.3l0-0.1v-0.3c0-0.4,0.2-2,0.5-2.2
	c0.2-0.1,0.3-0.2,0.5-0.2c0.4,0,4.2,3.9,4.5,4.3c0.7,0.8,1.4,1.6,1.8,2.6l0.1,0.2l0.1,0.3c0,0,0.1,0.3,0.1,0.4
	c0.1,0.3,0.3,0.6,0.4,0.9c0.3,0.5,0.7,1.2,0.8,1.7c0.1,0.9,0,4.1-0.1,6.1c0,0-0.1,0.5-0.2,0.6c-0.1,0.3-0.1,0.6-0.2,0.8
	c-0.1,0.7-0.2,1.3-0.4,1.8c-0.2,0.8-0.5,1.7-0.8,2.5c-0.2,0.4-0.4,1.1-0.5,1.2c-0.1,0.2-0.2,0.4-0.3,0.6c-0.1,0.2-0.2,0.4-0.3,0.6
	c-0.1,0.1-0.1,0.1-0.1,0.2c0,0.1-0.1,0.2-0.2,0.3c-0.1,0.1-0.1,0.1-0.1,0.2c-0.1,0.1-0.2,0.3-0.2,0.3c-0.1,0.1-0.2,0.4-0.3,0.6
	c-0.1,0.1-0.1,0.2-0.2,0.3c-0.1,0.1-0.1,0.3-0.2,0.4c0,0.1-0.2,0.2-0.4,0.4c-0.1,0.1-0.1,0.2-0.2,0.2l-0.1,0.2
	c-0.1,0.2-0.1,0.2-0.1,0.2c-0.1,0.1-0.1,0.2-0.1,0.2c-0.1,0.1-0.1,0.1-0.2,0.2c0,0.1-0.1,0.1-0.1,0.2c-0.1,0.1-0.1,0.2-0.2,0.3
	c-0.2,0.2-0.6,0.5-0.9,0.8c-0.1,0.1-0.3,0.4-0.4,0.4c-0.1,0.2-0.2,0.4-0.4,0.6c-0.1,0.1-0.1,0.1-0.2,0.2c-0.1,0.1-0.2,0.1-0.3,0.2
	c-0.2,0.1-0.3,0.3-0.4,0.4c0,0-0.2,0.3-0.3,0.4c-0.1,0.1-0.3,0.3-0.4,0.5c-0.1,0.1-1.9,1.5-1.9,1.5c-0.3,0-1,0.4-1.4,0.6
	c-0.5,0.3-1.1,0.4-1.8,0.4c-0.2,0-0.3,0.1-0.4,0.1c-0.1,0-0.1,0-0.2,0.1c-0.1,0-0.1,0.1-0.2,0.1c-0.1,0-0.3,0.1-0.4,0.1l-0.3,0
	c-0.1,0-0.3,0-0.4,0.1l-0.2,0.1c-0.1,0-0.2,0.1-0.4,0.1c-0.1,0-0.2,0.1-0.3,0.1c-0.1,0-0.3,0.1-0.4,0.1c-0.4,0.1-5-0.1-5.1-0.2
	c0,0-2.5-0.5-2.8-0.6c-0.2,0-0.7-0.1-0.7-0.1c-0.2,0-0.4,0-0.6-0.1c-0.1,0-0.3-0.1-0.3-0.1l-0.1,0l-0.2-0.1h-0.1
	c-0.7,0-0.7,0-1.1-0.1c-0.2-0.1-0.6-0.1-0.8-0.1c-0.2,0-0.5-0.1-0.7-0.1c-0.3-0.1-0.5-0.1-0.8-0.1c-0.2,0-0.4-0.1-0.6-0.2
	c-0.1-0.1-0.3-0.1-0.5-0.2c-1.2-0.1-2.8-0.3-3.4-0.8c-0.1-0.1-0.2-0.4-0.2-0.6C737.1,108.2,737.7,107.5,738.1,107.3z"/>
<path class="st0" d="M750.6,59.5c0.1-0.5,0.5-0.8,0.9-1c0.2-0.1,0.4-0.2,0.6-0.3c0.2-0.1,0.4-0.3,0.6-0.4c0,0,0.2-0.1,0.3-0.2
	c0.1-0.1,0.3-0.2,0.3-0.2c0.2-0.1,0.6-0.3,0.6-0.4c0.2-0.1,0.4-0.2,0.7-0.4c0.2-0.1,0.5-0.3,0.7-0.4l0.1-0.1l0.1,0l0.1-0.1l0.1,0
	l0.1-0.1l0.2-0.1l0.1-0.1l0.2-0.1c0.1-0.1,0.4-0.2,0.4-0.2c0.2-0.1,0.5-0.2,0.7-0.4c0.1-0.1,0.1-0.1,0.2-0.1l0.3-0.1
	c0.1-0.1,0.3-0.1,0.4-0.2c1-0.5,2-1,2.8-1.5c0.8-0.5,1.7-0.9,2.6-1.4c0.5-0.2,0.9-0.5,1.4-0.7c0.5-0.2,1-0.5,1.5-0.7
	c0.6-0.3,1.7-1,2.5-1.5c0.4-0.2,0.9-0.6,1.1-0.7c0.6-0.5,0.9-0.1,1.1,0.5c0.2,0.5-0.5,2.3-0.7,2.7c-0.4,0.6-3.3,2.1-4.4,2.7
	c-0.9,0.4-1.8,0.8-2.7,1.3l-0.2,0.1l-0.1,0c-0.1,0.1-0.3,0.1-0.4,0.2c-0.1,0-0.2,0.1-0.3,0.2c-0.1,0.1-0.3,0.2-0.3,0.2
	c-0.2,0.1-0.6,0.3-0.7,0.3l-0.1,0.1l-0.1,0l-0.1,0.1c-0.1,0.1-0.2,0.1-0.3,0.2c-0.2,0.1-0.5,0.3-0.6,0.3c-0.1,0-0.2,0.1-0.3,0.2
	c-0.1,0.1-0.2,0.1-0.4,0.2c-0.2,0.1-0.5,0.2-0.7,0.4c-0.2,0.1-0.5,0.3-0.7,0.4c-0.3,0.2-0.9,0.4-1.3,0.6c-0.3,0.1-0.9,0.4-1.3,0.7
	c-0.9,0.5-1.7,0.9-2.6,1.4l-0.2,0.1l-0.1,0.1c-0.1,0.1-0.4,0.2-0.4,0.2c-0.1,0.1-0.2,0.1-0.3,0.2c-0.1,0.1-0.4,0.2-0.4,0.2
	c-0.2,0.1-0.4,0.2-0.6,0.4c-0.2,0.1-0.4,0.3-0.6,0.3c-0.7,0.1-0.7-0.6-0.5-1.1l0-0.1l0.1-0.2l0-0.2l0.1-0.2l0-0.3l0-0.1
	C750.5,60.1,750.6,59.8,750.6,59.5z"/>
<path class="st0" d="M778.3,47.5c0.2,0,0.3,0,0.4,0.1c0.7,1.2,1,3.4,1.2,5c0.1,0.6,0.2,1.3,0.3,1.9l0,0.2l0,0.2l0,0.2l0,0.2l0,0.2
	l0,0.2l0,0.2l0,0.2c0,0.2,0.1,0.4,0.1,0.6c0,0.1,0.1,0.4,0.1,0.5l0.1,0.2c0,0,0.1,0.4,0.1,0.7c0.1,0.6,0.2,1.2,0.2,1.9
	c0,0.4,0,0.6,0.1,0.9c0,0.1,0.1,0.6,0.1,0.9l0.1,0.3l0.1,0.6c0,0.1,0,0.3,0.1,0.6c0,0.2,0,0.5,0.1,0.7c0.1,0.6,0.2,1.4,0.2,1.8
	c0.1,1.3,0.2,3.4,0.4,5.3c0.2,2.2,0.5,5.4,0.6,6.7l0,0.2l0,0.3l0,0.3c0,0,0,0,0.1,0.2c0,0.2,0,0.2,0.1,0.4c0,0.1,0,0.2,0.1,0.4
	c0.1,1.2,0.2,3,0.2,3.4c0,1.1,0.4,2.8,0.6,4.1c0.2,0.9,0.5,2,0.8,2.8c0.7,1.6,1.6,2.7,2.8,3.8c0.6,0.5,1.6,1.2,2.3,1.6
	c0.3,0.1,0.6,0.3,0.9,0.4l0.4,0.1c0.1,0,0.2,0,0.3,0.1c0.1,0,0.2,0,0.2,0.1c0.4,0.1,0.8,0.3,1.2,0.4c0.4,0.2,0.8,0.3,1.2,0.4
	c0.7,0.1,1.6,0.2,2.3,0.4c0.6,0.2,1.8,0.3,2.8,0.4c0.6,0.1,1.1,0.1,1.7,0c0.3,0,0.5-0.1,0.8,0c1.4,0.2,3,0.1,4.5-0.1
	c3.9-0.3,7.7-1,11.1-1.7c0.1,0,0.2-0.1,0.3-0.1l0.3-0.1l0.2-0.1l0.2-0.1l0.1,0l0.3-0.1l0.1,0l0.1-0.1l0.2-0.1l0.2-0.1
	c0.4-0.1,1.5-0.5,2.3-0.9c0.2-0.1,0.5-0.2,0.6-0.4c0.2-0.1,0.4-0.3,0.7-0.4c0.2-0.1,0.5-0.2,0.7-0.3c0.1,0,0.2-0.1,0.2-0.2
	c0.1-0.1,0.3-0.2,0.3-0.2c0.3-0.1,1.1-1.1,1.3-1.4c0.4-0.5,0.8-1.5,1.2-2.4c0.3-0.7,1-2.2,1.2-2.5c0.2-0.2,0.6-0.5,0.8-0.1
	c0.3,0.4-0.2,1.9-0.5,2.6c-0.1,0.2-0.6,2.2-0.5,2.4c0,0,0.5,0.2,0.6,0.2c0,0,0.5,0.2,0.8,0.3c0.5,0.2,1.1,0.3,1.6,0.4
	c0.4,0.1,0.6,0.1,1.1,0.1c0.6,0,0.8,0.1,1.3,0.1l0.2,0l0.1,0l0.1,0c0.1,0,0.3,0,0.3,0.1c0.2,0,0.6,0,0.8,0c0.3,0,0.3,0,0.7,0
	c0.1,0,0.5,0,0.5-0.1l0.1,0l0.1-0.1c0,0,0,0,0.1-0.1c0.1-0.1,0.2-0.2,0.2-0.3c0.1-0.3-0.2-2.6-0.3-3.7c0-0.2-0.1-0.5-0.1-0.6
	c0-0.1-0.1-0.7-0.1-0.9l0-0.4l0-0.2l0-0.3l0-0.4l0-0.2c0-0.3-0.1-0.8-0.1-0.9c0.1-0.3,0.2-0.6,0.2-0.9c0-0.2,0.2-0.6,0.3-0.9
	c0-0.1,0-0.1,0.1-0.2c0-0.1,0.1-0.2,0.1-0.2l0-0.1v-0.3l0-0.3c0.1-0.4,0.2-0.8,0.4-0.8l0-0.1c0,0-0.1,0-0.2,0c0,0,0.2-0.6,0.3-0.7
	c0.1-0.3,0.2-0.5,0.4-0.7c0.1-0.1,0.3-0.1,0.5-0.1c0.7,0.3,1,8,1,8.7c0,1.1-0.1,2.2-0.3,3.2c-0.5,2.2-1.1,4.5-2.1,6
	c-0.2,0.3-0.6,0.7-1,1c-0.4,0.3-0.9,0.3-1.8,0.3c-1.2,0-3.1-0.5-4.5-0.9c-0.6-0.2-1.3-0.6-1.8-0.9c-0.6-0.4-1.1-0.7-1.3-1.5
	c0-0.2-0.6,0.5-0.6,0.5c-0.1,0.1-0.4,0.5-0.6,0.8l-0.1,0.1c-0.1,0.1-0.2,0.3-0.3,0.4c0,0.1,0,0.1-0.3,0.3c-0.1,0.1-0.1,0.1-0.1,0.1
	c-0.1,0.1-0.2,0.2-0.2,0.2c-0.3,0.4-1.2,0.8-1.9,1.2c-0.4,0.2-0.7,0.4-1,0.6c-0.2,0.1-0.9,0.4-1.4,0.6c-0.3,0.1-0.8,0.3-1.3,0.4
	c-0.1,0-0.3,0.1-0.3,0.1c-0.2,0-0.3,0-0.3,0.1c-0.2,0.1-0.6,0.2-0.6,0.2c-0.3,0.2-0.8,0.3-1.2,0.4c-0.2,0.1-1.4,0.3-1.5,0.4
	c0,0-0.5,0.1-0.5,0.1c-0.4,0.1-0.8,0.1-1.2,0.2c-0.5,0.1-1.1,0.2-1.6,0.3c-0.6,0.1-1.3,0.2-2,0.3c-0.1,0-0.5,0-0.5,0l-0.2,0
	c-0.5,0-0.5,0-0.7,0c-0.4,0-1.1,0-1.4,0.1c-0.4,0.1-0.5,0.2-0.8,0.2c-0.4,0-1.4,0.1-1.9,0.1c-0.5,0-1.5,0-2.3-0.1
	c-0.2,0-0.5,0.1-0.8,0.3c-0.2,0.1-0.4,0-0.7-0.1c-0.2-0.1-0.5-0.1-0.7-0.1l-0.4,0l-0.3,0l-0.2,0c-0.7,0-1.6-0.2-2.4-0.3l-1.1-0.2
	l-0.2-0.1l-0.1,0c-0.2,0-0.6-0.1-0.7-0.1c-0.3-0.1-0.8-0.2-1.1-0.2c0,0-0.2,0-0.3,0.1c-0.2,0.1-0.4,0-0.5-0.1
	c-0.3-0.3-0.8-0.4-1.4-0.6c0,0-0.2-0.1-0.3-0.2c-0.1-0.1-0.2-0.1-0.3-0.1c-0.1,0-0.2-0.1-0.2-0.1c-0.1,0-0.2-0.1-0.2-0.1
	c-0.1-0.1-0.1-0.1-0.1-0.1c-0.2,0-0.4-0.1-0.6-0.2c0,0,0,0-0.2-0.1c-0.1-0.1-0.3-0.2-0.4-0.2c-0.3-0.1-0.6-0.2-0.6-0.3
	c-0.1-0.2-0.4-0.5-0.4-0.5c-0.3-0.3-0.6-0.5-1-0.7c-0.4-0.2-0.7-0.5-1-0.8c-0.1-0.1-1.8-2.6-1.8-2.6c-0.1-0.9-0.4-1.7-0.6-2.6
	l-0.4-1.1c-0.1-0.5-0.3-1-0.4-1.5c-0.1-0.5-0.1-1-0.1-1.6c0-0.7-0.1-1.8-0.1-2c-0.1-1-0.1-2.2-0.3-3.2c-0.1-0.7-0.2-1.5-0.3-2.2
	l0-0.4l0-0.2c0-0.2-0.1-0.5-0.1-0.5l0-0.4c0-0.7,0-0.7-0.1-0.9l0-0.3l0-0.4l0-0.2c-0.1-0.4-0.1-0.6-0.1-1c0-0.5-0.1-0.9-0.1-1.3
	c-0.1-0.8-0.2-2-0.3-2.4c0-1.4-0.3-4-0.5-6.1c-0.2-1.5-0.4-3-0.6-4.4c-0.1-0.3-0.1-0.6-0.1-0.9c0-0.3-0.1-0.7-0.2-1
	c0-0.1-0.1-0.6-0.2-0.9c0-0.2-0.1-0.4-0.1-0.5c0-0.2-0.1-0.4-0.1-0.5c-0.1-0.5-0.2-1.1-0.3-1.7c-0.1-0.5-0.2-1.1-0.3-1.6l0-0.1
	l0-0.1l-0.1-0.4c0-0.2-0.1-0.5-0.2-0.7c-0.1-0.2-0.1-0.4-0.2-0.6c-0.1-0.3-0.2-0.6-0.2-0.8c0-0.6,0.1-1.2,0.3-1.7
	c0.1-0.2,0.1-0.4,0.2-0.6c0-0.1,0.1-0.2,0.1-0.3c0-0.1,0-0.1,0.1-0.5c0-0.1,0-0.1,0.1-0.2C777.5,49,777.9,47.6,778.3,47.5z"/>
<path class="st0" d="M789.2,55.4c0.1-0.1,0.2-0.1,0.3-0.2l0.1,0l0.1-0.1l0.1-0.1L790,55l0.1,0l0.2-0.1l0.1,0l0.1-0.1l0.1-0.1
	c0.2-0.1,0.5-0.3,0.7-0.4c0.2-0.2,0.5-0.3,0.7-0.4c0.5-0.2,0.9-0.5,1.3-0.7c0.2-0.1,0.9-0.5,1.5-0.7c0.7-0.4,1.8-1,2.7-1.5
	c0.9-0.5,1.9-1,2.9-1.4c2-0.8,4.9-2.1,5.9-2.6c0.3-0.1,0.6-0.3,0.8-0.4c0.1,0,0.4-0.2,0.7-0.3l1.4-0.7c0.9-0.5,2.3-1.1,2.8-1.3
	c0.2-0.1,0.5,0,0.7,0.1c0.6,0.5-0.1,2.8-0.4,3.2c-0.1,0.1-0.3,0.3-0.5,0.4c-0.1,0-0.3,0.1-0.5,0.1c-0.1,0-0.3,0.1-0.4,0.1
	c-0.3,0.1-0.5,0.2-0.7,0.3c-0.1,0-0.3,0.1-0.4,0.2l-0.1,0l-0.1,0.1l-0.1,0.1l-0.1,0c-1,0.5-2.6,1.2-3.1,1.5c0,0-0.4,0.2-0.6,0.3
	c-0.3,0.1-0.5,0.2-0.8,0.3c-0.4,0.2-1.4,0.7-1.4,0.7c-0.1,0.1-0.4,0.2-0.7,0.4c-0.1,0.1-0.3,0.1-0.5,0.2c-0.2,0-0.3,0.1-0.5,0.2
	c-0.5,0.3-1,0.5-1.5,0.7c-0.5,0.2-1.3,0.5-1.6,0.7c-0.2,0.1-0.4,0.2-0.6,0.3c-0.3,0.1-0.5,0.2-0.7,0.4c-0.8,0.6-1.8,1.2-2.8,1.6
	c-1,0.4-1.9,0.9-2.8,1.5c-0.2,0.1-0.4,0.2-0.6,0.3c-0.2,0.1-0.5,0.3-0.8,0.4c-0.4,0.3-1.1,0.6-1.4,0.7c-1.1,0.4-0.4-1.5-0.3-1.8
	c0-0.1,0-0.4,0-0.6c0-0.1,0-0.3,0.1-0.6C788.8,56,789.1,55.5,789.2,55.4z"/>
<path class="st0" d="M812.8,108.2c0,0,0.1,0.1,0.2,0.2c0.1,0.1,0.1,0.1,0.2,0.2c0,0.1,0.1,0.2,0.2,0.2c0.1,0.1,0.3,0.3,0.3,0.3
	c0.2,0.2,0.6,0.9,0.6,0.9c0,0.2-0.3,1-0.4,1.3c-0.1,0.1-0.2,0.3-0.3,0.5l-0.1,0.1c-0.1,0.1-0.1,0.1-0.2,0.2
	c-0.1,0.1-0.1,0.1-0.1,0.2c-0.1,0.2-0.2,0.4-0.2,0.6c-0.1,0.2-0.2,0.4-0.3,0.5c-0.2,0.3-0.5,0.7-0.8,0.8c-0.2,0.1-1-0.4-1.3-0.6
	c-0.2-0.1-0.4-0.2-0.6-0.3l-0.1,0l-0.2-0.1c-0.1,0-0.4-0.2-0.4-0.2c-0.4-0.2-0.8-0.5-1.1-0.7c-0.2-0.2-0.8-0.6-1.1-0.8
	c-0.1-0.1-0.2-0.4-0.1-0.6c0-0.5,0.3-1.1,0.5-1.4c0.2-0.5,0.4-0.9,0.5-1.3c0-0.3,1-1.9,1.2-2.1c0.5-0.4,0.9-0.1,1.2,0.2
	c0.1,0.1,0.5,0.4,0.8,0.6c0,0,0.3,0.2,0.5,0.3c0.2,0.1,0.4,0.2,0.5,0.3C812.2,107.8,812.6,108.1,812.8,108.2z"/>
<path class="st0" d="M812.3,55.9c0-0.2,0.5-0.7,0.6-0.8c0.5-0.2,1-0.5,1.5-0.7c0.2-0.1,0.5-0.2,0.8-0.3c0.2-0.1,0.6-0.3,0.7-0.3
	c0.5-0.2,1.1-0.5,1.6-0.7l1.5-0.8c0.4-0.2,0.8-0.4,1.2-0.5c0.2-0.1,0.5-0.2,0.6-0.2c0.1,0,0.2-0.1,0.3-0.1c0.1-0.1,0.4-0.2,0.4-0.2
	c0.2-0.1,0.5-0.3,0.8-0.4l0.1-0.1l0.1,0l0.2-0.1l0.1,0l0.1-0.1l0.1-0.1l0.2-0.1l1.9-0.9l6.1-2.9c2-1,4.6-2.3,6.1-2.9
	c0.1,0,0.5,0,0.6,0.2c0.1,0.1,0.1,0.1,0.2,0.2c0.1,0.1,0.2,0.3,0.2,0.4c0.1,0.6-0.6,2.2-0.8,2.5c-0.3,0.4-0.9,0.5-1.3,0.7
	c-0.3,0.1-0.5,0.2-0.8,0.3c0,0-0.2,0.1-0.2,0.1C835,48,835,48,834.9,48c-0.1,0.1-0.3,0.1-0.5,0.2c-0.5,0.2-1.1,0.5-1.5,0.7
	c-0.5,0.3-1,0.5-1.6,0.8c-1.1,0.5-2.2,1-3.1,1.6c-0.5,0.3-1,0.5-1.5,0.7c-0.3,0.1-0.6,0.2-0.8,0.4c-0.3,0.1-0.5,0.3-0.8,0.4
	c-0.3,0.1-2,0.9-3.2,1.6l-0.1,0.1l-0.2,0.1l-0.1,0c-0.1,0-0.3,0.1-0.4,0.2c-0.1,0.1-0.3,0.1-0.4,0.2c-0.1,0.1-0.3,0.1-0.4,0.2
	c-0.2,0.1-0.5,0.3-0.7,0.4c-0.3,0.1-0.6,0.2-0.8,0.4c-0.5,0.2-1.3,0.7-1.4,0.8c-0.4,0.3-1,0.6-1.5,0.7c-0.1,0-0.3,0.1-0.4,0.2
	c-0.1,0.1-0.2,0.1-0.4,0.2c-0.1,0-0.2,0.1-0.3,0.2c0,0-0.4,0.2-0.5,0.2c-0.1,0.1-0.3,0.1-0.4,0.2c-0.1,0-0.1,0-0.2,0.1
	c-0.1,0-0.1,0.1-0.2,0.1c-0.1,0-0.1,0-0.2,0.1l-0.1,0.1c-0.1,0.1-0.3,0.2-0.4,0.2c-0.8,0.1-0.8-0.7-0.6-1.2c0-0.1,0.1-0.2,0.1-0.3
	l0-0.1l0.1-0.1l0-0.3l0-0.2C812.2,56.3,812.2,56.1,812.3,55.9z"/>
<path class="st0" d="M824,63.6c0.1-0.1,0.3-0.2,0.5-0.2c0.2,0,0.4,0.1,0.6,0.2c0.3,0.2,0.6,0.3,0.7,0.4c0.1,0,0.1,0.1,0.1,0.1
	c0,0,0.1,0,0.1,0c0.1,0,0.6,0.2,0.8,0.3c0.3,0.2,1.1,0.5,1.1,0.6c0.4,0.3,0.8,0.5,1.3,0.7c0.2,0.1,1.2,0.1,1.5,0.1
	c0.1,0,0.2-0.3,0.3-0.4c0-0.1,0.2-0.3,0.3-0.5c0.1-0.1,0.2-0.2,0.2-0.5c0.1-0.3,0.1-0.3,0.1-0.4c0-0.1,0.1-0.2,0.2-0.3
	c0.3-0.5,0.9-1.6,1.2-1.7c0.2-0.1,0.3-0.2,0.5-0.2c0.1,0,0.4,0.2,0.5,0.3c0.2,0.1,0.4,0.3,0.7,0.4c0.2,0.1,0.9,0.5,1.5,0.8
	c0.4,0.2,2.3,1.6,1.9,2.1c0,0.1-0.1,0.2-0.1,0.2l-0.1,0.3c-0.1,0.2-0.2,0.5-0.3,0.6c-0.1,0.2-0.2,0.3-0.4,0.5
	c-0.1,0.2-0.3,0.3-0.4,0.5c-0.2,0.4-1.2,2.2-1.7,1.8c-0.3-0.2-0.7-0.4-1.1-0.6c-0.1,0-0.4-0.1-0.6-0.2l-0.3-0.1
	c-0.1,0-0.3-0.1-0.3-0.1l-0.1,0l-0.1,0l-0.1,0l-0.1-0.1l-0.2-0.1c-0.1-0.1-0.2-0.1-0.3-0.1c-0.1-0.1-0.2-0.1-0.3-0.2
	c0,0-0.4-0.2-0.6-0.3c-0.1-0.1-0.6-0.3-0.6-0.2c-0.1,0.2-0.3,0.4-0.4,0.6c-0.1,0.1-0.1,0.2-0.2,0.3c0,0.2-0.1,0.3-0.2,0.4l0,0.1
	l-0.2,0.2l-0.1,0.1c-0.1,0.1-0.1,0.1-0.1,0.1c-0.1,0.1-0.2,0.2-0.3,0.4l-0.1,0.1c-0.2,0.3-1.8,1.4-2.3,1.3c0,0-2.1-1.1-2.4-1.3
	c-0.2-0.1-0.8-0.3-1.3-0.5c-0.2-0.1-1.3-0.6-1-0.6l-0.2,0c-0.1,0,0-0.3,0-0.3l0-0.1c0-0.1,0-0.1,0.1-0.2c0,0,0.1-0.2,0.1-0.3
	l0.1-0.1l0-0.1l0.1-0.2c0.1-0.2,0.2-0.5,0.3-0.7c0.1-0.2,0.2-0.4,0.3-0.6C822.7,65.4,823.6,63.7,824,63.6z"/>
<path class="st0" d="M596.8,60.6l0.2-0.2l0-0.1c0-0.1,0-0.1,0.3-0.3c0,0,0,0,0.2-0.3c0.1-0.1,0.1-0.1,0.2-0.2c0.2-0.1,0.4,0,0.6,0.1
	c0.2,0.1,0.4,0.2,0.6,0.3c0.4,0.1,0.7,0.3,1,0.4c0.1,0,0.1,0,0.2,0.1l0.1,0.1l0.1,0l0.1,0l0.1,0.1l0.1,0.1l0.1,0.1
	c0.1,0.1,0.2,0.1,0.3,0.1c0.1,0.1,0.4,0.2,0.6,0.3c0.1,0,0.2,0.1,0.2,0.2c0,0.1,0.1,0.2,0.2,0.1c0.2-0.1,1.3-2,1.4-2.3
	c0.2-0.5,1.2-1.6,1.7-1.9c0.1-0.1,0.6,0,0.5,0c0,0,0.4,0.3,0.4,0.3c0.1,0.1,0.3,0.2,0.5,0.3c0.2,0.1,0.3,0.2,0.5,0.3
	c0.1,0,0.2,0.1,0.3,0.1c0.1,0.1,0.1,0.1,0.2,0.1c0.5,0.3,1.6,1,1.9,1.3c0.3,0.3,0.6,1,0.4,1.5c-0.2,0.5-0.8,1.1-1.3,1.6
	c-0.1,0.1-0.4,0.5-0.7,0.8c-0.2,0.3-0.4,0.6-0.7,0.8c-0.2,0.1-0.3,0.2-0.5,0.1c-0.2,0-1.1-0.4-1.3-0.5c-0.2-0.1-0.7-0.4-1-0.7
	l-1-0.6c-0.2-0.1-1.1-0.7-1.2-0.6c0,0-1.3,1.7-1.3,1.7c-0.2,0.4-0.4,0.7-0.7,1c-0.1,0.1-0.2,0.2-0.3,0.4c-0.1,0.1-0.3,0.3-0.4,0.4
	c-0.1,0.2-0.4,0.2-0.7,0.2c-0.1,0-0.6-0.3-0.7-0.5c-0.1,0-0.2-0.1-0.3-0.2l-0.1-0.1l-0.1-0.1l-0.1-0.1l-0.1-0.1l-0.1-0.1
	c-0.6-0.3-1.2-0.6-1.8-0.9C594.5,64.2,596.7,60.7,596.8,60.6z"/>
<path class="st0" d="M590.9,46.2c0.1-0.4,0.3-0.7,0.5-0.9c0,0,0.3-0.2,0.5-0.3l0.6-0.3c0.2-0.1,0.4-0.2,0.6-0.3
	c0.2-0.1,0.4-0.2,0.7-0.3c0.4-0.2,0.9-0.4,1.2-0.5c0.4-0.2,1-0.5,1.3-0.6c0.2-0.1,0.8-0.4,1.1-0.6c0.4-0.2,0.8-0.4,1.2-0.6
	c0.8-0.4,1.7-0.8,2.5-1.1c0.4-0.2,0.9-0.4,1.3-0.6c0,0,0.2-0.1,0.2-0.1c0.1,0,0.2-0.1,0.3-0.1l0.1,0l0.1-0.1l0.1-0.1l0.1,0l0.1,0
	l0.2-0.1c0.4-0.2,0.8-0.4,1.3-0.6c0.4-0.2,0.9-0.4,1.3-0.6c0.1-0.1,0.2-0.1,0.3-0.2l0.2-0.1l0.1-0.1l0.6-0.3l0.1-0.1l0.1-0.1
	l0.1-0.1c0.1-0.1,0.3-0.2,0.3-0.2c0.2-0.1,0.2-0.1,0.3-0.1l0.1-0.1l0.2-0.1c0.1,0,0.2-0.1,0.3-0.1c0,0,0.2-0.1,0.3-0.1
	c0.2-0.1,0.5-0.2,0.7-0.3c0.2-0.1,0.4-0.2,0.5-0.3c0.2-0.2,0.4-0.3,0.7-0.2c0.1,0,0.4,0.3,0.4,0.4c0.1,0.5-0.3,2.6-0.5,3
	c-0.2,0.3-0.5,0.7-0.8,0.9c-0.1,0.1-0.3,0.1-0.5,0.1c-0.1,0-0.2,0-0.3,0.1c-0.3,0.1-0.5,0.2-0.7,0.3c-0.1,0.1-0.4,0.1-0.6,0.2
	c-0.2,0-0.5,0.2-0.7,0.3c-0.1,0-0.2,0.1-0.3,0.2c-0.1,0.1-0.2,0.1-0.3,0.1c-0.1,0-0.2,0.1-0.3,0.1c-0.1,0.1-0.1,0.1-0.2,0.1
	c-0.1,0-0.1,0.1-0.2,0.1c-0.1,0-0.3,0.2-0.5,0.4c-0.2,0.1-0.3,0.2-0.6,0.3c-0.9,0.2-1.8,0.6-2.6,1c-0.8,0.4-1.7,0.9-2.6,1.2
	c-0.3,0.1-1.5,0.6-2.4,1l-0.2,0.1l-0.1,0l-0.2,0.1l-0.1,0l-0.1,0.1c-0.1,0.1-0.1,0.1-0.2,0.1c0,0-0.3,0.1-0.4,0.2
	c-0.3,0.1-0.5,0.2-0.7,0.4c-0.2,0.1-0.4,0.2-0.6,0.3c-0.7,0.3-1.7,0.8-2.2,1.2c-0.3,0.3-0.8,0.6-0.9,0.7c-0.4,0.2-1,0.3-1.1-0.3
	c-0.1-0.4-0.1-1.1,0.1-1.3c0.1-0.1,0.2-0.2,0.2-0.4l0-0.1l0-0.2C590.8,46.5,590.8,46.3,590.9,46.2z"/>
<path class="st0" d="M597.8,104.4c0.1,0.7-0.7,1.6-1.1,2c0,0.1-0.4,0.4-0.6,0.6l-0.1,0.1l-0.1,0.1c0,0-0.2,0.2-0.3,0.3l0,0.1
	c0,0-0.1,0.1-0.2,0.2c0,0-0.2,0.2-0.2,0.2c-0.1,0.1-0.6,0.3-0.8,0.3c-0.2,0-0.5-0.2-0.7-0.2h-0.4l-0.2-0.1c-0.1,0-0.3-0.1-0.4-0.1
	c-0.1,0-1.2-0.8-1.7-1.1c-0.2-0.2-0.8-0.5-0.8-0.6c-0.4-0.2-0.8-0.4-0.9-0.6c-0.1-0.2-0.1-0.5,0-0.7c0.2-0.4,0.4-0.9,0.7-1.2
	c0.1-0.1,0.2-0.2,0.2-0.2c0,0,0,0,0.1-0.1l0.1-0.1c0,0,0.1-0.2,0.1-0.3c0-0.1,0.1-0.3,0.1-0.4c0.2-0.3,0.5-0.7,0.7-1
	c0.1-0.2,0.3-0.3,0.4-0.5c0.1-0.1,0.2-0.2,0.2-0.2c0.1-0.1,0.2-0.2,0.3-0.2c0.1-0.1,0.5-0.1,0.6,0
	C594,101.3,597.7,104.2,597.8,104.4z"/>
<path class="st0" d="M575.2,63.3c0,0,0.1-0.1,0.1-0.2c0-0.1,0.1-0.2,0.2-0.3c0.1-0.1,0.2-0.3,0.3-0.3c0.2-0.1,0.3-0.1,0.5,0
	c0.4,0.1,1.4,2.1,1.8,2.7c0.4,0.7,1.5,2.7,1.6,2.7c0.1,0.1,1.4,3,1.4,3.3c0,0.1,0.2,0.6,0.3,1l0.1,0.3c0,0,0.1,0.2,0.1,0.3
	c0,0.2,0.2,0.6,0.2,0.9c0,0.2,0.1,0.3,0.1,0.4c0.1,0.2,0.2,0.5,0.2,0.5c0.1,0.9,0.3,2.5,0.2,3c-0.1,0.7-0.1,2-0.2,3.1
	c0,0.9-0.2,3.3-0.2,3.3c-0.1,0.4-0.2,0.6-0.3,0.9c0,0-0.2,0.3-0.3,0.4c-0.1,0.1-0.1,0.1-0.1,0.1c-0.1,0-0.5,0-0.5-0.1l0-0.1l0-1.6
	v-0.3c0,0,0-0.7,0-0.8c0-0.1,0-0.6-0.1-0.8c0-0.3,0-0.7,0-1c0-0.1,0-0.4-0.1-0.5c0-0.2-0.1-0.5-0.1-0.7c0-0.7-0.3-1.4-0.4-2
	c0-0.1-0.1-0.3-0.1-0.4c0-0.3-0.1-0.7-0.1-0.8c-0.1-0.2-0.2-0.7-0.3-1c0-0.1-0.1-0.2-0.1-0.3c-0.1-0.1-0.1-0.2-0.1-0.4
	c0-0.1-0.1-0.2-0.1-0.3c-0.2-0.2-0.4-0.8-0.6-1.1c-0.2-0.4-0.4-0.8-0.6-1.2c-0.1-0.2-0.2-0.5-0.3-0.7c0-0.2-0.2-0.5-0.3-0.6
	c-0.4-0.7-0.8-1.5-1.2-2.2c-0.2-0.4-0.4-0.8-0.6-1.1c-0.1-0.2-0.2-0.3-0.3-0.4c-0.1-0.2-0.2-0.3-0.3-0.5c-0.1-0.3,0.1-1.2,0.3-1.4
	c0.1-0.1,0.1-0.2,0.1-0.4C575.1,63.7,575.2,63.5,575.2,63.3z"/>
<path class="st0" d="M568.5,45.7c0.1-0.4,0.3-0.7,0.5-0.9c0,0,0.3-0.1,0.5-0.2c0.2-0.1,0.4-0.2,0.7-0.3c0.2-0.1,0.9-0.4,1.3-0.5
	c0.2-0.1,0.9-0.4,1.3-0.7c0.4-0.2,0.9-0.4,1.4-0.5c1-0.3,1.8-0.7,2.7-1.2c0.2-0.1,0.4-0.2,0.6-0.3c0.2-0.1,0.5-0.2,0.7-0.3
	c0.2-0.1,0.4-0.2,0.7-0.2c0.2-0.1,0.4-0.2,0.6-0.2c0,0,0.3-0.1,0.5-0.2c0.2-0.1,0.5-0.2,0.7-0.3c0.1,0,0.2-0.1,0.3-0.1
	c0.1,0,0.2-0.1,0.2-0.1c0.2-0.1,0.5-0.2,0.7-0.3c0.7-0.3,2.7-1.2,2.7-1.2c0.4-0.2,0.8-0.4,1.3-0.6c0.1-0.1,0.8-0.4,1.3-0.6
	c0.1,0,0.3-0.2,0.5-0.3c0.2-0.1,0.4-0.2,0.6-0.3c0.2-0.1,0.4-0.2,0.7-0.4l0.2-0.2c0.1-0.1,0.2-0.1,0.3-0.2c0.4-0.1,0.7,0.2,0.8,0.5
	c0.1,0.6-0.6,2.9-0.9,3.2c-0.1,0.1-0.4,0.2-0.7,0.3c-0.1,0-0.4,0.2-0.7,0.3c-0.4,0.2-0.8,0.4-1.2,0.6c-0.5,0.3-1.5,0.7-2.3,1.1
	c-0.2,0.1-0.3,0.1-0.5,0.2c-0.3,0.1-0.5,0.2-0.7,0.3c-0.2,0.1-0.4,0.2-0.7,0.3c-0.2,0.1-0.6,0.2-0.7,0.3c-0.7,0.5-1.7,0.9-2.6,1.1
	l-0.1,0c-0.2,0.1-0.2,0.1-0.2,0.1l-0.1,0l-0.1,0l-0.1,0c-0.1,0-0.2,0.1-0.3,0.1c0,0-0.2,0.1-0.3,0.1c-0.1,0-0.2,0.1-0.3,0.1
	c-0.1,0-0.2,0.1-0.3,0.1c-0.2,0.1-0.5,0.2-0.7,0.3c-0.1,0-0.2,0.1-0.3,0.1c-0.1,0.1-0.2,0.1-0.3,0.2c0,0-0.5,0.2-0.7,0.3l-1.4,0.6
	c-0.8,0.3-2.2,1-2.5,1.2l-0.2,0.2l-0.3,0.3l-0.1,0.1c-0.2,0.2-0.4,0.3-0.7,0.5c-0.5,0.3-1.2,0.6-1.8,0.1c-0.1-0.1-0.1-0.8-0.1-1.1
	c0-0.2,0.1-0.3,0.2-0.4c0.1-0.1,0.1-0.3,0.1-0.5C568.5,46.2,568.5,46,568.5,45.7z"/>
<path class="st0" d="M549.1,66.3c0.2-0.3,0.3-0.6,0.6-0.8c0.2-0.1,1.2-0.7,1.9-1.1c0.6-0.4,1.4-0.7,2.1-1c0.4-0.1,0.7-0.3,1.1-0.5
	c0.2-0.1,0.4-0.2,0.5-0.3c0.2-0.1,0.4-0.2,0.5-0.3c0.7-0.4,1.5-0.7,2.2-1c1.5-0.6,3-1.3,4.4-2.1c0.7-0.4,1.5-0.7,2.2-1
	c0.6-0.3,1.7-0.7,2.1-1.1c0.2-0.2,1.3-1,1.4-1c0.3-0.1,0.5,0,0.6,0.1c0.5,0.3-0.2,2.7-0.4,3.2c-0.1,0.2-1.4,0.9-2,1.3
	c-0.2,0.1-0.4,0.2-0.5,0.3c-0.1,0.1-0.3,0.2-0.5,0.3c-0.1,0.1-0.2,0.1-0.4,0.2l-0.1,0.1l-0.1,0.1l-0.1,0.1c-0.1,0-0.2,0.1-0.3,0.1
	c-0.1,0-0.2,0.1-0.3,0.2c-0.3,0.2-1.5,0.7-2.3,1c-0.4,0.2-0.9,0.4-1.1,0.6c-0.3,0.2-0.7,0.4-1.1,0.6l-4.5,2
	c-0.8,0.3-1.4,0.7-2.1,1.1c-0.2,0.1-0.3,0.2-0.5,0.2c0,0-0.4,0.2-0.6,0.3c-0.4,0.2-0.8,0.4-1.1,0.6c0,0-0.2,0.2-0.2,0.2
	c0,0-0.2,0.2-0.2,0.2c-0.1,0.2-0.3,0.3-0.4,0.4c-0.2,0.2-0.7,0.6-1,0.5c-0.5-0.1-0.4-1-0.3-1.5c0-0.1,0.1-0.1,0.1-0.2
	c0.1-0.1,0.1-0.2,0.1-0.5C549,67.1,549,66.7,549.1,66.3z"/>
<path class="st0" d="M529.9,108.4c0.4-0.1,1.1,0.2,1.5,0.4c0.2,0.1,0.4,0.2,0.5,0.3c0.1,0.1,0.2,0.1,0.4,0.1c0.2,0,0.4,0,0.6,0.1
	c0.7,0.4,1.7,0.8,2.8,0.9c0.7,0,2.3,0.1,2.4,0.1c0,0,0.2,0.1,0.3,0.1l0.1,0l0.1,0c0.7,0.2,1.5,0.3,2.3,0.2c0.7-0.1,1.6-0.2,2.1-0.3
	c0.8-0.1,1.7-0.2,2.2-0.3c0.3-0.1,0.7-0.2,1-0.3c0.3-0.1,0.6-0.2,0.9-0.3c0.3-0.1,0.6-0.2,0.9-0.3c0.3-0.1,0.7-0.3,1-0.3
	c0.2,0,0.7-0.3,1-0.4c0.4-0.2,0.8-0.4,1.1-0.5c0.6-0.3,1.5-0.6,1.7-1c0-0.1,0-0.1,0-0.1c-0.1-0.1-0.1-0.1-0.1-0.3
	c0-0.1,0.3-0.1,0.4,0c0,0.1,0.1,0.1,0.1,0.1c0.5-0.4,1-0.9,1.5-1.2c0.3-0.2,0.6-0.4,1-0.8c0.1-0.1,0.1-0.1,0.2-0.2
	c0.1,0,0.2-0.1,0.3-0.2c0.1-0.1,0.1-0.1,0.1-0.1c0.1-0.1,0.4-0.3,0.5-0.5l0.1-0.1l0.1-0.1c0.1-0.1,0.1-0.1,0.1-0.1
	c0.1-0.1,0.2-0.2,0.2-0.2c0.1-0.1,0.3-0.3,0.3-0.3c0,0,0.1-0.1,0.2-0.2l0.1-0.1l0.1-0.1c0.5-0.5,1.3-1.4,1.6-1.9
	c0.2-0.5,0.5-0.9,0.7-1.4c0.2-0.5,0.4-0.9,0.7-1.3c0.2-0.3,0.4-0.9,0.6-1.3c0.1-0.2,0.1-0.4,0.2-0.6c0-0.1,0-0.2,0.1-0.3
	c0-0.1,0-0.9-0.1-0.8c0,0.1-0.6-0.4-0.7-0.4c-0.2-0.2-0.6-0.5-0.6-0.5c-0.1-0.2-0.4-0.4-0.6-0.6l-0.2-0.2c-0.1-0.1-0.1-0.1-0.1-0.1
	c0-0.1-0.1-0.4-0.1-0.4c0,0-0.2-0.2-0.2-0.3c-0.1-0.1-0.1-0.2-0.2-0.3c0-0.1,0-0.1,0-0.2l0-0.1l0-0.2l-0.1-0.3l0-0.1l-0.1-0.1
	c-0.1-0.2-0.1-0.4-0.1-0.6c0-0.3,0-0.7-0.1-0.9c-0.1-0.6-0.2-1.3-0.2-2c0-0.5,0.3-1.8,0.5-2.1c0.1-0.2,0.4-0.5,0.6-0.6
	c0.2,0,0.4,0,0.5,0.1c0.3,0.3,0.5,0.6,0.8,0.9c0.3,0.3,0.5,0.6,0.8,0.9c0.3,0.3,0.5,0.6,0.8,1c0.1,0.2,0.3,0.3,0.4,0.5
	c0.1,0.1,0.1,0.1,0.2,0.2l0.1,0.1c0.1,0.1,0.2,0.2,0.2,0.2c0.4,0.6,3.2,1.9,4.1,2.2c1.1,0.3,3.1,0.9,3.6,1c2.1,0.3,4.7,0.6,6.3,0.6
	c1.2,0,2.6-0.1,3.7-0.3c0.1,0,0.1,0,0.7-0.1c0.1,0,0.4,0,0.5-0.1l0.1,0l0.2,0c0.1,0,0.3-0.1,0.5-0.1c0.4-0.1,0.9-0.1,1.3-0.2
	c0.6-0.2,1.5-0.3,2.2-0.5c0.6-0.1,1.3-0.3,1.9-0.5c1-0.3,3.6-1.2,3.6-1.2c1-0.4,2-1,2.8-1.6c0.7-0.6,1.5-1.3,1.9-2.1
	c0.3-0.7,0.7-1.6,0.8-2.4c0.1-0.7,0.8-2.3,1.3-2.5c0.1,0,0.6-0.1,0.6,0.1l0.1,0.1c0.1,0.1,0.1,0.2,0.2,0.4c0.2,0.7-0.4,2.5-0.6,3.4
	c0,0.1-0.1,0.4-0.2,0.6c0,0.1-0.1,0.3-0.1,0.4c0,0.1-0.1,0.2-0.1,0.4c0,0-0.5,1.5-0.3,1.3l0.2,0.1l0.2,0.1c0.3,0.1,0.5,0.1,0.8,0.1
	l0.2,0l0.2,0l0.3,0.1c0.4,0,0.8,0,1,0.1c0.3,0.1,0.7,0.2,0.9,0.4c0.2,0.1,0.6,0.2,0.9,0.3c0.2,0,3.1,0.2,4.1,0.3
	c0.6,0,1.9,0.1,2.2-0.1c0.1-0.1,0.4-1.2,0.3-1.4c0-0.1-0.1-0.3-0.1-0.4c0-0.1-0.1-0.2-0.1-0.4l0-0.3c0-0.3,0-0.3,0-0.4
	c-0.1-0.2-0.1-0.5-0.2-0.6c0-0.1-0.1-0.3-0.1-0.4c0-0.1-0.1-0.2-0.1-0.3c0-0.1-0.1-0.3-0.1-0.4c0-0.2,0-0.3-0.1-0.4
	c0-0.1-0.1-0.2-0.1-0.3c0-0.1-0.1-0.2-0.1-0.3c-0.1-0.3-0.1-0.5-0.2-0.7c-0.1-0.2-0.2-0.5-0.2-0.7c0.1-0.7,0.1-1.3,0.3-1.9l0-0.2
	c0,0,0-0.2,0.1-0.5c0-0.1,0-0.3,0.1-0.3l0.1-0.2l0-0.2c0,0,0.1-0.2,0.1-0.2c0.1-0.1,0.1-0.1,0.1-0.2c0.1-0.4,0.8-1.7,1.2-1.6
	c0.2,0,0.4,0.1,0.5,0.3l0.1,0.1c0.1,0.1,0.1,0.1,0.2,0.4l0,0.1l0,0.1l0.1,0.1c0,0.1,0.1,0.2,0.1,0.3c0.1,0.2,0.1,0.5,0.2,0.7
	c0,0.3,0.1,0.6,0.2,0.9c0.1,0.3,0.2,1.1,0.3,1.6c0,0.2,0.1,0.9,0.2,1.4l0,0.2l0,0.7l0,0.3c0,0.1,0,0.7,0,0.8c0,0.2,0,0.7,0,0.7
	l0,0.1c0,0.1,0,0.1-0.1,0.2c0,0.1-0.1,0.2-0.1,0.3l-0.4,0.6c0,0.1-0.4,1.6-0.4,2.1c-0.1,0.5-0.3,1.1-0.5,1.6c0,0-0.1,0.3-0.1,0.4
	c0,0.2-0.1,0.3-0.1,0.5c-0.1,0.2-0.2,0.5-0.3,0.7c0,0.1-0.3,0.6-0.5,0.9c-0.1,0.1-0.2,0.3-0.2,0.4c0,0.1-0.2,0.3-0.3,0.4
	c-0.2,0.4-1.2,0.8-1.8,0.8c-0.2,0-0.5-0.2-0.7-0.3c-0.1-0.1-0.3-0.2-0.3-0.2c-0.1-0.1-0.2-0.1-0.3-0.2c-0.1,0-0.7,0-0.7,0
	c-0.3,0-0.3,0-0.4,0c-0.3,0-0.5,0-0.7-0.1c-0.3-0.1-0.7-0.3-0.9-0.4c-0.4-0.2-0.8-0.4-1-0.4c-0.5,0-1.4-0.4-2-0.6
	c-0.1,0-0.5-0.3-0.8-0.4c-0.1-0.1-0.3-0.1-0.4-0.1l-0.2,0l-0.2,0c-0.1,0-0.3,0-0.4-0.1c-0.3-0.1-0.6-0.2-0.8-0.3
	c-0.1-0.1-0.2-0.1-0.4-0.2c-0.1,0-0.3-0.2-0.3-0.2c-0.2,0.2-1.6,1.6-1.9,1.7c-0.5,0.2-1.6,0.9-1.7,1c-0.4,0.3-1.4,1.1-1.5,1.1
	c-0.7,0.2-2,0.6-2.4,0.8c-0.3,0.2-0.7,0.3-1.1,0.4c-0.5,0.1-1.1,0.2-1.5,0.4c-0.1,0-0.2,0.1-0.3,0.1c-0.1,0-0.3,0.1-0.4,0.1
	c-0.1,0-0.4,0.2-0.6,0.3c-0.1,0-0.2,0.1-0.5,0.1l-0.1,0l-0.1,0l-0.1,0l-0.2,0h-0.3h-0.2c-0.2,0-0.4,0-0.5,0.1
	c-0.1,0-0.4,0.1-0.6,0.1c-0.2,0-0.3,0-0.5,0.1c-0.3,0.1-0.5,0.1-0.7,0.2c-0.2,0.1-1,0.4-1.1,0.4c-0.6-0.1-1.3-0.1-1.8,0l-0.3,0.1
	l-0.2,0l-0.1,0l-0.3,0.1H577l-0.2,0h-0.5c0,0-0.2,0.1-0.3,0.1c-0.2,0.1-1.3,0.2-1.5,0.1c-0.1,0-0.2-0.1-0.3-0.1
	c-0.2,0-0.4,0-0.7-0.1c0,0-0.3-0.1-0.4-0.1c-0.1,0-0.1,0-0.4,0c-0.4,0-0.5,0-0.7-0.1c-0.5-0.2-1.3-0.2-1.8-0.2c-0.3,0-1.2,0-1.4-0.1
	c-0.2-0.1-1.8-0.5-2.6-0.7c-0.1,0-0.3-0.1-0.4-0.1c-0.3,0-0.5-0.1-0.7-0.2c-0.2-0.1-0.9-0.3-1-0.2c-0.2,0.3-0.4,1.2-0.5,1.6
	c-0.1,0.6-0.3,1.3-0.5,1.8c0,0.1-0.1,0.2-0.1,0.3c0,0.1-0.1,0.3-0.2,0.4c-0.1,0.1-0.1,0.2-0.2,0.4l-0.1,0.2c0,0.1-0.1,0.2-0.1,0.4
	c0,0-0.1,0.3-0.1,0.4c0,0.1,0,0.1-0.1,0.3c0,0.1-0.1,0.2-0.1,0.3c-0.1,0.3-0.3,0.8-0.3,0.9c-0.6,1.2-2.1,4-2.2,4.1
	c-0.3,0.3-0.9,1-1,1.1c-0.3,0.5-0.6,0.8-1,1.2c-0.4,0.4-1.6,1.3-2.4,1.9c-0.1,0-0.6,0.3-0.8,0.3c-0.3,0.1-0.7,0.3-0.9,0.4
	c-0.2,0.1-0.5,0.3-0.8,0.5l-0.2,0.1c-0.1,0.1-0.2,0.2-0.4,0.2c-1.1,0.5-2.5,0.9-3.7,1.2c-0.1,0-1.2,0.1-1.8,0.2
	c-0.5,0-1,0.1-1.5,0.1c-1.8-0.1-3.6-0.4-5.3-0.7c-0.6-0.1-1.7-0.3-1.9-0.4c-0.5-0.2-1.1-0.3-1.7-0.4c-0.9-0.2-3-0.6-3.2-0.7
	c-0.4-0.2-0.9-0.3-1.3-0.5c-0.1-0.1-0.2-0.1-0.3-0.2c-0.1-0.1-0.1-0.1-0.2-0.2c-0.5-0.1-0.8-0.1-1-0.2c-0.3-0.1-0.8-0.5-1.2-0.8
	C528.6,109.5,529.5,108.4,529.9,108.4z"/>
<path class="st0" d="M516,79.4L516,79.4c0.1-0.2,0.2-0.2,0.3-0.3c0.2-0.1,0.3-0.3,0.5-0.3c0.2-0.1,1,0.2,1.3,0.3
	c0.4,0.1,0.8,0.2,1.3,0.3c0.2,0,0.6,0,0.8-0.1c0.3,0,0.8,0,1.1,0c0.1,0,0.7,0,1.1-0.1c0.6-0.1,1.3-0.3,1.9-0.5l0.1,0l0.2-0.1l0.1,0
	l0.1,0l0.2,0l0.2-0.1c0,0,0,0,0.4-0.1c0.1,0,0.1,0,0.2-0.1c0.1,0,0.2,0,0.2-0.1c0.8-0.4,3.1-1.9,3.3-2.8c0,0-0.7-0.3-0.8-0.3
	c-0.1,0-0.3-0.1-0.4-0.1c-0.1-0.1-0.3-0.1-0.5-0.1h-0.2l-0.3,0l-0.3,0c-0.6,0-1.3,0-1.8-0.1c-0.4-0.1-1-0.2-1.3-0.3
	c-0.3-0.1-0.6-0.5-1-0.8c-0.1-0.1-0.3-0.8-0.5-1.3c-0.2-0.7,0.6-4.1,0.8-4.7c0.4-1.2,1-2.3,1.5-3.4c0.3-0.7,1-1.7,1.6-2.5
	c0.4-0.6,1.8-1.7,2.5-1.9c0.1,0,0.4,0.1,0.7,0.2c0.3,0.1,1.1,1.1,1.2,1.3c0.3,0.6-0.2,1.8-0.4,2.3c-0.1,0.3-0.5,1.3-0.8,2
	c-0.1,0.2-0.4,0.5-0.6,0.6c-0.1,0-0.5,0-0.5,0c0,0-0.3-0.5-0.4-0.6c-0.1-0.2-0.3-0.4-0.4-0.5c-0.1-0.1-0.6-0.1-0.7,0l-0.1,0.1
	l-0.2,0.2l-0.2,0.2c-0.1,0.1-0.1,0.1-0.2,0.2l-0.1,0.2l-0.1,0.1c-0.3,0.1-1.2,2.4-1,2.9c0.1,0.2,0.4,0.4,0.6,0.5
	c0.2,0.1,1,0.3,1.3,0.3l0.8,0c0.2,0,0.6,0,0.8,0c0.3,0,0.8-0.1,0.9-0.1c0.1,0,0.6,0,0.6,0.1l0.1,0l0.1,0.1c0.1,0,0.2,0.1,0.3,0.2
	c0.1,0.1,0.3,0.3,0.4,0.4c0.3,0.3,0.6,0.6,0.7,1c0.1,0.4,0.3,0.9,0.3,1.4c0,0.1-0.2,0.9-0.3,1.4c0,0.2-0.1,0.3,0,0.5
	c0.1,0.2,0.1,0.4,0,0.6c0,0.2-0.2,0.6-0.4,0.9c-0.1,0.1-0.2,0.3-0.3,0.4c-0.1,0.2-0.2,0.3-0.2,0.6c-0.2,1.2-1.3,2.1-2.1,2.7
	c-1,0.7-2.1,1.5-3.1,1.9c-1.5,0.5-5.6,0.6-7.2,0.1c-0.9-0.3-1.9-0.6-2.4-1.2C515.5,80.3,515.9,79.6,516,79.4z"/>
<path class="st0" d="M510.3,48.8c0.2-0.3,0.4-0.7,0.6-0.9c0,0,0.2-0.1,0.2-0.1c0.3-0.1,0.3-0.1,0.3-0.1c0.1-0.1,0.1-0.1,0.2-0.1
	l0.1-0.1l0.1-0.1c0.1-0.1,0.4-0.2,0.4-0.2c0.1-0.1,0.4-0.2,0.4-0.2c0.1-0.1,0.2-0.1,0.4-0.2c0.1-0.1,0.1-0.1,0.2-0.2l0.1-0.1
	c0.2-0.1,0.5-0.3,0.8-0.4l3.2-1.6l1.5-0.8c0.1-0.1,0.1-0.1,0.2-0.1c0.1-0.1,0.1-0.1,0.2-0.1c0,0,0.2-0.1,0.3-0.2l0.1-0.1
	c0.1-0.1,0.3-0.2,0.4-0.2c0.1-0.1,0.3-0.2,0.4-0.2c0.1-0.1,0.3-0.2,0.3-0.2c0.1-0.1,0.3-0.1,0.4-0.2c0.1,0,0.3-0.1,0.4-0.2l0.1-0.1
	l0.1-0.1l0.2-0.1c0.2-0.1,0.5-0.3,0.7-0.3c0.3-0.1,0.7-0.3,1-0.4c1-0.5,2.1-1,3-1.6l1.5-0.8c0.1-0.1,0.6-0.3,0.8-0.4
	c0.3-0.1,0.6-0.3,0.8-0.4l0.1-0.1l0.1-0.1l0.2-0.1c0.2-0.1,0.2-0.1,0.2-0.1l0.2-0.1c0.2-0.1,0.3-0.1,0.5-0.2c0,0,0.2-0.1,0.4-0.2
	c0.2-0.1,0.5-0.2,0.8-0.3c0.3-0.1,0.6-0.2,0.9-0.3c0.5-0.2,1-0.5,1.4-0.8c0.4-0.3,1-0.6,1.5-0.8c0.1-0.1,0.5,0,0.6,0.1
	c0.1,0.2,0.2,0.4,0.2,0.5c0,0.2-0.1,0.5-0.1,0.7l-0.1,0.2c0,0.1-0.1,0.2-0.1,0.3c-0.1,0.5-0.2,1-0.3,1.3c-0.1,0.2-0.3,0.5-0.6,0.6
	c-0.4,0.2-0.9,0.4-1.5,0.5c-0.1,0-1,0.4-1.5,0.7c-0.2,0.1-0.4,0.2-0.6,0.3c-0.1,0.1-0.2,0.1-0.3,0.2c-0.1,0.1-0.3,0.2-0.3,0.2
	c-0.3,0.1-0.5,0.2-0.6,0.4c-0.2,0.2-0.3,0.3-0.6,0.4c-1.3,0.3-2.2,0.8-3.2,1.4c-0.8,0.5-1.8,1-2.7,1.4c-0.5,0.2-1,0.5-1.5,0.7
	c-0.5,0.3-0.9,0.5-1.4,0.7L521,46l-0.2,0.1c-0.1,0.1-0.3,0.1-0.4,0.2c-0.1,0-0.1,0-0.2,0.1c0,0-0.1,0.1-0.2,0.1l-0.1,0.1l-0.1,0.1
	l-0.2,0.1l-0.1,0l-0.1,0c-0.1,0.1-0.3,0.1-0.4,0.2c-0.2,0.1-0.3,0.1-0.4,0.2l-0.2,0.1l-0.2,0.1c-0.3,0.1-1.8,0.9-2.9,1.4l-0.1,0
	c-0.1,0-0.1,0-0.2,0.1c0,0-0.3,0.1-0.4,0.2c-0.3,0.1-0.5,0.2-0.8,0.4c-0.3,0.1-1.3,0.7-1.3,0.7c-0.1,0.1-0.2,0.2-0.3,0.4
	c-0.1,0.1-0.2,0.3-0.2,0.5c-0.1,0.3-0.3,0.5-0.5,0.7c-0.7,0.7-1.4,0.6-1.7-0.4c-0.1-0.4,0-1.1,0.2-1.3c0.1-0.2,0.1-0.2,0.1-0.6
	C510.3,49.2,510.2,48.8,510.3,48.8z"/>
<path class="st0" d="M507.5,90.6L507.5,90.6l0.7-0.1l0.2,0.1c0.1,0.1,0.1,0.1,0.1,0.1c0,0.1,0.1,0.2,0.1,0.4
	c0.1,0.3,0.2,0.5,0.4,0.7c0.2,0.2,0.5,0.4,0.8,0.6c0.4,0.2,0.9,0.2,1.3,0.2c0.3,0,0.7,0,1.1,0c0.3,0,0.3,0,0.4,0c0,0,0.2,0,0.4,0
	c1.2,0.1,2.6,0.1,3.5,0.1l0.1,0l0-0.1c0.1,0,0.3,0,0.3,0c0.3,0,0.7,0,0.9,0c0.4-0.1,0.7-0.1,1-0.1c0.8,0,2.7,0,3.2-0.2
	c0.2-0.1,0.4-0.1,0.6-0.1c0.4,0,0.8,0,1.1,0c0.2,0,0.5-0.1,0.8-0.1c0.2,0,0.5-0.1,0.6-0.1c0.6-0.1,1.9-0.3,2.9-0.4
	c0.1,0,0.4,0,0.4-0.1h0.2h0.2l0.1,0l0.3,0l0.2,0l0.1,0l0.1,0l0.2,0l0.4,0l0.5-0.1l1-0.1c1.1-0.1,2.6-0.3,3.3-0.5
	c1.2-0.3,2.5-0.6,3.6-0.8c1.3-0.3,2.6-0.5,3.7-0.8c0.1,0,0.2-0.1,0.2-0.1c0.1-0.1,0.1-0.1,0.2-0.1c0.2-0.1,0.4-0.1,0.6-0.2
	c0,0,0.4-0.2,0.6-0.2c0.1-0.1,0.4-0.2,0.4-0.2c0.1,0-0.1-1.8-0.1-1.9c0-0.2-0.1-0.5-0.1-0.7l0-0.2l0-0.2c0-0.1,0-0.3-0.1-0.4
	c0-0.1-0.4-2.2-0.5-3c0-0.1-0.2-0.7-0.2-1c0,0,0-0.2-0.1-0.2l0-0.5l0-0.4l0-0.1l0-0.1c0-0.1-0.1-0.3-0.1-0.4
	c-0.1-0.8-0.3-1.7-0.6-2.3c-0.1-0.3-0.2-0.5-0.3-0.8c-0.1-0.3-0.2-0.6-0.3-0.9c-0.1-0.2-0.1-0.4-0.1-0.6c0-0.3-0.1-0.6-0.1-0.8
	c0-0.1,0-0.1-0.1-0.3l0-0.3c0,0,0,0-0.1-0.2l0-0.1l0-0.2l0-0.1l-0.9-4.6c-0.2-0.8-0.4-1.7-0.6-2.1c0-0.1-0.1-0.2-0.1-0.4
	c0-0.4-0.1-0.9-0.1-0.9l0-0.1l0-0.1l0-0.1l0-0.2c0-0.2-0.1-0.4-0.1-0.5c-0.3-1.4-0.7-3.7-0.9-4.4c-0.1-0.3-0.2-0.6-0.3-0.9
	c-0.1-0.1-0.1-0.3-0.1-0.5c0-0.1,0-0.4-0.1-0.6c0-0.3,0-0.5-0.1-0.7c-0.1-1-0.4-1.6-0.7-2.3c-0.1-0.2-0.2-0.6-0.3-0.9
	c-0.1-0.3-0.2-0.6-0.4-0.9c-0.1-0.1-0.2-0.4-0.2-0.4c-0.1-0.2-0.2-0.4-0.2-0.5c-0.1-0.2-0.1-0.4-0.2-0.6c-0.1-0.1-0.2-0.3-0.2-0.4
	c-0.1-0.6,0.3-1.4,0.6-1.7c0.1-0.2,0.3-0.4,0.4-0.6c0.1-0.2,0.1-0.3,0.2-0.5c0-0.1,0.1-0.3,0.2-0.4c0.3-0.5,1.2-2,1.8-1.9
	c0.4,0,0.9,1.3,1,1.7c0.2,0.7,0.5,1.3,0.8,1.9c0.1,0.1,0.6,1,0.9,1.7c0.3,0.6,0.8,1.4,0.9,1.7c0.1,0.3,0.2,0.5,0.1,0.8
	c-0.1,0.6-0.4,1-0.7,1.4c-0.3,0.4-0.8,0.9-0.8,1.1c-0.1,0.4-0.1,0.8,0.1,1.3c0.1,0.2,0.2,0.8,0.2,0.8c0,0.5,0.1,0.9,0.2,1.3
	c0.1,0.4,0.2,0.9,0.4,1.2c0.1,0.1,0.1,0.3,0.2,0.5c0,0.1,0.1,0.3,0.1,0.4l0,0.3c0,0.2,0,0.5,0.1,0.5c0,0,0.1,0.4,0.2,0.6
	c0,0.1,0.1,0.4,0.2,0.7c0,0,0.1,0.8,0.2,1.1c0,0.3,0.1,0.9,0.2,1c0,0.1,0,0.3,0.1,0.5l0,0.1l0,0.1l0,0.1l0,0.2l0,0.1l0,0.2
	c0,0.1,0,0.2,0.1,0.4l0.3,1.8c0,0.2,0.1,0.4,0.2,0.5c0.1,0.2,0.2,0.4,0.2,0.6c0,0.1,0.1,0.3,0.1,0.4c0,0.1,0,0.3,0.1,0.4l0.2,0.8
	c0,0.1,0.1,0.3,0.2,0.6l0,0.1l0.1,0.2l0,0.1l0,0.1l0,0.1c0,0.2,0.1,0.4,0.2,0.6c0.1,0.2,0.1,0.4,0.2,0.6c0,0.1,0.2,0.9,0.3,1.4
	c0.1,0.5,0.3,1.1,0.4,1.7c0.2,1.3,0.4,2.7,0.6,4c0.2,1.7,0.2,3.2,0,4.8c0,0.2-0.1,0.6-0.1,0.9c0,0.2,0,0.2-0.1,0.3l0,0.1l0,0.1
	c0,0.3,0,0.6,0,0.8l0.1,0.2l0,0.2l0,0.8l-0.1,0.3l0,0.2c0,0.1,0,0.1,0,0.2c-0.1,0.2-0.1,0.4-0.2,0.5c-0.1,0.1-0.1,0.3-0.2,0.5
	c-0.1,0.2-0.1,0.4-0.2,0.6c-0.2,0.5-0.7,1.7-1,1.9c-0.1,0-0.2,0.1-0.3,0.1c-0.4,0-0.5,0-0.6,0.1l-0.2,0.1c-0.1,0.1-0.2,0.1-0.3,0.2
	c-0.4,0.2-0.9,0.4-1.3,0.4c-0.6,0.1-1.2,0.2-1.7,0.4c-0.3,0.1-0.5,0.2-0.9,0.2c-0.4,0-0.7,0.1-1,0.2c-0.3,0.1-0.5,0.2-0.8,0.2
	c-0.4,0-0.6,0-0.9,0.1c-0.6,0.2-1.2,0.4-1.9,0.5l-0.3,0c-0.4,0-0.4,0-0.5,0.1c-0.1,0-0.3,0.1-0.3,0.1c-0.2,0-0.5,0.1-0.6,0.1h-0.1
	h-0.6c-0.1,0-0.3,0-0.4,0.1c-0.3,0.1-0.7,0.1-0.9,0.2c-0.2,0.1-0.5,0.1-0.7,0.2c-0.5,0-2,0.2-2,0.2c-0.3,0.1-0.6,0.2-0.8,0.2
	c-0.3,0-0.8-0.1-1,0c-2,0.4-4.4,0.6-6.6,0.7c-0.2,0-0.6,0.1-0.9,0.2c-0.2,0-0.4,0.1-0.6,0.1c-0.3,0-0.3,0-0.6,0c-0.3,0-0.3,0-0.4,0
	c-0.4,0-1.1,0.1-1.4,0.1c-0.6,0-1,0-1.6,0c-0.2,0-0.4,0-0.5,0.1c-0.1,0-0.1,0-0.2,0.1c-0.1,0-0.1,0.1-0.2,0.1c-0.7,0-1.8,0-2.1,0
	c-0.3-0.1-0.7-0.1-1-0.1c-0.5,0.1-1.6,0.1-1.9-0.3c-0.3-0.5-0.6-1-0.8-1.6C507,95.7,507,91,507.5,90.6z"/>
</svg>
