<?xml version="1.0" encoding="utf-8"?>
<!-- Generator: Adobe Illustrator 23.0.3, SVG Export Plug-In . SVG Version: 6.00 Build 0)  -->
<svg version="1.1" id="Layer_1" xmlns="http://www.w3.org/2000/svg" xmlns:xlink="http://www.w3.org/1999/xlink" x="0px" y="0px"
	 viewBox="0 0 1287 136" style="enable-background:new 0 0 1287 136;" xml:space="preserve">
<style type="text/css">
	.st0{fill-rule:evenodd;clip-rule:evenodd;fill:#231F20;}
	.st1{fill-rule:evenodd;clip-rule:evenodd;fill:#FFFFFF;}
</style>
<path class="st0" d="M597.6,69.6c0,0,0.1-0.1,0.2-0.2c0.1-0.1,0.2-0.2,0.3-0.4c0.1-0.1,0.1-0.1,0.1-0.2c0,0,0.3-0.3,0.5-0.5l0.1,0
	c0,0,0.1-0.1,0.1-0.2c0.2-0.2,0.3-0.4,0.5-0.5c0.3-0.4,1.6-1.6,1.9-1.8c0.4-0.2,0.8-0.5,1.1-0.8c0.4-0.3,0.9-0.6,1.4-0.8
	c0.2-0.1,1-0.4,1.6-0.7c0.2-0.1,0.5-0.2,0.7-0.3c0.1,0,0.1,0,0.1-0.1c0,0,0.2-0.1,0.2-0.1l0.1-0.1l0.1,0l0.2-0.1
	c0,0-0.1-1.2-0.1-1.3c-0.1-0.6,0-1.4,0-2c0-0.5,0.1-1,0.3-1.5c0-0.1,0.2-0.8,0.3-1.4c0-0.2,0.3-0.8,0.4-0.9c0.2,0,0.2,0,0.3,0.1
	c0.1,0.1,0.2,0.3,0.2,0.5c0,0.2,0,0.4,0,0.6c0,0.3,0,0.7,0.1,1c0,0.5,0.2,1,0.3,1.4c0.1,0.2,0.2,0.9,0.3,1.4
	c0.1,0.3,0.1,0.5,0.1,0.8c0,0.2,0.1,0.4,0.2,0.6c0.1,0.2,0.1,0.5,0.1,0.8c0,0.3,0.1,0.5,0.1,0.7c0,0.2,0.1,0.5,0.1,0.7
	c0,0.2,0.1,0.4,0.2,0.6c0.1,0.2,0.1,0.4,0.2,0.6c0,0.1,0.1,0.3,0.1,0.5c0,0.2,0,0.4,0.1,0.6c0,0.1,0.1,0.4,0.1,0.6
	c0,0.1,0.1,0.2,0.1,0.3c0,0.1,0.1,0.2,0.1,0.3c0,0,0.1,0.2,0.1,0.2c0,0.1,0.1,0.2,0.1,0.3l0,0.1l0,0.1l0,0.1c0,0.1,0.1,0.2,0.1,0.4
	c0.1,0.4,0.3,0.8,0.4,1.1c0.3,0.7,0.8,1.8,1.1,2.1c0.2,0.2,0.5,0.5,0.7,0.8c0.2,0.2,0.6,0.8,0.7,0.8c0.1,0,0.6,0.5,0.7,0.6
	c0.1,0.1,0.2,0.2,0.4,0.3c0.1,0,0.1,0.1,0.2,0.1c0.1,0.1,0.3,0.2,0.3,0.2c0.1,0.1,0.3,0.2,0.4,0.2c0.2,0.1,0.3,0.2,0.4,0.2
	c0.1,0.1,0.3,0.2,0.5,0.2c0.2,0.1,0.3,0.1,0.5,0.2c0.1,0,0.4,0.1,0.6,0.2c0,0,0.2,0.1,0.2,0.1l0.1,0l0.1,0l0.1,0
	c0.2,0.1,0.4,0.1,0.6,0.2c0.2,0,0.3,0.1,0.5,0.2l1.1,0.4c0,0,0,0,0.2,0.1l0.1,0l0.1,0l0.1,0l0.1,0c0.1,0,0.2,0.1,0.4,0.1
	c0.1,0,0.3,0.1,0.4,0.1c0.2,0.1,0.9,0.1,1.3,0.2c0.4,0,0.9,0.1,1.3,0.2c0.1,0,1.3,0.1,1.7,0.1c0,0,0.6,0.1,0.9,0.1
	c0.4,0,0.7,0.1,1.1,0.1c0,0,1.1,0,1.5,0.1c0.3,0,0.7,0,1.2,0c0.2,0,1,0,1,0c0.2,0,0.6,0.1,0.7,0.1c0.3,0,0.6-0.1,0.9,0
	c0.3,0,0.6,0,0.9-0.1c0.2,0,0.2,0,0.3,0c0.2,0,0.4,0,0.6,0l0.2,0c0.2,0,0.2,0,0.4,0c0.2,0,0.8-0.1,0.8-0.1l0.1-0.1
	c0.1-0.1,0.1-0.1,0.1-0.1l0.1-0.1c0.1-0.1,0.1-0.1,0.1-0.1c0.2-0.1,0.3-0.2,0.5-0.3c0.4-0.2,0.8-0.4,1.2-0.7
	c0.2-0.1,0.3-0.2,0.5-0.3c0.1-0.1,0.3-0.3,0.5-0.4c0,0,0,0,0.1-0.1c0-0.1,0-0.1,0.1-0.1c0.1,0,0.2-0.1,0.2-0.1c0,0,0.1-0.1,0-0.1
	c0,0,0,0,0-0.1c0.1-0.1,0.1-0.2,0.2-0.2c0,0-0.1-0.1-0.1-0.1l0-0.1c0,0,0.1-0.1,0.1,0c-0.1,0-0.1,0,0,0.1c0,0,0.1,0.1,0.1,0.1
	c0,0.1,0,0.2-0.1,0.2c0,0-0.1,0.1-0.1,0.1c0,0.1,0.3-0.1,0.3-0.1c0.1-0.1,0.1-0.1,0.1-0.1c0.1,0,0.1,0,0.1-0.1c0,0,0.2-0.2,0.3-0.3
	c0.1-0.1,0.2-0.2,0.3-0.3c0.1-0.1,0.2-0.2,0.2-0.2c0.1,0,0.2,0,0.3-0.1c0.2-0.1,0.4-1.1,0.4-1.5c0-0.2,0.1-0.3,0.1-0.5l0-0.3l0-0.7
	c0-0.8,0-0.8,0-1.2c0-0.3,0-0.3,0-0.7v-0.1l0-0.7l0-0.5V68l0-0.6l0-0.1c0,0.1-0.1-0.7-0.1-1c0-0.6-0.1-1.2-0.1-1.7
	c0-0.2-0.1-0.4-0.1-0.5l0-0.3l0-0.4c0-0.3-0.1-0.7-0.1-1c-0.1-0.7-0.3-2.1-0.5-3.4c-0.3-2-0.7-3.8-1.1-5.7c-0.2-0.7-0.5-2.2-0.5-2.4
	c-0.1-0.8-0.3-1.7-0.6-2.5c0-0.2-0.1-0.3-0.1-0.5c0-0.2-0.1-0.4-0.2-0.5l0-0.1l0-0.1l0-0.1l0-0.1l0-0.1c0,0,0-0.2-0.1-0.3
	c0-0.1,0-0.2-0.1-0.3c0-0.1,0-0.2-0.1-0.3c0-0.1,0-0.2-0.1-0.3c0-0.2-0.1-0.3-0.1-0.5c0-0.1-0.1-0.4-0.1-0.7c0-0.1-0.1-0.3-0.1-0.4
	c0-0.1-0.1-0.8-0.1-0.8s-0.2-0.3-0.2-0.3c0-0.1-0.1-0.1-0.1-0.2c0-0.1-0.1-0.2-0.1-0.2c-0.2-0.3-0.3-0.6-0.4-1
	c-0.1-0.4-0.6-1.7-0.4-1.9l0-0.1l0-0.1l0-0.1l0.1-0.1c0,0,0,0,0.1-0.1c0.1-0.2,0.2-0.3,0.3-0.5c0.2-0.2,0.5-0.8,0.5-0.9
	c0.1-0.4,0.8-1.8,1.2-1.9c0.2,0,0.3,0.1,0.3,0.1c0,0.1,0.2,0.5,0.4,1c0.1,0.3,0.3,1,0.4,1c0.1,0.3,0.5,0.8,0.7,1
	c0.2,0.2,0.4,0.4,0.6,0.6c0.1,0.1,0.3,0.3,0.4,0.4c0.1,0.1,0.1,0.1,0.2,0.2c0.2,0.1,1.3,1.1,1.3,1.2c0.1,0.2,0,0.8-0.1,1
	c-0.1,0.2-0.3,0.4-0.5,0.6c-0.1,0.1-0.2,0.2-0.3,0.2c-0.1,0.1-0.3,0.2-0.3,0.3c-0.1,0.1-0.1,0.2-0.2,0.3l0,0.1l-0.1,0.1
	c0,0.1-0.1,0.1-0.1,0.2c-0.1,0.1-0.2,0.2-0.2,0.3c-0.1,0.1-0.2,0.3-0.2,0.3c0,0,0.2,0.6,0.2,0.8c0.1,0.3,0.2,0.5,0.2,0.8l0,0.1
	l0,0.1c0,0.1,0.1,0.4,0.1,0.5c0,0.1,0.1,0.4,0.1,0.6c0.1,0.4,0.2,1.1,0.2,1.2c0.2,0.5,0.4,1.2,0.5,1.9c0.1,0.8,0.3,1.6,0.4,2.4
	c0.1,0.3,0.1,0.7,0.2,1l0,0.1l0,0.1l0,0.1l0,0.2l0,0.1l0,0.1l0,0.1l0,0.2l0,0.1c0.1,0.3,0.2,0.6,0.2,0.9c0.1,0.5,0.2,1.3,0.2,1.6
	c0.1,0.8,0.4,2.2,0.4,2.7c0.1,0.5,0.2,1.5,0.2,1.6c0,0.2,0.1,0.4,0.1,0.5c0,0.3,0,0.6,0.1,0.9c0,0.1,0,1.7,0,2.5
	c0,0.3,0,0.9-0.1,1.3c-0.1,1.1-0.4,2.1-0.6,3c-0.1,0.3-0.2,0.8-0.4,1.1c-0.1,0.3-0.4,1.3-0.4,1.4c0,0,0.3-0.2,0.3-0.3l0.2-0.2l0.1,0
	c0,0,0.2-0.2,0.2-0.2l0.1,0l0.1-0.1l0.1,0l0.1,0c0.1-0.1,0.2-0.1,0.3-0.2l0.2-0.1l0.1,0c0.1-0.1,0.2-0.2,0.3-0.3
	c0.2-0.2,0.4-0.4,0.6-0.6c0.4-0.3,0.9-0.6,1.3-1c0.1-0.1,0.5-0.4,0.7-0.6c0.1-0.1,0.2-0.2,0.3-0.2l0.1,0c0,0,0,0,0.1-0.1
	c0.1-0.1,0.2-0.2,0.2-0.2c0.1-0.1,0.3-0.2,0.3-0.3c0.1-0.1,0.2-0.2,0.4-0.3l0.2-0.2l0.1,0c0.1-0.1,0.3-0.2,0.4-0.3
	c0.2-0.2,0.5-0.4,0.7-0.5c0.2-0.2,0.5-0.4,0.7-0.5c0.5-0.5,2.7-1.7,3.5-1.8c0.8-0.1,2-0.2,2.6-0.1l0.1,0l0.5,0l0.1,0l0.3,0h0.2
	c0.1,0,0.3,0,0.4,0.1l0.2,0l0.2,0l0.2,0c0,0,0.1,0,0.2,0c0,0,1.2,0.3,1.4,0.4c0.5,0.1,1,0.3,1.3,0.6c0.3,0.2,0.6,0.5,0.8,0.8
	l0.1,0.1c0,0,0,0,0.1,0.1l0.1,0.1c0.1,0.1,0.2,0.2,0.2,0.2c0,0.1,0.1,0.2,0.2,0.2c0.1,0.1,0.3,0.4,0.4,0.5c0.1,0.2,0.2,0.4,0.4,0.6
	c0,0.1,0.1,0.2,0.1,0.3c0,0.3,0.1,0.4,0.2,0.5c0.2,0.2,0.2,0.6,0.3,1c0,0.1-1,2.5-1.2,2.9c-0.4,0.9-0.8,1.7-1.5,2.3
	c-0.6,0.6-1.2,1.1-1.9,1.7c-0.1,0.1,1.1,0,1.2,0c0.2,0,0.4-0.1,0.6-0.1l0.1,0l0.1,0c0.1,0,0.1,0,0.2,0c0.2,0,0.4-0.1,0.7-0.1
	c0.3,0,0.5,0,0.7-0.1c0.3-0.1,0.7-0.1,0.9-0.2c0.2,0,1.2-0.2,1.8-0.4c0.2-0.1,0.5-0.1,0.7-0.2c0.1,0,0.1,0,0.3-0.1
	c0.1,0,0.2,0,0.3-0.1l0.1,0l0.2,0l0.1,0l0.2,0c1.1-0.2,2.2-0.5,3.3-0.8c2-0.6,3.5-1.5,4.7-2.9c0.1-0.1,0.2-0.3,0.3-0.5l0-0.1l0-0.1
	l0-0.1l0-0.1l0-0.1l0-0.1c0-0.1,0.1-0.2,0.1-0.2c0,0,0,0,0-0.1c0,0,0-0.1,0-0.1c0-0.1,0.1-0.3,0.2-0.4c0.1-0.1,0.2-0.2,0.2-0.2
	c0.1-0.1,0.2-0.3,0.2-0.3c0.6-0.1,0.8,0.8,0.8,1.4c0,0.3-0.2,0.6-0.3,0.8c0,0.1,0,0.1-0.1,0.2c0,0.1-0.1,0.2-0.1,0.3
	c0,0-0.1,0.2-0.2,0.4c0,0.1-0.1,0.2-0.1,0.3c0,0.1-0.1,0.4-0.1,0.4c-0.1,0.3-0.2,0.5-0.3,0.7c-0.1,0.2-0.5,0.7-0.8,1.1
	c-0.1,0.2-0.3,0.4-0.4,0.6l-0.2,0.2l-0.1,0.1c-0.1,0.1-0.2,0.2-0.2,0.3c0,0,0.8-0.2,0.9-0.2c0.4-0.1,0.9-0.2,1.3-0.2
	c0.8-0.1,2.2-0.3,3.1-0.4c0.4-0.1,1.2-0.3,1.7-0.4c0.5-0.1,1.5-0.4,1.6-0.4c1-0.5,1.9-1.2,2.5-2.2c0-0.1,0.1-0.2,0.2-0.3l0-0.1
	c0-0.1,0-0.1,0.1-0.2l0-0.1c0.1-0.1,0.1-0.1,0.1-0.2c0-0.1,0.1-0.1,0.1-0.2c0-0.1,0.1-0.2,0.1-0.3c0-0.1,0.1-0.2,0.1-0.3
	c0-0.1,0.1-0.1,0.1-0.2c0.1-0.2,0.4-0.6,0.4-0.8c0-0.1,0.4-0.5,0.6-0.6c0.2-0.2,0.6,0.4,0.6,0.5c0.1,0.3,0,0.8,0,1
	c-0.1,0.4-0.4,0.9-0.6,1.3c-0.2,0.4-0.5,0.9-0.6,1.4c0,0.2,0.1,0.3,0.1,0.3c0.3,0.3,1.4,0.5,2,0.7c0.1,0,0.1,0,0.2,0.1
	c0,0,0.2,0,0.2,0.1c0.2,0.1,0.4,0.1,0.7,0.1c0,0,0.2,0,0.2,0.1c0.1,0,0.2,0.1,0.2,0.1c0.2,0,0.8,0.2,0.9,0c0.1-0.2,0.4-0.6,0.6-0.9
	c0.2-0.3,0.4-0.6,0.6-1c0.1-0.1,0.1-0.3,0.1-0.5l0.1-0.5c0-0.1,0-0.2,0.1-0.3c0.1-0.2,0.1-0.4,0.2-0.6c0.1-0.1,0.1-0.3,0.2-0.3
	c0.1-0.1,0.1-0.1,0.1-0.2c0-0.1,0.1-0.1,0.1-0.2c0-0.1,0-0.1,0-0.2c0-0.1,0-0.1,0-0.2c0-0.1,0.1-0.2,0.1-0.3c0-0.1,0.1-0.2,0.1-0.3
	c0.1-0.3,0.5-0.9,0.7-1c0.1-0.1,0.3,0.1,0.4,0.1c0.2,0.1,0.2,0.3,0.3,0.5c0.1,0.4,0,0.8-0.1,1.1c-0.1,0.3-0.2,0.6-0.1,0.9
	c0,0.1,1.6,0.7,1.7,0.7c0.1,0,0.1,0,0.2,0.1c0.1,0,0.2,0.1,0.3,0.1c0.1,0,0.2,0,0.4,0.1c0.1,0,0.3,0,0.4,0.1l0.2,0l0.1,0
	c0.1,0,0.2,0.1,0.3,0.1c0.3,0.1,0.7,0.1,1,0.1l0.6,0l0.4,0c0.2,0,0.2,0,0.5,0c0.2,0,0.9,0,0.9,0c0,0,0.5-0.1,0.5-0.1
	c0.1,0,0.5-0.2,0.5-0.2c0.1-0.3-0.1-0.7-0.2-1c-0.1-0.3-0.2-0.5-0.3-0.8c-0.1-0.4-0.5-1.3-0.7-1.9l-0.1-0.1l0-0.1l0-0.1
	c-0.1-0.1-0.1-0.3-0.1-0.3c0-0.1-0.1-0.2-0.1-0.3c-0.1-0.1-0.1-0.2-0.2-0.4l-0.1-0.2l0-0.1l0-0.1l0-0.1c0,0-0.1-0.1-0.1-0.2
	c-0.1-0.1-0.1-0.3-0.2-0.3c0,0-0.1-0.2-0.1-0.3c-0.2-0.4-0.4-1-0.6-1.3c-0.2-0.4-0.6-1-0.7-1.2c-0.2-0.4-0.4-0.8-0.6-1.2
	c-0.2-0.4-0.5-0.8-0.7-1.2c-0.2-0.4-0.6-1.1-0.7-1.2c-0.2-0.3-0.5-0.8-0.6-1.1c-0.1-0.4,0.2-1.4,0.3-1.8c0-0.1,0-0.3,0-0.5
	c0-0.2,0-0.3,0.1-0.5c0-0.1,0.1-0.3,0.1-0.4c0-0.2,0.1-0.5,0.1-0.6c0.1-0.1,0.1-0.2,0.1-0.3c0-0.1,0.1-0.3,0.2-0.4
	c0.2,0,0.4,0.1,0.5,0.1c0.3,0.2,0.5,0.8,0.7,1.2c0.2,0.4,0.4,0.9,0.7,1.3c0.2,0.4,0.5,0.8,0.7,1.2c0.2,0.4,0.6,1,0.7,1.2
	c0.2,0.3,0.6,1.3,0.6,1.3l0.1,0.1c0,0.1,0,0.1,0.1,0.1c0.1,0.1,0.1,0.2,0.2,0.4c0,0.1,0,0.1,0.1,0.2c0,0.1,0,0.1,0.1,0.1
	c0,0.1,0,0.1,0.1,0.1c0,0.1,0.1,0.2,0.1,0.2l0.1,0.2l0,0.1l0,0.1c0.1,0.1,0.1,0.2,0.2,0.4c0,0,0.1,0.1,0.1,0.2c0,0.1,0,0.1,0.1,0.1
	c0.1,0.1,0.1,0.3,0.2,0.5l0.1,0.2l0,0.1l0.1,0.2c0,0.1,0.1,0.1,0.1,0.2l0,0.1l0,0.1l0.1,0.1l0,0.1c0.1,0.1,0.1,0.3,0.1,0.4
	c0.2,0.5,0.3,1.5,0.5,2.5c0.1,0.8,0.3,1.6,0.5,2.4l0,0.9c0.1,0.3,0.1,0.6,0,0.9c0,0.1-0.1,0.5-0.2,0.7c-0.1,0.3-0.2,0.6-0.2,0.8
	c0,0.3-0.1,0.5-0.2,0.7c-0.1,0.2-0.1,0.5-0.2,0.7c0,0.3-0.1,0.5-0.1,0.8c-0.1,0.3-0.4,0.8-0.6,1.2c-0.1,0.1-0.3,0.2-0.4,0.3
	c-0.1,0-0.2,0.1-0.3,0.1c-0.1,0-0.3,0.1-0.4,0.1c-0.2,0.1-1.5,0.2-2.1,0.3l-0.3,0l-0.2,0l-0.1,0c-0.1,0-0.8,0-0.9,0
	c-0.3,0-0.6,0-0.8-0.1c-0.1,0-0.1,0-0.2-0.1c-0.1,0-0.2-0.1-0.3-0.1c-0.1,0-0.2-0.1-0.3-0.1c-0.1,0-0.2-0.1-0.3-0.1
	c-0.4-0.2-1.1-0.5-1.2-0.5c-0.7-0.3-1.4-0.7-1.6-1.5c0-0.1-0.3,0.3-0.3,0.3l0,0.1l-0.1,0.2c-0.1,0.1-0.1,0.3-0.2,0.3
	c-0.1,0.1-0.1,0.2-0.2,0.3c-0.2,0.5-0.4,0.9-0.7,1.3l0,0.1l-0.1,0.2c-0.1,0.1-0.1,0.2-0.2,0.3c-0.1,0.1-0.3,0.3-0.4,0.6l0,0.1l0,0.1
	l0,0.1c-0.1,0.1-0.1,0.3-0.2,0.4c-0.1,0.2-0.3,0.5-0.4,0.5l-0.1,0.1c0,0.1-0.1,0.1-0.1,0.1c-0.1,0.1-0.2,0.2-0.4,0.2
	c-0.6,0.1-3.7-0.6-4.3-0.8c-0.4-0.2-0.9-0.5-1.2-0.8c-0.2-0.1-0.2-0.4-0.3-0.7c0-0.1-0.6,0.3-0.6,0.3c-0.2,0.1-0.4,0.3-0.6,0.4
	c-0.2,0.1-0.4,0.2-0.5,0.4c-0.1,0.1-0.6,0.4-0.7,0.4c0,0-0.3,0.1-0.4,0.2c-0.2,0.1-0.3,0.1-0.5,0.1c0,0-0.3,0.1-0.5,0.2
	c-0.2,0.1-0.4,0.1-0.6,0.2c-0.5,0.1-1,0.1-1.6,0.2c-0.1,0-0.1,0-0.2,0c-0.1,0-0.2,0.1-0.2,0.1c-0.2,0.1-0.5,0.1-0.8,0.1
	c-0.4,0-1.1,0-1.2,0l-0.1,0l-0.1,0c-0.2,0-0.3,0-0.5,0l-0.1,0l-0.1,0c-0.1-0.1-0.1-0.1-0.2-0.1c0,0,0,0-0.1,0c-0.5,0-0.9,0-1.4,0
	c-0.1,0-0.7-0.1-0.8-0.1l-0.4,0l-0.3,0l-0.7,0l-0.3,0l-0.4,0l-0.2,0c-0.1,0-0.5-0.1-0.5-0.1c-0.4,0-0.4,0-0.5,0c-0.1,0-0.2,0-0.3,0
	c-0.7,0.2-1.3,0.4-2,0.6c-0.1,0-0.2,0.1-0.3,0.1l-0.5,0c-0.1,0-0.2,0-0.3,0c-0.1,0-0.2,0-0.2,0.1l-0.1,0l-0.1,0l-0.1,0
	c-0.1,0-0.6,0.1-0.9,0.1c-0.2,0-0.5,0.1-0.7,0.1c-0.2,0-0.3,0.1-0.5,0.1c-0.1,0-0.2,0.1-0.3,0.1c-0.1,0-0.1,0.1-0.2,0.1
	c-0.1,0-0.5,0-0.7,0.1c-0.2,0-0.4,0-0.6,0.1c-0.4,0.1-0.7,0.1-1.3,0.1c-0.5,0-0.8,0-1.1,0.1c-0.1,0-0.7,0-0.9,0c-0.2,0-0.4,0-0.5,0
	c-0.6,0.1-0.9,0.2-1.5,0.1c-0.3,0-0.8,0-1,0c-0.1,0-0.3,0-0.4,0c-0.1,0-0.3,0-0.4-0.1c-0.1,0-0.2,0-0.4,0c-0.5,0-1,0-1.5,0
	c-0.6,0-1.6,0.1-2.3,0.1l-0.4,0l-0.3,0l-0.3,0l-0.2,0l-0.3,0c-2,0-5,0.2-7.4,0.3c-1,0.1-2.3,0.1-3.4,0.2H639l-1.1,0
	c-0.7,0-1.3,0-1.8,0.1c-0.2,0-0.3,0-0.5,0.1c-0.1,0-0.3,0-0.4,0.1c-0.4,0.1-0.9,0.1-1.2,0.1c-0.4,0-1-0.1-1.4-0.1l-2.1,0.1
	c-0.1,0-0.3,0-0.4-0.1c-0.1,0-0.3-0.1-0.3-0.1h-0.4h-0.1h-0.3c-0.1,0-0.3,0-0.5,0c-0.2,0-0.4-0.1-0.5,0c-0.2,0-0.5,0.1-0.7,0
	c-0.1-0.1-0.3-0.1-0.5,0l-0.1,0l-0.1,0c-0.1,0-0.2,0-0.4,0c0,0-0.1,0-0.1,0l-0.2,0c0,0-0.4,0-0.6,0c0,0-0.3-0.1-0.5-0.1
	c-0.1,0-0.1,0-0.1,0l-0.3,0h-0.1c-0.3,0-0.6,0-0.8-0.1c-0.1,0-0.1,0-0.3,0c-0.3,0-0.3,0-0.5,0c-0.1,0-0.2,0-0.3-0.1
	c-0.1,0-0.2-0.1-0.2-0.1c-0.2,0-0.3-0.1-0.5-0.1c-0.6-0.1-0.9,0-1.4,0c-0.2,0-0.3-0.1-0.4-0.2c-0.1-0.1-0.3-0.1-0.4-0.2
	c-0.1,0-0.5-0.2-0.8-0.3l-0.5-0.1c-0.1,0-0.2,0-0.2-0.1c-0.1,0-0.3-0.1-0.3-0.1c-0.1,0-0.2-0.1-0.3-0.1c-0.1,0-0.2-0.1-0.3-0.1
	l-0.1,0c-0.1-0.1-0.1-0.1-0.2-0.1l-0.1,0l-0.1,0l-0.1,0c-0.1,0-0.3-0.1-0.5-0.1c-0.2,0-0.4-0.1-0.5-0.1c-0.2,0-0.3-0.1-0.4-0.2
	c-0.1-0.1-0.3-0.2-0.3-0.2c-0.3,0-0.5-0.1-0.6-0.2c-0.1-0.1-0.2-0.2-0.5-0.4c0,0-0.1-0.1-0.2-0.1c-0.1-0.1-0.3-0.2-0.4-0.2
	c-0.2-0.1-0.6-0.3-0.8-0.5l0-0.1c0-0.1,0-0.1-0.1-0.1c0,0-0.1-0.1-0.1-0.2c-0.1-0.1-0.2-0.2-0.3-0.3c-0.1-0.1-0.2-0.2-0.3-0.3
	c0,0-0.1-0.1-0.1-0.1c-0.1-0.1-0.1-0.1-0.2-0.2l0-0.1l0-0.1c0-0.1-0.1-0.1-0.1-0.2c-0.1-0.1-0.3-0.4-0.3-0.4c0-0.1-0.1-0.1-0.1-0.2
	c0-0.1-0.1-0.1-0.1-0.2c0,0-0.1-0.1-0.1-0.2c-0.1-0.1-0.1-0.2-0.2-0.2c-0.2-0.3-0.3-0.6-0.4-1.1c-0.1-0.3-0.2-0.6-0.3-0.9
	c-0.1-0.1-0.1-0.3-0.1-0.4c-0.1-0.2-0.1-0.4-0.2-0.5c0-0.1-0.1-0.1-0.1-0.2c0-0.1-0.1-0.1-0.1-0.2l0-0.1l0-0.1l0-0.1
	c0-0.1-0.1-0.2-0.1-0.2c0,0,0,0.2,0,0.2l0,0.1c0,0.1-0.1,0.3-0.2,0.4c-0.2,0.2-0.4,0.4-0.5,0.6c-0.2,0.2-0.3,0.5-0.5,0.7
	c-0.2,0.2-0.4,0.5-0.5,0.7c-0.1,0.1-0.4,0.6-0.6,0.7c-0.5,0.2-1.4,0.5-1.6,0.5c-0.4,0.1-0.8,0.1-1.1,0.2c-0.4,0.1-0.9,0.2-1.1,0.2
	l-0.1,0l-0.1,0l-0.2,0h-0.1l-0.2,0c-0.3,0-0.5-0.1-0.8,0l-0.2,0c-0.2,0-0.3,0-0.5,0c-0.1,0-0.1,0-0.2,0c-0.1,0-0.1,0-0.2,0
	c-0.3,0-0.7,0-1,0c-0.8-0.1-1.9-0.2-2.6-0.5c-0.6-0.2-1-0.5-0.7-1.4c0-0.2,0.1-0.3,0.2-0.4c0.1-0.1,0.1-0.2,0.2-0.4
	c0-0.1,0-0.1,0-0.2c0,0,0.1-0.1,0.1-0.2c0.1-0.1,0.1-0.3,0.2-0.5c0.2-0.6,0.4-1.1,0.6-1.6l0-0.1l0-0.1l0-0.1l0-0.1l0.1-0.1l0-0.1
	c0-0.1,0.1-0.2,0.1-0.2c0-0.1,0.1-0.2,0.2-0.3C597.4,69.8,597.5,69.6,597.6,69.6z"/>
<path class="st0" d="M443.3,66.7c0,0,0.1-0.2,0.2-0.2c0.1-0.1,0.1-0.1,0.2-0.2c0.1-0.1,0.1-0.1,0.2-0.2c0.1-0.1,0.1-0.2,0.2-0.3
	c0.2-0.3,0.6-0.6,0.8-0.9c0.6-0.6,1.2-1.1,1.9-1.5c0.7-0.5,1.7-1.1,2.3-1.3c0.4-0.2,2.5-1.2,2.5-1.3c0,0,0-0.1-0.1-0.1
	c0,0,0-0.1-0.1-0.2c0-0.2-0.1-0.4-0.1-0.7c-0.1-1,0.7-4.8,1.2-5.1c0.3-0.2,0.4,0.4,0.4,0.6c0,0.4,0,0.5,0,0.6c0,0.2,0,0.2,0,0.4
	c0,0,0.1,0.2,0.1,0.2c0,0.1,0.1,0.1,0.1,0.2c0.1,0.3,0.2,0.6,0.2,1c0,0.2,0.1,0.6,0.2,0.8c0,0.1,0,0.2,0,0.2l0,0.8l0,0.2
	c0,0.2,0.1,0.4,0.1,0.6l0.1,0.2l0.1,0.2l0,0.1c0,0.1,0.1,0.6,0.1,1c0,0.1,0.1,0.4,0.1,0.6c0,0.2,0.1,0.6,0.2,0.9
	c0.1,0.6,0.3,1.2,0.4,1.8c0,0.2,0.2,0.9,0.4,1.5c0.1,0.2,0.1,0.5,0.2,0.7c0.1,0.3,0.3,0.7,0.4,0.8c0.2,0.5,0.4,0.9,0.6,1.3
	c0.2,0.3,0.5,0.7,0.8,0.9c0.2,0.2,0.6,0.6,0.8,0.8c0.1,0.1,1.3,1,1.5,1.1c0.1,0,0.3,0.1,0.4,0.2l0.2,0.1c0.1,0,0.2,0.1,0.2,0.1
	c0.2,0.1,0.5,0.2,0.8,0.3c0.2,0.1,0.4,0.1,0.6,0.2c0.1,0,0.2,0.1,0.3,0.1c0.1,0,0.1,0,0.2,0c0.1,0,0.1,0,0.2,0
	c0.2,0.1,0.4,0.1,0.6,0.2c0.2,0.1,0.4,0.1,0.6,0.2c0.5,0.2,1,0.3,1.5,0.3c0.2,0,0.3,0,0.4,0.1c0.1,0,0.3,0.1,0.4,0.1
	c0.1,0,0.1,0,0.2,0l0.1,0l0.4,0l0.4,0l0.2,0l0.4,0c0.2,0,0.3,0,0.5,0c0.1,0,0.4,0,0.8,0.1c0.7,0,1.4,0.1,2.1,0c0.3,0,0.4,0,0.7,0
	c0.4,0,1,0,1.5,0l0.2,0c0.1,0,0.9,0,0.9,0c0.1,0,0.7,0,0.7,0c0,0,0.1-0.1,0.1-0.1c0.1,0,0.1-0.1,0.2-0.1c0.1-0.1,0.2-0.2,0.3-0.2
	l0.1-0.1c0,0,0,0,0.1-0.1c0.1-0.1,0.3-0.2,0.3-0.2c0.2-0.1,0.4-0.3,0.6-0.4c0.1-0.1,0.2-0.1,0.3-0.2c0.1-0.1,0.2-0.2,0.3-0.2
	c0.2-0.1,0.8-0.5,1.3-0.8c0.3-0.2,1.1-0.8,1.2-1c0.2-0.5,0.7-2.6,0.6-2.8l0-0.4l0-1.2c0-0.1,0-0.3-0.1-0.5c0-0.1-0.1-0.3-0.1-0.5
	l0-0.2c0-0.2,0-0.2,0-0.4l0-0.2l0-0.3l0-0.1c0-0.2,0-0.2,0-0.2l0-0.2l0-0.6l0-0.3l0-0.1c0-0.1,0-0.1,0-0.2c0-0.1,0-0.1,0-0.3
	c0-0.2,0-0.3-0.1-0.5c0-0.2-0.1-0.5-0.1-0.7c0-0.2-0.1-0.3-0.1-0.6c0-0.2-0.1-0.5-0.1-0.7c-0.1-0.2-0.1-0.5-0.1-0.8
	c0-0.4-0.1-0.7-0.1-1.1l0-0.1l0-0.1l-0.1-0.2c0-0.1,0-0.2-0.1-0.3l0-0.1c0-0.1,0-0.1,0-0.2c0-0.1,0-0.1,0-0.2c0-0.1,0-0.3-0.1-0.4
	l-0.1-0.2l-0.1-0.2c0-0.1-0.1-0.3-0.1-0.5c0-0.2-0.1-0.4-0.1-0.6c0-0.1,0-0.1,0-0.2c0-0.3,0-0.4-0.1-0.6l-0.1-0.6l0-0.1l0-0.1
	c0-0.1,0-0.2-0.1-0.3c0-0.1-0.1-0.4-0.1-0.4c0-0.1,0-0.4-0.1-0.4c-0.1-0.1-0.3-1.6-0.4-2.2c-0.1-0.6-0.3-1.2-0.4-1.9l-0.1-0.3
	c0-0.1-0.1-0.3-0.1-0.4c0-0.1-0.1-0.3-0.1-0.4c0-0.1,0-0.2-0.1-0.2c0-0.1-0.1-0.3-0.1-0.3l0-0.4l0-0.1c0-0.4,0-0.4,0-0.5
	c0-0.1,0-0.3-0.1-0.4c0,0,0-0.4,0-0.6c0-0.2,0-0.4-0.1-0.6c0-0.1,0-0.2-0.1-0.3c0-0.1-0.1-0.3-0.1-0.4c-0.1-0.4-0.2-0.7-0.2-1.2
	c0-0.1-0.2-0.4-0.3-0.6c-0.1-0.2-0.3-0.4-0.3-0.6c0-0.1-0.1-0.2-0.1-0.3l0-0.1l0-0.1l0-0.1c0,0,0,0-0.1-0.1l-0.2-0.6
	c-0.1-0.3,0.2-1,0.3-1.2c0,0,0.1-0.1,0.1-0.2c0-0.1,0.1-0.2,0.2-0.3c0.1-0.1,0.1-0.1,0.1-0.1c0.1-0.1,0.1-0.2,0.1-0.3
	c0.1-0.3,0.8-1.8,0.9-1.9c0.1-0.1,0.2-0.1,0.4-0.1c0.1,0,0.4,0.8,0.5,1c0.1,0.4,0.3,0.7,0.6,1c0.2,0.2,0.4,0.5,0.6,0.7
	c0.3,0.2,0.6,0.4,0.7,0.7c0.2,0.3,0.3,0.6,0.4,1c0.1,0.4,0.1,0.9,0,1.2c-0.1,0.3-0.2,0.6-0.4,0.8l-0.1,0c-0.1,0.1-0.1,0.1-0.1,0.1
	c-0.1,0-0.1,0.1-0.1,0.1c-0.1,0.1-0.2,0.2-0.3,0.4c-0.1,0.2-0.2,0.4-0.2,0.7c0,0.3,0.2,1.1,0.4,1.7l0.2,0.7c0,0.1,0.1,0.2,0.1,0.4
	c0.1,0.1,0.1,0.3,0.1,0.5c0.2,1.4,0.6,3.8,0.8,4.5c0.3,0.9,0.5,2.4,0.7,3.6c0.3,1.5,0.8,4.5,0.8,4.9c0.1,1.7,0.3,3.9,0.3,5.3
	c0,0.6-0.1,1.2-0.2,1.8c-0.1,0.6-0.4,1.3-0.6,1.9c0,0.1-0.1,0.1-0.1,0.2l0,0.1c0,0.1,0,0.1-0.1,0.1c0,0.1-0.1,0.4-0.1,0.4
	c-0.1,0.2-0.3,0.9-0.3,1c0,0,0.3-0.2,0.3-0.2l0.1-0.1c0.1-0.1,0.1-0.1,0.2-0.2c0,0,0,0,0.1-0.1l0.1-0.1c0.1,0,0.2-0.1,0.2-0.2
	c0.1,0,0.1,0,0.1-0.1c0.1,0,0.1,0,0.1-0.1c0.2-0.1,0.3-0.2,0.5-0.4c0.6-0.4,1.2-0.9,1.8-1.4c0.6-0.5,1.3-1.2,1.9-1.8
	c0.2-0.2,0.6-0.6,1-0.9c0.1-0.1,0.2-0.1,0.2-0.2c0.1-0.1,0.2-0.1,0.3-0.2c0.1-0.1,0.4-0.3,0.5-0.4c0.5-0.5,1.3-0.9,1.9-1.3
	c0.4-0.2,0.7-0.4,1.2-0.6c0,0,0.2-0.1,0.2-0.1c0.1-0.1,0.1-0.1,0.2-0.1c0.1,0,0.1,0,0.2-0.1c0.1,0,0.1,0,0.1,0
	c0.3-0.1,0.6-0.2,0.9-0.2c0.4-0.1,1.1,0,1.6,0.1l0.1,0l0.7,0l0.1,0c0.2,0.1,0.4,0.1,0.7,0.1l0.1,0l0.2,0c0.1,0,0.2,0.1,0.4,0.1
	c0.1,0,0.3,0.1,0.3,0.1c0.1,0.1,0.2,0.1,0.3,0.1c0.9,0.3,1.7,0.9,2,1.8c0.1,0.2,0.1,0.8,0.1,1.2c0,0,0,0.2,0.1,0.3
	c0,0.2,0.1,0.4,0.1,0.6c0,0.9-2.5,5.4-2.9,5.8l-0.1,0c-0.1,0-0.1,0.1-0.2,0.1c0,0-0.2,0.2-0.3,0.3c-0.2,0.2-0.4,0.4-0.6,0.5
	c-0.1,0.1-0.2,0.2-0.3,0.2c-0.1,0.1-0.2,0.2-0.3,0.3c-0.1,0.1-0.2,0.2-0.3,0.2c-0.1,0.1-0.3,0.2-0.3,0.3c0,0,0.5-0.1,0.5-0.1
	l0.5-0.1l0.5-0.2c0.1,0,0.1,0,0.2,0c0.1,0,0.2-0.1,0.3-0.1c0.4-0.1,0.9-0.2,1.3-0.2c0.4,0,0.8-0.1,1.2-0.2c0.1,0,1.5-0.3,2.3-0.5
	c0.7-0.1,1.4-0.3,2.1-0.6c0.2-0.1,0.6-0.3,0.9-0.4c0.1,0,0.1-0.1,0.2-0.1l0.1,0c0.1,0,0.1,0,0.2-0.1c0.1,0,0.2-0.1,0.2-0.1
	c0.1-0.1,0.1-0.1,0.3-0.1c0.3-0.1,1.2-0.7,1.6-1c0.4-0.3,1-0.7,1.3-1.1c0,0,0.4-0.3,0.7-0.5c0.1-0.1,0.2-0.2,0.3-0.3
	c0.1-0.1,0.2-0.2,0.4-0.3c0.1-0.1,0.2,0,0.3,0.1c0.1,0.1,0.2,0.3,0.2,0.5c0,0.1,0.1,0.2,0.1,0.4l0,0.2l0,0.2c0,0.1,0,0.4,0.1,0.4
	l0.1,0l0.1,0c0,0,0,0,0.1,0.1c0,0,0.1,0.1,0.2,0.2c0.1,0.1,0.1,0.1,0.1,0.1l0.1,0.1l0.1,0l0.1,0c0.1,0.1,0.3,0.2,0.5,0.3
	c0.2,0.1,0.3,0.2,0.5,0.3c0.5,0.4,2.3,1.1,3.1,1.1c0.3,0,3.4-2.2,3.6-2.4c1-0.8,2.6-2.2,3.3-2.5c0.6-0.4,1.1-0.8,1.7-1.3
	c0.2-0.2,0.5-0.5,0.7-0.7c0.1-0.1,0.1-0.1,0.2-0.2c0.1-0.1,0.3-0.2,0.5-0.5c0.1-0.1,0.1-0.1,0.1-0.1c0.3-0.3,1.1-0.8,1.9-1.2
	c0.1-0.1,0.3-0.2,0.4-0.3c0.1-0.1,0.3-0.2,0.4-0.3c0.3-0.2,1-0.6,1-0.6l0.2-0.1c0.1,0,0.1,0,0.1,0c0.1,0,0.2-0.1,0.4-0.1
	c0.2-0.1,0.5-0.1,0.8-0.3c0,0,0.3-0.1,0.4-0.1l0.1,0l0.1,0l0.1,0l0.1,0c0,0,0.1,0,0.2,0c0.1,0,0.2,0,0.4-0.1c0.1,0,0.1-0.1,0.2-0.1
	c0.2-0.1,0.7-0.1,1-0.1c0.4,0,1.3,0.1,1.4,0.1c0.2,0,0.2,0,0.6,0c0,0,0.2,0,0.4,0.1c0.2,0,0.3,0.1,0.5,0.1c0,0,0.2,0.1,0.4,0.1
	c0.1,0,0.2,0,0.4,0.1c0.1,0,0.3,0,0.4,0.1l0.1,0c0.2,0,0.3,0,0.3,0.1l0.1,0l0.1,0c0,0,0.1,0,0.1,0.1c0.3,0.1,0.9,0.3,1,0.5
	c0.2,0.3,0.5,0.7,0.6,1c0,0.1,0,0.1,0.1,0.1c0.1,0,0.1,0,0.1,0.1c0.1,0.1,0.1,0.1,0.2,0.2c0.1,0.2,0.2,0.4,0.2,0.7
	c0.1,0.7-0.6,2.6-0.8,3c-0.2,0.4-0.5,0.8-0.6,1.1c-0.1,0.3-0.3,0.8-0.5,1.1c-0.1,0.2-1.2,1.6-1.3,1.7c-0.1,0.1-0.3,0.3-0.4,0.4
	c-0.1,0.1-0.3,0.3-0.4,0.4c-0.2,0.1-0.8,0.6-0.9,0.7c0,0,0.5-0.1,0.5-0.1l0.2,0l0.2,0l0.1,0l0.2,0c0.3,0,0.6-0.1,0.8-0.2
	c0,0,0.1,0,0.2,0l0.3,0l0.1,0c0.1,0,0.3,0,0.4-0.1c0.1,0,0.2-0.1,0.3-0.1l0.1,0l0.2,0c0.1,0,0.3,0,0.4-0.1c1-0.2,2.1-0.4,3.1-0.7
	c0.4-0.1,0.9-0.2,1.3-0.3c0.3,0,0.5-0.1,0.7-0.2c0.2-0.1,0.4-0.2,0.6-0.3c0.4-0.1,0.8-0.3,1.3-0.4c0.4-0.1,0.9-0.3,1.3-0.4
	c0.5-0.2,2-1.1,2.1-1.5c0.2-0.5-0.9-2.7-1.2-3c0-0.1-0.1-0.2-0.2-0.2l-0.1-0.1c0,0-0.1-0.1-0.2-0.2l0-0.1l-0.1-0.1l-0.1-0.1
	c0,0-0.1-0.1-0.1-0.2c-0.1-0.2-0.3-0.4-0.6-0.7c-0.1-0.1-0.2-0.2-0.2-0.2c-0.1-0.2-0.3-0.3-0.4-0.4c-0.1-0.1-0.4-0.3-0.5-0.4
	c-0.1-0.1-0.7-0.8-0.8-0.9c-0.1-0.8,0.8-4.2,1.2-4.3c0.3-0.1,2.7,2.6,2.8,2.7c0.7,1.1,1.8,2.8,2,4c0.1,0.8,0,1.6-0.1,2.3
	c0,0.3-0.1,0.6,0,0.8c0.1,0.2,0.1,0.5,0.1,0.7c-0.1,0.4-0.2,0.7-0.4,1.1c-0.1,0.2-0.2,0.4-0.4,0.6l0,0.1c-0.1,0.1-0.1,0.2-0.1,0.2
	c-0.3,0.7-0.6,1.4-1,2c-0.5,0.8-1.6,1.5-2.5,2l-0.1,0.1c-0.1,0.1-0.2,0.1-0.3,0.1c-0.1,0-0.2,0.1-0.3,0.1c-0.1,0.1-0.2,0.1-0.3,0.2
	c-0.1,0.1-0.8,0.1-1.1,0.2c-0.2,0-0.3,0.1-0.4,0.1c-0.1,0-0.2,0.1-0.3,0.1c-0.5,0.1-0.9,0.2-1.2,0.4c-0.1,0.1-0.2,0.1-0.4,0.1
	c-0.2,0-0.4,0.1-0.6,0.1c-0.4,0.1-0.9,0.2-1,0.3c-0.4,0.2-1.8,0.3-2.6,0.4c-0.4,0-1,0.1-1.5,0.2c-0.6,0.1-1,0.1-1.7,0.2
	c-0.2,0-0.2,0-0.3,0.1c-0.1,0-0.2,0.1-0.3,0.1c0,0-0.2,0-0.3,0c-0.2,0-0.2,0-0.5,0c-0.1,0-0.4,0.1-0.6,0.1c-0.2,0-0.4,0.1-0.6,0.1
	c-0.1,0-0.1,0-0.2-0.1l-0.2-0.1c-0.1-0.1-1,0.1-1.1,0.2c-0.2,0.1-0.2,0.1-0.5,0.1c-0.5,0-1.1,0-1.5,0c-0.4,0-0.8,0-1.2,0
	c0,0-0.4,0-0.7,0c-0.3,0-0.8,0-1,0c-0.3,0-0.9,0-1.1,0c-0.4,0-1,0-1.2,0.1c-0.3,0-0.6,0.1-0.8,0.1c-0.2,0-0.3,0-0.5,0
	c-0.1,0-0.2,0.1-0.3,0.1l-0.1,0l-0.1,0c-0.2,0-0.2,0-0.4,0c-0.2,0-0.4,0-0.6,0c-0.1,0-0.7,0-1.1,0l-0.1,0l-0.1,0l-0.2,0
	c-0.3,0-0.7,0-0.9,0c-0.1,0-0.1,0-0.2-0.1c-0.1,0-0.1-0.1-0.1-0.1c-0.1,0-0.2,0-0.4,0.1c-0.2,0-1-0.1-1.2-0.1
	c-0.3-0.1-0.6-0.2-0.8-0.2c-0.3,0.1-0.5,0.1-0.7,0c-0.1-0.1-0.2-0.1-0.4,0c-0.2,0-0.3,0-0.4-0.1c-0.1-0.1-0.9-0.2-1-0.2
	c-0.4,0.2-0.8,1.5-1,2c-0.1,0.4-0.3,0.9-0.4,1.2c-0.1,0.2-0.1,0.4-0.1,0.6c0,0.2-0.2,0.6-0.3,0.7l0,0.1l0,0.1l0,0.1
	c0,0.1-0.1,0.2-0.2,0.2c-0.1,0.1-0.2,0.3-0.4,0.4c-0.1,0.1-0.3,0.1-0.4,0.1c-0.3-0.2,0.5-2.9,0.6-3.3l0-0.1l0-0.2l0-0.1
	c0-0.1,0.1-0.3,0.1-0.4c0-0.1,0-0.1,0-0.1l0.1-0.2l0-0.1c0-0.1,0-0.2,0.1-0.2c0-0.1,0.1-0.3,0.1-0.3c0-0.1,0.1-0.2,0.1-0.3l0-0.1
	l0.1-0.2c0-0.1,0.1-0.3,0.1-0.3c0,0-0.3-0.2-0.4-0.2c-0.1,0-0.2-0.1-0.3-0.2c-0.1-0.1-0.2-0.2-0.3-0.2c-0.2,0-0.4-0.1-0.5-0.1
	c-0.1,0-0.4-0.4-0.6-0.6c-0.1-0.1-0.1-0.1-0.2-0.1c0,0-0.2-0.1-0.2-0.1c-0.1-0.1-0.1-0.1-0.2-0.1c0,0-0.2,0-0.2-0.1
	c-0.1-0.1-0.1-0.3-0.1-0.5l0-0.1l0-0.1c0-0.1,0-0.3,0-0.4c0,0,0-0.3-0.1-0.3c-0.3,0.3-0.8,0.8-0.9,0c0,0-0.4,0.2-0.4,0.2
	c-0.1,0-0.2,0.2-0.3,0.3c-0.2,0.2-0.5,0.3-0.7,0.5c0,0-0.1,0.1-0.2,0.1c0,0-0.2,0.1-0.2,0.1c-0.1,0.1-0.2,0.2-0.4,0.2
	c-0.1,0.1-0.3,0.1-0.4,0.2c-0.2,0.1-0.3,0.2-0.5,0.3c-0.3,0.2-1.1,0.6-1.6,0.8c-0.2,0.1-0.4,0.1-0.6,0.2c-0.2,0-0.3,0.1-0.5,0.1
	c-0.1,0-0.3,0.1-0.5,0.2c-0.2,0.1-0.4,0.2-0.6,0.2c-0.6,0.1-1.5,0.2-1.7,0.3c-0.2,0.1-0.5,0.2-0.8,0.2c-0.9,0.2-3,0.6-3.5,0.4
	c-0.3-0.1-1.3,0.1-1.7,0.1c-0.3,0.1-1.4,0.2-1.4,0.2c-0.3,0-0.6,0-0.8,0c-0.2,0-0.5,0-0.8,0c-0.1,0-0.2,0-0.3,0.1
	c-0.1,0-0.2,0.1-0.2,0.1c-0.1,0-1,0-1.4,0.1c-0.8,0-1.6,0.1-2.3,0.1l-0.1,0c-0.1,0-0.1,0-0.4,0l-0.2,0c-0.1,0-0.1,0-0.4,0
	c-0.1,0-0.3,0-0.4,0.1c-0.1,0-0.3,0.1-0.3,0.1c-1,0-2.9,0.1-3.3,0.1c-0.4,0-0.4,0-0.8,0l-0.3,0l-0.1,0l-0.1,0c-0.8,0-1.7,0-2.6,0
	c-0.6,0-1.1,0-1.6,0c-0.5,0-0.9,0-1.3,0l-0.3,0l-0.5,0l-0.1,0c-0.1,0-0.1,0-0.2,0.1l-0.1,0c-0.2,0.1-0.4,0-0.8,0c-0.1,0-0.6,0-1,0
	c-0.4,0-0.6,0-0.9,0c-0.2,0-0.9,0-0.9,0l-0.1,0l-0.2,0l-0.1,0l-0.3,0l-0.1,0c-0.1,0-0.2,0-0.3-0.1c-0.2-0.1-0.4-0.1-0.6-0.1
	c-0.2,0-0.5,0-0.7,0c-0.3,0-0.4,0-0.5,0.1c0,0-0.7,0.1-0.7,0c0,0-0.3-0.3-0.4-0.3c-0.1-0.1-0.1-0.1-0.6-0.1c-0.1,0-0.2-0.1-0.3-0.1
	c-0.1,0-0.1-0.1-0.2-0.1c-0.1,0-0.3-0.1-0.4-0.1l-0.3,0l-0.1,0c-0.2,0-0.5-0.1-0.7-0.2c-0.1,0-0.3-0.1-0.3-0.1
	c-0.1-0.1-0.2-0.1-0.3-0.1c-0.1,0-0.1,0-0.5,0c-0.1,0-0.4,0-0.5-0.1c-0.2-0.1-0.5-0.2-0.5-0.2c-0.1-0.1-0.2,0-0.3,0
	c-0.1,0-0.3,0.1-0.4,0c-0.1,0-0.2-0.1-0.2-0.2c-0.1-0.1-0.1-0.2-0.3-0.2s-0.2-0.1-0.4-0.2c-0.1,0-0.1,0-0.2-0.1
	c-0.1,0-0.1-0.1-0.2-0.1c-0.1,0-0.1-0.1-0.2-0.2c0,0-0.2-0.1-0.3-0.2c-0.1-0.1-0.2-0.1-0.4-0.2c-0.2-0.1-0.2-0.1-0.3-0.2
	c-0.2-0.2-0.3-0.4-0.5-0.6c-0.1-0.1-0.2-0.2-0.3-0.3c-0.1-0.1-0.2-0.2-0.3-0.3c-0.2-0.2-0.4-0.6-0.5-0.7c-0.1-0.1-0.2-0.2-0.3-0.3
	c-0.1-0.1-0.3-0.2-0.3-0.3c0,0,0-0.1,0-0.2c0-0.1-0.1-0.2-0.1-0.3c0-0.1-0.1-0.3-0.2-0.5c-0.1-0.3-0.3-0.7-0.4-0.9
	c-0.2-0.6-0.5-1.2-0.6-1.9c0-0.1-0.4,0.1-0.4,0.2l-0.1,0.1l0,0.1c0,0.1-0.1,0.1-0.1,0.2c-0.2,0.2-0.3,0.4-0.5,0.5
	c-0.2,0.2-0.4,0.3-0.6,0.4c-0.1,0.1-0.2,0.1-0.3,0.2l-0.2,0.2c-0.1,0.1-0.1,0.1-0.1,0.1c-0.1,0.1-0.4,0.5-0.6,0.7
	c-0.2,0.3-0.4,0.5-0.6,0.7c-0.1,0.1-0.3,0.1-0.5,0.1c-0.1,0-0.4,0.1-0.6,0.1c-0.2,0-0.4,0.1-0.5,0.1c-0.2,0.1-0.2,0.1-0.6,0.1
	c-0.2,0-0.4,0-0.5,0.1c-0.2,0.1-2.7,0-2.9,0l-0.1,0l-0.1,0l-0.5,0c-0.2,0-0.5,0-0.7-0.1c-0.3,0-0.6,0-0.9,0c-0.4,0-0.6,0-0.8-0.1
	c-0.2-0.1-0.4-0.2-0.5-0.3c-0.2-0.3,0.3-1.4,0.5-1.8c0-0.1,0-0.1,0.1-0.2c0-0.1,0-0.3,0.1-0.4c0,0,0.1-0.3,0.2-0.5l0-0.1
	c0-0.1,0.1-0.1,0.1-0.2c0.1-0.1,0.1-0.3,0.2-0.4c0.1-0.3,0.2-0.5,0.3-0.7c0.1-0.2,0.3-0.5,0.4-0.7C442.7,67.7,443.1,66.9,443.3,66.7
	z"/>
<path class="st0" d="M719.9,72.7c0.8,0.3,1.3-0.4,1.6-0.8c0.2-0.3-0.8-1-0.9-1.1c-0.5-0.2-0.9,0.4-1.1,0.7
	C719.1,72.1,719.3,72.6,719.9,72.7z"/>
<path class="st0" d="M706.1,83.7c0.2,0.1,0.7,0.8,1,1.2c0.2,0.3,0.3,0.4,0.2,0.8c0,0.1-0.1,0.4-0.1,0.4c0,0.1-0.1,0.1-0.1,0.2l0,0.1
	c-0.1,0.1-0.1,0.1-0.1,0.1c0,0-0.4,0.3-0.5,0.4c-0.2,0.2-0.5,0.4-0.6,0.5c-0.3,0.4-0.7,1-1.1,1c0,0-2.5-1.6-2.6-1.7
	c-0.4-0.3-1.1-0.8-1.1-1c0-0.3,0.2-0.7,0.4-0.9c0,0,0.2-0.2,0.2-0.3c0.1-0.1,0.2-0.2,0.2-0.4c0,0,0,0,0.1-0.1
	c0.1-0.1,0.1-0.1,0.1-0.2c0.1-0.1,0.1-0.2,0.1-0.3c0-0.2,0.3-0.5,0.4-0.7c0.1-0.2,0.1-0.2,0.1-0.2c0-0.1,0.2-0.3,0.2-0.3
	c0.2-0.2,0.4-0.4,0.7-0.4C704,81.9,706,83.6,706.1,83.7z"/>
<path class="st0" d="M687.9,41.4c0.1-0.2,0.1-0.4,0.3-0.5c0,0,0.2-0.1,0.3-0.1c0.1,0,0.2-0.1,0.3-0.1c0.1,0,0.2-0.1,0.2-0.1
	c0,0,0.2-0.1,0.3-0.2l0.5-0.3l0.1,0c0.1,0,0.1,0,0.2-0.1c0,0,0.2-0.1,0.2-0.1l0.1,0c0.7-0.3,1.9-0.9,2.2-1.1
	c1.4-0.6,3.3-1.5,4.3-1.9l2.2-1c0.8-0.3,1.7-0.7,2.3-1c0.7-0.4,1.5-0.7,2.2-1c0.3-0.1,0.7-0.3,1-0.5c0.1,0,0.2-0.1,0.2-0.1
	c0.1-0.1,0.2-0.1,0.3-0.2c0.2-0.1,0.4-0.2,0.5-0.3c0.2,0,0.3,0,0.4,0.1c0.1,0.2,0.2,0.3,0.3,0.5c0,0.2-0.1,0.5-0.1,0.7
	c-0.1,0.2-0.2,0.4-0.2,0.6c-0.1,0.3-0.2,0.6-0.4,0.8c0,0-0.1,0.1-0.2,0.1c-0.1,0-0.2,0.1-0.2,0.1c-0.1,0.1-0.3,0.2-0.4,0.3
	c0,0-0.1,0.1-0.1,0.1c0,0-0.1,0-0.1,0c-0.2,0.1-0.4,0.2-0.5,0.3c-0.3,0.2-0.7,0.4-1,0.5c-0.3,0-0.7,0.2-0.9,0.4
	c-0.6,0.3-1.4,0.7-2.1,1c-0.1,0.1-0.3,0.1-0.4,0.2c-0.2,0-0.3,0.1-0.5,0.2c-0.3,0.1-0.7,0.3-1,0.4c-0.6,0.4-1.4,0.7-2.1,0.9
	c-1.4,0.5-2.7,1.1-4,1.7c-0.3,0.1-1.2,0.6-1.8,1c-0.5,0.3-1.5,0.8-1.8,0.9c-0.1,0-0.3,0-0.4-0.1c-0.2-0.2,0.1-0.9,0.2-1.1l0.1-0.1
	l0.1-0.1l0-0.1l-0.1-0.2C687.9,41.7,687.9,41.5,687.9,41.4z"/>
<path class="st0" d="M678.1,52.2c0-0.2,0.2-0.7,0.3-0.7c0,0,0.2-0.2,0.2-0.3c0.1-0.1,0.2-0.2,0.3-0.3c0.1-0.1,0.2-0.2,0.3-0.2
	c0.1-0.1,0.2-0.2,0.3-0.3c0.4-0.4,0.8-0.8,1.1-1.1c0.4-0.3,1.1-0.5,1.7-0.7c0.5-0.1,0.9-0.1,1.5-0.1c0.7,0,1.4,0.1,2,0.3
	c0.2,0,0.4,0.1,0.5,0.1c0.2,0,0.4,0.1,0.5,0.1c0.4,0.1,1.1,0.2,1.3,0.3c0.4,0.1,1.4,0.2,1.6,0.3c0.1,0.1,0.2,0.2,0.3,0.4
	c0.1,0.4-0.4,1.8-0.6,2c-0.3,0.4-0.7,0.8-1.1,1c0,0,0,0-0.1,0.1c0,0-0.1,0.1-0.1,0.1c-0.1,0-0.1,0.1-0.2,0.1c-0.1,0-0.1,0.1-0.2,0.1
	c-0.1,0.1-0.2,0.2-0.3,0.2c-0.1,0.1-0.2,0.2-0.3,0.3c0,0-0.3,0.2-0.4,0.3l-0.1,0.1c-0.1,0.1-0.4,0.3-0.7,0.4
	c-0.2,0.1-0.6,0.4-0.7,0.4c0,0,0,0-0.1,0.1c-0.1,0-0.1,0.1-0.3,0.1l-0.1,0c0,0-0.1,0.1-0.2,0.1c-0.5,0.3-1.2,0.7-1.7,0.6
	c-0.2,0-0.6,0.2-0.8,0.3c-0.2,0.1-0.6,0.3-0.8,0.3c-0.3,0-0.8-0.1-0.9-0.3c0,0,0.1-0.2,0.2-0.4c0.1-0.1,0.5-0.4,0.7-0.4
	c0.3-0.1,0.5-0.3,0.8-0.5c0.2-0.1,0.8-0.6,1.4-1c0.2-0.2,0.5-0.3,0.7-0.5l0.4-0.3c0.1,0,0.1,0,0.1-0.1c0.1-0.1,0.2-0.1,0.3-0.2
	c0.1-0.1,0.2-0.2,0.4-0.2c0.2-0.1,0.3-0.2,0.4-0.3c0.1-0.1,0.3-0.2,0.3-0.2c0.1-0.1,0.3-0.2,0.4-0.3c0,0-1.1-0.3-1.2-0.3
	c-0.4-0.1-1.1-0.2-1.4-0.3c-0.5-0.1-1.3-0.2-1.7,0c0,0-0.3,0.1-0.4,0.1c-0.1,0-0.3,0.1-0.4,0.1c-0.3,0.1-0.5,0.2-0.8,0.3
	c-0.4,0.2-0.8,0.5-1.2,0.9c-0.2,0.1-0.4,0.3-0.5,0.5l-0.3,0.3c-0.1,0.1-0.1,0.1-0.1,0.1c0,0-0.1,0.1-0.2,0.1
	c-0.4,0.3-0.4-0.1-0.2-0.4c0-0.1,0.1-0.3,0.1-0.4l-0.1-0.2l0-0.1C678.1,52.5,678.1,52.3,678.1,52.2z"/>
<path class="st0" d="M646.8,49.7c0,0,0.1-0.1,0.2-0.1c0.1,0,0.1-0.1,0.2-0.1l0.3,0c0.1,0,0.2-0.1,0.3-0.1c0.1,0,0.2-0.1,0.3-0.1
	c0.1,0,0.5-0.2,0.5-0.2c0.1-0.1,0.3-0.2,0.5-0.3c0.7-0.3,1.4-0.7,2-1c0.3-0.2,0.7-0.4,1.1-0.5l0.1,0l0.1-0.1l0.1,0l0.1,0
	c0,0,0,0,0.1-0.1l0.1,0l0.1,0c0.1,0,0.1-0.1,0.2-0.1c0.1,0,0.1,0,0.1-0.1c0,0,0.1,0,0.1-0.1c0.1,0,0.2-0.1,0.2-0.1
	c0.1-0.1,0.2-0.1,0.3-0.1l0.2-0.1c0.1,0,0.1,0,0.2-0.1c0.1-0.1,0.2-0.1,0.3-0.2c0.1,0,0.2-0.1,0.2-0.1c0.1-0.1,0.2-0.1,0.3-0.1
	c0.1,0,0.4-0.1,0.4-0.1c0.1,0,0.3-0.1,0.3-0.1c0.1,0,0.1-0.1,0.2-0.1c0.2,0,0.2-0.1,0.4-0.1c0,0,0.2-0.1,0.3-0.1c0,0,0.1,0,0.2-0.1
	l0.1,0c0,0,0.3-0.2,0.5-0.2c0.1-0.1,0.4-0.2,0.6-0.3c0.7-0.3,1.4-0.6,2.1-1c0.6-0.4,1.4-0.8,2.1-1.1c0.2-0.1,0.4-0.2,0.5-0.3
	c0.2-0.1,0.4-0.2,0.6-0.3c0.4-0.2,0.7-0.4,1.2-0.5c0.3-0.1,0.5,0.3,0.6,0.5c0,0.2-0.1,0.6-0.2,0.9c-0.1,0.2-0.1,0.4-0.2,0.6
	c0,0.2-0.2,0.5-0.3,0.6c-0.1,0.1-0.2,0.1-0.3,0.2c-0.1,0-0.1,0-0.2,0.1c-0.1,0-0.1,0-0.2,0.1c-0.2,0.1-1.5,0.7-2.3,1.1
	c-0.2,0.1-0.4,0.2-0.5,0.3c-0.1,0.1-0.3,0.2-0.3,0.2c-0.1,0.1-0.1,0.1-0.2,0.1l-0.1,0.1c-0.1,0.1-0.1,0.1-0.2,0.1l-0.1,0l-0.1,0.1
	c0,0,0,0-0.1,0.1c-0.1,0-0.1,0-0.1,0.1c-0.1,0-0.1,0-0.2,0.1c-0.1,0-0.2,0.1-0.3,0.2c-0.8,0.4-1.9,0.9-2.6,1.2
	c-0.7,0.3-2.3,0.9-2.4,0.9c-0.6,0.3-1.6,0.7-2.5,1.1c-0.4,0.2-0.8,0.4-1.2,0.6c-0.4,0.2-1,0.6-1.2,0.7c-0.2,0.1-0.4,0.2-0.6,0.3
	c-0.1,0-0.2,0.1-0.3,0.1c-0.1,0-0.2,0.1-0.3,0.2c-0.2,0.1-0.4,0.2-0.6,0.3c0,0-0.1,0.1-0.2,0.2c0,0-0.2,0.1-0.3,0.1
	c-0.1,0-0.5,0.1-0.5,0l-0.1-0.1c-0.1-0.1,0-0.2,0-0.3c0-0.2,0.1-0.4,0.1-0.5c0.1-0.2,0.2-0.5,0.2-0.6l0-0.1c0-0.1,0-0.1,0-0.2
	c0-0.1,0-0.3,0-0.5C646.6,50,646.6,49.8,646.8,49.7z"/>
<path class="st1" d="M645.3,77.5c0.1,0,0.7-0.1,1.3-0.2c0.2,0,0.5-0.1,0.7-0.1c0.2,0,0.6-0.1,0.6-0.1c1.5-0.1,3-0.2,4.4-0.5
	c0.2,0,0.6-0.1,0.8-0.1c0.3,0,0.4-0.1,0.6-0.1c0.3-0.1,0.7-0.2,1-0.3c0.7-0.1,1.4-0.4,2-0.7c0.5-0.2,1-0.4,1.4-0.6
	c0.1-0.1,0.2-0.1,0.3-0.2c0.1-0.1,0.2-0.1,0.4-0.2c0,0,0.2-0.1,0.3-0.2c0.1-0.1,0.2-0.1,0.4-0.2c0.5-0.2,2.3-1.3,2.5-1.7
	c0.1-0.3-1.9-1.7-2.1-1.8c-0.9-0.4-1.9-0.9-3.1-1c-0.1,0-0.3,0-0.4-0.1c-0.1,0-0.3,0-0.7-0.1l-0.2,0c-0.2,0-0.2,0-0.5,0
	c-0.4,0-0.9-0.1-1.1,0c0,0-0.5,0.1-0.6,0.1c-0.4,0-0.5,0-0.7,0.1c-0.2,0-0.4,0.1-0.6,0.1c-1.2,0.4-2.3,1.2-3.4,2
	c-0.9,0.7-2.6,1.9-2.9,2.3c-0.2,0.2-0.4,0.4-0.7,0.6c-0.2,0.2-0.5,0.4-0.7,0.5c-0.1,0.1-0.3,0.2-0.3,0.2c-0.1,0.1-0.2,0.2-0.3,0.3
	c-0.2,0.2-0.6,0.4-0.7,0.6c-0.5,0.4-1,0.7-1.5,1.1c-0.1,0.1-0.2,0.2-0.3,0.2l-0.1,0.1l0.4,0l0.7,0h0.7l1.1,0l0.7,0
	c0.1,0,0.1,0,0.2,0C645.1,77.5,645.2,77.5,645.3,77.5z"/>
<path class="st0" d="M600.2,28.3c0,0,0.1-0.1,0.2-0.1l0.1,0l0.1,0l0.1,0c0.2-0.1,0.3-0.1,0.5-0.2c0,0,0.2-0.1,0.2-0.1l0.1,0
	c0,0,0,0,0.1-0.1c0.1,0,0.2-0.1,0.3-0.1c0.1,0,0.2-0.1,0.2-0.1c0.3-0.1,0.5-0.2,0.8-0.4c0.3-0.2,0.7-0.3,1-0.5
	c0.1,0,0.9-0.4,1.7-0.8c0.5-0.2,1.8-0.8,1.8-0.8c1.2-0.4,2.4-0.9,3.5-1.4c0.8-0.4,3.5-1.5,3.5-1.5c0.4,0,0.6,0.2,0.6,0.6
	c0,0.3-0.5,1.8-0.6,1.9c-0.3,0.4-2.5,1.3-3.5,1.6c-0.2,0.1-0.7,0.3-1,0.4c-0.2,0.1-0.5,0.2-0.8,0.3c-0.3,0.1-0.6,0.3-0.9,0.4
	c-0.2,0.1-0.3,0.1-0.5,0.2c-0.2,0.1-0.4,0.1-0.6,0.2c-0.6,0.3-1.2,0.5-1.8,0.8c-0.3,0.1-0.6,0.3-0.9,0.4l-0.1,0l-0.1,0l-0.1,0
	l-0.1,0c0,0-0.1,0.1-0.1,0.1c-0.2,0.1-0.4,0.2-0.5,0.2c-0.2,0.1-1.2,0.5-1.9,0.9c-0.1,0-0.2,0.1-0.3,0.2c-0.1,0.1-0.3,0.2-0.3,0.2
	c-0.2,0.1-0.8,0.4-1,0.3c-0.3-0.2,0-1,0.1-1.2c0.1-0.1,0.1-0.2,0.1-0.4c0-0.2,0-0.6,0-0.7c0-0.1,0.1-0.2,0.1-0.3l0.1-0.1L600.2,28.3
	z"/>
<path class="st0" d="M601.2,71.6c0.4,0,0.8,0,1.2-0.1c0.4,0,0.7,0,1,0c0.4,0,1.1-0.1,1.6-0.1c0.4,0,0.7-0.1,1.1-0.2
	c0.1,0,0.4-0.1,0.4-0.1c0.1,0,0.3,0,0.4,0c0.1,0,0.8,0,0.8-0.1c0-0.1,0.6-0.6,0.7-0.6c0,0,0-0.3-0.1-0.3c0-0.1,0-0.1-0.1-0.2
	c0-0.1,0-0.1-0.1-0.2c0-0.1,0-0.1-0.1-0.2c-0.1-0.2-0.1-0.4-0.1-0.7c0-0.3-0.1-0.6-0.1-0.9c0-0.1-0.1-0.4-0.1-0.6l-0.1-0.6
	c0-0.2-0.1-0.4-0.1-0.5c0,0-0.1-0.1-0.1-0.2c-0.1-0.1-0.1-0.2-0.1-0.4c0,0-0.5,0.2-0.5,0.2c-0.2,0.1-0.4,0.2-0.5,0.2
	c-0.1,0.1-0.3,0.2-0.5,0.2c-0.2,0.1-0.3,0.2-0.5,0.3c-0.4,0.3-1.3,0.6-1.9,0.8c-0.1,0-0.2,0.1-0.3,0.1l-0.1,0.1
	c-0.1,0-0.3,0.1-0.4,0.2c-0.1,0.1-0.3,0.2-0.4,0.2c-0.1,0.1-0.3,0.2-0.4,0.3c-0.6,0.3-1.1,0.6-1.6,1.1c-0.2,0.1-0.9,0.8-1.4,1.3
	c-0.4,0.4-0.2,0.4,0.3,0.5c0.3,0.1,0.7,0.1,1,0.1C600.3,71.5,600.8,71.5,601.2,71.6z"/>
<path class="st0" d="M599.5,46.1c0.2-0.1,1.6,0.5,2.1,0.7c0.4,0.1,0.7,0.3,1,0.5c0.3,0.2,0.7,0.4,1,0.5c0.2,0,0.8,0,0.8,0
	c0.1-0.1,0.4-0.7,0.5-0.9c0.1-0.1,0.2-0.3,0.3-0.4c0.1-0.1,0.1-0.3,0.2-0.5c0.1-0.4,0.8-1.5,1.2-1.7c0.3-0.1,2.1,1.1,2.5,1.4
	c0.5,0.3,1.7,1.3,1.8,1.8c0.1,0.2-0.1,0.9-0.2,1c-0.1,0.2-0.4,0.4-0.6,0.6l-0.1,0.1l-0.1,0l-0.1,0l-0.1,0c0,0-0.1,0.1-0.2,0.1
	c0,0-0.1,0.1-0.1,0.1l0,0.1c0,0.1,0,0.1-0.1,0.1c-0.1,0.1-0.2,0.2-0.2,0.4c-0.1,0.2-0.4,0.4-0.6,0.4c-0.1,0-0.7-0.4-0.9-0.5
	c-0.3-0.2-0.6-0.4-1-0.5c-0.4-0.1-0.8-0.3-1.1-0.5c-0.2-0.1-1-0.6-1.1-0.5l0,0.1l0,0.1c0,0-0.1,0.1-0.1,0.2c0,0.1-0.1,0.2-0.2,0.3
	c0,0-0.4,0.3-0.5,0.5c-0.2,0.2-0.4,0.4-0.5,0.5l-0.1,0.2l-0.1,0.1c-0.1,0.1-0.1,0.2-0.2,0.3c-0.1,0.2-0.3,0.5-0.3,0.5
	c-0.2,0.3-0.5,0.6-0.8,0.7c-0.2,0.1-0.4,0-0.5-0.1c-0.1-0.1-0.3-0.2-0.5-0.3l-0.1,0l-0.1,0l-0.1,0c-0.1-0.1-0.1-0.1-0.2-0.1
	l-0.2-0.1c-0.1,0-0.1-0.1-0.2-0.1c-0.1,0-0.3-0.1-0.5-0.2l-0.1,0c-0.1,0-0.2-0.1-0.2-0.1c-0.2-0.1-0.4-0.2-0.6-0.3
	c-0.4-0.1-1-0.4-1.1-0.5c-0.3-0.2,0.1-1,0.2-1.2l0.1-0.1l0-0.1l0.1-0.1l0-0.1l0-0.1c0.1-0.2,0.3-0.4,0.3-0.5
	C598.4,47.7,599.2,46.1,599.5,46.1z"/>
<path class="st0" d="M591.1,36.8c0.1-0.2,0.1-0.5,0.3-0.5c0,0,0.3-0.1,0.4-0.1c0.1,0,0.3-0.1,0.4-0.2c0.2-0.1,0.5-0.3,0.8-0.4
	c0.5-0.2,1-0.4,1.6-0.6c0.6-0.1,1.2-0.4,1.7-0.7c0.2-0.1,1-0.4,1.5-0.5c0.5-0.2,1-0.4,1.5-0.5c0.4-0.1,1.7-0.7,1.7-0.7
	c0.5-0.2,1.1-0.3,1.6-0.5c0.4-0.2,1.5-0.6,1.8-0.6c0.1,0,0.3,0.2,0.4,0.3c0.1,0.2,0.1,0.4,0.1,0.6c-0.1,0.2-0.1,0.3-0.1,0.4
	c-0.1,0.1-0.1,0.3-0.1,0.4c-0.1,0.3-0.2,0.7-0.3,0.8l-0.1,0.1l-0.1,0.1c-0.1,0-0.1,0.1-0.2,0.1c-0.5,0.1-1.1,0.3-1.6,0.5
	c-0.4,0.2-1.1,0.4-1.4,0.5c-0.3,0.1-1,0.4-1.5,0.5c-0.1,0.1-0.3,0.1-0.4,0.2c-0.1,0.1-0.4,0.2-0.4,0.2c-0.3,0.1-0.8,0.3-0.9,0.3
	c-0.1,0.1-0.3,0.1-0.4,0.1c-0.1,0-0.3,0.1-0.4,0.1c-0.1,0-0.3,0.1-0.4,0.2l-0.2,0.1l-0.1,0c0,0-0.1,0-0.1,0.1c-0.1,0-0.1,0-0.1,0
	l-0.1,0l-0.1,0l-0.1,0.1l-0.1,0c0,0-0.1,0.1-0.2,0.1c-0.1,0-0.2,0.1-0.3,0.1c-0.1,0-0.2,0.1-0.4,0.1c-0.1,0-0.2,0.1-0.4,0.1l-0.1,0
	l-0.1,0l-0.1,0c-0.1,0-0.1,0-0.2,0c-0.3,0.1-0.6,0.2-0.8,0.3c-0.3,0.1-0.5,0.3-0.8,0.4c-0.2,0.1-0.7,0.3-0.8,0.4
	c-0.2,0.1-0.3,0-0.4-0.1c-0.2-0.2,0.1-1,0.2-1.1c0.1-0.1,0.1-0.3,0.1-0.4C591.1,37.2,591.1,37,591.1,36.8z"/>
<path class="st0" d="M437.5,41c0.1-0.2,0.2-0.5,0.4-0.6c0.1-0.1,0.2-0.1,0.2-0.1l0.1,0l0.1,0l0.1,0l0.2-0.1l0.7-0.3
	c0.2-0.1,0.4-0.2,0.7-0.3c0.3-0.1,0.6-0.2,0.8-0.4c0.9-0.4,1.8-0.9,2.8-1.3l2.9-1.3c0.1-0.1,0.4-0.2,0.6-0.2
	c0.3-0.1,0.5-0.2,0.7-0.3l0.7-0.3c0.1-0.1,0.3-0.1,0.4-0.2l0.2-0.1c0.1,0,0.2-0.1,0.2-0.1c0.2-0.1,0.3,0,0.4,0.1
	c0.1,0.1,0.1,0.4,0.1,0.6c-0.1,0.4-0.4,1.6-0.4,1.6c-0.1,0.2-0.3,0.4-0.4,0.5c-0.2,0.1-1.1,0.5-1.7,0.7l-0.1,0
	c-0.1,0-0.3,0.1-0.3,0.1c-0.1,0-0.2,0.1-0.2,0.1l-0.1,0l-0.2,0c-0.3,0.1-0.6,0.2-0.9,0.3c-1,0.4-2,0.9-3.1,1.3
	c-0.5,0.2-1.6,0.7-1.7,0.7c-0.4,0.3-1.1,0.6-1.5,0.8c-0.3,0.1-0.9,0.4-1.5,0.7c-0.5,0.2-0.6,0-0.5-0.6c0-0.1,0-0.3,0.1-0.4
	c0-0.2,0-0.4,0.1-0.5C437.4,41.3,437.5,41.2,437.5,41z"/>
<path class="st0" d="M444,44.8c0.1,0,0.3-0.1,0.4-0.1c0.3,0.1,0.6,0.3,0.8,0.4c0.1,0.1,0.3,0.2,0.5,0.2c0.2,0.1,0.3,0.1,0.5,0.3
	c0.1,0.1,0.3,0.2,0.4,0.2c0.2,0.1,0.3,0.1,0.5,0.3c0.1,0.1,0.2,0.2,0.3,0.3c0,0,0.2,0.1,0.2,0.1l0.1,0l0.1,0c0,0,0.2,0,0.2,0.1
	c0,0,0,0.1,0,0.2c0,0.3,0.1,0.6,0.1,0.9c0,0.3-0.3,0.6-0.5,0.8c-0.2,0.2-0.4,0.5-0.5,0.8c-0.2,0.5-0.7,1.3-1.2,1.4
	c-0.2,0.1-0.4,0-0.5-0.2c-0.1-0.1-0.3-0.2-0.5-0.3c-0.1,0-0.2-0.1-0.3-0.2c-0.1-0.1-0.1-0.1-0.1-0.1c-0.2-0.1-0.4-0.2-0.6-0.3
	c-0.1-0.1-0.4-0.2-0.4-0.2c-0.1,0-0.1-0.1-0.2-0.1c-0.1,0-0.2-0.1-0.3-0.1c-0.4-0.2-0.9-0.4-0.9-0.5c-0.1-0.1-0.1-0.4,0-0.6
	c0.3-0.6,0.7-1.3,0.8-1.8C443.1,46.2,443.7,45.4,444,44.8z"/>
<path class="st0" d="M452.8,68c0.1-0.1,0.1-0.2,0.1-0.3c0-0.1,0-0.2-0.1-0.3c0,0,0-0.2-0.1-0.3c0-0.2-0.1-0.5-0.1-0.7
	c0-0.2-0.1-0.5-0.1-0.7c0-0.1-0.1-0.4-0.1-0.6c0-0.2-0.1-0.4-0.1-0.5c-0.1-0.3-0.2-0.9-0.3-1.3c0-0.1-0.2,0.2-0.2,0.2
	c-0.1,0.1-0.1,0.1-0.2,0.3c-0.1,0.1-0.2,0.2-0.3,0.2l-0.2,0.1c-0.1,0-0.1,0-0.2,0.1c-0.4,0.2-1,0.5-1.3,0.7c-1,0.4-2.5,1.1-3,1.4
	c-0.6,0.4-1.5,1-1.9,1.3c0,0-0.2,0.3-0.4,0.4l-0.1,0.1c-0.1,0.1-0.1,0.1-0.2,0.1l-0.2,0.1c-0.1,0.1-0.3,0.3-0.3,0.5
	c0,0.1-0.3,0.6-0.3,0.6c0,0,3.8,0.2,3.9,0.2c1.2-0.1,2.3-0.3,3.4-0.5c0,0,0.2-0.1,0.3-0.2l0.1,0c0,0,0,0,0.1-0.1
	c0,0,0.2-0.1,0.2-0.2c0.1,0,0.2-0.1,0.3-0.2C452,68.2,452.8,67.8,452.8,68z"/>
<path class="st0" d="M446.1,32.4c0.1-0.2,0.4-0.7,0.5-0.8c0.3-0.1,0.5-0.2,0.7-0.4c0,0,0.4-0.2,0.7-0.3c0.5-0.2,1-0.5,1.5-0.7
	c0.7-0.3,2.1-0.9,3.2-1.5c0.3-0.1,0.6-0.3,0.8-0.4c0.1-0.1,0.2-0.1,0.4-0.2l0.2-0.1l0.1,0c0.1,0,0.1,0,0.2-0.1l1.5-0.6
	c0.4-0.2,1.5-0.7,1.5-0.7c0.1-0.1,0.2-0.1,0.4-0.2l0.1,0l0.1,0l0.1,0c0.1,0,0.1,0,0.2-0.1c0.2-0.1,0.7-0.4,0.8-0.1
	c0.2,0.5-0.2,1.7-0.4,2.1c-0.2,0.3-2.4,1.5-2.8,1.6c-1.1,0.4-2.2,0.9-3.3,1.4c-0.1,0.1-0.2,0.1-0.3,0.1c-0.1,0-0.2,0.1-0.3,0.2
	l-0.1,0l-0.1,0l-0.1,0l-0.1,0l-0.1,0c-0.1,0-0.2,0.1-0.3,0.1c-0.1,0-0.1,0.1-0.2,0.1c-0.2,0.1-0.5,0.3-0.7,0.4
	c-0.3,0.1-0.7,0.3-0.8,0.4c0,0-0.3,0.1-0.4,0.2c-0.1,0.1-0.3,0.1-0.4,0.2l-0.8,0.4c-0.2,0.1-0.5,0.3-0.7,0.4
	c-0.2,0.2-0.6,0.4-0.7,0.4c-0.1,0-0.4,0-0.4-0.1c-0.2-0.2,0-0.7,0.1-0.9c0.1-0.1,0.1-0.3,0.1-0.5C446.1,32.7,446.1,32.4,446.1,32.4z
	"/>
<path class="st0" d="M450,43.4c0.1-0.1,0.3-0.2,0.4-0.2c0,0,0.2,0.1,0.2,0.1c0,0,0.1,0.1,0.1,0.1c0.1,0.1,0.1,0.1,0.2,0.1
	c0.1,0.1,0.1,0.1,0.1,0.1c0.1,0.1,0.3,0.2,0.3,0.2c0.1,0,0.2,0.1,0.2,0.1c0.1,0,0.1,0.1,0.2,0.1c0.2,0.1,0.4,0.2,0.7,0.4
	c0.2,0.1,0.6,0.3,0.7,0.4c0.2,0.3,0.5,0.7,0.5,1c0.1,0.2,0.1,0.6,0,0.8c-0.2,0.5-0.6,0.8-1,1.1c-0.2,0.1-0.3,0.4-0.5,0.6
	c-0.1,0.2-0.3,0.5-0.5,0.7c-0.1,0.1-0.3,0.1-0.4,0.1c-0.1-0.1-0.2-0.1-0.4-0.2c-0.1,0-0.3-0.1-0.4-0.3c-0.2-0.1-0.5-0.4-0.7-0.5
	c-0.4-0.1-1.5-0.6-1.6-1c-0.1-0.3,0.2-0.9,0.3-1.1c0-0.1,0.1-0.2,0.1-0.3l0-0.1l0-0.1c0-0.1,0.1-0.1,0.1-0.2
	c0.1-0.1,0.1-0.2,0.1-0.3c0.1-0.3,0.3-0.6,0.5-0.9C449.6,44.1,450,43.4,450,43.4z"/>
<path class="st1" d="M494.6,70c0.4-0.2,1.2-0.7,1.3-0.8l0.2-0.1l0.2-0.1l0.1-0.1l0.1,0c0.1-0.1,0.5-0.5,0.5-0.5
	c-0.1-0.3-0.2-0.5-0.4-0.7c-0.2-0.2-0.8-0.6-1.1-0.7c-0.1,0-0.2-0.1-0.3-0.2c-0.1-0.1-0.3-0.2-0.4-0.2c-0.1,0-0.1,0-0.2-0.1l-0.1,0
	l-0.1,0c-0.1,0-0.2-0.1-0.4-0.1c-1.1-0.4-3.4-0.7-4.4-0.1l-0.1,0c-0.1,0-0.1,0-0.2,0.1l-0.1,0l-0.1,0l-0.1,0c0,0-0.1,0.1-0.2,0.1
	c-0.1,0-0.1,0.1-0.2,0.1c-0.1,0.1-0.3,0.2-0.4,0.2c-0.1,0-0.1,0.1-0.2,0.1C488,67,488,67,488,67c0,0-0.1,0-0.1,0.1
	c-0.1,0.1-0.8,0.6-1.3,1c-0.2,0.2-0.5,0.4-0.7,0.6c-0.2,0.2-0.5,0.4-0.7,0.6c-0.1,0.1-0.2,0.2-0.3,0.3c-0.1,0.1-0.2,0.2-0.3,0.3
	c-0.1,0.1-0.3,0.2-0.3,0.3c-0.1,0.1-0.2,0.2-0.4,0.3c-0.2,0.2-0.5,0.4-0.6,0.6c-0.2,0.2-0.5,0.4-0.7,0.6c-0.1,0.1-0.2,0.2-0.4,0.3
	c-0.1,0.1-0.2,0.2-0.4,0.3c-0.1,0.1-0.3,0.2-0.4,0.3c-0.1,0.1-0.3,0.2-0.4,0.3c-0.3,0.2-0.5,0.4-0.8,0.6c-0.1,0.1-0.3,0.2-0.4,0.3
	c-0.1,0.1-0.5,0.3-0.5,0.3c0,0,0.7-0.1,0.7-0.1c0.2,0,0.4-0.1,0.7-0.1c0.4-0.1,0.6-0.1,1-0.2c0.1,0,0.3,0,0.4,0c0.3,0,0.6,0,0.7-0.1
	c0.2,0,0.3-0.1,0.5-0.1l0.1,0l0.1,0l0.3-0.1c0.1,0,0.1,0,0.2,0l0.1,0c0,0,0.3,0,0.4,0c0.3,0,1.2-0.3,1.7-0.4l1.2-0.2l0.1,0l0.2,0
	c0.1,0,0.2,0,0.2-0.1c0.1,0,0.2-0.1,0.3-0.1c0.1,0,0.2-0.1,0.3-0.1l0.1,0l0.1,0c0.1,0,0.2,0,0.3-0.1c0.2,0,0.3-0.1,0.5-0.1
	c0.1,0,0.3-0.1,0.4-0.1c0.1-0.1,0.3-0.1,0.4-0.2c0.6-0.2,1.1-0.3,1.6-0.6c0.4-0.2,1-0.5,1.5-0.6C493.4,70.5,494.1,70.2,494.6,70z"/>
<path class="st0" d="M483.9,47.1c0-0.2,0.4-0.6,0.5-0.7c0.6-0.3,1.2-0.6,1.9-0.9c0.3-0.1,0.7-0.3,1-0.4c0.1-0.1,0.8-0.4,1.2-0.6
	l0.1,0l0.1,0l0.1,0l0.2-0.1c0.1,0,0.1,0,0.2-0.1c0.1-0.1,0.1-0.1,0.2-0.1c0.1,0,0.1,0,0.2-0.1l0.1,0l0.1,0l0.1,0l0.1-0.1l0.1,0
	l0.1,0l0.1-0.1l0.1,0c0.1-0.1,0.3-0.1,0.3-0.1c0.7-0.2,1.3-0.5,1.9-0.8c0.1,0,0.2-0.1,0.2-0.1c0.1,0,0.2-0.1,0.2-0.1
	c0.2-0.1,0.4-0.2,0.6-0.3c0.3-0.2,0.6-0.4,1-0.5c0.1,0,0.7-0.3,1-0.5c0.4-0.2,0.7-0.4,1.1-0.5c0.7-0.4,1.4-0.7,2.1-1
	c0.1-0.1,0.3-0.1,0.5-0.2c0.2-0.1,0.4-0.2,0.6,0c0.3,0.3,0.1,1.2,0,1.6c-0.1,0.3-0.3,0.6-0.5,0.8c-0.1,0.1-0.2,0.2-0.4,0.2
	c-0.2,0.1-0.4,0.1-0.5,0.2c0,0-0.3,0.1-0.5,0.2l-0.1,0c-0.1,0-0.1,0-0.1,0c-0.1,0-0.2,0.1-0.3,0.1c-0.2,0.1-0.3,0.2-0.5,0.2
	c-0.1,0.1-0.3,0.2-0.5,0.3l-0.9,0.5c-0.1,0.1-0.3,0.1-0.4,0.2c-0.1,0-0.2,0.1-0.3,0.1c-0.1,0-0.2,0.1-0.3,0.1l-0.1,0.1l-0.1,0
	l-0.1,0l-0.1,0.1l-0.2,0.1c-0.1,0-0.3,0.1-0.3,0.1c-0.1,0.1-0.3,0.1-0.4,0.2c0,0-0.4,0.2-0.5,0.3c-0.3,0.2-0.7,0.3-1,0.4
	c-1.4,0.5-2.7,1.2-4,1.8c-0.6,0.3-1.2,0.6-1.8,0.8c-0.3,0.1-0.6,0.3-0.9,0.5c-0.1,0.1-0.7,0.5-0.9,0.2c-0.1-0.2,0-0.7,0.1-0.9
	c0.1-0.2,0.1-0.3,0.1-0.4C483.9,47.5,483.9,47.3,483.9,47.1z"/>
<path class="st0" d="M507.7,52.5L507.7,52.5l0-0.2l0-0.1c0-0.1,0-0.1,0.1-0.2l0.1-0.2c0,0,0.1-0.2,0.1-0.3c0.1-0.2,0.2-0.4,0.3-0.5
	c0.1-0.1,0.1-0.3,0.2-0.4c0.2-0.5,0.5-1.6,0.9-1.7c0.1-0.1,0.3,0,0.4,0.1c0.1,0,0.1,0.1,0.1,0.2c0,0.2,0.1,0.3,0.1,0.4
	c0,0.1-0.1,0.4-0.1,0.5c-0.1,0.2-0.2,0.4-0.2,0.5c0,0.2-0.1,0.3-0.1,0.5c-0.1,0.1-0.1,0.3-0.2,0.5c-0.1,0.3-0.2,0.6-0.3,0.8
	c-0.1,0.1-0.1,0.2-0.2,0.4c-0.1,0.1-0.2,0.3-0.2,0.4c-0.1,0.5-0.1,1.1,0,1.6c0.2,1.2,1.3,2,2.2,2.6c0.1,0.1,0.2,0.1,0.3,0.1
	c0.1,0,0.3,0.1,0.5,0.1c0.3,0.1,0.6,0.2,1,0.2c0.6,0.1,1.1,0,1.6,0c0.5,0,1.3-0.1,1.6-0.2c0.6-0.3,1.3-0.5,1.9-0.7
	c0.6-0.2,1.2-0.5,1.7-0.9c0,0,0.4-0.4,0.6-0.6c0.1-0.1,0.2-0.2,0.4-0.4l0-0.1c0.1-0.1,0.1-0.2,0.2-0.2c0.1-0.1-0.2-1.7-0.3-2.1
	c-0.1-0.3-0.1-0.5-0.2-0.7c0-0.1-0.1-0.3-0.1-0.3c-0.1-0.1-0.1-0.2-0.1-0.4c-0.1-0.5-0.3-0.9-0.5-1.4l0-0.1l-0.1-0.2
	c0-0.1-0.1-0.2-0.1-0.3c-0.1-0.2-0.3-0.5-0.3-0.7c-0.1-0.6,0.2-1.3,0.3-1.8c0.1-0.2,0.1-0.5,0.3-0.6c0.1-0.1,0.3,0,0.4,0
	c0.1,0,0.1,0,0.1,0.1c0.1,0.1,0.1,0.1,0.1,0.1c0,0,0.5,1.1,0.5,1.2c0.1,0.4,0.4,1.1,0.5,1.3c0.1,0.1,1.8,0.2,2.1,0.1
	c0.5,0,1.2-0.3,1.4-0.7c0.1-0.2,0.2-0.5,0.2-0.9c0-0.3,0.1-0.5,0.2-0.8c0.1-0.5,0.3-1,0.6-1.3c0.1-0.2,0.4,0.1,0.5,0.2
	c0.1,0.2,0,0.8-0.1,1c-0.1,0.4-0.3,1.4,0,1.6c0.7,0.4,2.1,0.7,3,0.4c0,0,0-0.5,0-0.6l0-0.1l0-0.3c-0.1-0.5-0.1-0.9-0.1-1.3
	c0-0.5,0.4-1.9,0.7-2.1c0.1,0,0.3,0,0.3,0.1c0.3,1.1,0.4,2.3,0.4,3.7c0,0.2-0.1,0.5-0.2,0.8c0,0.1-0.1,0.2-0.1,0.3
	c-0.1,0.1-0.1,0.3-0.1,0.5c0,0.1,0,0.1-0.1,0.2c0,0,0,0-0.1,0.2c0,0,0,0.2-0.1,0.2c0,0.1-0.1,0.4-0.1,0.4c-0.1,0.2-0.2,0.6-0.4,0.7
	c-0.5,0.2-0.9,0.3-1.5,0.3l0,0.1c0,0.1-1.9-0.4-1.9-0.4c0,0,0,0-0.1-0.1c0,0-0.1,0-0.1,0c-0.1,0-0.1,0-0.4,0c-0.2,0-0.2,0-0.3-0.1
	c0,0-0.2-0.2-0.2-0.1l-0.1,0.1l0,0.1c0,0.1,0,0.1-0.1,0.1c-0.1,0.1-0.1,0.2-0.2,0.3c0,0-0.2,0.1-0.2,0.1l-0.1,0l-0.1,0.1
	c-0.1,0-0.1,0.1-0.2,0.1l-0.1,0l-0.1,0l-0.1,0l-0.1,0l-0.1,0c-0.1,0-0.2,0.1-0.2,0.1c-0.2,0-0.3,0-0.5,0c-0.2,0-0.2,0-0.4,0.1
	c0,0-0.1,0.6-0.1,0.8l0,0.5l0,0.1c0,0.2,0,0.2,0,0.5c0,0.4-0.1,1-0.2,1.3c0,0.1-0.1,0.2-0.1,0.2l0,0.1c0,0.1,0,0.1-0.1,0.2l0,0.2
	c0,0.1,0,0.1,0,0.2c0,0.2,0,0.2,0,0.2c-0.1,0.2-0.2,0.8-0.3,0.9c0,0-0.1,0.1-0.1,0.1c-0.1,0-0.2,0.1-0.3,0.2l-0.1,0.1l0,0.1l0,0.1
	c-0.1,0.1-0.3,0.4-0.5,0.6c-0.3,0.3-0.7,0.7-1.2,0.9l-0.1,0l-0.1,0c-0.1,0.1-0.1,0.1-0.1,0.1l-0.1,0l-0.1,0l-0.1,0.1l-0.3,0.1
	l-0.1,0c-0.2,0.1-0.4,0.1-0.5,0.2c-0.6,0.2-1.3,0.5-1.7,0.7c-0.6,0.2-3.5,0.4-3.9,0.2c-0.2-0.1-0.6-0.2-0.8-0.3
	c-0.2,0-0.8-0.2-0.9-0.3c0,0-0.8-0.6-1.1-0.8c-0.4-0.3-0.7-0.7-0.9-1.1c-0.1-0.1-0.2-0.3-0.2-0.3c0,0-0.1-0.1-0.1-0.2
	c0-0.1-0.1-0.1-0.1-0.2c-0.1-0.1-0.1-0.3-0.1-0.5c0-0.1-0.1-0.3-0.1-0.5c-0.2-0.6-0.1-1.8,0-2.5C507.6,53.3,507.6,52.8,507.7,52.5z"
	/>
<path class="st0" d="M516.2,31.9c0.4,0,0.6-0.2,0.9-0.4c0.2-0.2,0.6-0.3,0.8-0.4c0.5-0.2,1-0.3,1.5-0.4c0.6-0.1,1.5-0.1,2.1,0.1
	c0.1,0,0.5,0.1,0.7,0.1c0.3,0.1,0.7,0.1,0.8,0.2c0.2,0,0.8,0.2,0.8,0.2l0.1,0c0.1,0,0.2,0.1,0.3,0.1c0.1,0,0.2,0,0.3,0.1l0.2,0
	l0.1,0l0.1,0c0.2,0,0.4,0.1,0.6,0.2c0.2,0.1,0.9,0.3,1.4,0.5l-0.1,0.1c0,0,0,0.1,0,0.1l0.2,0c0,0,0.1,0.1,0.2,0.1
	c0,0,0.1,0.1,0.1,0.1c0.1,0.2,0,0.4-0.1,0.5c0,0.1-0.1,0.4-0.2,0.4c-0.1,0.2-0.1,0.4-0.2,0.5c-0.2,0.2-0.6,0.6-0.6,0.7
	c-0.6,0.3-1.5,0.8-2.3,1.2c-0.1,0.1-0.3,0.2-0.5,0.3c-0.1,0-0.1,0-0.1,0.1c-0.1,0-0.1,0-0.2,0.1l-0.1,0.1l-0.1,0l-0.1,0
	c-0.2,0.1-0.4,0.2-0.5,0.3c-0.1,0.1-0.2,0.1-0.4,0.1c-0.2,0.1-0.4,0.2-0.5,0.2c-0.8,0.4-1.6,0.6-2.4,0.9c-0.2,0.1-0.5,0.2-0.7,0.2
	c-0.4,0-0.7,0-0.8,0.2c-0.3,0.3-1.1,0.5-1.2-0.1c0-0.1,0.1-0.3,0.2-0.4c0.1-0.1,1.3-1,1.5-1c1-0.3,1.9-0.9,2.8-1.4
	c0.2-0.1,0.4-0.2,0.6-0.4l0.3-0.2l0.1,0l0.1,0c0.1,0,0.1-0.1,0.2-0.1c0,0,0.2-0.1,0.3-0.2c0.1,0,0.1,0,0.1-0.1
	c0.1,0,0.1-0.1,0.2-0.1c0.1-0.1,0.3-0.1,0.4-0.2c0.1-0.1,0.3-0.1,0.4-0.2c0.1-0.1-0.2-0.1-0.3-0.1c-0.2,0-0.3-0.1-0.5-0.1
	c-0.1,0-0.5-0.1-0.7-0.2c-0.6-0.2-1.4-0.3-2.1-0.4c-0.4,0-1.4-0.1-1.8,0.1c-0.3,0.1-0.7,0.2-1.1,0.3c-0.4,0.1-0.8,0.4-1.1,0.6
	c-0.3,0.3-0.6,0.5-0.8,0.8c-0.2,0.3-0.6,0.6-0.9,0.8c-0.1,0.1-0.3,0-0.3-0.1c0-0.1,0.1-0.5,0.2-0.8c0.1-0.3,0.1-0.4,0.1-0.6
	c0-0.1,0.1-0.3,0.1-0.4c0.1-0.2,0.2-0.3,0.4-0.5c0,0,0.2-0.3,0.4-0.4c0.1,0,0.1,0,0.1-0.1c0.1-0.1,0.3-0.3,0.4-0.5
	C516,32.1,516,32,516.2,31.9z"/>
<path class="st1" d="M524.2,72.6c0.6-0.1,1.1-0.2,1.6-0.3l0.1,0l0.4,0l0.1,0l0.5-0.1c0.1,0,0.2-0.1,0.3-0.1c0.1,0,0.3-0.1,0.3-0.1
	c0.5-0.1,0.9-0.2,1.3-0.4c0.1,0,0.1,0,0.2-0.1c0,0,0.1-0.1,0.2-0.1c0.2,0,0.4-0.1,0.6-0.1c0.1,0,0.1,0,0.2-0.1c0,0,0.2-0.1,0.2-0.1
	c0.2,0,0.4-0.1,0.6-0.1c0.5-0.1,1-0.4,1.4-0.6c0,0,0.4-0.2,0.7-0.3c0.2-0.1,0.5-0.2,0.7-0.4c0.4-0.2,0.8-0.5,1.2-0.7
	c0.5-0.2,0.8-0.5,1.1-0.8c0.1-0.1,0.3-0.3,0.5-0.4c0.1-0.1,0.2-0.1,0.3-0.2c0.1-0.1,0.1-0.1,0.1-0.1c0.1,0,0.1-0.1,0.2-0.1
	c0.1,0,0.2-0.2,0.1-0.3l-0.1,0l-0.1,0c0,0-0.1-0.1-0.1-0.2c-0.1-0.2-0.3-0.4-0.5-0.5c-0.3-0.2-0.6-0.3-0.9-0.4l-0.1-0.1l-0.1,0
	c-0.1,0-0.2-0.1-0.3-0.1l-0.2,0c-0.1,0-0.1,0-0.2,0c-0.1,0-0.1,0-0.2,0c-0.1,0-0.3-0.1-0.4-0.1c-0.3,0-0.5,0-0.6-0.1
	c-0.2-0.1-0.4-0.1-0.6-0.2c-0.9-0.1-1.8-0.2-2.6-0.1c-1.3,0.1-2.6,0.7-3.5,1.2c-0.1,0.1-0.4,0.3-0.7,0.4c-0.1,0.1-0.2,0.1-0.3,0.2
	c-0.1,0-0.2,0.2-0.4,0.2c-0.1,0-0.2,0.1-0.3,0.2c-0.1,0-0.1,0.1-0.2,0.1l-0.1,0c-0.1,0.1-0.1,0.1-0.1,0.1c-0.1,0.1-0.6,0.4-0.6,0.5
	c0,0-0.3,0.3-0.4,0.4c-0.1,0.1-0.1,0.1-0.2,0.2c-0.1,0.1-0.2,0.1-0.2,0.2c-0.3,0.3-0.6,0.5-0.8,0.8c-0.3,0.3-0.5,0.5-0.8,0.7
	c-0.1,0.1-0.3,0.2-0.5,0.3c-0.2,0.1-0.4,0.2-0.6,0.4c0,0-0.1,0.1-0.1,0.1c-0.1,0-0.1,0-0.1,0.1c0,0-0.1,0.1-0.2,0.2
	c0,0-0.2,0.1-0.2,0.1c-0.1,0-0.1,0.1-0.2,0.2c-0.1,0.1-0.3,0.2-0.4,0.3c-0.2,0.1-0.4,0.2-0.5,0.4c-0.1,0.1-0.2,0.2-0.2,0.2
	c0,0,0.6,0.1,0.7,0.1c0.5,0,1.3,0,1.6,0c0.2,0,0.2,0,0.4,0c0.2,0,0.2,0,0.4,0c0.5,0,0.5,0,0.7,0c0.1,0,0.1,0,0.1,0
	c0.1,0,0.1,0,0.4,0c0.1,0,0.1,0,0.7,0l0.1,0C523.4,72.7,524.2,72.7,524.2,72.6z"/>
<path class="st0" d="M536.6,46.6c0.1-0.2,0.4-0.7,0.6-0.7c0.1,0,1.1-0.6,1.7-0.9c0.1-0.1,0.6-0.3,0.9-0.5c0.3-0.2,0.7-0.4,0.9-0.5
	c1.1-0.6,2.5-1.4,3.4-1.8c0.3-0.1,0.6-0.3,0.8-0.5c0.1-0.1,0.3-0.2,0.5-0.2c0.2-0.1,0.3-0.2,0.5-0.2c0.6-0.3,1.2-0.6,1.9-0.9
	c0,0,0.2-0.1,0.2-0.1c0,0,0.2-0.1,0.2-0.1l0.1,0l0.1,0l0.1,0c0.1,0,0.1-0.1,0.2-0.1c0.2-0.1,0.3-0.2,0.5-0.2c0,0,0.2-0.1,0.2-0.1
	l0.3-0.1c0.3-0.2,0.6-0.3,0.9-0.4c0.1,0,0.2-0.1,0.3-0.1l0.1,0l0.1-0.1c0.1,0,0.1-0.1,0.2-0.1c0,0,0.1-0.1,0.2-0.1
	c0.1,0,0.3,0,0.4,0.1c0.1,0.1,0.1,0.5,0.1,0.6c0,0.5-0.3,1.2-0.5,1.7c-0.2,0.3-1.3,0.9-1.7,1c-0.7,0.3-1.3,0.6-2,0.9
	c-0.1,0.1-0.6,0.3-0.9,0.4c-0.2,0.1-0.3,0.2-0.5,0.2c0,0-0.1,0.1-0.2,0.1c-0.1,0-0.1,0-0.2,0.1l-0.1,0l-0.1,0
	c-0.3,0.2-0.8,0.4-1,0.5c-0.3,0.2-0.8,0.4-1,0.5c-0.6,0.2-1.4,0.6-1.9,0.9c-0.6,0.4-1.2,0.7-1.8,1c-0.6,0.3-1.6,0.8-1.9,1
	c-0.1,0.1-0.3,0.2-0.4,0.2c0,0-0.2,0.1-0.2,0.1c0,0-0.2,0.1-0.3,0.2c-0.1,0.1-0.3,0.2-0.4,0.3c-0.1,0-0.1,0.1-0.2,0.1
	c-0.1,0-0.5-0.1-0.5-0.1l0-0.1c0-0.1,0-0.3,0-0.4c0-0.1,0-0.2,0.1-0.2c0-0.1,0.1-0.3,0.1-0.3c0.1-0.1,0.1-0.2,0.1-0.4
	C536.5,46.9,536.5,46.7,536.6,46.6z"/>
<path class="st0" d="M545.8,80c0.1-0.1,0.3-0.1,0.4,0c0.1,0,1.8,1,1.9,1c0,0,0.3,0.2,0.4,0.3c0.1,0.1,0.2,0.3,0.3,0.4
	c0.2,0.3,0.4,0.6,0.4,1c0,0.3,0,0.5-0.1,0.7c-0.1,0.3-0.3,0.4-0.5,0.6c-0.1,0.1-0.3,0.2-0.4,0.2c-0.2,0.1-0.3,0.2-0.4,0.3
	c-0.2,0.4-0.6,1.1-1.2,1.2c0,0-0.7-0.4-0.8-0.5c-0.2-0.2-0.4-0.4-0.7-0.5c0,0-0.3-0.2-0.5-0.2c-0.1,0-0.2-0.1-0.3-0.1
	c-0.1,0-0.2-0.1-0.2-0.1c-0.3-0.2-0.7-0.4-0.6-0.8C543.7,82.9,545.6,80,545.8,80z"/>
</svg>
