<?xml version="1.0" encoding="utf-8"?>
<!-- Generator: Adobe Illustrator 23.0.3, SVG Export Plug-In . SVG Version: 6.00 Build 0)  -->
<svg version="1.1" id="Layer_1" xmlns="http://www.w3.org/2000/svg" xmlns:xlink="http://www.w3.org/1999/xlink" x="0px" y="0px"
	 viewBox="0 0 1366 768" style="enable-background:new 0 0 1366 768;" xml:space="preserve">
<style type="text/css">
	.st0{fill-rule:evenodd;clip-rule:evenodd;fill:#231F20;}
</style>
<g>
	<path class="st0" d="M1262.32,126.28c6.23-0.69,11.9-2.59,17.61-4.49c2.41-0.8,5.32-1.94,7.87-2.94c1.34-0.52,2.52-1.01,3.75-1.62
		l1.51-0.82c0.85-0.48,1.72-0.97,1.82-1.01c3.1-0.93,20.92-15.09,21.51-17.36c0.22-0.84-2.13-4.4-2.96-5.61l-1.22-1.7
		c-0.34-0.52-0.34-0.52-0.98-1.15c-0.44-0.41-0.57-0.56-0.89-1.12c-1.16-1.99-12.64-7.56-16.38-5.31c0,0-3.08,0.78-4.06,1.01
		c-1.25,0.32-3.03,1.27-4.64,2.14c-2.85,1.51-4.97,3.07-7.11,5.2c-1.94,1.92-5.97,6.15-6.05,6.26c-0.36,0.48-1.29,1.3-1.99,1.86
		c-0.27,0.19-0.27,0.19-2.58,2.46c-0.51,0.6-1.27,1.51-1.5,1.73c-0.53,0.54-3.04,3.93-4.39,5.79c-0.15,0.22-1.7,2.68-2.41,3.82
		c-0.28,0.47-1.65,2.37-2.41,3.43c-0.84,1.17-1.71,2.25-2.66,3.28c-0.49,0.54-0.96,1.14-1.37,1.75c-0.44,0.67-0.83,1.21-1.27,1.79
		C1250.27,125.28,1260.81,126.73,1262.32,126.28z"/>
	<path class="st0" d="M1277.9,554.05c-1.29,8.31-4.78,30.61-7.98,31.99c-1.19,0.52-2.19-0.11-2.54-0.99
		c-0.23-0.58-0.49-1.94-0.73-3.22c0,0-0.53-2.4-0.82-3.61l-0.61-2.22l-0.22-0.99l-0.2-0.82l-0.22-0.8l-0.2-1.19
		c-1.26-5.51-2.77-12.18-3.11-17.68c-1.25-20.6-2.98-46.26-5.67-58.07l-0.21-1.4l-0.21-1.21l-0.2-1.62l-0.21-1.19l-0.22-1.21
		l-0.2-1.4l-0.2-1.01l-0.21-1.4c-0.11-0.75-0.11-0.75-0.43-2.42l-0.4-2.81c-0.22-1.73-0.22-1.73-0.43-3.02
		c-0.72-4.51-2.89-17.46-2.89-17.46l-0.21-1.21l-0.21-1.21l-0.21-1.21l-0.21-0.99l-0.2-0.8l-0.21-1.42l-0.21-0.61
		c-0.51-2.5-1.65-7.81-1.65-7.81c-0.24-0.97-0.53-2.09-0.71-3.22l-0.11-0.82l-0.21-0.6c-0.8-2.76-1.18-4.88-1.64-7.81
		c-3.84-24.16-7.53-47.41-12.19-67.9l-0.41-1.62l-0.2-0.6c-0.27-2.35-0.57-4.92-0.83-5.81l-0.21-0.82l-0.21-1.21l-0.21-0.8
		l-0.21-0.8l-0.37-1.34l-0.24-0.67l-0.21-1.01l-0.21-0.99l-0.2-1.01l-0.83-3.61c-0.21-0.8-0.21-0.8-0.41-1.81
		c-0.21-1.01-0.27-1.34-0.41-1.79l-0.4-1.4l-0.21-0.6l-0.21-0.82c-0.21-0.69-0.46-1.47-0.72-2.2c-0.31-0.91-0.31-0.91-0.51-3
		c-0.15-1.55-0.15-1.55-0.41-2.83c-0.34-1.64-1.21-4.6-1.85-6.82l-0.62-2.22l-0.41-1.6c-0.1-0.63-0.1-0.63-0.4-1.4l-0.2-0.8
		l-0.21-1.01c-0.21-0.88-0.36-1.38-0.62-2.2c-0.41-1.3-1.11-3.48-1.33-4.01c-0.58-1.47-1.2-3.04-1.74-4.62l-0.2-0.6l-0.22-2.42
		l-0.21-0.8c-0.26-1.04-0.52-1.99-0.82-3c0,0-1.01-4.32-1.45-6.24c-0.49-2.14-1.19-5.16-1.64-6.41c-0.88-2.44-2.35-11.66-3.31-17.68
		c-0.17-1.17-0.4-2.48-0.62-3.63c-0.28-1.55-0.55-3.04-0.82-4.62c-0.77-4.45-2.36-16.69,0.16-18.55c-1.29-0.5-1.29-0.5-1.46-2.35
		v-0.8v-1.01l-0.22-2.4v-1.21c-0.45-4.71-1.22-13.28-0.47-16.69l0.21-1.4l0.18-2.61l0.19-0.82l0.2-1.19c0.26-1.3,0.63-2.5,1.01-3.63
		c1.04-3.17,1.92-5.77,2.19-9.65c0.17-2.44,0.5-4.3,1.1-6.24c0.61-2.01,0.87-2.85,0.89-4.04c0.07-2.65,0.73-7.88,3.72-8.03
		c3.36-0.19,5.09,2.29,5.59,4.99c0.55,3.02,0.83,5.98,1.04,9.65c0.29,4.95,0.68,10.86,1.05,13.06c0.2,1.1,1.27,13.32,1.9,20.49
		c0.41,4.86,1.45,9.52,2.57,13.69c0.54,1.99,1.61,7.64,2.18,12.05c0.43,3.3,1.48,6.67,2.77,9.24c0.51,1.01,1.06,2.22,1.33,3.39
		c0.39,1.75,0.82,3.63,1.23,4.81l0.41,1.21l0.2,0.82c0.34,2.53,0.38,2.87,0.52,3.22c0.32,0.69,0.32,0.69,0.51,1.6
		c0.2,0.84,0.45,1.68,0.72,2.4c2.27,5.96,4.1,12.11,5.23,18.7c1.12,6.5,2.38,13.1,4.12,19.08c0.36,1.23,0.73,2.31,1.12,3.39
		c0.52,1.47,0.95,3.09,1.13,4.83c0.62,5.66,1.34,12.11,2.09,16.88c0.58,3.65,1.31,8.16,2.07,10.86l0.31,0.8l0.31,0.99
		c0.24,0.76,0.45,1.55,0.62,2.4c0.25,1.3,0.25,1.3,0.41,2.83c0.17,1.71,0.4,3.95,0.83,5.42l0.2,0.8l0.21,1.01l0.21,3.22l0.22,1.21
		c0.23,1.38,0.27,1.64,0.51,2.4l0.31,0.8l0.41,1.21c0.35,1.36,0.75,4.49,1.03,6.63c0.28,2.16,0.81,4.71,1.24,6.84
		c1.43,6.99,2.98,16,4.33,23.9c1.17,6.69,2.88,13.45,4.52,19.08c0.16,0.54,0.16,0.54,0.43,4.21c0.18,2.53,0.62,8.46,0.64,8.63
		c0.14,1.45,0.66,4.25,1.03,6.24c0.98,5.22,1.59,9.69,2.08,15.26c0.08,0.93,1.56,9.02,2.27,12.87c0.21,1.1,0.21,1.1,0.21,1.6
		c0.01,4.51,0.2,8.98,0.45,13.67l0.22,1.62l0.22,3.41l0.21,2.2l0.21,1.21l0.21,1.62c0.14,1.45-0.07,7.13-0.16,9.65
		c-0.2,5.07-0.22,11.61,0.26,16.86C1277.39,536.3,1277.7,546.71,1277.9,554.05z"/>
	<path class="st0" d="M1187.28,145.58c0.28-0.17,4.19-7.23,5.2-9.11c0.81-1.51,1.82-3.02,2.82-4.53c0.38-0.58,0.77-1.17,1.25-1.68
		c0.52-0.56,1.38-1.51,1.61-2.01c0.53-1.17,16.1-17.4,17.22-17.98c1.53-0.82,2.4-0.61,3.95-0.02c0.22,0.09,1.22,0.71,1.38,0.84
		c0.84,0.69,0.84,0.69,0.95,0.76c0.96,0.56,0.96,0.56,1.28,0.84c0.43,0.39,0.43,0.39,1.01,0.8c0.62,0.43,2.24,1.62,2.24,1.62
		c0.29,0.26,1.76,1.34,2.63,1.99c0.68,0.5,3.77,2.27,5.73,3.37c0.94,0.52,1.87,0.93,3.03,1.3c0.45,0.13,5.36,1.64,4.67-0.11
		c-0.25-0.63,13.7-28.21,14.28-29.01l0.4-0.6l0.4-0.8l0.4-0.8c0.5-0.88,1.06-1.81,1.61-2.63c0.4-0.61,0.4-0.61,0.8-1.3l0.81-1.43
		l1.61-2.31c0.66-0.99,2.15-3.04,3.23-4.53l0.87-1.04c0.11-0.13,0.11-0.13,0.8-1.01c0.61-0.76,1.78-2.25,1.78-2.25
		c2.13-3.67,15.21-14.51,19.56-16.49c4.07-1.86,17.29-5.29,22.07-2.48l0.8,0.3l0.8,0.3l1.43,0.69l0.82,0.39
		c1.54,0.78,3.24,1.6,4.46,2.4c2.33,1.53,4.48,3.67,6.1,5.92c3.43,4.75,6.1,9.37,8.05,15.76c1.14,3.71,0.62,15.65-0.33,19.49
		c-2.58,10.41-12.16,22.47-20.17,27.81c-4.48,3-9.26,6.26-13.39,9.74c-3.73,3.13-9.22,7.49-14.19,8.96l-1.41,0.41
		c-1.18,0.32-1.41,0.39-1.41,0.39c-1.06,0.39-2.84,1.01-2.84,1.01c-2.64,0.78-5.15,1.51-7.5,2.05c-2.78,0.65-4.31,1.17-6.87,2.14
		c-2.72,1.01-5.64,1.86-9.1,2.14c-2.37,0.17-5.63-0.17-7.49-0.89c-1.49-0.56-3.09-1.01-4.87-1.3l-1.41-0.17l-2.03-0.3l-4.66-0.09
		l-1.01-0.3c-1.15-0.37-1.33-0.43-1.62-0.5c-0.87-0.19-1.49-0.37-2.23-0.6c-2.06-0.65-6.08-2.92-9.23-4.68
		c-0.7-0.39-1.55-0.86-2.6-1.66c-0.37-0.28-0.37-0.28-1.15-0.73l-1.84-1.51c-1-0.65-2.28-1.43-3.64-1.38
		c-6.77,0.26-16.47,14.7-19.79,20.08c-1.96,3.19-13.63,11.9-11.43,0.84C1182.04,157,1184.98,150.58,1187.28,145.58z"/>
	<path class="st0" d="M1012.95,76.51c0.34-0.11,6.05-6.02,6.72-6.89c1.96-2.5,4.89-5.55,9.13-9.35l0.9-0.91
		c1.19-1.04,3.03-2.59,4-3.17c0.66-0.37,1.31-0.78,1.88-1.25c0.67-0.56,1.4-1.08,2.16-1.55c1.86-1.25,3.78-2.53,5.16-2.94
		c3.82-1.17,10.04-3.04,11.73-2.87l4.66-0.22l8.51-0.24c1.15-0.02,1.15-0.02,3.64,0.19c3.15,0.28,6.73,0.58,9.53,0.78
		c4.64,0.3,10.16,0.69,13.98,1.77l12.57,3.76c4.42,1.25,9.35,2.5,13.78,3.39l1.43,0.17l1.01,0.21l0.82,0.19l1.21,0.19l5.27,0.99
		l0.81,0.19l1.01,0.19l1.42,0.19l1.22,0.19c1.01,0.19,1.01,0.19,2.02,0.19c1.73,0,4.38,0,5.03,0.73c1.37,1.58,2.3,3.76,2.6,6.37
		c0.5,4.4-4.13,16.79-6.69,18.57c-9.61,6.71-30.36,20.66-33.38,21.98l-0.71,0.41l-0.9,0.41l-0.82,0.41
		c-0.87,0.43-1.65,0.78-2.63,1.21c-2.04,0.89-5.34,2.33-6.47,2.74c-3.5,1.25-7.85,2.81-10.91,4.34c0,0-3.47,1.49-5.07,2.14
		c0,0-1.87,0.67-2.83,1.01c-1.13,0.41-2.26,0.93-3.24,1.43c-3.82,1.9-9.83,4.81-12.93,5.27c-0.8,0.13-2.63,0.26-3.45,0.22
		c-3.59-0.22-3.59-0.22-4.25-0.19c-0.75,0.06-2.31,0.5-3.45,0.82c-1.21,0.35-2.82,0.82-3.63,1.12c-0.78,0.3-3.03,1.12-3.03,1.12
		c-5.7,1.62-10.64,2.48-13.07-2.87c-0.73-1.62,0.49-3.26,1.26-3.86c2.15-1.7,7.54-4.43,11.16-6.24c1.24-0.63,7.36-4.36,11.41-6.87
		c2.26-1.38,14.42-7.47,24.57-12.54c4.32-2.16,8.65-4.34,13.04-6.28c4.33-1.92,9.03-4.06,12.7-6.74c2.5-1.83,1.98-2.01-1.29-2.96
		c-0.84-0.24-4.67-1.19-6.69-1.68c-5.25-1.27-10.88-2.65-16.01-3.56c-6.66-1.19-16.64-1.15-25.72-1.12
		c-3.34,0.02-10.52,2.42-15.19,3.97c-2.4,0.82-6.85,3.69-9.49,5.46c-2.55,1.7-7.02,4.6-8.9,5.16c-1.08,0.32-7.44-2.07-7.67-2.53
		C1009.37,84.09,1011.39,78.78,1012.95,76.51z"/>
	<path class="st0" d="M740.64,722.76l0.8-0.3l2.63-0.41l3.24-1.01c0.1-0.04,3.72-1.38,5.46-2.05l0.8-0.3l2.23-0.91l0.8-0.21
		l0.81-0.3l0.82-0.28l0.8-0.32l1.02-0.39l0.81-0.33l1.21-0.39c1.14-0.34,1.14-0.34,1.62-0.52c0.65-0.24,1.6-0.56,2.63-0.91
		l2.02-0.61c1.59-0.54,3.09-1.08,4.66-1.64l0.8-0.3l1.01-0.39l0.81-0.32l2.64-0.8c1.83-0.67,5.13-1.86,5.86-2.14
		c7.15-2.79,16.58-6.46,21.84-8.23l5.06-1.62l0.82-0.19l0.81-0.22c1.01-0.32,3.23-1.01,3.23-1.01l1.83-0.8
		c0.83-0.28,1.82-0.63,2.63-0.82c1.99-0.5,3.86-1.04,5.67-1.73c3.45-1.3,6.71-2.5,10.12-3.65c1.78-0.6,3.66-1.38,5.46-2.14
		c1.16-0.48,3.51-1.36,5.25-2.03c0.74-0.28,1.6-0.61,2.23-0.82c0.91-0.3,1.81-0.67,2.63-0.99c1.45-0.6,3.33-1.3,4.85-1.83
		c1.63-0.58,3.15-1.19,4.65-1.81c2.04-0.89,4.11-1.68,6.27-2.44c5.43-1.94,14.05-5.65,21.44-8.83c1.4-0.6,3.67-1.73,5.46-2.63
		c1.53-0.76,3.12-1.55,4.66-2.12c1.92-0.73,3.63-1.73,5.25-2.74c1.88-1.15,4.15-2.55,5.46-2.72c1.39-0.19,3.09,0.28,3.69,1.25
		c1.51,2.44,3.1,5.01,3.54,7.66c0.82,4.99-4.23,18.78-6.82,20.12c-1.58,0.82-3.66,1.49-5.77,2.14l-1.01,0.19
		c0,0-0.27,0.09-1.41,0.41l-0.82,0.19l-1.01,0.22c-0.25,0.06-1.27,0.45-1.41,0.52c-1.68,0.73-4.08,1.77-5.25,2.22
		c-1.92,0.71-4.97,1.88-5.56,2.22c-6.18,3.52-14.96,6.97-22.56,9.93c-14.16,5.53-28.39,10.6-43.08,15.52
		c-14.1,4.73-35.48,11.92-42.69,14.73c-6.49,2.52-14.08,5.27-20.83,7.21c-3.95,1.12-7.76,2.57-11.33,4.14
		c-1.78,0.8-3.31,1.81-4.85,2.85c-0.85,0.56-1.78,1.01-2.83,1.4c-0.68,0.26-5.47,1.17-5.46-0.37c-0.22-0.32-0.49-0.93-0.52-1.42
		c-0.14-2.1,0.05-5.74,0.58-7.64c0.17-0.58,0.39-1.21,0.61-1.79l0.6-1.62l0.61-1.62C736.57,732.2,737.37,723.48,740.64,722.76z"/>
	<path class="st0" d="M542.32,398.01c0.63-0.99,3.63-0.41,4.56-0.11c3.85,1.25,11.33,4.68,16.94,7.28
		c5.25,2.44,10.69,5.2,15.62,7.99c0.87,0.48,1.16,0.61,2.53,0.5c2.01-0.17,4.48-0.39,4.66-0.32c2.07,0.8,2.34,0.3,3.64-2.12
		c1.73-3.24,3.77-6.3,5.88-9.13c0.37-0.5,1.07-1.47,1.17-1.66l0.3-0.8l0.2-1.4c0.11-0.45,0.43-1.03,0.71-1.51
		c0.52-0.93,1.53-2.74,1.61-2.92c0.43-1.01,0.88-2.12,1.4-3.02c0.82-1.42,5.86-8.92,6.85-9.26c1.83-0.65,3.21-0.67,4.86-0.02
		c8.45,3.22,33.09,19.58,32.21,29.23c-0.26,2.89-7.05,12.02-10.21,16.28c-0.41,0.56-0.82,1.19-1.16,1.86
		c-0.39,0.73-0.75,1.27-1.21,1.9c-0.44,0.61-1,1.6-1.51,2.53l-0.31,0.8c-0.14,0.34-0.14,0.34-0.8,1.43
		c-1.66,2.7-3.49,5.65-5.37,7.51c-0.47,0.45-3.26,0.73-3.51,0.15c0,0-6.31-5.74-6.7-6c-2.6-1.81-5.9-4.1-8.53-5.1
		c-3.3-1.25-6.83-2.87-10.15-4.9c-1.07-0.65-1.07-0.65-1.32-0.8c-0.92-0.56-1.97-1.19-2.74-1.6c-0.67-0.37-1.41-0.78-1.99-1.23
		c-0.72-0.6-1.89-1.27-2.68-1.4c-0.12-0.02-1.75,2.63-2.01,3.06c-0.67,1.08-1.61,2.25-2.49,3.35c-1.67,2.09-3.43,4.3-4.83,6.59
		c-1.11,1.79-8.03,15.39-8.03,15.39c0.12,0.8-5.05,4.23-6.32,5.09c-2.2,1.47-4.81,0.02-6.22-0.95c0,0-3.46-1.75-4.22-2.14
		c-1.29-0.63-2.63-1.3-4.46-2.1c-1.7-0.73-3.44-1.51-4.97-2.4c-0.24-0.13-5.01-1.94-8.22-3.17c-1.8-0.69-3.39-1.36-5.07-2.2
		c-0.68-0.32-0.98-0.58-1.52-1.51c-0.58-1.34-0.58-1.34-0.75-1.49l0.12,1.6c0.15,1.01-4.59-2.33-5.01-2.87
		c-0.86-1.04-1.01-3.04-0.83-4.68c0.08-0.69,1.11-2.66,1.67-3.58c0.9-1.47,2.41-3.97,2.61-4.53c0.14-0.34,2.15-3.37,2.83-4.32
		c0.67-0.37,0.79-0.43,0.9-0.71c0.4-0.99,0.82-2.27,1.21-3.41c1.4-4.25,2.61-7.86,4.72-10.79
		C538.07,404.03,541.86,398.72,542.32,398.01z"/>
	<path class="st0" d="M491.25,217.49c0.18-0.19,9.2-3.2,10.62-3.56c4.07-1.01,8.03-2.81,11.53-4.55
		c7.22-3.61,15.38-6.89,23.46-10.15c4.06-1.62,7.95-3.41,11.52-5.46c3.36-1.9,7.05-4.01,10.31-5.55c5.07-2.4,14.1-6.28,21.44-9.43
		c3.15-1.34,6.43-2.65,9.91-3.76c1.62-0.5,3.29-1.1,4.86-1.73l5.67-2.42c1.78-0.71,3.98-1.79,5.85-2.74
		c0.18-0.09,3.75-1.66,5.67-2.52c1.98-0.89,3.98-1.79,5.86-2.74c2.25-1.12,4.37-2.12,6.68-3.13c0,0,1.62-0.82,2.43-1.21
		c1.02-0.52,2.12-0.99,3.23-1.43l1.02-0.41l0.71-0.41l0.7-0.39c1.04-0.52,2.13-1.08,3.04-1.42c2-0.78,4.15-1.66,6.07-2.64
		c2.08-1.03,4.27-1.99,6.47-2.94c3.58-1.53,7.37-3.58,10.98-5.83l0.74-0.35l0.71-0.39c1.31-0.82,1.31-0.82,1.31-0.82l1.41-0.8
		c0.82-0.52,1.65-1.06,2.43-1.62c0.84-0.61,1.54-1.12,2.63-1.32c4.63-0.84,7.26,4.12,8.12,7.49c0.7,2.76,0.54,6.28-0.08,9.07
		c-0.66,3.07-2.59,9.33-4.35,11.01c-1.25,1.21-2.27,2.12-3.6,2.87c-0.83,0.5-1.84,0.69-3.23,0.93c-1.06,0.17-1.91,0.48-2.84,0.8
		c-3.03,1.1-7.9,3.71-11.73,5.76c-6.45,3.5-13.62,6.56-21.04,9.54c-0.95,0.37-1.75,0.78-2.62,1.21l-1.41,0.71l-0.82,0.3l-1,0.41
		c-0.72,0.3-1.63,0.69-2.23,1.01c-1.04,0.5-2.19,1.06-3.24,1.51c-1.66,0.71-4.98,2.22-5.15,2.33c-1.63,1.04-3.49,2.12-5.35,2.83
		c-1.92,0.74-7.54,3.13-11.33,4.77c-3.83,1.64-11.41,4.75-12.94,5.05c-4.07,0.82-7.96,2.48-11.32,4.17
		c-3.92,1.96-8.1,3.84-12.13,5.57c-3.59,1.53-7,3.26-10.32,5.16c-3.67,2.09-7.69,4.02-11.52,5.68c-7.78,3.32-17.02,7.3-23.46,10.54
		c-7.27,3.63-15.17,7.06-23.05,10.02c-1.61,0.61-3.58,0.58-4.62-0.32c-1.4-1.19-1.03-7.69-0.78-9.41c0.14-0.95,0.65-1.62,1.17-2.27
		c0.76-0.97,0.52-3.07,0.23-4.36C486.99,226.36,488.72,218.98,491.25,217.49z"/>
	<path class="st0" d="M406.02,259.59c1.01-1.62,4.94-4.28,6.95-1.56c6.28,8.51,11.91,18.8,16.44,28.82
		c1.15,2.52,2.62,5.18,4.08,7.53c0.21,0.32,1.25,2.46,1.84,3.69c0.54,1.17,1.45,3.04,1.84,3.82c1.22,2.4,2.52,4.79,3.87,7.12
		c1.61,2.76,3.24,5.57,4.38,8.72c6.5,17.85,10.79,37.3,13.57,58.85c1.03,7.97,0.54,20.21-1.11,27.74c-0.34,1.49-0.59,3.46-0.8,5.03
		c-0.16,1.3-0.6,3.07-0.99,4.64l-0.2,0.99l-0.2,1.21l-0.2,0.8l-0.2,1.21l-0.2,0.99c-0.33,1.45-0.83,3.73-1,4.43
		c-0.52,2.09-1.4,6.99-1.99,10.28c-0.58,3.17-1.24,6.02-2.31,8.63c-1.49,3.67-9.24,9.54-7.99,0.65c1.89-13.51,3.29-28.13,3.1-41.84
		c-0.1-6.97-2.48-19.75-4.16-28.71c-1.43-7.68-3.68-15.97-6.66-22.71c-1.52-3.41-3.63-8.14-4.6-10.43
		c-0.72-1.71-1.55-3.63-2.04-5.01c-0.82-2.24-1.78-4.92-2.55-6.43l-0.31-0.6l-0.31-0.8l-0.82-1.6l-0.4-0.8l-0.72-1.21l-3.07-6.43
		c-0.23-0.43-0.96-1.66-1.52-2.59l-0.4-0.71l-0.41-0.71l-0.41-0.69c-0.56-1.12-0.65-1.27-0.82-1.51c-0.6-0.8-0.6-0.82-0.8-1.21
		c-0.55-1.01-1.63-3-1.63-3c-0.39-0.78-0.82-1.6-1.23-2.31l-0.82-1.21l-0.4-0.69l-0.4-0.69c-0.47-0.82-1.5-2.59-1.5-2.59
		c-0.64-0.86-1.08-1.66-1.57-2.72c-0.35-0.8-0.76-1.55-1.28-2.16c-0.16-0.17-1.08-2.05-1.36-2.68c-0.54-1.21-1.24-2.74-1.7-3.35
		c-0.53-0.67-0.84-1.47-1.06-2.46c-0.55-2.42-0.27-7.34,0.37-9.65c0.18-0.65,0.39-1.01,0.71-1.51c0.34-0.56,0.87-1.42,0.89-1.7
		v-1.62l-0.01-3.22c0.02-0.52,0.4-1.92,0.6-2.61C405.01,263.3,405.96,259.97,406.02,259.59z"/>
	<path class="st0" d="M234.43,680.49c0.82-0.71,3.63-1.71,4.96-0.93c1.2,0.71,4.92,2.01,6.38,2.48c1.37,0.45,3.95,1.88,5.58,2.81
		c3.45,1.94,6.71,3.82,9.81,6.07c3.71,2.65,13.55,10.99,14.27,15.37c0.41,2.55-1.23,7.12-2.1,8.94c-0.12,0.26-1.34,2.24-2.01,3.32
		l-0.45,0.76l-0.63,0.52l-0.34,0.65l-0.39,0.69l-0.41,0.71c-0.43,0.75-0.43,0.75-2.08,2.66c-0.89,1.21-1.52,2.65-2.15,4.08
		c0,0-0.78,2.29-1.1,3.24c-0.47,1.4-0.95,2.83-1.51,3.82c-1.55,2.72-2.88,4.36-5.24,6.24c-1.62,1.32-4.25-1.3-4.91-1.94
		c-1.15-1.16-2.69-2.18-4.12-3.04c-1.4-0.84-2.86-1.66-4.36-2.4l-0.82-0.39l-1.41-0.71c-1.13-0.48-2.97-1.25-4.06-1.79
		c-1.68-0.61-1.68-0.61-1.83-0.71l-2.23-1.17c-1.78-0.95-3.62-1.9-5.48-2.81c-1.29-0.65-4.91-2.27-5.07-2.31
		c-2.51-0.48-3.49-1.19-5.14-2.42c-0.86-0.63-1.06-3.89-0.55-4.88c1.49-2.98,2.84-5.83,4.01-8.87c0.13-0.3,1.65-3.09,2.41-4.43
		c0.62-1.08,2.19-4.08,2.22-4.23c0.98-4.3,2.34-7.36,4.22-10.66l0.4-0.71l0.92-1.15l1.09-1.36l0.1-1.01
		c0.09-0.63,0.09-0.63,0.4-1.62C233.09,682.44,233.7,680.84,234.43,680.49z"/>
	<path class="st0" d="M332.19,172.71c3.92,1.7,6.11,5.63,6.62,10.51c0.25,2.4-1.09,9.41-2.29,11.27c-1.75,2.74-3.69,5.74-5.08,7.84
		c-0.18,0.28-4.39,1.6-6.83,2.37l-0.82,0.3c-1.39,0.6-1.41,0.6-1.41,0.6c-0.9,0.35-0.9,0.35-1.82,0.8l-1.41,0.71
		c-4.24,1.77-8.46,3.52-12.14,5.38c-1.79,0.91-4.02,1.86-6.06,2.74c-0.47,0.19-3.58,1.58-5.27,2.31c-3.86,1.73-7.61,3.41-11.12,5.27
		c-7.22,3.86-16.1,7.34-24.07,9.84c-5.96,1.88-15.82,6.15-23.27,9.41l-46.31,19.47c-3.86,1.68-7.61,3.41-11.12,5.46
		c-3.43,2.01-7.47,3.84-11.13,5.35c-1.75,0.73-2.96,1.53-4.44,2.52c-1.76,1.19-3.54,2.29-5.46,3.24
		c-3.71,1.86-10.04,4.95-11.32,5.38c-1.27,0.43-3.73,0.5-4.42-0.54c-1.53-2.25-1.26-9.02,0.32-11.21c0.86-1.19,1.72-2.37,1.72-2.52
		c0-0.65-0.26-1.27-0.62-2.12c-0.45-1.06-0.32-2.94-0.01-4.02c0.32-1.12,0.57-2.22,0.79-3.41c0.26-1.3,0.61-2.22,1.11-3.22
		c0.51-1.03,1.03-1.62,1.88-2.29c0.32-0.26,0.45-0.32,0.95-0.43l1.21-0.22c2.28-0.3,2.28-0.3,2.63-0.41
		c4.11-1.19,17.45-7.82,26.29-12.26c0.84-0.41,2.56-1.27,2.83-1.4c1.01-0.5,3.03-1.53,3.03-1.53c2.11-0.91,4.36-2.01,6.57-3.13
		c0.97-0.48,1.95-1.06,2.83-1.62c0.96-0.58,1.94-1.12,2.94-1.62l1.22-0.71l0.71-0.3l0.71-0.39c1.23-0.67,2.62-1.4,3.84-1.94
		c1.8-0.78,3.69-1.38,5.66-2.01c2.17-0.69,4.55-1.53,6.67-2.33l1.42-0.52l0.81-0.3l0.82-0.3c0.95-0.37,1.9-0.71,2.83-1.12
		c2.37-1.01,4.76-2.01,7.28-2.94c4.51-1.7,8.96-3.69,13.15-5.76c0.96-0.5,1.97-0.97,3.04-1.34c0.91-0.3,2.05-0.8,3.02-1.21
		l6.68-2.83c0.45-0.19,4.25-1.6,6.07-2.24c2.2-0.78,4.88-1.75,6.47-2.42c1.03-0.45,1.99-0.84,3.03-1.23
		c1.02-0.37,2.14-0.84,3.24-1.32c2.26-0.97,5.79-2.5,6.87-3.04c9.09-4.56,17.8-8.72,27.3-12.95c0.9-0.41,2.9-1.3,3.13-1.42
		c0.85-0.41,1.82-0.89,2.73-1.3l0.71-0.3l0.9-0.41l0.61-0.32l0.82-0.3l0.7-0.39l0.72-0.41c0.36-0.19,1.41-0.67,2.22-1.01
		c2.01-0.88,3.82-2.07,5.56-3.24C328.48,173.88,329.69,173.08,332.19,172.71z"/>
	<path class="st0" d="M981.02,55.47c0.38-0.52,0.85-0.67,0.73-0.17l-1.21,2.31l-0.2,0.8c-0.38,1.08-1.48,4.27-1.5,4.43
		c-0.11,0.56-0.11,0.56-0.5,1.1c-0.41,0.56-0.63,1.86-0.71,2.31c-0.1,0.63-0.74,4.51-1.31,4.45c-0.16-0.02-1.09,0.71-1.27,0.86
		c-0.5,0.41-1.14,0.93-1.62,1.21c-1.33,0.82-2.66,1.62-3.97,2.35c-0.61,0.35-4.44,3.15-7.13,5.12c-0.68,0.52-2.36,1.62-3.47,2.37
		l-0.72,0.39c-1.25,0.6-1.25,0.6-2.08,1.3l-1.35,0.73c-2.19,1.6-5.72,4.14-6.78,4.86c-1.16,0.78-2.36,1.62-3.49,2.46
		c-0.38,0.28-1.62,1.21-1.62,1.21c-0.53,0.5-1.13,1.04-1.72,1.45l-0.64,0.32c-0.5,0.28-0.9,0.52-1.82,1.21l-1.19,0.88l-0.63,0.34
		l-1.21,0.8l-0.67,0.45c-0.82,0.67-0.82,0.67-0.95,0.76c-5.01,3.17-12.77,8.05-15.26,9.71c-4.15,2.74-9.81,6.24-14.75,9.28
		c-5.07,3.11-9.66,6.59-14.08,10.17c-6.07,4.92-24.31,18.46-30.07,18.93l1.08,0.95c-5.54,3.09-11.53,7.45-16.94,11.36
		c-2.52,1.86-5.34,3.65-7.98,5.27c-2.58,1.6-5.95,3.84-8.98,5.87c-2.56,1.68-5.1,3.43-7.58,5.25c-2.69,1.94-5.4,3.84-8.18,5.66
		c-2.82,1.81-6.45,4.16-8.5,5.65c-1.34,0.97-2.9,2.03-4.64,3.13c-1.27,0.5-1.27,0.5-1.62,0.69c-0.88,0.52-1.58,1.08-2.35,1.7
		c-0.7,0.54-2.37,1.6-3.61,2.35c-1.03,0.63-2.77,2.22-3.89,3.26c-1.2,1.12-2.37,2.2-4.08,2.79c-1.76,0.63-3.51,1.64-5.25,2.65
		c-5.75,3.3-12.31,7.41-17.46,11.57c-3.61,2.91-10.14,7.53-15.45,11.29c-1.34,0.95-3.03,2.14-4.08,2.79l-2.22,1.21
		c-0.82,0.5-1.76,1.08-2.5,1.68c-1.25,1.01-2.47,1.99-3.72,3c-0.53,0.43-1.02,0.86-1.5,1.34c-0.64,0.63-1.36,1.19-2.14,1.71
		c-2,1.25-24.05,23.38-25.1,25.32c-0.67,1.23-1.85,2.79-2.83,3.82c-1.14,1.23-2.44,2.63-3.25,3.74c-0.41,0.56-0.85,1.17-1.21,1.62
		c-0.33,0.41-0.33,0.41-2.15,2.46c-0.27,0.41-0.27,0.41-0.87,1.17c-0.62,0.76-1.2,1.51-1.78,2.31c-1.72,2.31-10.55,17.16-9.58,19.73
		c0,0,3.83,2.79,4.36,3.11c0.72,0.41,1.4,0.73,2.29,1.03c1.31,0.41,2.41,0.84,3.42,1.53c0.71,0.48,1.6,1.08,2.23,1.6
		c0.67,0.56,1.41,1.06,2.17,1.56c1.92,1.25,3.77,2.46,5.79,3.6c3.81,2.14,7.29,4.02,11.37,6.2c0.26,0.13,1.58,1.15,2.19,1.64
		l1.71,1.51c0.27,0.26,0.75,0.67,1.04,0.93c1.63,1.27,3.24,2.5,4.97,3.76c0.29,0.22,3.41,2.01,5.11,2.96
		c0.82,0.45,1.65,0.8,2.64,1.21c0,0,2.56,1.42,3.55,1.99c3.95,2.22,7.43,4.47,10.98,6.99c6.96,4.99,13.84,9.91,21.61,13.99
		c0.94,0.52,2.32,1.23,2.84,1.62c0.76,0.54,1.62,1.1,2.44,1.6c0.13,0.06,1.61,1.08,2.34,1.6c0.97,0.67,2.11,1.47,2.94,2.01
		c1.82,1.15,3.72,2.14,5.69,3.2c1.86,0.97,3.66,2.31,5.11,3.73c5.24,5.18,14.04,10.6,21.08,14.85l1.17,0.84
		c0.82,0.67,0.82,0.67,0.96,0.76c0.5,0.3,0.5,0.3,1.15,0.97l1.02,0.99c0,0,1.72,1.66,2.5,2.44l0.66,0.45c0,0,1.09,0.93,1.63,1.4
		c3.5,3,6.78,5.55,10.56,8.4c0.71,0.54,1.62,1.43,2.48,2.27l0.45,0.65l1.02,1.01c1.6,1.32,3.33,2.55,5.13,3.63
		c2.74,1.68,6.94,4.97,10.12,7.49c3.8,2.98,11.56,10.08,17.36,15.37c0.53,0.5,1.98,1.77,1.98,1.77c0.62,0.43,1.43,1.23,2.17,1.97
		c0,0,1.47,1.45,2.03,2.01c0.17,0.17,0.81,0.73,1.03,0.91c0.61,0.43,1.09,0.78,1.6,1.3c0.67,0.67,1.35,1.36,1.96,2.07
		c0.8,0.95,1.57,1.66,2.54,2.44c1.63,1.27,3.6,2.85,4.85,4.08c0.86,0.86,3.03,2.59,4.43,3.65c1.6,1.25,3.2,2.61,4.63,4.04
		c3.08,3.09,6.82,6.82,8.41,8.96c4.81,6.37,10.55,12.13,16.79,17.1c3.01,2.4,6.26,5.29,8.75,8.23c2.52,2.98,6.19,7.3,7.72,8.81
		c1.39,1.36,2.68,2.83,3.95,4.32c1.23,1.47,3.14,3,4.7,4.12c3.64,2.61,8.67,6.26,10.13,7.68c5.5,5.42,12.17,12,19.67,14.85
		c0.72,0.28,6.42,4.02,10.95,6.99c3.93,2.59,7.77,5.03,12.18,7.19c6.27,3.11,12.64,5.98,20.28,7.47c0.94,0.19,2.4,0.48,2.84,0.61
		l0.82,0.3c1.27,0.54,1.27,0.54,1.83,0.69c0.82,0.21,1.63,0.43,2.23,0.69c0.74,0.32,1.59,0.67,2.42,0.89
		c0.86,0.26,1.51,0.43,2.44,0.6c0.66,0.13,2.04,0.52,3.05,0.8l0.81,0.19c0.91,0.19,0.91,0.19,1.62,0.39
		c0.52,0.15,0.52,0.15,2.84,0.39c0.36,0.04,2.09,0.24,2.43,0.41c1.87,0.91,16.25-0.19,21.26-0.69c0,0,5.55-0.71,7.9-1.01
		c1.98-0.28,1.98-0.28,3.64-0.63c0.86-0.17,2.46-0.48,3.64-0.63c2.23-0.24,6.22-1.45,10.52-2.74c0.18-0.04,3.22-0.6,5.15-0.95
		c1.28-0.22,3.29-1.21,4.37-1.9c1.15-0.73,2.66-1.32,4.05-1.81l1.82-0.61c1.12-0.34,2.02-0.63,2.83-1.01
		c2.21-1.1,4.69-2.44,6.67-3.84c1.41-0.99,1.5-1.23,2.22-3.02c0.58-1.45,1.67-1.79,3.63-2.44c1.48-0.45,5.32-3.86,5.56-5.33
		c0.25-1.49-2.49-17.94-3.73-25.21c-1.13-6.58-3.67-22-3.73-22.52c-1.69-13.8-4.54-28.61-7.44-41.36c-0.4-1.77-2.39-12.48-3.71-19.5
		c-0.54-2.91-1.19-6.35-1.85-8.63l-0.22-0.8l-0.2-1.81l-0.41-1.21l-0.41-1.21l-0.21-1.99l-0.41-2.03
		c-2.52-12.28-4.82-23.05-7.61-35.34c-1.34-5.87-2.47-11.03-3.5-16.06c-1.12-5.46-2.48-12.09-3.7-16.28
		c-2.69-9.17-7.69-26.94-8.21-29.73c-0.52-2.81-1.17-5.59-1.86-8.23c-0.51-2.03-0.63-3.09-0.83-5.83c-0.2-2.68-0.6-4.88-1.03-7.23
		l-0.21-1.21l-0.2-1.4l-0.21-0.8l-0.31-0.82l-0.32-2.2l-0.2-1.4c-0.16-1.15-0.36-2.01-0.62-3.02c-0.7-2.74-1.84-7.3-2.06-8.64
		c-0.84-5.25-2.47-13.23-3.72-19.28c-0.28-1.4-0.55-2.79-0.82-4.21c-0.31-1.7-0.84-4.49-1.03-5.42c-0.11-0.56-0.35-2.07-0.41-2.61
		l-0.21-1.81c-0.35-3.34-0.35-3.34-0.42-3.82c-0.23-1.58-0.57-3.24-1.33-4.32c-1.01-1.43-2.02-2.98-2.85-4.51
		c-1.01-1.86-2.23-4.1-3.13-5.55c-1.13-1.81-2.27-3.8-2.98-5.89c-0.33-0.93-1.92-5.61-0.63-5.64l-1.09-0.45l-0.24-0.73
		c-0.16-0.52-0.34-1.04-0.41-1.4c-0.37-2.03-0.72-3.89-0.62-5.42c0.02-0.41,1.13-3,1.31-3.24c0.29-0.39,0.54-0.37,1.21-0.3
		c1.02,0.09,1.47,0.13,2.1-0.24c0.29-0.17,0.72-2.05,0.63-2.48c-0.65-3.28-0.65-3.28-0.33-5.42l0.4-0.61c0.4-0.6,0.4-0.6,0.8-1.32
		l0.4-0.69l0.8-1.42c1.38-2.59,3.22-6.02,4.02-8.85c1.01-3.54,7.16-18.24,12.92-11.21c1.46,1.77,4.79,11.68,6.04,15.57
		c1.06,3.32,4.83,8.57,7.22,11.83c1.24,1.66,2.58,3.35,3.92,4.97c0.09,0.11,0.85,0.76,1.03,0.91c0.05,0.04,1.08,1.1,1.52,1.58
		c0.79,0.86,2.43,2.61,2.43,2.61c0.69,0.8,1.31,1.47,2.04,2.2c0.15,0.15,1.75,2.01,2.52,2.91c1.51,1.81,3.59,4.3,4.33,5.27
		c1.2,1.55,1.55,4.56,1.45,7.04c-0.1,2.33-11.34,30.2-12.79,32.36c-0.7,1.06-2.9,2.46-4.33,2.79c-1.36,0.32,0.67,8.74,1.08,10.12
		c0.61,2.07,1.13,6.52,1.45,9.24c0.46,3.86,1.63,9.26,2.98,13.26c1.15,3.37,2.26,6.84,3.18,10.45c1,3.89,2.15,7.02,3.69,10.04
		c0.95,1.86,1.27,4.73,1.45,7.23c0.13,1.99,0.73,5.16,1.24,7.62c1.08,5.23,2.15,10.49,3.89,14.27c1.76,3.78,2.75,12.35,3.1,17.06
		c0.06,0.84,0.13,1.17,0.41,2.03c0,0,0.59,2.83,0.83,3.99l0.2,1.01l0.21,0.8l0.41,2.22l0.21,1.6l0.2,1.01l0.21,0.8
		c0.05,0.8,1.62,7.28,2.68,11.66c0.64,2.66,1.68,7.08,1.85,8.23c0.33,2.22,0.83,4.53,1.44,6.63c0.26,0.91,0.47,1.92,0.62,3
		l0.21,1.62l0.11,2.61c0.05,0.21,1.12,5.48,1.55,7.64c0.4,2.03,0.92,4.12,1.53,6.02c0.58,1.79,1.62,5.07,1.74,5.81
		c0.3,1.81,0.52,3.02,0.62,4.43l0.22,3.22l0.22,2.61v0.8c0.03,0.3,0.98,5.14,1.45,7.45c0.55,2.72,2.03,11.25,2.89,16.26
		c0.9,5.25,3.01,17.98,3.11,18.7c0.17,1.47,0.47,3.63,0.61,4.4c0.33,1.71,0.59,3.19,0.84,5.44l0.19,0.8l0.21,1.01l0.21,0.8
		c0.45,1.94,0.71,3.41,0.84,5.81c0.52,9.89,0.32,19.1-0.49,27.96c-0.14,1.53-0.21,4.99-0.21,6.84c0.01,2.81,0,7.21-0.16,8.42
		c-1.03,7.38-2.29,16.28-3.37,21.74c-1.3,6.5-2.47,12.48-5.92,14.29c-0.39,0.19-2.46,3.99-3.23,5.44c-1.22,2.29-2.75,5.16-3.99,5.87
		c-0.17,0.11-2.37,2.18-3.23,3.02c-1.13,1.14-2.35,2.27-3.6,3.26c-1.88,1.51-6.93,5.27-7.75,5.48c-3.19,0.88-6.92,2.76-10.12,4.36
		c-1.52,0.78-3.63,1.47-5.26,1.92l-1.01,0.22l-0.81,0.19l-1.22,0.22c-1.17,0.24-2.69,0.54-3.64,0.91c-0.94,0.37-1.8,0.73-2.62,1.23
		c-0.98,0.54-2.48,1.4-3.44,1.51h-1.83h-0.71l-0.71,0.02c-1.23,0.15-3.8,0.52-4.66,0.82c-3.23,1.06-13.73,2.22-20.05,2.87
		c-6.56,0.67-14.41,0.45-20.46-0.52c-11.5-1.88-22.55-5.61-32.64-9.84c-5.32-2.24-9.15-4.14-13.4-7.19
		c-4.09-2.94-8.51-5.92-13.39-7.9c-1.08-0.43-5.12-3.8-7.47-5.74l-7.52-6.22c-3.59-2.91-13.16-11.44-13.52-12.09
		c-1.55-2.83-8.07-9.37-11.49-12.74c-4.09-4.01-9.33-9.24-12.24-13.19c-6.77-9.2-14.87-17.73-22.94-25.67
		c-3.19-3.15-11.24-11.35-11.42-11.59c-0.44-0.54-5.06-4.97-7.77-7.58c-1.22-0.99-1.22-0.99-2.76-2.27
		c-0.49-0.45-1.02-0.97-1.47-1.47c-3.41-3.82-8.76-7.95-13.1-11.31l-0.67-0.43c-0.72-0.52-0.72-0.52-1.05-0.78
		c-0.53-0.37-1.23-0.93-2.08-1.75c-0.27-0.28-1.45-1.32-2.49-2.25l-0.68-0.43l-1.01-0.82c-0.61-0.54-1.24-1.1-1.63-1.38
		c-0.64-0.48-3.49-2.57-3.62-2.25c-0.09,0.22,2.43,4.88,2.99,5.89l0.4,0.8l0.83,1.4l0.4,0.82c0.1,0.19,0.1,0.19,0.82,1.38
		c0.18,0.32,0.27,0.56,0.51,1.21c0.14,0.41,0.57,1.49,0.72,1.81l0.4,0.8l0.3,0.6l1.23,2.81c0.52,1.19,1.35,3.09,1.6,3.48
		c0.74,1.19,1.43,2.53,1.66,4.14c0.55,3.97,1.48,9.11,2.98,12.46c1.55,3.45,2.76,8.53,2.78,12.67c0.02,7.79,0.16,14.96,0.48,22.3
		c0.24,5.46-0.28,15.26-1.55,20.32c-0.26,1.06-0.52,2.09-1.15,2.76c-0.74,0.8-1.71,1.86-1.87,2.65c-0.22,1.1-0.24,1.73-0.18,2.83
		c0.1,2.12,0.23,4.9,0.22,5.03c-0.16,1.83-0.39,3.97-1,5.83c-1.73,5.23-3.84,11.55-5.75,14.64c-3.37,5.44-23.85,15.52-31.09,17.94
		c-3.9,1.32-8.01,2.48-11.75,3.26c-4.17,0.89-8.22,1.75-12.14,2.85c-1.76,0.52-3.99,1.06-5.97,1.25
		c-2.62,0.21-12.44,1.23-12.44,1.23c-2.82,0.71-6.72,0.93-9.72,1.04l-1.01,0.11l-0.71,0.41l-0.71,0.3c-1.4,0.45-3.35,0.67-5.07,0.82
		c-1.86,0.17-3.72,0.35-5.06,0.63c-2.13,0.43-2.45,0.46-6.89,0.63l-4.35,0.21l-1.32-0.19l-3.64-0.19c-1.23-0.04-1.23-0.04-2.24,0.21
		c-2.18,0.54-4.85,0.39-7.68,0.22l-4.87-0.17l-1.41-0.19c-2.03,0.34-4.13,0.06-5.89-0.19c-1.31-0.19-2.72-0.19-4.03-0.17
		c-1.63,0-4.19-0.11-6.49-0.19l-3.24,0.02c-2.47,0-2.47,0-3.04-0.19c-0.8-0.28-0.8-0.28-2.27-1.53l-0.98,0.13
		c-0.23,0-1.52-0.3-1.82-0.39l-0.82-0.19l-1.01-0.21c-0.52-0.11-1.37-0.32-1.83-0.48c-1.51-0.54-4.66-1.64-5.23-2.05
		c-7.03-4.77-15.33-10.41-21.12-16.19c-0.63-0.63-1.28-1.08-2.07-1.58c-0.97-0.58-1.88-1.36-2.68-2.16
		c-1.03-1.01-3.43-3.02-5.21-4.49c-1.48-1.21-2.86-3.11-3.94-4.73c-0.86-1.25-4.87-5.05-6.42-2.98c-1.37,1.83-3.28,4.99-4.74,7.34
		l-0.33,0.86l-0.82,1.42l-0.4,0.99c-0.27,0.63-0.43,0.91-0.8,1.42c-0.7,0.97-1.77,2.42-2.58,3.07c-0.6,0.48-3.26,2.96-4.72,4.34
		c-0.73,0.69-0.73,0.69-1.82,2.03c-0.88,0.95-1.71,1.7-2.78,2.46c-0.11,0.06-1.45,1.36-2.07,1.99c-0.9,0.91-1.89,1.73-2.95,2.5
		c-1.7,1.23-3.55,2.55-5.36,3.65c-2.83,1.73-7.94,3.95-12.06,5.72c-0.58,0.24-2.13,0.69-3.23,0.99c-0.72,0.21-0.72,0.21-1.62,0.43
		c-0.6,0.13-1.36,0.37-2.03,0.6c-1.46,0.48-3.02,0.99-4.05,1.51c-1,0.5-2.15,0.91-3.44,1.12l-2.22,0.22h-1.42l-3.64,0.52l-0.61,0.3
		l-0.8,0.19c-0.8,0.19-1.22,0.3-1.82,0.41c-0.55,0.11-2.51,0.34-3.05,0.41l-2.42,0.21l-2.71,0.02c-0.55,0.06-2.78,0.99-3.15,1.19
		c-1.98,1.1-5.92,1.99-8.1,2.25c-3.9,0.48-6.93,1.06-9.92,1.94c0,0-2.99,0.65-4.45,0.93c0,0-0.01,0-1.41,0.41
		c-0.73,0.19-1.53,0.43-2.23,0.61c-1.17,0.3-2.44,0.6-3.64,0.82c-1.79,0.3-3.1,0.65-4.65,1.01c-1.2,0.3-3.83,0.37-5.86,0.43
		c-5.93,0.15-9.97,0.52-15.2,1.06c-2.98,0.3-6.08,0.63-6.88,0.63h-1.41c-2.32-0.13-4.6-0.28-5.68-0.17
		c-3.95,0.39-10.81,0.91-11.33,0.84c-7.24-0.95-16.53-1.17-23.7-0.71c-4.33,0.26-7.65,0.45-8.5,0.22c-1.66-0.45-3.17-0.58-5.87-0.8
		c-1.16-0.06-1.43-0.15-2.24-0.47c-0.57-0.24-1.32-0.56-1.82-0.71c-0.53-0.13-0.53-0.13-2.44-0.39l-2.83-0.39
		c-2.19-0.33-4.18-0.63-5.27-0.89c-1.53-0.34-4.35-1.34-6.49-2.07c-2.61-0.93-4.95-2.22-7.2-3.52c-1.04-0.58-2.08-1.08-3.14-1.58
		c-0.27-0.13-0.27-0.13-1.29-0.88c-0.41-0.3-1.69-1.19-1.69-1.19c-2.84-1.51-10.75-9.35-12.74-12.03c-0.64-0.84-2.29-5.37-3.31-8.16
		c-0.37-1.04-0.55-1.68-0.82-3c-0.17-0.88-0.65-1.96-1.13-3.02c-0.74-1.68-2.03-4.51-2.03-4.51c-0.91-0.5-4,3.54-4.44,4.34
		c-1.2,2.18-3.45,6.07-3.93,6.43c-1.62,1.3-3.12,2.57-4.4,4.17c-1.52,1.92-3.33,3.15-5.4,4.51c-7.7,5.14-16.49,9.61-25.27,13.67
		c-3.84,1.77-12.66,5.92-13.14,6.17c-1.43,0.75-8.36,3.37-13.95,5.48c-1.03,0.37-2.4,0.67-3.66,0.91c-1.28,0.26-3.62,0.76-4.03,0.93
		l-1.62,0.8l-0.8,0.41l-0.82,0.39c-0.81,0.41-0.81,0.41-1.41,0.52c-1.34,0.24-3.93,0.67-4.06,0.71c-1.25,0.56-2.3,0.91-4.04,1.12
		c-1.84,0.24-3.14,0.54-4.66,1.04c-0.94,0.28-2.22,0.97-3.24,1.51c-1.04,0.56-3.08,1.6-4.03,1.73c-2.33,0.26-9.92,2.18-17.42,4.08
		c-6.08,1.53-12.04,2.83-18.62,3.67c-12.31,1.58-38.8,4.6-45.76,3.39c-1.4-0.26-3.23-0.5-4.26-0.19c-1.4,0.41-3.59,0.41-5.46,0.43
		c-4.52,0-12.64-0.06-13.37-0.17c-6.19-0.8-12.92-1.66-17.02-2.55c-3.05-0.67-3.68-0.43-6.08,0.43c-2.9,1.04-4.54,0.3-6.69-0.69
		c-0.35-0.17-16.53-2.29-22.08-2.83c-0.71-0.09-1.88-0.37-2.84-0.6c-1.17-0.28-1.87-0.45-3.24-0.58c-1.65-0.17-2.46-0.34-3.64-0.69
		c-1.58-0.45-2.88-0.8-4.67-1.1c-1.3-0.19-2.22-0.5-3.25-0.89c-1.01-0.41-1.01-0.41-1.83-0.8c-0.62-0.3-0.9-0.45-1.41-0.6
		c-1-0.28-1.78-0.48-2.84-0.69c-1.28-0.26-2.69-0.52-3.64-0.88c-5.4-2.07-12.08-5.35-18.05-8.29c-5.56-2.72-15.47-7.79-18.02-10.12
		c-4.63-4.21-9.27-8.27-14.22-12.22c-1.16-0.91-2.25-1.92-3.13-3.11c-0.87-1.16-1.95-2.29-2.98-3.3c-1.11-1.1-2.34-2.29-3.62-3.22
		c-2.38-1.73-4.11-2.98-4.34-3.54c-0.15-0.41-0.37-0.71-0.82-1.3c-0.47-0.65-0.82-1.27-1.22-2.01l-0.4-0.71
		c-0.41-0.99-0.41-0.99-0.89-1.88l-0.34-0.93l-0.4-0.8l-0.41-0.71c-0.7-1.38-1.35-2.65-1.94-4.1c-0.58-1.45-1.31-3.24-2.19-4.38
		c-3.08-4.08-6.35-10.06-7-16.3c-0.69-6.67,0.38-13.56,1.76-19.08c1.06-4.32,1.88-13.84,2.36-19.52c0.33-3.91,1.46-7.25,2.59-10.47
		l0.3-0.8c0.45-1.12,0.45-1.12,0.71-2.01c0.2-0.67,0.64-1.88,1-2.83c0.33-0.86,0.65-1.66,1.14-2.37c0.55-0.8,1.25-1.82,1.57-2.66
		c0.36-0.91,1.1-3.54,1.51-5.03c0.48-1.73,1.12-4.06,1.4-4.84c1.29-3.6,2.7-6.63,4.32-9.86c1.98-3.95,9.18-16.82,9.76-17.1
		c1.01-0.52,2.01-0.99,3.1-0.39c2.12,1.21,1.18,4.45,0.58,6.39c-0.88,2.83-1.06,3.43-0.68,7.95c0.14,1.73,0.38,4.47,0.12,6.54
		c-0.01,0.09-1.38,2.98-1.9,4.01l-2.01,3.82c-1.15,2.31-2.15,4.77-2.91,7.45c-1.61,5.68-3.67,12.95-4.19,18.31
		c-0.51,5.25,9.57,26.64,12,30.46c3.65,5.83,13.01,13.97,19.63,19.73c1.45,1.25,2.98,2.48,4.61,3.56c0.93,0.6,2.34,1.29,3.75,1.99
		c1.02,0.5,2,1.51,2.64,2.42c1.58,2.18,8.89,6.35,12.38,8.18c10.75,5.65,23.53,11.03,36.92,13.64c9.5,1.86,21.98,4.23,29.79,3.93
		c2.25-0.09,4.05-0.17,5.36,0.48c0.88,0.43,7.05,0.93,11.45,1.27c3.1,0.24,6.46,0.71,9.52,1.17c3.92,0.58,8.15,1.08,12.37,0.97
		c15.33-0.41,56.24-2.96,58.92-4.04c0.27-0.11,1.88-0.3,2.64-0.41c0.8-0.11,0.8-0.11,2.01-0.41l1.02-0.19l1.21-0.22
		c0.41-0.09,1.53-0.41,2.23-0.58c1.14-0.34,1.41-0.41,1.41-0.41l1.01-0.22l0.82-0.19c0.53-0.15,0.53-0.15,2.01-0.43
		c0,0,1.8-0.43,2.44-0.6c2.72-0.69,4.89-1.3,7.48-2.03l0.8-0.22l1.43-0.19c0.45-0.09,0.92-0.24,1.41-0.41l4.66-1.23
		c9.65-3.22,18.38-5.68,28.93-8.33c0.29-0.09,2.14-0.88,3.03-1.32c0.47-0.22,0.82-0.3,1.62-0.52c0.88-0.21,1.79-0.45,2.62-0.69
		c1.33-0.41,2.52-0.86,3.64-1.43c1.41-0.71,3.19-1.6,4.25-1.92c0.77-0.26,4.54-2.07,6.67-3.15c1.96-0.97,4.28-2.12,6.34-2.89
		c4.97-1.92,8.66-3.95,12.98-6.43c4.09-2.33,9.24-5.27,12.23-6.87c4.97-2.66,11.37-11.79,14.93-17.12c1.15-1.75,2.2-3.67,3.11-5.66
		c0.31-0.65,0.97-1.73,1.51-2.61c0.54-0.89,1.1-1.81,1.61-2.72c0.4-0.71,0.4-0.71,0.8-1.32l0.8-1.4l0.82-1.1l0.79-1.32
		c0.51-0.86,0.94-1.88,1.32-2.83c0.66-1.66,0.88-2.03,2.17-3.09c2.64-2.09,5.55,0.39,6.33,2.65c1.49,4.38-2.14,13.64-3.59,17.1
		c-0.87,2.09-1.2,4.23-1.6,6.84c0,0-1.68,11.1-0.67,9.46c0,0,2.14,2.91,2.48,3.37c0.51,0.54,0.92,1.04,1.38,1.64
		c0.11,0.13,2.76,2.4,4.18,3.61l0.66,0.43c3.81,3.15,7.92,5.65,12.63,7.96c3.35,1.64,11.95,3.17,18.04,4.25l1.21,0.22l1.43,0.19
		c1.04,0.15,2.21,0.35,3.24,0.58c1.22,0.26,1.22,0.26,2.02,0.39c1.06,0.17,2.09,0.37,3.05,0.6c2.25,0.54,4.19,0.48,7.09,0.37
		c3.06-0.11,3.39-0.11,4.45,0.28c0.94,0.37,1.99,0.76,2.84,0.91c1.59,0.26,1.95,0.26,5.68,0.39l1.62-0.02c3.85,0,3.85,0,11.95,0.15
		c7.09,0.15,14.42,0.15,21.26-0.48c2.34-0.19,2.73-0.19,4.66-0.22c3.89,0,6.2-0.11,9.52-0.43c1.77-0.17,2.36-0.22,3.45-0.41
		c0.16-0.02,3.92-0.43,5.67-0.63c5.54-0.58,15.68-2.63,23.89-4.3c12.58-2.55,27.02-5.46,38.25-7.97
		c11.84-2.65,21.84-7.19,29.89-13.51c4.27-3.37,7.82-7.51,11.14-11.85c3.07-4.02,9.36-15.03,14.29-23.68
		c0.55-0.93,1.61-2.81,1.61-2.81c0.21-0.34,0.21-0.34,0.51-1.32c0.18-0.61,0.71-1.81,1.14-2.16c1.02-0.84,4.49-2.2,6.5,0.26
		c1.7,2.05,0.99,7.47,0.48,11.31c-0.22,1.7-0.59,3.02-0.99,4.45c-0.45,1.55,0.16,8.18,0.16,8.18s3.26,2.87,3.86,3.41l0.67,0.45
		l0.66,0.43c1.35,1.1,3.62,2.7,5.43,3.95c0.77,0.54,1.55,1.1,2.26,1.68c0,0,2.07,1.47,2.77,1.99c0,0,2.22,1.34,3.19,1.92
		c0.77,0.48,3.24,2.01,3.24,2.01c14.14,10.1,54.89,12.78,76.19,8.48l1.41-0.21l4.46-0.19l1.41-0.22l1.01-0.22
		c1.36-0.3,1.36-0.3,2.03-0.41l1.41-0.19c2.41-0.3,2.41-0.3,2.83-0.41c1.09-0.32,1.89-0.52,3.03-0.63c7.66-0.65,17-1.45,21.26-2.87
		c2-0.67,4.15-1.16,6.47-1.64c1.83-0.37,6.81-1.58,7.53-1.96l0.97,0.13l1.22-0.21c1.08-0.19,2.11-0.54,3.03-0.91
		c0.87-0.32,1.8-0.69,2.63-1.01c0.94-0.34,0.94-0.34,1.62-0.5c0.91-0.22,1.94-0.45,2.83-1.04l0.82-0.3l1.41-0.69
		c1.36-0.58,1.49-0.65,1.61-0.71l0.72-0.41c0.34-0.19,1.02-0.58,1.91-0.91c0.73-0.22,1.41-0.41,1.62-0.52
		c1.24-0.63,2.74-1.47,3.94-2.22l0.71-0.41c0.97-0.5,0.97-0.5,1.38-0.84c0.6-0.5,1.41-1.14,2.06-1.47c1.96-0.97,5.92-4.3,6.36-6.56
		c0.15-0.78-2.7-8.59-3.59-10.84c-5.38-13.6-12.08-25.78-18.97-37.72c-1.08-1.9-6.75-10.3-10.58-15.95l-5.3-7.21
		c-0.94-1.38-1.99-2.96-3.29-4.68c-0.33-0.39-0.77-0.95-0.77-0.95c-0.47-0.65-0.47-0.65-0.98-1.12c-0.43-0.43-0.57-0.56-0.89-1.12
		c-2.37-4.04-14.75-16.34-22.57-24.05c-1.85-1.81-5.85-6.05-10.26-10.73c-1.08-0.84-1.12-0.88-1.12-0.88
		c-0.98-0.95-2.55-2.48-3.08-2.92c-1-0.78-2-1.64-2.77-2.63c-1.82-2.29-3.82-4.51-6.06-6.35c-8.15-6.69-16.95-13.9-24.08-21.05
		c-7.5-7.49-16.31-14.16-25-20.42c-2.02-1.47-3.88-3.09-5.68-4.79c-2.1-1.99-3.86-3.58-6.44-5.14c-2.34-1.43-4.41-2.68-7.31-3.69
		c-1.37-0.5-2.33-1.4-3.49-2.48c0,0-2.41-1.64-3.61-2.44c-4.76-3.13-9.58-6.54-14.17-10.04c-2.74-2.09-3.96-4.68-4.83-8.79
		c-0.75-3.52-0.87-7.66-0.64-11.14c0.15-2.55,0.2-3.26-0.53-4.95c-1.4-3.19,0.12-7.94,1.08-10.84c1.03-3.11,2.78-8.48,3.03-9.45
		c0.13-0.56,0.58-2.38,0.47-2.83c-0.25-1.06-0.34-1.45-0.11-2.61l0.2-0.61l0.21-1.81l0.2-1.4c0.15-0.86,0.5-2.2,0.79-3.22
		c0.1-1.17,0.11-1.27,0.2-1.62l0.2-0.61l0.31-0.8l0.4-0.99c0.18-0.54,0.49-2.35,0.7-3.63c0.14-0.86,0.35-1.86,0.6-2.61
		c4.03-12.11,11.15-24.29,18.46-33.61c3.3-4.19,9.47-10.88,14.12-15.91c4.95-5.35,11.33-12.26,15.58-15.65
		c2.58-2.05,5.12-4.58,7.44-6.95c2.69-2.72,5.5-5.18,8.47-7.66c2.25-1.86,8.12-6.52,9.26-7.1c3.6-1.81,6.69-3.89,9.77-6.13
		c5.69-4.16,13.55-9.86,18.12-12.35c3.47-1.9,7.58-4.16,10.27-6.22c1.48-1.12,3.25-2.48,4.32-3.54c0.71-0.71,1.64-1.19,2.59-1.66
		c1.03-0.52,2.33-1.17,2.99-1.66c1.22-0.89,5.98-4.08,8.99-6.09c0.12-0.07,1.82-1.1,2.63-1.62l0.74-0.34l1.01-0.41
		c0.32-0.15,0.92-0.63,1.18-0.84c0.73-0.58,1.51-1.1,2.36-1.58c0.96-0.54,2.84-1.62,2.89-1.64c6.07-4.16,17.48-11.89,19.44-13.1
		c26.14-16.08,52.34-33.18,76.52-51.4c0.53-0.39,1.1-0.76,1.69-1.12c0.83-0.54,1.71-1.12,2.49-1.68c0.18-0.13,1.77-1.04,2.67-1.55
		c0.41-0.24,1.76-1.14,2.59-1.68c1.58-1.06,3.92-2.59,4.98-3.17c0.87-0.45,3.45-2.16,5.06-3.22c1.67-1.12,3.72-2.5,5.25-3.15
		c1.6-0.67,4-2.18,5.19-3.39c0,0,3.72-2.44,4.92-3.17c0.85-0.52,1.61-1.08,2.36-1.68c0.67-0.54,1.43-1.06,2.19-1.56
		c6.13-4.08,13.88-9.26,18.24-12.76c1.48-1.19,3.02-2.18,4.69-3.19c1.55-0.95,4.11-2.53,4.93-3.09c0.72-0.52,2.56-1.75,2.56-1.75
		c0.47-0.28,0.47-0.28,1.08-0.88c0.29-0.3,0.29-0.3,1.04-0.73c0.7-0.43,2.34-1.4,2.23,0.39l-0.64,1.53
		c-0.23,0.58,0.12,0.67,0.61,0.41c0.29-0.32,0.35-0.39,0.75,0.17c0.18,0.26-1.44,4.17-1.82,4.81c-0.83,1.45-1.2,4.28-1.49,6.54
		c-0.25,1.9-0.74,4.3-1.29,6.84C981,50.78,980.48,55.36,981.02,55.47z"/>
</g>
</svg>
