<?xml version="1.0" encoding="utf-8"?>
<!-- Generator: Adobe Illustrator 23.0.3, SVG Export Plug-In . SVG Version: 6.00 Build 0)  -->
<svg version="1.1" id="Layer_1" xmlns="http://www.w3.org/2000/svg" xmlns:xlink="http://www.w3.org/1999/xlink" x="0px" y="0px"
	 viewBox="0 0 1283 588" style="enable-background:new 0 0 1283 588;" xml:space="preserve">
<style type="text/css">
	.st0{fill-rule:evenodd;clip-rule:evenodd;fill:#231F20;}
	.st1{fill-rule:evenodd;clip-rule:evenodd;fill:#FFFFFF;}
</style>
<g>
	<path class="st0" d="M1096.2,414.16c0,0,10.36-0.06,13.95-0.16c2.24-0.05,6.19-0.61,8.39-1.26c2.92-0.85,6.71-1.84,9.74-2.6
		c3.75-0.94,14.78-4.87,17.29-7.02c6.24-5.32,12.45-10.61,16.15-18.03c1.81-3.57,6.48-13.35,6.48-13.35c0.72-2.04,1.71-4.82,2-6.88
		c0.59-4.1,0.92-4.64,3.39-6.62c0.54-0.43,0.54-0.43,0.81-1.12c0.27-0.65,0.63-1.01,1.26-1.26c0.38-0.14,0.38-0.14,1.84-0.14
		c0.52-0.02,0.81-0.58,1.19-1.28c1.05-1.97,2.24-4.22,3.01-6.04c1.84-4.35,4.19-8.81,6.73-12.59c4.6-6.91,9.24-13.64,13.98-20.3
		c0.81-1.15,2.18-2.25,3.39-3.05c1.25-0.83,2.53-1.86,3.59-2.89c2.53-2.49,5.54-5.45,7.42-6.69c3.14-2.11,11.3-6.24,16.64-4.78
		c2.4,0.63,7.34,3.74,10.72,5.83c1.68,1.05,7.58,10.5,8.77,12.9c1.62,3.23,3.86,9.44,5.47,13.93c0.45,1.3,0.9,2.54,1.42,3.88
		l0.33,0.67c0.52,0.89,0.52,0.89,0.59,1.17l0.16,0.85c0.18,0.94,0.18,0.94,0.51,1.84c0.43,1.15,0.83,2.38,1.26,3.7
		c0.45,1.34,0.94,2.73,1.43,4.02c0.02,0.05,0.4,1.35,0.59,2.02c0.25,0.85,0.29,1.01,0.58,1.86c0.18,0.51,0.38,1.14,0.5,1.66
		l0.18,0.85l0.16,1.01l0.34,1.17l2.35,10.25c0.45,1.57,0.83,3.48,1.17,5.22c0.33,1.64,0.72,3.3,1.17,4.87
		c0.38,1.35,0.85,5.05,1.01,6.3c0.27,2.09,1.12,12.32,0.69,10.67l-0.18,1.17l-0.25,0.85l-0.25,0.67l-0.16,1.17l-0.16,0.69
		c-0.4,1.35-0.79,2.65-1.26,3.86c-0.43,1.08-0.89,2.11-1.35,3.19c-0.32,0.74-0.32,0.74-0.41,0.99l-0.25,0.69l-0.34,0.67l-0.25,0.5
		c-0.33,0.85-0.7,2.31-1.01,3.52c-0.16,0.65-0.54,2-0.83,3.03c-0.69,2.38-1.34,4.53-2.47,6.35c-0.52,0.85-1.5,1.57-2.65,1.8
		c-2.4,0.47-22.86-0.4-25.21-1.19c-4.64-1.55-9.8-2.24-15.12-2.85c-5.34-0.63-11.08-1.52-15.63-3.27c-0.59-0.23-0.59-0.23-1.34-0.43
		c-0.9-0.22-0.9-0.22-1.68-0.51c-0.49-0.16-1.17-0.41-1.17-0.41l-0.69-0.34l-0.65-0.23c-1.77-0.67-4.22-1.59-5.38-2.11
		c-1.39-0.61-3.72-1.44-5.56-2.09c-1.98-0.7-4.37-1.55-5.88-2.78c-0.5-0.4-1.05-0.85-2.27-1.84l-0.54-0.38
		c-0.99-0.83-2.06-1.68-3.07-2.47c-0.78-0.63-1.75-1.61-2.58-2.42c-0.65-0.65-2.31-2.22-2.87-2.47c-0.85-0.36-3.66,4.21-4.35,5.32
		l-0.29,0.74c0,0,0,0.02-0.49,1.17c-0.25,0.56-0.58,1.23-0.85,1.75l-0.25,0.6c-0.33,0.85-0.33,0.85-0.58,1.35l-0.34,0.67l-0.34,0.83
		l-0.34,0.67c-2.26,4.55-5.96,11.8-7.22,13.53c-3.32,4.57-9.02,12.16-12.85,14.71c-2.96,1.97-6.3,4.21-8.82,5.45
		c-2.98,1.5-11.57,3.95-18.32,5.9c-3.05,0.85-9.02,2.45-9.91,2.51c-6.3,0.45-22.72,0.94-23.51,0.6c-0.25-0.11-1.21-0.33-2.36-0.6
		l-0.67-0.25l-1.01-0.25l-0.67-0.25l-0.85-0.25c-0.5-0.16-1.01-0.32-1.52-0.5c0,0-2.04-0.69-3.01-0.99c-3.12-1.05-7.24-2.42-10-4.13
		l-1.06-0.7c-0.43-0.33-1.1-0.81-1.37-0.98c-1.23-0.7-2.37-1.33-3.63-2.02c-0.81-0.43-2.06-1.5-3.18-2.51l-0.96-0.81
		c-0.31-0.33-0.47-0.47-0.87-0.65c-0.81-0.36-2.56-2.09-3.14-2.81c-0.83-1.06-2.62-3.29-2.82-3.5c-0.7-0.69-1.77-2.06-2.6-3.12
		c-0.76-0.98-1.66-2.04-2.54-2.94c-1.91-1.95-6.15-10.95-7.07-14.06c-0.45-1.53-0.98-2.94-1.61-4.37c-0.38-0.88-0.74-2.13-1.08-3.37
		c-0.13-0.45-0.4-1.14-0.6-1.66c-0.25-0.67-0.38-1.23-0.59-2.02l-1.17-4.2c-0.14-0.61-0.32-1.34-0.5-1.84
		c-0.16-0.5-0.34-1.16-0.5-1.68c-0.43-1.57-0.92-3.25-1.34-4.71l-1.17-3.7c-0.43-1.52-0.83-3.17-1.17-4.71
		c-1.52-6.79-3.07-16.84-4.38-25.35c-0.43-2.87-1.46-16.33-2.17-25.55c-0.45-5.72-1.21-10.77-2.36-15.95
		c-1.66-7.43-3.21-19.14-4.53-29.07l-0.16-1.35l-0.18-1.17l-0.16-1.17l-0.16-1.68l-0.18-1.01l-0.16-1.68l-0.16-1.52
		c-0.18-1.41-0.38-3.59-0.5-5.38c-0.16-2.06-0.43-5.29-0.69-6.37l-0.25-0.69c-0.13-0.4-0.36-1.15-0.42-1.66v-0.87v-2.67l-0.16-1.7
		l-0.16-1.17l-0.51-4.02l-0.34-3.03c-0.09-0.97-0.34-3.36-0.34-3.36c-1.81-12.65-3.34-26.45-4.53-38.98
		c-0.78-8.16-2.82-21.47-4.53-32.59c-1.32-8.52-2.96-16.64-5.05-24.87l-0.25-1.34l-0.25-0.86c-0.22-0.94-0.61-2.63-0.67-2.85
		c-0.06-0.22-0.34-1.48-0.51-2.18c-0.18-0.89-0.43-1.88-0.67-2.69c-0.78-2.73-2.47-9.3-2.18-11.07v-1.34v-1.52v-1.01
		c-0.13-1.34-0.13-1.34,0-2.61c0.05-0.55,0.11-1.06,0.09-1.26c-0.04-0.4-0.11-1.86,0.33-2.34c0.09-0.11,0.79-2.56,1.26-4.21
		c0.2-0.69,0.36-1.37,0.51-2.19c0.2-1.08,0.5-1.94,0.83-2.85c0.27-0.68,0.59-1.34,0.94-2.01c0.33-0.67,0.65-1.41,1.01-2.19
		l0.67-1.17l0.25-0.51c0.33-0.8,0.7-1.68,0.85-2.52c0.56-3.37,1.8-5.41,3.61-8.32c0.79-1.28,1.55-2.54,3.36-2.27
		c0.49,0.07,0.78,1.03,0.92,1.51c0.14,0.5,0.31,1.28,0.34,1.85l0.16,5.88l0.16,1.01c0.27,1.46,0.69,2.72,1.26,3.85
		c0.67,1.35,1.32,2.68,1.77,4.21c0.38,1.34,0.74,2.71,1.01,4.2l0.16,1.01c0.23,1.68,0.23,1.68,0.34,2.18l0.32,1.68l0.18,0.68
		l0.16,1.18c0.4,2,0.78,4.05,1.01,6.54c0.2,2.2,0.6,4.38,1.17,6.39c0.86,3.03,1.55,6.46,2.18,9.55l0.34,1.35l0.32,1.5l0.18,0.69
		c0.2,1.44,0.33,4.4,0.33,5.56l-0.16,1.34c-0.05,0.83,0,1.34,0.16,3.52c0.33,3.95,0.79,9.47,1.61,12.27
		c0.47,1.68,1.08,5.61,1.59,8.9c0.23,1.59,0.69,4.69,0.67,5.23c-0.13,5.2-0.23,9.06,0.34,13.93l0.18,1.34l0.16,2.2
		c0.11,1.32,0.38,3.79,0.49,4.37c0.4,1.77,0.69,3.88,0.69,6.04c0,2.98,0.96,7.81,1.68,11.42c0.54,2.74,1.25,6.24,1.68,7.72
		c0.7,2.44,0.56,6.12,0.34,8.91c-0.15,1.7,0.36,9.65,0.67,14.11l0.16,1.68l0.16,0.67c0.11,0.45,0.11,0.45,0.34,1.68
		c0.29,1.57,0.6,3.45,0.83,5.04c0.52,3.34,1.08,6.23,1.7,9.24c3.09,15.43,6.08,42.4,8.39,63.17c0.61,5.4,1.28,11.44,2.37,15.3
		c0.99,3.55,2.09,7.56,2.69,11.08c0.49,3.03,1.42,5.83,2.34,8.57c0.36,1.07,0.85,2.54,1.08,3.19c0.54,1.44,1.32,3.5,1.61,4.55
		c1.34,4.8,5.2,12.32,8.1,15.81c3.46,4.15,7.71,9.24,10.43,11.44c4.15,3.34,9.2,7.42,13.48,8.95
		C1081.71,410.28,1094.58,414.47,1096.2,414.16z"/>
	<path class="st0" d="M113.61,373.07c2.04-0.56,4.02,2.44,5.04,3.95c1.06,1.57,2.25,3.09,3.79,4.19c4.19,3.05,17.09,4.91,23.42,4.8
		c5.47-0.09,16.53-0.42,18.32-1.01c0.65-0.22,2.62-0.49,4.04-0.67c0.87-0.13,2.06-0.56,3.03-0.92l5.61-1.86
		c1.21-0.45,4.8-1.77,4.8-1.77c1.01-0.31,1.97-0.56,3.01-0.83c1.01-0.25,1.97-0.54,2.87-0.92c3.23-1.41,6.87-2.65,10.25-3.61
		c1.23-0.36,6.75-2.78,10.23-4.29c7.24-3.16,13.46-7.11,19.67-11.26c3.74-2.49,12.36-10.41,14.18-14.43
		c0.04-0.07,0.87-1.46,1.26-2.11l0.34-0.58l0.69-0.69l0.16-0.83l0.33-0.6c0.25-0.43,1.05-1.98,1.52-2.92l0.34-0.69l0.33-0.85
		c0.29-0.65,0.88-1.97,1.01-2.18c0.56-0.98-1.06-6.21-1.52-7.56c-0.87-2.62-1.57-4.98-2.26-7.72c-0.5-2.02-1.14-4.06-1.86-6.04
		l-0.51-1.35l-0.25-0.67l-0.58-1.52c-0.36-0.98-0.96-2.69-1.01-2.85c-1.08-3.75-3.3-11.46-3.54-12.09c-0.63-1.91-1.7-5.07-2.09-5.88
		c-0.81-1.7-1.48-3.56-2.09-5.72c-0.58-2-1.21-3.95-1.86-5.86c-0.34-1.05-0.69-2.06-1.01-3.03l-0.25-0.83l-0.25-0.52
		c-0.25-0.67-0.5-1.35-0.67-1.84l-4.21-12.59c-0.69-2.06-1.55-4.71-1.84-6.39c-0.52-3.18-1.24-7.47-2.11-9.08
		c-1.05-2-2.4-5.67-2.6-8.23c-0.27-3.59-0.43-12.83,1.1-14.71c0.45-0.54,0.79-0.98,1.26-1.26c0.69-0.43,1.79-1.1,1.84-1.52v-0.83
		l-0.16-3.54c-0.05-1.48-0.05-3.1,0.33-4.37c0.47-1.48,1.01-3.21,1.93-3.61c1.01-0.43,2.22,0.33,2.56,0.9
		c1.82,3,3.12,7.11,4.15,10.61c0.85,2.78,2.62,7.47,3.97,11.08c0.74,1.98,1.52,4.04,2.44,5.88c0.92,1.84,1.99,3.99,2.44,5.56
		c1.12,3.93,2.67,9.28,4.28,12.09c0.92,1.59,2.44,4.37,2.6,5.05c0.23,0.87,0.51,2.78,0.67,4.02c0.23,1.61,0.47,3.19,0.85,4.53
		c0.56,1.95,1.42,3.86,2.18,5.54c0,0,1.19,4.44,1.68,6.39c2.22,8.88,4.76,16.98,7.9,24.52c1.62,3.92,2.53,8.82,3.36,13.46
		c0.42,2.31,0.9,3.88,1.77,5.86c0.72,1.66,1.66,3.79,2.09,5.21c1.25,3.97,3.27,7.61,5.29,10.92c1.06,1.71,1.95,3.74,2.71,5.72
		c0.25,0.69,1.97,3.72,3.01,5.54c0.43,0.74,0.92,1.59,1.39,2.15c0.58,0.7,1.12,1.44,1.64,2.22c0.63,0.94,1.97,4.02,2.76,5.88
		c1.3,3,3.57,6.64,6.01,9.04c2.24,2.2,4.78,4.75,7.16,7.13c1.14,1.14,2.89,2.89,3.77,3.56l0.63,0.27l0.49,0.33
		c0.54,0.34,1.07,0.67,1.48,1.05c0.54,0.49,1.86,1.7,1.9,1.81c0.25,0.79,16.15,8.66,18.3,9.58c6.55,2.81,13.5,5.54,20.34,7.49
		c0.74,0.2,1.62,0.36,2.36,0.51c0.94,0.18,2.53,0.45,2.69,0.5c0.22,0.05,2.53,0.36,3.52,0.51c1.55,0.18,3.36,0.41,4.37,0.67
		c2.02,0.49,5.59,0.49,7.74,0.49c3.03,0,7.36,0.11,10.92,0.34c10.21,0.74,22.76,0.09,33.76-0.49c6.26-0.34,20.44-1.32,21.51-1.52
		l2-0.34c1.15-0.16,1.7-0.29,2.71-0.51l0.67-0.16l0.83-0.18l2.18-0.49c0.51-0.13,1.5-0.31,2.02-0.34h1.26h1.08
		c1.21-0.11,3.99-0.67,5.72-1.01l10.41-1.84c0.85-0.16,2.24-0.63,3.36-1.01c1.3-0.43,2.49-0.78,4.04-1.01
		c4.84-0.74,25.57-7.13,27.55-9.58c0.13-0.16-1.82-4.06-2.34-5.12c-0.92-1.82-1.86-3.77-2.62-5.54c-0.94-2.2-3.16-6.66-4.87-10.09
		c-1.73-3.48,7.9-40.31,9.08-43.85c1.73-5.2,3.66-10.52,5.72-15.28c0.49-1.17,2.58-5.32,3.93-8.07c1.17-2.33,3.93-8.3,3.95-8.41
		c0.15-0.54-3.66-3.63-4.84-4.58c-1.55-1.25-4.84-4.01-5.16-4.82c-0.61-1.59-1.68-4.44-1.77-5.04c-0.96-6.69,0.31-15.16,2.62-19.49
		c0.11-0.22,0.31-2.69,0.42-4.2c0.05-0.94,0.27-1.73,0.5-2.51c0.22-0.79,0.31-1.3,0.51-2.38c0.02-0.11,0.58-2.69,0.83-3.84
		c0.97-4.31,5.23-9.22,8.82-11.01c1.64-0.83,8.05,0.2,9.58,0.83c1.41,0.63,2.54,1.24,3.77,1.93c0.58,0.33,1.08,0.67,1.61,1.01
		c0.72,0.49,1.39,0.9,2.18,1.35l0.61,0.38c0.52,0.41,0.52,0.41,2.33,1.62c0.31,0.22,0.98,0.72,1.48,1.08
		c0.61,0.43,1.32,0.94,1.97,1.28c2.62,1.43,5.59,3.09,7.61,4.42c2.45,1.64,5.02,3.32,7.67,4.65c2.54,1.26,4.62,2.56,6.69,4.22
		c1.95,1.59,4.02,3.16,6.14,4.55c4.58,3.09,10.36,6.91,14.06,9.04c7.49,4.28,49.82,34.1,51.45,36.41c1.53,2.2,4.31,4.62,6.41,6.32
		c0.23,0.2,0.9,0.65,1.37,0.96c0.65,0.42,1.12,0.92,1.62,1.48c0.41,0.43,1.48,1.62,1.48,1.62c0.52,0.67,1.28,1.62,1.41,1.71
		c2.17,1.48,12.9,26.81,13.46,30.78c0.61,4.33,0.14,16.98-0.16,25.55c-0.23,6.21-4.09,24.79-6.57,28.89l-0.81,1.57
		c-0.38,0.98-0.38,0.98-0.59,1.37l-0.34,0.58c-0.34,0.56-0.34,0.56-0.67,1.19l-0.69,1.1l-0.34,0.58c-1.24,2.22-2.53,4.35-4.08,6.28
		c-2.74,3.39-5.86,7.25-10.86,8.08c-6.61,1.1-32.59-7.13-42.68-10.5c-1.97-0.65-6.13-1.7-9.08-2.44c-3.23-0.81-6.35-1.61-9.56-2.51
		c-3.57-1.03-7.85-2.22-10.43-2.53c-2.33-0.27-4.24-0.61-6.21-1.17c0,0-1.7-0.34-2.53-0.5l-0.67-0.16l-1.01-0.18l-3.19-0.16h-0.67
		c0,0-2.53,1.08-3.36,1.43c-1.16,0.47-2.33,0.97-3.54,1.5c-1.14,0.51-2.25,1.12-3.36,1.7l-0.6,0.33l-0.58,0.34l-0.67,0.34
		l-0.59,0.33c-0.7,0.41-0.78,0.43-1.1,0.59c-4.38,2.02-8.41,3.88-13.1,5.61c-2.67,1.01-9.31,3.68-14.43,5.72
		c-2.35,0.94-5.02,1.64-7.56,2.27c-2.56,0.63-4.93,1.53-7.24,2.44c-9.78,3.81-19.18,7.36-30.4,10.16c-0.94,0.23-2.37,0.85-3.54,1.35
		c-0.76,0.33-2.92,0.42-4.78,0.51c0,0-2.49,0.32-3.61,0.5c-1.86,0.27-3.57,0.59-5.38,1.01c-0.65,0.14-4.78,0.65-7.56,0.99
		l-2.02,0.16l-0.85,0.18l-0.83,0.16l-1.52,0.34c-2.44,0.34-6.73,0.94-7.38,1.01l-1.7,0.16l-0.83,0.16l-1.35,0.18h-1.84
		c-0.76,0-0.76,0-1.68,0.16l-1.01,0.16l-1.52,0.34h-2.85c-0.67,0-0.67,0-1.59,0.16l-2.27-0.16h-3.7l-3.52,0.16h-3.19h-2.37
		l-1.68,0.18c-8.55,0.13-13.53,0.18-20.82-0.18h-1.35c-2.22,0.14-3.54,0.23-4.71,0.18c-2.72-0.13-7-0.38-10.07-0.69
		c-3.46-0.34-8.43-0.83-10.43-1.52c-2.9-0.96-6.37-1.86-8.9-2.44l-0.85-0.23l-0.99-0.5l-1.52-0.6l-0.69-0.25
		c-0.65-0.23-1.26-0.47-1.84-0.76c-0.7-0.34-1.37-0.63-2.18-0.92c-5.99-2.15-12.22-5.27-17.43-8.52
		c-3.61-2.24-15.88-11.11-17.68-13.84c-1.23-1.84-2.45-3.57-3.75-5.34c-0.7-0.96-2.02-2.74-2.09-2.83
		c-0.81-0.79-1.66-1.78-2.22-2.81c-1.12-2.11-2.47-4.08-3.86-5.97c-1.32-1.81-3.84-5.45-4.11-6.12c-1.19-3.1-2.8-6.13-4.46-8.82
		c-1.68-2.74-2.98-6.03-4.2-9.17c-0.61-1.57-1.28-3.23-2-4.71c-0.69-1.34-1.5-3.65-2.11-5.38c-0.88-2.51-3.28-8.77-3.37-8.95
		c-0.36-0.58-1.61,3.16-1.75,3.57c-0.27,0.83-0.4,1.3-0.58,2.36c-0.13,0.63-0.29,1.44-0.5,2.02l-0.25,0.58l-0.25,1.61l-0.25,0.67
		c-0.36,0.81-0.7,1.62-1.01,2.53c-0.52,1.48-1.37,3.86-1.88,4.49c-0.5,0.63-2.6,5.7-3.5,7.94c-0.96,2.37-2.69,5.43-4.21,8.05
		c-0.69,1.21-6.71,7.34-10.97,11.66c-3.25,3.29-10.23,8.27-14.56,10.2c-4.96,2.2-17.14,7.38-17.14,7.38
		c-3.16,1.06-6.21,2.44-8.9,3.79c-1.93,0.97-6.82,2.8-8.57,3.19c-3.88,0.89-7.71,2.08-11.26,3.45c-1.9,0.74-3.65,1.42-5.86,1.59
		c-0.76,0.07-3.16,0.74-4.71,1.19c-1.16,0.33-2.06,0.33-3.54,0.33l-1.68-0.02l-0.92,0.02h-1.95c-2.83,0.09-6.21,0.13-8.9,0
		c-2.54-0.13-4.89-0.16-7.56-0.16c-4.26,0-10.03-1.05-13.44-2.44c-7.51-3.09-13.42-10.38-14.53-19.83
		c-0.38-3.21,0.54-6.78,1.52-9.08c0.74-1.69,1.1-4.55,1.5-7.56C108.83,381.64,109.98,373.11,113.61,373.07z"/>
	<path class="st0" d="M1086.46,188.28c0.05-0.04,1.53-0.54,2.18-0.76c0.83-0.29,1.62-0.59,2.36-0.94c1.55-0.67,4.93-2.24,5.11-2.35
		c0.58-0.33,1.75-0.9,2.62-1.34c0.85-0.43,1.57-0.86,2.35-1.33c0.72-0.43,2.18-1.35,2.18-1.35l0.67-0.34l0.69-0.33
		c0.67-0.34,0.67-0.34,1.25-0.69c0.97-0.54,1.86-0.94,3.12-1.26c0.85-0.2,1.59-0.47,2.35-0.74c1.71-0.65,3.28-1.37,4.87-2.11
		c3.9-1.78,9.33-4.33,11.17-5.45c5.77-3.54,13.7-7.02,21.09-10.25c3.25-1.42,6.71-2.85,10.07-4.11c4.44-1.66,8.55-3.43,12.61-5.47
		c3.21-1.61,13.12-5.86,20.82-9.15c3.43-1.48,7.06-3.03,10.25-4.62c0.27-0.15,0.27-0.15,1.35-0.68l1.17-0.58c0,0,1.71-0.9,2.69-1.44
		l0.67-0.33c0.9-0.43,0.9-0.43,1.33-0.67l1.35-0.67c0.69-0.36,1.32-0.72,2.02-1.01c0.83-0.36,1.71-0.78,2.51-1.19
		c0.76-0.36,2.2-1.08,2.2-1.08s1.44-0.72,2.18-1.08c0.63-0.33,2.11-0.94,3.18-1.35c2-0.81,3.97-1.73,5.9-2.69
		c1.91-0.97,3.84-1.91,6.03-2.6c1.41-0.43,9.46-4.34,10.39-5.17c3.82-3.35,7.2-0.73,8.52,3.23c1.06,3.2-1.77,14.97-3.45,17.05
		c-1.7,2.13-4.93,4.44-7.56,5.52l-0.5,0.18l-1.52,0.34l-0.67,0.16c-0.72,0.22-1.82,0.52-2.35,0.76c0,0-1.8,0.9-2.69,1.34l-1.17,0.69
		c-0.36,0.2-1.71,0.81-2.69,1.26l-0.69,0.25l-1.17,0.58c-1.17,0.5-1.17,0.5-1.34,0.59c-0.47,0.23-0.76,0.38-1.1,0.51
		c-1.26,0.49-4.78,1.84-4.78,1.84c-1.15,0.58-3.46,1.46-5.21,2.11c-1.01,0.38-1.93,0.79-2.85,1.25c-0.99,0.51-3.03,1.52-3.03,1.52
		c-7.13,3.34-16.62,7.78-21.26,10.09c-0.63,0.33-1.64,0.67-2.6,1.01c-0.63,0.22-2.06,0.79-3.01,1.17c-0.85,0.34-2.53,0.99-2.53,0.99
		l-1.52,0.69l-1.17,0.58c-3.39,1.42-7.22,3.03-9.74,4.48c-2.24,1.26-12.87,5.41-21.85,8.9c-2.26,0.89-12.87,6.19-21.17,10.32
		c-6.3,3.16-19.15,9.35-21.33,10.01c-4.37,1.3-7.61,2.87-11.26,4.69c-1.5,0.76-3.81,1.91-4.51,2.56c-1.19,1.1-2.76,2.45-4.56,2.89
		c-5.4,1.37-3.34-7.76-1.84-9.82c0.79-1.1,0.94-2.09,0.58-3.7c-0.41-1.9-0.04-3.7,0.34-5.38
		C1083.75,192.75,1085.76,188.53,1086.46,188.28z"/>
	<path class="st0" d="M837.54,563.55c6.15-1.3,12.18-3.16,17.41-5.48c6.1-2.73,12.76-5.47,19.49-7.15c2.98-0.74,6.06-1.77,8.73-2.94
		c3.36-1.46,7.07-2.85,10.57-4.11c5.9-2.09,14.16-5.07,18.32-7.13c1.39-0.7,8.57-3.88,13.44-6.06c4.01-1.77,8.5-3.82,12.6-5.86
		c1.03-0.52,7.85-3.56,13.12-5.9c0.87-0.38,2.71-1.19,2.94-1.66c0.54-1.15,1.01-1.61,2.09-2.18c1.86-1.01,4.6-2.26,7.24-2.11
		c0.97,0.05,2.29,1.39,3.41,2.49c0.86,0.87,0.88,4.22,0.86,5.67c-0.11,4.96-3.12,13.53-6.01,15.84c-2.22,1.77-5.41,3.34-8.03,4.48
		c-0.96,0.43-2.65,0.92-3.86,1.26c-1.98,0.56-3.52,1.3-5.2,2.11c-6.03,2.85-12.68,6.01-17.81,7.72c-0.23,0.07-2.98,1.48-4.3,2.18
		c-1.46,0.78-2.98,1.37-4.62,2.02c-3.3,1.28-6.78,2.64-9.91,4.19c-2.96,1.48-6.78,3.23-9.91,4.11c-2.92,0.83-6.46,2.06-9.08,3.46
		c-1.26,0.65-10.47,3.95-17.47,6.46c-6.46,2.29-13.91,4.96-18.66,6.55c-2.8,0.92-6.24,2.49-9.24,3.86
		c-2.51,1.15-8.39,3.77-11.06,2.08c-1.64-1.06-1.37-4.73-0.77-6.86c0.59-2.17,1.26-4.6,1.5-6.73
		C833.84,569.49,834.97,565.85,837.54,563.55z"/>
	<path class="st0" d="M738.04,348.77c0,0,1.37-1.62,1.86-2.18c0.63-0.76,1.84-1.88,2.81-2.24c7.31-2.56,2.71,11.06,1.35,13.78
		c-2.38,4.77-4.49,10.41-5.65,16.13c-0.6,3.05-1.46,7.35-2,9.08l-0.25,0.67c-0.38,0.89-0.38,0.89-0.41,1.01
		c-0.16,0.51-0.52,1.52-0.52,1.52c-0.49,1.39-1.14,3.19-1.34,4.19c-0.47,2.36-1.25,4.76-2.02,7.06c-0.36,1.14-0.74,2.34-0.99,3.54
		l-0.5,2.85c-0.23,1.01-0.23,1.01-0.34,1.68c-0.13,0.74-0.22,1.35-0.33,1.68c-1.5,4.46,3.5,20.79,5.13,23.62
		c1.15,2.04,2.74,4.6,4.19,6.97c0.72,1.15,1.99,3.17,2.38,3.66c0.76,0.9,2.35,2.85,2.53,3.19c1.32,2.42,7.49,7.09,10.72,9.44
		c4.53,3.3,10.3,6.93,15.95,8.73c6.14,1.95,13.23,4.19,20.01,4.8c10.95,0.99,24.24-0.4,35.62-2.02c1.35-0.2,2.83-0.52,4.18-0.83
		c1.44-0.34,3.43-0.78,4.11-0.85c1.25-0.11,2.62-0.5,3.79-0.85c0.78-0.22,3.03-0.83,3.03-0.83l1.01-0.16l0.67-0.18l0.67-0.16
		l1.01-0.16l0.83-0.07c1.3-0.22,3-0.6,4.37-0.94c0.69-0.18,0.69-0.18,1.17-0.34c0.52-0.16,1.15-0.34,1.7-0.5l0.67-0.16l1.23-0.49
		c0.2-0.09,1.05-0.31,1.3-0.36c13.12-2.89,37.23-17.59,44.23-26.35c1.14-1.41,2.4-3,3.61-4.17c0.67-0.67,1.37-1.46,1.88-2.24
		c0.54-0.79,1.25-1.68,1.91-2.49c2.58-3.21,6.17-7.69,6.75-12.47c0.25-1.97-0.76-8.95-1.33-12.68c-0.67-4.31-1.21-8.84-1.7-13.44
		c-0.83-8.01-2.06-16.1-3.36-23.85c-0.83-5.04-2.04-15.79-3.01-24.7c-0.31-2.63-0.61-5.45-0.85-8.05l-0.16-2.36l-0.18-2.53
		c-0.11-1.61-0.25-2.82-0.51-4.19l-0.16-0.85l-0.16-2.53l-0.16-0.83l-0.16-1.01l-0.18-1.01l-0.16-1.01l-0.18-1.17
		c-0.13-0.86-0.34-2.22-0.51-2.69c-0.16-0.52-0.47-2.16-0.67-3.36c-0.25-1.52-0.63-3.09-1.01-4.55c-0.31-1.28-0.56-2.51-0.83-3.86
		c-0.31-1.52-0.67-3.14-1.01-4.69c-0.63-2.89-1.34-5.67-2.02-8.41c-0.52-2.11-1.84-7.56-1.84-7.56l-0.18-1.01l-0.32-1.84
		c-0.11-0.4-0.16-0.67-0.34-1.52l-0.16-0.85l-0.16-0.67l-0.18-1.01l-0.16-0.67c-0.13-0.52-0.13-0.52-0.34-1.86
		c-0.56-3.65-1.52-9.75-1.84-11.4c-1.03-5.2-3.7-20.68-3.7-20.68c0-2.96-2.26-13.39-3.52-19.15c-0.16-0.7-0.29-1.71-0.09-3.1
		c-0.09-0.15-0.79-2.94-1.26-4.78c-0.05-0.25-0.58-3.97-0.83-5.88l-0.18-1.01l-0.16-1.01l-0.16-1.17l-0.18-1.01l-0.16-0.67
		l-0.16-0.85c-1.48-8.86-2.72-17.47-3.7-26.72c-0.25-2.35-0.5-4.64-0.85-6.89c-0.38-2.56-0.74-5.54-1.01-8.23
		c-0.45-4.51-1.34-13.1-2.13-14.24c-3-4.35-5.74-8.6-7.61-13.8c-0.94-2.67-1.52-5.41-2-8.57c-0.2-1.25-0.38-2.49-0.5-4.03
		c-0.13-1.46-0.29-2.66-0.51-4.04l-0.18-0.67l-0.16-5.04l-0.16-1.01c-0.29-1.36,0.16-6.38,0.16-6.38l0.25-0.68l0.25-0.5
		c0.45-1.04,1.48-3.32,1.62-3.5c0.89-1.13,1.25-1.6,1.57-3.39c0.2-1.15,0.69-2.22,1.26-3.02c1.32-1.81,2.26-3.29,3.29-5.71
		c0.56-1.38,0.85-1.93,1.75-2.86c0.05-0.05,0.65-0.53,0.79-0.56h0.83l0.13,0.79l0.67,0.18c0.11-0.01,0.04-2.62,0.02-3.09
		c-0.02-0.68,0.09-1.6,0.16-2.18c0.05-0.3,0.05-0.3,0.43-1.17c0.09-0.23,0.33-1.15,0.42-1.52c0.47-1.92,3.16-3.31,4.75-1.47
		c0.85,0.97,1.62,5.96,2.15,9.36c0.58,3.81,1.35,8.72,1.84,10.42c0.72,2.49,1.48,4.74,2.44,6.89c0.5,1.13,1.17,2.43,2.02,3.86
		l0.34,0.59l0.33,0.59c0.33,0.56,0.72,1.25,0.87,1.65c0.76,1.86,6.44,8.42,8.57,10.75c0.78,0.84,1.66,1.78,2.53,2.52
		c0.96,0.79,2.24,1.86,2.8,2.42c1.79,1.79,4.53,4.57,5.32,6.01c1.15,2.15,0.38,6.96-0.18,8.91c-0.9,3.19-1.81,6.07-3.43,8.72
		c-1.39,2.25-5.23,6.98-8.19,10.63c0,0-1.57,1.15-1.82,1.3c-0.09,0.07-0.9,0.54-1.08,0.58c-0.5,0.16-1.84,0.6-1.77,0.76
		c0.18,0.47,0.42,2.37,0.51,3.21c0.2,1.66,0.38,3.36,0.5,4.19c0.36,2.35,0.78,4.84,1.19,6.89c0.58,2.92,1.52,6.82,2.34,9.74
		c0.94,3.32,1.61,7.69,2.35,12.43c0.63,4.06,1.46,9.44,2.18,11.75c0.72,2.27,1.66,8.91,2.35,13.79c0.22,1.48,0.34,2.87,0.5,4.55
		l0.18,1.15l0.16,1.01l0.16,1.01c0.16,0.97,0.45,2.85,0.5,3.21l0.18,1.16l0.16,1.01l0.16,1.19l0.18,1.17
		c1.14,6.89,2.67,12.99,4.53,19.47c1.3,4.55,2.89,14.04,4.04,20.86c0.6,3.59,1.71,10.01,2.34,11.59c1.37,3.45,2,7.34,2,11.76
		c0,6.12,0.13,13.68,1.7,19.15c0.38,1.33,1.52,11.02,2.18,16.64c0.59,5.22,1.34,11.44,2.18,14.8c0.29,1.17,0.78,6.1,1.01,8.55
		l0.16,2.53l0.16,1.34l0.16,2.53c0.11,1.23,0.54,5.02,0.69,5.2v1.35v1.52c0,2.46,0,6.71,0.16,8.73c0.45,5.36,0.38,21.56,0,19.83
		l-0.16,1.84c-0.07,0.69-0.07,0.69-0.34,2.69l-0.34,2.69l-0.16,2.02l-0.16,1.17c-0.16,1.06-0.32,1.98-0.5,3.01
		c-0.11,0.61-0.11,0.61-0.34,1.52c-0.22,0.9-0.23,0.98-0.32,1.68c-0.54,4.02-1.5,7.69-2.53,11.26l-0.16,0.51l-0.18,0.67l-0.16,0.69
		c0,0-0.23,0.52-0.59,1.34l-0.49,1.26c0,0-0.56,2.85-0.76,3.95c-0.18,0.92-0.18,0.92-0.18,1.34c0,0.85,0,0.85-0.25,1.42l-0.23,0.6
		l-0.18,1.01l-0.25,1.01c-0.25,0.83-0.67,1.93-1.01,2.85c-0.74,1.97-1.48,3.63-2.34,5.38c-0.83,1.68-4.29,6.41-6.77,9.8
		c-1.15,1.57-2.26,3.14-3.32,4.73c-0.58,0.88-1.37,1.97-3.05,3.92c-0.74,0.81-0.76,0.81-0.76,0.81c-0.54,0.9-2.18,2.17-3.03,2.82
		c-0.69,0.52-1.7,1.91-2.56,3.14c-1.17,1.61-4.13,4.02-6.12,5.59c-4.44,3.56-8.53,6.33-13.8,9.35c-5.22,3-10.12,5.77-16.2,8.08
		l-4.2,2c-1.34,0.49-3.63,1.21-5.38,1.77c0,0-1.64,0.33-2.51,0.49c0,0-1.86,0.47-2.69,0.69c-0.67,0.16-1.48,0.34-2.18,0.5
		c-0.9,0.2-2.71,0.61-2.85,0.67c-15.3,5.09-47.84,9.13-64.19,5.05c-7.13-1.79-15.3-3.84-19.92-6.15c-5.65-2.82-10.57-6.01-15.54-9.4
		c-2.24-1.52-4.15-3.34-6.01-5.23c0,0-1.71-1.71-2.69-2.71c-0.23-0.22-0.69-0.78-1.08-1.26c-0.45-0.56-1.05-1.32-1.61-1.75
		c-1.52-1.19-9.09-12.94-10.12-15.25c-2.04-4.6-5.36-12.2-6.13-15.3v-2.35l0.18-1.86v-1.5c-0.09-1.84-0.4-4.38-0.69-6.55
		c-0.5-4.13-1.06-9-0.49-12.78c0.76-4.91,1.61-10.45,2.69-15.28c1.57-7.15,3.92-15.09,6.21-21.51c2.4-6.71,5.09-13.75,7.98-20.25
		c1.37-3.09,3.79-8.39,4.71-9.91C734.25,355.79,738.02,348.89,738.04,348.77z"/>
	<path class="st1" d="M641.99,376.79c-0.02-2.2-6.98-13.64-8.99-16.64c-6.62-9.96-46.3-40.4-48.72-39.41
		c-0.23,0.11-0.41,3.03-0.41,3.28c-0.2,4.94-0.33,6.89-0.67,10.76c-0.13,1.41-0.76,4.91-1.19,7.22c-0.72,3.97-1.46,7.6-2.35,11.1
		c-0.74,2.94-1.57,5.88-2.53,8.73c-1.06,3.23-2.71,8.25-2.56,10.88c0.02,0.25,3.5,1.01,4.01,1.14c1.5,0.34,3.39,0.74,4.87,1.17
		l1.5,0.51l1.19,0.32l0.67,0.18c1.28,0.36,3.68,1.05,4.19,1.17c2.71,0.67,7.94,2,9.26,2.44c1.64,0.54,3.09,1.14,4.53,1.84
		c1.12,0.58,2.33,1.03,3.54,1.44c2.69,0.89,5.74,1.71,8.55,2.35l4.2,1.01c0.9,0.2,1.81,0.34,2.69,0.5c1.05,0.16,3.86,0.67,3.86,0.67
		c5.16,1.28,8.93,1.17,11.42-2.27C639.86,384.06,642.09,378.38,641.99,376.79z"/>
	<path class="st1" d="M553.62,367.55c1.23-0.56,15.45-10.94,15.45-10.94c0.52-2.38,0.92-5.76,0-8.07l-0.67-2.18l-0.16-0.67
		l-0.16-0.67c-0.38-1.17-0.94-2.56-1.44-3.7c-1.14-2.62-2.76-6.32-3.68-7.81c-0.22-0.34-0.7-1.3-1.01-1.93
		c-0.32-0.65-0.67-1.33-1.01-1.86c0,0-1.44-2.45-2.02-3.43c-1.26-2.2-2.94-4.53-4.57-6.44c-3.25-3.81-9.11-10.5-12.14-12.13
		c-1.44-0.78-3-1.77-4.37-2.69c-1.48-0.97-3.1-1.66-4.96-2.27c-1.17-0.4-5.04,0.69-5.88,1.61c-0.49,0.34-0.96,0.72-1.37,1.14
		c-0.85,0.83-0.85,0.83-1.28,1.25l-0.85,0.83c-1.48,1.48-2.8,2.87-4.06,4.6c-0.96,1.32-2.15,4.02-3.36,6.8
		c-0.5,1.14-2.51,4.44-3.7,6.39c-2.22,3.61-13.75,28.26-11.39,31.22c0.79,0.98,13.64,8.61,15.25,9c5.16,1.3,10.41,1.7,16.64,1.7
		c3.97,0,6.42,0,9.74,0.16h2.18c2.36,0,2.36,0,4.2,0.16C550.46,367.77,553.21,368.02,553.62,367.55z"/>
	<path class="st0" d="M420.94,140.86c0.31-0.4,1.3-0.65,2.22-0.89c0.87-0.22,1.73-0.58,2.53-0.92c1.73-0.76,4.02-1.77,5.2-2.27
		c1.73-0.74,3.37-1.58,4.87-2.59c1.35-0.9,3.14-1.84,4.71-2.69l0.67-0.34l1.1-0.67l0.58-0.34c0.63-0.33,0.63-0.33,1.19-0.65
		l1.17-0.69c0.76-0.43,1.48-0.79,2.35-1.19c0.94-0.4,2.16-0.94,2.85-1.33c0.98-0.54,4.69-2.53,4.94-2.42
		c0.33,0.14,0.43,0.04,1.05-0.65c0,0,2.33-1.19,2.76-1.37c3.68-1.71,9.42-4.36,11.42-5.3c1.03-0.49,3.1-1.75,4.62-2.68
		c1.61-0.99,3.65-2.26,5.13-2.78c5.29-1.89,13.71-6.38,20.5-10c6.37-3.4,13.42-6.8,20.5-9.32c2.26-0.81,7.22-2.94,10.57-4.38
		c0.67-0.28,2.53-1.09,2.53-1.09c0.43-0.23,0.43-0.23,1.34-0.68l1.17-0.59c0.81-0.34,1.59-0.69,2.36-1.08
		c1.06-0.53,2.06-1.02,3.19-1.52c1.79-0.78,3.75-1.69,5.38-2.68c0.56-0.35,3.52-1.9,5.36-2.87l0.69-0.33l1.17-0.59
		c1.26-0.54,1.26-0.54,1.84-0.92l0.67-0.33l1.19-0.68l0.67-0.33l0.69-0.33c1.01-0.5,2.37-1.19,3.01-1.52
		c1.3-0.65,6.21-3.45,9.58-5.38c0.83-0.48,1.64-0.91,2.51-1.34l1.35-0.68l1.33-0.68c0,0,0.02,0,1.35-0.67l1.14-0.71
		c0.72-0.56,1.88-1.45,2.38-1.56c1.17-0.24,3.45,0.48,4.01,1.13c0.83,0.97,1.5,2.16,1.79,3.65c0.83,4.41-2.47,15.45-4.13,18.12
		c-0.36,0.56-3.64,2.19-5.68,3.22c-2.11,1.06-4.44,2.23-6.57,3.37c-2,1.07-4.09,2.13-6.21,3.18c-1.95,0.98-4.01,2.17-5.96,3.37
		c-0.99,0.6-4.13,2.18-6.13,3.18c-2.27,1.14-4.57,2.29-6.71,3.53c-3.46,1.98-10.66,5.91-13.12,6.48c-0.34,0.08-1.08,0.43-1.35,0.59
		c-0.47,0.28-1.14,0.59-1.66,0.84c-1.3,0.57-2.69,1.11-4.04,1.59c-2.47,0.89-5.3,1.9-7.56,2.78c-4.82,1.88-9.38,4.1-13.77,6.3
		c-3.01,1.5-12.78,6.46-12.78,6.46c-4.75,2.73-10.28,5.86-14.96,7.32c-1.79,0.56-8.75,4.04-14.44,6.89
		c-4.71,2.34-11.82,5.92-14.11,7.47c-1.98,1.3-4.06,2.44-6.39,3.45c-2.67,1.14-5.2,2.33-7.74,3.61c-2.44,1.21-4.93,2.62-7.38,4.02
		c-2.27,1.3-5.3,3.03-7.06,3.61c-3.61,1.21-4.37-2.29-4.29-4.94c0-0.29,0.34-1.7,0.51-2.34c0.27-1.05,0.52-2.27,0.67-3.38l0.18-1.52
		v-1.84v-1.84c0.05-0.85,0.58-2.6,0.96-3.16c0.56-0.89,0.65-1.26,0.89-2.74C419.86,142.34,420.29,141.25,420.94,140.86z"/>
	<path class="st0" d="M364.24,185.36c1.03-0.65,2.85-0.18,3.74,0.22c2.25,1.08,15.26,18.19,17.54,21.6c1.52,2.29,2.89,4.42,4.2,7.06
		c0.52,1.06,1.05,2.02,1.73,2.89c0.41,0.51,0.85,1.08,1.15,1.37c0.45,0.43,0.81,0.9,1.15,1.46c1.32,2.15,2.67,5.45,3.77,8.14
		l0.25,0.69l0.25,0.67l0.25,0.67l0.5,1.01c0.22,0.51,0.47,1.12,0.67,1.68c0.32,0.92,0.61,1.57,1.01,2.37
		c0.77,1.55,1.86,5.59,2.44,7.88c0.16,0.65,1.21,4.35,1.86,6.55c1.68,5.88,3.97,13.93,4.37,17.65c0.61,6.01,1.43,13.59,0,19.33
		c-0.63,2.45-1.7,6.84-1.86,7.72c-0.72,3.99-1.62,8.93-2.02,12.27c-0.45,3.79-1.1,7.09-2.27,10.07c-0.76,2-1.68,4.37-3.36,5.38
		c-0.51,0.32-2.33,0.36-2.22-0.11l-0.29-0.56c-0.13-0.41-0.27-1.71-0.43-3.19c-0.11-1.1,0.02-2.56,0.18-4.37
		c0.22-2.42,0.36-4.42,0.51-6.89c0.23-4.29,0.23-4.33,0.16-8.73l-0.16-4.71v-0.49c0,0.04-0.36-2.92-0.51-4.2l-0.18-1.86l-0.16-1.34
		c-0.16-1.14-0.69-3.86-1.01-5.54c-0.65-3.41-1.41-7.34-2.35-10.59c-1.64-5.77-3.36-11.77-5.12-15.79c-0.9-2.06-2.47-5.63-2.85-6.39
		l-1.68-3.36c-0.07-0.14-0.67-1.12-1.01-1.7c-0.38-0.61-0.65-1.3-1.01-2.17l-0.34-0.69l-0.33-0.67l-0.59-1.01l-0.51-1.01l-0.25-0.67
		l-0.32-0.51c0,0-0.56-1.12-0.6-1.17c-0.43-0.92-1.26-2.69-1.42-3.01l-0.34-0.61l-0.72-0.98l-0.69-0.86l-0.31-0.54
		c0,0-1.54-1.81-1.95-2.24c-0.76-0.85-1.57-1.73-2.27-2.62l-0.67-0.85l-0.72-0.94l-1.06-1.37l-0.81-0.98l-0.83-1.01l-0.42-0.6
		c-0.59-0.7-0.59-0.7-0.63-0.78c-0.33-0.58-0.67-1.06-1.05-1.57c-0.59-0.81-1.66-2-2.63-3.09l-2.17-2.02
		c-1.17-1.08-1.57-1.62-1.8-3.68c-0.13-1.12,0.16-2.96,0.76-4.37c0.78-1.81,1.48-4.33,1.42-6.53
		C360.18,193.26,362.42,186.4,364.24,185.36z"/>
	<path class="st0" d="M177.39,114.39l0.56-0.03l0.59,0.24l0.78-0.63c0.52-0.42,5.25-0.63,5.09-0.3c-0.07,0.18,1.3,0.69,1.52,0.77
		c0.99,0.35,2.04,0.81,3.29,1.6l0.86,0.72c0.65,0.5,1.46,0.9,2.24,1.29c0.85,0.42,3.99,3.03,6.75,5.34
		c3.92,3.25,10.45,8.72,11.31,12.46c1.7,7.51-8.61,28.19-12.27,30.75c-0.94,0.67-1.19,0.67-2.76,0.49c-0.25,0-2-1.62-2.73-2.31
		c-0.96-0.87-2.13-1.7-3.21-2.44c-2.26-1.5-4.91-2.8-7.51-3.9c-3.32-1.39-12.16-6.06-14-8.37c-1.82-2.26,2.4-17.03,4.17-18.41
		c1.25-0.97,1.73-1.35,2.37-3.68c0.07-0.29,0.31-0.94,0.32-1.19c0.27-2.74,0.33-3.17,0.51-3.68c0.25-0.72,1.25-2.27,1.93-3.37
		c0.45-0.7,0.61-1.98,0.59-3.02l-0.25-0.92C177.39,115.34,177.18,114.63,177.39,114.39z"/>
	<path class="st0" d="M93.68,63.37c1.35-0.13,6.8-3.27,8.32-4.28c2.51-1.67,5.56-3.19,8.5-4.37c4.15-1.67,12.65-5.45,19.31-8.41
		c11.84-5.25,23.13-10.14,35.13-15.28c10.77-4.61,32.95-14.39,35.69-15.96c6.57-3.75,30.53-15.98,34.01-15.46
		c1.21,0.18,2.35,0.77,3.03,1.94c0.78,1.39,0.92,3.17,0.92,4.79c0,5.11-3.3,15.02-6.21,16.97c-1.12,0.74-2.63,1.4-3.95,1.84
		l-0.85,0.26l-1.34,0.33c-0.96,0.27-1.55,0.55-2.34,0.93L223.15,27l-0.6,0.33l-0.67,0.34l-0.69,0.33l-1.01,0.59l-1.33,0.59
		l-0.83,0.34l-2.36,1c-5.54,2.43-10.86,5.13-16.04,7.89c-5.3,2.83-10.68,5.24-16.38,7.73c-2.4,1.05-5.09,2.23-7.56,3.11
		c-2.81,1-5.61,2.3-8.23,3.6c-4.6,2.31-9.42,4.58-14.62,6.32c-2.42,0.79-10.66,4.67-17.3,7.81c0,0-3.34,1.35-4.55,1.83
		c0,0-3,1.35-4.53,2.02c-1.43,0.64-2.83,1.16-4.37,1.69c-1.75,0.59-3.45,1.38-5.03,2.18c-2.96,1.47-11.08,5.09-16.64,7.56
		c-0.18,0.08-1.5,1.19-1.84,1.51c-0.33,0.25-0.33,0.25-0.89,0.81c-0.23,0.23-0.59,0.55-0.86,0.76c-1.05,0.86-3.25,2.54-4.48,2.72
		c-6.8,1.01-4.53-6.4-2.69-10.08c0.47-0.93,0.47-1.01,0.41-2.77l-0.16-1.52v-1.69c0.09-1.43,0.58-2.82,1.01-4.03
		C91.46,66.44,92.44,63.92,93.68,63.37z"/>
	<path class="st0" d="M15.6,96.42c0.41-0.56,2.29-0.65,2.62,0c0.81,1.58,2.08,4.17,2.13,4.49c0.41,2.23,0.7,6.15,1.01,10.09
		c0.43,5.55,1.08,13.73,2.18,17.63c1.07,3.74,2.67,9.48,2.87,12.44c0.27,4.17,1.5,9.31,2.67,13.42c1.08,3.79,2.65,9.37,3.03,11.44
		l0.16,0.67l0.18,0.83c0.14,0.67,0.31,1.43,0.32,1.68c0.16,1.98,0.61,6.31,0.69,6.57c0,0.04,0.72,1.7,1.08,2.53
		c0.31,0.69,0.65,1.9,0.92,2.85c0.65,2.24,1.05,4.84,1.35,7.38c0.13,1.06,0.43,2.45,0.67,3.52c0.25,1.12,0.59,3,0.85,4.38
		c0.83,4.67,1.82,8.75,3.01,12.94c1.43,5.02,2.35,10.14,3.19,15.63c0.2,1.26,0.38,2.49,0.67,3.36c0.34,1.01,0.56,2.11,0.69,3.36
		c0.18,1.89,0.58,5.61,0.67,6.04l0.33,1.35c0.18,0.59,0.34,1.42,0.34,2.02c0,0.83,1.62,8.08,2.69,12.92
		c1.15,5.25,2.6,11.73,3.19,16.13c1.5,11.28,3.52,21.51,6.05,31.6c0.29,1.15,0.34,2.67,0.34,3.7c0,1.62,0.13,3.86,0.33,5.54
		l0.18,1.68l0.16,1.01c0.18,1.1,0.25,1.57,0.32,2.51c0,0,0.36,3.39,0.52,4.87c0.61,5.85,1.68,10.86,2.85,16.13
		c3.32,14.98,4.73,31.67,5.54,48.22c0.07,1.55-0.02,3.99-0.33,5.38c-0.18,0.83-0.34,2.42-0.52,4.04c-0.22,2.22-0.42,4.75-0.49,7.22
		c-0.05,1.57-0.14,4.73-0.16,4.87c-0.16,0.78-0.34,1.84-0.34,2.53c0,1.3-0.18,4.48-0.25,5.21c-0.23,2.22-0.51,4.82-0.94,5.86
		c-0.02,0.09-1.15,5.52-1.5,7.4c-0.4,2.18-1.03,4.22-1.68,6.23c-1.05,3.1-3.52,9.92-5.21,11.08c-0.52,0.36-1.75,0.4-2.02-0.34
		c-0.92-2.63-0.97-15.05-1.01-21.49c0-1.28-0.61-14.8-0.99-23.35c-0.36-7.74-3.3-25.53-5.4-37.98c-0.81-4.98-3.59-22.93-5.54-35.62
		c-1.61-10.48-3.45-20.81-5.54-31.25c-0.81-4.04-1.73-8.12-2.69-11.91c-0.18-0.7-0.29-1.14-0.33-1.86L34.3,278l-0.16-1.01
		c-0.2-1.3-0.63-3.93-0.67-4.2c-0.52-2.56-1.03-5.32-1.52-8.07c-3.45-18.95-7.22-36.96-11.26-55.11
		c-1.12-5.02-2.49-11.15-2.69-16.13c-0.22-5.03-1.06-10.39-2.53-14.78c-1.01-3.01-1.97-6.91-2.85-10.41
		c-0.47-1.88-1.01-4.04-1.35-5.54l-0.16-0.67l-0.16-0.69c-0.22-0.9-0.22-0.9-0.34-1.52l-0.34-2.02c-0.13-0.99-0.47-3.29-0.49-3.36
		c-0.22-0.41-2.22-21.99-2.18-25c0.04-2.89,0.43-6.66,1.17-9.6l0.16-0.67l0.18-2.52c0.04-0.36,0.47-1.42,0.58-1.68
		c0.09-0.2,0.85-1.22,1.17-1.52c0,0,0.74-0.58,0.76-0.67C12.08,108.04,13.37,98.98,15.6,96.42z"/>
	<path class="st1" d="M1244.62,400.93c1.23-0.56,15.45-10.94,15.45-10.94c0.52-2.38,0.92-5.76,0-8.07l-0.67-2.18l-0.16-0.67
		l-0.16-0.67c-0.38-1.17-0.94-2.56-1.44-3.7c-1.14-2.62-2.76-6.32-3.68-7.81c-0.22-0.34-0.7-1.3-1.01-1.93
		c-0.32-0.65-0.67-1.33-1.01-1.86c0,0-1.44-2.45-2.02-3.43c-1.26-2.2-2.94-4.53-4.57-6.44c-3.25-3.81-9.11-10.5-12.14-12.13
		c-1.44-0.78-3-1.77-4.37-2.69c-1.48-0.97-3.1-1.66-4.96-2.27c-1.17-0.4-5.04,0.69-5.88,1.61c-0.49,0.34-0.96,0.72-1.37,1.14
		c-0.85,0.83-0.85,0.83-1.28,1.25l-0.85,0.83c-1.48,1.48-2.8,2.87-4.06,4.6c-0.96,1.32-2.15,4.02-3.36,6.8
		c-0.5,1.14-2.51,4.44-3.7,6.39c-2.22,3.61-13.75,28.26-11.39,31.22c0.79,0.98,13.64,8.61,15.25,9c5.16,1.3,10.41,1.7,16.64,1.7
		c3.97,0,6.42,0,9.74,0.16h2.18c2.36,0,2.36,0,4.2,0.16C1241.46,401.15,1244.2,401.4,1244.62,400.93z"/>
</g>
</svg>
