<?xml version="1.0" encoding="utf-8"?>
<!-- Generator: Adobe Illustrator 23.0.3, SVG Export Plug-In . SVG Version: 6.00 Build 0)  -->
<svg version="1.1" id="Layer_1" xmlns="http://www.w3.org/2000/svg" xmlns:xlink="http://www.w3.org/1999/xlink" x="0px" y="0px"
	 viewBox="0 0 500 200" style="enable-background:new 0 0 500 200;" xml:space="preserve">
<style type="text/css">
	.st0{fill-rule:evenodd;clip-rule:evenodd;fill:#231F20;}
	.st1{fill-rule:evenodd;clip-rule:evenodd;fill:#FFFFFF;}
</style>
<g>
	<path class="st0" d="M389.2,141.1c0,0,3.2,0,4.2,0c0.7,0,1.9-0.2,2.6-0.4c0.9-0.3,2-0.6,3-0.8c1.1-0.3,4.5-1.5,5.3-2.1
		c1.9-1.6,3.8-3.2,4.9-5.5c0.6-1.1,2-4.1,2-4.1c0.2-0.6,0.5-1.5,0.6-2.1c0.2-1.2,0.3-1.4,1-2c0.2-0.1,0.2-0.1,0.2-0.3
		c0.1-0.2,0.2-0.3,0.4-0.4c0.1,0,0.1,0,0.6,0c0.2,0,0.2-0.2,0.4-0.4c0.3-0.6,0.7-1.3,0.9-1.8c0.6-1.3,1.3-2.7,2-3.8
		c1.4-2.1,2.8-4.1,4.3-6.2c0.2-0.3,0.7-0.7,1-0.9c0.4-0.3,0.8-0.6,1.1-0.9c0.8-0.8,1.7-1.7,2.3-2c1-0.6,3.4-1.9,5.1-1.5
		c0.7,0.2,2.2,1.1,3.3,1.8c0.5,0.3,2.3,3.2,2.7,3.9c0.5,1,1.2,2.9,1.7,4.2c0.1,0.4,0.3,0.8,0.4,1.2l0.1,0.2c0.2,0.3,0.2,0.3,0.2,0.4
		l0,0.3c0.1,0.3,0.1,0.3,0.2,0.6c0.1,0.3,0.3,0.7,0.4,1.1c0.1,0.4,0.3,0.8,0.4,1.2c0,0,0.1,0.4,0.2,0.6c0.1,0.3,0.1,0.3,0.2,0.6
		c0.1,0.2,0.1,0.3,0.2,0.5l0.1,0.3l0,0.3l0.1,0.4l0.7,3.1c0.1,0.5,0.3,1.1,0.4,1.6c0.1,0.5,0.2,1,0.4,1.5c0.1,0.4,0.3,1.5,0.3,1.9
		c0.1,0.6,0.3,3.7,0.2,3.2l-0.1,0.4l-0.1,0.3l-0.1,0.2l0,0.4l0,0.2c-0.1,0.4-0.2,0.8-0.4,1.2c-0.1,0.3-0.3,0.6-0.4,1
		c-0.1,0.2-0.1,0.2-0.1,0.3l-0.1,0.2l-0.1,0.2l-0.1,0.2c-0.1,0.3-0.2,0.7-0.3,1.1c0,0.2-0.2,0.6-0.3,0.9c-0.2,0.7-0.4,1.4-0.8,1.9
		c-0.2,0.3-0.5,0.5-0.8,0.5c-0.7,0.1-7-0.1-7.7-0.4c-1.4-0.5-3-0.7-4.6-0.9c-1.6-0.2-3.4-0.5-4.8-1c-0.2-0.1-0.2-0.1-0.4-0.1
		c-0.3-0.1-0.3-0.1-0.5-0.2c-0.1,0-0.4-0.1-0.4-0.1l-0.2-0.1l-0.2-0.1c-0.5-0.2-1.3-0.5-1.6-0.6c-0.4-0.2-1.1-0.4-1.7-0.6
		c-0.6-0.2-1.3-0.5-1.8-0.8c-0.2-0.1-0.3-0.3-0.7-0.6l-0.2-0.1c-0.3-0.3-0.6-0.5-0.9-0.8c-0.2-0.2-0.5-0.5-0.8-0.7
		c-0.2-0.2-0.7-0.7-0.9-0.8c-0.3-0.1-1.1,1.3-1.3,1.6l-0.1,0.2c0,0,0,0-0.1,0.4c-0.1,0.2-0.2,0.4-0.3,0.5l-0.1,0.2
		c-0.1,0.3-0.1,0.3-0.2,0.4l-0.1,0.2l-0.1,0.3l-0.1,0.2c-0.7,1.4-1.8,3.6-2.2,4.1c-1,1.4-2.7,3.7-3.9,4.5c-0.9,0.6-1.9,1.3-2.7,1.7
		c-0.9,0.5-3.5,1.2-5.6,1.8c-0.9,0.3-2.7,0.7-3,0.8c-1.9,0.1-6.9,0.3-7.2,0.2c-0.1,0-0.4-0.1-0.7-0.2l-0.2-0.1l-0.3-0.1l-0.2-0.1
		l-0.3-0.1c-0.2,0-0.3-0.1-0.5-0.2c0,0-0.6-0.2-0.9-0.3c-0.9-0.3-2.2-0.7-3-1.3l-0.3-0.2c-0.1-0.1-0.3-0.2-0.4-0.3
		c-0.4-0.2-0.7-0.4-1.1-0.6c-0.2-0.1-0.6-0.5-1-0.8l-0.3-0.2c-0.1-0.1-0.1-0.1-0.3-0.2c-0.2-0.1-0.8-0.6-1-0.9
		c-0.3-0.3-0.8-1-0.9-1.1c-0.2-0.2-0.5-0.6-0.8-0.9c-0.2-0.3-0.5-0.6-0.8-0.9c-0.6-0.6-1.9-3.3-2.2-4.3c-0.1-0.5-0.3-0.9-0.5-1.3
		c-0.1-0.3-0.2-0.6-0.3-1c0-0.1-0.1-0.3-0.2-0.5c-0.1-0.2-0.1-0.4-0.2-0.6l-0.4-1.3c0-0.2-0.1-0.4-0.2-0.6c0-0.2-0.1-0.4-0.2-0.5
		c-0.1-0.5-0.3-1-0.4-1.4l-0.4-1.1c-0.1-0.5-0.3-1-0.4-1.4c-0.5-2.1-0.9-5.1-1.3-7.7c-0.1-0.9-0.4-5-0.7-7.8
		c-0.1-1.7-0.4-3.3-0.7-4.9c-0.5-2.3-1-5.8-1.4-8.8l0-0.4l-0.1-0.4l0-0.4l0-0.5l-0.1-0.3l0-0.5l0-0.5c-0.1-0.4-0.1-1.1-0.2-1.6
		c0-0.6-0.1-1.6-0.2-1.9l-0.1-0.2c0-0.1-0.1-0.3-0.1-0.5v-0.3v-0.8l0-0.5l0-0.4l-0.2-1.2l-0.1-0.9c0-0.3-0.1-1-0.1-1
		c-0.6-3.8-1-8-1.4-11.9c-0.2-2.5-0.9-6.5-1.4-9.9c-0.4-2.6-0.9-5.1-1.5-7.6l-0.1-0.4l-0.1-0.3c-0.1-0.3-0.2-0.8-0.2-0.9
		s-0.1-0.5-0.2-0.7c-0.1-0.3-0.1-0.6-0.2-0.8c-0.2-0.8-0.8-2.8-0.7-3.4v-0.4v-0.5v-0.3c0-0.4,0-0.4,0-0.8c0-0.2,0-0.3,0-0.4
		c0-0.1,0-0.6,0.1-0.7c0,0,0.2-0.8,0.4-1.3c0.1-0.2,0.1-0.4,0.2-0.7c0.1-0.3,0.2-0.6,0.3-0.9c0.1-0.2,0.2-0.4,0.3-0.6
		c0.1-0.2,0.2-0.4,0.3-0.7l0.2-0.4l0.1-0.2c0.1-0.2,0.2-0.5,0.3-0.8c0.2-1,0.5-1.6,1.1-2.5c0.2-0.4,0.5-0.8,1-0.7
		c0.1,0,0.2,0.3,0.3,0.5c0,0.2,0.1,0.4,0.1,0.6l0,1.8l0,0.3c0.1,0.4,0.2,0.8,0.4,1.2c0.2,0.4,0.4,0.8,0.5,1.3
		c0.1,0.4,0.2,0.8,0.3,1.3l0,0.3c0.1,0.5,0.1,0.5,0.1,0.7l0.1,0.5l0.1,0.2l0,0.4c0.1,0.6,0.2,1.2,0.3,2c0.1,0.7,0.2,1.3,0.4,1.9
		c0.3,0.9,0.5,2,0.7,2.9l0.1,0.4l0.1,0.5l0.1,0.2c0.1,0.4,0.1,1.3,0.1,1.7l0,0.4c0,0.3,0,0.4,0,1.1c0.1,1.2,0.2,2.9,0.5,3.7
		c0.1,0.5,0.3,1.7,0.5,2.7c0.1,0.5,0.2,1.4,0.2,1.6c0,1.6-0.1,2.8,0.1,4.2l0.1,0.4l0,0.7c0,0.4,0.1,1.2,0.1,1.3
		c0.1,0.5,0.2,1.2,0.2,1.8c0,0.9,0.3,2.4,0.5,3.5c0.2,0.8,0.4,1.9,0.5,2.3c0.2,0.7,0.2,1.9,0.1,2.7c0,0.5,0.1,2.9,0.2,4.3l0,0.5
		l0,0.2c0,0.1,0,0.1,0.1,0.5c0.1,0.5,0.2,1,0.3,1.5c0.2,1,0.3,1.9,0.5,2.8c0.9,4.7,1.8,12.9,2.6,19.2c0.2,1.6,0.4,3.5,0.7,4.7
		c0.3,1.1,0.6,2.3,0.8,3.4c0.1,0.9,0.4,1.8,0.7,2.6c0.1,0.3,0.3,0.8,0.3,1c0.2,0.4,0.4,1.1,0.5,1.4c0.4,1.5,1.6,3.7,2.5,4.8
		c1.1,1.3,2.3,2.8,3.2,3.5c1.3,1,2.8,2.3,4.1,2.7C384.8,139.9,388.7,141.2,389.2,141.1z"/>
	<path class="st0" d="M90.3,128.6c0.6-0.2,1.2,0.7,1.5,1.2c0.3,0.5,0.7,0.9,1.2,1.3c1.3,0.9,5.2,1.5,7.1,1.5c1.7,0,5-0.1,5.6-0.3
		c0.2-0.1,0.8-0.1,1.2-0.2c0.3,0,0.6-0.2,0.9-0.3l1.7-0.6c0.4-0.1,1.5-0.5,1.5-0.5c0.3-0.1,0.6-0.2,0.9-0.3c0.3-0.1,0.6-0.2,0.9-0.3
		c1-0.4,2.1-0.8,3.1-1.1c0.4-0.1,2.1-0.8,3.1-1.3c2.2-1,4.1-2.2,6-3.4c1.1-0.8,3.8-3.2,4.3-4.4c0,0,0.3-0.4,0.4-0.6l0.1-0.2l0.2-0.2
		l0-0.3l0.1-0.2c0.1-0.1,0.3-0.6,0.5-0.9l0.1-0.2l0.1-0.3c0.1-0.2,0.3-0.6,0.3-0.7c0.2-0.3-0.3-1.9-0.5-2.3
		c-0.3-0.8-0.5-1.5-0.7-2.3c-0.2-0.6-0.3-1.2-0.6-1.8l-0.2-0.4l-0.1-0.2l-0.2-0.5c-0.1-0.3-0.3-0.8-0.3-0.9c-0.3-1.1-1-3.5-1.1-3.7
		c-0.2-0.6-0.5-1.5-0.6-1.8c-0.2-0.5-0.5-1.1-0.6-1.7c-0.2-0.6-0.4-1.2-0.6-1.8c-0.1-0.3-0.2-0.6-0.3-0.9l-0.1-0.3l-0.1-0.2
		c-0.1-0.2-0.2-0.4-0.2-0.6l-1.3-3.8c-0.2-0.6-0.5-1.4-0.6-1.9c-0.2-1-0.4-2.3-0.6-2.8c-0.3-0.6-0.7-1.7-0.8-2.5
		c-0.1-1.1-0.1-3.9,0.3-4.5c0.1-0.2,0.2-0.3,0.4-0.4c0.2-0.1,0.5-0.3,0.6-0.5v-0.3l0-1.1c0-0.5,0-0.9,0.1-1.3c0.1-0.5,0.3-1,0.6-1.1
		c0.3-0.1,0.7,0.1,0.8,0.3c0.6,0.9,0.9,2.2,1.3,3.2c0.3,0.8,0.8,2.3,1.2,3.4c0.2,0.6,0.5,1.2,0.7,1.8c0.3,0.6,0.6,1.2,0.7,1.7
		c0.3,1.2,0.8,2.8,1.3,3.7c0.3,0.5,0.7,1.3,0.8,1.5c0.1,0.3,0.2,0.8,0.2,1.2c0.1,0.5,0.1,1,0.3,1.4c0.2,0.6,0.4,1.2,0.7,1.7
		c0,0,0.4,1.4,0.5,1.9c0.7,2.7,1.4,5.2,2.4,7.5c0.5,1.2,0.8,2.7,1,4.1c0.1,0.7,0.3,1.2,0.5,1.8c0.2,0.5,0.5,1.2,0.6,1.6
		c0.4,1.2,1,2.3,1.6,3.3c0.3,0.5,0.6,1.1,0.8,1.7c0.1,0.2,0.6,1.1,0.9,1.7c0.1,0.2,0.3,0.5,0.4,0.7c0.2,0.2,0.3,0.4,0.5,0.7
		c0.2,0.3,0.6,1.2,0.8,1.8c0.4,0.9,1.1,2,1.8,2.8c0.7,0.7,1.5,1.4,2.2,2.2c0.3,0.3,0.9,0.9,1.1,1.1l0.2,0.1l0.1,0.1
		c0.2,0.1,0.3,0.2,0.5,0.3c0.2,0.1,0.6,0.5,0.6,0.6c0.1,0.2,4.9,2.6,5.6,2.9c2,0.9,4.1,1.7,6.2,2.3c0.2,0.1,0.5,0.1,0.7,0.2
		c0.3,0.1,0.8,0.1,0.8,0.2c0.1,0,0.8,0.1,1.1,0.2c0.5,0.1,1,0.1,1.3,0.2c0.6,0.1,1.7,0.1,2.4,0.1c0.9,0,2.2,0,3.3,0.1
		c3.1,0.2,6.9,0,10.3-0.1c1.9-0.1,6.2-0.4,6.5-0.5l0.6-0.1c0.3,0,0.5-0.1,0.8-0.2l0.2,0l0.3-0.1l0.7-0.1c0.2,0,0.5-0.1,0.6-0.1h0.4
		h0.3c0.4,0,1.2-0.2,1.7-0.3l3.2-0.6c0.3,0,0.7-0.2,1-0.3c0.4-0.1,0.8-0.2,1.2-0.3c1.5-0.2,7.8-2.2,8.4-2.9c0,0-0.6-1.2-0.7-1.6
		c-0.3-0.6-0.6-1.1-0.8-1.7c-0.3-0.7-1-2-1.5-3.1c-0.5-1.1,2.4-12.3,2.8-13.3c0.5-1.6,1.1-3.2,1.7-4.6c0.1-0.4,0.8-1.6,1.2-2.5
		c0.4-0.7,1.2-2.5,1.2-2.6c0-0.2-1.1-1.1-1.5-1.4c-0.5-0.4-1.5-1.2-1.6-1.5c-0.2-0.5-0.5-1.4-0.5-1.5c-0.3-2,0.1-4.6,0.8-5.9
		c0-0.1,0.1-0.8,0.1-1.3c0-0.3,0.1-0.5,0.2-0.8c0.1-0.2,0.1-0.4,0.2-0.7c0,0,0.2-0.8,0.3-1.2c0.3-1.3,1.6-2.8,2.7-3.3
		c0.5-0.3,2.4,0.1,2.9,0.3c0.4,0.2,0.8,0.4,1.1,0.6c0.2,0.1,0.3,0.2,0.5,0.3c0.2,0.1,0.4,0.3,0.7,0.4l0.2,0.1
		c0.2,0.1,0.2,0.1,0.7,0.5c0.1,0.1,0.3,0.2,0.5,0.3c0.2,0.1,0.4,0.3,0.6,0.4c0.8,0.4,1.7,0.9,2.3,1.3c0.7,0.5,1.5,1,2.3,1.4
		c0.8,0.4,1.4,0.8,2,1.3c0.6,0.5,1.2,1,1.9,1.4c1.4,0.9,3.2,2.1,4.3,2.8c2.3,1.3,15.2,10.4,15.7,11.1c0.5,0.7,1.3,1.4,1.9,1.9
		c0.1,0.1,0.3,0.2,0.4,0.3c0.2,0.1,0.3,0.3,0.5,0.5c0.1,0.1,0.5,0.5,0.5,0.5c0.2,0.2,0.4,0.5,0.4,0.5c0.7,0.5,3.9,8.2,4.1,9.4
		c0.2,1.3,0,5.2,0,7.8c-0.1,1.9-1.2,7.5-2,8.8l-0.2,0.5c-0.1,0.3-0.1,0.3-0.2,0.4l-0.1,0.2c-0.1,0.2-0.1,0.2-0.2,0.4l-0.2,0.3
		l-0.1,0.2c-0.4,0.7-0.8,1.3-1.2,1.9c-0.8,1-1.8,2.2-3.3,2.5c-2,0.3-9.9-2.2-13-3.2c-0.6-0.2-1.9-0.5-2.8-0.7
		c-1-0.2-1.9-0.5-2.9-0.8c-1.1-0.3-2.4-0.7-3.2-0.8c-0.7-0.1-1.3-0.2-1.9-0.4c0,0-0.5-0.1-0.8-0.2l-0.2,0l-0.3-0.1l-1,0h-0.2
		c0,0-0.8,0.3-1,0.4c-0.4,0.1-0.7,0.3-1.1,0.5c-0.3,0.2-0.7,0.3-1,0.5l-0.2,0.1l-0.2,0.1l-0.2,0.1l-0.2,0.1
		c-0.2,0.1-0.2,0.1-0.3,0.2c-1.3,0.6-2.6,1.2-4,1.7c-0.8,0.3-2.8,1.1-4.4,1.7c-0.7,0.3-1.5,0.5-2.3,0.7c-0.8,0.2-1.5,0.5-2.2,0.7
		c-3,1.2-5.8,2.2-9.2,3.1c-0.3,0.1-0.7,0.3-1.1,0.4c-0.2,0.1-0.9,0.1-1.5,0.2c0,0-0.8,0.1-1.1,0.2c-0.6,0.1-1.1,0.2-1.6,0.3
		c-0.2,0-1.5,0.2-2.3,0.3l-0.6,0l-0.3,0.1l-0.3,0l-0.5,0.1c-0.7,0.1-2,0.3-2.2,0.3l-0.5,0l-0.3,0l-0.4,0.1h-0.6c-0.2,0-0.2,0-0.5,0
		l-0.3,0l-0.5,0.1h-0.9c-0.2,0-0.2,0-0.5,0l-0.7,0h-1.1l-1.1,0h-1h-0.7l-0.5,0.1c-2.6,0-4.1,0.1-6.3-0.1h-0.4
		c-0.7,0-1.1,0.1-1.4,0.1c-0.8,0-2.1-0.1-3.1-0.2c-1.1-0.1-2.6-0.3-3.2-0.5c-0.9-0.3-1.9-0.6-2.7-0.7l-0.3-0.1l-0.3-0.2l-0.5-0.2
		l-0.2-0.1c-0.2-0.1-0.4-0.1-0.6-0.2c-0.2-0.1-0.4-0.2-0.7-0.3c-1.8-0.7-3.7-1.6-5.3-2.6c-1.1-0.7-4.8-3.4-5.4-4.2
		c-0.4-0.6-0.7-1.1-1.1-1.6c-0.2-0.3-0.6-0.8-0.6-0.9c-0.2-0.2-0.5-0.5-0.7-0.9c-0.3-0.6-0.8-1.2-1.2-1.8c-0.4-0.6-1.2-1.7-1.3-1.9
		c-0.4-0.9-0.9-1.9-1.4-2.7c-0.5-0.8-0.9-1.8-1.3-2.8c-0.2-0.5-0.4-1-0.6-1.4c-0.2-0.4-0.5-1.1-0.6-1.6c-0.3-0.8-1-2.7-1-2.7
		c-0.1-0.2-0.5,1-0.5,1.1c-0.1,0.3-0.1,0.4-0.2,0.7c0,0.2-0.1,0.4-0.2,0.6l-0.1,0.2L132,124l-0.1,0.2c-0.1,0.2-0.2,0.5-0.3,0.8
		c-0.2,0.5-0.4,1.2-0.6,1.4c-0.2,0.2-0.8,1.7-1.1,2.4c-0.3,0.7-0.8,1.7-1.3,2.4c-0.2,0.4-2,2.2-3.3,3.5c-1,1-3.1,2.5-4.4,3.1
		c-1.5,0.7-5.2,2.2-5.2,2.2c-1,0.3-1.9,0.7-2.7,1.2c-0.6,0.3-2.1,0.9-2.6,1c-1.2,0.3-2.3,0.6-3.4,1c-0.6,0.2-1.1,0.4-1.8,0.5
		c-0.2,0-1,0.2-1.4,0.4c-0.4,0.1-0.6,0.1-1.1,0.1l-0.5,0l-0.3,0h-0.6c-0.9,0-1.9,0-2.7,0c-0.8,0-1.5,0-2.3,0c-1.3,0-3.1-0.3-4.1-0.7
		c-2.3-0.9-4.1-3.2-4.4-6c-0.1-1,0.2-2.1,0.5-2.8c0.2-0.5,0.3-1.4,0.5-2.3C88.8,131.2,89.2,128.6,90.3,128.6z"/>
	<path class="st0" d="M386.3,72.4c0,0,0.5-0.2,0.7-0.2c0.3-0.1,0.5-0.2,0.7-0.3c0.5-0.2,1.5-0.7,1.6-0.7c0.2-0.1,0.5-0.3,0.8-0.4
		c0.3-0.1,0.5-0.3,0.7-0.4c0.2-0.1,0.7-0.4,0.7-0.4l0.2-0.1l0.2-0.1c0.2-0.1,0.2-0.1,0.4-0.2c0.3-0.2,0.6-0.3,0.9-0.4
		c0.3-0.1,0.5-0.1,0.7-0.2c0.5-0.2,1-0.4,1.5-0.6c1.2-0.5,2.8-1.3,3.4-1.7c1.8-1.1,4.2-2.1,6.4-3.1c1-0.4,2-0.9,3.1-1.3
		c1.4-0.5,2.6-1,3.8-1.7c1-0.5,4-1.8,6.3-2.8c1-0.5,2.1-0.9,3.1-1.4c0.1,0,0.1,0,0.4-0.2l0.4-0.2c0,0,0.5-0.3,0.8-0.4l0.2-0.1
		c0.3-0.1,0.3-0.1,0.4-0.2l0.4-0.2c0.2-0.1,0.4-0.2,0.6-0.3c0.3-0.1,0.5-0.2,0.8-0.4c0.2-0.1,0.7-0.3,0.7-0.3s0.4-0.2,0.7-0.3
		c0.2-0.1,0.6-0.3,1-0.4c0.6-0.2,1.2-0.5,1.8-0.8c0.6-0.3,1.2-0.6,1.8-0.8c0.4-0.1,2.9-1.3,3.2-1.6c1.2-1,2.2-0.2,2.6,1
		c0.3,1-0.5,4.6-1,5.2c-0.5,0.6-1.5,1.4-2.3,1.7l-0.2,0.1l-0.5,0.1l-0.2,0c-0.2,0.1-0.6,0.2-0.7,0.2c0,0-0.5,0.3-0.8,0.4l-0.4,0.2
		c-0.1,0.1-0.5,0.2-0.8,0.4l-0.2,0.1l-0.4,0.2c-0.4,0.2-0.4,0.2-0.4,0.2c-0.1,0.1-0.2,0.1-0.3,0.2c-0.4,0.1-1.5,0.6-1.5,0.6
		c-0.3,0.2-1.1,0.4-1.6,0.6c-0.3,0.1-0.6,0.2-0.9,0.4c-0.3,0.2-0.9,0.5-0.9,0.5c-2.2,1-5.1,2.4-6.5,3.1c-0.2,0.1-0.5,0.2-0.8,0.3
		c-0.2,0.1-0.6,0.2-0.9,0.4c-0.3,0.1-0.8,0.3-0.8,0.3l-0.5,0.2l-0.4,0.2c-1,0.4-2.2,0.9-3,1.4c-0.7,0.4-3.9,1.6-6.6,2.7
		c-0.7,0.3-3.9,1.9-6.4,3.1c-1.9,1-5.8,2.8-6.5,3c-1.3,0.4-2.3,0.9-3.4,1.4c-0.5,0.2-1.2,0.6-1.4,0.8c-0.4,0.3-0.8,0.7-1.4,0.9
		c-1.6,0.4-1-2.4-0.6-3c0.2-0.3,0.3-0.6,0.2-1.1c-0.1-0.6,0-1.1,0.1-1.6C385.4,73.8,386,72.5,386.3,72.4z"/>
	<path class="st0" d="M310.5,186.6c1.9-0.4,3.7-1,5.3-1.7c1.9-0.8,3.9-1.7,5.9-2.2c0.9-0.2,1.8-0.5,2.7-0.9c1-0.4,2.2-0.9,3.2-1.3
		c1.8-0.6,4.3-1.5,5.6-2.2c0.4-0.2,2.6-1.2,4.1-1.8c1.2-0.5,2.6-1.2,3.8-1.8c0.3-0.2,2.4-1.1,4-1.8c0.3-0.1,0.8-0.4,0.9-0.5
		c0.2-0.3,0.3-0.5,0.6-0.7c0.6-0.3,1.4-0.7,2.2-0.6c0.3,0,0.7,0.4,1,0.8c0.3,0.3,0.3,1.3,0.3,1.7c0,1.5-0.9,4.1-1.8,4.8
		c-0.7,0.5-1.6,1-2.4,1.4c-0.3,0.1-0.8,0.3-1.2,0.4c-0.6,0.2-1.1,0.4-1.6,0.6c-1.8,0.9-3.9,1.8-5.4,2.3c-0.1,0-0.9,0.5-1.3,0.7
		c-0.4,0.2-0.9,0.4-1.4,0.6c-1,0.4-2.1,0.8-3,1.3c-0.9,0.5-2.1,1-3,1.3c-0.9,0.3-2,0.6-2.8,1.1c-0.4,0.2-3.2,1.2-5.3,2
		c-2,0.7-4.2,1.5-5.7,2c-0.9,0.3-1.9,0.8-2.8,1.2c-0.8,0.3-2.6,1.1-3.4,0.6c-0.5-0.3-0.4-1.4-0.2-2.1c0.2-0.7,0.4-1.4,0.5-2
		C309.4,188.4,309.7,187.3,310.5,186.6z"/>
	<path class="st0" d="M280.3,121.2c0,0,0.4-0.5,0.6-0.7c0.2-0.2,0.6-0.6,0.9-0.7c2.2-0.8,0.8,3.4,0.4,4.2c-0.7,1.5-1.4,3.2-1.7,4.9
		c-0.2,0.9-0.4,2.2-0.6,2.8l-0.1,0.2c-0.1,0.3-0.1,0.3-0.1,0.3c0,0.2-0.2,0.5-0.2,0.5c-0.1,0.4-0.3,1-0.4,1.3
		c-0.1,0.7-0.4,1.4-0.6,2.1c-0.1,0.3-0.2,0.7-0.3,1.1l-0.2,0.9c-0.1,0.3-0.1,0.3-0.1,0.5c0,0.2-0.1,0.4-0.1,0.5
		c-0.5,1.4,1.1,6.3,1.6,7.2c0.3,0.6,0.8,1.4,1.3,2.1c0.2,0.3,0.6,1,0.7,1.1c0.2,0.3,0.7,0.9,0.8,1c0.4,0.7,2.3,2.2,3.3,2.9
		c1.4,1,3.1,2.1,4.9,2.7c1.9,0.6,4,1.3,6.1,1.5c3.3,0.3,7.4-0.1,10.8-0.6c0.4-0.1,0.9-0.2,1.3-0.3c0.4-0.1,1-0.2,1.3-0.3
		c0.4,0,0.8-0.2,1.2-0.3c0.2-0.1,0.9-0.3,0.9-0.3l0.3,0l0.2-0.1l0.2,0l0.3,0l0.3,0c0.4-0.1,0.9-0.2,1.3-0.3c0.2-0.1,0.2-0.1,0.4-0.1
		c0.2,0,0.3-0.1,0.5-0.2l0.2,0l0.4-0.1c0.1,0,0.3-0.1,0.4-0.1c4-0.9,11.3-5.4,13.5-8c0.3-0.4,0.7-0.9,1.1-1.3
		c0.2-0.2,0.4-0.4,0.6-0.7c0.2-0.2,0.4-0.5,0.6-0.8c0.8-1,1.9-2.3,2.1-3.8c0.1-0.6-0.2-2.7-0.4-3.9c-0.2-1.3-0.4-2.7-0.5-4.1
		c-0.3-2.4-0.6-4.9-1-7.3c-0.3-1.5-0.6-4.8-0.9-7.5c-0.1-0.8-0.2-1.7-0.3-2.4l0-0.7l-0.1-0.8c0-0.5-0.1-0.9-0.2-1.3l0-0.3l0-0.8
		l0-0.3l0-0.3l-0.1-0.3l0-0.3l-0.1-0.4c0-0.3-0.1-0.7-0.2-0.8c0-0.2-0.1-0.7-0.2-1c-0.1-0.5-0.2-0.9-0.3-1.4
		c-0.1-0.4-0.2-0.8-0.3-1.2c-0.1-0.5-0.2-1-0.3-1.4c-0.2-0.9-0.4-1.7-0.6-2.6c-0.2-0.6-0.6-2.3-0.6-2.3l-0.1-0.3l-0.1-0.6
		c0-0.1,0-0.2-0.1-0.5l0-0.3l0-0.2l-0.1-0.3l0-0.2c0-0.2,0-0.2-0.1-0.6c-0.2-1.1-0.5-3-0.6-3.5c-0.3-1.6-1.1-6.3-1.1-6.3
		c0-0.9-0.7-4.1-1.1-5.8c0-0.2-0.1-0.5,0-0.9c0,0-0.2-0.9-0.4-1.5c0-0.1-0.2-1.2-0.3-1.8l-0.1-0.3l0-0.3l0-0.4l-0.1-0.3l0-0.2l0-0.3
		c-0.5-2.7-0.8-5.3-1.1-8.1c-0.1-0.7-0.2-1.4-0.3-2.1c-0.1-0.8-0.2-1.7-0.3-2.5c-0.1-1.4-0.4-4-0.6-4.3c-0.9-1.3-1.7-2.6-2.3-4.2
		c-0.3-0.8-0.5-1.6-0.6-2.6c-0.1-0.4-0.1-0.8-0.2-1.2c0-0.4-0.1-0.8-0.2-1.2l-0.1-0.2l0-1.5l0-0.3c-0.1-0.4,0-1.9,0-1.9l0.1-0.2
		L318,44c0.1-0.3,0.5-1,0.5-1.1c0.3-0.3,0.4-0.5,0.5-1c0.1-0.3,0.2-0.7,0.4-0.9c0.4-0.6,0.7-1,1-1.7c0.2-0.4,0.3-0.6,0.5-0.9
		c0,0,0.2-0.2,0.2-0.2h0.3l0,0.2l0.2,0.1c0,0,0-0.8,0-0.9c0-0.2,0-0.5,0-0.7c0-0.1,0-0.1,0.1-0.4c0-0.1,0.1-0.3,0.1-0.5
		c0.1-0.6,1-1,1.4-0.4c0.3,0.3,0.5,1.8,0.7,2.8c0.2,1.2,0.4,2.7,0.6,3.2c0.2,0.8,0.5,1.4,0.7,2.1c0.2,0.3,0.4,0.7,0.6,1.2l0.1,0.2
		l0.1,0.2c0.1,0.2,0.2,0.4,0.3,0.5c0.2,0.6,2,2.6,2.6,3.3c0.2,0.3,0.5,0.5,0.8,0.8c0.3,0.2,0.7,0.6,0.9,0.7c0.5,0.5,1.4,1.4,1.6,1.8
		c0.3,0.7,0.1,2.1-0.1,2.7c-0.3,1-0.6,1.8-1,2.7c-0.4,0.7-1.6,2.1-2.5,3.2c0,0-0.5,0.3-0.6,0.4c0,0-0.3,0.2-0.3,0.2
		c-0.2,0-0.6,0.2-0.5,0.2c0.1,0.1,0.1,0.7,0.2,1c0.1,0.5,0.1,1,0.2,1.3c0.1,0.7,0.2,1.5,0.4,2.1c0.2,0.9,0.5,2.1,0.7,3
		c0.3,1,0.5,2.3,0.7,3.8c0.2,1.2,0.4,2.9,0.7,3.6c0.2,0.7,0.5,2.7,0.7,4.2c0.1,0.5,0.1,0.9,0.2,1.4l0.1,0.3l0,0.3l0,0.3
		c0,0.3,0.1,0.9,0.2,1l0.1,0.4l0,0.3l0,0.4l0.1,0.4c0.3,2.1,0.8,4,1.4,5.9c0.4,1.4,0.9,4.3,1.2,6.3c0.2,1.1,0.5,3,0.7,3.5
		c0.4,1,0.6,2.2,0.6,3.6c0,1.9,0,4.2,0.5,5.8c0.1,0.4,0.5,3.4,0.7,5.1c0.2,1.6,0.4,3.5,0.7,4.5c0.1,0.4,0.2,1.9,0.3,2.6l0,0.8l0,0.4
		l0,0.8c0,0.4,0.2,1.5,0.2,1.6v0.4v0.5c0,0.7,0,2,0,2.7c0.1,1.6,0.1,6.6,0,6l0,0.6c0,0.2,0,0.2-0.1,0.8l-0.1,0.8l0,0.6l0,0.4
		c0,0.3-0.1,0.6-0.2,0.9c0,0.2,0,0.2-0.1,0.5c-0.1,0.3-0.1,0.3-0.1,0.5c-0.2,1.2-0.5,2.3-0.8,3.4l0,0.2l-0.1,0.2l0,0.2
		c0,0-0.1,0.2-0.2,0.4l-0.1,0.4c0,0-0.2,0.9-0.2,1.2c-0.1,0.3-0.1,0.3-0.1,0.4c0,0.3,0,0.3-0.1,0.4l-0.1,0.2l-0.1,0.3l-0.1,0.3
		c-0.1,0.3-0.2,0.6-0.3,0.9c-0.2,0.6-0.5,1.1-0.7,1.6c-0.3,0.5-1.3,2-2.1,3c-0.3,0.5-0.7,1-1,1.4c-0.2,0.3-0.4,0.6-0.9,1.2
		c-0.2,0.2-0.2,0.2-0.2,0.2c-0.2,0.3-0.7,0.7-0.9,0.9c-0.2,0.2-0.5,0.6-0.8,1c-0.4,0.5-1.3,1.2-1.9,1.7c-1.4,1.1-2.6,1.9-4.2,2.8
		c-1.6,0.9-3.1,1.8-4.9,2.5l-1.3,0.6c-0.4,0.1-1.1,0.4-1.6,0.5c0,0-0.5,0.1-0.8,0.1c0,0-0.6,0.1-0.8,0.2c-0.2,0-0.5,0.1-0.7,0.2
		c-0.3,0.1-0.8,0.2-0.9,0.2c-4.7,1.5-14.6,2.8-19.5,1.5c-2.2-0.5-4.7-1.2-6.1-1.9c-1.7-0.9-3.2-1.8-4.7-2.9c-0.7-0.5-1.3-1-1.8-1.6
		c0,0-0.5-0.5-0.8-0.8c-0.1-0.1-0.2-0.2-0.3-0.4c-0.1-0.2-0.3-0.4-0.5-0.5c-0.5-0.4-2.8-3.9-3.1-4.6c-0.6-1.4-1.6-3.7-1.9-4.7V151
		l0.1-0.6V150c0-0.6-0.1-1.3-0.2-2c-0.2-1.3-0.3-2.7-0.1-3.9c0.2-1.5,0.5-3.2,0.8-4.6c0.5-2.2,1.2-4.6,1.9-6.5
		c0.7-2,1.5-4.2,2.4-6.2c0.4-0.9,1.2-2.6,1.4-3C279.1,123.4,280.3,121.3,280.3,121.2z"/>
	<path class="st1" d="M251,129.7c0-0.7-2.1-4.1-2.7-5.1c-2-3-14.1-12.3-14.8-12c-0.1,0-0.1,0.9-0.1,1c-0.1,1.5-0.1,2.1-0.2,3.3
		c0,0.4-0.2,1.5-0.4,2.2c-0.2,1.2-0.4,2.3-0.7,3.4c-0.2,0.9-0.5,1.8-0.8,2.7c-0.3,1-0.8,2.5-0.8,3.3c0,0.1,1.1,0.3,1.2,0.3
		c0.5,0.1,1,0.2,1.5,0.4l0.5,0.2l0.4,0.1l0.2,0.1c0.4,0.1,1.1,0.3,1.3,0.4c0.8,0.2,2.4,0.6,2.8,0.7c0.5,0.2,0.9,0.3,1.4,0.6
		c0.3,0.2,0.7,0.3,1.1,0.4c0.8,0.3,1.7,0.5,2.6,0.7l1.3,0.3c0.3,0.1,0.6,0.1,0.8,0.2c0.3,0,1.2,0.2,1.2,0.2c1.6,0.4,2.7,0.4,3.5-0.7
		C250.4,132,251.1,130.2,251,129.7z"/>
	<path class="st1" d="M224.2,126.9c0.4-0.2,4.7-3.3,4.7-3.3c0.2-0.7,0.3-1.8,0-2.5l-0.2-0.7l0-0.2l0-0.2c-0.1-0.4-0.3-0.8-0.4-1.1
		c-0.3-0.8-0.8-1.9-1.1-2.4c-0.1-0.1-0.2-0.4-0.3-0.6c-0.1-0.2-0.2-0.4-0.3-0.6c0,0-0.4-0.7-0.6-1c-0.4-0.7-0.9-1.4-1.4-2
		c-1-1.2-2.8-3.2-3.7-3.7c-0.4-0.2-0.9-0.5-1.3-0.8c-0.5-0.3-0.9-0.5-1.5-0.7c-0.4-0.1-1.5,0.2-1.8,0.5c-0.1,0.1-0.3,0.2-0.4,0.3
		c-0.3,0.3-0.3,0.3-0.4,0.4l-0.3,0.3c-0.5,0.5-0.9,0.9-1.2,1.4c-0.3,0.4-0.7,1.2-1,2.1c-0.2,0.3-0.8,1.4-1.1,1.9
		c-0.7,1.1-4.2,8.6-3.5,9.5c0.2,0.3,4.1,2.6,4.6,2.7c1.6,0.4,3.2,0.5,5.1,0.5c1.2,0,2,0,3,0h0.7c0.7,0,0.7,0,1.3,0
		C223.2,127,224,127.1,224.2,126.9z"/>
	<path class="st0" d="M183.8,58c0.1-0.1,0.4-0.2,0.7-0.3c0.3-0.1,0.5-0.2,0.8-0.3c0.5-0.2,1.2-0.5,1.6-0.7c0.5-0.2,1-0.5,1.5-0.8
		c0.4-0.3,1-0.6,1.4-0.8l0.2-0.1l0.3-0.2l0.2-0.1c0.2-0.1,0.2-0.1,0.4-0.2l0.4-0.2c0.2-0.1,0.5-0.2,0.7-0.4c0.3-0.1,0.7-0.3,0.9-0.4
		c0.3-0.2,1.4-0.8,1.5-0.7c0.1,0,0.1,0,0.3-0.2c0,0,0.7-0.4,0.8-0.4c1.1-0.5,2.9-1.3,3.5-1.6c0.3-0.1,0.9-0.5,1.4-0.8
		c0.5-0.3,1.1-0.7,1.6-0.8c1.6-0.6,4.2-1.9,6.2-3c1.9-1,4.1-2.1,6.2-2.8c0.7-0.2,2.2-0.9,3.2-1.3c0.2-0.1,0.8-0.3,0.8-0.3
		c0.1-0.1,0.1-0.1,0.4-0.2l0.4-0.2c0.2-0.1,0.5-0.2,0.7-0.3c0.3-0.2,0.6-0.3,1-0.5c0.5-0.2,1.1-0.5,1.6-0.8c0.2-0.1,1.1-0.6,1.6-0.9
		l0.2-0.1l0.4-0.2c0.4-0.2,0.4-0.2,0.6-0.3l0.2-0.1l0.4-0.2l0.2-0.1l0.2-0.1c0.3-0.2,0.7-0.4,0.9-0.5c0.4-0.2,1.9-1,2.9-1.6
		c0.3-0.1,0.5-0.3,0.8-0.4l0.4-0.2l0.4-0.2c0,0,0,0,0.4-0.2l0.3-0.2c0.2-0.2,0.6-0.4,0.7-0.5c0.4-0.1,1,0.1,1.2,0.3
		c0.3,0.3,0.5,0.7,0.5,1.1c0.3,1.3-0.8,4.7-1.3,5.5c-0.1,0.2-1.1,0.7-1.7,1c-0.6,0.3-1.4,0.7-2,1c-0.6,0.3-1.2,0.6-1.9,1
		c-0.6,0.3-1.2,0.7-1.8,1c-0.3,0.2-1.3,0.7-1.9,1c-0.7,0.3-1.4,0.7-2,1.1c-1.1,0.6-3.2,1.8-4,2c-0.1,0-0.3,0.1-0.4,0.2
		c-0.1,0.1-0.3,0.2-0.5,0.3c-0.4,0.2-0.8,0.3-1.2,0.5c-0.8,0.3-1.6,0.6-2.3,0.8c-1.5,0.6-2.9,1.2-4.2,1.9c-0.9,0.5-3.9,2-3.9,2
		c-1.4,0.8-3.1,1.8-4.6,2.2c-0.5,0.2-2.7,1.2-4.4,2.1c-1.4,0.7-3.6,1.8-4.3,2.3c-0.6,0.4-1.2,0.7-1.9,1c-0.8,0.3-1.6,0.7-2.4,1.1
		c-0.7,0.4-1.5,0.8-2.2,1.2c-0.7,0.4-1.6,0.9-2.1,1.1c-1.1,0.4-1.3-0.7-1.3-1.5c0-0.1,0.1-0.5,0.2-0.7c0.1-0.3,0.2-0.7,0.2-1
		l0.1-0.5V61v-0.6c0-0.3,0.2-0.8,0.3-1c0.2-0.3,0.2-0.4,0.3-0.8C183.5,58.4,183.6,58.1,183.8,58z"/>
	<path class="st0" d="M166.5,71.5c0.3-0.2,0.9-0.1,1.1,0.1c0.7,0.3,4.6,5.5,5.3,6.6c0.5,0.7,0.9,1.3,1.3,2.1
		c0.2,0.3,0.3,0.6,0.5,0.9c0.1,0.2,0.3,0.3,0.3,0.4c0.1,0.1,0.2,0.3,0.3,0.4c0.4,0.7,0.8,1.7,1.1,2.5l0.1,0.2l0.1,0.2l0.1,0.2
		l0.2,0.3c0.1,0.2,0.1,0.3,0.2,0.5c0.1,0.3,0.2,0.5,0.3,0.7c0.2,0.5,0.6,1.7,0.7,2.4c0,0.2,0.4,1.3,0.6,2c0.5,1.8,1.2,4.2,1.3,5.4
		c0.2,1.8,0.4,4.1,0,5.9c-0.2,0.7-0.5,2.1-0.6,2.3c-0.2,1.2-0.5,2.7-0.6,3.7c-0.1,1.2-0.3,2.2-0.7,3.1c-0.2,0.6-0.5,1.3-1,1.6
		c-0.2,0.1-0.7,0.1-0.7,0l-0.1-0.2c0-0.1-0.1-0.5-0.1-1c0-0.3,0-0.8,0.1-1.3c0.1-0.7,0.1-1.3,0.2-2.1c0.1-1.3,0.1-1.3,0-2.7l0-1.4
		v-0.1c0,0-0.1-0.9-0.2-1.3l-0.1-0.6l0-0.4c0-0.3-0.2-1.2-0.3-1.7c-0.2-1-0.4-2.2-0.7-3.2c-0.5-1.8-1-3.6-1.6-4.8
		c-0.3-0.6-0.8-1.7-0.9-1.9l-0.5-1c0,0-0.2-0.3-0.3-0.5c-0.1-0.2-0.2-0.4-0.3-0.7l-0.1-0.2l-0.1-0.2l-0.2-0.3l-0.2-0.3l-0.1-0.2
		l-0.1-0.2c0,0-0.2-0.3-0.2-0.4c-0.1-0.3-0.4-0.8-0.4-0.9l-0.1-0.2l-0.2-0.3l-0.2-0.3l-0.1-0.2c0,0-0.5-0.6-0.6-0.7
		c-0.2-0.3-0.5-0.5-0.7-0.8l-0.2-0.3l-0.2-0.3l-0.3-0.4l-0.2-0.3l-0.3-0.3l-0.1-0.2c-0.2-0.2-0.2-0.2-0.2-0.2
		c-0.1-0.2-0.2-0.3-0.3-0.5c-0.2-0.2-0.5-0.6-0.8-0.9l-0.7-0.6c-0.4-0.3-0.5-0.5-0.5-1.1c0-0.3,0-0.9,0.2-1.3c0.2-0.6,0.5-1.3,0.4-2
		C165.3,73.9,166,71.8,166.5,71.5z"/>
	<path class="st0" d="M109.7,49.9l0.2,0l0.2,0.1l0.2-0.2c0.2-0.1,1.6-0.2,1.5-0.1c0,0.1,0.4,0.2,0.5,0.2c0.3,0.1,0.6,0.2,1,0.5
		l0.3,0.2c0.2,0.2,0.4,0.3,0.7,0.4c0.3,0.1,1.2,0.9,2.1,1.6c1.2,1,3.2,2.7,3.4,3.8c0.5,2.3-2.6,8.6-3.7,9.4
		c-0.3,0.2-0.4,0.2-0.8,0.1c-0.1,0-0.6-0.5-0.8-0.7c-0.3-0.3-0.6-0.5-1-0.7c-0.7-0.5-1.5-0.9-2.3-1.2c-1-0.4-3.7-1.8-4.3-2.5
		c-0.6-0.7,0.7-5.2,1.3-5.6c0.4-0.3,0.5-0.4,0.7-1.1c0-0.1,0.1-0.3,0.1-0.4c0.1-0.8,0.1-1,0.2-1.1c0.1-0.2,0.4-0.7,0.6-1
		c0.1-0.2,0.2-0.6,0.2-0.9l-0.1-0.3C109.7,50.2,109.6,50,109.7,49.9z"/>
	<path class="st0" d="M84.2,34.4c0.4,0,2.1-1,2.5-1.3c0.8-0.5,1.7-1,2.6-1.3c1.3-0.5,3.8-1.7,5.9-2.6c3.6-1.6,7-3.1,10.7-4.6
		c3.3-1.4,10-4.4,10.9-4.9c2-1.1,9.3-4.9,10.3-4.7c0.4,0.1,0.7,0.2,0.9,0.6c0.2,0.4,0.3,1,0.3,1.5c0,1.6-1,4.6-1.9,5.2
		c-0.3,0.2-0.8,0.4-1.2,0.6l-0.3,0.1l-0.4,0.1c-0.3,0.1-0.5,0.2-0.7,0.3l-0.2,0.1l-0.2,0.1l-0.2,0.1l-0.2,0.1l-0.3,0.2l-0.4,0.2
		l-0.3,0.1l-0.7,0.3c-1.7,0.7-3.3,1.6-4.9,2.4c-1.6,0.9-3.2,1.6-5,2.4c-0.7,0.3-1.5,0.7-2.3,0.9c-0.9,0.3-1.7,0.7-2.5,1.1
		c-1.4,0.7-2.9,1.4-4.4,1.9c-0.7,0.2-3.2,1.4-5.3,2.4c0,0-1,0.4-1.4,0.6c0,0-0.9,0.4-1.4,0.6c-0.4,0.2-0.9,0.4-1.3,0.5
		c-0.5,0.2-1,0.4-1.5,0.7c-0.9,0.4-3.4,1.5-5.1,2.3c-0.1,0-0.5,0.4-0.6,0.5c-0.1,0.1-0.1,0.1-0.3,0.2c-0.1,0.1-0.2,0.2-0.3,0.2
		c-0.3,0.3-1,0.8-1.4,0.8c-2.1,0.3-1.4-1.9-0.8-3.1c0.1-0.3,0.1-0.3,0.1-0.8l0-0.5V37c0-0.4,0.2-0.9,0.3-1.2
		C83.6,35.3,83.9,34.6,84.2,34.4z"/>
	<path class="st0" d="M60.5,44.5c0.1-0.2,0.7-0.2,0.8,0c0.2,0.5,0.6,1.3,0.6,1.4c0.1,0.7,0.2,1.9,0.3,3.1c0.1,1.7,0.3,4.2,0.7,5.4
		c0.3,1.1,0.8,2.9,0.9,3.8c0.1,1.3,0.5,2.8,0.8,4.1c0.3,1.2,0.8,2.9,0.9,3.5l0,0.2l0.1,0.3c0,0.2,0.1,0.4,0.1,0.5
		c0,0.6,0.2,1.9,0.2,2c0,0,0.2,0.5,0.3,0.8c0.1,0.2,0.2,0.6,0.3,0.9c0.2,0.7,0.3,1.5,0.4,2.2c0,0.3,0.1,0.7,0.2,1.1
		c0.1,0.3,0.2,0.9,0.3,1.3c0.3,1.4,0.6,2.7,0.9,3.9c0.4,1.5,0.7,3.1,1,4.8c0.1,0.4,0.1,0.8,0.2,1c0.1,0.3,0.2,0.6,0.2,1
		c0.1,0.6,0.2,1.7,0.2,1.8l0.1,0.4c0.1,0.2,0.1,0.4,0.1,0.6c0,0.3,0.5,2.5,0.8,3.9c0.3,1.6,0.8,3.6,1,4.9c0.5,3.4,1.1,6.5,1.8,9.6
		c0.1,0.3,0.1,0.8,0.1,1.1c0,0.5,0,1.2,0.1,1.7l0.1,0.5l0,0.3c0.1,0.3,0.1,0.5,0.1,0.8c0,0,0.1,1,0.2,1.5c0.2,1.8,0.5,3.3,0.9,4.9
		c1,4.6,1.4,9.6,1.7,14.7c0,0.5,0,1.2-0.1,1.6c-0.1,0.3-0.1,0.7-0.2,1.2c-0.1,0.7-0.1,1.4-0.1,2.2c0,0.5,0,1.4,0,1.5
		c0,0.2-0.1,0.6-0.1,0.8c0,0.4-0.1,1.4-0.1,1.6c-0.1,0.7-0.2,1.5-0.3,1.8c0,0-0.3,1.7-0.5,2.3c-0.1,0.7-0.3,1.3-0.5,1.9
		c-0.3,0.9-1.1,3-1.6,3.4c-0.2,0.1-0.5,0.1-0.6-0.1c-0.3-0.8-0.3-4.6-0.3-6.5c0-0.4-0.2-4.5-0.3-7.1c-0.1-2.4-1-7.8-1.6-11.6
		c-0.2-1.5-1.1-7-1.7-10.8c-0.5-3.2-1-6.3-1.7-9.5c-0.2-1.2-0.5-2.5-0.8-3.6c-0.1-0.2-0.1-0.3-0.1-0.6l0-1l0-0.3
		c-0.1-0.4-0.2-1.2-0.2-1.3c-0.2-0.8-0.3-1.6-0.5-2.5c-1-5.8-2.2-11.2-3.4-16.8c-0.3-1.5-0.8-3.4-0.8-4.9c-0.1-1.5-0.3-3.2-0.8-4.5
		c-0.3-0.9-0.6-2.1-0.9-3.2c-0.1-0.6-0.3-1.2-0.4-1.7l0-0.2l0-0.2C59,63.9,59,63.9,59,63.8l-0.1-0.6c0-0.3-0.1-1-0.1-1
		C58.6,62,58,55.4,58,54.5c0-0.9,0.1-2,0.4-2.9l0-0.2l0.1-0.8c0-0.1,0.1-0.4,0.2-0.5c0-0.1,0.3-0.4,0.4-0.5c0,0,0.2-0.2,0.2-0.2
		C59.4,48,59.8,45.2,60.5,44.5z"/>
	<path class="st1" d="M434.4,137.1c0.4-0.2,4.7-3.3,4.7-3.3c0.2-0.7,0.3-1.8,0-2.5l-0.2-0.7l0-0.2l0-0.2c-0.1-0.4-0.3-0.8-0.4-1.1
		c-0.3-0.8-0.8-1.9-1.1-2.4c-0.1-0.1-0.2-0.4-0.3-0.6c-0.1-0.2-0.2-0.4-0.3-0.6c0,0-0.4-0.7-0.6-1c-0.4-0.7-0.9-1.4-1.4-2
		c-1-1.2-2.8-3.2-3.7-3.7c-0.4-0.2-0.9-0.5-1.3-0.8c-0.5-0.3-0.9-0.5-1.5-0.7c-0.4-0.1-1.5,0.2-1.8,0.5c-0.1,0.1-0.3,0.2-0.4,0.3
		c-0.3,0.3-0.3,0.3-0.4,0.4l-0.3,0.3c-0.5,0.5-0.9,0.9-1.2,1.4c-0.3,0.4-0.7,1.2-1,2.1c-0.2,0.3-0.8,1.4-1.1,1.9
		c-0.7,1.1-4.2,8.6-3.5,9.5c0.2,0.3,4.1,2.6,4.6,2.7c1.6,0.4,3.2,0.5,5.1,0.5c1.2,0,2,0,3,0h0.7c0.7,0,0.7,0,1.3,0
		C433.4,137.2,434.2,137.2,434.4,137.1z"/>
</g>
</svg>
