<?xml version="1.0" encoding="utf-8"?>
<!-- Generator: Adobe Illustrator 23.0.3, SVG Export Plug-In . SVG Version: 6.00 Build 0)  -->
<svg version="1.1" id="Layer_1" xmlns="http://www.w3.org/2000/svg" xmlns:xlink="http://www.w3.org/1999/xlink" x="0px" y="0px"
	 viewBox="0 0 500 200" style="enable-background:new 0 0 500 200;" xml:space="preserve">
<style type="text/css">
	.st0{fill-rule:evenodd;clip-rule:evenodd;fill:#231F20;}
	.st1{fill-rule:evenodd;clip-rule:evenodd;fill:#FFFFFF;}
</style>
<path class="st0" d="M309.4,39.5c0,0,0.1-0.1,0.2-0.2c0.1-0.1,0.2-0.2,0.4-0.3c0.1-0.1,0.3-0.2,0.3-0.2c0.3-0.2,0.8-0.7,0.9-0.7
	c0.4-0.3,1.3-1,1.9-1.5c0.6-0.5,1.2-0.9,1.9-1.4c0.7-0.4,1.3-1,2-1.5c1.2-1,2.4-2,3.6-2.9c0.6-0.4,3.4-3,3.5-3.4l-0.1-0.1l-0.4-0.2
	l-0.2-0.2c-0.2-0.2-0.5-0.4-0.7-0.5c-0.2-0.1-1-0.7-1.5-1.2c-0.5-0.4-1-0.8-1.4-1.2c-0.4-0.3-0.9-1.2-1-1.7c-0.2-0.9-0.2-2.2,0.2-3
	c0.2-0.4,0.2-0.6,0.3-1.2c0-0.4,0.2-0.7,0.3-1c0.3-0.4,0.6-0.8,0.9-1.2c0.1-0.1,0.3-0.4,0.5-0.7c0.2-0.3,0.2-0.3,0.3-0.5l0.1-0.1
	c0.5-0.8,1.2-1.5,1.9-2.2c0.4-0.4,0.9-0.9,1.1-1c0.4-0.3,0.8-0.7,1.1-1c0.3-0.3,0.8-0.5,1.3-0.6c0.7-0.1,1.3,0.3,1.7,0.5
	c0.2,0.1,0.3,0.2,0.4,0.4c0.1,0.1,0.4,0.4,0.5,0.4c0.3,0.2,1.3,2,1.5,2.5c0.3,0.8,0.4,1.8,0.4,2.6c0,0.8-0.1,3.5-0.3,3.9l-0.1,0.3
	l0,0.2l0,0.2c-0.1,0.2-0.1,0.4-0.2,0.6c-0.2,0.5-0.5,1.2-0.6,1.6c-0.4,0.9-0.8,2-1.1,2.9c-0.3,0.8-3.4,5.3-3.9,5.7
	c-0.7,0.5-1.6,1.3-2.2,2c0,0-0.3,0.2-0.5,0.3c-0.1,0.1-0.1,0.1-0.2,0.2c-0.1,0.1-0.3,0.2-0.3,0.2c0,0-0.2,0.2-0.3,0.2l-0.8,0.6
	l-0.1,0.1l-0.3,0.2c-0.9,0.6-1.8,1.3-2.7,1.8c-0.2,0.2-0.5,0.3-0.7,0.5c-0.2,0.2-0.4,0.3-0.7,0.4c-0.2,0.1-0.5,0.3-0.7,0.5
	c-0.2,0.2-0.5,0.3-0.7,0.4c0,0-1,0.2-1.4,0.3c-0.1,0-0.8,0.3-0.8,0.3c0,0-2.4,1.5-2.5,1.6c-0.3,0.1-0.7,0-0.9-0.2
	C308.3,40.6,309.1,39.8,309.4,39.5z"/>
<path class="st0" d="M265.8,157.3l0.1-0.1c0.1-0.1,0.1-0.1,0.2-0.1c0.1-0.1,0.3-0.1,0.4-0.1c0.1,0,0.3,0.1,0.5,0.2
	c0.2,0.1,0.3,0.1,0.5,0.2c0.3,0.1,0.7,0.2,1,0.3l0.2,0l0.2,0l0.2,0l0.4,0.1l0.2,0c0.5,0.1,1,0.2,1.5,0.3c2.1,0.5,4.6,0.9,6.8,1
	c0.9,0.1,2,0.1,2.9,0c0.1,0,0.5,0,0.6,0c0.1,0,0.1,0,0.5,0c0.1,0,0.1,0,0.2,0.1c0.1,0.1,0.5,0,0.6-0.1c0.1,0,0.9-0.1,1.3-0.2
	c0.2,0,0.7-0.1,1.1-0.2c0.4-0.1,0.9-0.2,1.1-0.2c0.4-0.1,0.7-0.1,1.1-0.2l0.2,0l0.2,0l0.2,0c0.1,0,0.3-0.1,0.3-0.1
	c2.9-0.1,5.3-1.2,7.5-2.1c0.5-0.2,1.1-0.5,1.5-0.6c0.5-0.2,1.1-0.4,1.6-0.6c0.2-0.1,0.5-0.2,0.7-0.3l0.2-0.1l0.2-0.1l0.2-0.1
	c0.1,0,0.3-0.1,0.3-0.1c0.1-0.1,0.1-0.1,0.3-0.1c0.2,0,0.3-0.1,0.5-0.2c0,0,0.6-0.3,0.8-0.3c0.5-0.2,0.8-0.5,1.2-0.8
	c0.3-0.2,0.8-0.5,1.2-0.8c0.4-0.2,1.5-1.2,2.3-1.8c0.2-0.1,0.4-0.3,0.5-0.4c0,0,0.4-0.3,0.6-0.4c0.2-0.1,0.4-0.3,0.6-0.4
	c0.3-0.1,0.5-0.3,0.7-0.5c0.1-0.2,0.3-0.4,0.5-0.5c0.2-0.1,0.6-0.4,0.6-0.4c0,0,0.3-0.3,0.4-0.5c0.1-0.2,0.4-0.5,0.5-0.6
	c0.7-0.6,1.4-1.2,2-1.9l0.5-0.5c0.2-0.2,0.5-0.5,0.6-0.6c0,0,0.3-0.4,0.4-0.6c0.1-0.2,0.3-0.4,0.5-0.6c0.3-0.2,1.1-1.4,1.7-2.2
	c0.3-0.4,0.5-0.8,0.7-1.2c0.1-0.2,0.3-0.5,0.4-0.7c0.1-0.3,0.3-0.5,0.5-0.7c0.5-0.6,2.8-5.3,2.5-5.9c0,0-0.2-0.7-0.3-1
	c-0.1-0.3-0.2-1-0.3-1.1c0,0-0.3,0.6-0.4,0.7c-0.1,0.3-0.3,0.5-0.5,0.7c-0.1,0.2-0.2,0.4-0.3,0.6c-0.1,0.3-0.2,0.6-0.4,0.8
	c-0.2,0.4-1.4,1.2-2.3,1.9c-0.9,0.7-1.9,1-3.3,1.2c-1,0.2-2.5-0.6-3.6-1.2c-0.4-0.2-0.9-0.6-1.4-1l-0.2-0.2l-0.2-0.2l-0.1-0.1
	c-0.1-0.1-0.2-0.2-0.3-0.3l-0.2-0.2l-0.2-0.2c-0.2-0.2-1.6-2-1.7-2.4c-0.1-0.4-0.1-0.7-0.1-1.3l-0.4,0l-0.1-0.1l-0.2-0.2
	c-0.2-0.3-0.2-1-0.2-1.5c0-0.1,0.2-1.2,0.3-1.7c0.3-1.3,0.5-2.9,0.6-4.3c0.1-0.9,0.4-1.8,0.8-2.7c0,0,0.2-0.4,0.2-0.6
	c0.1-0.2,0.2-0.5,0.3-0.6l0.1-0.2l0.1-0.2l0.2-0.5l0.1-0.1c0.1-0.1,0.2-0.3,0.2-0.4c0.2-0.6,0.8-1.4,1.2-2c0.1-0.1,0.1-0.1,0.2-0.2
	c0-0.1,0-0.1,0.2-0.3l0.1-0.1c0.1-0.2,0.1-0.2,0.1-0.2c0,0,0.2-0.3,0.3-0.5c0.1-0.2,0.2-0.4,0.4-0.6c0.1-0.2,0.2-0.3,0.4-0.4
	c0.1-0.1,0.2-0.3,0.3-0.4c0-0.1,0.2-0.3,0.3-0.4c0.1-0.2,0.1-0.2,0.1-0.2c0,0,0.1-0.2,0.2-0.3c0.7-0.9,1.8-1.2,3.3-0.7
	c1,0.3,1.9,1.1,2.7,1.7c0.9,0.8,1.9,2.1,2.5,3.2c1.4,2.6,3.2,5.9,3.7,8.7c0.4,1.8,0.6,4.3,0.6,6.2c0,0.4-0.1,0.8-0.2,1.1
	c0,0.1-0.1,0.3-0.1,0.4l-0.1,0.2c0,0-0.1,0.3-0.1,0.3l0,0.8v0.2c0,0.2-0.1,0.7-0.1,0.8c-0.1,0.4-0.1,0.7-0.2,1
	c-0.1,0.2-0.2,0.7-0.3,1.1c-0.1,0.2-0.2,0.8-0.4,1.1c-0.1,0.3-0.4,1.1-0.4,1.1c-0.1,0.4-0.3,1.2-0.4,1.3c-0.7,1.7-1.3,3.4-2,4.9
	c-0.3,0.6-0.6,1.5-0.8,2.3c-0.1,0.2-0.7,1.2-1.3,2c-0.1,0.2-0.2,0.3-0.3,0.5c0,0-0.2,0.3-0.3,0.5c-0.1,0.2-0.1,0.2-0.2,0.3
	c-0.1,0.2-0.1,0.2-0.2,0.3c-0.1,0.2-0.2,0.4-0.4,0.6c-0.2,0.3-0.5,0.7-0.6,1c-0.2,0.4-0.4,0.8-0.7,1c-0.2,0.1-1.8,1.8-2.7,2.6
	c-0.1,0.1-0.4,0.5-0.5,0.8c-0.2,0.3-0.4,0.5-0.7,0.7c-0.4,0.2-0.8,0.5-0.8,0.6c-0.2,0.2-0.5,0.6-0.6,0.7c-0.1,0.1-0.2,0.1-0.4,0.2
	c-0.2,0.1-0.4,0.2-0.6,0.3c-0.2,0.1-0.5,0.4-0.7,0.6c-0.2,0.2-1,0.8-1.4,1.1c-0.2,0.2-0.5,0.4-0.7,0.6c-0.2,0.2-0.5,0.5-0.7,0.6
	c-0.5,0.4-1,0.8-1.6,1.1l-0.2,0.1l-0.2,0l-0.5,0l-0.2,0c-0.3,0.1-0.9,0.2-1.1,0.3c-0.3,0.1-0.7,0.3-0.8,0.3c-0.4,0.1-0.7,0.1-1,0.2
	c-0.2,0.1-0.3,0.1-0.5,0.2c-0.1,0-0.3,0.1-0.4,0.1c-0.1,0-0.3,0.1-0.4,0.1c-0.3,0-0.5,0.1-0.6,0.2c-0.5,0.3-1.4,0.8-1.6,0.8
	c-0.6,0.1-1.3,0.2-2,0.3l-0.8,0l-1.1,0l-0.2,0h-0.4c-0.6,0-0.6,0-0.9,0c-1.1,0.1-3.6-0.1-5.5-0.3c-1.1-0.1-3.4-0.4-5.1-0.6l-0.3,0
	c-0.2,0-0.5-0.1-0.6-0.1c-0.7,0-1.2-0.1-1.5-0.1c-0.5-0.1-0.9-0.2-1.5-0.3c-0.9-0.1-2.2-0.3-3.1-0.5c-0.2-0.1-0.4-0.1-0.6-0.2
	l-0.3-0.1l-0.8-0.1l-0.2,0l-0.2-0.1l-0.1-0.1l-0.2-0.1c-0.6-0.1-0.9-0.1-1.1-0.2c-0.7-0.3-1.6-0.7-2.3-0.9c-0.6-0.2-2-0.7-2.1-0.9
	C264.8,158.8,265.5,157.8,265.8,157.3z"/>
<path class="st0" d="M301.2,89.1l0.1-0.2l0.1-0.3l0.1-0.2l0.1-0.2l0.1-0.2l0.1-0.2l0.1-0.2c0-0.1,0-0.1,0.1-0.2l0.1-0.2l0.1-0.1
	l0.1-0.2l0.1-0.2l0.1-0.2l0.1-0.2c0.1-0.2,0.7-1.3,1.1-2c0.4-0.7,0.8-1.5,1.1-2c0.2-0.3,0.4-0.6,0.6-0.9l0.2-0.2
	c0.1-0.1,0.1-0.1,0.4-0.5l0.1-0.1c0.3-0.5,1.8-1.3,2.4-1.5c0.7-0.3,1.3-0.5,2.2-0.6c2.8-0.2,5,3.1,5.9,5c0.7,1.5,1.8,3.9,1.4,5.7
	c-0.4,1.6-0.8,3.2-1.5,4.5c-0.5,0.9-1.5,1.7-2.4,2.2c-0.1,0.1-1,0.6-1.6,1c0,0-0.5,0.3-0.7,0.5l-0.5,0.3c-0.1,0-0.2,0.1-0.3,0.1
	c-0.3,0.2-2,0.9-2.4,0.9c-0.9,0.1-1.9,0.1-2.9,0c-0.5,0-1.9-0.7-2.3-1l-0.1-0.1c-0.1-0.1-0.1-0.1-0.2-0.2l-0.2-0.1
	c-0.2-0.2-0.5-0.4-0.6-0.7c-0.3-0.5-0.3-1.4-0.3-2.2c0-0.2,0.1-0.5,0.1-0.6c0-0.1,0.1-0.5,0.1-0.5c0.1-0.3,0.2-1.7,0.2-1.9
	c0,0-0.3,0.2-0.3,0.3c0,0-0.3-0.4-0.3-0.5c-0.1-0.1-0.1-0.1-0.2-0.2l-0.1-0.2C300.9,91.1,301.1,89.4,301.2,89.1z"/>
<path class="st0" d="M328.1,68.3c0.2-0.3,1-0.8,1.3-0.3c0.4,0.6,0.4,3,0.4,4.4c0,1.5,0.2,3.1,0.4,4.6c0.1,0.4,0.2,1,0.2,1.3l0.1,0.2
	l0.1,0.3c0,0.2,0.1,0.3,0.1,0.5c0.2,1,0.4,2,0.5,2.9c0.2,2.4,0.5,4.9,1,7c0.1,0.3,0.2,0.7,0.2,1.1l0,0.3l0,0.5l0,0.5l0,0.3
	c0,0.2,0,0.2,0.1,0.5c0.1,0.8,0.3,1.7,0.5,2.4c0.4,1.3,0.8,3,1,4.5c0.1,0.9,0.3,2.2,0.5,2.8c0.2,0.5,0.2,1.2,0.3,1.9
	c0.1,0.7,0.1,1.3,0.2,1.9c0.2,1.3,0.3,2.8,0.5,4.2c0.1,0.9,0.2,1.7,0.5,2.4c0.3,0.9,0.4,2,0.5,3.1c0,0.3,0.1,0.6,0.1,0.9
	c0,0.3,0.1,0.5,0.1,0.8c0.1,0.6,0.2,1.5,0.2,2l0.1,0.6l0,0.2l0,0.3c0,0.3,0,0.5,0,0.7c0,0.6,0,0.6,0.1,1.8l0,1.1l0,0.8l0,0.3l0,0.8
	c0,0.8,0.1,2.4,0,2.6c-0.3,1.1-0.3,3.9-0.3,5.5c0,2,0,4.6-0.3,5.4c-0.1,0.2-0.1,0.2-0.2,0.3c-0.1,0.1-0.2,0.4-0.2,0.5l0,0.2v0.2
	l0,0.2c0,0.1-0.1,0.3-0.2,0.4c-0.1,0.2-0.3,0.4-0.4,0.6c-0.1,0.1-0.2,0.4-0.2,0.4c-0.1,0.1-0.6,0.1-0.5,0c0,0-0.2-0.6-0.2-0.7
	c-0.1-0.3-0.1-0.5-0.2-0.8c-0.1-0.8-0.4-2.5-0.4-2.8l0-0.5c0-0.5-0.1-0.9-0.1-1.3l0-2.3l0-0.2l0-0.3l0-0.6l0-0.6l0-0.6l0-0.6l0-1.3
	l0-0.4c-0.1-1.6-0.2-3.3-0.5-4.8c-0.1-0.9-0.4-2.9-0.5-3c-0.1-0.4-0.3-1.8-0.5-2.9c-0.4-2.4-0.8-4.8-1-7.2c-0.2-2.1-0.6-4.5-1-6.6
	c-0.7-3.5-1.4-6.9-2-10.7c-0.1-0.4-0.2-1.1-0.2-1.3c0-0.1-0.1-0.3-0.1-0.4l0-0.6c0-0.4,0-0.4,0-0.5c-0.1-0.7-0.2-1.4-0.2-2.1
	c-0.1-0.6-0.1-1.3-0.3-1.9c-0.4-2-0.8-4.1-1-6.4l0-1.7v-0.2c0-0.3,0-0.3,0-1.1c0-0.4,0-0.4,0-0.7c0.1-0.5,0.1-0.9,0.1-1.6
	c0-0.2,0.3-1.3,0.4-1.8l0-0.2l0.1-0.2c0-0.1,0.1-0.3,0.1-0.4c0.1-0.4,0.2-0.7,0.2-1.1c0-0.4,0.1-0.8,0.2-1.2l0.1-0.6
	c0-0.2,0-0.2,0.1-0.5C327.9,69,328,68.4,328.1,68.3z"/>
<path class="st1" d="M326.8,22.3c0,0,0.1-0.1,0.2-0.2c0.1-0.1,0.2-0.2,0.3-0.3c0.2-0.2,0.5-0.2,0.9-0.3c0,0,0-1,0.1-1.5l0-0.5
	c0-0.6-0.1-1.1-0.2-1.5c-0.2-0.5-0.4-0.9-0.7-1.4c-0.4-0.6-1.1-1.6-2.1-1.2c0,0-0.2,0.2-0.3,0.3c-0.1,0.1-0.2,0.2-0.3,0.2
	c-0.1,0.1-0.2,0.2-0.3,0.3c-0.1,0.1-0.2,0.2-0.3,0.3c-0.2,0.2-0.5,0.4-0.6,0.6c-0.1,0.1-0.5,0.6-0.7,0.6c0,0-0.9,1.5-0.3,1.9
	c0.2,0.2,0.4,0.3,0.6,0.5c0.2,0.2,0.5,0.5,0.7,0.6C324.2,21.1,326.3,22.6,326.8,22.3z"/>
<path class="st0" d="M318,50.3c0.1-0.4,0.8-1.2,1.3-1.8c0.8-1,7.1-5.5,8.2-5.7c0.5-0.1,1.2,0.2,1.5,0.4c0.2,0.1,0.7,0.5,1.1,0.8
	l0.2,0.2c0.1,0.1,0.2,0.1,0.2,0.2c0.1,0.2,0.1,0.2,0.2,0.2c0.3,0.2,1.4,2,1.5,2.4c0.3,1.2-0.7,2.9-1.1,3.6c-0.2,0.3-0.7,0.6-1.1,0.7
	c-0.3,0.1-0.5-0.4-0.7-0.8c0-0.1-0.1-0.2-0.2-0.3C329,50,329,50,329,50l0-0.2l0-0.2l-0.2,0c0,0-0.1-0.1-0.2-0.2
	c-0.1-0.2-0.2-0.3-0.3-0.6c-0.1-0.2-0.2-0.4-0.4-0.6c-0.3-0.2-0.7-0.5-1.1-0.7c-0.4-0.1-1,0.2-1.3,0.4c-0.9,0.5-1.6,1.1-2.4,1.7
	c-0.3,0.2-0.9,0.6-1.3,0.8c-0.5,0.3-0.9,0.6-1.3,1c-0.2,0.2,1.4,1.5,1.5,1.6c0.6,0.5,1.4,1,2.1,1.4c2.1,1.1,5,1.3,7.8,1.2
	c0.2,0,1-0.3,1.4-0.4c0.3-0.1,1-0.3,1.4-0.4c1-0.3,3.5-1,4,0c0.4,0.8-0.6,2.7-0.9,3.2c-0.2,0.3-0.7,0.6-1.1,0.8l-0.2,0l-0.8,0
	l-0.2,0c-0.1,0-0.3,0.1-0.5,0.1c0,0-0.8,0.2-1.1,0.3c-0.3,0.1-0.5,0.1-0.8,0.2c-0.1,0-0.3,0.1-0.4,0.1c-0.1,0-0.3,0.1-0.4,0.1
	l-0.2,0c-0.1,0-0.1,0-0.3,0.1c-0.1,0-0.3,0.1-0.4,0.1l-0.8,0.2l-2.2,0.7c-1.3,0.4-2.5,1-3.6,1.7c-1,0.6-2.7,1.7-3.3,1.8
	c-0.3,0.1-0.6,0.1-0.9-0.1c-0.4-0.3,0.3-3,0.5-3.4c0.1-0.3,0.6-0.9,0.9-1c0.1,0,0.1,0,0.4-0.1c0.3,0,0.4-0.1,0.6-0.2
	c0.2-0.1,0.6-0.3,0.5-0.4c0,0-0.5-0.2-0.6-0.2c-0.2,0-0.3-0.1-0.5-0.2c-0.3-0.1-0.8-0.3-1.2-0.6c-1.1-0.6-3.5-2.5-4.1-3.7
	C316.9,53.9,317.6,51.2,318,50.3z"/>
<path class="st1" d="M316.6,126.3c0.2-0.1,0.4-0.2,0.6-0.3l0.5-0.3c0.2-0.1,1-0.5,0.9-0.7c-0.4-1.4-3.1-5.4-4.1-6.2
	c-0.6-0.5-1.2-0.8-2-1.2c-0.4-0.2-0.9-0.2-1.3-0.1c-0.8,0.1-3.5,4.6-3.3,5.2c0.2,0.6,1.1,1.3,1.5,1.8c0.5,0.5,3,1.9,3.7,2.1
	c0.5,0.1,1.1,0.2,1.4,0.2l0.5-0.1c0.3,0,0.6-0.1,0.7-0.1C315.8,126.6,316.6,126.4,316.6,126.3z"/>
<path class="st1" d="M304.1,92.5c0.8,0.6,2.1,1,3.5,1.1c1.4,0,3.1-0.8,4.2-1.4c0.4-0.2,1.1-0.7,1.6-1c0.1,0,0.2-0.2,0.3-0.2
	c0.1-0.1,0.3-0.2,0.3-0.3c0.1-0.1,0.7-0.5,0.6-0.6l-0.1-0.2l-0.2-0.3l-0.1-0.1l-0.1-0.2c0-0.1-0.1-0.2-0.2-0.3c0,0,0,0-0.2-0.3
	l-0.1-0.1c0,0-0.2-0.3-0.3-0.5c-0.4-0.6-0.8-1.2-1.2-1.8c-0.1-0.2-0.5-0.5-0.7-0.8c0,0-0.3-0.2-0.4-0.3c0,0-0.1-0.1-0.3-0.2
	l-0.2-0.2c-0.7-0.7-2.4-0.3-3.2,0c-0.6,0.2-1.5,0.9-1.9,1.4c-0.7,0.9-1.3,1.8-1.9,2.8c-0.2,0.3-0.8,1.4-0.6,1.6
	c0.2,0.2,0.3,0.5,0.4,0.8C303.8,91.9,304,92.4,304.1,92.5z"/>
<path class="st0" d="M263.5,48.9c0.6-0.2,1.1-0.3,1.6-0.6l0.2-0.1l0.2-0.1l0.1-0.1c0.1-0.1,0.3-0.1,0.5-0.2c0.1-0.1,0.3-0.2,0.4-0.2
	c0.1-0.1,0.2-0.1,0.3-0.2c0.6-0.3,2.4-1.1,3.7-1.7c1.2-0.6,2.5-1.2,3.6-1.8c0.8-0.4,2.5-1.2,3.7-1.7l3.6-1.7l0.2-0.1l0.1-0.1
	l0.2-0.1l0.2-0.1l0.2-0.1c0.3-0.1,0.8-0.3,0.9-0.4c0.6-0.3,1.2-0.6,1.8-0.9c0.6-0.2,1.1-0.6,1.7-0.9c0.2-0.1,0.4-0.2,0.7-0.3
	c0.4-0.1,0.7-0.2,1-0.4c0.3-0.1,0.5-0.3,0.8-0.5c0.2-0.2,0.4-0.3,0.6-0.5c0.9-0.5,1.5,0.3,1.7,1c0.1,1-0.6,3.4-1.1,4
	c-0.2,0.3-0.8,0.5-1.4,0.8c-0.4,0.1-1.1,0.6-1.6,0.9c-0.1,0.1-1,0.5-1.6,0.8c-0.5,0.3-1.1,0.5-1.6,0.8c-0.8,0.5-2.2,1.1-3.5,1.6
	l-0.1,0.1l-0.2,0.1l-0.2,0.1l-0.5,0.2c-0.2,0.1-0.3,0.2-0.5,0.2c0,0-0.3,0.2-0.5,0.2c-0.2,0.1-0.3,0.1-0.4,0.2
	c-0.1,0.1-0.3,0.2-0.4,0.2c-0.4,0.1-0.7,0.3-1,0.4l-0.7,0.3l-0.2,0.1l-0.2,0.1l-0.2,0.1l-0.2,0.1c-0.2,0.1-0.5,0.2-0.7,0.3
	c-0.3,0.1-0.6,0.2-0.9,0.4c-0.3,0.1-0.6,0.3-0.9,0.5c-0.1,0-0.3,0.2-0.4,0.2c0,0-0.3,0.1-0.4,0.2c-0.6,0.3-1.2,0.6-1.9,0.9
	c-0.6,0.3-1.4,0.6-1.8,0.8c-0.4,0.2-1.1,0.5-1.7,0.8c-0.6,0.3-1.3,0.6-1.8,0.9c-0.5,0.3-1.2,0.7-1.7,0.8c-1.5,0.3-1-2-0.5-2.5
	c0.2-0.1,0.1-0.4,0.1-0.6c-0.1-0.4,0-0.9,0.1-1.2C263.2,49.6,263.4,49.1,263.5,48.9z"/>
<path class="st0" d="M258.4,89.1c0.1,0,0.3-0.1,0.4-0.1c0.3-0.2,0.3-0.2,0.4-0.1c0.3,0.1,0.8,0.7,1,1c0.3,0.5,0.7,1.9,1,2.7l0.1,0.2
	l0.1,0.2l0.1,0.2l0.1,0.2c0.1,0.2,0.3,0.8,0.3,0.9l0,0.2c0,0.2,0.1,0.3,0.2,0.6l0,0.2c0.1,0.3,0.1,0.3,0.1,0.4
	c0.2,0.7,0.7,1.8,1.2,2.6c0.5,0.9,0.9,1.9,1.2,3c0.3,1.1,1,4.5,1,4.8c0,0.1,0,1.2,0,1.7c0,0.7,0,1.9-0.1,2.7
	c-0.1,0.5-0.1,1.1-0.2,1.6c0,0.6-0.1,1.3-0.3,1.6c0,0-0.1,0.4-0.2,0.5c-0.1,0.2-0.2,0.5-0.3,0.7c-0.1,0.2-0.6,1.3-1,0.7
	c-0.3-0.4-0.5-0.7-0.6-1.2l0-0.6l0-0.3l0-0.6c0-0.2-0.1-0.9-0.1-1.4c0-0.2-0.1-1.3-0.1-1.9c0-0.4-0.1-1-0.2-1.3l-0.1-0.4
	c0-0.2-0.1-0.5-0.1-0.6l-0.1-0.3l0-0.2l-0.1-0.3l0-0.2c-0.2-0.7-0.4-1.3-0.6-1.9c-0.2-0.6-0.6-1.4-0.8-1.8c-0.1-0.2-0.5-1.2-0.7-1.7
	c-0.1-0.4-0.3-1.2-0.5-1.7c-0.1-0.5-0.4-1.2-0.7-1.7l-0.1-0.2l-0.1-0.3l-0.1-0.3l-0.1-0.1c-0.1-0.3-0.2-0.6-0.4-0.9l-0.1-0.2
	l-0.1-0.2l-0.1-0.2l-0.2-0.4c-0.1-0.2-0.4-0.7-0.4-0.8c-0.2-0.6,0-1.6,0.2-2c0.2-0.4,0.4-0.6,0.3-0.9
	C257.4,90.6,258.1,89.3,258.4,89.1z"/>
<path class="st0" d="M244.9,77.1c0.2,0,0.8,0.2,1.3,0.4c0.3,0.1,0.7,0.3,1.1,0.4c2.1,0.4,5,0.6,7.5,0.3c0.8-0.1,2.2-0.4,3.3-0.7
	c0.4-0.1,0.8-0.2,1.1-0.3c0.4-0.1,1.3-0.4,1.3-0.4c1.7-0.4,3.4-1.4,5-2.2c0.3-0.1,1.5-0.8,2.3-1.3c0.3-0.2,0.6-0.4,0.8-0.7
	c0.2-0.3,0.7-0.7,0.8-0.8c0.6-0.3,1.2,0.5,1.3,0.9c0.4,1.2-0.7,3.9-1.3,4.7c-0.4,0.6-6.3,3.8-7.2,4.1c-0.5,0.1-2.3,0.8-3.5,1.2
	c-1.6,0.6-3.6,1-5.6,1.1c-2,0.2-4.3,0-6.4-0.2c-0.6-0.1-1.1-0.1-1.6-0.3c-0.2-0.1-0.4-0.1-0.6-0.2c-0.3-0.1-0.5-0.2-0.6-0.1
	c-0.4,0.1-1.3,0.8-1.6,1.1c-0.5,0.6-0.9,1.2-1.2,2.1c-0.2,0.5-1.2,1.8-1.9,1.1c-0.8-0.8,0-3.6,0.4-4.3c0.4-0.8,0.9-1.5,1.4-2.3
	C241.6,80.1,244.7,77.1,244.9,77.1z"/>
<path class="st0" d="M228.8,154.7c0.5-0.8,1.2-1.8,1.9-2.4c1.1-0.9,2.8-2.2,3.5-2.8c1.3-1,2.6-1.9,4.2-2.5c0.2-0.1,0.3-0.1,0.5-0.1
	c0.1,0,0.4-0.1,0.5-0.1h0.8l0.2,0l0.2,0.1l0.1,0.1l0.2,0.2c0.1,0.1,0.4,0.3,0.4,0.3c0.2,0.2,0.2,0.2,0.3,0.4l0.1,0.1l0.3,0.4
	c0.2,0.2,0.2,0.2,0.4,0.4c0.2,0.2,0.2,0.2,0.2,0.2c0.1,0.1,0.2,0.2,0.3,0.3c0.2,0.3,0.6,0.7,0.7,1c0.2,0.5-0.8,3.3-1.1,3.5l-0.2,0.2
	c-0.1,0.1-0.3,0.2-0.4,0.3c-0.3,0.2-0.8,0.5-1.2,0.2c-0.2-0.1-0.5-0.7-0.7-1c-0.1-0.2-0.2-0.4-0.3-0.6c-0.1-0.2-0.3-0.4-0.4-0.6
	c-0.9-0.8-1.7-0.8-2.9-0.2c-0.8,0.3-1.5,0.7-2.1,1.2c-0.5,0.5-1.3,1.2-1.8,1.5c-0.2,0.1-0.3,0.2-0.5,0.3c-0.2,0.1-0.3,0.3-0.5,0.3
	c-0.4,0.2,0.2,0.7,0.4,0.9c0.1,0.1,0.1,0.1,0.2,0.2c0.1,0.1,0.1,0.1,0.2,0.2l0.2,0.2c0.1,0.1,0.5,0.4,1,0.7l0.1,0.1
	c0.2,0.1,0.2,0.1,0.2,0.1c0.8,0.4,1.7,1,2.3,1.3c1.7,0.8,3.2,0.8,5.8,0.5c1.2-0.1,2.5-0.5,3.6-0.8c1.2-0.4,2.6-0.7,3.9-0.8
	c0.3,0,0.8,0.1,1,0.2c0.2,0.2,0.3,0.6,0.3,1c0,0.8-0.4,1.4-0.7,2c-0.3,0.5-0.6,0.9-1,1.2c-0.4,0.2-0.7,0.2-1.3,0.3
	c-0.5,0-1.2,0.2-1.7,0.3c-0.3,0.1-0.8,0.2-1,0.2c-0.3,0.1-0.7,0.2-1.1,0.3c-1.4,0.2-3.1,0.5-4.3,1.1c-0.7,0.4-1.6,0.6-2.4,0.8
	c-0.8,0.2-1.8,0.7-2.7,1.1c-0.4,0.2-0.9,0.4-1.3,0.6c0,0-0.5,0.2-0.7,0.3c-0.3,0.2-0.3,0.2-0.5,0.2l-0.1,0.1c-0.1,0-0.7,0.4-1,0.6
	c-0.3,0.2-1,0.3-1.3,0.1c-0.2-0.1-0.3-0.6-0.2-0.8c0,0,0.3-1.1,0.3-1.2c0.1-0.6,0.2-1.1,0.4-1.4c0.3-0.4,0.7-0.8,1.1-0.9
	c0.4-0.1,1.2-0.5,1.8-0.8c0.1-0.1-0.9-0.7-1-0.7c-0.2-0.1-0.5-0.3-0.7-0.4c-0.3-0.1-0.6-0.3-0.7-0.4c-0.6-0.4-1.3-1-1.9-1.6
	c-0.5-0.5-1.5-1.5-1.3-2.4C228.1,156.8,228.5,155.5,228.8,154.7z"/>
<path class="st0" d="M228,180l0-0.3l0-0.2c0-0.4,0-0.8,0.1-1.1c0-0.1,0.3-0.3,0.5-0.5c0.2-0.5,0.3-0.5,0.9-0.7
	c0.3-0.1,1.1-0.3,1.6-0.5c1.3-0.4,2.5-0.8,3.8-1.2l0.2,0l0.2,0l0.2,0c0.1,0,0.3-0.1,0.5-0.2l0.3-0.1l0.3-0.1l0.2-0.1l0.2-0.1
	c0.1,0,0.3-0.1,0.5-0.2l0.2-0.1c0.3-0.1,0.3-0.1,0.3-0.1l0.4-0.1l0.3-0.1l0.2,0c0.2-0.1,0.7-0.3,1-0.4l0.2-0.1l0.3-0.1
	c0.2-0.1,0.6-0.3,0.6-0.3c0.6-0.2,1.9-0.7,2.1-0.8l3.4-1.1c0.6-0.2,1.5-0.4,1.8-0.6c0.7-0.4,1.4-0.7,2.1-0.9
	c1.9-0.7,7.2-2.2,7.8-2.2c0.3,0,0.7,0.4,0.8,0.6c0.2,0.3,0.2,1,0,1.3c-0.3,0.5-0.5,1-0.7,1.5c-0.2,0.6-0.4,1.1-0.8,1.6
	c-0.2,0.3-2.8,1-3.6,1.2c-0.6,0.2-1.3,0.4-1.9,0.6c-0.3,0.1-0.5,0.2-0.8,0.2c-0.4,0.1-0.8,0.2-1,0.3c-1,0.3-2.4,0.9-3.5,1.4
	c-0.3,0.1-0.6,0.2-0.8,0.3l-0.2,0l-0.3,0.1c-0.2,0-0.2,0-0.3,0.1c-0.2,0-0.2,0-0.4,0.1l-1.8,0.5c-1.3,0.4-2.6,0.9-3.8,1.5
	c-0.5,0.2-1.1,0.5-1.7,0.6c-0.6,0.1-1.2,0.3-1.7,0.5c-1.1,0.4-2.7,0.9-3.5,1.2c-0.6,0.2-3.9,1.3-4.1,1.3c-0.7,0-0.6-1.1-0.5-1.7
	c0.1-0.3,0.1-0.4,0.3-0.6l0.3-0.2C227.9,180.1,228,180.1,228,180z"/>
<path class="st0" d="M186.5,115.2c0.4-0.1,0.8-0.1,1.1-0.2l0.5,0l0.8,0c0.3,0,0.6-0.1,0.8-0.1c0.2,0,0.2-0.1,0.3-0.1l0.3,0l1.1,0
	l0.3,0c0.4,0,0.6-0.1,1-0.2c2.2-0.6,4.5-1.4,6.1-2.6c0.5-0.4,1.1-0.9,1.5-1.4c0.2-0.3,0.5-0.6,0.6-0.9c0.1-0.2-0.1-0.4-0.3-0.5
	c-0.1-0.1-0.3-0.2-0.5-0.3c-0.8-0.4-1.9-0.6-2.9-0.7c-1.1-0.1-3-0.3-3.7-0.6c-0.6-0.3-2.1-0.9-2.3-1.1l-0.3-0.3
	c-0.1-0.1-0.4-0.4-0.4-0.4c-0.1-0.1-0.2-0.3-0.4-0.4l-0.2-0.2l-0.2-0.2c-0.3-0.4-0.4-1-0.5-1.6c-0.1-1,0.1-2,0.3-2.9
	c0.1-0.4,0.7-2.3,1.1-3.6c0.3-1.1,1-3.2,1.3-3.7c0.1-0.2,0.2-0.4,0.3-0.5l0.1-0.3c0.1-0.2,0.1-0.3,0.2-0.4c0.2-0.4,0.4-0.8,0.6-1.2
	c0.5-0.8,0.9-1.6,1.4-2.4c0.7-1.2,2.1-3.3,3.5-3.6c0.7-0.1,1.6,0.1,2.1,0.3c0.4,0.1,1.8,1.1,2,1.4c0.3,0.6,0.5,1.5,0.2,2.3
	c0,0-0.2,0.4-0.3,0.5l-0.2,0.2c0,0-0.2,0.3-0.2,0.4c-0.2,0.4-0.4,0.8-0.6,1.3c-0.2,0.5-1.1,2.4-1.4,2.6c-0.3,0.2-0.7,0.5-1.1,0.2
	c0,0-0.1-0.1-0.2-0.3c-0.1-0.1-0.3-0.3-0.4-0.4c-0.4-0.4-1.9-1.1-2.6-0.5c-1.1,0.9-1.7,2.3-2,3.8c-0.1,0.3-0.2,1.7,0,1.8l0.1,0.1
	l0.3,0.3l0.2,0.2c0.1,0.1,0.2,0.2,0.4,0.3c0.1,0.1,0.2,0.1,0.2,0.2c0.3,0.3,2,0.5,2.6,0.6c1.6,0.1,5.2,0.5,5.3,0.6
	c0.2,0.1,0.9,0.8,1.5,1.4c0.3,0.3,0.5,1.1,0.6,1.6c0,0.4,0,0.8,0,1.2c-0.1,0.4-0.2,0.9-0.2,0.9c0,0.8-0.2,1.3-0.4,1.9
	c-0.1,0.2-0.1,0.5-0.1,0.7c0,0.3-0.1,0.5-0.2,0.6c-0.2,0.4-0.4,0.8-0.7,1.2c-0.1,0.2-0.2,0.4-0.2,0.5l0,0.4l0,0.3
	c0,0.1-0.1,0.3-0.1,0.3c0,0.1-0.4,0.7-0.6,1.1c-0.2,0.4-0.4,0.7-0.5,1.3c-0.1,0.2-0.1,0.4-0.2,0.7l-0.1,0.2l-0.1,0.2l-0.1,0.1
	c-0.1,0.2-0.2,0.2-0.2,0.3c-0.3,0.8-2.2,2.5-3,2.8c-0.2,0.1-0.4,0.1-0.5,0.2c-0.2,0.1-0.3,0.2-0.6,0.3c-0.2,0.1-0.6,0.1-0.8,0.2
	c-0.2,0-0.4,0.1-0.6,0.1c-0.9,0.3-1.9,0.6-2.9,0.6c-3-0.2-12.5-1.4-13.1-2.9c-0.1-0.3-0.1-0.7,0-1c0.2-0.5,0.5-0.8,0.9-1.2
	c0.1-0.1,2.1,0.2,2.8,0.3c0.2,0,0.4,0.1,0.6,0.1c0.2,0,0.7,0.1,0.7,0.1C184.6,115,186.2,115.3,186.5,115.2z"/>
<path class="st0" d="M174.5,69.8c0.3-0.6,0.6-1.2,0.7-1.2c0.1-0.1,0.2-0.1,0.4-0.1c0.1,0,0.4-0.2,0.6-0.3c0.4-0.2,1-0.4,1.3-0.5
	c0.7-0.3,1.9-0.8,2.1-1c1.5-0.8,3-1.5,4.6-2.2c0.7-0.3,1.4-0.6,2-1c0.4-0.2,1.5-0.8,2.3-1.1c1.1-0.5,3.1-1.4,4.6-2.1l0.5-0.2
	l0.2-0.1L194,60c0.1,0,0.3-0.1,0.3-0.1c0.1-0.1,0.3-0.1,0.4-0.2c0.1,0,0.1,0,0.3-0.1l0.2-0.1l0.2-0.1c0.4-0.2,0.7-0.3,1.1-0.5
	c0.4-0.2,0.8-0.4,1.3-0.6c0.1-0.1,0.3-0.2,0.5-0.2c0.2-0.1,0.4-0.2,0.5-0.2c0.2-0.1,0.4-0.2,0.6-0.3c0.2-0.1,0.4-0.2,0.6-0.3
	c0.3-0.1,0.6-0.3,1-0.5c0.2-0.1,0.4-0.2,0.6-0.3l0.2-0.1l0.2-0.1l0.2-0.1l0.2-0.1c0.3-0.1,0.8-0.3,1-0.4c0.4-0.2,0.9-0.3,1.3-0.5
	c0.1,0,0.2-0.1,0.4-0.2c0.1-0.1,0.3-0.2,0.5-0.2c0.6-0.3,1-0.2,1.4,0.2c0.7,0.7,0,3.8-0.6,4.6c-0.4,0.6-0.8,0.7-1.6,1
	c-0.2,0.1-0.6,0.3-0.9,0.4c-0.1,0.1-0.3,0.1-0.4,0.2c-0.2,0.1-0.4,0.2-0.6,0.2c-1.4,0.6-3.6,1.5-4.2,1.9l-0.2,0.1l-0.2,0.1l-0.3,0.1
	c-0.3,0.1-0.3,0.1-0.3,0.1l-0.1,0c-0.2,0.1-0.2,0.1-0.3,0.1c0,0-0.4,0.2-0.6,0.3c-0.1,0.1-0.3,0.2-0.4,0.2c-0.2,0.1-0.3,0.1-0.5,0.2
	l-0.5,0.2l-0.2,0.1l-0.2,0.1l-0.1,0.1l-0.1,0.1c-1.2,0.6-2.6,1.2-3.8,1.6c-1.4,0.5-2.8,1.2-4.1,1.8c-1.3,0.6-2.5,1.2-3.8,1.8
	c0,0-0.7,0.3-1,0.5l-0.2,0.1l-0.2,0.1l-0.2,0.1l-0.2,0.1l-0.2,0.1l-0.3,0.1c-0.3,0.1-0.6,0.3-0.9,0.4c-0.4,0.2-0.8,0.4-1.1,0.5
	c-0.7,0.3-1.5,0.7-2,0.9l-0.1,0.1l-0.2,0.1l-0.1,0.1c-0.2,0.1-0.4,0.2-0.6,0.3l-0.2,0.2l-0.1,0.1c-0.2,0.1-0.3,0.2-0.5,0.2
	c-1.1,0.3-1-1-0.9-1.9c0,0,0.1-0.2,0.3-0.5c0.1-0.2,0.3-0.6,0.3-0.6l0-0.2l0-0.1l0-0.2C174.5,70.7,174.5,70.3,174.5,69.8z"/>
<path class="st0" d="M165,110.1c0.5-0.8,1.1-1.7,1.6-2.2c0.5-0.6,1.8-1.9,2-2c0.1-0.1,0.5,0,0.5,0.1c0.4,1.8-0.6,3.4-1.4,4.7
	c-0.8,1.2-1.7,2.5-2.1,4c-0.1,0.3-0.3,0.8-0.3,0.9c0,0.4-0.1,0.8,0,1.2c0.1,0.5,0.1,0.9,0.1,1.6c0,0.8,0,2.1,0.1,2.6l0.1,0.2
	c0,0.1,0,0.1,0.1,0.3c0,0.1,0.1,0.5,0.1,0.5c0.1,0.8,0.3,1.7,0.5,2.2c0.1,0.2,0.2,0.2,0.3,0.4c0.1,0.1,0.2,0.2,0.2,0.3
	c0.1,0.2,0.2,0.6,0.3,1.1c0.1,0.4,1.6,2.6,1.9,2.9c0.2,0.2,0.5,0.5,0.6,0.6c0,0,0.4,0.4,0.6,0.6c0.1,0.1,0.2,0.2,0.3,0.3
	c0.1,0.1,0.2,0.3,0.2,0.3c0.1,0.1,0.2,0.2,0.3,0.2c0.1,0.1,0.3,0.2,0.3,0.2c1.5,1.5,4.5,2.4,6.9,3c1.9,0.5,4.6,0.8,6.9,1.2
	c0.9,0.1,2.4-0.2,3.4-0.4c0.4-0.1,1.1-0.2,1.6-0.2h0.2c0.4,0,0.4,0,0.7,0l1-0.1c1.7-0.2,4.4-0.5,5.4-0.8c1.7-0.5,5.8-1.8,6-1.9
	c0.8-0.5,1.9-1,2.7-1.3c0.8-0.3,2.1-0.8,2.6-1.3c0,0,0.4-0.2,0.6-0.3l0.2-0.2l0.2-0.1c0.1,0,0.2-0.1,0.3-0.2
	c0.2-0.1,0.3-0.3,0.5-0.4c0.1-0.1,0.4-0.2,0.7-0.4c0.8-0.4,1.7-1.1,2.3-1.6c0.2-0.2,0.4-0.4,0.5-0.6c0.1-0.2,0.4-0.4,0.6-0.5
	c0.4-0.3,0.8-0.7,1.1-1.1c0.1-0.2,0.4-0.4,0.6-0.6c0.2-0.2,0.4-0.3,0.5-0.6c0.1-0.1,0.3-0.4,0.5-0.6c0.2-0.2,0.5-0.5,0.7-0.9
	l0.2-0.2l0.3-0.5c0.2-0.3,0.4-0.7,0.6-1.1c0-0.1-0.2-1.4-0.3-1.8c-0.2-0.8-0.3-1.7-0.4-2.6c-0.1-0.7-0.2-1.8-0.3-2.7
	c-0.1-0.7-0.4-3.2-0.4-3.2c-0.2-1-0.5-4.5-0.7-6.9c-0.1-1.1-0.2-3-0.4-4.6l0-0.4l0-0.6l0-0.7c0-0.5-0.1-1.1-0.1-1.3
	c0-0.5-0.1-1-0.2-1.5c-0.2-0.7-0.3-1.6-0.4-2.4l0-0.5l0-0.5l0-0.3l0-0.3l0-0.2l0-0.4l0-0.1c0-0.2,0-0.5-0.1-0.8l-0.4-2.4
	c-0.1-0.3-0.2-1-0.2-1.1c-0.1-0.3-0.1-0.6-0.2-1c-0.2-1.2-0.4-2.3-0.7-3.5c-0.1-0.3-0.2-0.8-0.2-1.1l0-0.3l0-0.3
	c0-0.2-0.1-0.4-0.1-0.6c0-0.1,0-0.2-0.1-0.4l-0.1-0.2c-0.1-0.2-0.1-0.2-0.1-0.2c-0.1-0.3-0.2-0.6-0.2-0.9c0.1-0.5,2-6.6,2.1-6.8
	c0.8-0.9,1.3,0.3,1.4,1c0.1,0.3,0.4,1.3,0.7,2c0.3,0.8,0.5,1.6,0.6,2.5c0.1,0.5,0.1,0.8,0.2,1.3c0.2,0.8,0.3,1.7,0.3,2.7
	c0,0.8,0.1,1.5,0.2,2.2c0.1,0.5,0.2,1.1,0.3,1.5c0.1,0.7,0.2,1.6,0.3,2c0,0.2,0.2,0.8,0.2,0.8l0.1,0.3c0,0.1,0.1,0.3,0.1,0.4
	c0.1,0.6,0,1.7,0,2.4c0,0,0.2,2.9,0.2,3.6c0.2,2.1,0.4,3.9,0.6,5.9c0.2,1.4,0.3,2.9,0.6,4.3c0.1,0.7,0.2,1.6,0.1,2.3
	c0,0.4,0,0.7,0,1.1c0.1,0.3,0.1,0.8,0.2,1c0,0.1,0.2,1,0.3,1.5c0.1,0.6,0.3,1.5,0.3,1.8c0.1,1,0.3,1.8,0.5,2.7
	c0.1,0.5,0.2,1.1,0.3,1.8l0,0.2l0,0.7l0,0.4c0,0.3,0.2,1.3,0.2,1.3c0.1,0.5,0.2,1.1,0.3,1.6l0,0.2l0,0.3l0,0.2l0,0.2l0.1,0.5
	c0.1,0.4,0.1,0.4,0.1,0.5c0,0,0.1,0.3,0.1,0.4l0.1,0.2l0,0.2l0,0.2l0,0.2l0.2,0.8c0,0.1,0,0.1,0.1,0.5c0,0.2,0,0.3,0.1,0.5
	c0.1,0.6,0.6,2.3,0.7,2.4c0,0,0.1,0.3,0.2,0.4l0.1,0.2l0.1,0.2l0.1,0.2c0,0.1,0.1,0.2,0.1,0.3l0.1,0.2l0.1,0.2l0.1,0.2
	c0.2,0.5,0.7,1.5,1,1.8c0.1,0.1,0.1,0.1,0.2,0.3c0.1,0.1,0.1,0.1,0.2,0.3l0.2,0.2c0.1,0.1,0.3,0.4,0.3,0.4c0.4,0.3,1.1,1.1,1.2,1.3
	c0.6,0.9,3.9,2.3,5.2,2.6c2.7,0.7,6.9,0,9.1-1.1c1.6-0.8,3-2,4.4-3.2c0.1-0.1,0.3-0.3,0.5-0.5c0.1-0.1,0.2-0.2,0.3-0.3
	c0.3-0.2,0.5-0.4,0.5-0.5c0.1-0.2,0.4-0.4,0.5-0.5c0.7-0.5,1.8-1.1,2.7-1.4c0.4-0.1,1.3,0.1,1.5,0.3c0.5,0.4,1.3,1,2,1.3
	c3.5,1.3,7.4,2.8,11.2,3.4c0.6,0.1,2.5,0.1,3.6,0.1c1,0,2.7,0,3.3-0.1c2.4-0.4,5.3-1,6.9-1.7c1.2-0.5,3-1.3,3.6-1.7
	c0.4-0.3,0.9-0.8,1.1-1.2c0,0-0.1-0.7-0.1-0.9c0-0.2-0.1-0.4-0.1-0.6l0-0.2l0-0.5c0-0.3-0.1-0.7-0.2-1.1c0-0.2-0.1-0.8-0.2-1.1
	l0-0.3l0-0.3l0-0.2l0-0.4l0-0.3l0-0.3l0-0.3l0-0.2l0-0.2l0-0.2l0-0.3c0-0.1,0-0.3-0.1-0.4c0-0.1,0-0.1-0.1-0.5
	c0-0.2-0.1-0.4-0.1-0.6c-0.1-0.2-0.1-0.5-0.2-0.7c-0.1-0.6-0.2-1.3-0.3-1.9c-0.2-1.4-0.4-2.3-0.6-3.7c-0.6-4.4-1.4-8.1-2.3-12
	c-0.1-0.3-0.4-1.7-0.5-2.6c-0.2-0.8-0.5-2.4-0.6-2.7c-0.1-0.4-0.2-1-0.3-1.5c-0.1-0.5-0.3-1.9-0.3-1.9c-0.1-0.5-0.2-1.1-0.3-1.7
	c-0.1-0.7-0.3-1.9-0.3-2.1c-0.1-0.3-0.1-0.4-0.1-0.8c0,0-0.1-0.4-0.1-0.6c0,0,0,0-0.1-0.3l-0.1-0.3l-0.1-0.3l0-0.2l0-0.2
	c-0.1-0.4-0.2-0.8-0.3-1.3c-0.1-0.3-0.1-1-0.2-1.6c0-0.3-0.1-0.7-0.2-1c-0.2-1.2-0.5-2.5-0.6-3.5c-0.1-1.2-0.2-2.8-0.3-3.4l0-0.2
	l0-0.3l0-0.3c0-0.1-0.1-0.9-0.2-0.9c-0.2,0-2-2.9-2-3c-0.2-0.8-0.4-1.6-0.4-2.5c0-0.2,0.3-0.7,0.4-0.9c0.1-0.2,0.1-0.2,0.4-0.3
	c0.1-0.1,0.2-0.2,0.3-0.4c0.3-0.8,0.8-2.1,0.9-2.3c0.1-0.1,0.2-0.4,0.2-0.4c0.1-0.1,0.2-0.2,0.3-0.4c0.1-0.2,0.2-0.4,0.3-0.7
	c0-0.1,0-0.1,0.1-0.3c0.1-0.1,0.1-0.3,0.2-0.4c0.1-0.2,0.1-0.4,0.3-0.5c0.3-0.3,1.1-0.6,1.4-0.1c0.3,0.4,0.6,1.2,0.8,1.7
	c0.2,0.6,0.6,1.4,1.2,2.2c0.1,0.1,0.1,0.2,0.1,0.2c0.1,0.1,0.1,0.1,0.2,0.2c0.1,0.1,0.1,0.1,0.1,0.2l0.2,0.2l0.2,0.2
	c0.1,0.2,0.1,0.2,0.2,0.2c0,0,0.2,0.3,0.2,0.4c0,0,0.2,0.3,0.3,0.5c0.1,0.1,0.3,0.4,0.3,0.4c0.1,0.1,0.2,0.3,0.3,0.4
	c0.1,0.1,0.2,0.3,0.2,0.3l0.3,0.4c0.1,0.2,0.2,0.3,0.4,0.4l0.2,0.2c0.1,0.1,0.1,0.1,0.2,0.2c0.4,0.5,1.2,1.5,1.2,1.6
	c0.1,0.3-0.3,2-0.4,2.1c-0.7,0.6-1.3,1.2-1.8,1.9c-0.2,0.3-1.4,1.5-1.7,1.6c-0.1,0-0.3,0-0.4-0.1c-0.2-0.1-0.4-0.1-0.4-0.2
	c0,0,0.1,0.5,0.1,0.5c0.1,0.3,0.1,0.6,0.1,0.9c0,0.3,0.1,0.4,0.1,0.6c0,0.2,0.1,0.4,0.1,0.6c0,0.2,0.1,0.4,0.2,0.6
	c0.1,0.1,0.1,0.2,0.2,0.4c0.1,0.3,0.2,0.7,0.3,1c0.1,0.3,0.1,0.6,0.1,0.8l0,0.4c0,0.5,0,0.5,0.1,0.8c0,0.2,0.1,0.8,0.1,1.2
	c0,0,0.1,0.7,0.1,0.9c0.1,1.1,0.3,2.1,0.5,3c0,0.2,0.1,0.5,0.1,0.5l0,0.1c0,0.1,0.1,0.3,0.1,0.3c0.1,0.3,0.2,0.6,0.3,1
	c0.1,0.6,0.3,1.3,0.4,1.9c0.3,1.8,0.5,3.6,1,5.1c0.1,0.4,0.2,0.8,0.3,1.2c0.1,0.4,0.2,1.2,0.3,1.3c0.1,0.1,0.1,0.3,0.1,0.5l0,0.2
	l0.1,0.4l0.1,0.2c0,0.1,0.1,0.3,0.1,0.3l0,0.3c0,0.2,0,0.2,0,0.3c0,0,0.2,1.5,0.2,2.1c0.1,0.6,0.2,1.2,0.2,1.7c0.2,1,0.3,2,0.5,3
	c0.6,3.1,1.8,11.8,1.7,12.3c0,0.2-0.1,0.5-0.1,1c0,0.4,0,0.7,0,0.8c-0.1,0.8-0.2,2.2-0.2,3.4c-0.1,1.1-0.1,2.4-0.4,3.4
	c-0.2,0.7-0.8,3-1.1,3.4c0,0-0.2,0.3-0.2,0.3c-0.4,0.2-0.4,0.4-0.6,0.9c-0.2,0.7-0.4,1.1-0.7,1.5c-0.1,0.1-0.4,0.4-0.5,0.6
	c-0.1,0.1-0.3,0.3-0.3,0.3c-0.1,0.1-0.2,0.2-0.4,0.4c-0.2,0.2-0.4,0.4-0.5,0.6c-0.1,0.1-0.2,0.2-0.3,0.3l-0.2,0.2l-0.2,0.1l-0.2,0.1
	l-0.2,0.1l-0.2,0.1l-0.2,0.1l-0.2,0.1l-0.2,0.1c-0.3,0.2-0.7,0.3-0.9,0.5c-0.1,0.1-0.2,0.1-0.4,0.2c-0.2,0.1-0.4,0.2-0.6,0.3
	l-0.2,0.1l-0.1,0.1l-0.1,0.1c-0.1,0-0.2,0.1-0.3,0.1c-0.1,0-0.3,0.1-0.3,0.1l-0.2,0l-0.2,0l-0.2,0l-0.1,0c-0.1,0-0.1,0-0.3,0.1
	l-0.2,0c-0.2,0-0.2,0-0.3,0.1c-0.1,0-0.5,0.1-0.7,0.2c0,0-0.5,0.1-0.8,0.2c-0.8,0.2-2.6,0.7-2.9,0.8c-0.5,0.2-6.2,0.2-6.2,0.2
	s-1.2-0.2-1.4-0.2c-0.6,0-1.1-0.1-1.5-0.2c-0.3-0.1-0.3-0.1-0.4-0.1l-0.3,0c-0.2,0-0.5-0.1-0.6-0.1c-0.2,0-0.4-0.1-0.5-0.2
	c-0.2-0.1-0.3-0.1-0.6-0.2c-1.6-0.2-3.2-0.4-4.2-1.2c-0.3-0.3-0.7-0.5-1.1-0.7c-0.2-0.1-0.4-0.3-0.6-0.4c-0.2-0.2-0.4-0.4-0.6-0.5
	c-0.2-0.1-0.4-0.3-0.5-0.4c-0.2-0.2-0.4-0.4-0.6-0.5l-0.2-0.2l-0.1-0.1l-0.2-0.2c-0.3-0.3-0.6-0.5-0.6-0.5c-0.5,0-0.8,0-1.1-0.2
	c-0.3-0.2-0.4-0.3-0.8-0.1c-0.7,0.2-1.3,0.4-1.8,0.8c0,0-0.3,0.2-0.4,0.2c-0.1,0-0.2,0.1-0.3,0.2c-0.3,0.2-0.5,0.4-0.7,0.7
	c-0.3,0.4-0.7,0.9-1.2,1.2c-0.1,0.1-0.2,0.2-0.3,0.2c-0.1,0.1-0.3,0.2-0.4,0.2c0,0-0.2,0.2-0.4,0.3l-0.1,0.1l-0.2,0.2
	c-0.5,0.4-0.9,0.8-1.3,1.2c-0.3,0.4-2.7,1.8-3.3,1.9c-0.7,0.2-1.8,0.3-2.9,0.5c-0.3,0-0.6,0.2-0.8,0.2c-0.3,0.1-0.8,0.3-1,0.3
	c-0.3,0-0.3,0-0.4,0l-0.2,0c-0.2,0.1-0.2,0.1-0.5,0c-0.4,0-1.5-0.1-1.6-0.1l-0.2-0.1c-0.1-0.1-0.3-0.1-0.3-0.1
	c-0.9-0.1-1.8-0.2-2.4-0.6c-0.5-0.3-1.2-0.7-1.7-0.9c-0.3-0.1-0.5-0.2-0.8-0.4c-0.2-0.1-0.6-0.5-0.6-0.5c-1.3-0.7-3.4-3.4-4-4.8
	c-0.6-1.3-1.1-2.8-1.4-4.2c-0.2-0.8-0.4-1.7-0.6-2.6c-0.1-0.5-0.6-3.1-0.6-2.9c-0.3,0.9-0.7,1.6-1.2,2.3l-0.2,0.2l-0.2,0.2
	c-0.1,0.2-0.4,0.6-0.4,0.6c-0.1,0.1-0.2,0.3-0.3,0.4c-0.1,0.2-0.3,0.4-0.4,0.6c-0.2,0.2-0.5,0.6-0.8,0.9c-0.2,0.2-1.1,1.3-1.1,1.3
	c-0.1,0.1-0.1,0.1-0.3,0.2l-0.2,0.2c-0.1,0.1-0.4,0.5-0.7,0.8c-0.2,0.2-0.2,0.2-0.2,0.2c-0.3,0.3-0.6,0.5-0.9,0.7
	c-0.3,0.2-0.7,0.4-0.9,0.7c-0.5,0.4-1.2,1-1.8,1.5c-0.1,0.1-0.7,0.4-1.2,0.6c0,0-0.3,0.2-0.5,0.3c-0.2,0.1-0.4,0.3-0.6,0.4
	c-0.2,0.1-0.3,0.2-0.5,0.3c-0.1,0.1-0.5,0.3-0.7,0.4l-0.2,0.1l-0.2,0.1l-0.1,0.1c-0.2,0.1-0.2,0.1-0.3,0.1c-0.3,0.1-0.6,0.3-0.7,0.3
	c-0.6,0.5-3.7,1.6-5.2,2.1c-0.6,0.2-1.1,0.4-1.4,0.6c-0.1,0.1-0.3,0.2-0.5,0.2l-0.3,0l-0.4,0c-0.1,0-0.3,0.1-0.4,0.1
	c-1.2,0.4-2.9,0.7-4.3,0.7c-0.5,0-0.8,0-1.2,0.1c-0.3,0.1-1.1,0.2-1.1,0.2c-0.3,0-0.6,0.1-1,0.2c-0.2,0-0.2,0-0.4,0
	c-0.4,0-0.8,0-1.1,0c-1.1,0.1-2.6,0.2-3.2,0.4c-0.7,0.2-1.8,0.3-2.6,0.1l-1.9-0.3c-0.6-0.2-1.2-0.3-1.8-0.3
	c-1.3-0.2-2.6-0.4-3.7-0.8c-0.9-0.3-1.8-0.6-2.4-0.9c-0.7-0.4-1.6-0.7-2.3-1c-0.5-0.2-3.3-2.1-3.6-2.4c-0.2-0.3-0.7-0.9-1-1.4
	c-0.3-0.4-0.7-0.9-1-1.4c-0.1-0.1-0.6-1.1-1-1.6c-0.1-0.1-0.2-0.2-0.2-0.4c-0.1-0.2-0.3-0.5-0.4-0.6l-0.2-0.2l-0.2-0.4l0-0.3
	l-0.1-0.4l-0.1-0.2c-0.1-0.2-0.1-0.2-0.1-0.3c0-0.1-0.1-0.3-0.2-0.5l-0.2-0.5c-0.1-0.4-0.2-0.7-0.3-1c-0.1-0.2-0.1-0.4-0.2-0.7
	c0-0.2,0-0.2-0.1-0.3c0-0.2-0.1-0.3-0.1-0.4c0,0-0.3-5.1-0.2-5.4c0-0.1,0.1-0.4,0.2-0.6c0-0.1,0-0.1,0.1-0.4l0-0.2
	c0.1-0.4,0.2-0.8,0.4-1.2c0.1-0.2,0.2-0.6,0.2-0.6c0.1-0.9,0.1-1.4,0.2-1.7c0.1-0.4,0.4-1.1,0.6-1.6c0-0.1,0-0.1,0.1-0.3
	c0.1-0.1,0.1-0.1,0.1-0.3c0-0.3,0.1-0.5,0.2-0.8l0.1-0.2c0.1-0.2,0.1-0.2,0.1-0.3c0-0.1,0.1-0.2,0.1-0.3c0.1-0.1,0.2-0.4,0.2-0.5
	C164.1,112,164.4,110.9,165,110.1z"/>
</svg>
