<?xml version="1.0" encoding="utf-8"?>
<!-- Generator: Adobe Illustrator 23.0.3, SVG Export Plug-In . SVG Version: 6.00 Build 0)  -->
<svg version="1.1" id="Layer_1" xmlns="http://www.w3.org/2000/svg" xmlns:xlink="http://www.w3.org/1999/xlink" x="0px" y="0px"
	 viewBox="0 0 578.07 570.96" style="enable-background:new 0 0 578.07 570.96;" xml:space="preserve">
<style type="text/css">
	.st0{fill-rule:evenodd;clip-rule:evenodd;fill:#231F20;}
	.st1{fill-rule:evenodd;clip-rule:evenodd;fill:#FFFFFF;}
</style>
<path class="st0" d="M482.26,96.62c0.09-0.04,0.42-0.37,0.6-0.55c0.17-0.17,0.72-0.67,1.17-1.07c0.32-0.23,1.01-0.73,1.01-0.73
	c0.87-0.71,2.73-2.2,2.93-2.34c1.36-0.97,4.09-3.19,6.04-4.77c1.92-1.57,4.02-3.06,6.08-4.45c2.16-1.45,4.35-3.2,6.35-4.88
	c3.89-3.29,7.8-6.55,11.87-9.59c1.8-1.35,11.09-9.87,11.33-10.98l-0.43-0.32l-1.16-0.78l-0.62-0.49c-0.74-0.59-1.75-1.39-2.26-1.68
	c-0.75-0.45-3.13-2.42-4.81-3.8c-1.54-1.28-3.09-2.52-4.66-3.78c-1.19-0.94-2.96-3.92-3.35-5.65c-0.68-2.99-0.61-7.11,0.53-9.67
	c0.53-1.19,0.72-2.1,0.92-3.85c0.15-1.29,0.5-2.4,1.04-3.29c0.83-1.34,1.86-2.68,2.86-3.89c0.4-0.47,1.04-1.45,1.58-2.26
	c0.51-0.83,0.51-0.83,0.99-1.49l0.27-0.47c1.77-2.59,4-4.9,6.18-7.09c1.14-1.15,2.79-2.8,3.54-3.41c1.16-0.95,2.56-2.17,3.65-3.25
	c0.98-0.97,2.67-1.75,4.3-2.02c2.31-0.39,4.25,0.86,5.64,1.78c0.53,0.35,1.02,0.77,1.46,1.21c0.39,0.39,1.38,1.32,1.57,1.41
	c0.99,0.5,4.26,6.65,4.76,8.02c0.97,2.64,1.2,5.91,1.21,8.55c0.01,2.6-0.25,11.42-1.07,12.65l-0.24,0.99l-0.13,0.63l-0.12,0.62
	c-0.17,0.71-0.43,1.44-0.67,2.1c-0.66,1.78-1.49,4.02-1.97,5.22c-1.21,3.05-2.46,6.6-3.44,9.56c-0.85,2.58-10.94,17.29-12.59,18.39
	c-2.28,1.53-5.15,4.39-7.31,6.57c-0.05,0.05-0.91,0.61-1.57,1.05c-0.38,0.36-0.38,0.36-0.74,0.63c-0.31,0.23-0.87,0.65-0.99,0.75
	c0,0-0.69,0.53-0.99,0.75l-2.56,1.97l-0.41,0.27l-1.11,0.75c-2.8,2.1-5.87,4.1-8.87,5.96c-0.8,0.49-1.59,0.99-2.33,1.54
	c-0.71,0.51-1.44,0.99-2.18,1.45c-0.56,0.35-1.47,0.99-2.17,1.5c-0.76,0.55-1.52,0.99-2.41,1.44c0,0-3.38,0.68-4.46,0.88
	c-0.35,0.07-2.55,0.86-2.6,1.01c-0.05,0.15-7.85,5.01-8.29,5.11c-1.08,0.23-2.35,0.16-3.02-0.5
	C478.65,100.36,481.14,97.7,482.26,96.62z"/>
<path class="st0" d="M340.58,479.8l0.45-0.31c0.47-0.35,0.47-0.35,0.77-0.48c0.46-0.19,0.95-0.33,1.42-0.44
	c0.35-0.05,1.13,0.31,1.68,0.56c0.55,0.27,1,0.41,1.61,0.61c1.07,0.36,2.19,0.67,3.36,0.92l0.49,0.12l0.5,0.13l0.5,0.12l1.36,0.36
	l0.5,0.13c1.75,0.25,3.26,0.49,4.84,0.85c6.77,1.48,14.83,2.88,22.09,3.38c3,0.21,6.53,0.47,9.42-0.03
	c0.26-0.04,1.66-0.11,1.86-0.01c0.2,0.12,0.2,0.12,1.49,0.12c0.27,0,0.27,0,0.81,0.44c0.23,0.17,1.5-0.09,2.05-0.2
	c0.43-0.08,2.91-0.44,4.33-0.64c0.63-0.08,2.38-0.4,3.59-0.63c1.15-0.21,2.77-0.52,3.48-0.63c1.2-0.21,2.23-0.39,3.72-0.77
	l0.62-0.12l0.5-0.12l0.62-0.13c0.39-0.09,0.99-0.25,0.99-0.25c9.34-0.4,17.4-3.88,24.54-6.97c1.58-0.68,3.53-1.52,4.83-1.95
	c1.67-0.52,3.46-1.22,5.08-1.93c0.75-0.33,1.56-0.69,2.36-1l0.62-0.25l0.62-0.25l0.49-0.19c0.39-0.13,0.87-0.31,0.87-0.31
	c0.43-0.2,0.43-0.2,0.86-0.32c0.52-0.15,1.06-0.35,1.49-0.56c0,0,2.03-0.84,2.72-1.13c1.49-0.59,2.76-1.63,4.04-2.65
	c0.98-0.8,2.55-1.77,4.06-2.7c1.19-0.75,4.95-3.77,7.58-5.89c0.56-0.44,1.15-0.93,1.66-1.44c0.11-0.11,1.2-0.93,1.83-1.4
	c0.59-0.43,1.22-0.86,1.85-1.25c0.83-0.48,1.67-0.97,2.27-1.69c0.45-0.56,1.01-1.16,1.63-1.55c0.67-0.41,1.95-1.2,2.02-1.26
	c0,0,0.94-1.13,1.29-1.57c0.46-0.57,1.42-1.73,1.66-1.93c2.34-1.89,4.51-3.9,6.62-6.03l1.55-1.54c0.55-0.55,1.7-1.73,1.8-1.88
	c0,0,0.84-1.44,1.19-2.07c0.45-0.8,1.04-1.45,1.73-2c1-0.8,3.73-4.56,5.6-7.13c0.86-1.19,1.7-2.56,2.42-3.81
	c0.43-0.75,0.86-1.56,1.23-2.36c0.43-0.93,0.92-1.61,1.5-2.34c1.51-1.9,9.2-17.21,8.28-19.03c-0.02-0.04-0.62-2.22-0.87-3.21
	c-0.26-1.01-0.81-3.09-1.11-3.44c0,0-1.1,1.96-1.19,2.13c-0.45,0.85-0.95,1.62-1.52,2.34c-0.45,0.56-0.77,1.31-1.01,2.08
	c-0.33,1.05-0.66,1.83-1.17,2.66c-0.8,1.32-4.57,4.01-7.42,6.05c-3,2.14-6.31,3.16-10.78,4.06c-3.14,0.64-8.03-1.9-11.8-3.86
	c-1.44-0.76-3.04-2.04-4.4-3.25l-0.54-0.49l-0.62-0.51l-0.39-0.21c-0.33-0.27-0.69-0.59-1-0.88l-0.62-0.61l-0.63-0.75
	c-0.78-0.51-5.16-6.65-5.44-7.77c-0.3-1.15-0.31-2.25-0.33-4.34l-1.37-0.11l-0.47-0.28l-0.57-0.55c-0.64-0.83-0.58-3.2-0.53-4.89
	c0.01-0.39,0.74-3.94,1.1-5.58c0.95-4.37,1.64-9.52,1.93-14.08c0.18-2.82,1.4-5.99,2.51-8.88c0,0,0.49-1.32,0.74-1.98
	c0.27-0.72,0.55-1.48,0.86-2.1l0.25-0.49l0.25-0.63l0.74-1.49l0.25-0.44c0.27-0.47,0.57-1.01,0.74-1.43
	c0.8-2.04,2.58-4.58,3.95-6.53c0.33-0.47,0.33-0.47,0.53-0.73c0.15-0.19,0.15-0.19,0.7-1.01l0.27-0.4c0.42-0.57,0.42-0.57,0.47-0.65
	c0.09-0.13,0.59-1.12,0.86-1.68c0.35-0.71,0.79-1.43,1.23-2.05c0.37-0.51,0.75-0.99,1.14-1.46c0.31-0.37,0.8-0.97,0.97-1.2
	c0.15-0.23,0.76-0.96,1.13-1.41c0.43-0.52,0.43-0.52,0.47-0.59c0.07-0.11,0.48-0.63,0.79-1.01c2.25-2.84,5.91-3.84,10.74-2.25
	c3.27,1.08,6.25,3.46,8.68,5.51c3.04,2.57,6.06,6.77,8,10.36c4.62,8.61,10.36,19.27,12.19,28.24c1.22,6.01,2.09,13.89,1.8,20.09
	c-0.07,1.46-0.28,2.44-0.61,3.6c-0.12,0.41-0.27,0.86-0.43,1.24l-0.25,0.49c-0.07,0.15-0.41,0.84-0.43,1l-0.11,2.6v0.63
	c-0.06,0.81-0.17,2.13-0.24,2.61c-0.17,1.16-0.37,2.42-0.73,3.34c-0.31,0.77-0.7,2.33-0.98,3.48c-0.19,0.8-0.8,2.52-1.22,3.73
	c-0.35,0.99-1.23,3.6-1.23,3.6c-0.35,1.41-0.95,3.8-1.16,4.34c-2.17,5.63-4.26,10.91-6.52,16.02c-0.9,2.05-1.86,4.97-2.64,7.33
	c-0.22,0.69-2.38,3.94-4.12,6.59c-0.35,0.52-0.69,1.08-0.99,1.61c0,0-0.65,1.08-0.98,1.61c-0.33,0.55-0.33,0.55-0.49,0.88
	c-0.25,0.49-0.25,0.49-0.49,0.93c-0.39,0.68-0.81,1.34-1.23,1.98c-0.67,1.01-1.5,2.26-1.91,3.17c-0.57,1.23-1.3,2.56-2.38,3.25
	c-0.61,0.4-5.97,5.77-8.77,8.59c-0.35,0.35-1.21,1.62-1.76,2.46c-0.62,0.95-1.2,1.77-2.14,2.41c-1.14,0.76-2.5,1.67-2.7,1.92
	c-0.56,0.68-1.51,1.8-2.04,2.18c-0.33,0.25-0.77,0.48-1.15,0.64c-0.69,0.29-1.21,0.57-1.8,0.95c-0.79,0.48-1.67,1.19-2.31,1.84
	c-0.62,0.64-3.18,2.49-4.62,3.52c-0.8,0.59-1.66,1.19-2.31,1.84c-0.67,0.68-1.58,1.58-2.16,2.06c-1.68,1.36-3.34,2.61-5.36,3.64
	l-0.74,0.25l-0.75,0.12l-1.49,0.13l-0.75,0.12c-1.11,0.24-2.85,0.6-3.47,0.83c-0.84,0.32-2.34,0.87-2.72,0.95
	c-1.21,0.21-2.32,0.41-3.22,0.75c-0.55,0.2-1.02,0.37-1.61,0.51c-0.37,0.08-0.83,0.23-1.24,0.37c-0.4,0.13-1.03,0.35-1.24,0.37
	c-1.03,0.16-1.55,0.25-2.11,0.57c-1.76,1.01-4.4,2.5-5.2,2.68c-2,0.44-4.07,0.81-6.45,0.89l-2.61,0.01l-3.53-0.12l-0.8,0.01h-1.25
	c-1.87-0.09-1.87-0.09-2.85,0.01c-3.57,0.36-11.66-0.37-17.74-0.93c-3.48-0.32-11.06-1.24-16.75-1.93l-0.99-0.12
	c-0.58-0.07-1.76-0.23-1.98-0.24c-2.34-0.12-4.04-0.21-4.96-0.47c-1.52-0.44-2.88-0.79-4.72-0.98c-3.08-0.33-7.16-0.91-10.18-1.57
	c-0.77-0.17-1.38-0.37-1.99-0.61l-0.86-0.32l-2.48-0.17l-0.5-0.12l-0.49-0.19l-0.37-0.19l-0.75-0.24c-1.8-0.17-2.95-0.29-3.48-0.55
	c-2.24-1.12-5.1-2.22-7.33-3.01c-1.94-0.69-6.5-2.3-6.98-3C337.28,484.78,339.53,481.4,340.58,479.8z"/>
<path class="st0" d="M455.5,258.11l0.25-0.49l0.25-0.86l0.25-0.51l0.25-0.49l0.25-0.49l0.25-0.51l0.25-0.49
	c0.15-0.31,0.15-0.31,0.31-0.74l0.19-0.49l0.19-0.37l0.19-0.51l0.24-0.61l0.25-0.51l0.25-0.61c0.27-0.61,2.29-4.2,3.58-6.46
	c1.2-2.12,2.73-4.82,3.58-6.41c0.53-1.01,1.29-2.08,1.97-3.04l0.52-0.73c0.36-0.44,0.36-0.44,1.21-1.58l0.27-0.41
	c0.91-1.47,5.84-4.21,7.65-5.02c2.18-0.98,4.38-1.74,7.31-1.95c9.08-0.64,16.35,10.02,19.28,16.25c2.27,4.82,6,12.75,4.59,18.46
	c-1.29,5.26-2.58,10.46-4.72,14.77c-1.51,3.04-4.96,5.37-7.73,7.22c-0.31,0.21-3.32,2.09-5.2,3.25c0,0-1.48,0.98-2.23,1.49
	l-1.67,1.07c-0.41,0.15-0.63,0.23-0.93,0.43c-1.12,0.79-6.52,2.77-7.81,2.96c-3,0.4-6.23,0.21-9.36-0.11
	c-1.76-0.16-6.31-2.16-7.63-3.25l-0.41-0.27c-0.44-0.37-0.44-0.37-0.63-0.51l-0.62-0.48c-0.73-0.67-1.56-1.44-2.02-2.33
	c-0.89-1.76-1.12-4.6-1.08-7.07c0.01-0.59,0.22-1.51,0.37-2.1c0.07-0.29,0.37-1.49,0.37-1.49c0.17-1.04,0.75-5.67,0.62-6.03
	c0,0-1.01,0.76-1.07,0.83c0,0-0.85-1.24-0.99-1.48c-0.2-0.33-0.2-0.33-0.55-0.71l-0.45-0.6C454.5,264.4,455.16,258.96,455.5,258.11z
	"/>
<path class="st0" d="M543.07,190.52c0.52-1.06,3.12-2.48,4.12-0.85c1.28,2.1,1.31,9.88,1.32,14.35c0.02,4.85,0.62,10.12,1.42,14.82
	c0.25,1.45,0.56,3.25,0.76,4.21l0.19,0.62l0.31,0.99c0.15,0.5,0.28,1.1,0.38,1.61c0.61,3.1,1.31,6.66,1.52,9.54
	c0.57,7.66,1.56,15.8,3.3,22.7c0.29,1.12,0.61,2.4,0.76,3.46l0.13,0.98l0.13,1.63l0.13,1.6l0.13,0.88c0.13,0.67,0.13,0.67,0.25,1.49
	c0.43,2.72,0.87,5.45,1.58,7.81c1.31,4.29,2.5,9.84,3.09,14.73c0.36,2.96,0.9,7.22,1.52,9.18c0.53,1.68,0.7,3.86,0.89,6.33
	c0.17,2.16,0.37,4.18,0.65,6.19c0.55,4.1,1.07,9.06,1.53,13.52c0.31,2.97,0.79,5.43,1.52,7.92c0.87,3.02,1.21,6.61,1.52,10.04
	c0.09,1,0.23,1.93,0.38,2.85c0.14,0.83,0.27,1.61,0.39,2.48c0.28,2.09,0.69,5.03,0.77,6.45l0.25,1.98l0.13,0.63l0.13,0.87
	c0.1,1.11,0.11,1.55,0.13,2.36c0.05,1.89,0.05,1.89,0.27,5.7l0.14,3.72l0.13,2.73l0.13,0.99l0.13,2.61
	c0.15,2.46,0.33,7.73,0.15,8.43c-0.91,3.68-0.95,12.56-0.93,17.74c0.03,6.41,0.05,14.98-0.99,17.61c-0.25,0.63-0.25,0.63-0.49,1.12
	c-0.22,0.43-0.59,1.19-0.68,1.49l-0.12,0.61v0.68l-0.13,0.56c-0.12,0.48-0.31,0.85-0.55,1.19c-0.45,0.64-0.9,1.25-1.23,1.93
	c-0.21,0.43-0.77,1.46-0.77,1.46c-0.31,0.37-1.82,0.27-1.65,0.03c0.05-0.05-0.54-2.07-0.62-2.36c-0.27-0.89-0.47-1.74-0.63-2.72
	c-0.47-2.76-1.35-8.28-1.4-9.06l-0.13-1.73c-0.13-1.67-0.23-2.9-0.27-4.22l-0.15-7.43l-0.01-0.75l-0.13-1.12l-0.13-2.1l-0.13-1.98
	l-0.13-1.86l-0.13-2.1l-0.13-4.21l-0.13-1.43c-0.35-5.08-0.81-10.72-1.55-15.69c-0.43-2.96-1.41-9.38-1.52-9.91
	c-0.24-1.2-1-5.98-1.53-9.3c-1.22-7.75-2.44-15.57-3.18-23.31c-0.66-6.98-1.79-14.53-3.18-21.33c-2.31-11.35-4.49-22.4-6.45-34.82
	c-0.21-1.31-0.57-3.54-0.75-4.09c-0.13-0.36-0.37-1.13-0.38-1.24l-0.01-1.99c0.04-1.26,0.04-1.26-0.01-1.61
	c-0.36-2.34-0.55-4.4-0.77-6.82c-0.17-2-0.47-4.21-0.89-6.07c-1.46-6.47-2.63-13.33-3.3-20.71l-0.02-5.39v-0.56
	c0-1.11,0-1.11-0.14-3.47c-0.07-1.3-0.07-1.3,0.12-2.36c0.27-1.54,0.31-2.97,0.35-5.21c0.01-0.61,0.89-4.13,1.35-5.83l0.12-0.62
	l0.25-0.75c0.14-0.43,0.27-0.91,0.37-1.37c0.29-1.27,0.52-2.3,0.61-3.48c0.11-1.33,0.3-2.72,0.49-3.84l0.24-1.86
	c0.1-0.75,0.1-0.75,0.24-1.49C542.46,192.76,542.84,190.8,543.07,190.52z"/>
<path class="st1" d="M538.93,40.87c0.16-0.11,0.37-0.43,0.52-0.66c0.28-0.41,0.54-0.81,0.84-1.08c0.68-0.6,1.61-0.81,2.88-0.85
	c0.04,0,0.13-3.22,0.17-4.96l-0.01-1.49c-0.09-1.86-0.17-3.57-0.63-4.96c-0.58-1.71-1.33-3-2.19-4.4c-1.22-1.97-3.52-5.14-6.71-3.88
	c0,0-0.68,0.53-1.1,0.87c-0.33,0.26-0.65,0.5-0.99,0.75c-0.25,0.18-0.66,0.59-0.97,0.89c-0.32,0.33-0.69,0.66-1.04,0.95
	c-0.66,0.55-1.59,1.34-1.95,1.84c-0.35,0.46-1.52,1.81-2.22,1.8c0,0-3.07,4.78-1.1,6.2c0.72,0.51,1.41,1.09,2.02,1.7
	c0.71,0.73,1.56,1.49,2.36,2.1C530.25,36.82,537.16,41.63,538.93,40.87z"/>
<path class="st0" d="M510.25,131.91c0.31-1.2,2.7-4.02,4.22-5.82c2.63-3.11,23.18-17.79,26.82-18.54c1.58-0.33,3.96,0.59,4.96,1.16
	c0.81,0.46,2.28,1.6,3.53,2.55l0.55,0.69c0.24,0.21,0.51,0.45,0.57,0.51c0.42,0.49,0.42,0.49,0.5,0.53c0.87,0.6,4.46,6.52,4.76,7.84
	c0.85,3.75-2.15,9.56-3.52,11.65c-0.59,0.89-2.27,2.1-3.56,2.33c-1.1,0.19-1.78-1.43-2.24-2.54c-0.16-0.39-0.28-0.68-0.52-0.97
	c-0.24-0.29-0.47-0.55-0.47-0.58l-0.09-0.62l-0.16-0.56l-0.62-0.12c-0.12-0.05-0.41-0.44-0.5-0.56c-0.4-0.55-0.67-1.07-0.93-1.79
	c-0.3-0.78-0.69-1.43-1.27-1.9c-0.99-0.79-2.34-1.75-3.64-2.12c-1.26-0.37-3.38,0.72-4.22,1.19c-2.82,1.6-5.31,3.63-7.77,5.63
	c-0.86,0.7-2.82,1.84-4.36,2.72c-1.56,0.89-3,2.02-4.14,3.26c-0.57,0.63,4.58,4.96,5.01,5.32c2.09,1.74,4.4,3.13,6.99,4.41
	c6.95,3.45,16.4,4.21,25.44,3.82c0.55-0.03,3.21-0.92,4.58-1.38c1.09-0.36,3.13-0.96,4.59-1.38c3.19-0.93,11.41-3.3,13.02,0.14
	c1.24,2.65-1.96,8.91-2.96,10.53c-0.6,0.97-2.23,2.07-3.44,2.46l-0.61,0.12l-2.6,0.13l-0.75,0.13c-0.44,0.11-1.03,0.25-1.49,0.38
	c0,0-2.51,0.62-3.59,0.88c-0.85,0.21-1.66,0.47-2.48,0.75c-0.37,0.13-0.91,0.27-1.37,0.38c-0.45,0.11-0.93,0.25-1.36,0.38l-0.5,0.12
	c-0.33,0.09-0.33,0.09-0.99,0.25c-0.45,0.12-0.83,0.24-1.25,0.38l-2.6,0.75l-7.31,2.14c-4.24,1.42-8.28,3.36-11.83,5.56
	c-3.22,2-8.93,5.43-10.58,5.81c-0.99,0.23-2.01,0.39-2.82-0.2c-1.39-1.03,0.91-9.6,1.55-10.9c0.44-0.88,1.97-2.81,2.84-3.18
	c0.17-0.07,0.17-0.07,1.24-0.25c0.92-0.15,1.44-0.35,2.1-0.69c0.55-0.28,1.85-0.93,1.69-1.29c-0.02-0.05-1.63-0.56-1.95-0.63
	c-0.5-0.12-1.07-0.31-1.61-0.49c-1.1-0.37-2.52-1.12-3.79-1.79c-3.7-1.95-11.5-8.29-13.25-11.98
	C506.63,143.51,508.79,134.73,510.25,131.91z"/>
<path class="st1" d="M505.71,379.11c0.69-0.31,1.32-0.63,1.92-1l1.49-1c0.63-0.35,3.17-1.7,3.03-2.25
	c-1.22-4.55-9.93-17.5-13.47-20.05c-2.11-1.5-4.04-2.65-6.65-3.82c-1.18-0.52-2.78-0.68-4.22-0.41c-2.68,0.48-11.3,15.01-10.6,16.85
	c0.71,1.86,3.42,4.38,5.04,5.81c1.77,1.56,9.61,6.31,11.99,6.85c1.7,0.37,3.54,0.77,4.46,0.6l1.74-0.25
	c0.91-0.12,2.11-0.29,2.23-0.32C503.02,380.03,505.66,379.2,505.71,379.11z"/>
<path class="st1" d="M465.07,269.14c2.59,2.08,6.94,3.33,11.31,3.46c4.69,0.16,10.24-2.56,13.51-4.45c1.27-0.72,3.58-2.16,5.32-3.24
	c0.22-0.15,0.69-0.52,1.03-0.79c0.39-0.32,0.89-0.72,1.07-0.83c0.36-0.24,2.29-1.49,2.04-1.88l-0.19-0.49l-0.5-0.99l-0.19-0.37
	l-0.19-0.51c-0.14-0.29-0.33-0.63-0.5-0.92c-0.07-0.11-0.07-0.11-0.67-0.89l-0.21-0.4c0,0-0.66-1.07-0.99-1.63
	c-1.23-1.97-2.49-3.99-3.77-5.78c-0.47-0.67-1.53-1.73-2.31-2.53c-0.08-0.07-0.88-0.77-1.25-1.11c0,0-0.26-0.21-0.93-0.76
	l-0.75-0.49c-2.16-2.36-7.77-1.1-10.38-0.04c-1.79,0.72-4.97,3.02-6.09,4.45c-2.23,2.88-4.17,5.89-6.15,9.11
	c-0.68,1.12-2.68,4.4-2.07,5.06c0.63,0.67,1.02,1.68,1.35,2.62C464.12,267.28,464.67,268.82,465.07,269.14z"/>
<path class="st0" d="M333.04,127.4c1.83-0.49,3.63-1.11,5.29-1.84l0.49-0.25l0.5-0.25l0.37-0.19c0.43-0.19,0.96-0.44,1.48-0.69
	c0.39-0.19,0.89-0.5,1.34-0.77c0.32-0.2,0.65-0.38,1.02-0.54c1.98-0.87,7.84-3.65,12.13-5.69c3.95-1.88,8.16-3.87,11.64-5.74
	c2.63-1.42,7.99-3.82,12.01-5.63l11.64-5.49l0.62-0.25l0.37-0.19l0.49-0.19l0.75-0.31l0.49-0.19c0.92-0.41,2.46-1.09,2.91-1.37
	c1.81-1.13,3.87-2.1,5.88-3c1.8-0.81,3.66-1.87,5.39-2.87c0.75-0.43,1.35-0.75,2.28-1.06c1.16-0.39,2.34-0.81,3.34-1.31
	c0.9-0.46,1.71-0.93,2.45-1.52c0.63-0.52,1.29-1.05,2.01-1.47c2.78-1.63,5.03,0.83,5.41,3.21c0.48,3.1-2.03,11.08-3.49,12.91
	c-0.81,1.02-2.55,1.69-4.46,2.44c-1.15,0.45-3.63,1.95-5.2,2.93c-0.46,0.29-3.21,1.56-5.08,2.44c-1.77,0.83-3.53,1.73-5.2,2.68
	c-2.68,1.54-7.26,3.49-11.39,5.25l-0.43,0.25l-0.56,0.25l-0.49,0.25l-1.49,0.75c-0.53,0.27-1.03,0.51-1.61,0.75
	c-0.11,0.05-1.1,0.5-1.61,0.75c-0.51,0.24-0.93,0.46-1.37,0.75c-0.41,0.27-0.89,0.55-1.36,0.75c-1.15,0.47-2.18,0.92-3.22,1.38
	l-2.35,0.99l-0.49,0.25l-0.75,0.43l-0.5,0.19l-0.74,0.44c-0.73,0.33-1.52,0.62-2.23,0.87c-0.93,0.33-1.94,0.79-2.84,1.19
	c-0.84,0.38-1.86,0.97-2.79,1.5c-0.19,0.11-0.99,0.49-1.42,0.69c0,0-0.87,0.44-1.37,0.68c-2.01,1.01-4.02,1.97-6.07,2.87
	c-2.01,0.89-4.5,1.99-5.81,2.75c-1.21,0.69-3.65,1.77-5.57,2.62c-2.02,0.89-4.37,1.93-6.01,2.87c-1.58,0.91-3.86,2.19-5.51,2.56
	c-4.9,1.1-3.23-6.61-1.47-8.2c0.51-0.46,0.42-1.3,0.26-2.03c-0.33-1.43,0.03-2.98,0.42-3.84
	C331.85,129.62,332.65,127.83,333.04,127.4z"/>
<path class="st0" d="M316.29,257.98c0.47-0.08,0.88-0.19,1.23-0.37c0.91-0.51,0.91-0.51,1.37-0.37c1.08,0.27,2.75,2.32,3.3,3.26
	c0.92,1.61,2.41,6.11,3.26,8.74l0.25,0.49l0.25,0.61l0.19,0.51l0.18,0.49c0.31,0.77,1,2.64,1.07,2.85l0.13,0.49
	c0.12,0.53,0.29,1.11,0.63,2.1l0.13,0.61c0.19,1.01,0.19,1.01,0.25,1.25c0.61,2.18,2.43,5.79,3.82,8.54
	c1.55,3.05,3.05,6.15,3.94,9.66c0.93,3.66,3.32,14.79,3.16,15.61c-0.06,0.32-0.11,3.84-0.11,5.46c0.01,2.29-0.09,6.15-0.47,8.7
	c-0.25,1.7-0.47,3.54-0.6,5.33c-0.14,1.83-0.34,4.39-0.85,5.09c0,0-0.47,1.21-0.67,1.73c-0.21,0.55-0.73,1.6-1.11,2.36
	c-0.3,0.61-2.03,4.12-3.31,2.34c-0.85-1.16-1.58-2.29-1.84-4.05l-0.01-1.86l-0.01-1l-0.01-2.1c-0.01-0.52-0.24-2.89-0.39-4.46
	c-0.07-0.75-0.28-4.13-0.39-6.07c-0.08-1.43-0.19-3.14-0.51-4.09l-0.25-1.37c-0.13-0.72-0.31-1.77-0.39-2.1l-0.25-0.87l-0.13-0.49
	l-0.25-0.87l-0.13-0.49c-0.53-2.37-1.25-4.18-2.06-6.21c-0.76-1.86-1.81-4.48-2.62-5.87c-0.41-0.71-1.6-3.8-2.26-5.5
	c-0.45-1.2-1.11-3.76-1.57-5.58c-0.41-1.58-1.35-3.78-2.13-5.58l-0.19-0.49l-0.43-0.86l-0.38-0.88l-0.19-0.48
	c-0.37-0.98-0.79-1.94-1.25-2.85l-0.25-0.49l-0.25-0.63l-0.25-0.49l-0.75-1.36c-0.43-0.81-1.25-2.42-1.31-2.6
	c-0.6-1.97,0.03-5.35,0.78-6.58c0.8-1.31,1.29-2.1,0.94-3.02C313.15,262.97,315.33,258.56,316.29,257.98z"/>
<path class="st0" d="M272.3,219.12c0.51-0.11,2.64,0.79,4.1,1.4c1.13,0.48,2.36,0.9,3.72,1.17c6.97,1.37,16.22,1.98,24.44,1.03
	c2.55-0.29,7.19-1.33,10.78-2.14c1.28-0.29,2.52-0.6,3.72-1.01c1.21-0.41,4.21-1.38,4.21-1.38c5.39-1.37,11.2-4.48,16.22-7.19
	c0.87-0.47,4.82-2.74,7.43-4.24c1.11-0.64,1.91-1.43,2.74-2.34c0.78-0.85,2.19-2.35,2.7-2.58c1.98-0.89,3.88,1.49,4.35,2.9
	c1.33,3.92-2.42,12.57-4.19,15.24c-1.37,2.07-20.35,12.42-23.36,13.32c-1.58,0.47-7.53,2.48-11.52,3.82
	c-5.34,1.8-11.68,3.22-18.1,3.73c-6.56,0.51-13.85-0.09-20.71-0.68c-2-0.17-3.56-0.47-5.09-0.97c-0.64-0.21-1.25-0.44-1.86-0.68
	c-0.95-0.36-1.52-0.59-2.11-0.43c-1.42,0.39-4.22,2.46-5.11,3.48c-1.76,2.01-2.82,3.77-3.84,6.67c-0.6,1.68-4.06,5.84-6.23,3.6
	c-2.6-2.68-0.11-11.57,1.17-14.13c1.3-2.62,3.01-5,4.69-7.33C261.59,228.79,271.64,219.06,272.3,219.12z"/>
<path class="st0" d="M220.23,471.45c1.67-2.72,3.78-5.73,6.21-7.69c3.62-2.92,9.07-7.29,11.3-8.98c4.24-3.18,8.4-6.31,13.77-8.13
	c0.51-0.17,1.06-0.28,1.61-0.37c0.2-0.04,1.44-0.25,1.61-0.27h2.6l0.5,0.12l0.5,0.19l0.43,0.24l0.78,0.52
	c0.28,0.2,1.19,0.92,1.19,0.92c0.57,0.65,0.57,0.65,1.04,1.2l0.39,0.23l1.12,1.24c0.63,0.75,0.63,0.75,1.19,1.29
	c0.53,0.67,0.53,0.67,0.55,0.69c0.32,0.31,0.62,0.61,0.91,0.96c0.81,1.01,1.85,2.33,2.24,3.09c0.79,1.57-2.46,10.66-3.46,11.27
	l-0.62,0.64c-0.47,0.36-0.97,0.69-1.46,1.01c-0.97,0.63-2.64,1.7-3.84,0.63c-0.53-0.47-1.58-2.21-2.12-3.14
	c-0.38-0.65-0.7-1.34-1-2.05c-0.31-0.72-0.82-1.36-1.35-1.88c-2.83-2.74-5.49-2.5-9.33-0.81c-2.44,1.08-4.94,2.32-6.79,4.02
	c-1.77,1.65-4.24,3.93-5.89,4.96c-0.53,0.33-1.05,0.67-1.51,1.04c-0.51,0.41-1.03,0.83-1.53,1.08c-1.35,0.68,0.77,2.37,1.42,2.89
	c0.23,0.19,0.23,0.19,0.59,0.57c0.19,0.21,0.33,0.33,0.55,0.51l0.71,0.58c0.32,0.27,1.7,1.24,3.14,2.25l0.41,0.27
	c0.52,0.43,0.52,0.43,0.59,0.47c2.48,1.43,5.69,3.28,7.64,4.2c5.49,2.58,10.39,2.69,18.74,1.73c4.04-0.47,8.13-1.47,11.77-2.52
	c4-1.16,8.32-2.14,12.77-2.65c0.94-0.12,2.51,0.19,3.14,0.63c0.75,0.52,0.96,2.01,0.9,3.14c-0.13,2.48-1.16,4.68-2.14,6.45
	c-0.83,1.48-1.83,3.06-3.34,3.86c-1.21,0.64-2.43,0.79-4.09,0.95c-1.63,0.15-3.94,0.52-5.57,0.88c-0.98,0.23-2.7,0.63-3.1,0.76
	c-1.07,0.36-2.3,0.68-3.47,0.88c-4.41,0.75-10.08,1.73-13.87,3.65c-2.28,1.15-5.17,2.02-7.68,2.76c-2.55,0.73-5.85,2.19-8.67,3.44
	c-1.43,0.63-2.77,1.25-4.09,1.88c0,0-1.5,0.67-2.22,1c-1.12,0.49-1.12,0.49-1.49,0.75l-0.37,0.19c-0.33,0.13-2.19,1.21-3.22,1.81
	c-1.07,0.63-3.24,1.08-4.32,0.48c-0.51-0.28-1.12-2.09-0.78-2.45c0,0,0.99-3.74,1.04-3.97c0.43-1.93,0.79-3.61,1.41-4.48
	c0.84-1.15,2.14-2.65,3.71-3.05c1.22-0.31,3.96-1.68,5.86-2.64c0.37-0.19-3.01-2.12-3.28-2.26c-0.73-0.41-1.64-0.95-2.23-1.22
	c-0.84-0.43-1.8-0.89-2.34-1.27c-2.02-1.37-4.27-3.4-6.02-5.14c-1.78-1.77-4.9-4.86-4.27-7.7
	C217.74,478.15,218.97,474.02,220.23,471.45z"/>
<path class="st0" d="M217.61,553.75l-0.13-1.12l-0.12-0.51c-0.08-1.38-0.01-2.72,0.42-3.72c0.07-0.17,0.93-1.09,1.55-1.75
	c0.59-1.62,1.08-1.74,3.03-2.17c1.05-0.25,3.56-1.08,5.2-1.64c4.12-1.39,8.29-2.76,12.26-4.01l0.5-0.13l0.49-0.12l0.5-0.13
	c0.39-0.11,0.87-0.24,1.61-0.49l1.12-0.37l0.87-0.25l0.5-0.19l0.62-0.19c0.47-0.16,1.12-0.39,1.49-0.51l0.74-0.25
	c0.87-0.25,0.87-0.25,0.87-0.25l1.24-0.37l1.11-0.37l0.49-0.13c0.76-0.24,2.15-0.84,3.1-1.25l0.5-0.19l0.87-0.37
	c0.65-0.28,1.98-0.88,1.98-0.88c2.1-0.81,6.07-2.34,6.81-2.56l11.15-3.52c2.03-0.59,4.77-1.39,6.01-2.07
	c2.13-1.15,4.46-2.13,6.87-2.94c6.34-2.13,23.4-7.21,25.28-7.15c1.1,0.04,2.12,1.26,2.55,2.04c0.52,0.93,0.49,3.25,0.01,4.22
	c-0.85,1.71-1.47,3.21-2.15,4.97c-0.73,1.88-1.43,3.69-2.48,5.18c-0.64,0.92-9.23,3.18-11.87,3.85c-2.01,0.52-4.1,1.23-6.07,1.89
	c-0.83,0.27-1.76,0.53-2.6,0.75c-1.17,0.29-2.49,0.63-3.35,0.88c-3.38,0.99-7.77,2.88-11.39,4.45c-0.85,0.37-1.81,0.77-2.73,1.07
	l-0.49,0.12l-0.99,0.25c-0.57,0.16-0.57,0.16-0.99,0.25c-0.77,0.15-0.77,0.15-1.24,0.32l-5.82,1.74c-4.3,1.45-8.4,3-12.39,4.75
	c-1.75,0.79-3.51,1.55-5.57,2.08c-1.83,0.47-3.82,1.04-5.57,1.62c-3.74,1.27-8.73,2.94-11.27,3.94c-1.87,0.73-12.78,4.09-13.39,4.08
	c-2.34-0.04-1.91-3.7-1.57-5.63c0.17-1,0.42-1.31,0.95-1.96l0.91-0.77C217.21,554.1,217.49,553.91,217.61,553.75z"/>
<path class="st0" d="M82.49,342.95c1.18-0.28,2.46-0.4,3.72-0.51l1.61-0.13l2.73-0.13c0.84-0.05,1.79-0.19,2.6-0.39
	c0.5-0.12,0.75-0.19,1.12-0.25l0.87-0.12l3.72-0.15l0.87-0.12c1.14-0.16,2.09-0.37,3.1-0.63c7.04-1.8,14.67-4.53,19.69-8.58
	c1.76-1.41,3.72-3,4.74-4.4c0.64-0.88,1.52-2.1,1.93-2.94c0.37-0.73-0.27-1.21-0.99-1.73c-0.27-0.19-1.03-0.57-1.62-0.85
	c-2.62-1.31-6.19-1.86-9.43-2.13c-3.68-0.33-9.64-0.88-12.17-1.89c-2.05-0.83-6.91-2.88-7.51-3.7l-1.03-0.88
	c-0.41-0.41-1.25-1.24-1.25-1.24c-0.41-0.44-0.81-0.91-1.15-1.4l-0.5-0.75l-0.5-0.8c-0.93-1.27-1.39-3.25-1.57-5.19
	c-0.3-3.2,0.31-6.62,0.83-9.56c0.22-1.23,2.17-7.57,3.43-11.67c1.09-3.52,3.26-10.28,4.24-12.04c0.29-0.53,0.73-1.31,0.92-1.74
	l0.37-0.87c0.21-0.57,0.37-1,0.55-1.36c0.65-1.33,1.38-2.66,2.09-3.92c1.53-2.72,3.08-5.27,4.69-7.9c2.32-3.8,6.9-10.88,11.37-11.63
	c2.16-0.37,5.19,0.4,6.95,0.91c1.39,0.4,5.94,3.52,6.59,4.55c1.11,1.8,1.57,5.04,0.65,7.45c0,0-0.76,1.29-0.99,1.67l-0.59,0.72
	c0,0-0.57,0.93-0.77,1.28c-0.71,1.2-1.26,2.66-1.84,4.16c-0.67,1.73-3.62,7.87-4.66,8.6c-1.02,0.72-2.37,1.68-3.74,0.73
	c-0.13-0.09-0.23-0.28-0.62-1c-0.18-0.31-0.83-0.84-1.21-1.15c-1.43-1.15-6.19-3.64-8.42-1.78c-3.46,2.85-5.42,7.39-6.65,12.41
	c-0.21,0.85-0.68,5.44-0.11,5.7l0.19,0.45l0.85,1.07l0.62,0.61c0.26,0.27,0.73,0.63,1.21,0.97c0.27,0.17,0.51,0.32,0.73,0.53
	c0.94,0.92,6.5,1.69,8.52,1.85c5.21,0.44,16.93,1.73,17.25,1.86c0.63,0.24,2.95,2.55,4.9,4.49c0.84,0.84,1.73,3.68,1.9,5.29
	c0.15,1.31,0.15,2.68-0.11,3.84c-0.27,1.22-0.61,2.8-0.61,2.85c-0.05,2.65-0.5,4.32-1.22,6.34c-0.28,0.79-0.44,1.68-0.43,2.36
	c0.01,0.84-0.31,1.49-0.61,2.1c-0.69,1.4-1.42,2.68-2.22,3.98c-0.35,0.56-0.71,1.14-0.8,1.73l-0.12,1.24l-0.12,1.12
	c-0.04,0.28-0.17,0.86-0.25,1.12c-0.13,0.47-1.29,2.32-2.03,3.49c-0.79,1.21-1.24,2.37-1.67,4.09c-0.19,0.8-0.47,1.46-0.79,2.12
	l-0.25,0.49l-0.25,0.49l-0.27,0.48c-0.45,0.59-0.52,0.68-0.59,0.89c-0.84,2.53-7.15,8.16-9.89,9.08c-0.53,0.17-1.15,0.39-1.53,0.67
	c-0.54,0.4-1.07,0.69-1.81,0.89c-0.79,0.23-1.95,0.4-2.73,0.51c-0.55,0.08-1.44,0.2-1.98,0.39c-3.06,1.03-6.23,2.09-9.42,1.83
	c-9.82-0.81-40.5-4.61-42.56-9.34c-0.39-0.88-0.47-2.42-0.08-3.41c0.59-1.48,1.76-2.69,2.94-3.9c0.28-0.28,6.94,0.72,9.26,1.08
	c0.61,0.08,1.22,0.23,1.86,0.36c0.75,0.16,2.23,0.48,2.23,0.48C76.17,342.4,81.61,343.16,82.49,342.95z"/>
<path class="st0" d="M43.59,195.17c0.91-1.82,1.86-3.75,2.22-3.98c0.27-0.18,0.67-0.29,1.17-0.43c0.21-0.07,1.46-0.56,2.11-0.82
	c1.43-0.57,3.1-1.25,4.21-1.75c2.17-0.97,6.05-2.74,6.93-3.24c4.72-2.72,9.92-4.97,15.11-7c2.18-0.86,4.48-2,6.55-3.12
	c1.44-0.77,4.99-2.46,7.43-3.62c3.6-1.71,9.99-4.48,15.1-6.69l1.49-0.63l0.5-0.19l0.49-0.19c0.33-0.12,0.87-0.32,1.11-0.43
	c0.44-0.19,0.99-0.44,1.37-0.63c0.31-0.16,0.31-0.16,0.87-0.37l0.62-0.25l0.49-0.25c1.19-0.53,2.34-1.05,3.47-1.62
	c1.34-0.69,2.74-1.29,4.22-1.88c0.41-0.17,1.13-0.49,1.72-0.75c0.55-0.25,1.45-0.63,1.74-0.75c0.67-0.27,1.36-0.56,1.98-0.87
	c0.7-0.36,1.37-0.68,2.1-1.01c0.99-0.43,2.07-0.97,3.1-1.5c0.63-0.32,1.32-0.65,1.98-0.93l0.5-0.19l0.49-0.25l0.5-0.19l0.49-0.19
	c1.03-0.46,2.5-1.1,3.22-1.38c1.45-0.55,2.82-1.11,4.08-1.75c0.25-0.12,0.75-0.47,1.17-0.74c0.47-0.31,1.01-0.57,1.55-0.81
	c2-0.87,3.23-0.49,4.5,0.77c2.34,2.33,0.07,12.33-1.84,14.97c-1.35,1.87-2.68,2.39-5.2,3.12c-0.55,0.17-1.89,0.83-2.85,1.32
	c-0.43,0.21-0.87,0.44-1.24,0.56c-0.55,0.19-1.26,0.5-1.86,0.75c-4.56,1.98-11.56,5.03-13.62,6.07l-0.49,0.25l-0.62,0.19l-0.87,0.37
	c-0.93,0.29-0.93,0.29-1.12,0.38l-0.37,0.12c-0.56,0.19-0.56,0.19-1.12,0.44c0,0-1.4,0.67-2.1,1c-0.43,0.21-1.07,0.5-1.24,0.57
	c-0.56,0.21-1.11,0.43-1.61,0.69l-1.49,0.75l-0.49,0.25l-0.5,0.25l-0.43,0.25l-0.43,0.25c-4.06,1.93-8.41,3.83-12.51,5.32
	c-4.63,1.67-8.98,3.8-13.25,5.94c-4.08,2.06-8.09,3.86-12.38,5.75c0,0-2.21,0.99-3.34,1.5l-0.5,0.25l-0.49,0.19l-0.49,0.19
	l-0.5,0.25l-0.49,0.25l-0.85,0.4c-0.87,0.37-1.99,0.93-2.97,1.43c-1.22,0.62-2.45,1.2-3.72,1.75c-2.2,0.98-4.97,2.2-6.56,3
	l-0.37,0.19l-0.62,0.19l-0.37,0.19c-0.64,0.3-1.25,0.59-1.86,0.94l-0.74,0.5l-0.37,0.25c-0.49,0.3-1.11,0.69-1.61,0.81
	c-3.52,0.89-3.35-3.41-2.82-6.13c0.01-0.08,0.41-0.74,0.87-1.5c0.39-0.64,1.1-1.87,1.1-1.87l-0.12-0.49l-0.13-0.37l-0.13-0.5
	C43.4,198.02,43.48,196.79,43.59,195.17z"/>
<path class="st0" d="M12.48,326.38c1.67-2.52,3.56-5.38,5.21-7.18c1.74-1.89,5.85-6.13,6.53-6.5c0.41-0.21,1.52-0.01,1.64,0.48
	c1.37,5.86-1.86,11.15-4.56,15.22c-2.52,3.81-5.45,8.27-6.96,12.85c-0.28,0.85-0.84,2.69-0.86,2.86c-0.15,1.29-0.2,2.61,0.01,3.84
	c0.25,1.49,0.26,2.89,0.27,5.34c0.01,2.62,0.06,6.99,0.47,8.37l0.25,0.56c0.08,0.19,0.09,0.23,0.31,1.1
	c0.08,0.31,0.38,1.49,0.38,1.49c0.43,2.69,0.86,5.44,1.57,7.06c0.23,0.53,0.49,0.77,0.85,1.15c0.35,0.35,0.51,0.61,0.77,1.09
	c0.36,0.64,0.72,1.97,1.13,3.46c0.37,1.34,5.15,8.39,6.13,9.38c0.6,0.59,1.55,1.54,1.89,1.8c0.08,0.07,1.31,1.24,1.85,1.79
	c0.33,0.33,0.58,0.6,0.87,1c0.17,0.23,0.75,0.99,0.75,0.99c0.28,0.29,0.54,0.53,0.91,0.76c0.34,0.21,1.04,0.67,1.11,0.73
	c4.88,4.88,14.71,7.86,22.54,9.79c6.03,1.49,14.91,2.73,22.34,3.77c2.89,0.4,7.93-0.61,10.91-1.28c1.42-0.32,3.44-0.49,5.08-0.64
	h0.5c1.18,0,1.18,0,2.36-0.13l3.34-0.39c5.43-0.59,14.19-1.58,17.48-2.55c5.6-1.61,18.92-5.94,19.45-6.26
	c2.49-1.57,6.11-3.16,8.79-4.13c2.55-0.92,6.77-2.58,8.54-4.18c0,0,1.33-0.81,1.86-1.12l0.79-0.55l0.58-0.21
	c0.21-0.08,0.78-0.39,0.97-0.52c0.63-0.44,1.12-0.91,1.65-1.44c0.33-0.33,1.28-0.79,2.33-1.28c2.49-1.17,5.38-3.52,7.47-5.32
	c0.58-0.51,1.25-1.33,1.68-1.97c0.39-0.57,1.22-1.22,1.8-1.68c1.34-1.07,2.51-2.28,3.52-3.68c0.37-0.52,1.29-1.25,2.02-1.85
	c0.65-0.51,1.27-1.08,1.69-1.81c0.24-0.41,1.07-1.25,1.71-1.89c0.63-0.64,1.52-1.55,2.37-2.9l0.59-0.71l1.01-1.53
	c0.75-1.13,1.44-2.22,1.91-3.66c0.11-0.33-0.71-4.48-1.01-5.83c-0.59-2.62-0.96-5.65-1.27-8.3c-0.27-2.36-0.69-6.01-1.03-8.92
	c-0.27-2.36-1.28-10.42-1.28-10.42c-0.63-3.09-1.63-14.56-2.31-22.44c-0.31-3.65-0.77-9.75-1.16-15l-0.13-1.24l-0.13-2.1l-0.13-2.22
	c-0.09-1.61-0.2-3.6-0.26-4.34c-0.13-1.69-0.27-3.37-0.64-4.96c-0.52-2.25-1.02-5.21-1.27-7.82l-0.13-1.74l-0.13-1.6l-0.13-1.12
	l-0.13-0.98l-0.12-0.75l-0.01-1.25l-0.01-0.43c0-0.65-0.11-1.73-0.25-2.54l-1.27-7.69c-0.17-1.03-0.55-3.14-0.63-3.46
	c-0.25-0.98-0.44-2.1-0.63-3.22c-0.65-3.84-1.43-7.45-2.4-11.29c-0.25-0.99-0.55-2.59-0.76-3.72l-0.13-0.86l-0.12-0.99
	c-0.1-0.64-0.23-1.37-0.39-1.98c-0.1-0.41-0.13-0.49-0.43-1.24l-0.25-0.62c-0.25-0.55-0.25-0.55-0.31-0.74
	c-0.31-0.86-0.74-2.06-0.63-2.98c0.2-1.62,6.42-21.56,6.96-22.19c2.57-3.05,4.1,1.06,4.64,3.18c0.23,0.92,1.37,4.32,2.13,6.57
	c0.85,2.54,1.64,5.05,2.01,8.06c0.21,1.67,0.34,2.62,0.63,4.08c0.54,2.66,0.89,5.55,0.9,8.69c0.01,2.48,0.3,4.87,0.77,7.19
	c0.33,1.61,0.77,3.74,0.89,4.83c0.25,2.25,0.59,5.09,0.89,6.57c0.16,0.79,0.5,2.44,0.51,2.49l0.25,0.98
	c0.06,0.24,0.23,1.13,0.25,1.36c0.25,2.03,0.03,5.67-0.1,7.82c0,0,0.62,9.34,0.79,11.66c0.5,6.87,1.17,12.71,1.93,19.34
	c0.51,4.5,1.07,9.38,1.79,13.88c0.35,2.24,0.57,5.17,0.27,7.43c-0.16,1.24-0.08,2.34,0.14,3.61c0.19,1.1,0.42,2.48,0.51,3.34
	c0.03,0.36,0.58,3.33,0.89,4.96c0.34,1.86,0.92,5.02,1.01,5.7c0.43,3.14,0.85,5.94,1.64,8.69c0.47,1.64,0.77,3.69,1.01,5.7
	l0.13,0.61l0.13,2.12l0.13,1.36c0.13,1.09,0.51,4.21,0.51,4.21c0.29,1.56,0.62,3.42,0.89,5.09l0.13,0.75l0.13,1.12l0.13,0.73
	l0.13,0.75l0.25,1.61c0.2,1.45,0.2,1.45,0.24,1.66c0,0,0.2,0.87,0.33,1.44l0.19,0.49l0.13,0.49l0.12,0.49l0.13,0.63l0.51,2.6
	c0.1,0.41,0.1,0.41,0.26,1.73c0.07,0.57,0.13,0.98,0.25,1.49c0.44,1.92,1.87,7.35,2.12,7.73c0.06,0.09,0.43,0.97,0.58,1.32
	l0.25,0.63l0.19,0.49l0.19,0.49c0.15,0.35,0.29,0.73,0.43,1.12l0.19,0.49l0.25,0.49l0.25,0.49c0.67,1.48,2.31,4.85,3.25,5.75
	c0.33,0.47,0.33,0.47,0.75,1c0.33,0.47,0.33,0.47,0.74,0.99l0.54,0.64c0.37,0.45,1.05,1.31,1.05,1.31c1.14,1.12,3.6,3.65,4.04,4.28
	c2.03,2.94,12.74,7.57,16.88,8.58c8.93,2.2,22.52,0.07,29.5-3.45c5.2-2.62,9.88-6.63,14.45-10.55c0.21-0.21,0.93-0.88,1.61-1.49
	c0.3-0.31,0.65-0.63,0.97-0.89c0.88-0.72,1.5-1.21,1.65-1.5c0.25-0.49,1.15-1.17,1.7-1.6c2.38-1.76,5.73-3.65,8.69-4.65
	c1.16-0.4,4.32,0.35,4.96,0.92c1.63,1.45,4.39,3.36,6.47,4.13c11.44,4.24,24.18,8.96,36.5,11.15c1.95,0.35,7.99,0.35,11.66,0.33
	c3.12,0,8.77-0.05,10.66-0.41c7.91-1.46,17.22-3.21,22.56-5.53c4.03-1.74,9.75-4.25,11.73-5.58c1.23-0.83,2.78-2.56,3.42-3.96
	c0.05-0.12-0.18-2.17-0.26-2.85c-0.06-0.52-0.17-1.36-0.25-1.86l-0.13-0.75l-0.13-1.73c-0.11-1.07-0.29-2.41-0.51-3.48
	c-0.14-0.67-0.36-2.45-0.51-3.72l-0.13-0.87l-0.13-0.86l-0.13-0.49l-0.13-1.37l-0.13-0.86l-0.13-0.87l-0.13-1.12l-0.13-0.74
	l-0.13-0.61l-0.13-0.74l-0.12-0.87c-0.07-0.45-0.16-0.93-0.26-1.36c-0.1-0.45-0.1-0.45-0.25-1.49c-0.1-0.67-0.23-1.39-0.38-1.98
	c-0.19-0.75-0.4-1.56-0.51-2.36c-0.25-1.84-0.66-4.25-1.01-6.31c-0.76-4.44-1.24-7.63-1.9-12.15c-2.1-14.31-4.46-26.19-7.33-38.92
	c-0.23-1.03-1.17-5.62-1.77-8.55c-0.55-2.74-1.57-7.67-1.89-8.92c-0.33-1.28-0.63-3.16-0.89-4.84c-0.26-1.67-1.01-6.31-1.01-6.31
	c-0.28-1.53-0.63-3.69-0.89-5.58c-0.29-2.16-0.89-6.21-1.01-6.7c-0.23-0.92-0.25-1.32-0.26-2.6c0-0.05-0.24-1.25-0.38-1.86
	c0,0-0.05-0.16-0.25-0.86l-0.25-1l-0.25-0.85l-0.13-0.51l-0.13-0.49c-0.33-1.32-0.61-2.64-0.88-4.09c-0.21-1.09-0.36-3.18-0.52-5.33
	c-0.08-1.13-0.29-2.16-0.51-3.22c-0.76-3.75-1.64-8.07-1.9-11.52c-0.29-3.82-0.7-9.18-0.91-11.16l-0.01-0.62l-0.13-1.11l-0.13-1.13
	c-0.03-0.33-0.24-2.98-0.59-2.94c-0.79,0.1-6.54-9.33-6.65-9.8c-0.6-2.65-1.19-5.3-1.15-8.06c0.01-0.53,0.99-2.21,1.42-2.92
	c0.36-0.59,0.36-0.59,1.46-1.09c0.46-0.21,0.77-0.73,0.95-1.22c1.01-2.73,2.64-6.96,2.88-7.45c0.22-0.44,0.63-1.25,0.7-1.33
	c0.36-0.39,0.74-0.81,0.91-1.17c0.23-0.49,0.57-1.22,0.92-2.23c0.15-0.44,0.15-0.44,0.43-0.99c0.21-0.42,0.48-0.96,0.55-1.25
	c0.23-0.8,0.41-1.27,0.91-1.76c0.83-0.83,3.46-1.98,4.58-0.46c1.01,1.35,1.89,3.94,2.46,5.67c0.71,2.1,1.91,4.7,3.84,7.03
	c0.19,0.25,0.47,0.58,0.47,0.58c0.33,0.47,0.33,0.47,0.53,0.73c0.18,0.21,0.31,0.39,0.46,0.64l0.5,0.8l0.5,0.75
	c0.33,0.57,0.33,0.57,0.5,0.8c0.07,0.09,0.53,0.83,0.75,1.18c0,0,0.66,0.98,1,1.48c0.31,0.47,0.86,1.26,1.02,1.46
	c0.35,0.4,0.66,0.82,0.98,1.26c0.22,0.32,0.77,1.09,0.77,1.09l1.1,1.26c0.37,0.51,0.74,0.98,1.15,1.46l0.62,0.61
	c0.41,0.41,0.41,0.41,0.6,0.65c1.35,1.69,3.78,4.88,3.93,5.32c0.3,0.88-0.93,6.59-1.31,6.92c-2.14,1.86-4.22,3.83-5.81,6.23
	c-0.69,1.05-4.52,5.01-5.66,5.32c-0.41,0.11-0.91-0.06-1.24-0.19c-0.59-0.22-1.3-0.48-1.37-0.49c-0.04,0,0.31,1.74,0.31,1.74
	c0.17,0.87,0.27,1.84,0.39,2.85c0.09,0.87,0.2,1.4,0.37,2.11c0.13,0.49,0.27,1.26,0.38,1.86c0.14,0.75,0.26,1.27,0.57,1.8
	c0.22,0.37,0.42,0.73,0.56,1.17c0.31,0.99,0.7,2.2,0.88,3.1c0.18,0.87,0.29,1.79,0.39,2.73l0.13,1.36c0.13,1.55,0.13,1.55,0.25,2.48
	c0.11,0.77,0.27,2.49,0.39,3.86c0,0,0.31,2.36,0.39,2.97c0.45,3.52,0.93,6.77,1.64,9.91c0.11,0.52,0.33,1.47,0.38,1.63l0.13,0.48
	c0.07,0.35,0.25,1.12,0.25,1.12c0.32,0.96,0.62,1.94,0.88,3.1c0.44,1.92,0.96,4.25,1.27,6.33c0.83,5.7,1.72,11.72,3.41,16.73
	c0.42,1.24,0.64,2.45,0.88,3.84c0.23,1.31,0.69,3.88,0.82,4.21c0.17,0.45,0.33,0.98,0.44,1.49l0.13,0.74l0.25,1.24l0.19,0.61
	c0.07,0.25,0.27,0.92,0.31,1.13l0.13,0.85c0.03,0.8,0.03,0.8,0.13,1.12c0,0,0.57,4.8,0.77,6.82c0.18,1.81,0.49,3.8,0.77,5.57
	c0.51,3.3,1.05,6.58,1.64,9.8c1.9,10.24,6.01,38.26,5.47,39.92c-0.16,0.49-0.19,1.6-0.23,3.09c-0.03,1.19-0.07,2.21-0.11,2.73
	c-0.25,2.44-0.5,7.06-0.71,10.92c-0.19,3.52-0.45,7.7-1.21,11.16c-0.52,2.41-2.59,9.84-3.49,10.99c-0.09,0.13-0.77,1.03-0.77,1.03
	c-1.15,0.81-1.42,1.28-1.89,2.77c-0.66,2.12-1.46,3.48-2.42,4.94c-0.17,0.25-1.25,1.39-1.73,1.86c-0.27,0.28-0.89,0.88-0.94,0.92
	c-0.27,0.21-0.76,0.76-1.16,1.2c-0.59,0.64-1.17,1.33-1.7,2.01c-0.26,0.33-0.57,0.71-0.89,0.97l-0.76,0.56l-0.7,0.4l-0.5,0.19
	l-0.49,0.25l-0.49,0.25l-0.49,0.24l-0.5,0.25l-0.5,0.25c-1.07,0.53-2.22,1.12-3.03,1.63c-0.41,0.25-0.81,0.43-1.3,0.63
	c-0.71,0.28-1.4,0.56-2.1,0.87l-0.49,0.25l-0.44,0.25l-0.43,0.25c-0.32,0.15-0.61,0.23-0.99,0.31c-0.32,0.07-0.89,0.2-0.99,0.25
	l-0.62,0.12l-0.49,0.13l-0.5,0.12l-0.37,0.13c-0.19,0.05-0.19,0.05-0.87,0.24l-0.49,0.13c-0.5,0.12-0.5,0.12-0.87,0.25
	c-0.34,0.12-1.49,0.36-2.23,0.51c0,0-1.68,0.43-2.48,0.63c-2.72,0.69-8.36,2.16-9.41,2.52c-1.67,0.56-20.09,0.81-20.09,0.81
	s-3.83-0.56-4.47-0.61c-1.84-0.13-3.43-0.25-4.96-0.6c-0.89-0.2-0.89-0.2-1.24-0.24l-0.99-0.12c-0.79-0.08-1.76-0.17-1.98-0.24
	c-0.49-0.13-1.16-0.33-1.62-0.56c-0.63-0.31-0.88-0.43-1.86-0.55c-5.1-0.63-10.36-1.45-13.57-4.02c-1.09-0.88-2.37-1.7-3.56-2.42
	c-0.75-0.47-1.43-0.88-1.89-1.35c-0.57-0.56-1.22-1.2-1.8-1.66c-0.55-0.44-1.28-1.01-1.63-1.35c-0.62-0.56-1.27-1.14-1.91-1.68
	l-0.69-0.56l-0.39-0.23l-0.62-0.49c-1.05-0.84-1.9-1.53-2.02-1.53c-1.51,0.04-2.51-0.01-3.58-0.81c-0.87-0.65-1.28-0.83-2.75-0.4
	c-2.33,0.68-4.36,1.37-6.01,2.69c-0.13,0.11-0.86,0.51-1.3,0.75c-0.29,0.16-0.74,0.48-1.11,0.75c-0.86,0.61-1.7,1.31-2.35,2.12
	c-1.08,1.38-2.42,2.92-3.79,4.02c-0.31,0.25-0.74,0.55-1.07,0.75c-0.41,0.25-1.13,0.71-1.17,0.73c-0.15,0.13-0.79,0.65-1.2,0.97
	l-0.41,0.28l-0.62,0.49c-1.47,1.19-3.04,2.45-4.13,3.93c-0.88,1.2-8.94,5.93-10.74,6.33c-2.37,0.53-5.73,1.07-9.42,1.65
	c-0.89,0.13-1.92,0.51-2.72,0.81c-0.99,0.37-2.66,1.01-3.22,0.95c-0.85-0.11-1.11-0.13-1.25-0.12l-0.49,0.12
	c-0.6,0.17-0.6,0.17-1.49,0.13c-1.45-0.07-4.97-0.25-5.33-0.36l-0.5-0.17c-0.4-0.19-0.94-0.41-1.12-0.44
	c-3.02-0.39-5.94-0.76-7.94-1.89c-1.71-0.97-3.94-2.22-5.47-2.77c-0.94-0.33-1.75-0.64-2.49-1.17c-0.56-0.4-2.11-1.48-2.11-1.48
	c-4.22-2.17-10.96-11-13.01-15.45c-1.97-4.28-3.44-9.02-4.64-13.76c-0.7-2.74-1.39-5.57-1.89-8.3c-0.29-1.58-1.86-10.03-1.99-9.59
	c-0.92,2.94-2.36,5.3-4.03,7.45l-0.54,0.64l-0.49,0.63c-0.44,0.65-1.23,1.86-1.23,1.86c-0.33,0.41-0.68,0.88-0.95,1.33
	c-0.43,0.76-0.85,1.31-1.38,1.9c-0.67,0.77-1.67,2.02-2.49,3.06c-0.56,0.71-3.64,4.21-3.64,4.21c-0.21,0.21-0.21,0.21-0.93,0.68
	l-0.55,0.69c-0.41,0.41-1.46,1.6-2.29,2.54c-0.53,0.67-0.55,0.69-0.55,0.69c-0.88,0.88-1.92,1.64-2.99,2.33
	c-1.01,0.67-2.18,1.45-3.06,2.28c-1.51,1.4-3.98,3.36-5.97,4.96c-0.37,0.29-2.43,1.24-3.84,1.86c-0.07,0.04-1.05,0.67-1.55,1
	c-0.65,0.44-1.34,0.85-2.04,1.25c-0.56,0.32-1.13,0.65-1.58,1.03c-0.43,0.35-1.54,0.84-2.38,1.23l-0.49,0.24l-0.62,0.25l-0.37,0.19
	c-0.74,0.25-0.74,0.25-0.99,0.37c-0.85,0.44-2.08,1.05-2.15,1.11c-1.83,1.49-11.95,5.21-16.92,6.97c-1.85,0.65-3.58,1.27-4.43,1.89
	c-0.48,0.36-0.9,0.67-1.64,0.8l-0.99,0.12l-1.24,0.13c-0.4,0.07-0.97,0.24-1.36,0.37c-3.97,1.34-9.5,2.26-14.13,2.28
	c-1.66,0.01-2.53,0.09-3.84,0.39c-0.82,0.19-3.47,0.77-3.47,0.77c-1,0.12-2.1,0.31-3.22,0.49c-0.57,0.11-0.57,0.11-1.37,0.01
	c-1.19-0.13-2.5-0.07-3.59,0c-3.71,0.24-8.31,0.55-10.29,1.23c-2.16,0.72-5.91,1.01-8.31,0.33l-6.08-1.09
	c-1.79-0.51-3.97-0.85-5.96-1.09c-4.28-0.52-8.52-1.34-12.16-2.5c-2.82-0.89-5.91-1.88-7.95-2.89c-2.32-1.15-5.15-2.38-7.46-3.2
	c-1.76-0.61-10.87-6.69-11.56-7.9c-0.64-1.12-2.17-3.04-3.4-4.56c-1.13-1.41-2.31-2.85-3.2-4.41c-0.21-0.35-2.11-3.44-3.24-5.26
	c-0.26-0.41-0.51-0.81-0.75-1.24c-0.32-0.56-1.01-1.75-1.34-2.07l-0.52-0.77l-0.75-1.31l-0.06-0.87l-0.38-1.36l-0.19-0.63
	c-0.19-0.61-0.19-0.61-0.31-1.12c-0.13-0.48-0.32-1.07-0.51-1.61l-0.5-1.48c-0.33-1.15-0.7-2.41-1.07-3.34
	c-0.26-0.67-0.47-1.35-0.69-2.12c-0.15-0.51-0.15-0.51-0.26-1.11c-0.09-0.53-0.17-0.98-0.25-1.24c0,0-0.95-16.52-0.56-17.49
	c0.09-0.21,0.35-1.36,0.49-1.98c0.08-0.37,0.08-0.37,0.37-1.24l0.12-0.49c0.36-1.29,0.81-2.62,1.29-3.86
	c0.21-0.55,0.73-1.89,0.74-1.98c0.25-2.78,0.41-4.57,0.66-5.46c0.38-1.33,1.23-3.49,1.96-5.33c0.15-0.44,0.15-0.44,0.43-1
	c0.21-0.41,0.21-0.41,0.3-1.12c0.13-0.87,0.23-1.62,0.62-2.61l0.18-0.61c0.18-0.61,0.18-0.61,0.31-1c0.09-0.28,0.21-0.65,0.31-0.86
	c0.2-0.47,0.53-1.25,0.61-1.49C9.52,332.4,10.76,328.96,12.48,326.38z"/>
</svg>
