<?xml version="1.0" encoding="utf-8"?>
<!-- Generator: Adobe Illustrator 23.0.3, SVG Export Plug-In . SVG Version: 6.00 Build 0)  -->
<svg version="1.1" id="Layer_1" xmlns="http://www.w3.org/2000/svg" xmlns:xlink="http://www.w3.org/1999/xlink" x="0px" y="0px"
	 viewBox="0 0 1322 646" style="enable-background:new 0 0 1322 646;" xml:space="preserve">
<style type="text/css">
	.st0{fill-rule:evenodd;clip-rule:evenodd;fill:#231F20;}
	.st1{fill-rule:evenodd;clip-rule:evenodd;fill:#FFFFFF;}
</style>
<path class="st0" d="M924.15,334.41c-0.53,0.68-0.53,0.68-0.85,0.55c-0.96-0.43-1.96-0.85-1.86-1.5l0.7,0.06
	c0.91,0.33-3.24-2.02-4.15-2.48c-0.58-0.29-6.26-1.94-4.68-0.93v0.11l-1.23-0.28l-0.65-1.48l-1.41,0.09l-0.73-0.5
	c-0.43-0.23-0.43-0.23-1.84-0.64c0,0-2.31-0.78-3.49-1.17c-1.28-0.41-3.52-1.17-3.52-1.17c-0.83-0.22-2.61-1.02-3.75-1.52
	c-1.13-0.5-2.61-1.03-3.45-1.25l-2.64-0.67l-1.06,0.15l-1.01-0.16l-0.9-0.81c-0.61,0.38-0.86,0.54-1.01,0.5l-1.71-1l-2.29-0.63
	c-1.53-0.55-2.19-0.78-2.84,0.3c-0.43,0.67-2.46,0.1-3.47-0.19l-1.86-0.46l-1.89-0.59c-2.57-0.31-3.72-0.46-4.1-0.34
	c-1.13,0.34-4.12,0.48-4.68,0.46c-0.65-0.03-2.11-1.17-2.54-1.48c0,0-1.94-0.49-2.04-0.52c-0.71-0.11-5.16-0.4-2.11,0.24
	c0.4,0.07,1.08,0.22,0.96,0.82c0,0-3.37-0.1-3.52-0.11c-2.62-0.18-2.62-0.18-3.52,0l-1.41,0.23l-0.93,0.24l-2.79,0.13
	c-2.49,0.87-11.57,1.47-11.79,1.08c0.38-0.28,0.93-0.69,0.7-0.76c-1.71-0.61-2.44,1.86-2.74,2.84l-3.17,0.35l0.83,0.11
	c0.63,0,1.23,0.05,1.28,0.59c0,0.09-7.84,1.16-7.84,1.16c-1.96,0.28-9.21,1.27-9.05-0.07c0.93-0.43,1.06-0.49,1.11-0.68
	c0,0-2.82,0.24-3.17,2.16c-0.45,2.43-0.93,2.62-3.37,3.52c-0.43,0.14-3.3,1.75-3.3,1.75c0.53,0.37,4.2-1.24,4.68-1.64l1.03-0.04
	c1.46-0.08-2.31,1.75-2.41,1.8c-1.11,0.43-3.7,1.51-3.87,0c0,0-2.21,1.56-2.46,1.75l-1.18,0.24l-1.41,0.35
	c-1.64,0.57-3.65,2.15-5.11,3.33c-0.6,0.49-1.83,1.66-3.92,3.77c-1.46,1.14-3.02,2.28-4.78,3.08c-7.09,3.23-4.68-7.28-3.52-9.96
	c1.46-3.31,4.43-7.8,6.79-11.35c0.78-1.16,0.93-1.37,1.06-3.38c0.13-1.83,0.25-3.52,0.58-4.45c0.23-0.57,2.11-4.44,3.04-6.32
	c0.45-0.91,0.96-1.87,1.41-2.58c0.75-1.09,1.16-1.99,1.54-3.51c0.48-1.87,2.69-6,4.6-7.68l1.16-1.17l2.36-2.34
	c1.46-1.46,3.02-2.99,4.63-4.26c1.71-1.35,3.27-3.04,4.73-4.64c1.56-1.71,3.77-3.57,5.81-4.73l0.96-0.47
	c0.63-0.31,0.63-0.31,1.64-0.94c1-0.63,3.04-1.87,3.04-1.87l2.57-1.41c1.13-0.64,3.29-1.87,3.29-1.87c3.04-2.04,9.1-5.8,9.61-5.97
	c6.04-2.01,24.87-8.3,27.84-6.31c0.48,0.3,1.94,0.85,2.82,1.17c1.18,0.41,2.19,0.8,3.29,1.28c2.56,1.13,5.26,2.31,7.59,3.75
	c1.96,1.21,4.58,2.82,5.96,3.51c1.13,0.57,2.46,1.25,3.52,1.53c1.43,0.39,3.04,0.83,3.75,1.28c0.3,0.18,0.7,0.62,1.21,1.12
	c0.2,0.22,0.28,0.27,1.31,1.03c1.08,0.79,1.08,0.79,1.23,0.89l1.41,0.94c1.84,1.33,3.8,2.56,5.86,3.73
	c2.06,1.19,4.63,2.65,6.31,3.28c2.54,0.96,4.25,1.81,6.21,3.04c0,0,1.41,0.94,2.11,1.41c0.96,0.63,1.96,1.28,2.92,1.87
	c0,0,2.21,1.27,3.27,1.86c1.16,0.67,3.29,1.89,3.29,1.89c1.03,0.64,2.11,1.26,3.27,1.87c1.13,0.6,2.29,1.23,3.39,1.87
	c1.16,0.65,2.32,1.28,3.62,1.75c0.63,0.23,0.63,0.23,2.11,0.48c0.88,0.14,2.16,0.35,2.69,0.58c0.23,0.1,1,0.73,1.38,1.02
	c0.4,0.33,0.75,0.58,1.21,0.85c1.03,0.64,2.11,1.28,3.17,1.87c0.3,0.18,5.13,2.36,7.69,3.52c4.55,2.01,14.29,6.15,15.47,6.44
	c3.75,0.93,12.32,3.8,18.49,5.85c6.24,2.08,20.2,6.4,21.33,6.56c11.07,1.57,21.38,3.52,31.84,5.61c2.67,0.54,6.26,0.85,9.83,1.18
	c2.69,0.24,5,0.77,7.27,1.4c0.96,0.28,16.85,2.58,16.85,2.58s47.33,0.54,50.83,1.41c5.06,1.26,10.79,1,17.08,0.7
	c1.79-0.09,5.23-0.25,6.56-0.82c1.56-0.67,1.56-0.67,4.68-0.59c1.53,0.04,3.55,2.43,3.87,3.87c1.39,5.96-5.61,18.95-8.35,22.66
	c-2.04,2.74-4.07,5.64-5.23,9.18c-1.16,3.51-2.69,7.85-5.16,9.83c-1.28,1.04-11.44,9.24-13.23,6.55c-1.21-1.8-3.34-3.9-5.61-4.68
	c0,0-3.77-0.75-5.41-1.06l-0.93-0.23l-0.93-0.24l-1.89-0.24l-0.93-0.24c-3.22-0.64-7.47-0.84-10.99-0.93
	c-5.84-0.14-5.84-0.14-8.22,0.12c-2.44,0.27-3.85,0.23-5.96,0.11c-7.27-0.39-15.27-0.72-22.58-0.94c-3.95-0.11-6.87-0.21-10.54-0.69
	c-1.94-0.27-1.94-0.27-2.34-0.24c-3.85,0.24-8.53,0.53-10.31,0.46c-3.24-0.11-8.17-0.29-10.54,0.24c-2.31,0.52-4.28,0.58-8.07,0.71
	c-3.95,0.11-8.98,1.03-12.55,2.21c-1.26,0.43-2.89,0.97-3.97,1.06c-4.12,0.34-5.36,0.53-8.2,1.41c-1.18,0.38-4.45,0.71-6.79,0.93
	c-2.09,0.21-3.72,0.55-5.13,1.41c-0.15,0.08-3.62,1.38-5.86,2.23c-2.39,0.89-4.8,1.8-7.02,2.69c-0.88,0.35-2.32,1.11-3.52,1.76
	c-1.06,0.55-2.47,1.07-3.75,1.52c-0.48,0.18-0.48,0.18-2.11,0.47c-1.13,0.2-1.13,0.2-2.09,0.59c-0.63,0.24-1.66,0.65-2.26,0.93
	c-1.38,0.71-1.38,0.71-1.96,0.95c-1.43,0.56-2.67,0.96-4.45,1.28c-1.26,0.23-2.39,0.56-3.49,0.94c-0.43,0.14-4.53,2.12-6.59,3.15
	c-1.13,0.57-2.21,1.09-3.52,1.52l-1.38,0.47c-1.81,0.5-1.81,0.5-2.34,0.7c-2.72,1.01-5.23,2.06-7.75,3.17c0,0-3.82,1.31-5.84,1.99
	c-2.31,0.78-4.42,1.6-6.34,2.69c-3.95,2.25-9.81,4.23-14.29,5.51c-9.26,2.64-28.07,8.6-29.73,9.48l-1.16,0.46l-0.96,0.47
	c-0.96,0.52-2.01,1.04-3.04,1.52c-0.93,0.44-2.44,1.12-3.04,1.17c-4.07,0.31-6.54,0.5-9.13,0.94c-5.06,0.83-10.49,2.25-15.21,4.1
	c-6.06,2.35-12.22,4.5-20.37,5.27c-3.72,0.34-9.18,1.12-13.13,2.11l-3.97,0.93c-0.88,0.23-1.66,0.41-2.57,0.47l-6.79,0.24
	l-0.96,0.23l-2.09,0.48l-1.18,0.23c-0.1,0.01-0.1,0.01-5.86-0.23c-1.89-0.09-2.39-0.1-3.75,0.23c-2.36,0.6-4.78,1.46-6.79,2.46
	c-4.1,2.05-5.53,1.14-8.58-0.78c-0.71-0.45-2.69-0.36-4.75-0.28c-0.78,0.03-3.47-0.49-7.04-1.17c-1-0.2-4.4-0.47-5.03-0.47
	l-3.87,0.23h-1.41l-2.09-0.58l-1.64-0.59c-2.31-0.57-4.53-0.59-7.75-0.47l-2.79,0.47c-1.58,0.29-2.29,0.41-4,0.24l-0.88-0.4
	l-0.58-0.74l-1.81-0.49c-0.78-0.14-5.81-0.48-6.09-0.48l-1.66,0.24h-2.81c-0.71-0.05-2.82-1.17-3.22-1.57
	c-1.16-1.19-1.91-1.95-2.72-2.15c-0.73-0.19-2.06,4.36-2.36,5.47l-0.71,2.82c-0.22,0.98-0.68,2.8-0.68,2.8
	c-0.35,1.03-1.11,3.13-1.43,3.75l-0.7,1.41l-0.33,1.17l-0.48,0.93l-0.45,1.18l-0.48,0.93l-0.48,1.17l-0.45,0.71l-0.48,1.17
	c-0.55,1.66-3.95,4.79-5.86,5.27c-1.89,0.48-21.68,0.49-24.6-0.24c-3.72-0.92-7.9-1.48-12.4-1.86c-0.38-0.04-6.16-1.19-9.58-1.87
	c-1.21-0.24-1.21-0.24-3.52-0.48c-1.69-0.16-2.36-0.23-4-0.69l-1.16-0.35l-1.89-0.59c-0.75-0.16-4.48-0.64-6.99-0.93
	c-1.16-0.14-2.84-0.82-4.02-1.3c-3.4-1.4-11.69-3.51-16.85-4.79c-6.04-1.52-15.09-3.9-19.67-6.45c-2.01-1.13-8.02-7.92-9.66-9.98
	c-0.75-0.92-1.41-1.66-2.24-2.46l-2.24-2.23c-0.61-0.75-1.33-1.95-1.66-2.88c-0.5-1.36-1.31-3.64-1.43-3.67c0,0-1.28,0.75-1.59,0.93
	c-1.16,0.73-1.81,0.85-3.55,0.63c-0.43-0.05-2.64-3.52-3.44-4.78c-0.25-0.4-3.42,2.74-3.72,3.09c-1,1.13-2.14,2.48-3.02,3.67
	c-0.38,0.54-2.01,3.24-2.81,4.58l-0.45,0.82l-0.48,1.04l-0.48,1.18c-0.25,0.57-1.36,1.85-2.14,2.75c-1.59,1.88-3.65,3.67-5.56,5.21
	c-0.45,0.34-3.87,3.75-5.93,5.8c-1.23,1.26-3.87,3.48-5.98,5.26c-0.45,0.39-0.45,0.39-1.84,1.66l-1.18,0.94
	c-0.85,0.71-3.17,2.69-3.17,2.69c-1.66,2.36-15.14,10.24-21.48,13.86c-2.14,1.22-21.88,1.88-23.89,0.58l-1.16-0.34
	c-0.91-0.37-1.91-0.92-2.72-1.41c0,0,0,0-1.38-0.94l-0.83-0.47l-1.64-0.93c-1.23-0.77-2.24-1.74-3.04-2.93
	c-0.8-1.18-2.01-2.58-3.17-3.39c-4.63-3.28-11.67-8.36-13.88-10.81c-3.8-4.24-7.82-8.49-11.79-12.56c-1.96-2-4.3-3.92-6.51-5.66
	c-0.96-0.74-1.86-2.21-2.56-3.39c0,0-1.99-2.82-2.87-4.05c-0.71-1.02-8,6.24-8.63,6.85c-0.55,0.72-1.06,1.31-1.68,1.95
	c-1.11,1.09-2.21,2.12-3.42,3.13c-1.03,0.88-2.06,1.85-3.02,2.81c-0.6,0.57-1.41,1.41-1.76,1.77c-0.5,0.56-0.91,1.02-1.41,1.53
	c-2.09,2.04-5.38,5.27-6.44,6.09c-9.68,7.76-20.62,14.42-32.49,20.76c-10.01,5.34-19.87,9.57-30.33,14.06
	c-8.95,3.83-19.11,6.7-29.26,9.24c-3.12,0.78-6.4,1.35-9.83,1.87c-1.57,0.24-3.11,0.53-4.45,1.06l-0.94,0.46l-0.93,0.48
	c-0.94,0.41-1.91,0.84-3.04,1.04l-1.64,0.24l-2.59,0.23c-1.08,0.14-1.08,0.14-2.1,0.48c-1.34,0.44-3.04,1.01-4.21,1.17l-2.34,0.22
	l-2.35,0.24c-1.19,0.14-1.64,0.2-2.56,0.47c-1.4,0.4-1.4,0.4-2.35,0.47c-1.85,0.14-7.87,0.69-7.96,0.7
	c-1.14,0.29-2.39,0.62-3.51,0.93c-0.82,0.25-0.82,0.25-3.75,0.25c-4.92,0-4.92,0-7.49,0.69c-0.71,0.24-0.71,0.24-1.64,0.46
	l-1.87,0.48l-7.27,0.23c-0.29,0.02-3.14,0.4-3.51,0.48l-2.82,0.71l-0.93,0.23c-0.39,0.1-1.8,0.45-2.11,0.48h-2.8
	c-6.13-0.17-6.13-0.17-7.03,0c-7.29,1.32-13.86,1.71-22.47,1.64l-5.39-0.13l-1.64-0.11c-3.03-0.06-3.03-0.06-4.68,0.24
	c-2.06,0.36-4.48,0.03-6.33-0.24c-0.5-0.06-1.02,0.05-1.87,0.24l-2.35,0.47c-0.15,0.01-3.58-0.55-5.85-0.93
	c-3.18-0.54-7.15-0.07-9.83,0.47c-3.02,0.6-7.31,0.49-10.3,0l-2.02-0.67l-0.79-0.28c-1.2-0.42-2.88-0.98-3.99-1.17
	c-1.92-0.32-4.9-0.03-7.48,0.24c-1.42,0.14-2.79-0.31-3.99-0.7c-1.32-0.44-2.51-0.84-3.97-0.94c-2.68-0.18-4.79-0.31-6.44-1.05
	c-1.22-0.54-2.35-1.02-3.86-1.3c-2.1-0.38-5.5-1.03-6.1-1.28c-1.19-0.52-2.58-1.1-3.75-1.52l-1.4-0.48c-5.9-0.47-5.9-0.47-6.8-0.82
	c-2.53-0.98-6.26-2.42-8.18-2.69c-3.07-0.44-5.87-1.69-8.67-2.92c-3.04-1.36-5.9-2.63-8.9-3.75c-3.12-1.18-5.56-2.09-7.84-3.76
	c-3.31-2.4-8.07-4.44-12.99-6.55c-4.18-1.78-9.28-6.8-10.15-10.46c-0.52,0.55-0.58,0.61-1.09,0.04c-0.2-0.21-1.28-1.3-1.91-1.94
	c-0.59-0.59-0.59-0.59-0.43-1.92c0.18-1.5-0.21-2.3-0.87-3.58l-1-0.04l-0.95,0.15c-0.6-0.06-2.02-0.2-3.27-1.56
	c-0.49-0.62-0.96-1.24-1.41-1.87l-0.52-0.78L26.78,463c-0.49-0.8-1.08-1.76-1.86-2.93l-0.48-0.82c0,0-0.94-1.43-1.4-2.1
	c-0.52-0.78-0.73-1.32-1.17-2.46c-0.38-0.96-0.91-1.54-1.6-2.15c-2.02-1.8-6.04-12.79-8.01-18.22l-0.47-1.41l-0.39-1.01l-0.74-0.44
	c-0.34-0.29-0.76-1.07-0.98-1.47c-0.57-1.13-0.71-2.52-0.58-4.1c0.13-1.66,0.45-6.09,0.45-6.09c-0.63-7.03-1.05-12.65,0.48-18.74
	c0.71-2.82,1.66-5.67,2.58-8.44c0.13-0.38-0.04-3.21-0.24-6.55c-0.11-1.98-0.1-2.9,0.24-4.92c0.23-1.38,0.65-3.97,0.71-4.45
	c0.15-1.58,1.3-3.75,1.99-5.03c0,0,1.5-3.69,2.11-5.28c1.36-3.51,2.94-7.57,3.62-10.29c1.75-6.97,4.93-13.95,7.85-20.14
	c2.87-6.07,6.43-11.13,10.15-16.23c1.24-1.72,3.61-6.94,4.84-9.76c0.69-1.6,3.23-5.17,5.19-7.92c0.93-1.3,3.56-2.46,5.34-2.73
	c0.89-0.14,2.95,1.03,3.28,1.76c1.5,3.32-3.77,13.84-5.86,18.02c-2.65,5.32-6.36,12.83-7.37,16.86c-1.24,4.95-2.61,9.3-4.22,13.82
	c-1.77,4.98-3.48,10.49-4.21,16.38c-0.79,6.34,1.02,27.36,4.34,30.68l0.46,1.17l2.88,4.14c1.06,1.3,1.67,2.91,2.39,4.75
	c1.12,2.94,4.25,9.13,6.52,10.7l0.94,1.17c0.99,1.25,0.99,1.25,2.1,2.34c1.01,1.26,1.06,1.3,1.06,1.3c1.74,1.75,3.47,3.57,5.14,5.38
	c2.79,3.03,7.75,8.2,10.94,9.8c9.81,4.9,23.07,11.51,30.32,13.93c4.99,1.66,10.79,3.28,16.38,4.68c0.96,0.24,0.96,0.24,2.58,0.59
	c1.65,0.35,1.65,0.35,2.58,0.58c0.94,0.24,0.94,0.24,2.11,0.47c1.01,0.21,1.72,0.43,2.58,0.71c1.19,0.4,2.49,0.82,3.75,1.18
	c0.74,0.21,1.47,0.35,2.34,0.46c1.92,0.24,3.86,0.48,4.92,0.82c1.58,0.5,3.35,0.92,5.16,1.28l1.17,0.24l1.87,0.24l1.87,0.47
	c2.11,0.6,2.88,0.64,9.37,0.93c4.63,0.21,9.37,0.62,13.82,1.17c2.53,0.33,2.7,0.31,5.85,0.24l5.62-0.24h5.4h13.1
	c9,0,24.73-0.06,29.96-0.93c3.26-0.54,8.09-0.87,12.64-1.17c0,0,6.85-1.02,9.38-1.41l3.28-0.47l2.8-0.23
	c1.92-0.19,1.92-0.19,3.98-0.48l1.64-0.24l1.65-0.23l1.16-0.24c2.4-0.12,2.77-0.2,4.69-0.59c5.23-1.04,9.7-1.7,14.98-2.45
	c5.08-0.73,10.54-1.76,15.23-2.82c14.23-3.16,28.58-7.17,41.46-11.47c6.14-2.06,34.63-14.27,37.8-17.44
	c0.73-0.74,5.41-3.22,7.37-4.21c1.84-0.92,5.36-3.08,7.97-4.69c4-2.46,13.61-8.84,14.11-9.56c1.1-1.56,4.98-4.88,7.39-6.88
	c1.16-0.97,2.82-2.76,4.45-4.68l1.69-2.06c0.9-1.27,0.93-1.3,0.93-1.3c4.07-4.58,8.22-10.8,10.44-16.97
	c2.49-7,7.02-15.86,11.62-21.26c0.65-0.75,3.42-1.6,4.4-0.52c1.79,2.01,2.84,3.19,2.94,3.52c0.96,3.29,0.1,7.51-0.7,10.3
	c-0.86,2.99-1.96,6.11-3.17,8.9c-1.11,2.48-2.26,5.24-2.92,7.96c-0.4,1.51-1.76,5.08-2.71,7.48c-1.01,2.62-3.37,9.08-3.4,9.14
	c-0.33,1.34,5.21,7.97,7.57,10.81c1.21,1.47,2.56,2.87,4.15,3.93c1.74,1.17,3.6,2.68,5.08,4.16c1.84,1.85,6.94,4.98,10.74,7.3
	c5.13,3.17,28.57,2.76,36.51,1.52c3.52-0.54,5.86-0.41,8.9,0.59c1.11,0.38,5.18-1.7,6.31-2.34c1.79-1.02,3.75-2.14,5.36-3.33
	c0.3-0.23,1.76-1.43,2.57-2.1c0.85-0.7,2.04-1.7,2.69-2.14c3.47-2.31,6.56-5.26,9.48-8.17c1.46-1.46,3.27-2.95,4.88-4.24
	c1.66-1.31,3.62-3.09,4.78-4.84c8.27-12.41,40.06-55.14,41.45-56.08c0.75-0.98,0.75-0.98,2.84-3.11c0.25-0.2,2.01-1.96,3.2-3.14
	c1-1.01,1.16-1.17,1.16-1.17c1.23-1.07,2.39-2.14,3.52-3.28c1.31-1.32,2.69-2.36,4.23-3.51c1.26-0.93,2.56-1.61,4.25-2.18
	c2.39-0.79,3.42-1.64,5.11-2.98c2.44-1.94,6.19-4.93,9.18-5.68c2.19-0.55,3.55,0.82,4.23,2.23c0.63,1.32,0.63,1.32,2.09,1.28
	c2.62-0.06,4.2-0.1,5.63,0.82c4.05,2.6,8.42,7.38,11.97,11.67c0.81,0.78,0.81,0.78,1.16,1.21c0.55,0.74,0.55,0.74,1.11,1.22
	c0.55,0.48,1.74,1.55,1.74,1.55c1.78,1.77,3.55,3.56,4.9,5.4c1.38,1.82,3.37,4.5,4.38,5.47c1.76,1.72,3.35,3.85,4.73,5.92
	c0.4,0.63,0.4,0.63,1.01,1.37c0.18,0.21,0.23,0.3,0.86,1.33c0.7,1.13,2.26,3.53,2.39,3.7c0.73,0.78,1.48,1.7,2.14,2.54
	c1,1.27,1.06,1.3,1.06,1.3c0.55,0.49,1.61,1.43,1.61,1.43c0.43,0.62,3.77,3.01,5.1,3.9c1.76,1.18,3.47,2.52,5.11,3.84
	c0.83,0.65,1.71,1.36,2.31,1.99c0.45,0.44,0.45,0.44,1.96,1.45l0.75,0.52c0.83,0.69,0.83,0.69,1.21,0.88l0.96,0.48l1.06,0.47
	c0.18,0.11,3.02,2.11,3.02,2.11c0.53,1.13,38.22,13.4,39.94,13.7c28.97,4.83,61.99,5.15,90.16-0.47
	c15.77-3.16,43.58-9.09,48.24-11.13c2.06-0.91,14.31-4.4,22.26-6.66c2.87-0.83,6.97-2.01,9.11-2.93c3.22-1.37,7.8-3.31,10.56-3.86
	c7.14-1.43,14.66-4.19,21.3-6.69c7.24-2.7,21.3-8.15,23.11-9.04c0.91-0.47-10.06-4.92-11.94-5.38l-1.11-2.32
	c-0.18-0.6-0.18-0.6-1.01-0.97l-0.4-1.48l-0.93-0.13c-1.11-0.14-1.11-0.14-2.01-0.89l-0.8-0.27l-0.81-0.37l-2.36-1.17l-1.06-0.46
	l-0.8-0.47l-0.75-0.52c-0.98-0.81-0.98-0.81-1.11-0.89c-1.51-0.89-2.51-1.48-4-1.87c-1.56-0.41-3.12-0.98-4.2-1.64
	c-1.1-0.68-1.99-0.91-4.32-1.52c-0.35-0.09-1.36-0.49-1.66-0.59l-1-0.39L924.15,334.41z"/>
<path class="st0" d="M1084.48,97.24c0.96-2.24,2.16-5.04,4.1-6.2c1.03-0.62,7.65-3.01,11.34-4.34c5.36-1.91,9.61-3.67,14.79-5.97
	c0.75-0.33,4.68-2.03,6.76-2.92l7.04-2.82l0.93-0.35l1.16-0.46l1.18-0.47c0,0,3.35-1.34,4.93-1.99l0.91-0.35l1.89-0.72
	c1.13-0.44,2.77-1.07,3.52-1.4c8.37-3.66,16.82-7.32,25.53-10.42c9.56-3.42,19.19-7.37,28.09-11.82c4.25-2.11,8.68-4.06,13.13-5.74
	c4.83-1.82,9.48-3.83,14.03-5.97c9.03-4.25,18.53-8.22,28.12-11.95c3.77-1.47,7.62-2.82,11.47-4.09c4.58-1.55,9.16-3.15,13.58-5.04
	c4.63-1.99,8.9-4.1,13.33-6.32c1.86-0.93,3.97-2.1,5.43-3.46c1.06-0.98,5.01-2.89,6.77-3.68c2.09-0.96,4.6,0.77,5.56,1.57
	c1.71,1.46,3.52,3.56,4.15,6.04c1.71,6.9-3.52,18.85-6.01,23.14c-0.83,1.43-2.99,3.09-4.65,3.69c-2.81,1.01-5.73,2.04-7.49,2.92
	c-0.93,0.48-1.99,0.89-3.04,1.3c-0.91,0.34-2.49,1.13-3.75,1.75c-2.36,1.19-4.9,2.4-7.24,3.52c-0.68,0.3-1.71,0.9-2.59,1.41
	c-1.11,0.63-2.31,1.26-3.49,1.75c-2.11,0.88-5.58,2.29-6.56,2.58c-5.36,1.52-9.81,2.97-14.51,4.79
	c-17.6,6.86-48.61,19.17-54.8,22.26c-18.23,9.1-38.35,16.99-57.37,24.12c-9.86,3.7-21.98,8.25-29.5,11.47
	c-4.58,1.96-11.72,5.03-14.31,6.32c-2.29,1.15-5.16,2.59-6.77,3.51c-1.56,0.88-6.52,3.71-8.02,0.99
	C1080,120.1,1082.44,100.62,1084.48,97.24z"/>
<path class="st0" d="M993.87,507.02c0.96,0.24,2.74,0.69,2.81,0.7c1.01,0.23,2.21,0.5,2.82,0.71c1.76,0.63,3.52,1.26,5.61,1.63
	c1.48,0.28,2.92,0.49,4.45,0.71c1.36,0.2,2.77,0.43,3.97,0.7c1.21,0.27,2.52,0.55,3.75,0.71c1.89,0.23,3.8,0.44,4.68,0.7l14.76,2.8
	c4.93,1.41,11.37,2.49,16.62,2.8c16.37,1.03,37.3-0.48,53.62-3.73c10.54-2.11,21.93-3.94,32.06-5.4c3.97-0.57,7.52-1.57,11.01-2.58
	c3.62-1.03,7.29-2.04,10.76-2.8c4.48-0.99,8.93-2.06,12.65-3.62c2.59-1.09,6.61-2.25,9.83-3.17c2.19-0.62,12.7-6.22,19.69-9.95
	c4.38-2.34,11.24-7.83,16.1-11.76c4.8-3.87,12.22-9.94,14.13-12.32c0.91-1.11,2.56-2.03,3.95-2.62c1.64-0.69,3.27-1.8,4.63-2.85
	c2.64-2.04,5.26-4.37,7.59-6.7c4.6-4.61,10.49-10.5,13.61-14.41c0.98-1.22,2.04-2.39,3.17-3.47c0,0,2.09-2.45,3.12-3.66
	c0.38-0.43,2.09-2.54,3.07-3.75c0.61-0.78,0.88-1.33,1.36-2.39c0.38-0.88,0.85-1.61,1.38-2.34c0.23-0.29,0.38-0.45,1.56-1.72
	c1.26-0.99,1.31-1.04,1.31-1.04c1.26-1.26,2.32-2.43,3.22-4.04c1.89-3.26,4.43-7.75,5.28-10.3c1.23-3.75,2.64-6.31,4.63-9.05
	c1.23-1.68,3.6-6.95,5.08-10.37c0.71-1.62,1.56-3.34,2.34-4.92c0.88-1.75,1.78-3.73,2.46-5.62c1.28-3.56,3.42-9.57,3.27-10.54
	c-0.6-4.39-6.41-16.83-9-22.02c-2.31-4.61-7.12-10.75-11.01-15.68c-3.87-4.93-10.71-13.77-11.95-15.81
	c-1.11-1.84-8.65-9.39-13.86-14.6c-2.21-2.21-4.78-4.79-7.04-6.44c-2.56-1.89-6.09-4.49-7.55-7.42c-1.36-2.75,0.63-11.82,1.41-14.99
	c0.23-0.93,0.23-0.93,0.48-2.34c0.25-1.57,0.3-1.87,0.45-2.56l0.25-0.94l0.23-0.94v-3.51c0-1.64,0-1.64,0.23-3.51
	c0.33-2.52,0.6-4.87,0.96-7.49l0.23-1.17l0.23-0.94c0.45-5.75,0.45-5.75,0.48-5.85c0.75-3.04,1.71-5.81,5.03-6.21
	c5.43-0.65,33.25,27.78,35.36,30.68l0.93,1.41l1.41,2.21c0.73,1.08,2.36,3.51,2.42,3.6c1.61,2.19,4.1,5.58,4.9,6.66
	c1.03,1.42,3.22,4.01,4.8,5.95c1.81,2.15,3.77,4.79,4.73,7.68c4.1,12.26,12.88,40.15,13.48,44.73c0.81,6.16-1.1,17.5-2.34,24.35
	c-1.13,6.23-2.06,12.72-2.82,19.2c-1.26,10.76-3.24,20.44-6.31,29.03c-3.82,10.68-16.2,41.67-16.3,41.8
	c-2.36,3.27-4.95,8.4-7.02,12.52l-2.57,5.86c-1.21,2.36-2.81,5.62-3.95,6.36c-1,0.68-6.69,7.73-9.71,11.52
	c-0.71,0.85-1.43,1.75-2.24,2.54c-1.06,1.06-1.86,2.06-2.62,3.46c-1.28,2.4-2.94,4.98-5,6.64c-4.03,3.26-9.98,8.14-11.42,9.71
	c-1.64,1.75-9.91,8.84-11.79,9.66c-5.53,2.38-11.42,5.17-16.22,8.48c-4.3,2.94-10.71,7.31-16.45,8.25c-1.1,0.19-6.79,2.14-9.35,3.06
	l-0.93,0.23l-1.89,0.7c-0.93,0.35-0.93,0.35-1.86,0.82c-0.1,0.05-1.68,0.63-2.59,0.94c-1.43,0.5-3.04,1.09-4.45,1.64
	c-0.48,0.2-0.48,0.2-1.86,0.59c-0.78,0.23-1.64,0.5-2.34,0.82c-0.7,0.3-1.86,0.7-2.82,1.06l-2.56,0.93l-1.66,0.24l-0.93,0.24h-3.04
	l-2.34,0.11l-2.34,0.11c-2.57,0.13-7.37,0.38-8.27,1.21c-1.41,1.31-1.41,1.31-6.49,1.15l-7.95-0.94c-2.84-0.1-3.5-0.12-4.93,0.23
	c-1.28,0.33-1.28,0.33-3.97,0.24c-3.07-0.1-3.07-0.1-4.9-0.47c-1.36-0.26-1.36-0.26-12.65-0.46c-2.26-0.04-3.92-0.21-6.11-0.48
	c-2.97-0.35-6.69-0.64-10.29-0.93c-5.36-0.43-11.11-1.04-15.69-1.87c-4.27-0.78-6.46-1.16-11.01-1.63
	c-7.59-0.81-14.51-2.05-21.3-3.99c-1.43-0.41-3.24-0.83-4.91-0.95c-3.97-0.25-7.04-0.46-8.9-0.93c-2.97-0.74-6.09-1.36-9.15-1.87
	c-1.16-0.2-2.24-0.37-3.27-0.47l-3.27-0.24l-1.41-0.24c-1.96-0.28-3.82-0.54-5.38-0.93c-0.91-0.23-2.26-0.7-3.27-1.06
	c-1.91-0.67-3.85-1.11-6.09-1.52c-2.31-0.41-14.76-3.67-15.24-4.21c-0.33-0.39,1.18-6.46,1.51-7.83
	C991.5,515.22,993.59,506.84,993.87,507.02z"/>
<path class="st0" d="M828.16,56.31c0.07-0.19,1.53-1.64,2.21-2.31c0.78-0.78,2.34-2.34,2.34-2.34c0.7-0.71,1.51-1.46,2.26-2.06
	c0.91-0.71,2.16-1.69,2.52-2.06c0.68-0.68,1.81-1.52,2.72-2.2c0,0,1.56-1.26,2.34-1.87c0.78-0.63,0.78-0.63,1.18-0.94l1.16-0.93
	c0.5-0.46,0.5-0.46,1.18-0.94c0.53-0.38,1.99-1.43,1.99-1.43c2.51-2.74,12.52-6.96,16.8-8.24c5.48-1.63,24.9-1.87,33.95-1.87
	c12.6,0,77.61,16.99,83.54,21.24c1.46,1.04,3.52,4,3.92,6.05c1.31,6.92-4.6,18.88-7.44,22.2c-4.73,5.56-43.56,27.02-51.71,29.44
	c-0.23,0.08-4.73,2.05-7.24,3.16c-1.56,0.69-5.51,2.24-8.2,3.28c-0.93,0.37-3.27,1.28-3.27,1.28c-1.21,0.52-2.31,0.98-3.52,1.41
	c-1.43,0.52-2.72,1.12-3.97,1.76c0,0-2.29,0.97-3.07,1.28c-4.88,2.04-10.59,4.4-14.99,5.62c-0.85,0.24-1.46,0.38-2.56,0.47
	l-3.52,0.24l-2.79,0.24c0,0-3.04,0.88-4,1.16c-3.47,1.11-8.1,1.32-11.92,0.48c-2.51-0.55-4.3-2.33-5.93-3.94
	c-1.23-1.22-0.48-4.68,0.2-5.78c3.12-5.18,26.21-16.06,40.84-22.95c3.42-1.6,6.69-3.45,9.83-5.38c1.81-1.11,7.95-4.21,11.72-6.09
	c3.85-1.94,7.75-3.86,11.69-5.62c3.12-1.37,9.91-4.6,11.32-6.01c0.5-0.5-4.33-1.47-4.98-1.6c-2.14-0.43-3.97-0.87-5.86-1.52
	c-1.18-0.41-2.74-0.8-4.68-1.3c-1.41-0.35-2.87-0.72-4.22-1.17c-5.06-1.68-17.91-3.53-27.64-4.92c-4.3-0.62-22.11,0.99-30.88,1.87
	c-6.36,0.64-17.25,8.3-21.5,11.87c-1.28,1.08-3.24,2.46-4.95,3.7c-0.71,0.45-0.81,0.53-3.77,3.06c-2.84,2.23-8.05,6.31-9.91,4.83
	c-0.55-0.44,1.01-15.54,1.86-17.24c1.11-2.26,2.06-4.65,2.79-7.03C824.74,60.75,826.52,57.95,828.16,56.31z"/>
<path class="st1" d="M611.25,400.25c7.27,3.66,43.61,13.67,51.33,12.01l-1.91-2.42c-0.3-0.43-0.98-1.41-1.48-2.07
	c-1.61-2.19-3.12-4.27-4.02-6.94c-0.15-0.44-0.4-1.24-0.48-1.63l-0.23-2.58l-0.25-1.17c-0.25-1.15-0.55-2.25-0.9-3.28
	c-0.96-2.65-2.82-7.75-3.17-8.66c-3.12-7.61-7.29-14.61-11.52-21.26c-1.51-2.35-5.53-7.38-8.15-8.35c-2.64-0.98-5.99-2.21-8.45-2.11
	c-3.35,0.14-14.74,8.41-17.13,10.61c-1.03,0.96-4.95,4.1-7.29,5.97c-1.23,0.98-2.69,2.14-3.8,2.73c-1.36,0.73-4.33,2.41-4.63,2.74
	c-0.6,0.58-4.43,8.32-4.48,9.44c-0.15,2.16-0.15,2.16,1.51,2.69c1.01,0.31,1.78,0.77,2.56,1.28c1.41,0.94,2.82,1.87,4.23,2.82
	C596.28,392.25,609.64,400.24,611.25,400.25z"/>
<path class="st0" d="M693.89,46.91c-0.55-0.62-0.55-0.62-1.03-0.71c-0.53-0.11-1.23-0.24-1.06-1.06l1.94,0.63
	c0.5-0.54-1.36-3.8-2.97-2.04l-0.38-0.82c0.13-1.02,0.18-1.8,0.18-1.8c-1.46-1.01-0.18,2.85,0.15,3.24l0.25,0.78
	c0.13,0.33,0.65,1.82,0.65,1.82c0.25,0.47,1.11,1.63,1.53,2.2c0.33,0.43,1.28,1.95,1.68,3.23l0.25,1.3c0,0.1,0.96,2.64,0.96,2.64
	l1.13,0.28l0.63-0.39c0,0.06-1.71,2.34-1.91,2.5c-0.33,0.26-0.98,0.75-1.36,0.54c-0.2-0.1-0.8-0.44-0.85-0.3l0.75,1.01
	c0,0-14.84,5.52-16.22,5.9c-6.39,1.77-14.11,3.92-17.78,5.16c-6.16,2.05-12.62,3.89-19.47,5.85c-4.78,1.37-10.26,3.65-14.99,5.62
	c-0.4,0.18-1.99,0.64-3.02,0.94c-0.78,0.21-2.74,0.87-4,1.28l-1.86,0.59l-1.41,0.47c-1.53,0.54-3.29,1.17-4.68,1.63
	c-5.31,1.77-12.75,4.25-15.92,5.4l-4,1.4c-1.43,0.52-4,1.43-4.2,1.52c-2.34,1.02-4.85,1.94-7.49,2.69
	c-1.16,0.34-2.34,0.75-3.52,1.17c-1.16,0.41-2.34,0.8-3.52,1.18c-0.85,0.26-0.85,0.26-1.86,0.69c-0.83,0.37-1.51,0.64-2.34,0.95
	l-2.59,0.93c-1.11,0.35-1.11,0.35-2.11,0.7c-21.2,7.58-43.06,15.12-65.54,21.55c-10.16,2.88-20.87,6.5-30.68,10.19
	c-6.09,2.27-11.84,4.44-16.3,7.02c-4.27,2.5-10.71,6.18-15.09,7.14c-1.48,0.33-2.99-0.05-3.7-0.85c-1.66-1.95,1.69-21.91,2.29-25.49
	c0.35-1.82,3.87-6.45,5.38-7.37l3.52-0.94c1.61-0.58,3.22-1.25,4.68-1.99c0.78-0.39,6.23-2.82,9.38-4.21
	c5.96-2.65,12.05-4.99,18.49-7.14l7.04-2.35l2.82-0.93l2.11-0.71c1.61-0.58,1.61-0.58,2.32-0.82l1.41-0.47l1.41-0.47l0.96-0.35
	l1.16-0.35l3.97-1.41l2.36-0.7l0.9-0.35l0.96-0.35c1.46-0.55,2.82-1.06,4.45-1.52c9.68-2.77,19.04-5.81,28.34-8.9
	c2.21-0.74,4.5-1.52,6.79-2.34l1.61-0.7l1.41-0.47c0.96-0.31,0.96-0.31,1.66-0.58c0.9-0.36,1.84-0.72,2.79-1.06
	c5.81-2.07,13.08-4.66,17.33-6.09c10.26-3.42,30.13-10.12,32.8-11.13c9.33-3.5,19.87-7.02,30.43-10.54
	c5.63-1.87,11.27-3.94,16.65-6.09c1.89-0.75,5.58-1.82,8.65-2.69c2.36-0.67,4.55-1.37,6.79-2.11l2.82-0.93l3.52-1.18l7.47-2.56
	c1.08-0.35,2.16-0.65,3.27-0.94c1.43-0.35,2.69-0.74,4-1.17c0,0,3.65-1.36,4.68-1.76c1.06-0.4,1.06-0.4,1.64,0.48l0.7,0.46
	c-2.89-2.54,4.68-3.68,5.86-3.63c2.01,0.1,4.55,3.4,5.63,4.92c1.36,1.98,1.33,4.85,1.26,8.09c-0.05,3.51-4.38,12.71-6.11,14.75
	c0.28-1.89,0.33-2.1,0.15-2.58c-0.43-1.13-1.13-2.16-1.64-2.8c-0.63,0.26-2.26-0.92-2.57-1.17L693.89,46.91z"/>
<path class="st0" d="M276.4,236.92c1.3-1.34,2.88-1.61,5.4-1.52c0.13,0,3.82,2.96,5.93,4.64c0.19,0.16,2.03,1.76,2.9,2.55
	c0.96,0.83,2.03,1.6,3.1,2.29l1.29,0.93c0.24,0.18,1.53,0.99,2.23,1.41l0.8,0.48l0.83,0.46c0.7,0.43,2.06,1.28,2.3,1.45
	c0.72,0.54,1.96,1.77,2.89,2.71c0.85,0.87,1.89,1.82,2.84,2.55c1.5,1.12,11.57,13.53,11.98,15.29c0.65,2.83-0.41,6.49-1.52,8.2
	c-4.61,7.17-15.3,22.95-17.28,24.63c-2.61,2.23-7.09,5.87-11.13,2.92c-3.45-2.52-7.05-5.14-11.17-6.94
	c-8.1-3.55-15.15-8.67-21.63-13.9c-4.58-3.71-2.68-7.52-0.26-12.34c0.74-1.48,2.01-3.39,3.24-5.23l0.38-0.74l0.48-0.82
	c0.11-0.2,0.11-0.2,1.02-1.32c0.62-0.79,1.26-1.69,1.79-2.54c0.41-0.68,1.28-2.15,1.41-2.69c0.47-1.92,1.08-4.51,1.17-4.69
	c0.07-0.16,1.3-2.06,1.87-2.93c0.69-1.04,1.28-2.21,1.87-3.39C270.38,245.92,275.07,237.6,276.4,236.92z"/>
<path class="st0" d="M202.06,256.59c2.51-1.8,9.14,1.74,12.06,3.28c3.66,1.95,8.57,4.1,13.1,6.09c1.69,0.73,23.28,13.05,23.41,13.23
	c5.46,6.75-21.44,44.45-23.99,46.25c-0.73,0.52-5.21,0.65-4.99,0.19c0.19-0.39-7.68-5.24-8.24-5.57c-3.65-2.25-7.41-4.29-11.48-6.09
	l-1.17-0.48l-1.16-0.46l-0.95-0.35l-2.11-1.17l-0.82-0.35l-0.82-0.35l-0.93-0.35l-0.7-0.35l-0.95-0.35l-1.86-0.93l-1.46-1.13
	l-1.84-0.39c-0.5-0.15-1.24-0.58-1.63-0.82c-0.75-0.47-1.71-0.92-2.58-1.3c-1.21-0.52-2.56-1.09-3.04-1.99
	c-0.28-0.54-1.64-4.78-0.35-5.62c0.29-0.82,0.29-0.82,0.82-1.87l1.41-2.8c0.44-0.89,1.36-2.59,1.95-3.36
	c0.33-0.4,0.58-0.77,0.86-1.21c2.4-3.91,4-6.66,5.39-11.83C190.68,273.96,200.85,256.93,202.06,256.59z"/>
<path class="st0" d="M149.65,644.74c-1.5-2.5-0.24-8.17,0.43-11.15c0.18-0.82,0.28-1.16,0.58-1.87c0.37-0.83,0.64-1.48,0.72-1.99
	l0.11-2.46l-0.24-0.93c-0.14-2.58-0.14-2.58,0.35-4.69c1.16-5.01,2.58-9,7.27-10.19c3.72-0.93,16.42-5.16,25.52-8.19l1.41-0.48
	l1.87-0.7l1.64-0.58c1.52-0.54,2.98-1.07,4.45-1.64c1.32-0.52,2.59-0.94,3.97-1.41c1.84-0.62,5.06-1.86,7.49-2.82
	c1.89-0.73,3.9-1.38,5.86-1.99c2.39-0.75,5.5-1.71,7.25-2.11c2.33-0.5,4.79-1.13,7.02-1.86c4.35-1.46,11.74-3.95,13.35-4.58
	c4.14-1.61,8.36-3.13,12.65-4.56c0.96-0.31,2.04-0.64,3.04-0.93c0.47-0.14,2.05-0.64,3.04-0.94c2.41-0.75,4.97-1.56,7.25-2.45
	c5.42-2.11,11.85-4.61,16.4-6.55c4.55-1.96,9.46-3.67,14.27-5.28c6.93-2.3,17.86-6.2,26.71-9.36c5.09-1.82,10.28-3.77,15.2-5.74
	c1.41-0.57,1.41-0.57,2.11-0.93l1.41-0.82c0,0,2.31-0.67,3.27-0.94c2.29-0.64,6.66-1.95,7.27-2.23c1.99-0.89,4.42,0.64,5.56,1.45
	c8.8,6.34,0.5,23.37-3.27,29.41c-0.9,1.47-2.97,2.74-4.88,3.22c-0.91,0.23-2.24,0.47-3.5,0.71l-1.18,0.23l-2.56,0.24
	c-0.9,0.1-1.31,0.21-2.34,0.47c-4.05,1.01-8.68,2.99-12.88,4.8c-7.65,3.27-15.29,6.46-23.43,8.78c-8.81,2.53-17.3,5.7-25.27,9.26
	c-2.08,0.91-4.21,1.78-6.56,2.45l-0.94,0.24l-1.16,0.23l-0.96,0.24c-1.13,0.29-2.24,0.56-3.27,0.93c-2.19,0.78-4.38,1.75-6.55,2.7
	c-2.36,1.03-5.14,2.25-7.27,3.04c-0.93,0.35-0.93,0.35-1.64,0.58l-2.34,0.71l-4.23,1.17l-10.06,3.75c-1.41,0.46-3.57,1.18-4.45,1.41
	c-1.72,0.43-3.1,0.88-4.68,1.41c-0.65,0.21-2.38,0.79-3.52,1.17l-3.04,0.93l-1.86,0.7c-0.63,0.23-4.7,1.17-6.8,1.64
	c-2.38,0.54-4.87,1.18-7.02,2c-3.87,1.45-7.77,2.78-11.72,4.1c-4.82,1.6-9.16,3.17-13.81,4.92c-0.96,0.35-1.87,0.71-2.8,0.93
	c-0.94,0.23-2.4,0.72-3.76,1.17c-1.54,0.44-1.54,0.44-1.86,0.59l-2.11,0.95l-0.94,0.46l-1.17,0.47c-0.36,0.14-4.2,1.77-6.09,2.58
	C154.93,645.24,151.64,646.64,149.65,644.74z"/>
</svg>
