<?xml version="1.0" encoding="utf-8"?>
<!-- Generator: Adobe Illustrator 23.0.3, SVG Export Plug-In . SVG Version: 6.00 Build 0)  -->
<svg version="1.1" id="Layer_1" xmlns="http://www.w3.org/2000/svg" xmlns:xlink="http://www.w3.org/1999/xlink" x="0px" y="0px"
	 viewBox="0 0 500 200" style="enable-background:new 0 0 500 200;" xml:space="preserve">
<style type="text/css">
	.st0{fill-rule:evenodd;clip-rule:evenodd;fill:#231F20;}
	.st1{fill-rule:evenodd;clip-rule:evenodd;fill:#FFFFFF;}
</style>
<path class="st0" d="M316,98c-0.1,0.2-0.1,0.2-0.2,0.1c-0.2-0.1-0.5-0.2-0.5-0.4l0.2,0c0.2,0.1-0.8-0.5-1.1-0.6
	c-0.1-0.1-1.6-0.5-1.2-0.2v0l-0.3-0.1l-0.2-0.4l-0.4,0l-0.2-0.1c-0.1-0.1-0.1-0.1-0.5-0.2c0,0-0.6-0.2-0.9-0.3
	c-0.3-0.1-0.9-0.3-0.9-0.3c-0.2-0.1-0.7-0.3-1-0.4c-0.3-0.1-0.7-0.3-0.9-0.3l-0.7-0.2l-0.3,0l-0.3,0l-0.2-0.2
	c-0.2,0.1-0.2,0.1-0.3,0.1l-0.4-0.3l-0.6-0.2c-0.4-0.1-0.6-0.2-0.7,0.1c-0.1,0.2-0.6,0-0.9,0l-0.5-0.1l-0.5-0.2
	c-0.7-0.1-0.9-0.1-1-0.1c-0.3,0.1-1.1,0.1-1.2,0.1c-0.2,0-0.5-0.3-0.6-0.4c0,0-0.5-0.1-0.5-0.1c-0.2,0-1.3-0.1-0.5,0.1
	c0.1,0,0.3,0.1,0.2,0.2c0,0-0.9,0-0.9,0c-0.7,0-0.7,0-0.9,0l-0.4,0.1l-0.2,0.1l-0.7,0c-0.6,0.2-3,0.4-3,0.3c0.1-0.1,0.2-0.2,0.2-0.2
	c-0.4-0.2-0.6,0.5-0.7,0.7l-0.8,0.1l0.2,0c0.2,0,0.3,0,0.3,0.2c0,0-2,0.3-2,0.3c-0.5,0.1-2.3,0.3-2.3,0c0.2-0.1,0.3-0.1,0.3-0.2
	c0,0-0.7,0.1-0.8,0.6c-0.1,0.6-0.2,0.7-0.9,0.9c-0.1,0-0.8,0.4-0.8,0.4c0.1,0.1,1.1-0.3,1.2-0.4l0.3,0c0.4,0-0.6,0.4-0.6,0.5
	c-0.3,0.1-0.9,0.4-1,0c0,0-0.6,0.4-0.6,0.4l-0.3,0.1l-0.4,0.1c-0.4,0.1-0.9,0.5-1.3,0.8c-0.2,0.1-0.5,0.4-1,1
	c-0.4,0.3-0.8,0.6-1.2,0.8c-1.8,0.8-1.2-1.9-0.9-2.5c0.4-0.8,1.1-2,1.7-2.9c0.2-0.3,0.2-0.3,0.3-0.9c0-0.5,0.1-0.9,0.1-1.1
	c0.1-0.1,0.5-1.1,0.8-1.6c0.1-0.2,0.2-0.5,0.4-0.7c0.2-0.3,0.3-0.5,0.4-0.9c0.1-0.5,0.7-1.5,1.2-2l0.3-0.3l0.6-0.6
	c0.4-0.4,0.8-0.8,1.2-1.1c0.4-0.3,0.8-0.8,1.2-1.2c0.4-0.4,1-0.9,1.5-1.2l0.2-0.1c0.2-0.1,0.2-0.1,0.4-0.2c0.3-0.2,0.8-0.5,0.8-0.5
	l0.7-0.4c0.3-0.2,0.8-0.5,0.8-0.5c0.8-0.5,2.3-1.5,2.5-1.5c1.5-0.5,6.3-2.1,7.1-1.6c0.1,0.1,0.5,0.2,0.7,0.3
	c0.3,0.1,0.6,0.2,0.8,0.3c0.7,0.3,1.3,0.6,1.9,1c0.5,0.3,1.2,0.7,1.5,0.9c0.3,0.1,0.6,0.3,0.9,0.4c0.4,0.1,0.8,0.2,1,0.3
	c0.1,0,0.2,0.2,0.3,0.3c0.1,0.1,0.1,0.1,0.3,0.3c0.3,0.2,0.3,0.2,0.3,0.2l0.4,0.2c0.5,0.3,1,0.7,1.5,1c0.5,0.3,1.2,0.7,1.6,0.8
	c0.6,0.2,1.1,0.5,1.6,0.8c0,0,0.4,0.2,0.5,0.4c0.2,0.2,0.5,0.3,0.7,0.5c0,0,0.6,0.3,0.8,0.5c0.3,0.2,0.8,0.5,0.8,0.5
	c0.3,0.2,0.5,0.3,0.8,0.5c0.3,0.2,0.6,0.3,0.9,0.5c0.3,0.2,0.6,0.3,0.9,0.4c0.2,0.1,0.2,0.1,0.5,0.1c0.2,0,0.6,0.1,0.7,0.1
	c0.1,0,0.3,0.2,0.4,0.3c0.1,0.1,0.2,0.1,0.3,0.2c0.3,0.2,0.5,0.3,0.8,0.5c0.1,0,1.3,0.6,2,0.9c1.2,0.5,3.6,1.6,3.9,1.6
	c1,0.2,3.1,1,4.7,1.5c1.6,0.5,5.2,1.6,5.4,1.7c2.8,0.4,5.5,0.9,8.1,1.4c0.7,0.1,1.6,0.2,2.5,0.3c0.7,0.1,1.3,0.2,1.9,0.4
	c0.2,0.1,4.3,0.7,4.3,0.7s12.1,0.1,13,0.4c1.3,0.3,2.8,0.3,4.4,0.2c0.5,0,1.3-0.1,1.7-0.2c0.4-0.2,0.4-0.2,1.2-0.2
	c0.4,0,0.9,0.6,1,1c0.4,1.5-1.4,4.8-2.1,5.8c-0.5,0.7-1,1.4-1.3,2.3c-0.3,0.9-0.7,2-1.3,2.5c-0.3,0.3-2.9,2.4-3.4,1.7
	c-0.3-0.5-0.9-1-1.4-1.2c0,0-1-0.2-1.4-0.3l-0.2-0.1l-0.2-0.1l-0.5-0.1l-0.2-0.1c-0.8-0.2-1.9-0.2-2.8-0.2c-1.5,0-1.5,0-2.1,0
	c-0.6,0.1-1,0.1-1.5,0c-1.9-0.1-3.9-0.2-5.8-0.2c-1,0-1.8-0.1-2.7-0.2c-0.5-0.1-0.5-0.1-0.6-0.1c-1,0.1-2.2,0.1-2.6,0.1
	c-0.8,0-2.1-0.1-2.7,0.1c-0.6,0.1-1.1,0.1-2.1,0.2c-1,0-2.3,0.3-3.2,0.6c-0.3,0.1-0.7,0.2-1,0.3c-1.1,0.1-1.4,0.1-2.1,0.4
	c-0.3,0.1-1.1,0.2-1.7,0.2c-0.5,0.1-0.9,0.1-1.3,0.4c0,0-0.9,0.4-1.5,0.6c-0.6,0.2-1.2,0.5-1.8,0.7c-0.2,0.1-0.6,0.3-0.9,0.4
	c-0.3,0.1-0.6,0.3-1,0.4c-0.1,0-0.1,0-0.5,0.1c-0.3,0.1-0.3,0.1-0.5,0.2c-0.2,0.1-0.4,0.2-0.6,0.2c-0.4,0.2-0.4,0.2-0.5,0.2
	c-0.4,0.1-0.7,0.2-1.1,0.3c-0.3,0.1-0.6,0.1-0.9,0.2c-0.1,0-1.2,0.5-1.7,0.8c-0.3,0.1-0.6,0.3-0.9,0.4l-0.4,0.1
	c-0.5,0.1-0.5,0.1-0.6,0.2c-0.7,0.3-1.3,0.5-2,0.8c0,0-1,0.3-1.5,0.5c-0.6,0.2-1.1,0.4-1.6,0.7c-1,0.6-2.5,1.1-3.6,1.4
	c-2.4,0.7-7.2,2.2-7.6,2.4l-0.3,0.1l-0.2,0.1c-0.2,0.1-0.5,0.3-0.8,0.4c-0.2,0.1-0.6,0.3-0.8,0.3c-1,0.1-1.7,0.1-2.3,0.2
	c-1.3,0.2-2.7,0.6-3.9,1c-1.5,0.6-3.1,1.1-5.2,1.3c-0.9,0.1-2.3,0.3-3.3,0.5l-1,0.2c-0.2,0.1-0.4,0.1-0.7,0.1l-1.7,0.1l-0.2,0.1
	l-0.5,0.1l-0.3,0.1c0,0,0,0-1.5-0.1c-0.5,0-0.6,0-1,0.1c-0.6,0.2-1.2,0.4-1.7,0.6c-1,0.5-1.4,0.3-2.2-0.2c-0.2-0.1-0.7-0.1-1.2-0.1
	c-0.2,0-0.9-0.1-1.8-0.3c-0.3-0.1-1.1-0.1-1.3-0.1l-1,0.1h-0.4l-0.5-0.1l-0.4-0.2c-0.6-0.1-1.2-0.2-2-0.1l-0.7,0.1
	c-0.4,0.1-0.6,0.1-1,0.1l-0.2-0.1l-0.1-0.2l-0.5-0.1c-0.2,0-1.5-0.1-1.6-0.1l-0.4,0.1h-0.7c-0.2,0-0.7-0.3-0.8-0.4
	c-0.3-0.3-0.5-0.5-0.7-0.5c-0.2,0-0.5,1.1-0.6,1.4l-0.2,0.7c-0.1,0.2-0.2,0.7-0.2,0.7c-0.1,0.3-0.3,0.8-0.4,1l-0.2,0.4l-0.1,0.3
	l-0.1,0.2l-0.1,0.3l-0.1,0.2l-0.1,0.3l-0.1,0.2l-0.1,0.3c-0.1,0.4-1,1.2-1.5,1.3c-0.5,0.1-5.5,0.1-6.3-0.1c-0.9-0.2-2-0.4-3.2-0.5
	c-0.1,0-1.6-0.3-2.4-0.5c-0.3-0.1-0.3-0.1-0.9-0.1c-0.4,0-0.6-0.1-1-0.2l-0.3-0.1l-0.5-0.2c-0.2,0-1.1-0.2-1.8-0.2
	c-0.3,0-0.7-0.2-1-0.3c-0.9-0.4-3-0.9-4.3-1.2c-1.5-0.4-3.8-1-5-1.6c-0.5-0.3-2-2-2.5-2.5c-0.2-0.2-0.4-0.4-0.6-0.6l-0.6-0.6
	c-0.2-0.2-0.3-0.5-0.4-0.7c-0.1-0.3-0.3-0.9-0.4-0.9c0,0-0.3,0.2-0.4,0.2c-0.3,0.2-0.5,0.2-0.9,0.2c-0.1,0-0.7-0.9-0.9-1.2
	c-0.1-0.1-0.9,0.7-0.9,0.8c-0.3,0.3-0.5,0.6-0.8,0.9c-0.1,0.1-0.5,0.8-0.7,1.2l-0.1,0.2l-0.1,0.3l-0.1,0.3c-0.1,0.1-0.3,0.5-0.5,0.7
	c-0.4,0.5-0.9,0.9-1.4,1.3c-0.1,0.1-1,1-1.5,1.5c-0.3,0.3-1,0.9-1.5,1.3c-0.1,0.1-0.1,0.1-0.5,0.4l-0.3,0.2
	c-0.2,0.2-0.8,0.7-0.8,0.7c-0.4,0.6-3.9,2.6-5.5,3.5c-0.5,0.3-5.6,0.5-6.1,0.1l-0.3-0.1c-0.2-0.1-0.5-0.2-0.7-0.4c0,0,0,0-0.4-0.2
	L201,134l-0.4-0.2c-0.3-0.2-0.6-0.4-0.8-0.7c-0.2-0.3-0.5-0.7-0.8-0.9c-1.2-0.8-3-2.1-3.5-2.8c-1-1.1-2-2.2-3-3.2
	c-0.5-0.5-1.1-1-1.7-1.4c-0.2-0.2-0.5-0.6-0.7-0.9c0,0-0.5-0.7-0.7-1c-0.2-0.3-2,1.6-2.2,1.7c-0.1,0.2-0.3,0.3-0.4,0.5
	c-0.3,0.3-0.6,0.5-0.9,0.8c-0.3,0.2-0.5,0.5-0.8,0.7c-0.2,0.1-0.4,0.4-0.4,0.5c-0.1,0.1-0.2,0.3-0.4,0.4c-0.5,0.5-1.4,1.3-1.6,1.6
	c-2.5,2-5.3,3.7-8.3,5.3c-2.6,1.4-5.1,2.4-7.7,3.6c-2.3,1-4.9,1.7-7.5,2.4c-0.8,0.2-1.6,0.3-2.5,0.5c-0.4,0.1-0.8,0.1-1.1,0.3
	l-0.2,0.1l-0.2,0.1c-0.2,0.1-0.5,0.2-0.8,0.3l-0.4,0.1l-0.7,0.1c-0.3,0-0.3,0-0.5,0.1c-0.3,0.1-0.8,0.3-1.1,0.3l-0.6,0.1l-0.6,0.1
	c-0.3,0-0.4,0.1-0.7,0.1c-0.4,0.1-0.4,0.1-0.6,0.1c-0.5,0-2,0.2-2,0.2c-0.3,0.1-0.6,0.2-0.9,0.2c-0.2,0.1-0.2,0.1-1,0.1
	c-1.3,0-1.3,0-1.9,0.2c-0.2,0.1-0.2,0.1-0.4,0.1l-0.5,0.1l-1.9,0.1c-0.1,0-0.8,0.1-0.9,0.1l-0.7,0.2l-0.2,0.1
	c-0.1,0-0.5,0.1-0.5,0.1h-0.7c-1.6,0-1.6,0-1.8,0c-1.9,0.3-3.5,0.4-5.7,0.4l-1.4,0l-0.4,0c-0.8,0-0.8,0-1.2,0.1
	c-0.5,0.1-1.1,0-1.6-0.1c-0.1,0-0.3,0-0.5,0.1l-0.6,0.1c0,0-0.9-0.1-1.5-0.2c-0.8-0.1-1.8,0-2.5,0.1c-0.8,0.2-1.9,0.1-2.6,0
	l-0.5-0.2L117,144c-0.3-0.1-0.7-0.2-1-0.3c-0.5-0.1-1.2,0-1.9,0.1c-0.4,0-0.7-0.1-1-0.2c-0.3-0.1-0.6-0.2-1-0.2
	c-0.7,0-1.2-0.1-1.6-0.3c-0.3-0.1-0.6-0.3-1-0.3c-0.5-0.1-1.4-0.3-1.6-0.3c-0.3-0.1-0.7-0.3-1-0.4l-0.4-0.1
	c-1.5-0.1-1.5-0.1-1.7-0.2c-0.6-0.2-1.6-0.6-2.1-0.7c-0.8-0.1-1.5-0.4-2.2-0.7c-0.8-0.3-1.5-0.7-2.3-1c-0.8-0.3-1.4-0.5-2-1
	c-0.8-0.6-2.1-1.1-3.3-1.7c-1.1-0.5-2.4-1.7-2.6-2.7c-0.1,0.1-0.1,0.2-0.3,0c-0.1-0.1-0.3-0.3-0.5-0.5c-0.2-0.2-0.2-0.2-0.1-0.5
	c0-0.4-0.1-0.6-0.2-0.9l-0.3,0l-0.2,0c-0.2,0-0.5-0.1-0.8-0.4c-0.1-0.2-0.2-0.3-0.4-0.5l-0.1-0.2l-0.3-0.3c-0.1-0.2-0.3-0.4-0.5-0.7
	l-0.1-0.2c0,0-0.2-0.4-0.4-0.5c-0.1-0.2-0.2-0.3-0.3-0.6c-0.1-0.2-0.2-0.4-0.4-0.5c-0.5-0.5-1.5-3.3-2-4.6l-0.1-0.4l-0.1-0.3
	l-0.2-0.1c-0.1-0.1-0.2-0.3-0.2-0.4c-0.1-0.3-0.2-0.6-0.1-1c0-0.4,0.1-1.6,0.1-1.6c-0.2-1.8-0.3-3.2,0.1-4.8
	c0.2-0.7,0.4-1.4,0.7-2.2c0-0.1,0-0.8-0.1-1.7c0-0.5,0-0.7,0.1-1.3c0.1-0.4,0.2-1,0.2-1.1c0-0.4,0.3-1,0.5-1.3c0,0,0.4-0.9,0.5-1.3
	c0.3-0.9,0.7-1.9,0.9-2.6c0.4-1.8,1.3-3.6,2-5.1c0.7-1.5,1.6-2.8,2.6-4.1c0.3-0.4,0.9-1.8,1.2-2.5c0.2-0.4,0.8-1.3,1.3-2
	c0.2-0.3,0.9-0.6,1.4-0.7c0.2,0,0.8,0.3,0.8,0.4c0.4,0.8-1,3.5-1.5,4.6c-0.7,1.4-1.6,3.3-1.9,4.3c-0.3,1.3-0.7,2.4-1.1,3.5
	c-0.5,1.3-0.9,2.7-1.1,4.2c-0.2,1.6,0.3,7,1.1,7.8l0.1,0.3l0.7,1.1c0.3,0.3,0.4,0.7,0.6,1.2c0.3,0.7,1.1,2.3,1.7,2.7l0.2,0.3
	c0.3,0.3,0.3,0.3,0.5,0.6c0.3,0.3,0.3,0.3,0.3,0.3c0.4,0.4,0.9,0.9,1.3,1.4c0.7,0.8,2,2.1,2.8,2.5c2.5,1.2,5.9,2.9,7.7,3.6
	c1.3,0.4,2.8,0.8,4.2,1.2c0.2,0.1,0.2,0.1,0.7,0.2c0.4,0.1,0.4,0.1,0.7,0.1c0.2,0.1,0.2,0.1,0.5,0.1c0.3,0.1,0.4,0.1,0.7,0.2
	c0.3,0.1,0.6,0.2,1,0.3c0.2,0.1,0.4,0.1,0.6,0.1c0.5,0.1,1,0.1,1.3,0.2c0.4,0.1,0.9,0.2,1.3,0.3l0.3,0.1l0.5,0.1l0.5,0.1
	c0.5,0.2,0.7,0.2,2.4,0.2c1.2,0.1,2.4,0.2,3.5,0.3c0.6,0.1,0.7,0.1,1.5,0.1l1.4-0.1h1.4h3.3c2.3,0,6.3,0,7.6-0.2
	c0.8-0.1,2.1-0.2,3.2-0.3c0,0,1.7-0.3,2.4-0.4l0.8-0.1l0.7-0.1c0.5,0,0.5,0,1-0.1l0.4-0.1l0.4-0.1l0.3-0.1c0.6,0,0.7-0.1,1.2-0.2
	c1.3-0.3,2.5-0.4,3.8-0.6c1.3-0.2,2.7-0.4,3.9-0.7c3.6-0.8,7.3-1.8,10.6-2.9c1.6-0.5,8.8-3.6,9.6-4.4c0.2-0.2,1.4-0.8,1.9-1.1
	c0.5-0.2,1.4-0.8,2-1.2c1-0.6,3.5-2.3,3.6-2.4c0.3-0.4,1.3-1.2,1.9-1.8c0.3-0.2,0.7-0.7,1.1-1.2l0.4-0.5c0.2-0.3,0.2-0.3,0.2-0.3
	c1-1.2,2.1-2.8,2.7-4.3c0.6-1.8,1.8-4,3-5.4c0.2-0.2,0.9-0.4,1.1-0.1c0.5,0.5,0.7,0.8,0.7,0.9c0.2,0.8,0,1.9-0.2,2.6
	c-0.2,0.8-0.5,1.6-0.8,2.3c-0.3,0.6-0.6,1.3-0.7,2c-0.1,0.4-0.4,1.3-0.7,1.9c-0.3,0.7-0.9,2.3-0.9,2.3c-0.1,0.3,1.3,2,1.9,2.8
	c0.3,0.4,0.7,0.7,1.1,1c0.4,0.3,0.9,0.7,1.3,1.1c0.5,0.5,1.8,1.3,2.7,1.9c1.3,0.8,7.3,0.7,9.3,0.4c0.9-0.1,1.5-0.1,2.3,0.2
	c0.3,0.1,1.3-0.4,1.6-0.6c0.5-0.3,1-0.5,1.4-0.8c0.1-0.1,0.4-0.4,0.7-0.5c0.2-0.2,0.5-0.4,0.7-0.5c0.9-0.6,1.7-1.3,2.4-2.1
	c0.4-0.4,0.8-0.8,1.2-1.1c0.4-0.3,0.9-0.8,1.2-1.2c2.1-3.2,10.2-14.1,10.6-14.3c0.2-0.2,0.2-0.2,0.7-0.8c0.1-0.1,0.5-0.5,0.8-0.8
	c0.3-0.3,0.3-0.3,0.3-0.3c0.3-0.3,0.6-0.5,0.9-0.8c0.3-0.3,0.7-0.6,1.1-0.9c0.3-0.2,0.7-0.4,1.1-0.6c0.6-0.2,0.9-0.4,1.3-0.8
	c0.6-0.5,1.6-1.3,2.3-1.4c0.6-0.1,0.9,0.2,1.1,0.6c0.2,0.3,0.2,0.3,0.5,0.3c0.7,0,1.1,0,1.4,0.2c1,0.7,2.1,1.9,3.1,3
	c0.2,0.2,0.2,0.2,0.3,0.3c0.1,0.2,0.1,0.2,0.3,0.3c0.1,0.1,0.4,0.4,0.4,0.4c0.5,0.5,0.9,0.9,1.2,1.4c0.4,0.5,0.9,1.1,1.1,1.4
	c0.4,0.4,0.9,1,1.2,1.5c0.1,0.2,0.1,0.2,0.3,0.3c0,0.1,0.1,0.1,0.2,0.3c0.2,0.3,0.6,0.9,0.6,0.9c0.2,0.2,0.4,0.4,0.5,0.6
	c0.3,0.3,0.3,0.3,0.3,0.3c0.1,0.1,0.4,0.4,0.4,0.4c0.1,0.2,1,0.8,1.3,1c0.4,0.3,0.9,0.6,1.3,1c0.2,0.2,0.4,0.3,0.6,0.5
	c0.1,0.1,0.1,0.1,0.5,0.4l0.2,0.1c0.2,0.2,0.2,0.2,0.3,0.2l0.2,0.1l0.3,0.1c0,0,0.8,0.5,0.8,0.5c0.1,0.3,9.7,3.4,10.2,3.5
	c7.4,1.2,15.8,1.3,23-0.1c4-0.8,11.1-2.3,12.3-2.8c0.5-0.2,3.6-1.1,5.7-1.7c0.7-0.2,1.8-0.5,2.3-0.7c0.8-0.3,2-0.8,2.7-1
	c1.8-0.4,3.7-1.1,5.4-1.7c1.8-0.7,5.4-2.1,5.9-2.3c0.2-0.1-2.6-1.3-3-1.4l-0.3-0.6c0-0.2,0-0.2-0.3-0.2l-0.1-0.4l-0.2,0
	c-0.3,0-0.3,0-0.5-0.2l-0.2-0.1l-0.2-0.1l-0.6-0.3l-0.3-0.1l-0.2-0.1l-0.2-0.1c-0.2-0.2-0.2-0.2-0.3-0.2c-0.4-0.2-0.6-0.4-1-0.5
	c-0.4-0.1-0.8-0.2-1.1-0.4c-0.3-0.2-0.5-0.2-1.1-0.4c-0.1,0-0.3-0.1-0.4-0.2l-0.3-0.1L316,98z"/>
<path class="st0" d="M356.9,37.5c0.2-0.6,0.6-1.3,1-1.6c0.3-0.2,2-0.8,2.9-1.1c1.4-0.5,2.5-0.9,3.8-1.5c0.2-0.1,1.2-0.5,1.7-0.7
	l1.8-0.7l0.2-0.1l0.3-0.1l0.3-0.1c0,0,0.9-0.3,1.3-0.5l0.2-0.1l0.5-0.2c0.3-0.1,0.7-0.3,0.9-0.4c2.1-0.9,4.3-1.9,6.5-2.7
	c2.4-0.9,4.9-1.9,7.2-3c1.1-0.5,2.2-1,3.3-1.5c1.2-0.5,2.4-1,3.6-1.5c2.3-1.1,4.7-2.1,7.2-3c1-0.4,1.9-0.7,2.9-1
	c1.2-0.4,2.3-0.8,3.5-1.3c1.2-0.5,2.3-1,3.4-1.6c0.5-0.2,1-0.5,1.4-0.9c0.3-0.2,1.3-0.7,1.7-0.9c0.5-0.2,1.2,0.2,1.4,0.4
	c0.4,0.4,0.9,0.9,1.1,1.5c0.4,1.8-0.9,4.8-1.5,5.9c-0.2,0.4-0.8,0.8-1.2,0.9c-0.7,0.3-1.5,0.5-1.9,0.7c-0.2,0.1-0.5,0.2-0.8,0.3
	c-0.2,0.1-0.6,0.3-1,0.4c-0.6,0.3-1.2,0.6-1.8,0.9c-0.2,0.1-0.4,0.2-0.7,0.4c-0.3,0.2-0.6,0.3-0.9,0.4c-0.5,0.2-1.4,0.6-1.7,0.7
	c-1.4,0.4-2.5,0.8-3.7,1.2c-4.5,1.7-12.4,4.9-14,5.7c-4.6,2.3-9.8,4.3-14.6,6.2c-2.5,0.9-5.6,2.1-7.5,2.9c-1.2,0.5-3,1.3-3.6,1.6
	c-0.6,0.3-1.3,0.7-1.7,0.9c-0.4,0.2-1.7,0.9-2,0.3C355.7,43.3,356.3,38.4,356.9,37.5z"/>
<path class="st0" d="M333.7,142c0.2,0.1,0.7,0.2,0.7,0.2c0.3,0.1,0.6,0.1,0.7,0.2c0.4,0.2,0.9,0.3,1.4,0.4c0.4,0.1,0.7,0.1,1.1,0.2
	c0.3,0.1,0.7,0.1,1,0.2c0.3,0.1,0.6,0.1,1,0.2c0.5,0.1,1,0.1,1.2,0.2l3.8,0.7c1.3,0.4,2.9,0.6,4.2,0.7c4.2,0.3,9.5-0.1,13.7-1
	c2.7-0.5,5.6-1,8.2-1.4c1-0.1,1.9-0.4,2.8-0.7c0.9-0.3,1.9-0.5,2.7-0.7c1.1-0.3,2.3-0.5,3.2-0.9c0.7-0.3,1.7-0.6,2.5-0.8
	c0.6-0.2,3.2-1.6,5-2.5c1.1-0.6,2.9-2,4.1-3c1.2-1,3.1-2.5,3.6-3.1c0.2-0.3,0.7-0.5,1-0.7c0.4-0.2,0.8-0.5,1.2-0.7
	c0.7-0.5,1.3-1.1,1.9-1.7c1.2-1.2,2.7-2.7,3.5-3.7c0.2-0.3,0.5-0.6,0.8-0.9c0,0,0.5-0.6,0.8-0.9c0.1-0.1,0.5-0.6,0.8-1
	c0.2-0.2,0.2-0.3,0.3-0.6c0.1-0.2,0.2-0.4,0.4-0.6c0.1-0.1,0.1-0.1,0.4-0.4c0.3-0.3,0.3-0.3,0.3-0.3c0.3-0.3,0.6-0.6,0.8-1
	c0.5-0.8,1.1-2,1.3-2.6c0.3-1,0.7-1.6,1.2-2.3c0.3-0.4,0.9-1.8,1.3-2.6c0.2-0.4,0.4-0.9,0.6-1.3c0.2-0.4,0.5-1,0.6-1.4
	c0.3-0.9,0.9-2.4,0.8-2.7c-0.2-1.1-1.6-4.3-2.3-5.6c-0.6-1.2-1.8-2.7-2.8-4c-1-1.3-2.7-3.5-3-4c-0.3-0.5-2.2-2.4-3.5-3.7
	c-0.6-0.6-1.2-1.2-1.8-1.6c-0.7-0.5-1.6-1.1-1.9-1.9c-0.3-0.7,0.2-3,0.4-3.8c0.1-0.2,0.1-0.2,0.1-0.6c0.1-0.4,0.1-0.5,0.1-0.7
	l0.1-0.2l0.1-0.2V78c0-0.4,0-0.4,0.1-0.9c0.1-0.6,0.2-1.2,0.2-1.9l0.1-0.3l0.1-0.2c0.1-1.5,0.1-1.5,0.1-1.5c0.2-0.8,0.4-1.5,1.3-1.6
	c1.4-0.2,8.5,7.1,9,7.8l0.2,0.4l0.4,0.6c0.2,0.3,0.6,0.9,0.6,0.9c0.4,0.6,1,1.4,1.2,1.7c0.3,0.4,0.8,1,1.2,1.5c0.5,0.5,1,1.2,1.2,2
	c1,3.1,3.3,10.2,3.4,11.4c0.2,1.6-0.3,4.5-0.6,6.2c-0.3,1.6-0.5,3.2-0.7,4.9c-0.3,2.7-0.8,5.2-1.6,7.4c-1,2.7-4.1,10.6-4.2,10.7
	c-0.6,0.8-1.3,2.1-1.8,3.2l-0.7,1.5c-0.3,0.6-0.7,1.4-1,1.6c-0.3,0.2-1.7,2-2.5,2.9c-0.2,0.2-0.4,0.4-0.6,0.6
	c-0.3,0.3-0.5,0.5-0.7,0.9c-0.3,0.6-0.7,1.3-1.3,1.7c-1,0.8-2.5,2.1-2.9,2.5c-0.4,0.4-2.5,2.3-3,2.5c-1.4,0.6-2.9,1.3-4.1,2.2
	c-1.1,0.7-2.7,1.9-4.2,2.1c-0.3,0-1.7,0.5-2.4,0.8l-0.2,0.1l-0.5,0.2c-0.2,0.1-0.2,0.1-0.5,0.2c0,0-0.4,0.2-0.7,0.2
	c-0.4,0.1-0.8,0.3-1.1,0.4c-0.1,0.1-0.1,0.1-0.5,0.2c-0.2,0.1-0.4,0.1-0.6,0.2c-0.2,0.1-0.5,0.2-0.7,0.3l-0.7,0.2l-0.4,0.1l-0.2,0.1
	h-0.8l-0.6,0l-0.6,0c-0.7,0-1.9,0.1-2.1,0.3c-0.4,0.3-0.4,0.3-1.7,0.3l-2-0.2c-0.7,0-0.9,0-1.3,0.1c-0.3,0.1-0.3,0.1-1,0.1
	c-0.8,0-0.8,0-1.2-0.1c-0.3-0.1-0.3-0.1-3.2-0.1c-0.6,0-1-0.1-1.6-0.1c-0.8-0.1-1.7-0.2-2.6-0.2c-1.4-0.1-2.8-0.3-4-0.5
	c-1.1-0.2-1.6-0.3-2.8-0.4c-1.9-0.2-3.7-0.5-5.4-1c-0.4-0.1-0.8-0.2-1.3-0.2c-1-0.1-1.8-0.1-2.3-0.2c-0.8-0.2-1.6-0.3-2.3-0.5
	c-0.3-0.1-0.6-0.1-0.8-0.1l-0.8-0.1l-0.4-0.1c-0.5-0.1-1-0.1-1.4-0.2c-0.2-0.1-0.6-0.2-0.8-0.3c-0.5-0.2-1-0.3-1.6-0.4
	c-0.6-0.1-3.8-0.9-3.9-1.1c-0.1-0.1,0.3-1.6,0.4-2C333.1,144.1,333.7,142,333.7,142z"/>
<path class="st0" d="M291.5,27.1c0,0,0.4-0.4,0.6-0.6c0.2-0.2,0.6-0.6,0.6-0.6c0.2-0.2,0.4-0.4,0.6-0.5c0.2-0.2,0.6-0.4,0.6-0.5
	c0.2-0.2,0.5-0.4,0.7-0.6c0,0,0.4-0.3,0.6-0.5c0.2-0.2,0.2-0.2,0.3-0.2l0.3-0.2c0.1-0.1,0.1-0.1,0.3-0.2c0.1-0.1,0.5-0.4,0.5-0.4
	c0.6-0.7,3.2-1.8,4.3-2.1c1.4-0.4,6.4-0.5,8.7-0.5c3.2,0,19.8,4.3,21.3,5.4c0.4,0.3,0.9,1,1,1.5c0.3,1.8-1.2,4.8-1.9,5.7
	c-1.2,1.4-11.1,6.9-13.2,7.5c-0.1,0-1.2,0.5-1.8,0.8c-0.4,0.2-1.4,0.6-2.1,0.8c-0.2,0.1-0.8,0.3-0.8,0.3c-0.3,0.1-0.6,0.2-0.9,0.4
	c-0.4,0.1-0.7,0.3-1,0.4c0,0-0.6,0.2-0.8,0.3c-1.2,0.5-2.7,1.1-3.8,1.4c-0.2,0.1-0.4,0.1-0.7,0.1l-0.9,0.1l-0.7,0.1
	c0,0-0.8,0.2-1,0.3c-0.9,0.3-2.1,0.3-3,0.1c-0.6-0.1-1.1-0.6-1.5-1c-0.3-0.3-0.1-1.2,0.1-1.5c0.8-1.3,6.7-4.1,10.4-5.9
	c0.9-0.4,1.7-0.9,2.5-1.4c0.5-0.3,2-1.1,3-1.6c1-0.5,2-1,3-1.4c0.8-0.3,2.5-1.2,2.9-1.5c0.1-0.1-1.1-0.4-1.3-0.4
	c-0.5-0.1-1-0.2-1.5-0.4c-0.3-0.1-0.7-0.2-1.2-0.3c-0.4-0.1-0.7-0.2-1.1-0.3c-1.3-0.4-4.6-0.9-7-1.3c-1.1-0.2-5.6,0.3-7.9,0.5
	c-1.6,0.2-4.4,2.1-5.5,3c-0.3,0.3-0.8,0.6-1.3,0.9c-0.2,0.1-0.2,0.1-1,0.8c-0.7,0.6-2.1,1.6-2.5,1.2c-0.1-0.1,0.3-4,0.5-4.4
	c0.3-0.6,0.5-1.2,0.7-1.8C290.6,28.2,291.1,27.5,291.5,27.1z"/>
<path class="st1" d="M236.2,114.8c1.9,0.9,11.1,3.5,13.1,3.1l-0.5-0.6c-0.1-0.1-0.2-0.4-0.4-0.5c-0.4-0.6-0.8-1.1-1-1.8
	c0-0.1-0.1-0.3-0.1-0.4l-0.1-0.7l-0.1-0.3c-0.1-0.3-0.1-0.6-0.2-0.8c-0.2-0.7-0.7-2-0.8-2.2c-0.8-1.9-1.9-3.7-2.9-5.4
	c-0.4-0.6-1.4-1.9-2.1-2.1c-0.7-0.2-1.5-0.6-2.2-0.5c-0.9,0-3.8,2.1-4.4,2.7c-0.3,0.2-1.3,1-1.9,1.5c-0.3,0.2-0.7,0.5-1,0.7
	c-0.3,0.2-1.1,0.6-1.2,0.7c-0.2,0.1-1.1,2.1-1.1,2.4c0,0.6,0,0.6,0.4,0.7c0.3,0.1,0.5,0.2,0.7,0.3c0.4,0.2,0.7,0.5,1.1,0.7
	C232.3,112.7,235.8,114.8,236.2,114.8z"/>
<path class="st0" d="M257.2,24.7c-0.1-0.2-0.1-0.2-0.3-0.2c-0.1,0-0.3-0.1-0.3-0.3l0.5,0.2c0.1-0.1-0.3-1-0.8-0.5l-0.1-0.2
	c0-0.3,0-0.5,0-0.5c-0.4-0.3,0,0.7,0,0.8l0.1,0.2c0,0.1,0.2,0.5,0.2,0.5c0.1,0.1,0.3,0.4,0.4,0.6c0.1,0.1,0.3,0.5,0.4,0.8l0.1,0.3
	c0,0,0.2,0.7,0.2,0.7l0.3,0.1l0.2-0.1c0,0-0.4,0.6-0.5,0.6c-0.1,0.1-0.2,0.2-0.3,0.1c-0.1,0-0.2-0.1-0.2-0.1l0.2,0.3
	c0,0-3.8,1.4-4.1,1.5c-1.6,0.5-3.6,1-4.5,1.3c-1.6,0.5-3.2,1-5,1.5c-1.2,0.3-2.6,0.9-3.8,1.4c-0.1,0-0.5,0.2-0.8,0.2
	c-0.2,0.1-0.7,0.2-1,0.3l-0.5,0.2l-0.4,0.1c-0.4,0.1-0.8,0.3-1.2,0.4c-1.4,0.5-3.3,1.1-4.1,1.4l-1,0.4c-0.4,0.1-1,0.4-1.1,0.4
	c-0.6,0.3-1.2,0.5-1.9,0.7c-0.3,0.1-0.6,0.2-0.9,0.3c-0.3,0.1-0.6,0.2-0.9,0.3c-0.2,0.1-0.2,0.1-0.5,0.2c-0.2,0.1-0.4,0.2-0.6,0.2
	l-0.7,0.2c-0.3,0.1-0.3,0.1-0.5,0.2c-5.4,1.9-11,3.9-16.7,5.5c-2.6,0.7-5.3,1.7-7.8,2.6c-1.6,0.6-3,1.1-4.2,1.8
	c-1.1,0.6-2.7,1.6-3.8,1.8c-0.4,0.1-0.8,0-0.9-0.2c-0.4-0.5,0.4-5.6,0.6-6.5c0.1-0.5,1-1.6,1.4-1.9l0.9-0.2c0.4-0.1,0.8-0.3,1.2-0.5
	c0.2-0.1,1.6-0.7,2.4-1.1c1.5-0.7,3.1-1.3,4.7-1.8l1.8-0.6l0.7-0.2l0.5-0.2c0.4-0.1,0.4-0.1,0.6-0.2l0.4-0.1l0.4-0.1l0.2-0.1
	l0.3-0.1l1-0.4l0.6-0.2l0.2-0.1l0.2-0.1c0.4-0.1,0.7-0.3,1.1-0.4c2.5-0.7,4.9-1.5,7.2-2.3c0.6-0.2,1.1-0.4,1.7-0.6l0.4-0.2l0.4-0.1
	c0.2-0.1,0.2-0.1,0.4-0.1c0.2-0.1,0.5-0.2,0.7-0.3c1.5-0.5,3.3-1.2,4.4-1.6c2.6-0.9,7.7-2.6,8.4-2.8c2.4-0.9,5.1-1.8,7.8-2.7
	c1.4-0.5,2.9-1,4.2-1.6c0.5-0.2,1.4-0.5,2.2-0.7c0.6-0.2,1.2-0.3,1.7-0.5l0.7-0.2L251,22l1.9-0.7c0.3-0.1,0.6-0.2,0.8-0.2
	c0.4-0.1,0.7-0.2,1-0.3c0,0,0.9-0.3,1.2-0.4c0.3-0.1,0.3-0.1,0.4,0.1l0.2,0.1c-0.7-0.6,1.2-0.9,1.5-0.9c0.5,0,1.2,0.9,1.4,1.3
	c0.3,0.5,0.3,1.2,0.3,2.1c0,0.9-1.1,3.2-1.6,3.8c0.1-0.5,0.1-0.5,0-0.7c-0.1-0.3-0.3-0.6-0.4-0.7c-0.2,0.1-0.6-0.2-0.7-0.3
	L257.2,24.7z"/>
<path class="st0" d="M150.8,73.1c0.3-0.3,0.7-0.4,1.4-0.4c0,0,1,0.8,1.5,1.2c0,0,0.5,0.4,0.7,0.7c0.2,0.2,0.5,0.4,0.8,0.6l0.3,0.2
	c0.1,0,0.4,0.3,0.6,0.4l0.2,0.1l0.2,0.1c0.2,0.1,0.5,0.3,0.6,0.4c0.2,0.1,0.5,0.5,0.7,0.7c0.2,0.2,0.5,0.5,0.7,0.7
	c0.4,0.3,3,3.5,3.1,3.9c0.2,0.7-0.1,1.7-0.4,2.1c-1.2,1.8-3.9,5.9-4.4,6.3c-0.7,0.6-1.8,1.5-2.8,0.7c-0.9-0.6-1.8-1.3-2.8-1.8
	c-2.1-0.9-3.9-2.2-5.5-3.5c-1.2-0.9-0.7-1.9-0.1-3.1c0.2-0.4,0.5-0.9,0.8-1.3l0.1-0.2l0.1-0.2c0-0.1,0-0.1,0.3-0.3
	c0.2-0.2,0.3-0.4,0.5-0.6c0.1-0.2,0.3-0.5,0.4-0.7c0.1-0.5,0.3-1.2,0.3-1.2c0,0,0.3-0.5,0.5-0.7c0.2-0.3,0.3-0.6,0.5-0.9
	C149.2,75.4,150.4,73.3,150.8,73.1z"/>
<path class="st0" d="M131.8,78.1c0.6-0.5,2.3,0.4,3.1,0.8c0.9,0.5,2.2,1,3.3,1.6c0.4,0.2,5.9,3.3,6,3.4c1.4,1.7-5.5,11.3-6.1,11.8
	c-0.2,0.1-1.3,0.2-1.3,0c0-0.1-2-1.3-2.1-1.4c-0.9-0.6-1.9-1.1-2.9-1.6l-0.3-0.1l-0.3-0.1l-0.2-0.1l-0.5-0.3l-0.2-0.1L130,92
	l-0.2-0.1l-0.2-0.1l-0.2-0.1l-0.5-0.2l-0.4-0.3l-0.5-0.1c-0.1,0-0.3-0.1-0.4-0.2c-0.2-0.1-0.4-0.2-0.7-0.3c-0.3-0.1-0.7-0.3-0.8-0.5
	c-0.1-0.1-0.4-1.2-0.1-1.4c0.1-0.2,0.1-0.2,0.2-0.5l0.4-0.7c0.1-0.2,0.3-0.7,0.5-0.9c0.1-0.1,0.1-0.2,0.2-0.3c0.6-1,1-1.7,1.4-3
	C128.9,82.6,131.5,78.2,131.8,78.1z"/>
<path class="st0" d="M118.4,177.1c-0.4-0.6-0.1-2.1,0.1-2.8c0-0.2,0.1-0.3,0.1-0.5c0.1-0.2,0.2-0.4,0.2-0.5l0-0.6l-0.1-0.2
	c0-0.7,0-0.7,0.1-1.2c0.3-1.3,0.7-2.3,1.9-2.6c0.9-0.2,4.2-1.3,6.5-2.1l0.4-0.1l0.5-0.2l0.4-0.1c0.4-0.1,0.8-0.3,1.1-0.4
	c0.3-0.1,0.7-0.2,1-0.4c0.5-0.2,1.3-0.5,1.9-0.7c0.5-0.2,1-0.4,1.5-0.5c0.6-0.2,1.4-0.4,1.8-0.5c0.6-0.1,1.2-0.3,1.8-0.5
	c1.1-0.4,3-1,3.4-1.2c1.1-0.4,2.1-0.8,3.2-1.2c0.2-0.1,0.5-0.2,0.8-0.2c0.1,0,0.5-0.2,0.8-0.2c0.6-0.2,1.3-0.4,1.8-0.6
	c1.4-0.5,3-1.2,4.2-1.7c1.2-0.5,2.4-0.9,3.6-1.3c1.8-0.6,4.6-1.6,6.8-2.4c1.3-0.5,2.6-1,3.9-1.5c0.4-0.1,0.4-0.1,0.5-0.2l0.4-0.2
	c0,0,0.6-0.2,0.8-0.2c0.6-0.2,1.7-0.5,1.9-0.6c0.5-0.2,1.1,0.2,1.4,0.4c2.2,1.6,0.1,6-0.8,7.5c-0.2,0.4-0.8,0.7-1.2,0.8
	c-0.2,0.1-0.6,0.1-0.9,0.2l-0.3,0.1l-0.7,0.1c-0.2,0-0.3,0.1-0.6,0.1c-1,0.3-2.2,0.8-3.3,1.2c-2,0.8-3.9,1.6-6,2.2
	c-2.2,0.6-4.4,1.5-6.4,2.4c-0.5,0.2-1.1,0.5-1.7,0.6l-0.2,0.1l-0.3,0.1l-0.2,0.1c-0.3,0.1-0.6,0.1-0.8,0.2c-0.6,0.2-1.1,0.4-1.7,0.7
	c-0.6,0.3-1.3,0.6-1.9,0.8c-0.2,0.1-0.2,0.1-0.4,0.1l-0.6,0.2l-1.1,0.3l-2.6,1c-0.4,0.1-0.9,0.3-1.1,0.4c-0.4,0.1-0.8,0.2-1.2,0.4
	c-0.2,0.1-0.6,0.2-0.9,0.3l-0.8,0.2l-0.5,0.2c-0.2,0.1-1.2,0.3-1.7,0.4c-0.6,0.1-1.2,0.3-1.8,0.5c-1,0.4-2,0.7-3,1
	c-1.2,0.4-2.3,0.8-3.5,1.3c-0.2,0.1-0.5,0.2-0.7,0.2c-0.2,0.1-0.6,0.2-1,0.3c-0.4,0.1-0.4,0.1-0.5,0.2l-0.5,0.2l-0.2,0.1l-0.3,0.1
	c-0.1,0-1.1,0.5-1.6,0.7C119.8,177.3,119,177.6,118.4,177.1z"/>
</svg>
