<?xml version="1.0" encoding="utf-8"?>
<!-- Generator: Adobe Illustrator 23.0.3, SVG Export Plug-In . SVG Version: 6.00 Build 0)  -->
<svg version="1.1" id="Layer_1" xmlns="http://www.w3.org/2000/svg" xmlns:xlink="http://www.w3.org/1999/xlink" x="0px" y="0px"
	 viewBox="0 0 1287 136" style="enable-background:new 0 0 1287 136;" xml:space="preserve">
<style type="text/css">
	.st0{fill-rule:evenodd;clip-rule:evenodd;fill:#231F20;}
	.st1{fill-rule:evenodd;clip-rule:evenodd;fill:#FFFFFF;}
	.st2{fill:#231F20;}
	.st3{fill:#FF0700;}
	.st4{fill:#FFFFFF;}
</style>
<path class="st0" d="M806.9,85.7c0.1-0.2,0.1-0.2,0.1-0.6c0-0.5-0.7-2.8-1.1-4c0-0.1-0.1-0.4-0.2-0.5l0-0.1l0-0.1l-0.1-0.2
	c-0.1-0.2-0.1-0.4-0.2-0.6c-0.1-0.2-0.1-0.3-0.2-0.5c-0.1-0.3-0.2-0.6-0.3-0.9c-0.1-0.2-0.2-0.4-0.2-0.5c-0.1-0.1-0.2-0.3-0.2-0.5
	c-0.1-0.3-0.2-0.6-0.4-0.8c-0.2-0.3-0.3-0.6-0.5-0.9c-0.1-0.3-0.3-0.5-0.5-0.8c-0.1-0.1-0.3-0.5-0.4-0.8c-0.1-0.3-0.3-0.6-0.4-0.8
	c-0.1-0.2-0.3-0.6-0.5-0.9c-0.1-0.1-0.1-0.3-0.2-0.4l-0.1-0.1l-0.1-0.1c0-0.1-0.1-0.2-0.2-0.3l-0.1-0.2l-0.1-0.2l-0.1-0.1
	c0,0-0.1-0.2-0.2-0.3c-0.1-0.1-0.1-0.1-0.1-0.2c-0.2-0.5-2-3.1-2.4-3.3c-0.2-0.2-0.5-0.5-0.7-0.7c-0.1-0.1-0.2-0.3-0.3-0.5
	c-0.1-0.1-0.1-0.1-0.2-0.3l-0.1-0.1c-0.2-0.2-0.4-0.5-0.7-0.7c-0.2-0.2-0.5-0.5-0.7-0.7c-0.3-0.4-2.9-3-3-3l0,0.2l0,0.2
	c0,0.2,0,0.4-0.1,0.5c0,0.2-0.1,0.4-0.2,0.5c-0.2,0.4-0.4,0.4-0.8,0.2c-0.1-0.1-0.3-0.1-0.4-0.1c-0.1,0-0.5-0.1-0.5-0.1
	c-0.1,0-0.1,0-0.3-0.1l-0.1,0l-0.1,0l-0.1,0c-0.2-0.1-0.4-0.1-0.6-0.3l-0.1-0.1c-0.1,0-0.2-0.2-0.4-0.3c-0.1-0.1-0.1-0.1-0.2-0.2
	c-0.1-0.1-0.3-0.2-0.6-0.5c-0.1-0.1-0.1-0.1-0.1-0.1c-0.1-0.1-0.2-0.2-0.3-0.3c-0.1-0.1-0.3-0.2-0.5-0.4l-0.2-0.2
	c-0.1-0.1-0.2-0.1-0.3-0.2l-0.1-0.2c-0.5-0.3-1.3-1.8-1.4-2.5c0-0.5,0-1.2,0.1-1.7c0-0.1,0-0.1,0.1-0.3c0-0.2,0.1-0.4,0.1-0.6
	c0-0.7,0-1.5,0.2-2.2c0-0.1,0.1-0.5,0.1-0.5c0-0.2,0-0.3,0-0.5c0-0.3,0-0.6,0-0.9c0-0.4,0.1-1,0.2-1.3c0-0.1,0.1-0.3,0.2-0.4
	c0.1-0.2,0.1-0.4,0.2-0.6l0-0.2l0-0.2l0-0.2l0-0.3l0-0.2c0,0,0.1-0.5,0.1-0.7c0.1-0.7,0.4-2.1,0.5-2.3c0.4-1,0.8-2,1.3-2.9
	c0.4-0.6,1.1-1.4,1.7-2c0.3-0.3,0.7-0.7,0.9-0.9c0.3-0.3,0.7-0.6,1.2-1l0.2-0.2c0.2-0.1,0.4-0.3,0.5-0.5c0.2-0.1,0.4-0.4,0.5-0.4
	c0.2-0.2,0.4-0.4,0.5-0.5c1.5-0.9,2.9-2,4.2-3.1c0.6-0.5,1.5-1,2.3-1.5c0.8-0.4,1.5-0.9,2.3-1.5c0.7-0.5,1.7-1.2,2-1.5
	c0.1-0.1,1.4-0.9,2.3-1.5c1.3-0.8,4.5-2.9,4.6-3c0.1-0.1,0.6-0.4,1.1-0.7c0,0,0.2-0.1,0.2-0.2c0.1-0.1,0.2-0.1,0.3-0.2
	c0.1,0,0.5-0.3,0.7-0.4c0.8-0.5,1.6-1,2.4-1.5c0.8-0.5,1.6-1,2.5-1.5c0.9-0.5,1.8-1,2.7-1.5c1.7-0.9,3.5-1.8,5.1-2.9
	c0.8-0.5,1.7-1,2.6-1.5c0.1,0,0.2-0.1,0.3-0.1c0.2-0.1,0.2-0.1,0.3-0.2c0.1-0.1,0.2-0.1,0.3-0.2c0.1-0.1,0.2-0.1,0.3-0.2l0.1-0.1
	l0.2-0.2l0.1-0.1l0.1,0c0.1,0,0.6-0.4,0.6-0.4c0,0.1-0.5,1.5-0.6,1.7c-0.1,0.2-0.4,1.2-0.6,1.7c-0.2,0.5-0.3,1-0.5,1.5
	c0,0.2-0.1,0.4-0.1,0.5c0,0.1-0.1,0.2-0.1,0.3c-0.1,0.2-0.2,0.7-0.3,0.7c0,0-0.4,0.3-0.6,0.4l-0.1,0.1c-0.1,0.1-0.1,0.1-0.1,0.1
	l-0.2,0.1l-0.1,0.1c-0.2,0.1-0.5,0.3-0.7,0.4c-0.3,0.1-0.5,0.2-0.7,0.4c0,0-0.5,0.3-0.7,0.4c-0.1,0.1-0.5,0.3-0.7,0.4l-0.4,0.2
	c0,0-0.2,0.1-0.4,0.2c-0.1,0.1-0.3,0.2-0.4,0.2c-0.1,0.1-0.3,0.2-0.3,0.2l-0.2,0.1c0,0,0,0-0.1,0.1l-0.3,0.2
	c-0.2,0.1-0.7,0.4-0.7,0.4c-0.1,0-0.5,0.3-0.7,0.4c-0.1,0.1-0.2,0.1-0.4,0.2c-0.1,0.1-0.2,0.1-0.4,0.2c-0.5,0.2-1.8,1.1-2.7,1.6
	c-0.4,0.2-1.9,1-2.9,1.6c-0.4,0.2-1.7,1-2.7,1.6c-0.5,0.3-1.1,0.7-1.6,1.1l-0.2,0.1l-0.1,0l-0.1,0l-0.1,0c-0.1,0-0.3,0.2-0.5,0.3
	c-0.1,0.1-0.3,0.2-0.4,0.3c-0.1,0.1-0.3,0.2-0.4,0.3c-0.3,0.2-0.7,0.5-0.8,0.6c0,0-0.2,0.2-0.4,0.2c-0.1,0.1-0.2,0.1-0.2,0.2
	l-0.1,0.1l-0.2,0.1l-2.5,1.6c0,0-0.2,0.1-0.3,0.2l-0.1,0.1c-0.1,0.1-0.1,0.1-0.1,0.1c0,0,0,0-0.1,0.1l-0.1,0.1l-0.1,0.1l-0.1,0.1
	l-0.1,0.1c-0.1,0.1-0.3,0.1-0.4,0.2c-0.1,0.1-0.3,0.1-0.4,0.2c-0.2,0.1-0.4,0.3-0.6,0.4c-0.6,0.5-1.5,1.1-2.3,1.6c0,0,0,0-0.2,0.2
	l-0.1,0.1l-0.2,0.2l-0.2,0.2l-0.1,0.1l-0.4,0.3c-0.2,0.1-0.4,0.3-0.6,0.4c-0.1,0.1-0.3,0.2-0.3,0.2c-0.1,0.1-0.2,0.2-0.3,0.2
	c-0.5,0.2-0.9,0.5-1.2,0.8c-0.2,0.2-0.8,0.6-1.1,0.9c-0.1,0.1-0.2,0.1-0.3,0.2c0,0,0,0-0.1,0.1l-0.3,0.2c-0.1,0.1-0.1,0.1-0.1,0.1
	c0,0,0,0-0.1,0.1l-0.1,0.1c0,0-0.4,0.3-0.6,0.4c-0.2,0.1-0.4,0.3-0.5,0.5c-0.2,0.2-0.4,0.3-0.6,0.5c-0.2,0.1-0.4,0.3-0.6,0.4
	c-0.1,0.1-0.3,0.2-0.3,0.2c-0.1,0.1-0.1,0.1-0.2,0.2c-0.1,0.1-0.3,0.2-0.5,0.5c-0.6,0.5-2.1,2-2.2,2.2l-0.1,0.2l-0.1,0.2L789,46
	l-0.1,0.1l-0.1,0.1c-0.2,0.3-0.3,0.5-0.5,0.9c-0.3,0.6-0.6,1.3-0.7,2c0,0.2,0.6,0.6,0.8,0.8c0.2,0.1,0.3,0.2,0.4,0.4
	c0.1,0.1,0.4,0.4,0.4,0.4c0.3,0.2,0.7,0.6,0.9,0.7c0.3,0.2,0.6,0.5,0.8,0.8c0.2,0.3,0.5,0.5,0.7,0.7c0.2,0.2,0.5,0.5,0.8,0.8
	c0.1,0.1,0.4,0.4,0.4,0.4c0.1,0.1,0.2,0.2,0.3,0.3l0,0.1l0.1,0.1l0.3,0.3c0,0,0.3,0.2,0.4,0.4c1.8,1.8,5.6,5.8,6.1,6.8
	c0,0,0.1,0.2,0.2,0.3c0.1,0.1,0.2,0.3,0.3,0.5c0.1,0.1,0.2,0.2,0.2,0.2c0.1,0.1,0.2,0.2,0.3,0.3c0.3,0.5,0.6,1,1,1.5
	c0.3,0.4,1.2,2.2,1.9,3.4c0.3,0.5,0.6,1.1,0.9,1.6c0.2,0.3,0.6,1.2,0.8,1.7c0.1,0.3,0.3,0.6,0.4,0.9c0.1,0.2,0.2,0.4,0.2,0.5
	c0,0.1,0,0.1,0.1,0.2c0,0.1,0.1,0.3,0.1,0.4c0,0,0.2,0.4,0.3,0.5c0.1,0.1,0.1,0.3,0.2,0.4c0.1,0.3,0.3,0.8,0.4,1l0,0.1l0,0.2l0,0.1
	l0,0.1c0,0.1,0.1,0.2,0.1,0.3c0,0.1,0.1,0.2,0.1,0.4c0,0.2,0.1,0.3,0.1,0.5c0.2,0.5,0.3,1.1,0.4,1.7l0,0.3l0,0.6l0,0.3l0,0.4v0.1
	l0.1,0.6l0,0.2l0,0.2l0,0.2c0,0.4,0.1,0.8,0.1,1.1c0,0.4,0,0.7,0,0.8c0.1,0.4,0.1,0.7,0.1,1.2c0,0.7-0.2,1.2-0.3,1.8
	c-0.1,0.4-0.2,0.8-0.3,1.1c-0.2,1-0.4,2-0.8,2.8c0,0-0.3,0.4-0.5,0.7c0,0-0.2,0.2-0.3,0.3c-0.1,0.1-0.3,0.3-0.3,0.3
	c0,0-0.5,0.5-0.6,0.5c-0.2,0.2-0.4,0.3-0.6,0.5c-0.1,0.1-0.2,0.1-0.3,0.2l-0.4,0.3c-0.2,0.2-0.6,0.4-0.7,0.5c-0.2,0.2-2.6,0.8-3.2,1
	c-0.1,0-0.4,0.1-0.4,0.1c-0.2,0-0.4,0.1-0.5,0.1c-0.1,0-0.6,0.1-1,0.2c-0.5,0.1-1.1,0.3-1.7,0.4c-0.1,0-0.2,0-0.5,0.1
	c-0.2,0-0.5,0.1-0.7,0.1c-0.2,0-0.4,0.1-0.5,0.1c-0.1,0-0.3,0-0.5,0.1c-0.4,0.1-0.9,0.1-1.3,0.1c-0.3,0-0.4,0-0.6-0.1l-0.1,0l-0.1,0
	l-0.2,0c-0.9,0-0.9,0-1.1,0c-0.3-0.1-0.6-0.1-0.9-0.1c-0.4,0-0.5,0-0.8-0.1c-0.1,0-0.2-0.1-0.3-0.1c-0.3-0.1-0.7-0.2-1-0.2
	c-0.4,0-0.7-0.1-1-0.3l0.1,0c0.1,0,0.1,0,0.1-0.1c0-0.1,0-0.3-0.1-0.4c-0.3-0.2-1.1,0.3-1.1,0.4c0,0.1,0,0.3,0.2,0.2
	c0.1,0-0.2,1.9-0.3,2.1c-0.2,0.5-0.4,0.6-1,0.5c-0.5-0.1-2.1-0.3-2.1-0.3c-0.3,0-0.5,0-0.7,0c-0.2,0-0.5,0-0.8,0
	c-0.1,0-0.8-0.1-1.4-0.1c-0.1,0-0.5,0-0.5-0.1c0,0-0.6-0.2-0.7-0.3c-0.3-0.1-0.5-0.1-0.8-0.2c-0.6-0.1-1.4-0.3-2-0.5
	c-0.3-0.1-0.7-0.2-0.9-0.3l-0.1,0c-0.1,0-0.1,0-0.2-0.1c-0.2,0-0.3-0.1-0.4-0.1l-0.2-0.1l-0.1-0.1l-0.1-0.1l-0.2-0.1l-0.1-0.1
	l-0.1-0.1c-0.1-0.1-0.2-0.1-0.4-0.2c-0.1-0.1-0.3-0.2-0.3-0.2c-0.1,0-0.2,0.6-0.3,0.9c-0.1,0.3-0.2,0.5-0.3,0.7
	c-0.1,0.1-0.1,0.2-0.2,0.3l-0.1,0.1l-0.1,0.1c0,0.1-0.1,0.1-0.1,0.2c-0.1,0.1-0.2,0.3-0.2,0.3l-0.1,0.1c-0.1,0-0.1,0.1-0.2,0.2
	c-0.3,0.4-0.6,0.8-0.9,1.2c0,0-0.2,0.3-0.2,0.4l-0.1,0.2c-0.1,0.2-0.1,0.2-0.1,0.2c0,0.1-0.3,0.4-0.5,0.7c-0.8,1-2.1,1.9-3.2,2.6
	c-0.1,0.1-0.4,0.2-0.6,0.3c-0.2,0.1-0.5,0.2-0.8,0.3l-0.1,0l-0.1,0.1c-0.1,0-0.1,0-0.2,0.1c-0.1,0.1-0.1,0.1-0.2,0.1
	c-0.1,0.1-0.2,0.1-0.4,0.1c-0.1,0.1-0.3,0.1-0.4,0.2c-1,0.5-2,1-3.1,1.4c-0.5,0.2-1.1,0.3-1.8,0.4c-0.2,0-0.4,0.1-0.8,0.3
	c-0.2,0.1-0.6,0.2-0.9,0.3l-0.1,0c-0.1,0-0.1,0-0.2,0.1l-0.2,0.1l-0.2,0.1c-0.2,0.1-0.5,0.2-0.8,0.2c-0.5,0.1-3.5,0.5-2.7-0.5
	c0.1-0.1,0.9-0.5,1.2-0.7c0.2-0.1,0.5-0.3,0.6-0.3l0.6-0.3c0.8-0.5,2.2-1.3,2.5-1.5c0.3-0.2,0.7-0.5,1.1-0.7c0.4-0.2,1-0.6,1.2-0.8
	l1.1-0.7c0.1-0.1,0.2-0.1,0.3-0.2c0.1-0.1,0.2-0.1,0.4-0.2c0.2-0.1,0.4-0.3,0.7-0.4c1.9-1.3,7.8-5.7,7.9-6.2l0,0.2
	c0.2,0.1,0.6-0.5,0.6-0.7l-0.2-0.1c0,0,0.1-0.2,0.1-0.2c0-0.1,0.1-0.2,0.1-0.3c-0.1-0.2-0.2-0.4-0.3-0.5c-0.2-0.2-0.2-0.4-0.3-0.8
	l0-0.1c0-0.1,0-0.1-0.1-0.2c-0.1-0.2-0.1-0.6-0.2-0.7l0-0.3l0-0.5l0-0.3c0-0.4,0-0.4-0.1-0.5l0-1.3c0,0,0-0.3,0.1-0.5l0-0.2
	c0-0.2,0-0.2,0.1-0.4l0-0.2c0-0.2,0-0.2,0.1-0.4l0-0.2l0-0.2l0-0.2c0-0.3,0.1-0.6,0.2-0.8c0-0.1,0.1-0.3,0.1-0.3l0-0.1
	c0-0.1,0.1-0.1,0.1-0.2c0-0.2,0.4-0.7,0.7-1l0.1-0.1c0.1-0.1,0.1-0.1,0.1-0.1c0.1-0.1,0.1-0.1,0.3-0.4l0.3-0.4l0.1-0.1
	c0.5-0.7,1-1.3,1.5-1.9c0.7-0.8,1.6-1.7,2.7-2c0.2-0.1,0.7,0,0.8,0.1c0,0,0.5,0.5,0.8,0.8c0.1,0.1,0.3,0.3,0.4,0.5
	c0.1,0.2,0.2,0.3,0.4,0.5c0.5,0.5,1,1.3,1.5,2c0.1,0.1,0.4,0.6,0.7,0.9c0.1,0.2,0.3,0.3,0.4,0.5c0.1,0.1,0.3,0.3,0.4,0.5
	c0.5,0.6,1,1.2,1.6,1.7c0.5,0.4,1.1,0.9,1.7,1.2c0.1,0.1,0.4,0.2,0.5,0.3c0.1,0.1,0.3,0.2,0.5,0.3c0.3,0.2,0.7,0.4,1,0.5
	c0.1,0,0.1,0,0.2,0.1c0.1,0.1,0.3,0.1,0.4,0.1l0.2,0.1c0.1,0,0.2,0.1,0.3,0.1c0.2,0,0.3,0.1,0.6,0.2l0.2,0l0.2,0
	c0.2,0,0.3,0,0.4,0.1c1,0.2,2.2,0.4,3,0.5c1,0.1,2.2,0.1,3.2-0.1c1-0.1,2-0.3,3-0.5c0.2,0,0.4-0.1,0.6-0.2l0.1,0
	c0.1,0,0.2-0.1,0.3-0.1c0.5-0.1,0.9-0.1,1.2-0.3c1.4-0.5,3.1-1,3.8-1.5c0.1-0.1,0.4-0.3,0.5-0.4c0.1,0,0.2-0.1,0.2-0.2
	c0.2-0.2,0.2-0.2,0.2-0.2c0.1-0.1,0.3-0.3,0.4-0.4c0.1-0.1,0.2-0.2,0.2-0.3L806.9,85.7z"/>
<path class="st0" d="M769.4,59.8c0,0,0.1-0.1,0.1-0.1c0,0,0.2-0.1,0.2-0.1c0.2-0.1,0.4-0.2,0.6-0.3c0.3-0.2,0.8-0.4,1.1-0.4
	c0.7-0.1,3.3,0.1,4.6,0.3c0.7,0.1,1.3,0.2,1.9,0.4c0.5,0.1,4.9,1.7,5,1.8c0.5,0.4,0.1,2.3-0.3,2.8c-0.1,0.2-0.3,0.4-0.4,0.4
	c-0.1,0.1-0.2,0.1-0.3,0.1c-0.2,0-0.4,0.1-0.4,0.1c-0.4,0.2-1.1,0.5-1.3,0.7c-0.1,0.1-0.4,0.2-0.6,0.4c-0.2,0.1-0.4,0.3-0.6,0.4
	c-0.3,0.2-0.7,0.6-1,0.7c-0.4,0.2-1,0.4-1.4,0.6c-0.3,0.1-0.9,0.4-1.4,0.7c-0.8,0.4-2.4,1.2-2.7,1.3c-0.1,0-0.3,0-0.5-0.1
	c-0.1-0.1-0.2,0-0.4,0c-0.3,0.1-0.7,0.2-1,0.2c-0.2,0-0.3-0.2-0.4-0.3c-0.1-0.2,0-0.6,0.1-0.7c0.1-0.1,0.2-0.2,0.4-0.3
	c0.1-0.1,0.2-0.1,0.3-0.1c0.1,0,0.6-0.1,0.6-0.1c0,0,0.2-0.3,0.2-0.3c0.1-0.1,0.2-0.2,0.3-0.3c0.1-0.1,0.2-0.3,0.4-0.4l0.1-0.1
	c0,0,0.4-0.3,0.5-0.3l0.1-0.1l0.1-0.1c0.2-0.1,0.2-0.1,0.2-0.1s0.2-0.1,0.3-0.2c0.2-0.1,0.5-0.3,0.7-0.4c0.1-0.1,0.4-0.2,0.4-0.2
	l0.2-0.1c0.1-0.1,0.1-0.1,0.2-0.1c0.1-0.1,0.1-0.1,0.2-0.1l0.2-0.1c0,0,0.2-0.1,0.4-0.2l0.7-0.4c0.1-0.1,0.2-0.1,0.3-0.2
	c0,0,0.3-0.1,0.4-0.2c0.2-0.1,0.7-0.4,0.7-0.4c0.1-0.1-0.9-0.4-1.1-0.5c-0.4-0.1-1-0.3-1.4-0.3c-1.3-0.2-4.2-0.5-5-0.3
	c-0.6,0.2-1.2,0.5-1.6,0.8c-0.4,0.3-0.8,0.7-1.2,1c-0.1,0.1-0.2,0.2-0.2,0.3c-0.1,0.1-0.2,0.3-0.3,0.3c0,0-0.8,0.6-0.8,0.3
	c0-0.4,0-0.7,0.1-1.1c0-0.2,0.1-0.2,0.1-0.4c0.1-0.1,0.1-0.2,0-0.4c-0.1-0.3,0.2-0.9,0.3-1.3c0.1-0.2,0.8-0.9,1-1.2
	c0.2-0.2,0.4-0.4,0.6-0.5c0.1-0.1,0.2-0.2,0.3-0.3C769.1,60,769.4,59.8,769.4,59.8z"/>
<path class="st1" d="M776,89.8c0.4,0.3,5.4,1.6,5.6,1.6c0,0-0.3-0.4-0.3-0.4c-0.1-0.1-0.1-0.1-0.2-0.2l-0.1-0.1l-0.1-0.2
	c-0.1-0.2-0.2-0.4-0.3-0.6c-0.1-0.2-0.3-0.7-0.3-0.7c-0.2-0.3-0.3-0.7-0.4-1c0,0-0.2-0.3-0.3-0.4c-0.1-0.2-0.3-0.4-0.4-0.5
	c0-0.1-0.1-0.2-0.1-0.3c0-0.1-0.1-0.2-0.2-0.3c-0.1-0.1-0.1-0.1-0.2-0.2c-0.1-0.1-0.1-0.1-0.1-0.1c-0.1-0.2-0.2-0.3-0.3-0.5
	c-0.1-0.2-0.2-0.4-0.3-0.6c-0.3-0.7-0.8-1.6-1.2-2.1c-0.1-0.1-1,0.3-1.1,0.3c-0.3,0.2-0.5,0.4-0.7,0.6c0,0-0.2,0.3-0.4,0.4
	c-0.1,0.1-0.1,0.1-0.2,0.2c-0.1,0.1-0.1,0.2-0.2,0.2c-0.3,0.2-0.6,0.4-0.9,0.6c-0.3,0.2-0.5,0.5-0.8,0.7c0,0.1,0,0.4,0,0.5l0,0.1
	c0,0.2,0,0.2,0,0.5c0,0.1,0,0.6,0,0.6l0.3,0.3c0.1,0.1,0.3,0.2,0.4,0.2l0.8,0.5C774.8,89.2,775.6,89.7,776,89.8z"/>
<path class="st0" d="M784.3,34.5c0.2-0.3,1.3-1.3,1.9-1.7c0.3-0.2,0.7-0.5,0.9-0.8c0.3-0.3,0.7-0.6,1-0.9c0.7-0.6,3.4-3.4,3.4-4.1
	c0,0-1.3-0.6-1.4-0.7c-0.5-0.2-1.1-0.4-1.5-0.7c-0.7-0.4-1.8-1.1-2-1.7c-0.1-0.3,0.3-2.7,0.4-3c0.2-0.6,0.3-1.2,0.5-1.6
	c0.6-1,2.6-2.9,3.6-3.5c0.5-0.3,1.3-0.4,1.9-0.1c0.2,0.1,0.8,0.6,0.9,0.8l0.2,0.3c0.1,0.1,0.1,0.2,0.2,0.3c0.2,0.3,0.3,0.6,0.4,0.9
	c0.4,1.2,0.4,3.3,0.2,4.8c-0.1,1-0.2,2-0.5,2.7c-0.1,0.4-0.2,0.7-0.3,1c-0.1,0.2-0.2,0.4-0.3,0.5c-0.1,0.1-0.2,0.3-0.2,0.4
	c-0.1,0.3-0.5,1-0.5,1c-0.1,0.2-0.2,0.4-0.2,0.4c0,0.1,0,0.1-0.1,0.2l-0.1,0.1c-0.1,0.1-0.1,0.1-0.1,0.1c0,0-0.1,0.1-0.1,0.1
	c-0.1,0.1-0.1,0.2-0.1,0.2l-0.1,0.1c0,0-0.1,0.1-0.2,0.2c-0.2,0.2-0.4,0.5-0.6,0.7c-0.1,0.2-0.7,0.9-1.2,1.5c-1,1.2-2.4,2.2-3.7,3.1
	c-0.7,0.4-1.4,1-2,1.6c-0.1,0.1-0.3,0.3-0.5,0.4c-0.1,0.1-0.2,0.1-0.2,0.2c-0.1,0.1-0.3,0.2-0.4,0.2c-0.4,0.3-0.9,0.7-1.1,0.7
	c-0.7,0.2-1.1-0.5-0.7-1c0-0.1,0.1-0.1,0.2-0.2c0.1-0.1,0.3-0.3,0.3-0.3c0.1-0.1,0.2-0.3,0.4-0.5C783.2,35.7,783.8,34.8,784.3,34.5z
	"/>
<path class="st1" d="M793.5,24.1c0.1-0.9,0-2.1-0.2-3c-0.2-0.6-0.9-1.8-1.5-1.9c-0.2-0.1-0.5,0-0.7,0.1c-0.5,0.2-2.1,1.8-2.3,2.3
	c-0.1,0.3,1.8,1.2,2.1,1.3c0.2,0.1,0.4,0.2,0.6,0.3c0.2,0.1,0.4,0.2,0.7,0.3c0,0,0.5,0.2,0.6,0.3C792.9,23.8,793.5,24.1,793.5,24.1z
	"/>
<path class="st0" d="M818.8,90.3c0-0.2,0.3-0.6,0.5-0.6c0.2-0.1,0.5,0.4,0.6,0.5c0.1,0.1,0.1,0.2,0.2,0.3c0.1,0.2,0.2,0.3,0.3,0.4
	c0.3,0.2,1.4,0.6,1.8,0.7c0.9,0.2,2,0.2,2.8,0.1c2.8-0.3,5.5-0.7,8.1-1.1c1-0.2,1.8-0.3,2.7-0.6c0.2-0.1,0.4-0.1,0.6-0.1
	c0.3,0,0.5-0.1,0.7-0.2c0.2-0.1,0.5-0.2,0.7-0.2c0.1,0,0.6-0.2,0.6-0.3c0.1-0.2-0.6-1.8-0.7-2.1c-0.1-0.2-0.5-1-0.8-1.5
	c-0.1-0.1-0.2-0.3-0.2-0.4c0,0-0.1-0.2-0.2-0.3c0-0.1,0-0.1-0.1-0.2c0,0-0.1-0.2-0.1-0.2l0-0.1l-0.1-0.1c-0.1-0.1-0.1-0.1-0.1-0.1
	c-0.1-0.1-0.8-1.1-1.3-1.9c0-0.1-0.1-0.1-0.2-0.2l-0.2-0.2c-0.1-0.2-0.3-0.3-0.4-0.5c0-0.1-0.1-0.1-0.2-0.2
	c-0.1-0.1-0.1-0.2-0.2-0.2l-0.2-0.4l-0.1-0.1c-0.1-0.1-1.2-1.1-1.7-1.4c-0.3-0.3-1.3-0.9-2.1-1.3c-0.3-0.2-1.2-0.8-1.8-1.3
	c-0.1-0.1-0.8-0.4-1.2-0.6l-0.6-0.3c-0.2-0.1-0.6-0.3-0.6-0.4c-0.2-0.4-0.1-3,0-3.8c0.1-0.8,0.2-1.4,0.5-1.9c0-0.1,0.5-0.2,0.5-0.1
	c0,0,0.6,0.3,0.7,0.3c0.1,0,0.5,0.2,0.8,0.3c0.2,0.1,0.5,0.2,0.7,0.3l0.3,0.2c0.1,0.1,0.3,0.1,0.4,0.2c0.1,0,0.5,0.4,0.7,0.6
	c0.2,0.2,0.5,0.4,0.7,0.6c0.3,0.2,0.6,0.4,1,0.5c0.3,0.1,0.6,0.4,0.8,0.6c0.1,0.1,0.9,0.7,1.4,1.2c0.2,0.2,0.7,0.6,0.7,0.6
	c0.2,0.1,0.6,0.4,0.7,0.7c0.1,0.2,1.1,1.6,1.7,2.3c0.5,0.7,1.5,2.1,1.7,2.4c0.2,0.5,0.4,0.9,0.6,1.3c0.1,0.2,0.2,0.4,0.3,0.7
	l0.1,0.3c0,0.1,0.1,0.1,0.1,0.2l0,0.2c0,0.1,0.1,0.2,0.1,0.2c0.5,0.9,0.9,4.1,0.8,5.3c0,0.1-0.1,0.5-0.1,0.7c-0.1,0.4-0.2,0.8-0.2,1
	c0,0.5-0.1,0.9-0.3,1.3c-0.2,0.4-0.3,0.8-0.3,1.3c0,0.6-0.1,1.2-0.3,1.7c-0.1,0.2-0.3,0.4-0.5,0.4c-0.2,0-0.5,0.2-0.7,0.2
	c-0.3,0.1-0.5,0.2-0.8,0.3c-0.3,0.1-0.5,0.2-0.8,0.3c-0.2,0.1-0.5,0.2-0.8,0.3l-0.2,0l-0.1,0l-0.1,0l-0.1,0l-0.1,0
	c-0.1,0-0.2,0-0.3,0.1l-0.2,0l-0.3,0l-0.2,0l-0.1,0l-0.1,0l-0.3,0.1l-0.5,0.1c-0.9,0.2-2,0.4-2.9,0.5c-0.5,0.1-1.4,0.2-1.6,0.3
	c-0.3,0.1-0.8,0.2-1.1,0.2c-0.7,0-1.5,0.1-2.2,0.2c-0.7,0.1-1.5,0.1-2.3,0.1c-0.6,0-1.9-0.1-2.4-0.3c-0.3-0.1-0.5-0.2-0.7-0.4
	c-0.1,0-0.4-0.3-0.7-0.4c-0.5-0.3-0.7-0.8-0.9-1.4c-0.2-0.6-0.2-1.3-0.2-2c0,0,0-0.3,0.1-0.3l0-0.1l0-0.2c0-0.2,0-0.2,0.1-0.3
	c0-0.2,0-0.2,0.1-0.3c0,0,0.1-0.7,0.2-1.1c0-0.1,0.1-0.3,0.1-0.4C818.8,90.6,818.8,90.4,818.8,90.3z"/>
<path class="st0" d="M820,54.4c0.1-0.1,0.4-0.2,0.5-0.3c0.2-0.1,0.4-0.2,0.6-0.3c0.1,0,0.2-0.1,0.3-0.1c0.1,0,0.2-0.1,0.3-0.1
	c0.2-0.1,0.5-0.3,0.5-0.3c0.2-0.1,0.6-0.4,0.9-0.6c0.3-0.2,0.7-0.4,1-0.6c1.5-0.8,3-1.7,4.5-2.5c0.6-0.3,1.5-0.8,2.2-1.2
	c0.7-0.4,1.5-0.8,2.3-1.2c0.7-0.4,1.5-0.8,2.2-1.3l0.2-0.2l0.1-0.1c0.1-0.1,0.3-0.2,0.4-0.3l0.2-0.2l0.2-0.2
	c0.1-0.1,0.2-0.1,0.2-0.2c0.1-0.1,0.2-0.1,0.3-0.2c0.2-0.1,0.5,0.1,0.6,0.1c0.2,0.1,0.3,0.3,0.3,0.6c0.2,0.7-0.2,2.1-0.5,2.5
	c-0.8,0.8-2.9,2-4.2,2.7c-0.7,0.4-2,1.1-2.3,1.2c-0.2,0.1-0.4,0.2-0.5,0.3c-0.2,0.1-0.4,0.2-0.6,0.4c-0.2,0.1-0.4,0.2-0.6,0.3
	c-0.2,0.1-0.4,0.2-0.6,0.3c-1.5,0.8-3.1,1.7-4.6,2.5c-0.7,0.4-1.5,0.9-2,1.3c-0.3,0.2-2,1.2-2.5,1.2c-0.3,0-0.2-0.9-0.1-1.1l0.1-0.2
	l0-0.1c0,0,0,0,0-0.4v-0.5C819.5,55.4,819.7,54.5,820,54.4z"/>
<path class="st0" d="M846.8,103.6l0.2-0.1c0.1-0.1,0.2-0.2,0.4-0.2c0.3-0.1,0.6,0,0.8,0.1c0.2,0.1,0.4,0.2,0.5,0.3l0.2,0.1l0.1,0
	l0.1,0.1l0.1,0c0.2,0.1,0.4,0.2,0.6,0.2c0.2,0,0.3,0,0.3,0.1c0.1,0,0.2,0.1,0.3,0.1c0.3,0.1,0.7,0.1,1.1,0.2c0.3,0,0.3,0,0.7,0
	c0.6,0,1.1,0,1.6,0c0.2,0,0.8,0,1.3,0.1l0.2,0c0.3,0,0.3,0,0.6,0.1c0.6,0,1.9,0.1,2.5-0.1c0.3-0.1,1.1-0.2,1.7-0.3l0.1,0l0.2,0
	l0.4,0c0.5,0,0.5,0,0.6-0.1c0.2-0.1,0.4-0.1,0.6-0.2c0.2-0.1,0.4-0.1,0.6-0.2l0.2-0.1l0.1-0.1c0.1,0,0.2-0.1,0.3-0.1
	c0.7-0.2,1.3-0.5,2-0.7c0.3-0.1,0.7-0.2,1-0.4c0.2-0.1,0.3-0.1,0.5-0.2c0.2-0.1,0.5-0.1,0.7-0.2c0.7-0.3,1.3-0.7,2-1.1
	c0.1,0,0.3-0.2,0.4-0.3c0.2-0.1,0.3-0.2,0.5-0.3c0.2-0.1,0.3-0.2,0.5-0.3c0,0,0.2-0.2,0.3-0.2c0.1-0.1,0.1-0.1,0.1-0.1
	c0.6-0.3,1.1-0.7,1.6-1.1c0.3-0.2,0.5-0.4,0.7-0.7c0.3-0.3,0.5-0.5,0.8-0.7c1-0.7,1.9-1.9,2.7-2.9c0.2-0.2,0.4-0.5,0.6-0.8l0-0.1
	l0.1-0.1c0.1-0.1,0.2-0.2,0.2-0.2c0-0.1,0.1-0.2,0.1-0.3c0-0.1,0.1-0.2,0.2-0.3l0.1-0.1c0.1-0.1,0.1-0.1,0.1-0.2l0.1-0.1
	c0.1-0.1,0.1-0.1,0.3-0.3l0.1-0.1l0.1-0.1l0.1-0.1l0.1-0.1l0.1-0.1l0.1-0.1c0.1-0.2,0.2-0.3,0.3-0.5c0.8-1.1,1.6-2.4,1.9-3.9
	c0.1-0.4,0-1-0.1-1.3c-0.9-2-2.1-3.8-3.3-5.3c-0.1-0.2-0.3-0.4-0.5-0.5c-0.1-0.2-0.4-0.4-0.5-0.5c-0.3-0.4-0.5-0.8-0.9-1.2
	c-0.4-0.3-1.8-1.7-2-2.1c-0.2-0.3,0-1.2,0-1.7c0.1-0.5,0.1-1.1,0.1-1.8c0-0.6,0.2-2,0.6-2.2c0.2-0.1,0.3-0.1,0.4-0.1
	c0.5,0.2,2.9,2.8,3.4,3.4c0.2,0.3,0.5,0.6,0.7,0.9c0.1,0.2,0.5,0.6,0.7,0.9c0.5,0.6,1.1,1.3,1.4,2.1c0.2,0.4,0.4,0.9,0.5,1.4
	c0,0.1,0.2,0.5,0.3,0.8l0.2,0.4l0.1,0.3c0.1,0.1,0.1,0.2,0.1,0.2c0.2,0.5,0.3,0.9,0.5,1.4c0.2,0.5,0.6,1.3,0.6,1.7
	c0.1,0.4,0,1.5-0.1,2.1c0,0.3-0.1,0.6-0.2,0.9c-0.1,0.6-0.2,1.1-0.3,1.7c-0.1,0.5-0.2,1-0.3,1.5c0,0-0.1,0.2-0.1,0.3
	c0,0.1,0,0.1-0.1,0.2l0,0.1l0,0.1l0,0.1c0,0.1-0.1,0.2-0.1,0.3c-0.1,0.5-0.5,1.4-0.8,2.1c-0.2,0.4-0.6,1.3-1,2
	c-0.2,0.3-0.4,0.6-0.6,0.9c-0.1,0.1-0.3,0.6-0.5,1c-0.3,0.6-0.7,1.3-1,1.7c-0.1,0.1-0.4,0.5-0.6,0.8c-0.2,0.3-0.4,0.6-0.7,0.9
	c0,0.1-0.2,0.2-0.2,0.2c0,0-0.1,0.2-0.2,0.3l-0.1,0.2c-0.2,0.3-0.5,0.7-0.7,0.9c-0.2,0.2-0.4,0.4-0.6,0.5c-0.2,0.2-0.5,0.4-0.6,0.5
	c-0.3,0.3-1.1,1.1-1.1,1.1c-0.1,0.1-0.2,0.1-0.3,0.2l-0.1,0.1l-0.1,0.1c-0.1,0-0.2,0.1-0.2,0.2c-0.1,0.1-0.2,0.2-0.3,0.2l-0.1,0.1
	c-0.1,0.1-0.1,0.1-0.2,0.2c-0.1,0-0.1,0-0.2,0.1c-0.1,0-0.1,0-0.2,0.1l-0.1,0.1c0,0-0.1,0.1-0.2,0.2c-0.2,0.2-0.3,0.3-0.6,0.4
	l-0.2,0l-0.1,0l-0.2,0.1l-0.1,0c-0.1,0-0.2,0.1-0.3,0.1l-0.1,0l-0.1,0l-0.1,0c-0.4,0.2-0.9,0.4-1.2,0.5c-0.3,0.1-0.7,0.2-1,0.3
	c-0.4,0.2-0.7,0.3-1.2,0.4c-0.3,0-0.6,0-0.9,0l-0.2,0l-0.3,0c-0.3,0-0.6,0-0.8,0.1c-0.2,0.1-0.3,0.1-0.5,0.2
	c-0.3,0.1-1.4,0.2-2.2,0.2c-0.2,0-0.6,0-0.7,0.1c-0.3,0.1-0.8,0.1-1.1,0c-2-0.2-3.8-0.4-5.6-0.8c-0.8-0.2-1.4-0.3-2.3-0.3
	c-0.6,0-2.4-0.2-2.9-0.4c-0.2-0.1-0.4-0.1-0.6-0.2c-0.2-0.1-0.4-0.1-0.6-0.2l-0.6-0.2c-0.2-0.1-0.5-0.2-0.6-0.3
	c-0.2-0.2-0.4-0.4-0.5-0.6C846.2,104.5,846.6,103.8,846.8,103.6z"/>
<path class="st0" d="M847.3,42.2c0.1-0.2,0.3-0.5,0.4-0.6c0.4-0.1,0.8,0.7,0.8,1.1c0,0.2,0.1,0.4,0.1,0.8c0,0.7,0.1,2,0.1,2.2
	c0,0.4,0.1,1.1,0.2,1.3c0.2,0.7,0.3,1.3,0.4,2.1c0.1,0.8,0.3,1.5,0.4,2.3c0.1,0.4,0.1,0.8,0.2,1.2c0,0.1,0.1,0.7,0.2,1.1
	c0.1,0.4,0.1,0.9,0.2,1.3c0,0.2,0.1,0.4,0.1,0.6c0,0.1,0.1,0.5,0.1,0.7c0.2,1.3,0.5,2.9,0.8,4c0.3,1.1,0.6,2.8,0.8,4.3
	c0.7,4,1.3,8,1.7,12.3c0.1,1,0.2,2,0.4,3c0.1,0.4,0.2,1.1,0.2,1.2c0,0.2,0.1,0.4,0.1,0.4c0,0.4,0,0.9,0.1,1.3c0,0.5,0.2,2,0.2,2
	c0.1,0.7,0.1,1.7,0.1,2.5c-0.1,0.8-0.1,1.5-0.2,2.4c0,0.5-0.1,0.9-0.1,1.4c0,0.3,0,0.7-0.1,0.9l0,0.1l0,0.1l0,0.1l0,0.1l0,0.1
	c0,0.1,0,0.1-0.1,0.2c-0.1,0.1-0.1,0.2-0.1,0.3c-0.1,0.2-0.1,0.3-0.2,0.4c-0.1,0.2-0.3,0.5-0.3,0.7c-0.1,0.2-0.2,0.7-0.3,0.7
	c-0.1,0.1-0.2,0.1-0.3,0c-0.2-0.2-0.2-1.3-0.2-1.9c0-0.9-0.2-3-0.2-3.2c0-0.1,0-0.1,0-0.7c0-0.3,0-0.3,0-0.6c0-0.4-0.1-0.9-0.1-1.4
	c-0.1-0.6-0.2-1.4-0.2-1.8l-0.1-0.7l0-0.2l0-0.3c0-0.4,0-0.4-0.1-0.5c0-0.2-0.1-0.4-0.1-0.7c-0.1-0.6-0.1-1.4-0.2-1.9
	c-0.1-0.4-0.2-1.2-0.2-1.9c0-0.4-0.2-1.9-0.2-1.9l0-0.1l0-0.2c0-0.2,0-0.3-0.1-0.4c0-0.1,0-0.1-0.1-0.4c0-0.2,0-0.3-0.1-0.4
	c0-0.1,0-0.1-0.1-0.5l-0.1-0.5l0-0.1l0-0.1l0-0.2l0-0.2l0-0.2c-0.1-0.6-0.3-2-0.5-2.9c-0.2-1.4-1-5.4-1-5.5c-0.3-1-0.6-3.2-0.9-5
	c-0.1-0.8-0.3-1.6-0.5-2.4c0-0.1-0.1-0.2-0.1-0.2l0-0.6l0-0.2l0-0.2l0-0.3l0-0.1l0-0.1l0-0.1c-0.1-0.5-0.2-1.2-0.2-1.3
	c-0.1-0.4-0.2-0.8-0.2-1.3c0,0-0.2-0.7-0.2-1c-0.1-0.2-0.1-0.6-0.1-0.8c0-0.2,0-0.2,0-0.2c0-0.1-0.1-0.3-0.1-0.5
	c-0.1-0.8-0.3-1.7-0.2-2.6c0-0.4,0-1.2,0-1.7c0-0.2,0-0.2,0-0.5c0-0.2,0-0.3,0.1-0.5c0-0.2,0.1-0.5,0.1-0.7l0-0.1l0-0.1l0-0.1
	c0-0.1,0-0.1,0.1-0.2c0.1-0.4,0.2-1,0.2-1.4C847,43,847.2,42.5,847.3,42.2z"/>
<path class="st0" d="M859.4,46.6c0,0,0.9-0.5,1.1-0.5c0.2-0.1,0.4-0.2,0.6-0.3c0.2-0.1,0.4-0.2,0.6-0.3c0.4-0.2,0.8-0.4,1.2-0.5
	c0.4-0.2,0.8-0.4,1.2-0.6c0.8-0.4,2.1-1,2.3-1.2c0.8-0.4,1.7-1,2.3-1.3c1.7-0.8,4-1.9,5-2.4c0.4-0.2,0.7-0.4,1.1-0.6
	c0.1,0,0.2-0.1,0.3-0.2c0.1-0.1,0.2-0.1,0.3-0.2c0.1,0,0.2-0.1,0.3-0.2c0,0,0.3-0.1,0.4-0.2c0.6-0.3,2.3-1.2,2.5-1.2
	c0.2-0.1,0.4,0,0.5,0.1c0.2,0.1,0.2,0.3,0.3,0.6c0.1,0.3-0.2,1.6-0.3,2c-0.1,0.3-0.3,0.7-0.6,0.8c-0.3,0.2-0.7,0.4-1.1,0.6
	c-0.3,0.1-1.2,0.6-1.2,0.6c-0.2,0.1-0.8,0.4-1.1,0.6c-0.1,0-0.2,0.1-0.2,0.1l-0.1,0l-0.2,0.1c-0.1,0-0.2,0.1-0.3,0.1
	c-0.1,0-0.2,0.1-0.3,0.2l-2.4,1.2c-0.2,0.1-0.9,0.4-1.4,0.6c-0.4,0.2-0.9,0.4-1.3,0.6c-0.8,0.4-1.6,0.8-2.3,1.2
	c-0.8,0.4-1.6,0.9-2.4,1.2c-0.8,0.4-2.3,1.1-2.5,1.2c-0.6,0.4-2.2,1.2-2.3,1.2c-0.2,0-0.4,0-0.5-0.1c-0.1-0.2,0-0.6,0-0.8
	c0-0.2,0.1-0.4,0.1-0.5c0.1-0.1,0.2-0.3,0.1-0.4c0-0.3-0.1-0.7,0-1C859.1,47.1,859.3,46.7,859.4,46.6z"/>
<path class="st0" d="M867.4,54.1c0.2-0.2,0.3-0.5,0.6-0.6c0.2-0.1,0.6,0.2,0.9,0.3c0,0,0.5,0.3,0.9,0.5c0.1,0,0.2,0.1,0.3,0.2
	l0.2,0.2l0.2,0.1c0.1,0.1,0.2,0.1,0.3,0.2c0,0,0,0,0.1,0.1c0.1,0.1,0.2,0.1,0.2,0.1c0.4,0.2,1.9,1.7,2,2.2l0.1,0.3l0,0.1
	c0,0.1,0,0.7,0,0.7l0,0.1l0,0.1c0,0.1-0.1,0.2-0.2,0.3c-0.1,0.2-0.2,0.3-0.3,0.5c0,0-0.2,0.2-0.3,0.3c-0.1,0.1-0.3,0.3-0.4,0.4
	c-0.1,0.1-0.2,0.3-0.4,0.5l-0.1,0.1c0,0.1-0.1,0.1-0.1,0.2c-0.2,0.3-0.4,0.6-0.7,0.8c-0.3,0.2-2.3-1-2.5-1.2
	c-0.4-0.2-0.8-0.5-1.2-0.7c-0.3-0.1-0.9-0.5-1-0.8C865.7,58.5,867.2,54.5,867.4,54.1z"/>
<path class="st0" d="M876.5,106.9c0.4-0.1,0.8,0,1.1,0.2c0.1,0,0.1,0.1,0.2,0.1h0.2c0.5,0,0.5,0,0.6,0c0.2,0,0.6,0.2,0.6,0.2
	c0.7,0.3,2.8,0.6,3.8,0.6c3.5-0.1,7.1-0.1,9.9-0.7c0.1,0,0.3-0.1,0.4-0.1c0.1,0,0.3-0.1,0.5-0.2c0.3-0.1,0.7-0.2,1.1-0.3
	c0.5-0.1,0.9-0.2,1.3-0.4c0.2-0.1,0.6-0.2,0.7-0.2c0.1,0,0.1-0.1,0.2-0.1c0.1,0,0.3-0.1,0.4-0.1l0.1,0c0.1,0,0.1,0,0.2-0.1
	c0.1-0.1,0.3-0.1,0.4-0.2c0.1,0,0.3-0.1,0.4-0.2l0.4-0.2l0.4-0.2l0.1-0.1l0.1-0.1l0.1,0c0.1-0.1,0.2-0.1,0.3-0.2
	c0.1-0.1,0.3-0.2,0.3-0.2c0.1-0.1,0.7-0.5,1-0.8l0.2-0.2l0.1-0.1l0.4-0.3c0.1-0.1,0.2-0.2,0.3-0.2c0.2-0.1,0.7-0.5,1.1-0.8
	c0.2-0.1,0.3-0.3,0.5-0.4c0.1-0.1,0.2-0.2,0.2-0.2c0.1-0.1,0.1-0.1,0.1-0.1c0.1-0.1,0.1-0.1,0.1-0.1c0.4-0.3,0.9-0.9,1.3-1.4
	c0,0,0,0,0.1-0.1l0.2-0.2c0.1-0.1,0.1-0.2,0.2-0.3c0-0.1,0.1-0.2,0.2-0.3c0.1-0.1,0.2-0.2,0.3-0.3c0.1-0.1,0.3-0.3,0.4-0.4
	c0.1-0.1,0.2-0.2,0.3-0.3c0.1-0.1,0.2-0.3,0.4-0.5c0-0.1,0.2-0.2,0.2-0.2l0.2-0.2c0,0,0.1-0.2,0.2-0.3c0-0.1,0.2-0.2,0.3-0.3
	c0,0,0.2-0.2,0.3-0.3l0.1-0.1c0.2-0.3,0.5-0.6,0.6-0.9c0-0.1,0.4-0.7,0.6-1c0.2-0.4,0.4-0.7,0.6-1.2c0.1-0.2,0.2-0.4,0.3-0.6
	c0.1-0.2,0.3-0.5,0.3-0.7c0.1-0.3,0.5-1.3,0.5-1.3c0-0.1,0-0.2,0.1-0.3c0,0,0.1-0.3,0.1-0.4c0.1-0.4,0.1-0.7,0.1-1.1
	c0-0.3-0.2-0.7-0.3-1c0-0.1-0.2,0.4-0.3,0.4c0,0.1-0.2,0.3-0.3,0.5c-0.2,0.2-0.4,0.6-0.6,0.8c-0.1,0.1-0.1,0.1-0.2,0.2
	c0,0-0.1,0.1-0.2,0.2c-0.1,0.1-0.3,0.2-0.4,0.3c-0.3,0.2-0.9,0.6-1,0.6l-0.1,0c-0.1,0.1-0.1,0.1-0.2,0.1c-0.1,0-0.1,0-0.2,0.1
	c-0.1,0-0.2,0.1-0.3,0.2c-0.1,0.1-0.2,0.1-0.4,0.2c-0.3,0.1-1.7,0.4-2,0.2l-0.1,0l-0.3-0.1c-0.2-0.1-0.5-0.2-0.6-0.2
	c0,0-0.3-0.2-0.5-0.3c0,0-0.2-0.1-0.3-0.2l-0.1-0.1l-0.2-0.1c-1.1-0.5-1.8-1.6-2.4-2.7c-0.6-1.1-0.6-1.6-0.5-3.3
	c0.1-1.2,0.3-2.7,0.5-3.8c0.3-1.6,1.2-3.1,2.2-4.7c0.1-0.2,0.8-0.9,1.1-1.2c0.1-0.1,0.2-0.2,0.2-0.2c0,0,0.2-0.3,0.3-0.3
	c0.1-0.1,0.1-0.1,0.1-0.1c0.1,0,0.1-0.1,0.2-0.2c0.1-0.1,0.1-0.1,0.1-0.1c0.1-0.1,0.2-0.2,0.2-0.2c0,0,0.8-0.4,0.9-0.4
	c0.3-0.1,0.9,0.1,1,0.2c0,0,0.2,0.1,0.2,0.1c0.2,0.1,0.2,0.1,0.2,0.1c0.1,0.1,0.2,0.1,0.3,0.2c0.2,0.1,0.6,0.4,0.7,0.6
	c0.1,0.1,0.1,0.1,0.1,0.1l0.2,0.2c0,0.1,0.1,0.1,0.2,0.2c0.1,0.1,0.2,0.2,0.2,0.3c0.2,0.3,0.7,0.8,0.8,1.1c0.1,0.1,0.1,0.1,0.1,0.1
	c0,0.1,0.1,0.2,0.1,0.2c0,0.1,0.2,0.3,0.3,0.4c0.1,0.1,0.1,0.1,0.1,0.1c0,0,0.2,0.3,0.3,0.5c0.1,0.1,0.1,0.2,0.2,0.2l0.1,0.1
	c0.1,0.1,0.1,0.1,0.1,0.1c0.4,0.6,1.2,2.1,1.3,2.2c0.4,0.4,0.7,2.1,0.8,2.8c0.2,1.3,0.5,4.4,0.5,4.6c-0.1,0.6-0.2,1.3-0.3,2
	c-0.1,0.6-0.2,1.1-0.3,1.7c-0.2,0.8-0.5,2.2-0.7,2.7c-0.1,0.4-0.2,0.8-0.4,1.1c-0.1,0.2-0.2,0.4-0.3,0.6c-0.1,0.2-0.2,0.5-0.3,0.8
	c-0.1,0.6-0.8,1.9-1.2,2.7c-0.3,0.6-0.6,1.1-1,1.6c-0.1,0.1-0.3,0.6-0.4,0.8c-0.2,0.4-0.3,0.6-0.6,0.8c-0.4,0.3-0.8,0.9-1.1,1.4
	c-0.1,0.2-0.7,0.9-1.2,1.5c-0.8,1-1.6,1.8-2.6,2.6c-0.5,0.4-1,0.8-1.5,1.1c-0.3,0.1-0.5,0.3-0.9,0.3c-0.2,0-0.9,0.3-1,0.4
	c-0.1,0.3-0.2,0.5-0.4,0.7c-0.1,0.2-1.1,0.4-1.3,0.3c-0.1,0-0.4,0.1-0.6,0.1c0,0-0.6,0.1-0.9,0.2c-0.4,0.1-0.8,0.2-1,0.3
	c-0.2,0.1-1.1,0.3-1.4,0.3c-0.6,0.1-1.9,0-2.5-0.1l-0.3,0h-0.4h-0.2c-0.4,0-0.7-0.1-1.1-0.1c-0.7-0.1-1.8-0.2-2.4-0.1
	c-0.4,0.1-0.9,0-1.2-0.1c-0.1,0-0.3-0.1-0.4-0.1h-0.3h-0.3c-0.1,0-0.2,0-0.3,0c-0.3-0.1-0.6-0.1-0.9-0.2c-0.3,0-0.6-0.1-0.8-0.2
	c-0.3-0.1-0.6-0.2-1-0.2c-0.4-0.1-0.8-0.1-1.1-0.2c-0.1,0-0.2,0-0.3-0.1c-0.1,0-0.2-0.1-0.4-0.1c-0.8-0.1-1.7-0.2-2.5-0.4
	c-0.1,0-0.2-0.1-0.3-0.1c-0.1,0-0.3-0.1-0.3-0.1c-0.1,0-0.3-0.1-0.5-0.1c-0.2,0-0.4-0.1-0.5-0.1c-0.5-0.2-0.9-0.3-1.1-0.8
	c-0.1-0.3,0-0.5,0.1-0.8C875.6,107.6,876.1,107,876.5,106.9z"/>
<path class="st0" d="M891.6,61.5c0.1-0.2,0.3-0.7,0.5-0.8c0,0,0.4-0.1,0.5-0.2c0.2-0.1,0.4-0.1,0.5-0.2c0.2-0.1,0.9-0.4,1.3-0.7
	c0.4-0.2,0.8-0.4,1.2-0.6c0.4-0.2,0.8-0.4,1.2-0.6l0.1-0.1l0.1-0.1l0.1-0.1l0.1-0.1l0.2-0.1l0.6-0.3c0.4-0.2,0.9-0.4,1.2-0.6
	c0.4-0.2,1.6-0.8,2.5-1.3l5.2-2.5c0.5-0.3,2.5-1.2,2.5-1.2c0.1-0.1,0.2-0.1,0.3-0.2c0.1-0.1,0.2-0.1,0.3-0.2l0.1-0.1l0.2-0.1
	c0.2-0.1,0.5-0.2,0.5-0.2l0.1-0.1l0.1-0.1l0.1-0.1c0.1,0,0.2-0.1,0.3-0.1c0.1,0,0.7-0.2,0.8-0.1l0.1,0c0.1,0,0.1,0.1,0.1,0.1
	c0.1,0.1,0.1,0.2,0.2,0.3c0.3,0.7-0.2,2.1-0.5,2.6c-0.2,0.3-0.5,0.5-0.9,0.6c-0.5,0.1-1,0.3-1.4,0.5c-0.9,0.4-2.4,1.1-2.7,1.3
	c-1.6,0.8-3.6,1.7-5.3,2.5c-0.9,0.4-1.8,0.9-2.6,1.3c-0.2,0.1-0.4,0.2-0.6,0.3c-0.2,0.1-0.5,0.3-0.7,0.4c-0.1,0-0.4,0.2-0.6,0.3
	c0,0-0.2,0.1-0.3,0.2l-0.4,0.2c-0.2,0.1-0.5,0.2-0.7,0.4l-0.2,0.1c-0.1,0.1-0.1,0.1-0.2,0.1l-0.1,0.1l-0.2,0.1l-0.1,0.1l-0.3,0.2
	c-0.2,0.1-0.5,0.3-0.7,0.4c-0.4,0.2-0.9,0.4-1.4,0.7c-0.3,0.2-1,0.6-1.2,0.6c-0.2,0-0.4,0-0.5-0.1c-0.2-0.3,0.1-1.2,0.3-1.4
	c0.1-0.2,0.1-0.3,0-0.5C891.5,61.9,891.6,61.7,891.6,61.5z"/>
<path class="st1" d="M903.6,83.7c0.2,0.4,2,1.2,2.7,1.4c0.5,0.1,1.7-0.3,2.1-0.5c0.2-0.1,0.5-0.2,0.7-0.4c0.1-0.1,0.2-0.1,0.3-0.2
	c0,0,0.1-0.1,0.1-0.1c0.1,0,0.1-0.1,0.2-0.1c0.1,0-0.1-0.4-0.2-0.4c-0.1-0.1-0.2-0.3-0.2-0.4c-0.1-0.1-0.3-0.5-0.5-0.7
	c-0.3-0.5-0.6-0.9-0.9-1.3c-0.4-0.5-1.9-2.3-2.8-1.7c0,0-0.6,0.6-0.9,0.9c-0.1,0.2-0.3,0.3-0.4,0.5c-0.1,0.1-0.4,0.5-0.4,0.5
	c-0.2,0.1-0.7,1.1-0.7,1.4C902.7,82.5,903.5,83.6,903.6,83.7z"/>
<path class="st0" d="M395.4,43.8c0.1-0.3,0.3-0.6,0.5-0.8c0.1-0.1,0.2-0.1,0.3-0.2l0.1,0l0.1,0l0.1,0l0.2-0.1l0.9-0.4
	c0.3-0.1,0.5-0.3,0.9-0.3c0.3-0.1,0.8-0.3,1.1-0.5c1.1-0.6,2.4-1.1,3.6-1.6l3.7-1.6c0.2-0.1,0.5-0.2,0.8-0.3
	c0.3-0.1,0.6-0.2,0.9-0.4l0.9-0.4c0.2-0.1,0.4-0.2,0.5-0.2l0.2-0.1c0.1-0.1,0.2-0.1,0.3-0.1c0.2-0.1,0.4,0,0.5,0.1
	c0.1,0.2,0.2,0.5,0.1,0.7c-0.1,0.6-0.5,2-0.5,2c-0.1,0.2-0.3,0.5-0.6,0.6c-0.2,0.1-1.4,0.6-2.2,1l-0.1,0c-0.1,0-0.4,0.1-0.4,0.1
	c-0.1,0-0.3,0.1-0.3,0.1l-0.1,0l-0.2,0.1c-0.4,0.1-0.7,0.3-1.1,0.5c-1.3,0.6-2.6,1.2-4,1.7c-0.6,0.3-2.1,0.9-2.1,1
	c-0.6,0.3-1.4,0.8-2,1c-0.4,0.1-1.2,0.5-1.9,0.9c-0.6,0.3-0.8,0-0.6-0.8c0-0.1,0.1-0.3,0.1-0.5c0-0.3,0-0.5,0.1-0.7
	C395.3,44.1,395.3,43.9,395.4,43.8z"/>
<path class="st0" d="M415.3,78.5c0.1-0.1,0.2-0.3,0.2-0.4c0-0.1,0-0.3-0.1-0.4c0-0.1,0-0.2-0.1-0.4c-0.1-0.3-0.1-0.6-0.2-0.9
	c0-0.3-0.1-0.7-0.1-0.9c0-0.1-0.1-0.5-0.1-0.8c0-0.2-0.1-0.5-0.2-0.7c-0.2-0.4-0.3-1.2-0.3-1.7c0-0.1-0.3,0.2-0.3,0.2
	c-0.1,0.2-0.1,0.2-0.3,0.3c-0.1,0.1-0.3,0.2-0.4,0.3l-0.3,0.1c-0.1,0-0.1,0-0.2,0.1c-0.6,0.3-1.2,0.7-1.7,0.9
	c-1.3,0.5-3.3,1.4-3.9,1.8c-0.8,0.5-1.9,1.3-2.4,1.7c0,0-0.3,0.4-0.5,0.5l-0.1,0.1c-0.2,0.1-0.2,0.1-0.2,0.2l-0.2,0.2
	c-0.2,0.2-0.3,0.4-0.4,0.6c-0.1,0.1-0.4,0.8-0.4,0.8c0,0,4.9,0.2,5,0.2c1.6-0.2,3-0.4,4.4-0.7c0,0,0.3-0.2,0.4-0.2l0.1-0.1
	c0,0,0,0,0.1-0.1c0,0,0.2-0.1,0.3-0.2c0.1-0.1,0.2-0.1,0.3-0.2C414.3,78.9,415.4,78.3,415.3,78.5z"/>
<path class="st0" d="M406.5,32.5c0.1-0.2,0.5-0.9,0.7-1c0.3-0.2,0.6-0.3,0.9-0.5c0,0,0.6-0.3,0.9-0.5c0.6-0.3,1.3-0.7,2-0.9
	c0.9-0.3,2.7-1.2,4.1-1.9c0.3-0.2,0.8-0.4,1-0.5c0.2-0.1,0.3-0.2,0.5-0.3l0.2-0.1l0.1-0.1c0.1-0.1,0.1-0.1,0.2-0.1l1.9-0.8
	c0.5-0.3,1.9-1,1.9-1c0.2-0.1,0.3-0.2,0.5-0.3l0.1-0.1l0.1-0.1l0.1-0.1c0.1-0.1,0.1-0.1,0.2-0.1c0.2-0.1,0.9-0.5,1.1-0.1
	c0.2,0.7-0.2,2.2-0.5,2.7c-0.2,0.4-3.1,1.9-3.6,2.2c-1.5,0.6-2.9,1.2-4.2,1.9c-0.1,0.1-0.3,0.1-0.4,0.2c-0.2,0.1-0.3,0.1-0.4,0.2
	l-0.1,0l-0.1,0.1l-0.1,0.1l-0.1,0.1l-0.1,0.1c-0.1,0.1-0.2,0.1-0.3,0.2c-0.1,0-0.2,0.1-0.3,0.1c-0.3,0.2-0.6,0.4-1,0.5
	c-0.3,0.1-0.9,0.4-1.1,0.5c0,0-0.3,0.2-0.5,0.2c-0.2,0.1-0.4,0.2-0.5,0.3l-1.1,0.5c-0.3,0.2-0.6,0.4-0.9,0.5
	c-0.3,0.2-0.7,0.5-0.9,0.5c-0.1,0.1-0.5,0-0.5-0.1c-0.2-0.3-0.1-0.9,0.1-1.2c0.1-0.2,0.2-0.3,0.2-0.6
	C406.5,32.9,406.5,32.6,406.5,32.5z"/>
<path class="st0" d="M411.6,46.7c0.2-0.1,0.4-0.3,0.6-0.2c0,0,0.2,0.1,0.3,0.1c0,0,0.1,0.1,0.1,0.1c0.2,0.1,0.2,0.1,0.3,0.2
	c0.1,0.1,0.1,0.1,0.1,0.1c0.1,0.1,0.4,0.3,0.4,0.3c0.1,0.1,0.2,0.1,0.3,0.2c0.1,0.1,0.2,0.1,0.3,0.2c0.3,0.2,0.6,0.3,0.9,0.5
	c0.3,0.2,0.8,0.4,0.9,0.6c0.3,0.3,0.6,0.8,0.7,1.3c0.1,0.3,0.2,0.8,0,1.1c-0.2,0.6-0.8,1-1.3,1.4c-0.2,0.2-0.4,0.5-0.6,0.8
	c-0.2,0.3-0.4,0.7-0.7,0.9c-0.1,0.1-0.4,0.2-0.6,0.1c-0.2-0.1-0.3-0.2-0.5-0.3c-0.2,0-0.4-0.2-0.5-0.3c-0.2-0.2-0.7-0.5-0.9-0.6
	c-0.5-0.2-1.9-0.8-2-1.3c-0.1-0.4,0.3-1.1,0.4-1.5c0.1-0.1,0.1-0.2,0.2-0.4l0-0.1l0.1-0.1c0-0.1,0.1-0.2,0.2-0.3
	c0.1-0.1,0.1-0.2,0.2-0.3c0.1-0.4,0.4-0.8,0.6-1.2C411,47.6,411.6,46.7,411.6,46.7z"/>
<path class="st1" d="M469.4,80.9c0.5-0.3,1.5-1,1.6-1.1l0.2-0.1l0.2-0.2l0.1-0.1l0.1-0.1c0.1-0.1,0.6-0.6,0.6-0.7
	c-0.1-0.4-0.3-0.7-0.5-0.9c-0.2-0.3-1-0.8-1.4-0.9c-0.1,0-0.3-0.1-0.4-0.2c-0.1-0.1-0.4-0.2-0.5-0.2c-0.1-0.1-0.1-0.1-0.2-0.1
	l-0.1,0l-0.1,0c-0.2-0.1-0.3-0.1-0.5-0.2c-1.4-0.4-4.4-0.9-5.7-0.1l-0.1,0c-0.1,0-0.1,0-0.2,0.1l-0.1,0.1l-0.1,0l-0.1,0
	c0,0-0.2,0.1-0.3,0.2c-0.1,0.1-0.2,0.1-0.3,0.2c-0.1,0.1-0.4,0.2-0.5,0.3c-0.1,0.1-0.2,0.1-0.2,0.2c-0.1,0.1-0.1,0.1-0.1,0.1
	c-0.1,0-0.1,0.1-0.1,0.1c-0.2,0.1-1.1,0.8-1.7,1.4c-0.3,0.2-0.6,0.5-0.9,0.8c-0.2,0.2-0.6,0.5-0.9,0.8c-0.1,0.1-0.3,0.2-0.4,0.4
	c-0.1,0.2-0.3,0.3-0.4,0.4c-0.1,0.1-0.4,0.3-0.4,0.3c-0.1,0.1-0.3,0.3-0.5,0.4c-0.3,0.2-0.6,0.5-0.8,0.8c-0.2,0.3-0.6,0.5-0.9,0.7
	c-0.1,0.1-0.3,0.2-0.5,0.4c-0.2,0.1-0.3,0.2-0.5,0.4c-0.1,0.1-0.3,0.3-0.5,0.4c-0.2,0.1-0.4,0.3-0.5,0.4c-0.4,0.3-0.7,0.5-1.1,0.8
	c-0.2,0.1-0.4,0.3-0.5,0.4c-0.1,0.1-0.6,0.4-0.6,0.4c0,0,0.9-0.1,0.9-0.1c0.3,0,0.5-0.1,0.8-0.1c0.5-0.1,0.8-0.1,1.3-0.2
	c0.1,0,0.3,0,0.5-0.1c0.4,0,0.8,0,0.9-0.1c0.2,0,0.4-0.1,0.6-0.1l0.1,0l0.1,0l0.3-0.1c0.1,0,0.2,0,0.3-0.1h0.1c0.1,0,0.4,0,0.5-0.1
	c0.4-0.1,1.5-0.3,2.2-0.5l1.6-0.3l0.1,0l0.3,0c0.1,0,0.2-0.1,0.3-0.1c0.1,0,0.2-0.1,0.4-0.2c0.1-0.1,0.2-0.1,0.3-0.1l0.2,0l0.1,0
	c0.1,0,0.2-0.1,0.4-0.1c0.2,0,0.4-0.1,0.6-0.1c0.2,0,0.4-0.1,0.6-0.2c0.2-0.1,0.4-0.2,0.5-0.2c0.7-0.2,1.4-0.5,2-0.8
	c0.5-0.3,1.3-0.7,1.9-0.8C467.9,81.6,468.8,81.2,469.4,80.9z"/>
<path class="st0" d="M455.5,51.3c0-0.2,0.4-0.8,0.6-0.9c0.8-0.4,1.6-0.8,2.4-1.2c0.4-0.2,0.8-0.4,1.3-0.6c0.1-0.1,1-0.5,1.5-0.7
	l0.1-0.1l0.1-0.1l0.1-0.1l0.2-0.1c0.2-0.1,0.2-0.1,0.2-0.1c0.2-0.1,0.2-0.1,0.2-0.1c0.1,0,0.1,0,0.2-0.1l0.1,0l0.1-0.1l0.1-0.1
	l0.2-0.1l0.1-0.1l0.1-0.1l0.2-0.1l0.1-0.1c0.1-0.1,0.3-0.2,0.4-0.2c0.9-0.3,1.7-0.7,2.5-1.1c0.1,0,0.2-0.1,0.3-0.2
	c0.1,0,0.2-0.1,0.2-0.1c0.3-0.1,0.5-0.2,0.7-0.3c0.4-0.2,0.8-0.5,1.2-0.6c0.2-0.1,0.9-0.4,1.2-0.6c0.5-0.2,0.9-0.5,1.4-0.7
	c0.9-0.5,1.8-0.9,2.8-1.3c0.2-0.1,0.4-0.2,0.6-0.3c0.2-0.1,0.5-0.3,0.7,0c0.4,0.4,0.2,1.6,0,2.1c-0.2,0.4-0.4,0.7-0.7,1.1
	c-0.1,0.1-0.3,0.2-0.5,0.3c-0.2,0.1-0.5,0.2-0.7,0.3c0,0-0.4,0.2-0.6,0.3l-0.1,0.1c-0.1,0-0.1,0-0.1,0.1c-0.2,0.1-0.3,0.1-0.4,0.2
	c-0.2,0.1-0.4,0.2-0.6,0.3c-0.2,0.1-0.4,0.2-0.7,0.3l-1.2,0.7c-0.2,0.1-0.4,0.2-0.6,0.3c-0.1,0-0.2,0.1-0.3,0.1
	c-0.1,0.1-0.3,0.1-0.4,0.2l-0.2,0.1l-0.1,0.1l-0.1,0.1l-0.2,0.1l-0.3,0.1c-0.2,0.1-0.4,0.2-0.4,0.2c-0.2,0.1-0.4,0.2-0.5,0.3
	c0,0-0.5,0.3-0.7,0.4c-0.4,0.2-0.8,0.4-1.3,0.6c-1.8,0.7-3.5,1.5-5.1,2.4c-0.7,0.4-1.5,0.8-2.3,1.1c-0.4,0.2-0.8,0.4-1.2,0.6
	c-0.2,0.1-0.9,0.6-1.2,0.3c-0.2-0.3,0-0.9,0.1-1.2c0.1-0.3,0.2-0.4,0.2-0.5C455.4,51.8,455.5,51.6,455.5,51.3z"/>
<path class="st0" d="M497.2,31.3c0.5,0,0.8-0.2,1.2-0.5c0.3-0.2,0.7-0.4,1.1-0.6c0.6-0.2,1.3-0.4,2-0.5c0.8-0.1,2-0.1,2.7,0.1
	c0.2,0,0.6,0.1,0.9,0.2c0.4,0.1,0.8,0.2,1.1,0.2c0.2,0.1,1,0.3,1,0.3l0.2,0.1c0.1,0,0.2,0.1,0.4,0.1c0.1,0,0.2,0.1,0.4,0.1l0.3,0.1
	l0.1,0l0.2,0c0.3,0.1,0.5,0.1,0.8,0.2c0.3,0.1,1.2,0.4,1.8,0.7l-0.1,0.1c0,0,0,0.1,0,0.1l0.3,0c0,0,0.1,0.1,0.2,0.2
	c0.1,0,0.1,0.1,0.1,0.1c0.1,0.2,0,0.5-0.1,0.7c-0.1,0.1-0.2,0.5-0.2,0.5c-0.1,0.3-0.1,0.5-0.3,0.7c-0.2,0.3-0.7,0.8-0.8,0.9
	c-0.8,0.4-2,1.1-3,1.6c-0.1,0.1-0.4,0.3-0.6,0.4c-0.1,0.1-0.1,0.1-0.2,0.1c-0.1,0.1-0.1,0.1-0.2,0.2l-0.2,0.1l-0.1,0.1l-0.1,0.1
	c-0.2,0.1-0.5,0.3-0.7,0.4c-0.2,0.1-0.3,0.1-0.5,0.2c-0.2,0.1-0.5,0.2-0.6,0.3c-1,0.5-2,0.8-3.1,1.2c-0.3,0.1-0.6,0.2-0.9,0.2
	c-0.5,0-0.8,0.1-1,0.2c-0.4,0.3-1.4,0.7-1.6-0.1c0-0.2,0.1-0.4,0.2-0.6c0.1-0.1,1.7-1.3,1.9-1.4c1.3-0.4,2.5-1.1,3.6-1.8
	c0.3-0.2,0.5-0.3,0.8-0.5l0.4-0.3l0.1-0.1l0.1-0.1c0.1,0,0.2-0.1,0.3-0.2c0,0,0.3-0.1,0.4-0.2c0.1-0.1,0.1-0.1,0.2-0.1
	c0.1,0,0.2-0.1,0.3-0.2c0.2-0.1,0.3-0.2,0.5-0.3c0.2-0.1,0.4-0.2,0.5-0.3c0.1-0.1-0.3-0.2-0.4-0.2c-0.2,0-0.4-0.1-0.6-0.1
	c-0.2,0-0.6-0.2-0.9-0.3c-0.8-0.2-1.8-0.4-2.7-0.5c-0.6,0-1.8-0.1-2.4,0.1c-0.3,0.1-1,0.3-1.4,0.4c-0.6,0.1-1,0.5-1.4,0.8
	c-0.4,0.3-0.8,0.6-1.1,1c-0.3,0.3-0.8,0.8-1.1,1c-0.1,0.1-0.4,0-0.4-0.1c0-0.2,0.1-0.7,0.2-1c0.1-0.4,0.1-0.5,0.2-0.8
	c0-0.2,0.1-0.3,0.2-0.5c0.2-0.2,0.3-0.4,0.5-0.6c0.1-0.1,0.3-0.3,0.5-0.5c0.1-0.1,0.1-0.1,0.1-0.1c0.1-0.2,0.3-0.4,0.5-0.7
	C496.8,31.7,497,31.6,497.2,31.3z"/>
<path class="st0" d="M523.6,50.2c0.1-0.2,0.5-0.9,0.7-0.9c0.2,0,1.4-0.8,2.2-1.2c0.2-0.1,0.8-0.4,1.2-0.6c0.4-0.2,0.9-0.5,1.2-0.6
	c1.4-0.8,3.3-1.9,4.4-2.4c0.4-0.2,0.7-0.4,1.1-0.6c0.2-0.1,0.4-0.2,0.6-0.3c0.2-0.1,0.4-0.2,0.7-0.3c0.8-0.4,1.6-0.8,2.4-1.1
	c0,0,0.2-0.1,0.3-0.2c0,0,0.2-0.1,0.3-0.2l0.1-0.1l0.1-0.1l0.1-0.1c0.1,0,0.2-0.1,0.3-0.2c0.2-0.1,0.4-0.2,0.6-0.3
	c0,0,0.2-0.1,0.3-0.2l0.3-0.2c0.4-0.2,0.8-0.4,1.2-0.6c0.1-0.1,0.2-0.1,0.3-0.2l0.1-0.1l0.2-0.1c0.1,0,0.2-0.1,0.2-0.1
	c0.1,0,0.1-0.1,0.2-0.1c0.2,0,0.3,0,0.5,0.1c0.1,0.1,0.2,0.6,0.2,0.8c0,0.7-0.3,1.6-0.6,2.1c-0.2,0.4-1.6,1.1-2.1,1.3
	c-0.9,0.4-1.7,0.8-2.5,1.2c-0.2,0.1-0.8,0.4-1.2,0.5c-0.2,0.1-0.4,0.2-0.6,0.3c0,0-0.2,0.1-0.3,0.1c-0.1,0-0.1,0.1-0.2,0.1l-0.1,0.1
	l-0.1,0.1c-0.4,0.2-1,0.5-1.3,0.6c-0.4,0.2-1,0.6-1.2,0.6c-0.8,0.3-1.8,0.8-2.5,1.2c-0.8,0.5-1.6,0.9-2.4,1.3
	c-0.8,0.4-2.1,1.1-2.5,1.3c-0.2,0.1-0.3,0.2-0.5,0.3c0,0-0.2,0.1-0.3,0.1c0,0-0.2,0.1-0.4,0.2c-0.2,0.1-0.4,0.2-0.5,0.3
	c-0.1,0.1-0.2,0.1-0.2,0.2c-0.1,0.1-0.6-0.1-0.6-0.1l0-0.1c-0.1-0.1,0-0.4,0-0.5c0-0.1,0.1-0.2,0.1-0.3c0-0.1,0.1-0.4,0.1-0.4
	c0.1-0.1,0.2-0.3,0.1-0.5C523.5,50.7,523.5,50.5,523.6,50.2z"/>
<path class="st0" d="M574.5,103.7C574.6,103.8,574.5,103.8,574.5,103.7c-0.1,0.1-0.3,0.1-0.5,0.1c-0.1,0-0.1,0.1-0.2,0.1
	c-0.1,0.1-0.1,0.1-0.3,0.2c0,0-0.1,0-0.2-0.1c0,0.1,0,0.1-0.1,0.1c0,0,0,0-0.1,0c0,0-0.3,0-0.4,0l0,0.1l0,0.1l-0.4,0l-0.2,0.1
	l-0.1,0.1l-0.1,0.1l-0.1,0l-0.1,0l-0.1,0c-0.1,0-0.1,0-0.2,0.1c-0.1,0.1-0.2,0.1-0.3,0.1c-0.2,0.1-0.3,0.1-0.5,0.2
	c-0.3,0.1-0.5,0.1-0.9,0.1c-0.3,0-0.6,0.1-0.8,0.1c-0.5,0.1-1,0.3-1.3,0.4c-1,0.1-2.3,0.2-3.5,0.2l-0.2,0l-0.2,0l-0.4,0
	c-0.2,0-0.2,0-0.3-0.1c-0.1,0-0.2-0.1-0.3-0.1c-0.6-0.1-1.3-0.2-1.6-0.3c0,0,0,0-0.4-0.1c-0.1,0-0.3,0-0.4-0.1c0,0-0.3-0.1-0.5-0.2
	c-0.4-0.2-0.8-0.3-1.2-0.4c-0.2-0.1-0.4-0.1-0.6-0.3c0,0-0.2-0.1-0.2-0.1c-0.1,0-0.4-0.1-0.6-0.1c-0.2,0-0.4-0.1-0.6-0.2
	c-0.5-0.3-3.2-2-3.3-2.3c-0.2-0.5-0.4-1-0.8-1.4c-0.2-0.2-0.8-1.1-0.8-1.4c-0.1-0.5-0.4-1.2-0.6-1.7c-0.1-0.3-0.2-0.5-0.3-0.9
	c-0.1-0.3-0.1-0.7-0.1-0.9c0-0.2,0-0.4-0.1-0.6c-0.3-0.9-0.4-2-0.3-3.1c0-0.2,0-0.2,0-0.3c0-0.2,0-0.2,0-0.4c0-0.2,0.1-0.4,0.1-0.5
	c0.1-0.4,0.2-0.8,0.2-1.1c0.2-1.6,0.5-3.6,1-4.9c0.2-0.5,0.4-1.1,0.6-1.6c0-0.1,0-0.1,0.1-0.2c0-0.1,0-0.1,0.1-0.2c0,0,0,0,0.1-0.2
	c0.1-0.1,0.1-0.2,0.1-0.4c0.1-0.3,0.2-0.8,0.3-1c0.1-0.1,0.3-0.2,0.5-0.3c0.1,0,0.3,0.1,0.4,0.2c0.2,0.1,0.2,0.5,0.2,0.7
	c0,0.4-0.2,1.1-0.4,1.5c-0.1,0.3-0.3,1-0.4,1.6c0,0.2,0,0.4,0,0.6c0,0.1,0,0.2,0,0.3c0,0.4,0,0.6,0,0.9c0,0.2-0.1,0.4-0.1,0.5l0,0.1
	l0,0.1c0,0.1,0,0.1-0.1,0.3c0,0.1,0,0.3,0.1,0.5c0,0.1,0,0.4,0,0.6c-0.1,0.7-0.1,1.5,0,2c0.1,0.4,0.3,1,0.3,1.4
	c0.1,0.6,0.1,1.1,0.3,1.6c0.2,0.8,0.6,1.5,1.1,2.1c0.3,0.4,0.9,1.2,1.2,1.4c0,0,0.2,0.1,0.2,0.2l0.1,0.1l0.1,0.1
	C557,97,557,97,557,97c0.1,0,0.2,0.2,0.2,0.2c0.1,0.1,0.2,0.1,0.3,0.2c0.4,0.3,0.8,0.5,1.2,0.7c0.9,0.4,2.7,1.1,2.9,1.2
	c0.7,0.2,1.6,0.4,2.3,0.5c0,0,0.2,0,0.2,0c0.1-0.1,0.2-0.1,0.3-0.1c0.1,0,0.1,0,0.1,0c0,0,0.3,0,0.4,0c0.5,0.1,1.4,0.3,1.6,0.3
	c0.8,0,3.3-0.3,3.7-0.5c0.3-0.1,1.2-0.4,1.6-0.5c0.2,0,0.3-0.1,0.5-0.2c0,0,0.1-0.1,0.2-0.1l0.2,0l0.1,0c0.1,0,0.3-0.1,0.5-0.1
	l0.1,0l0.1,0l0.3-0.1c0.5-0.1,1.3-0.3,1.6-0.6c0.3-0.3,1-0.6,1.4-0.8c1-0.4,2-1,2.8-1.6c0.1-0.1,0.2-0.1,0.3-0.2
	c0.1-0.1,0.1-0.1,0.3-0.2c0.1-0.1,0.2-0.1,0.3-0.2c0.1-0.1,0.3-0.2,0.5-0.4l0.2-0.2l0.2-0.2c0.1-0.1,0.2-0.1,0.3-0.2
	c0.1-0.1,0.3-0.3,0.3-0.3c0.2-0.1,1.2-1.1,1.8-1.7c0.6-0.6,1.2-1.2,1.6-2c0,0,0.4-2,0.4-2.1c0-0.2-0.3-1-0.4-1.6
	c-0.1-0.3-0.1-0.6-0.2-0.9c0-0.3-0.2-0.6-0.3-0.8c0,0-0.1,0.1-0.1,0.1c0,0-0.2,0.1-0.2,0.1c0,0-0.4,0.1-0.6,0.2
	c-0.1,0-0.4,0.1-0.5,0.2c0,0-0.5,0.1-0.7,0.2l-0.2,0.1l-0.1,0l-0.1,0l-0.3,0l-0.1,0l-0.1,0h-0.4l-0.2,0h-0.2c-0.1,0-0.2,0-0.3,0.1
	l-0.1,0c-0.1,0-0.1,0-0.2,0.1c-0.2,0-0.3,0.1-0.5,0.1c-0.2,0-0.4,0-0.5,0c-0.7,0.1-2.5,0.1-3.2-0.2c-0.6-0.3-1.5-0.7-1.9-1
	c-0.4-0.4-0.7-0.8-0.9-1.4c0-0.1-0.1-0.2-0.2-0.3c-0.1-0.1-0.2-0.3-0.3-0.4c-0.2-0.3-0.3-0.6-0.4-1c0-0.2,0-0.5,0-0.7
	c0-0.5,0-0.9,0-1.4c0-0.2,0-0.5-0.1-0.7c0-0.2-0.1-0.8,0-0.7l0-0.1l0-0.1c0,0,0.1-0.1,0.1-0.1c0.1-0.1,0.2-0.2,0.3-0.2
	c0.1-0.1,0.2-0.5,0.3-0.8c0.1-0.3,0.1-0.7,0.2-0.9c0.1-0.5,0.3-1,0.5-1.5c0.2-0.6,2.5-4,2.9-4.3c0.4-0.3,1-0.7,1.2-0.7
	c0.6-0.2,1.7,0.1,2.2,0.3c1,0.4,2.4,2.1,3.3,3.3c0.5,0.6,0.9,1.2,1.3,2c0.4,0.9,0.8,1.7,1.2,2.6l0.3,0.6c0.1,0.2,0.3,0.5,0.3,0.6
	c0.2,0.3,0.8,0,1.1-0.2c0.8-0.4,2.1-1.1,2.6-1.3c0.6-0.3,3.4-2.3,3.7-2.9c0,0,0.1-0.1,0.2-0.2c0.1-0.1,0.1-0.2,0.1-0.2l0.1-0.1
	l0.1-0.2l0.1-0.1l0.1-0.2c0-0.1-0.1-0.6-0.1-0.7c-0.1-0.4-0.1-0.6-0.2-1.3c0-0.3-0.1-0.6-0.1-0.9c0-0.2-0.1-0.3-0.1-0.5l0-0.2l0-0.1
	l0-0.1l-0.1-0.4l0-0.3c0-0.1,0-0.3-0.1-0.4l0-0.3l0-0.1l0-0.2l0-0.1l0-0.2l-0.3-1.8c0-0.1,0-0.1,0-0.5c0-0.2,0-0.4-0.1-0.6
	c0-0.1-0.1-0.8-0.2-1.1c0-0.3-0.1-0.6-0.1-0.8c-0.1-0.3-0.2-0.7-0.2-1c-0.1-1.3-0.3-3.2-0.6-4.2c-0.1-0.5-0.2-0.9-0.3-1.5
	c-0.1-0.6-0.2-1.3-0.3-1.8c-0.1-0.4-0.2-0.9-0.3-1.1c0-0.1-0.2-0.9-0.3-1.5c-0.2-0.9-0.4-1.9-0.6-2.7c-0.1-0.3-0.6-2.8-0.5-3.1
	l0-0.2l0-0.3l0-0.1l0-0.1l0-0.1c0-0.2,0.1-0.5,0.2-0.7l0-0.1l0.1-0.2l0-0.2l0-0.1c0.1-0.3,0.1-0.5,0.2-0.6c0.1-0.2,0.6-0.9,0.8-0.9
	c0.2-0.1,0.3,0,0.5,0.1c0.1,0.1,0.2,0.2,0.3,0.3c0.1,0.2,0.2,0.4,0.3,0.5c0.1,0.1,0.2,0.3,0.3,0.4c0.1,0.1,0.1,0.2,0.2,0.3
	c0,0.1,0.1,0.2,0.1,0.2c0.1,0.1,0.2,0.9,0.2,1.1c0,0.4,0.1,0.8,0.2,1.2c0.1,0.6,0.3,1.2,0.4,1.7c0.1,0.5,0.3,1.6,0.4,2.3
	c0.1,0.4,0.1,0.9,0.2,1.2c0.1,0.3,0.2,0.8,0.2,1c0.1,0.4,0.1,0.9,0.2,1.4c0.1,0.6,0.1,1.2,0.2,1.8c0,0.2,0.1,0.4,0.1,0.5
	c0,0.2,0.1,0.4,0.1,0.6c0,0.3,0.1,0.5,0.1,0.8c0,0.2,0.1,0.6,0.1,0.8c0.1,0.7,0.2,1.8,0.4,2.7c0,0.2,0.1,0.4,0.1,0.6
	c0,0.2,0,0.2,0,0.3c0,0.2,0,0.2,0.1,0.4c0.1,0.3,0.2,1.3,0.2,1.3c0.1,0.7,0.4,3.5,0.7,5.5c0.1,0.6,0.2,1.3,0.4,1.9
	c0.1,0.2,0.1,0.4,0.1,0.7c0,0.4,0.1,0.8,0.1,1.2c0,0.4,0.1,0.7,0.2,1.1c0.1,0.3,0.2,0.7,0.2,1c0,0.2,0.1,0.4,0.1,0.6
	c0,0.2,0,0.2,0.1,0.3c0,0.1,0,0.1,0,0.2c0.1,0.6,0.3,1.2,0.5,1.8l0,0.1l0.1,0.3l0.1,0.2c0,0.1,0.1,0.3,0.1,0.4
	c0,0.1,0.1,0.3,0.1,0.4c0.2,0.5,0.7,1.5,0.7,1.7c0.2,0.5,0.5,0.9,0.9,1.3c0.5,0.6,2,1.5,3.1,2.1c0.3,0.2,0.6,0.3,0.9,0.4
	c0.4,0.1,0.9,0.3,1,0.4c0.6,0.3,1.4,0.6,2.2,0.7c0.4,0,0.7,0.1,1,0.2l0.1,0l0.2,0l0.2,0l0.2,0l0.5,0c0.1,0,0.4,0,0.5,0.1
	c0.2,0,0.2,0,0.4,0.1l0.1,0l0.1,0c0.1,0,0.1,0,0.3,0.1c0.5,0.1,1,0.1,1.5,0.2c1,0.1,2.1,0.1,2.9-0.1c0.6-0.1,1.3-0.2,2-0.2
	c1.2-0.1,2.4-0.2,3.5-0.4c0.4-0.1,1.2-0.2,1.5-0.3c0.4-0.1,0.8-0.2,1.2-0.3c0.8-0.2,2.3-0.4,2.7-0.6c0.4-0.2,0.8-0.2,1.2-0.3l0.2,0
	l0.3,0l0.2,0c0.2,0,0.3-0.1,0.5-0.1c0.1,0,0.2,0,0.3-0.1l0.1,0c0.1,0,0.1,0,0.2-0.1c0.2,0,0.4-0.1,0.5-0.2c0,0,0.2-0.1,0.3-0.1
	c0.1,0,0.2-0.1,0.3-0.1c0.2-0.1,0.9-0.3,1.3-0.4c0.3-0.1,1.5-0.5,2.4-0.8c0.8-0.3,1.5-0.5,2.3-0.8c0.3-0.1,0.7-0.3,1-0.4
	c0.1,0,0.2-0.1,0.3-0.1c0.1-0.1,0.2-0.1,0.3-0.2l0.1,0c0.1,0,0.1,0,0.2-0.1l0.4-0.2c0.4-0.2,2-0.9,2.1-1l-0.2-0.1
	c-0.1,0-0.2-0.1-0.2-0.1c-0.1,0-0.2-0.1-0.3-0.1c-0.2-0.1-0.8-0.3-0.8-0.3c-0.1,0-0.9-0.3-1.5-0.5c-0.3-0.1-0.8-0.1-1.2-0.2
	c0,0-0.8-0.1-1.2-0.2c-0.6-0.1-1.3-0.3-1.8-0.6c-0.2-0.2-4.1-0.9-4.1-0.9c-0.1,0-0.1,0-0.3,0.1l-0.2,0c-0.1,0-0.1,0-0.1,0h-0.1h-0.2
	l-0.4,0l-0.2,0l-0.1,0h-0.1l-0.1,0c-0.3,0-0.4,0-0.7,0c-0.2,0-0.3,0.1-0.5,0.1c-0.2,0-0.3,0.1-0.5,0.1c-0.6,0.1-2.3,0.7-2.5,1.2
	l-0.3,0l-0.2,0.1l-0.2,0.1l-0.1,0l-0.1,0.1c-0.1,0.1-0.4,0.2-0.6,0.4c-0.3,0.2-0.7,0.5-1.1,0.6c-1.3,0.4-0.5-1.4-0.4-1.8l0.2-0.3
	c0.1-0.1,0.2-0.3,0.2-0.4c0-0.1,0.1-0.2,0.1-0.3l0-0.2l0-0.3c0-0.1,0.2-0.4,0.2-0.5c0.4-0.8,1-1.5,1.5-2.2c0.2-0.2,1.5-1.2,1.8-1.3
	c0.5-0.1,1-0.3,1.3-0.5c0.2-0.1,1.1-0.5,1.4-0.5c0,0,0.3-0.1,0.4-0.1l0.1,0l0.1,0l0.1,0l0.7,0c0.3,0,0.3,0,0.5-0.1
	c0.1,0,0.4-0.1,0.5,0c0.1,0.1,0.8,0.3,1,0.4c0.2,0.1,0.4,0.1,0.6,0.2c0.2,0,0.4,0.1,0.6,0.2c0.1,0,0.2,0.1,0.3,0.2
	c0.1,0.1,0.2,0.1,0.3,0.2l0.1,0C633,72,633,72,633.1,72l0.1,0.1l0.2,0l0.1,0c0.1,0,0.2,0.1,0.3,0.2c0.1,0,0.2,0.1,0.3,0.1l0.1,0
	l0.3,0l0.3,0c0,0,0.2,0.1,0.3,0.1c0.1,0,0.1,0,0.2,0.1c0.1,0.1,0.2,0.1,0.3,0.1c0.3,0.1,0.5,0.1,0.7,0.2c0.2,0.1,0.7,0.3,1.1,0.4
	l0.1,0l0.1,0.1l0.2,0.1l0.2,0.1c0.1,0,0.2,0.1,0.3,0.1l0.2,0c0.1,0,0.1,0,0.3,0.1l0.2,0l0.3,0l0.2,0.1c0.1,0,0.1,0,0.3,0.1l0.1,0
	l0.1,0l0.1,0c0.1,0,0.1,0,0.2,0.1c0.2,0.1,0.9,0.2,1.3,0.3c0.1,0,0.6,0.1,0.9,0.2c0.3,0,0.7,0.1,0.8,0.2c0.5,0.2,0.9,0.2,1.6,0.3
	c0.2,0,0.4,0.1,0.6,0.2c0.2,0.1,0.4,0.1,0.5,0.2c0.5,0.1,1.1,0.3,1.6,0.4c0.2,0,0.5,0.1,0.5,0.1c0.1,0,0.3,0.1,0.4,0.1
	c0.4,0,1,0.1,1.2,0.2c0.7,0.2,1.9,0.3,2.5,0.3c1.6,0,3.3,0,4.9-0.1c0.4,0,0.8-0.1,1.2-0.2c0.1,0,0.3-0.1,0.3-0.1
	c0.1,0,0.3-0.1,0.4-0.1c0.4-0.1,0.8-0.1,1-0.2c0.1,0,0.2-0.1,0.3-0.1c0.2-0.1,0.3-0.1,0.5-0.1c0.2,0,0.3,0.1,0.3,0.3
	c0.1,0.3,0.1,0.9,0,1.2l0,0.1l-0.1,0.2c-0.1,0.1-0.1,0.2-0.2,0.3c-0.1,0.2-0.3,0.4-0.3,0.6c-0.2,0.6-0.4,1.2-0.7,1.6
	c-0.3,0.3-0.5,0.7-0.8,1.1c-0.2,0.3-0.6,1-0.8,1.1c0,0-0.7,0-0.7,0c-0.1,0-0.3-0.1-0.4-0.1l-0.1,0l-0.2-0.1l-0.3,0l-0.2-0.1
	c-0.1-0.1-0.1-0.1-0.2-0.1c-0.2-0.1-0.5-0.1-0.7-0.2c-0.7,0-1.3-0.1-1.8,0.1c-0.1,0,0,1.9,0.1,2c0.4,0.8,0.9,1.5,1.6,2
	c0.9,0.7,1.6,0.9,3.1,1.1c0.4,0.1,3.2-0.1,3.4-0.2c0.2-0.1,0.5-0.2,0.8-0.2c0.4-0.1,0.7-0.1,1-0.3c0.6-0.3,1.2-0.5,1.7-0.7
	c0.8-0.3,3.2-1.2,3.5-1.7c0-0.1,0.1-0.1,0.2-0.2c0,0,0.1-0.1,0.1-0.1c0,0,0,0,0.1-0.1c0.2-0.2,0.4-0.5,0.4-0.5
	c0.1-0.2-0.1-0.9-0.2-1.1c0-0.2-0.2-1.1-0.2-1.6c-0.1-0.9-0.3-1.9-0.4-2.7c-0.1-0.7-0.4-2.3-0.5-2.4l-0.4-2.3l-0.2-0.9
	c0-0.2-0.1-0.4-0.1-0.5c0-0.3-0.1-0.5-0.1-0.6c-0.2-0.5-0.4-1.2-0.4-1.8c-0.2-1.5-0.5-3-0.9-4.4c0,0-0.1-0.3-0.1-0.5
	c0-0.1-0.1-0.3-0.1-0.4c-0.1-0.3-0.2-0.6-0.3-1c-0.1-0.2-0.1-0.5-0.2-0.7c-0.1-0.4-0.2-0.8-0.3-1.2c-0.1-1.5-0.5-3-0.8-4.4
	c-0.3-1.2-0.8-3.5-0.8-4.1c0-0.3-0.1-0.8-0.2-1.2c-0.1-0.5-0.2-1-0.3-1.6c0-0.2-0.1-0.8-0.1-0.8c-0.1-0.3-0.1-0.5-0.2-0.9
	c0-0.3-0.1-0.6-0.1-0.9c0-0.2,0-0.4,0-0.6c0-0.2,0-0.4,0-0.4c-0.1-0.1-0.9-1.3-1-1.4c-0.1-0.1-0.2-0.3-0.3-0.4
	c-0.1-0.1-0.2-0.3-0.3-0.4c-0.1-0.1-0.3-0.6-0.5-0.9c-0.6-1.1-0.1-2.6,0.5-3.5c0.1-0.2,0.2-0.5,0.2-0.7c0-0.2,0.2-0.6,0.4-0.8
	c0.2-0.4,0.6-1.2,0.9-1.4c0.1-0.1,0.3,0,0.3,0.1c0.1,0.2,0.5,0.9,0.7,1.4c0.1,0.3,0.6,1,0.9,1.5c0.2,0.4,1,1.2,1.5,1.8
	c0.4,0.4,1.2,1.3,1.4,1.8c0.1,0.2,0.2,1.1,0,1.3l0,0.1l-0.1,0.2c-0.1,0.1-0.2,0.3-0.3,0.4c-0.2,0.2-0.6,0.6-0.6,0.7
	c-0.2,0.2-0.9,1.4-0.8,1.7c0,0.3,0.2,0.8,0.3,1.2c0.1,0.3,0.3,1.5,0.3,2.1c0.1,0.5,0.2,0.9,0.3,1.3c0.1,0.3,0.2,1.1,0.3,1.6
	c0.3,2,0.7,3.8,1.3,5.6c0.2,0.5,0.4,1.7,0.6,2.5l0.6,3.1c0,0.2,0.1,0.5,0.2,0.7c0,0.3,0.1,0.6,0.2,0.8c0,0,0.1,0.3,0.1,0.4
	c0,0.1,0,0.2,0.1,0.4c0,0.2,0.1,0.4,0.2,0.6c0.1,0.5,0.2,1,0.3,1.6c0,0.3,0.1,0.5,0.2,0.7c0,0.1,0.1,0.3,0.1,0.3l0,0.2
	c0,0.1,0.1,0.2,0.1,0.2c0.4,2.3,0.7,4.8,1,7.3l0,1.8l0,0.6c0,0.4,0,0.7-0.1,0.7l0,0.2l0,0.3l0,0.2c0,0.2-0.1,0.4-0.1,0.6
	c0,0.1-0.1,0.2-0.1,0.4c0,0.1,0,0.1-0.1,0.2c0,0.1,0,0.1,0,0.2c0,0.1,0,0.2-0.1,0.3c0,0.1-0.1,0.3-0.1,0.3c0,0.1,0,0.3,0,0.4v0.1
	v0.5c0,0-0.1,0.4-0.1,0.5c-0.2,0.9-0.5,2.3-0.8,2.9c-0.3,0.5-1.3,1.5-1.9,2.2l-0.2,0.1l-0.1,0c-0.1,0-0.2,0.1-0.4,0.2
	c-0.1,0-0.2,0.1-0.3,0.2l-0.2,0.1c-0.1,0.1-0.1,0.1-0.2,0.1c-0.1,0-0.2,0.1-0.2,0.2c-0.1,0.1-0.2,0.1-0.3,0.2
	c-0.1,0-0.3,0.1-0.5,0.1c-0.1,0-0.4,0.1-0.5,0.1c-0.4,0.2-0.8,0.4-1.3,0.5c-0.1,0-0.2,0.1-0.3,0.1c-0.1,0.1-0.2,0.1-0.3,0.2
	c-0.1,0.1-0.2,0.1-0.4,0.1c-0.2,0-0.3,0.1-0.5,0.2c-0.2,0.1-0.5,0.2-0.8,0.2c-0.1,0-0.4,0.1-0.6,0.2c-0.2,0.1-0.3,0.1-0.6,0.1
	c-0.3,0-0.5,0.1-0.7,0.1c-0.1,0-0.2,0-0.3,0l-0.2,0l-0.2,0c-0.1,0-0.5,0-0.6,0.1c-0.7,0.2-2.1,0-2.8-0.3c-0.5-0.2-1-0.4-1.4-0.7
	c-0.4-0.2-1.7-1.3-1.8-1.6c0,0-0.1-0.2-0.2-0.3l-0.1-0.2l-0.1-0.2c-0.1-0.3-0.3-0.5-0.3-0.8c-0.3-1.5-0.2-3.5,0.1-4.9
	c0.1-0.3,0.1-0.7,0.2-0.9c0.1-0.4,0.2-0.9,0.2-1.3c0-0.3-1.9-0.2-2.1-0.1c-0.7,0.1-1.8,0.2-2,0.2c-0.9,0.1-2,0.4-2.6,0.8
	c-0.1,0.1-0.3,0.1-0.4,0.2c-0.1,0-0.2,0.1-0.2,0.1l-0.1,0l-0.4,0l-0.1,0c-0.1,0-0.3,0.1-0.5,0.2c-0.2,0.1-0.4,0.2-0.6,0.2
	c-0.8,0.2-1.7,0.5-2.4,0.9c-0.1,0-0.8,0.5-1.2,0.8c-0.4,0.3-0.8,0.5-1.3,0.7c-1,0.4-2.2,0.9-2.9,1.2c-0.5,0.2-1.1,0.4-1.4,0.6
	c-0.2,0.1-0.4,0.3-0.7,0.3c-0.6,0.1-0.8,0.1-1.2,0.3c-0.1,0-0.2,0.1-0.3,0.1c-0.2,0-0.4,0.1-0.5,0.2l-0.7,0.4
	c-0.4,0.2-1.2,0.4-1.9,0.6c-0.1,0-0.3,0.1-0.4,0.1c-0.1,0.1-0.3,0.2-0.4,0.2c-0.5,0.1-1.2,0.1-1.4,0.2c-0.6,0.1-1.7,0.4-1.9,0.5
	c-0.4,0.2-2.7,0.7-4,0.9c-1.6,0.3-3.6,0.7-4.8,0.7c-0.4,0-1,0.1-1.1,0.1c-0.5,0.1-0.9,0.2-1.4,0.2c-0.5,0-1.7,0-1.8-0.1
	c-0.1,0-0.1,0-0.3,0l-0.1,0l-0.2,0c-0.4,0-0.4,0-0.5,0c0,0,0,0-0.3,0c-0.5,0-1-0.1-1.4-0.2c-0.1,0-0.1,0-0.2-0.1l-0.1,0l-0.1,0
	c-0.2,0-0.3,0-0.4,0c-0.2,0-0.2,0-0.6,0c0,0-0.3-0.1-0.4-0.2c-0.2-0.1-0.4-0.1-0.6,0c-0.3,0.1-0.6,0.2-1,0.2c-0.3,0-0.6-0.3-0.8-0.5
	c-0.2-0.2-0.5-0.3-0.9-0.4c-0.1,0-0.1-0.1-0.2-0.1c-0.1,0-0.2-0.1-0.3-0.1c-0.2,0-0.5-0.1-0.7-0.2c-0.1-0.1-0.4-0.2-0.4-0.2
	c-0.3-0.1-0.4-0.1-0.6-0.3c-0.3-0.2-0.5-0.4-0.9-0.6c-0.3-0.2-0.7-0.4-0.9-0.6c-0.1-0.1-0.3-0.2-0.3-0.3c-0.1-0.1-0.3-0.2-0.4-0.3
	c-0.3-0.2-0.7-0.4-0.9-0.6c-0.1-0.1-0.2-0.3-0.2-0.5c0-0.1-0.1-0.2-0.1-0.3c-0.1-0.1-0.2-0.2-0.2-0.2c-0.1-0.1-0.1-0.2-0.2-0.3
	c0-0.2,0-0.2-0.1-0.2c0-0.1-0.1-0.2-0.2-0.3c-0.1-0.1-0.1-0.2-0.2-0.3c-0.2-0.4-0.7-1.6-1-2.4c0-0.1-0.1-0.5-0.2-0.8
	c0-0.2-0.1-0.4-0.2-0.6c-0.1-0.2-0.1-0.4-0.2-0.6l0-0.1l-0.1-0.2l-0.1-0.3c0-0.1-0.1-0.2-0.1-0.3l0-0.2c0-0.1,0-0.1-0.1-0.3
	c0-0.3-0.1-0.5-0.2-0.8l0-0.2l0-0.3c0,0,0,0-0.1-0.3c0-0.2-0.1-0.4-0.1-0.5c0-0.1-0.1-0.6-0.1-0.6c-0.1,0-0.4,0.7-0.5,0.9
	c-0.2,0.4-0.3,0.7-0.6,1c-0.4,0.5-1.2,1.3-1.2,1.4c-0.2,0.1-0.4,0.2-0.7,0.5l-0.2,0.2c-0.1,0.1-0.1,0.1-0.1,0.1
	c-0.1,0.1-0.2,0.2-0.3,0.2c-0.1,0.1-0.2,0.1-0.3,0.2c-0.1,0.1-0.2,0.1-0.3,0.2c-0.1,0-0.1,0-0.1,0.1c0,0,0,0-0.1,0.1
	c-0.2,0.1-0.4,0.3-0.5,0.4c-0.3,0.1-0.5,0.3-0.7,0.4c-0.2,0.1-0.5,0.3-0.7,0.4c-0.1,0.1-0.2,0.1-0.3,0.1c-0.1,0-0.3,0.1-0.3,0.2
	c0,0.1-0.1,0.5-0.1,0.5c0,0.4,0,0.6,0,0.9c0,0.4,0,0.4,0,0.6c0,0.4-0.1,0.7-0.3,1c-0.1,0.3,0,0.7,0.1,1c0.1,0.4,0.4,2.7,0.2,2.2
	l0,0.2l0,0.3c0,0.1-0.1,0.3-0.1,0.4c-0.1,0.2-0.1,0.5-0.2,0.8c-0.1,0.5-0.2,1-0.4,1.5c-0.2,0.4-0.8,1.2-1.2,1.9
	c-0.2,0.3-0.4,0.6-0.5,1c-0.2,0.4-0.4,0.8-0.6,1c-0.7,0.6-1.7,1.5-2,1.8c-0.7,0.7-1.4,1.4-2.2,1.9c-0.5,0.3-1,0.6-1.2,0.9
	c-0.3,0.3-0.8,0.6-1.2,0.8c-0.1,0.1-0.3,0.1-0.4,0.2l-0.1,0l-0.1,0l-0.1,0.1c-0.1,0.1-0.3,0.1-0.5,0.2c-0.1,0-0.1,0-0.3,0.3
	c-0.1,0-0.2,0-0.2,0c-0.1,0-0.1,0-0.1,0c-0.1,0.1-0.1,0.1-0.2,0.1c-0.1,0-0.2,0.1-0.2,0.1c-0.1,0.1-0.6,0.6-0.7,0.4
	c0,0-0.2,0.1-0.2,0.1l0,0.1l-0.1,0L574.5,103.7z"/>
<path class="st0" d="M568,56.4l0.1-0.2c0,0,0,0,0.2-0.2l0-0.1l0.1-0.1c0.2-0.2,0.6-0.7,0.7-0.7c0.2-0.1,2.4,0.9,2.9,1.1
	c0.5,0.2,0.9,0.4,1.3,0.7c0.1,0.1,0.2,0.1,0.3,0.2l0.1,0.1l0.1,0.1c0.1,0.1,0.1,0.1,0.2,0.1c0.1,0.1,0.4,0.4,0.5,0.3
	c0.1-0.1,0.8-1.4,1-1.7c0.3-0.6,0.8-1.7,1-1.8l0.2-0.2c0.1-0.1,0.2-0.2,0.2-0.3c0.2-0.2,0.4-0.4,0.5-0.4c0.4-0.1,3.6,2.3,3.8,2.6
	c0.4,0.5,0.9,1.1,1.1,1.7c0.1,0.3,0.1,0.7,0,1c-0.1,0.3-0.4,0.7-0.7,0.9c-0.1,0.1-0.3,0.2-0.4,0.3c-0.1,0.1-0.3,0.2-0.4,0.3
	c-0.1,0.1-0.3,0.3-0.4,0.4c-0.1,0.1-0.2,0.3-0.3,0.4c-0.3,0.3-0.6,0.7-1.2,0.6c-0.3,0-1.7-1.1-2-1.4c-0.2-0.2-1.8-1.1-2.2-1.2
	c-0.1,0-0.2,0.3-0.3,0.4c0,0.1-0.2,0.3-0.3,0.5c-0.1,0.1-0.2,0.2-0.3,0.3c-0.1,0.1-0.3,0.2-0.4,0.4c-0.2,0.2-0.4,0.6-0.6,0.9
	c-0.2,0.4-0.4,0.6-0.6,0.9c-0.2,0.2-0.4,0.3-0.7,0.4c-0.1,0-0.8-0.4-1.1-0.6c-0.4-0.2-0.8-0.4-1.2-0.6c-0.8-0.3-2-0.9-2.4-1.1
	c-0.2-0.1-0.2-0.3-0.2-0.6C566.5,59.5,567.9,56.4,568,56.4z"/>
<path class="st0" d="M568.9,113.5c0.1-0.2,0.2-0.4,0.3-0.6l0.1-0.1c0.1-0.1,0.1-0.1,0.1-0.1c0,0,0.1-0.1,0.1-0.1
	c0-0.1,4.3-1.8,4.5-1.9c1.7-0.5,3.4-1.1,5-1.8c1-0.4,3.1-1.2,4.8-1.8c1.6-0.6,3.1-1.3,4.6-2.1c0.2-0.1,0.4,0,0.5,0.1
	c0.5,0.4-0.1,2.7-0.4,3.1c-0.1,0.2-1.6,0.8-2.3,1.2c-0.7,0.3-2.4,1.1-2.4,1.1c-0.8,0.4-1.7,0.7-2.6,0.9c-0.1,0-0.8,0.3-1.3,0.5
	c0,0-0.5,0.2-0.6,0.3c-0.2,0.1-0.4,0.2-0.7,0.3c-1.6,0.6-3.1,1.1-4.7,1.7c-0.8,0.3-1.7,0.6-2.4,0.9c-0.2,0.1-0.6,0.3-0.6,0.3
	c-0.2,0.1-0.4,0.2-0.6,0.3c-0.2,0.1-0.4,0.2-0.6,0.3c-0.2,0.1-0.4,0.2-0.7,0.3c-0.2,0-0.3,0-0.4-0.2c-0.2-0.3,0-1,0.2-1.3
	c0.1-0.2,0.2-0.3,0.1-0.5c0-0.1-0.1-0.2-0.1-0.3C568.8,113.7,568.8,113.5,568.9,113.5z"/>
<path class="st1" d="M578.1,79.8l0.5,0c0.3,0,0.3,0,0.5,0c0.6,0,1.4,0,1.7,0c0.4,0,1.3-0.1,1.4-0.2c0.1,0-0.3-0.8-0.3-0.8
	c0,0-0.3-0.4-0.5-0.6l-0.3-0.3c-0.1-0.1-0.1-0.1-0.1-0.1c0,0,0,0-0.1-0.1l-0.1-0.2c-0.1-0.1-0.2-0.2-0.3-0.3
	c-0.2-0.1-0.3-0.3-0.5-0.6c-0.1-0.2-0.3-0.4-0.5-0.5c-0.1-0.1-0.4-0.3-0.6-0.5c-0.1-0.1-0.2-0.2-0.3-0.2l-0.3-0.1
	c-0.1,0-0.2-0.1-0.2-0.1c0,0-0.3-0.1-0.3-0.1c-0.1,0-0.8,0-0.8,0l-0.1,0l-0.1,0.1c-0.1,0-0.2,0.1-0.2,0.2c-0.1,0.1-0.3,0.3-0.4,0.4
	l-0.1,0.1c-0.1,0.1-0.1,0.1-0.2,0.3l-0.1,0.2c-0.1,0.1-0.2,0.3-0.2,0.3c-0.1,0.1-0.1,0.2-0.2,0.3c-0.2,0.3-0.7,1.2-0.6,1.5
	C575.2,78.7,577.6,79.7,578.1,79.8z"/>
<path class="st0" d="M583.8,30.8c0.6-1,2.4-3.3,3.6-3.5c0.5-0.1,1-0.2,1.5-0.3c0.3-0.1,1.8,0.1,2.6,0.1c0.6,0.1,1.1,0.1,1.6,0.3
	c0.4,0.1,0.9,0.2,1.4,0.3c0.9,0.2,4.7,1.1,4.8,1.1c0.1,0.1,0.2,0.5,0.2,0.7c0,0.5-0.6,2-0.8,2.3c-0.4,0.5-1,1.1-1.6,1.4
	c-0.5,0.3-1.1,0.6-1.3,0.8c-0.1,0.1-0.8,0.5-1.4,0.9c-0.3,0.2-0.9,0.5-1.4,0.6c-0.4,0.2-1.2,0.5-1.4,0.6c-0.7,0.4-2.5,1.3-2.9,1.3
	c-0.7,0.1-1.4-0.8-0.9-1.4c0-0.1,0.2-0.2,0.3-0.3c0.1-0.1,0.1-0.1,0.1-0.1c0.1,0,0.1-0.1,0.2-0.2c0.1-0.1,0.3-0.3,0.6-0.6
	c0,0,0,0,0.1-0.1c0.5-0.5,1.1-0.9,1.7-1.2c0.7-0.3,1.3-0.7,2-1l0.2-0.1l0.1-0.1c0.1-0.1,0.1-0.1,0.2-0.1c0.1-0.1,0.2-0.1,0.3-0.2
	c0.1-0.1,0.2-0.1,0.3-0.2c0.3-0.2,0.6-0.4,1-0.6c0.1,0-0.8-0.3-0.9-0.3l-0.1,0l-0.1,0l-0.1,0l-0.2,0l-0.1,0c-0.1,0-0.3,0-0.4-0.1
	l-0.1,0l-0.1,0l-0.1,0c-1.1-0.2-3.6-0.7-4.3-0.5c-0.1,0-0.3,0.1-0.4,0.1l-0.2,0l-0.2,0c-0.1,0-0.1,0-0.3,0.1
	c-0.3,0.1-0.6,0.1-0.8,0.2c-0.3,0.2-0.8,0.6-1.2,1c-0.2,0.2-0.4,0.4-0.6,0.6c-0.2,0.2-0.4,0.5-0.6,0.6c-0.1,0.1-0.4,0.1-0.4-0.1
	l0-0.2c0-0.2,0-0.2,0-0.4c0-0.2,0.2-0.6,0.2-0.6c0.1-0.1,0.2-0.3,0.1-0.5C583.7,31.2,583.7,31,583.8,30.8z"/>
<path class="st0" d="M607.9,49c0.1-0.2,0.4-0.8,0.6-0.8c0.2-0.1,0.6-0.3,0.9-0.5c0.3-0.2,0.6-0.3,1-0.4c0.6-0.2,2-0.8,2.1-0.8
	l0.1-0.1l0.1,0c0.1,0,0.2-0.1,0.3-0.1c0,0,0,0,0.2-0.1c0,0,0.2-0.1,0.3-0.2c0.1,0,0.3-0.2,0.5-0.3c0.2-0.1,0.4-0.2,0.5-0.3
	c0.1-0.1,0.1-0.1,0.2-0.1l0.1-0.1l0.1-0.1l0.1-0.1c0,0,0.4-0.2,0.5-0.3c0.3-0.2,0.9-0.5,1.1-0.5c0.6-0.3,1.5-0.6,2.2-0.9
	c0.3-0.1,0.7-0.3,1-0.5c0.2-0.1,0.4-0.2,0.5-0.3l0.1-0.1l0.2-0.1l0.1-0.1l0.2-0.1c0.7-0.3,1.5-0.6,2.2-1c0.5-0.3,1.4-0.7,2.1-1
	c0.2-0.1,0.4-0.2,0.5-0.3c0.1-0.1,0.3-0.1,0.5-0.2c0.4-0.1,0.7-0.3,1.1-0.5c0.3-0.1,0.7-0.3,1-0.4c0.3-0.1,0.7-0.3,1.1-0.5l0.1,0
	l0.1,0l0.1-0.1c0.1,0,0.1,0,0.2-0.1c0.1,0,0.3-0.1,0.5-0.2c0.2-0.1,0.4-0.2,0.5-0.2c0.2-0.1,0.4-0.2,0.6-0.3c0.3-0.1,1-0.4,1-0.4
	c0.1,0,0.4-0.1,0.5-0.2c0.1-0.1,0.2-0.1,0.3-0.2c0.1,0,0.2-0.1,0.3-0.2c0.7-0.3,1.4-0.6,2-0.9c0.7-0.3,1.3-0.6,2-0.9
	c0.3-0.1,0.7-0.3,1-0.4l0.1,0c0.1,0,0.2-0.1,0.3-0.1l0.1-0.1l0.1-0.1l0.1-0.1l0.1-0.1l0.3-0.1l0.1,0c0.1,0,0.2-0.1,0.3-0.1
	c0.1-0.1,0.1-0.1,0.2-0.1c0.1,0,0.2-0.1,0.3-0.1l0.1,0l0.1,0l0.1-0.1l0.2-0.1c0.2-0.1,0.5-0.2,0.6-0.2l0.6,0.1l0,0.1
	c0,0,0,0.1,0.1,0.2c0.1,0.3,0,0.7-0.1,0.9c0,0.2-0.1,0.6-0.1,0.6c-0.1,0.2-0.1,0.5-0.2,0.7c0,0.2-0.5,0.7-0.7,0.8
	c-0.1,0.1-0.3,0.2-0.4,0.2c-0.2,0.1-0.3,0.1-0.5,0.2c-0.3,0.1-0.9,0.4-1,0.5c-0.6,0.3-1.3,0.6-2,0.8c-0.7,0.2-1.4,0.5-2,0.9
	c-0.7,0.4-1.5,0.8-2.2,1c-0.4,0.2-1.4,0.6-2.1,0.9c-0.6,0.3-1.3,0.6-2,0.8c-1.4,0.5-2.9,1.2-4.3,1.8c-0.1,0-0.1,0-0.2,0.1
	c-0.1,0-0.2,0.1-0.3,0.1c0,0,0,0-0.2,0.1c-0.1,0-0.2,0.1-0.3,0.2c0,0-0.4,0.2-0.5,0.2c-0.1,0.1-0.2,0.1-0.4,0.2
	c-0.1,0-0.2,0.1-0.3,0.1l-0.2,0.1c-0.1,0-0.2,0.1-0.3,0.1l-0.2,0.1c-0.1,0-0.2,0.1-0.3,0.1c-0.3,0.1-1.1,0.5-1.1,0.5
	c-0.8,0.3-1.5,0.7-2.2,1c0,0-0.3,0.1-0.5,0.2l-0.6,0.3c-0.1,0.1-0.1,0.1-0.2,0.1c-0.1,0-0.2,0.1-0.3,0.1c-0.2,0.1-0.4,0.2-0.6,0.3
	c-1,0.4-2.7,1.3-4.2,2c-0.2,0.1-0.7,0.3-1.1,0.5c-0.1,0.1-0.4,0.2-0.6,0.2c-0.2,0.1-0.4,0.2-0.6,0.3c-0.3,0.1-0.6,0.3-0.9,0.5
	c-0.3,0.2-0.7,0.4-1,0.5c-0.2,0.1-0.4,0-0.4-0.1c-0.1-0.3,0-0.8,0.1-1.1c0.1-0.3,0.1-0.4,0.1-0.5C607.8,49.5,607.8,49.3,607.9,49z"
	/>
<path class="st0" d="M626.8,52.4c0.1,0,0.4-0.2,0.5,0c0,0,0.2,0.2,0.2,0.2c0.1,0.1,0.2,0.1,0.2,0.1c0.2,0.1,0.6,0.4,0.6,0.4
	c0.1,0.1,0.3,0.2,0.4,0.3l0.1,0l0.1,0.1l0.1,0.1c0.1,0.1,0.2,0.1,0.3,0.2c0.2,0.2,0.7,0.4,1.1,0.6l0.1,0.1c0.1,0.1,0.1,0.1,0.3,0.3
	c0.1,0,0.1,0.1,0.2,0.2c0.1,0,0.1,0.1,0.1,0.1c0.1,0.1,0.1,0.1,0.1,0.1c0,0,0.2,0.3,0.3,0.4c0,0.1,0.1,0.2,0.1,0.2
	c0,0.1,0.1,0.4,0.2,0.4c0,0,0.1,0.3,0.1,0.3c0,0.1,0,0.7,0,0.7l0,0.1l0,0.1c0,0.1,0,0.1-0.1,0.2c-0.1,0.1-0.2,0.3-0.3,0.4
	c-0.6,0.4-1.1,1-1.6,1.5c-0.2,0.2-0.6,0.6-0.9,0.6c-0.3,0-1.5-0.3-1.7-0.4l-0.2-0.1l-0.2-0.1c-0.1-0.1-0.2-0.1-0.2-0.2l-0.2-0.2
	c-0.3-0.2-0.8-0.5-1-0.6c-0.1-0.1-0.1-0.1-0.2-0.1l-0.1-0.1c-0.1-0.1-0.1-0.1-0.1-0.1c-0.2-0.1-0.4-0.3-0.5-0.3
	c-0.3-0.2-0.7-0.5-0.4-1.1c0-0.1,0-0.1,0.1-0.2l0.1-0.1l0-0.1l0-0.1c0.1-0.2,0.2-0.4,0.4-0.6c0.3-0.4,0.4-0.8,0.6-1.3
	c0.1-0.3,0.4-0.8,0.7-1.1c0.1-0.2,0.2-0.3,0.4-0.4C626.5,52.8,626.8,52.4,626.8,52.4z"/>
<path class="st0" d="M654.2,27.3c0.2-0.4,0.5-0.7,0.7-1c0-0.1,0.2-0.2,0.3-0.3l0.1-0.1c0,0,0.1-0.2,0.2-0.3l0.2-0.2l0-0.1
	c0.6-0.7,1.3-1.3,2-1.8c0.3-0.2,1-0.3,1.5-0.4c0.6-0.1,1.3,0,1.9,0.1c0.8,0.1,1.8,0.3,2.5,0.5c0.6,0.1,1.6,0.3,1.9,0.5
	c0.6,0.2,1.9,0.6,2,0.6c0.2,0.1,0.4,0.2,0.6,0.2c0.1,0,0.1,0,0.2,0.1l0.1,0c0.2,0.1,0.2,0.1,0.3,0.1c0.1,0,0.2,0.1,0.3,0.1
	c0.1,0,0.2,0.1,0.3,0.1c0.1,0,0.2,0.1,0.3,0.1c0.1,0,0.3,0.1,0.3,0.1c0.1,0.2,0.2,0.3,0.2,0.6c0,0.2-0.6,1.9-0.7,2.1
	c-0.2,0.3-3.5,2.5-4,2.7c0,0-0.5,0.3-0.7,0.4c-0.3,0.1-0.6,0.3-0.8,0.4c-0.3,0.1-0.5,0.2-0.8,0.4c-0.3,0.1-0.6,0.3-0.9,0.4
	c-0.5,0.2-1.6,0.7-1.6,0.7c-0.1,0.1-0.4,0.2-0.4,0.2l-0.3,0.2l-0.1,0.1c-0.3,0.1-0.8,0.4-0.9,0.4c-0.1,0-1.2,0.2-1.2,0l-0.1-0.1
	l-0.1-0.1c0-0.1-0.1-0.2-0.1-0.3c-0.1-0.2,0.1-0.5,0.2-0.6c0.2-0.2,0.6-0.6,0.8-0.8c0.1-0.1,0.3-0.3,0.5-0.4l0.1-0.1
	c0.1-0.1,0.1-0.1,0.1-0.1c0.1-0.1,0.3-0.2,0.3-0.2c0.3-0.3,2.1-1.2,3.1-1.7c0.1-0.1,0.4-0.2,0.4-0.2s0.3-0.1,0.4-0.2
	c0.1-0.1,0.2-0.1,0.3-0.2c0,0,0.3-0.2,0.4-0.2l0.2-0.1l0.2-0.1l0.1-0.1l0.1-0.1l0.1-0.1l0.1-0.1l0.1-0.1c0.2-0.1,0.8-0.4,0.8-0.5
	c0,0-1.1-0.4-1.2-0.4c-0.4-0.1-1.1-0.3-1.4-0.4c-0.2,0-0.5-0.1-0.7-0.2c-0.1,0-0.3-0.1-0.4-0.1c0,0-0.4-0.1-0.5-0.1
	c-0.3-0.1-0.7-0.1-1-0.2c-0.2,0-0.3-0.1-0.5-0.1c-0.2,0-0.2,0-0.3-0.1c0,0-0.5,0-0.5-0.1c-0.3-0.1-1.1,0.1-1.4,0.2
	c0,0-0.3,0.2-0.5,0.4c0,0-0.2,0.1-0.3,0.1c-0.1,0.1-0.1,0.1-0.3,0.2l-0.1,0c-0.3,0.2-0.7,0.5-1,0.7c-0.3,0.3-0.7,0.5-0.9,0.8
	c-0.1,0.1-0.9,0.9-1.1,0.6c-0.1-0.2,0-0.6,0-0.7c0.1-0.1,0.2-0.4,0.2-0.4C654.1,28.1,654.1,27.6,654.2,27.3z"/>
<path class="st0" d="M676.1,37.9c0.1-0.3,0.9-1.4,1.4-2.1c0.5-0.7,1.6-1.4,2.5-1.7c0.3-0.1,0.7,0.1,0.9,0.3c0.2,0.1,0.4,0.3,0.5,0.4
	c0.5,0.2,1.3,0.7,1.5,0.6l0-0.1c0-0.1,0.1-0.2,0.1-0.2c0.1-0.1,0.1-0.3,0.2-0.4c0,0,0,0,0.1-0.2c0,0,0,0,0.1-0.2l0.1-0.2l0.1-0.2
	c0.3-0.5,0.5-0.9,0.8-1.4c0.5-0.9,1.1-1.6,1.7-2.4c0.6-0.7,1.4-1.5,2.2-2c0.6-0.4,1.4-0.8,2.2-0.9c0.6-0.1,1.7,0.1,2,0.5
	c0,0,0.2,0.2,0.3,0.3c0,0,0.1,0.2,0.2,0.3c0,0.1,0.2,0.2,0.3,0.4l0,0.1c0,0.1,0.1,0.2,0.2,0.3c0.2,0.2,0.4,1.1,0.4,1.4
	c0,0.6,0,1.1-0.1,1.6c-0.2,0.8-0.6,1.6-1,2.3c-0.6,1.1-1.4,2.1-2.4,2.8c-1.2,0.9-2.3,1.3-4,1.8c-0.9,0.3-4.6,0-5.5-0.4
	c-0.4-0.2-0.8-0.3-1.1-0.6l-0.2-0.1c-0.1,0-0.2-0.1-0.3-0.2c-0.1-0.1-0.5-0.3-0.5-0.3c-0.5-0.2-1.5,0.9-1.7,1.2
	c-0.2,0.3-0.5,0.9-0.5,1.1c0,0.2-0.1,0.3-0.2,0.5c0,0.1-0.1,0.2-0.2,0.3c-0.1,0.1-0.1,0.1-0.1,0.1c-0.3,0.6-1.4,0.8-1-0.7
	C675.5,39.2,675.8,38.5,676.1,37.9z"/>
<path class="st0" d="M681.2,42.5c0.1-0.1,0.5,0,0.5,0.1c0,0,0.1,0.1,0.1,0.1c0,0,0.1,0.1,0.1,0.2c0.1,0.2,0.2,0.3,0.3,0.5
	c0.2,0.4,0.1,1.1,0,1.6c0,0.5,0,0.9,0,1.4l0,0.1c0,0.1,0,0.2,0,0.3c0,0.3,0,0.3,0,0.3c0,0.1,0,0.1,0.1,0.3l0,0.2l0,0.2l0,0.2
	l0.1,0.3c0,0.1,0,0.1,0,0.3c0,0.3,0.1,0.6,0.2,1c0.1,0.3,0.2,0.8,0.2,1.1c0.2,1.2,0.3,2.5,0.8,3.5c0.1,0.2,0.2,0.6,0.3,0.7
	c0.1,0.4,0.1,1,0.2,1.1c0.1,0.3,0.1,0.6,0.2,0.9c0.1,0.3,0.1,0.7,0.2,1c0.1,0.5,0.3,0.9,0.4,1.4c0.1,0.3,0.1,0.6,0.2,0.9
	c0.1,0.3,0.1,0.7,0.2,1c0.1,0.2,0.1,0.6,0.2,0.9c0.1,0.3,0.1,0.6,0.2,0.9c0.1,0.2,0.2,0.8,0.2,0.8c0.1,0.3,0.3,0.6,0.3,1
	c0.1,1.1,0.1,2.2,0.4,3.1c0,0.2,0.1,0.4,0.2,0.7c0,0.1,0.1,0.6,0.2,0.9c0.8,4.1,1.3,8.4,1.3,13c0,1.2-0.3,4.5-0.8,5.4
	c0,0-0.1,0.2-0.1,0.3l-0.1,0.3c-0.1,0.2-0.2,0.6-0.2,0.7c-0.1,0.2-0.6,1.5-1,0.9c-0.1-0.1-0.1-3-0.1-3.8c0-1.1,0-3.5-0.1-3.9l0-0.4
	l-0.1-0.4c0-0.1,0-0.1,0-0.4c0-0.2,0-0.2,0-0.4c0-0.1,0-0.3,0-0.4c0-0.3,0-0.5-0.1-0.7c-0.1-0.3-0.1-0.7-0.2-1.1l0-0.3l0-0.2l0-0.4
	l-0.1-0.4c0-0.3,0-0.3,0-0.4c0-0.1-0.1-0.6-0.2-0.8c0,0,0-0.4-0.1-0.6c0-0.2-0.1-0.4-0.1-0.6c0,0,0-0.1,0-0.3l0-0.2l-0.1-0.3
	c0-0.2-0.1-0.3-0.1-0.4c0-0.1-0.1-0.3-0.1-0.5c-0.1-0.8-0.2-1.6-0.4-2.4c-0.1-0.3-0.1-0.6-0.2-0.8c0-0.1-0.1-0.5-0.1-0.5l-0.1-0.2
	l0-0.1l0-0.1c-0.1-1.3-0.4-2.5-0.7-3.8c0-0.1-0.1-0.5-0.1-0.5c0-0.2-0.1-0.3-0.1-0.5c-0.1-0.2-0.1-0.5-0.2-0.8
	c-0.1-0.7-0.3-1.6-0.4-2c0-0.1-0.1-0.2-0.1-0.3l0-0.3c0-0.1,0-0.3-0.1-0.3l0-0.1l0-0.2l0-0.1c0-0.1-0.1-0.3-0.1-0.5
	c-0.1-0.4-0.2-0.8-0.2-0.9c0-0.3-0.1-0.6-0.2-0.9c-0.1-0.2-0.2-0.9-0.4-1.5l0-0.1l0-0.1l0-0.1c0-0.2-0.1-0.5-0.1-0.5
	c-0.1-0.3-0.1-0.5-0.1-0.8c0-0.1-0.1-0.3-0.1-0.5c0-0.1-0.1-0.3-0.1-0.5c0-0.2-0.1-0.4-0.1-0.7c0-0.3-0.2-1-0.2-1
	c-0.3-0.5-0.4-1.3-0.4-2c0-0.4,0-0.9,0-1.3l0-0.3l0-0.3c0-0.2,0-0.2,0-0.3c0-0.2,0-0.5,0.1-0.7c0-0.3,0.1-0.4,0.1-0.7
	c0-0.3,0.1-0.7,0.2-1c0-0.1,0-0.1,0.1-0.3c0,0,0-0.5,0-0.5c0-0.2,0.1-0.4,0.1-0.6C680.7,43.6,680.9,42.7,681.2,42.5z"/>
<path class="st0" d="M688.2,35.5c0.9-0.2,3.5-1.6,3.6-2.4c0.1-0.6-0.8-2-1.2-2.2c-0.3-0.1-0.5-0.3-0.8-0.3c-0.7-0.1-2.2,0.9-2.6,1.2
	c-0.3,0.2-0.6,0.5-0.8,0.8l-0.3,0.3l-0.3,0.3l-0.1,0.2c0,0,0,0-0.1,0.1c-0.1,0.1-0.1,0.1-0.1,0.1c-0.2,0.2-1.2,1.8-1.1,1.9
	c0,0,0.8,0.1,0.9,0.1c0.4,0,0.9,0,1.7,0C687.4,35.7,687.9,35.6,688.2,35.5z"/>
<path class="st0" d="M729.1,99.6l-0.1,0.3l-0.2,0.1c-0.2,0.1-0.3,0.1-0.3,0.2l0.1,0.1l-0.2-0.1c-0.2,0-0.2,0-0.3,0.2
	c-0.1,0.1-0.2,0.2-0.2,0.2c-0.2-0.1-0.3,0.2-0.4,0.3c0,0.1-0.3,0.2-0.4,0.3c-0.3,0.1-0.6,0.3-0.9,0.4c-0.2,0-0.3,0.1-0.5,0.2
	c-0.1,0.1-0.3,0.1-0.5,0.2c-0.3,0-0.4,0.1-0.5,0.2c-0.1,0.1-0.3,0.2-0.4,0.2l-1.1,0.4c-0.3,0.1-0.6,0.2-0.9,0.4
	c-0.3,0.1-0.7,0.2-0.9,0.4c-0.2,0.1-0.6,0.3-0.7,0.4c-0.2,0.1-0.4,0.1-0.6,0.1c-0.2,0-0.6,0-0.7,0l-0.2,0.1c-0.1,0-0.2,0.1-0.3,0.1
	l-0.6,0.2l-0.2,0.1c-0.2,0-0.3,0.1-0.4,0.1c0,0-0.2,0-0.3,0c-0.5,0-0.5,0-0.7,0.1c-0.9,0.4-3.1,0.3-4.1,0.1c-0.4-0.1-1-0.2-1.5-0.3
	c-0.1,0-0.5-0.1-0.7-0.2l-0.2,0c0,0-0.3-0.1-0.3-0.1l-0.2-0.1c0,0-0.2-0.1-0.2-0.1c-0.2-0.1-0.5-0.2-0.5-0.2c-0.1,0-0.3-0.1-0.4-0.1
	l-0.3-0.1l-0.1-0.1c0,0-0.1-0.1-0.2-0.1l-0.2-0.1c-0.3-0.1-0.3-0.1-0.3-0.1c-0.1,0-0.1,0-0.2-0.1c-0.1,0-0.2-0.1-0.3-0.1
	c-0.3-0.1-0.7-0.2-1-0.4l-0.2-0.1c-0.1-0.1-0.3-0.2-0.4-0.2c0,0,0,0-0.2-0.1c0,0-0.1-0.1-0.2-0.1c0,0-0.1-0.1-0.1-0.1
	c-0.2-0.1-0.2-0.1-0.2-0.1c-0.2-0.1-0.4-0.2-0.5-0.4c-0.1-0.1-0.4-0.3-0.6-0.4c-0.3-0.2-0.7-0.6-1-0.9c-0.3-0.3-0.8-0.8-1-0.9
	c-0.3-0.1-0.3-0.2-0.5-0.4c0-0.1,0-0.1-0.1-0.1c0-0.1,0-0.1-0.1-0.2c0-0.1-0.1-0.1-0.1-0.2l0-0.1l0-0.1c0,0-0.1-0.1-0.2-0.2
	l-0.2-0.2c-0.1-0.2-0.2-0.5-0.3-0.7c-0.3-1-0.8-2.9-0.9-3.2c0-0.1-0.1-1.3-0.2-1.9c-0.1-0.9-0.1-2.1,0.2-3l0-0.1l0-0.2l0-0.1
	c0-0.1,0.1-0.3,0.1-0.4l0.2-0.6c0,0,0.1-0.2,0.1-0.2c0-0.1,0.1-0.2,0.1-0.3c0-0.2,0.1-0.4,0.2-0.6c0.1-0.3,0.4-1.7,0.7-2.5
	c0.1-0.4,0.3-0.8,0.4-1.2c0.2-0.4,0.4-0.9,0.5-1.3c0-0.1,0.1-0.2,0.1-0.3l0-0.1c0.1-0.1,0.1-0.1,0.1-0.2l0.1-0.2l0.1-0.1l0.1-0.2
	l0.1-0.1c0.1-0.2,0.2-0.4,0.3-0.5c0-0.1,0.1-0.1,0.2-0.2c0.1-0.1,0.2-0.2,0.2-0.3c0.1-0.1,0.9-0.3,1.1-0.3c0.2,0,0.3,1.3,0.2,1.5
	c-0.2,0.4-0.4,0.8-0.7,1.1c-0.2,0.3-0.5,0.7-0.6,1.1c-0.1,0.3-0.2,0.6-0.3,0.9c-0.1,0.2-0.1,0.5-0.2,0.7c0,0.3-0.1,0.6-0.1,0.7
	c0,0-0.1,0.4-0.1,0.5c0,0.2-0.1,0.3-0.1,0.5c0,0.1-0.1,0.3-0.2,0.4c-0.1,0.2-0.3,0.4-0.3,0.5c0,0.2,0,0.5,0.1,0.7
	c0.1,0.2,0.2,0.6,0.2,0.6c0.1,0.5,0.2,1.2,0.3,1.7c0.1,0.5,0.5,2.4,0.6,2.6c0.1,0.1,0.2,0.3,0.2,0.4c0,0.1,0.2,0.3,0.3,0.5
	c0.2,0.3,0.4,0.6,0.7,0.8c0.2,0.2,0.6,0.6,0.7,0.7c0.3,0.2,0.6,0.5,0.8,0.7c0.2,0.2,1.6,1,2.6,1.6c2,1.1,5,1.7,7.6,1.7
	c0.1,0,0.4,0,0.6-0.1c0.2,0,0.4-0.1,0.5-0.1c0.2,0,0.4,0,0.5-0.1c0,0,0.4-0.1,0.6-0.1c0.6-0.1,1.2-0.2,1.8-0.3
	c0.7-0.2,1.3-0.4,2-0.6c0.7-0.2,1.7-0.6,2.1-0.9c0.3-0.2,1.3-0.6,1.9-0.9c0.3-0.1,0.6-0.3,1-0.4c0.4-0.1,0.8-0.3,1.1-0.5
	c0,0,0.3-0.2,0.4-0.3l0.2-0.1c0.1-0.1,0.2-0.1,0.2-0.1l0.1-0.1c0.1-0.1,0.1-0.1,0.1-0.1c0.1-0.1,0.3-0.2,0.4-0.3
	c0.2-0.2,0.4-0.3,0.7-0.5c0.2-0.1,0.5-0.4,0.7-0.6l0.4-0.5l0.1-0.1l0.2-0.2l0-0.1c0,0,0.1-0.1,0.2-0.2c0.1-0.1,0.1-0.1,0.2-0.2
	c0.1-0.1,0.1-0.1,0.2-0.2c0.5-0.4,1.1-0.9,1.4-1.5c0.1-0.1-0.3-0.5-0.4-0.6l-0.2-0.1c-0.1,0-0.2-0.1-0.2-0.1
	c-0.2-0.1-0.3-0.2-0.5-0.2l-0.3-0.1l-0.1,0l-0.1,0c0,0-0.2-0.1-0.4-0.1c-0.1,0-0.2-0.1-0.3-0.1c-0.1-0.1-0.7-0.3-1-0.4
	c-0.1-0.1-0.3-0.1-0.5-0.1l-0.1,0l-0.2-0.1l-0.2,0c-0.6,0-0.6,0-0.6-0.1c-0.3-0.1-1.1-0.2-1.5-0.4c-0.2-0.1-0.5-0.2-0.6-0.2l-0.1,0
	c-0.2,0-0.3,0-0.5,0c-0.1,0-0.3,0-0.4-0.1c-0.4-0.1-0.9-0.2-1.2-0.3c-0.3-0.1-0.6-0.1-0.8-0.1h-0.1c-0.6,0-0.6,0-0.9,0
	c-0.2,0-0.5-0.1-0.5-0.1c-0.1-0.1-0.2-0.2-0.3-0.5c-0.1-0.2,0.1-1.2,0.3-1.4c0-0.1,0-0.1,0.1-0.2c0-0.1,0.1-0.3,0.2-0.4
	c0-0.1,0.2-0.3,0.3-0.4l0.1-0.2l0-0.1c0.1-0.1,0.4-0.5,0.5-0.5h0.3h0.2h0.2h0.5c0.1,0,0.3-0.1,0.5-0.1c1.2-0.3,2.2-0.8,3.3-1.3
	c0.3-0.1,2.4-1.5,2.5-1.7c0.1-0.1,0.1-0.1,0.1-0.1c0.1-0.1,0.2-0.3,0.3-0.4c0.1-0.3,0.4-0.8,0.4-1.1l0-0.1l0-0.1l0-0.2l0-0.1l0-0.2
	l0-0.3l-0.2-1.2c-0.1-0.3-0.1-0.6-0.2-0.8c-0.1-0.2-0.3-0.9-0.4-0.8c0,0-0.2,0.3-0.2,0.4c-0.1,0.1-0.2,0.3-0.4,0.4
	c-0.3,0.2-0.6,0.3-0.8,0.6c-0.4,0.4-1.1,0.8-1.7,1.2c-0.7,0.4-2.4,0.9-3.4,0.7c-1.1-0.1-2.1-0.9-2.8-1.5c-0.4-0.4-0.9-0.9-1.2-1.4
	c-0.3-0.5-0.6-1.2-0.7-1.9c-0.2-1,0.6-4.1,1-5.8c0.2-0.7,0.6-1.5,1-2.2c0,0,0.1-0.2,0.2-0.3c0.1-0.1,0.2-0.3,0.3-0.4
	c0.2-0.3,0.3-0.6,0.5-0.9c0.3-0.5,0.7-0.9,1-1.4c0.2-0.3,0.4-0.4,0.6-0.6c0.1-0.1,0.2-0.2,0.3-0.3c0.1-0.1,0.3-0.3,0.3-0.3
	c0.1-0.1,1-0.3,1.2-0.3c0.2,0,0.7,0.3,1.1,0.5c0.2,0.1,0.9,0.6,1.3,1c0.4,0.4,1,0.8,1.3,1.2c0.4,0.5,1.1,1.4,1.3,1.6
	c0.3,0.7,0.7,1.5,1.1,2.2c0.4,0.7,0.8,1.5,1.1,2.4c0.1,0.3,0.5,1.7,0.8,2.8c0.2,0.6,0.2,2.2,0.2,3.2c0,0.2-0.1,0.9-0.2,1.4
	c-0.1,0.5-0.2,1-0.2,1.7c0,0.5-0.4,1.3-0.6,1.9l-0.1,0.2l0,0.1l0,0.1c0,0.1,0,0.1-0.1,0.2c-0.1,0.1-0.1,0.2-0.1,0.3
	c0,0.1-0.1,0.2-0.1,0.2c0,0,0,0-0.1,0.2l0,0.1l0,0.1l-0.1,0.1l-0.1,0.2c-0.1,0.3-0.3,0.6-0.4,0.8c-0.1,0.2-0.4,0.8-0.4,0.8
	c0,0,0.3,0.1,0.3,0.1c0.2,0.1,0.6,0.1,0.7,0.2c0.1,0.1,0.3,0.1,0.5,0.2c0.1,0,0.5,0.2,0.5,0.2c0.2,0.1,0.4,0.2,0.5,0.2
	c0.2,0,0.5,0.1,0.5,0.1c0.4,0.1,0.9,0.3,1,0.4c0.3,0.2,0.6,0.4,0.8,0.6c0,0,0,0,0.1,0.1c0.1,0.1,0.1,0.2,0.2,0.3
	c0.1,0.2,0.2,0.5,0.3,0.8c0,0.1,0.1,3.1,0.1,3.3c-0.2,0.5-0.5,1.5-0.5,1.6c-0.2,0.5-0.3,1.2-0.6,1.6c-0.1,0.2-0.4,0.5-0.7,0.8
	c-0.1,0.1-0.3,0.3-0.4,0.5l-0.1,0.2l-0.1,0.1l0,0.1c-0.3,0.3-0.5,0.6-0.8,0.9c-0.2,0.2-0.8,0.8-0.8,0.8c-0.5,0.6-1.1,1.1-1.7,1.7
	l-0.1,0l-0.2,0.2c-0.1,0.1-0.1,0.1-0.2,0.2l-0.2,0.1c-0.1,0.1-0.1,0.1-0.2,0.1c-0.1,0.1-0.5,0.4-0.5,0.4c0,0-0.1,0.1-0.1,0.1
	C729.1,99.7,729.1,99.6,729.1,99.6z"/>
<path class="st0" d="M716.1,113.4c0.2-0.3,0.4-0.6,0.7-0.8l0.2,0l0.4,0l0.3,0c0,0,0.4-0.1,0.5-0.1c0.3,0,0.5-0.1,0.8-0.2
	c0.4-0.1,0.8-0.2,1.1-0.3c0.1,0,0.2-0.1,0.3-0.1c0.1,0,0.2-0.1,0.3-0.1c0.2-0.1,0.4-0.2,0.7-0.2c0.4-0.1,0.8-0.3,1.3-0.4l2.5-0.8
	c0.5-0.2,2.4-0.8,2.4-0.8c0.6-0.1,1.6-0.5,2.3-0.7c0.4-0.1,0.8-0.3,1.2-0.4c0.4-0.1,0.8-0.2,1.1-0.4c0.8-0.3,1.8-0.6,2.6-0.9
	c0.2-0.1,0.4-0.1,0.6-0.2l0.1-0.1c0.1-0.1,0.1-0.1,0.1-0.1l0.2-0.1l0.2-0.1c0.2-0.1,0.5-0.2,0.7-0.2c0.1,0,0.2-0.1,0.3-0.1
	c0.1-0.1,0.8,0.1,0.8,0.1c0,0,0.1,0.1,0.1,0.1c0,0.1,0.1,0.2,0.1,0.3c0.1,0.7-0.5,2.2-0.9,2.5c-0.1,0-0.2,0.1-0.2,0.2
	c-0.1,0.1-0.2,0.2-0.2,0.2c-0.1,0.1-0.3,0.2-0.5,0.2c-0.5,0.1-1,0.2-1.4,0.4c-0.4,0.2-1.6,0.6-2.5,0.9l-0.1,0l-0.1,0l-0.1,0
	l-0.2,0.1c-0.2,0.1-0.3,0.1-0.5,0.2c-0.4,0.1-1,0.4-1.2,0.4c-0.4,0.1-0.8,0.2-1.2,0.4c-0.2,0.1-0.4,0.1-0.6,0.2c0,0-0.2,0.1-0.3,0.1
	c-0.1,0.1-0.2,0.1-0.4,0.1c-0.8,0.2-1.6,0.4-2.3,0.7c-0.8,0.3-1.8,0.6-2.5,0.8c-0.8,0.2-2.2,0.6-2.5,0.7c-0.9,0.3-1.8,0.7-2.6,0.8
	l-0.1,0l-0.1,0l-0.1,0l-0.2,0c-0.2,0-0.5,0.1-0.5,0.1l-0.1,0l-0.1,0l-0.1,0c-0.1,0-0.5,0.1-0.5,0l-0.2-0.1c-0.1-0.1-0.1-0.3-0.1-0.6
	c0-0.1,0.2-0.5,0.2-0.6c0,0,0.1-0.1,0.1-0.2c0.1-0.1,0.1-0.2,0.1-0.3v-0.2l0-0.2v-0.3C716.1,113.6,716.1,113.4,716.1,113.4z"/>
<path class="st0" d="M720.4,47.3c0.1-0.3,1.9,1,1.9,1c0.1,0.1,0.2,0.1,0.4,0.2c0.2,0.1,0.3,0.2,0.5,0.3c0.2,0.1,0.3,0.2,0.5,0.3
	c0.1,0.1,0.3,0.3,0.4,0.3c0.2,0.1,0.8,1,0.9,1.2c0.1,0.3,0.2,0.7,0.2,1.1c0,0.6-0.8,1.3-1.3,1.6c-0.2,0.2-0.5,0.6-0.6,0.9
	c-0.3,0.4-0.5,0.8-1.1,0.7c0,0-0.2-0.1-0.3-0.2c-0.1,0-0.2-0.1-0.3-0.1c0,0-0.4-0.1-0.6-0.2c-0.3-0.1-0.7-0.4-1-0.6
	c-0.3-0.2-0.6-0.5-0.9-0.6c-0.3-0.2-0.6-0.4-0.9-0.6c-0.1-0.1-0.2-0.7-0.1-0.8c0.1-0.2,0.1-0.2,0.1-0.3l0-0.1l0-0.1l0-0.1
	c0-0.1,0.1-0.2,0.1-0.3c0-0.1,0.1-0.2,0.1-0.3c0-0.1,0.1-0.2,0.1-0.2c0-0.1,0.1-0.2,0.2-0.3c0-0.1,0.1-0.2,0.2-0.4v-0.2
	c0-0.1,0-0.1,0.1-0.3C719.2,49.1,720.1,47.4,720.4,47.3z"/>
<path class="st1" d="M724.8,72.2c1.3-0.1,2.2-0.3,3.1-0.8c0.4-0.2,0.7-0.4,0.4-0.9c-0.2-0.3-0.4-0.6-0.7-0.9
	c-0.6-0.7-2.4-2.4-3.1-2.6c-0.3-0.1-0.5-0.1-0.7-0.1c-0.3,0-0.7,0.4-0.8,0.5c-0.5,0.6-1.5,1.8-1.4,2.5
	C721.7,70.8,723.8,72.1,724.8,72.2z"/>
<path class="st0" d="M401.1,47.8c0.2-0.2,0.3-0.5,0.6-0.6c0.2-0.1,0.6,0.2,0.9,0.3c0,0,0.5,0.3,0.9,0.5c0.1,0,0.2,0.1,0.3,0.2
	l0.2,0.2l0.2,0.1c0.1,0.1,0.2,0.1,0.3,0.2c0,0,0,0,0.1,0.1c0.1,0.1,0.2,0.1,0.2,0.1c0.4,0.2,1.9,1.7,2,2.2l0.1,0.3l0,0.1
	c0,0.1,0,0.7,0,0.7l0,0.1l0,0.1c0,0.1-0.1,0.2-0.2,0.3c-0.1,0.2-0.2,0.3-0.3,0.5c0,0-0.2,0.2-0.3,0.3c-0.1,0.1-0.3,0.3-0.4,0.4
	c-0.1,0.1-0.2,0.3-0.4,0.5l-0.1,0.1c0,0.1-0.1,0.1-0.1,0.2c-0.2,0.3-0.4,0.6-0.7,0.8c-0.3,0.2-2.3-1-2.5-1.2
	c-0.4-0.2-0.8-0.5-1.2-0.7c-0.3-0.1-0.9-0.5-1-0.8C399.4,52.2,400.9,48.2,401.1,47.8z"/>
<g>
	<path class="st2" d="M477.5,84.3c-1,0.2-2.8,0.6-2.9,0.7c-0.5,0.1-1,0.3-1.5,0.3c-0.5,0.1-1.1,0.2-1.6,0.3c-0.1,0-0.3,0.1-0.4,0.1
		c-0.1,0-0.1,0-0.2,0.1l-0.6,0.2l-0.6,0.2c0,0-0.6,0.2-0.6,0.1c0-0.1,0.2-0.3,0.4-0.3c0.1-0.1,0.3-0.2,0.4-0.3
		c0.1-0.1,0.2-0.2,0.4-0.3c0.1-0.1,0.2-0.2,0.3-0.3c0.3-0.2,0.5-0.5,0.8-0.7c0.1-0.1,0.4-0.3,0.4-0.3c0.1-0.1,0.2-0.1,0.2-0.2
		l0.1-0.1c0.5-0.5,3.7-6.3,3.7-7.5c0-0.4,0-0.5-0.1-0.8c0-0.1-0.1-0.4-0.1-0.4c0-0.6-0.1-1.3-0.2-1.6c-0.4-1.2-1.4-2-2.6-2.4
		c-0.2-0.1-0.3-0.1-0.4-0.2c-0.1-0.1-0.3-0.1-0.4-0.2c-0.1,0-0.4-0.1-0.5-0.1l-0.2-0.1l-0.2-0.1c-0.4,0-0.6-0.1-0.9-0.2l-0.2-0.1
		l-0.9,0l-0.1,0c-0.7-0.1-1.5-0.2-2.1-0.1c-0.3,0-0.8,0.2-1.1,0.3c-0.1,0-0.1,0-0.2,0.1c-0.1,0.1-0.1,0.1-0.2,0.1c0,0,0,0-0.2,0.1
		c0,0-0.2,0.1-0.2,0.1c-0.6,0.2-1,0.4-1.5,0.8c-0.8,0.5-1.8,1.1-2.5,1.7c-0.1,0.1-0.4,0.4-0.6,0.5c-0.1,0.1-0.2,0.2-0.4,0.3
		c-0.1,0-0.2,0.2-0.3,0.2c-0.4,0.4-0.9,0.8-1.2,1.1c-0.8,0.8-1.6,1.6-2.5,2.3c-0.7,0.6-1.5,1.2-2.3,1.8c-0.2,0.2-0.4,0.3-0.7,0.5
		c-0.1,0.1-0.1,0.1-0.2,0.1c-0.1,0.1-0.1,0.1-0.2,0.1c0,0-0.2,0.1-0.3,0.2l-0.2,0.1c-0.1,0.1-0.1,0.1-0.1,0.1
		c-0.1,0.1-0.2,0.2-0.3,0.2l-0.2,0.1c-0.1,0-0.4,0.3-0.4,0.3c0-0.1,0.3-1,0.4-1.3c0-0.1,0.1-0.4,0.2-0.6c0,0,0,0,0.1-0.2l0-0.1
		c0-0.1,0.1-0.2,0.1-0.3c0.3-0.8,0.6-1.6,0.7-2.4c0.1-0.7,0.2-1.5,0.2-2.3c0-1.7-0.3-4.6-0.5-6.8c0-0.5-0.7-4.5-1.1-6.4
		c-0.3-1.6-0.6-3.5-1-4.6c-0.3-0.8-0.8-4-1-5.8c0-0.2-0.1-0.4-0.1-0.6c0-0.2-0.1-0.4-0.1-0.5l-0.3-0.9c-0.2-0.7-0.5-1.8-0.5-2.2
		c0-0.3,0.1-0.6,0.2-0.9c0.1-0.2,0.2-0.4,0.4-0.5c0.1-0.1,0.1-0.1,0.2-0.2c0,0,0,0,0.2-0.1l0.1-0.1c0.3-0.3,0.4-0.6,0.5-1
		c0.1-0.4,0.1-1.1,0-1.6c-0.1-0.5-0.2-0.9-0.5-1.3c-0.2-0.3-0.6-0.6-1-0.8c-0.3-0.2-0.6-0.6-0.8-0.9c-0.3-0.4-0.6-0.8-0.7-1.3
		c-0.1-0.3-0.5-1.3-0.6-1.3c-0.2,0-0.3,0-0.5,0.1c-0.2,0.1-1.1,2.1-1.2,2.5c0,0.1-0.1,0.2-0.2,0.3c0,0,0,0-0.1,0.1
		c-0.1,0.2-0.2,0.3-0.2,0.4c0,0.1-0.1,0.2-0.1,0.3c-0.2,0.3-0.5,1.2-0.4,1.6l0.2,0.8c0,0.1,0,0.1,0.1,0.2l0,0.1l0,0.1l0,0.1
		c0,0.1,0.1,0.3,0.1,0.4c0.1,0.2,0.3,0.5,0.4,0.7c0.1,0.2,0.4,0.6,0.4,0.7c0.1,0.6,0.2,1.1,0.3,1.6c0,0.1,0.1,0.3,0.1,0.5
		c0,0.1,0.1,0.3,0.1,0.4c0,0.2,0.1,0.5,0.1,0.8c0,0.2,0,0.7,0,0.8c0,0.2,0.1,0.3,0.1,0.5c0,0.2,0,0.2,0,0.7v0.1v0.6
		c0,0,0.1,0.2,0.1,0.4c0,0.1,0.1,0.2,0.1,0.3c0,0.2,0.1,0.4,0.1,0.6c0,0.2,0.1,0.4,0.2,0.6l0.2,0.4c0.2,0.8,0.5,1.6,0.6,2.4
		c0.1,0.8,0.5,2.7,0.6,2.9c0,0,0,0.3,0.1,0.5c0,0,0.1,0.4,0.1,0.5c0,0.1,0,0.2,0.1,0.4l0,0.1l0,0.2l0.2,0.8c0,0.2,0.1,0.4,0.1,0.8
		c0,0.2,0,0.2,0.1,0.3c0.1,0.2,0.1,0.5,0.2,0.7c0,0.2,0.1,0.4,0.1,0.6l0.1,0.3l0.1,0.3c0,0.2,0.1,0.3,0.1,0.5c0,0.2,0,0.2,0.1,0.3
		c0,0.1,0,0.2,0.1,0.2l0,0.1c0,0,0.1,0.2,0.1,0.3l0.1,0.3l0,0.1l0,0.2c0.1,0.5,0.1,0.9,0.2,1.4c0,0.4,0,0.7,0.1,1
		c0.1,0.2,0.1,0.6,0.1,0.9c0,0.3,0.1,0.5,0.1,0.7c0,0.3,0.1,0.6,0.2,0.9c0,0.2,0.1,0.4,0.1,0.6c0,0.3,0,0.3,0,0.4c0,0.1,0,0.1,0,0.2
		l0,0.1l0,0.4l0,0.8l0,0.3c0,0.1,0,0.1,0,0.3l0,0.2l0,0.4l0,0.2c0,0.3,0,0.3,0,0.6v0.3c0,0.2,0,0.4,0.1,0.6c0,0.2,0.1,0.5,0.1,0.6
		v1.6l0,0.5c0.1,0.2-0.6,3-0.8,3.6c-0.1,0.3-1.2,1.1-1.5,1.3c-0.6,0.4-1.4,0.9-1.6,1c0,0-0.3,0.2-0.4,0.3c-0.1,0.1-0.3,0.2-0.4,0.3
		c-0.2,0.2-0.5,0.3-0.7,0.5c-0.1,0-0.3,0.2-0.4,0.3c-0.2,0.1-0.2,0.1-0.2,0.1l-0.2,0.1c-0.2,0.1-0.3,0.2-0.4,0.3
		c-0.1,0.1-0.1,0.1-0.2,0.1c0,0-0.2,0.1-0.2,0.1c0,0-0.8,0-0.9,0c-0.1,0-1.1,0-1.2,0.1l-0.2,0c-0.6,0-1.3,0-1.9,0
		c-0.3,0-0.5,0-0.9,0c-0.9,0.1-1.8,0.1-2.7,0c-0.5,0-0.9-0.1-1-0.1c-0.2,0-0.4,0-0.6,0l-0.5,0l-0.2,0l-0.5,0l-0.5-0.1l-0.2-0.1
		c-0.1,0-0.1,0-0.2-0.1c-0.2,0-0.5-0.1-0.6-0.1c-0.2,0-0.4-0.1-0.6-0.1c-0.7-0.1-1.4-0.2-2-0.4c-0.2-0.1-0.5-0.2-0.8-0.2
		c-0.2-0.1-0.5-0.1-0.7-0.2c-0.1,0-0.1,0-0.2-0.1c-0.2,0-0.2,0-0.3-0.1c-0.1,0-0.3-0.1-0.4-0.1c-0.3-0.1-0.6-0.2-0.8-0.2
		c-0.4-0.1-0.7-0.3-1-0.4c0,0-0.2-0.1-0.3-0.1l-0.3-0.2c-0.1-0.1-0.4-0.2-0.5-0.2c-0.2,0-1.9-1.2-2-1.4c-0.2-0.4-0.7-0.8-1-1.1
		c-0.4-0.3-0.8-0.8-1-1.2c-0.3-0.5-0.5-1.1-0.8-1.7c-0.1-0.2-0.3-0.7-0.5-1c-0.1-0.3-0.2-0.6-0.3-0.9c-0.2-0.7-0.5-1.7-0.5-1.9
		c-0.1-0.8-0.3-1.6-0.5-2.4c-0.1-0.4-0.2-0.9-0.3-1.2c0-0.2-0.1-0.6-0.1-0.7c0-0.6-0.1-1.2-0.1-1.3l0-0.2l-0.1-0.2l-0.1-0.3
		c-0.1-0.2-0.1-0.5-0.2-0.8l0-0.2l0-1.1c0-0.1,0-0.2-0.1-0.3c-0.1-0.3-0.3-0.9-0.3-1.1c-0.1-0.5-0.1-0.9-0.3-1.3
		c0-0.1-0.1-0.2-0.1-0.2c0,0-0.1-0.2-0.1-0.2c0-0.3,0-0.3,0-0.5c0-0.2,0-0.3,0-0.8c0-0.2-0.2-1-0.5-0.8c-0.7,0.4-1.7,5.3-1.6,6.6
		c0,0.3,0.1,0.6,0.1,0.9c0,0.1,0.1,0.3,0.1,0.3c0,0,0.1,0.2,0.1,0.2c0,0.2-2.7,1.5-3.3,1.7c-0.8,0.3-2,1.1-2.9,1.7
		c-0.9,0.6-1.7,1.2-2.5,2c-0.4,0.4-0.8,0.8-1.1,1.1c-0.1,0.1-0.2,0.2-0.3,0.3c-0.1,0.1-0.1,0.2-0.2,0.2c-0.1,0.1-0.2,0.2-0.2,0.3
		c0,0-0.2,0.3-0.2,0.3c-0.2,0.3-0.7,1.3-1.1,1.9c-0.2,0.3-0.3,0.6-0.5,0.9c-0.2,0.3-0.3,0.6-0.4,0.9c-0.1,0.2-0.1,0.3-0.2,0.5
		c0,0.1-0.1,0.2-0.1,0.3l0,0.1c-0.1,0.2-0.2,0.6-0.2,0.6c0,0.1,0,0.3-0.1,0.5c0,0.1,0,0.1-0.1,0.2c-0.2,0.5-0.8,1.9-0.6,2.3
		c0.1,0.2,0.4,0.3,0.6,0.4c0.2,0.1,0.4,0.1,1,0.1c0.4,0,0.8,0,1.2,0.1c0.3,0,0.6,0.1,1,0.1h0.6h0.1l0.1,0c0.2,0,3.5,0.1,3.7,0
		c0.2-0.1,0.5-0.1,0.7-0.1c0.5,0,0.5,0,0.7-0.1c0.1,0,0.4-0.1,0.7-0.2c0.2-0.1,0.7-0.2,0.8-0.2c0.2,0,0.4,0,0.6-0.2
		c0.3-0.3,0.6-0.6,0.8-0.9c0.2-0.3,0.7-0.9,0.8-1c0,0,0,0,0.2-0.1l0.3-0.2c0.1-0.1,0.2-0.2,0.4-0.3c0.3-0.2,0.6-0.3,0.8-0.5
		c0.2-0.2,0.5-0.5,0.7-0.7c0,0,0.1-0.1,0.1-0.2l0.1-0.1l0.1-0.1c0,0,0.5-0.4,0.5-0.2c0.1,0.9,0.4,1.6,0.7,2.4
		c0.1,0.3,0.3,0.8,0.5,1.2c0.1,0.2,0.2,0.5,0.3,0.7c0,0,0.1,0.2,0.1,0.3c0,0.1,0,0.2,0.1,0.2c0,0.1,0.2,0.2,0.4,0.4
		c0.1,0.1,0.3,0.2,0.4,0.4c0.1,0.2,0.4,0.5,0.6,0.9c0.1,0.1,0.2,0.2,0.4,0.3c0.1,0.1,0.3,0.2,0.4,0.3c0.2,0.2,0.4,0.5,0.6,0.8
		c0.1,0.2,0.2,0.2,0.4,0.3c0.2,0.1,0.3,0.1,0.5,0.2c0.1,0.1,0.4,0.2,0.4,0.2c0.2,0.1,0.2,0.2,0.3,0.2c0,0,0.1,0.1,0.2,0.1
		c0.1,0,0.1,0.1,0.2,0.1c0.2,0.1,0.4,0.1,0.5,0.2c0.2,0.1,0.2,0.2,0.3,0.3c0.1,0.1,0.2,0.1,0.3,0.2c0.2,0.1,0.4,0,0.5-0.1
		c0.1-0.1,0.3-0.1,0.4,0c0,0,0.5,0.2,0.7,0.3c0.2,0.1,0.5,0.1,0.7,0.1c0.5,0,0.5,0,0.7,0.1c0.2,0,0.3,0.1,0.4,0.2
		c0,0,0.3,0.1,0.4,0.2c0.3,0.1,0.6,0.2,0.9,0.3l0.2,0l0.4,0c0.1,0,0.3,0,0.5,0.1c0.1,0,0.2,0.1,0.3,0.1c0.1,0.1,0.3,0.1,0.4,0.1
		c0.5,0,0.6,0,0.7,0.1c0,0,0.5,0.4,0.5,0.4c0.1,0.1,0.9,0,0.9,0c0.2-0.1,0.3-0.1,0.7-0.1c0.2,0,0.6,0,0.8,0c0.3,0,0.6,0.1,0.8,0.2
		c0.1,0,0.3,0.1,0.4,0.1l0.2,0l0.4-0.1l0.1,0l0.3,0l0.1,0c0,0,1,0,1.2-0.1c0.5,0,0.7,0,1.2,0c0.4,0,1.1,0,1.2,0.1c0.4,0,0.8,0.1,1,0
		l0.1,0c0.1-0.1,0.2-0.1,0.3-0.1h0.2h0.7l0.4,0c0.6,0,1.1,0,1.7,0c0.7,0,1.4,0,2.1,0c1.2,0,2.3-0.1,3.4-0.1h0.1l0.2,0l0.4,0
		c0.6,0,0.6,0,1.1,0c0.4,0,3-0.1,4.2-0.2c0,0,0.3-0.1,0.4-0.1c0.1,0,0.3-0.1,0.5-0.1c0.4,0,0.4,0,0.5-0.1l0.3,0c0.4,0,0.4,0,0.5-0.1
		l0.2,0c1-0.1,2-0.2,3-0.2c0.5,0,1.7-0.1,1.8-0.1c0,0,0.2-0.1,0.3-0.1c0.1-0.1,0.2-0.1,0.4-0.1c0.3,0,0.7-0.1,1-0.1
		c0.3,0,0.7,0,1.1-0.1c0,0,1.4-0.2,1.8-0.3c0.5-0.1,1.9-0.3,2.2-0.2c0.7,0.2,3.4-0.3,4.5-0.6c0.3-0.1,0.7-0.2,1-0.3
		c0.2-0.1,1.4-0.2,2.2-0.4c0.2,0,0.5-0.2,0.7-0.3c0.2-0.1,0.4-0.2,0.6-0.3c0.2-0.1,0.4-0.1,0.7-0.2c0.3-0.1,0.5-0.1,0.7-0.2
		c0,0,0,0,0,0l-0.1-4.4C478.9,84,478.2,84.2,477.5,84.3z"/>
	<path class="st3" d="M526.1,83.5c-0.2,0-0.4,0.1-0.5,0.1l-0.2,0l-0.2,0c-0.1,0-0.2,0.1-0.4,0.1c-0.1,0.1-0.3,0.1-0.5,0.1l-0.1,0
		l-0.4,0c0,0-0.2,0-0.2,0.1c-0.3,0.1-0.7,0.2-1,0.2l-0.3,0l-0.2,0l-0.3,0l-0.2,0c-0.1,0-0.7,0.1-0.7,0.1c0.1-0.2,0.9-0.8,1.2-1
		c0.2-0.1,0.4-0.3,0.5-0.5c0.1-0.2,0.4-0.3,0.5-0.5c0.2-0.1,1.6-2,1.7-2.2c0.2-0.5,0.5-1.1,0.6-1.5c0.2-0.5,0.5-1,0.8-1.5
		c0.3-0.6,1.2-3,1-3.9c-0.1-0.4-0.1-0.6-0.3-0.9c-0.1-0.1-0.1-0.2-0.2-0.3c0,0,0,0-0.2-0.1c-0.1,0-0.1,0-0.1-0.1
		c-0.2-0.4-0.5-0.8-0.8-1.2c-0.1-0.2-0.9-0.5-1.3-0.6c-0.1,0-0.1,0-0.2-0.1l-0.1-0.1l-0.1-0.1c0,0-0.1,0-0.4-0.1l-0.2-0.1
		c-0.1,0-0.4-0.1-0.5-0.1c-0.2,0-0.4-0.1-0.5-0.1c-0.2,0-0.5-0.1-0.5-0.1c-0.2,0-0.4,0-0.7-0.1c-0.2,0-0.4-0.1-0.5-0.1
		c-0.5,0-0.5,0-0.8-0.1c-0.1,0-1.2-0.1-1.8-0.1c-0.4,0-1,0-1.3,0.1c-0.1,0-0.2,0.1-0.3,0.1c-0.2,0.1-0.3,0.1-0.5,0.2
		c-0.1,0-0.1,0-0.2,0.1l-0.1,0l-0.1,0.1l-0.1,0.1l-0.1,0c-0.1,0.1-0.4,0.2-0.5,0.2c-0.5,0.1-0.9,0.3-1.1,0.3
		c-0.1,0.1-0.4,0.2-0.5,0.2c0,0,0,0-0.2,0.1l-0.3,0.1c0,0-0.9,0.5-1.3,0.8c-0.2,0.1-0.4,0.3-0.6,0.4c-0.2,0.1-0.4,0.3-0.5,0.4
		c-1,0.6-2.1,1.3-2.4,1.6c0,0,0,0-0.1,0.1c-0.3,0.3-0.6,0.5-0.7,0.6c-0.1,0.1-0.2,0.1-0.3,0.2c-0.3,0.3-0.7,0.7-1,0.9
		c-0.7,0.6-1.3,1.2-2.2,1.6c-0.9,0.5-2.9,2.2-4.2,3.3c-0.3,0.3-4.3,3.2-4.7,3.2c-1.1-0.1-3.3-1-4-1.5c-0.2-0.1-0.4-0.3-0.6-0.4
		c-0.2-0.1-0.4-0.3-0.6-0.4l-0.1-0.1l-0.1-0.1l-0.1-0.1c0,0,0,0-0.1-0.1c-0.1-0.1-0.3-0.2-0.3-0.2c-0.1-0.1-0.1-0.1-0.1-0.1
		l-0.1-0.1l-0.1-0.1c-0.2-0.1-0.2-0.5-0.2-0.6l0-0.3v-0.2c0-0.2,0-0.3-0.1-0.5c-0.1-0.2-0.2-0.5-0.3-0.7c-0.1-0.1-0.2-0.2-0.4-0.1
		c-0.2,0.1-0.4,0.3-0.5,0.4c-0.1,0.1-0.2,0.2-0.4,0.3c-0.4,0.3-0.9,0.6-0.9,0.7c-0.4,0.5-1.1,1-1.7,1.4c-0.5,0.4-1.7,1.2-2.1,1.3
		c-0.2,0-0.2,0.1-0.4,0.2c-0.1,0.1-0.2,0.1-0.3,0.2c-0.1,0-0.1,0.1-0.2,0.1l-0.2,0c-0.1,0-0.2,0.1-0.3,0.1c-0.4,0.2-0.9,0.4-1.1,0.5
		c-0.2,0.1-0.4,0.1-0.6,0.2l0.1,4.4c0.7-0.3,1.7-0.7,2.1-1c0.2-0.1,0.4-0.3,0.6-0.4c0.2-0.1,0.3-0.2,0.5-0.3
		c0.2-0.1,0.3-0.2,0.5-0.3c0,0,0.2-0.1,0.2-0.2c0.1-0.1,0.2-0.2,0.2-0.2c0.3-0.2,0.6-0.4,0.9-0.6c0.1-0.1,0.4-0.3,0.4-0.4
		c0,0,0.5-0.3,0.5-0.3c0.2,1,0.9,0.3,1.2-0.1c0,0,0.1,0.4,0.1,0.4c0,0.1,0,0.5,0.1,0.6l0,0.2l0,0.1c0,0.2,0.1,0.4,0.2,0.6
		c0,0.1,0.2,0.1,0.2,0.1c0.1,0,0.1,0,0.2,0.1c0,0,0.2,0.1,0.2,0.2c0.1,0.1,0.1,0.1,0.2,0.2c0.3,0.3,0.7,0.7,0.7,0.7
		c0.1,0.1,0.3,0.1,0.6,0.1c0.2,0,0.3,0.1,0.4,0.2c0.1,0.1,0.2,0.2,0.4,0.2c0.1,0,0.5,0.2,0.5,0.2c0,0.1-0.1,0.3-0.1,0.4l-0.1,0.3
		l0,0.1c0,0.1-0.1,0.3-0.1,0.4c0,0-0.1,0.3-0.1,0.4c0,0.1,0,0.2-0.1,0.3l0,0.1l-0.1,0.3c0,0.1,0,0.1,0,0.2c-0.1,0.2-0.1,0.4-0.2,0.5
		l0,0.1l0,0.2l0,0.2c-0.1,0.5-1.2,4-0.7,4.3c0.1,0.1,0.4,0,0.5-0.1c0.2-0.2,0.4-0.4,0.5-0.5c0.1-0.1,0.2-0.2,0.2-0.3l0.1-0.1l0-0.1
		l0-0.1c0.1-0.1,0.3-0.7,0.3-0.9c0-0.2,0.1-0.5,0.2-0.8c0.1-0.3,0.3-1,0.5-1.6c0.2-0.7,0.8-2.4,1.3-2.6c0.1-0.1,1.2,0.1,1.3,0.2
		c0.2,0.1,0.3,0.1,0.5,0.1c0.3,0,0.3-0.1,0.5,0c0.3,0.2,0.6,0.1,0.9,0c0.3-0.1,0.7,0.1,1.1,0.2c0.2,0.1,1.3,0.2,1.5,0.2
		c0.2,0,0.4-0.1,0.5-0.1c0.1,0,0.1,0,0.2,0.1c0.1,0,0.1,0.1,0.2,0.1c0.4,0,0.9,0.1,1.2,0l0.3-0.1l0.1,0l0.1,0c0.5,0,1.3-0.1,1.4-0.1
		c0.3,0,0.5,0.1,0.8,0.1c0.3,0,0.4,0,0.6,0l0.1,0l0.2,0c0.1,0,0.3,0,0.4-0.1c0.2-0.1,0.4-0.1,0.6,0c0.2,0,0.6,0,1-0.1
		c0.2,0,1.1-0.1,1.6-0.1c0.2,0,1,0,1.4,0c0.3,0,0.9,0,1.3-0.1c0.4,0,0.9-0.1,0.9-0.1c0.5,0,1.1,0,1.6,0c0.6-0.1,1.3,0,2,0
		c0.5,0,0.5,0,0.7-0.1c0.1-0.1,1.3-0.3,1.4-0.2l0.2,0.2c0.1,0,0.2,0.1,0.2,0.1c0.3,0,0.6-0.1,0.8-0.1c0.2-0.1,0.6-0.2,0.7-0.2
		c0.3,0,0.3,0,0.6,0c0.2,0,0.4,0.1,0.4,0c0.1,0,0.2,0,0.3-0.1c0.1-0.1,0.2-0.1,0.4-0.1c0.9,0,1.4-0.1,2.1-0.2
		c0.6-0.1,1.4-0.2,1.9-0.3c1-0.1,2.4-0.2,3.1-0.4l0.1-5C527.5,83.2,526.8,83.4,526.1,83.5z M519.5,80.4c-0.3,0.2-0.5,0.3-0.9,0.5
		c-0.3,0.1-0.8,0.4-0.9,0.4c-0.5,0.3-1.2,0.6-1.8,0.8c-0.2,0-0.4,0.1-0.7,0.1c0,0-0.2,0.1-0.2,0.1c-0.1,0.1-0.1,0.1-0.2,0.1
		c-0.2,0.1-0.4,0.1-0.7,0.2c0,0-0.2,0.1-0.2,0.1c-0.1,0.1-0.1,0.1-0.2,0.1c-0.5,0.2-1.1,0.4-1.7,0.5c0,0-0.3,0.1-0.4,0.1
		c-0.1,0-0.2,0.1-0.4,0.1l-0.7,0.1l-0.1,0l-0.5,0l-0.1,0c-0.7,0.2-1.3,0.3-2.1,0.4c-0.1,0-1.1,0.1-1.3,0.1h-0.2c-0.7,0-0.7,0-0.9,0
		c-0.3,0-0.3,0-0.5,0c-0.1,0-0.1,0-0.2,0c-0.2,0-0.2,0-0.9,0c-0.3,0-0.3,0-0.5,0c-0.2,0-0.2,0-0.5,0c-0.4,0-1.4,0.1-2.1,0.1
		c0,0-0.8,0-0.8-0.1c0,0,0.2-0.1,0.3-0.2c0.2-0.2,0.4-0.3,0.7-0.5c0.1-0.1,0.4-0.3,0.5-0.4c0.1-0.1,0.2-0.2,0.3-0.2
		c0.1,0,0.3-0.2,0.3-0.2c0.1-0.1,0.2-0.2,0.3-0.2c0.1-0.1,0.1-0.1,0.2-0.1c0,0,0.1-0.1,0.2-0.1c0.2-0.2,0.5-0.3,0.7-0.5
		c0.2-0.1,0.4-0.3,0.6-0.4c0.4-0.3,0.7-0.6,1-1c0.3-0.3,0.7-0.7,1.1-1c0.1-0.1,0.2-0.2,0.3-0.2c0.1-0.1,0.2-0.1,0.3-0.2
		c0.1-0.1,0.5-0.4,0.5-0.5c0-0.1,0.6-0.5,0.8-0.6c0,0,0,0,0.1-0.1l0.1-0.1c0.1,0,0.2-0.1,0.3-0.2c0.1-0.1,0.3-0.2,0.4-0.3
		c0.1-0.1,0.4-0.3,0.5-0.3c0.1-0.1,0.2-0.2,0.4-0.3c0.3-0.2,0.7-0.5,0.9-0.6c1.2-0.7,2.8-1.4,4.5-1.6c1.1-0.1,2.3-0.1,3.4,0.1
		c0.3,0,0.6,0.1,0.8,0.2c0.1,0.1,0.4,0.1,0.7,0.1c0.1,0,0.4,0,0.5,0.1c0.1,0,0.1,0,0.2,0.1c0.1,0,0.2,0,0.2,0.1l0.2,0.1
		c0.2,0.1,0.3,0.1,0.4,0.1l0.1,0l0.2,0.1c0.4,0.2,0.9,0.3,1.2,0.6c0.3,0.2,0.4,0.4,0.6,0.7c0,0,0.1,0.2,0.2,0.2l0.1,0l0.2,0
		c0.1,0.2-0.1,0.3-0.1,0.4c-0.1,0.1-0.2,0.1-0.2,0.2c-0.1,0-0.1,0-0.2,0.1c-0.1,0.1-0.2,0.2-0.3,0.3c-0.2,0.1-0.4,0.3-0.6,0.5
		c-0.4,0.4-0.8,0.7-1.4,1C520.5,79.8,520,80.1,519.5,80.4z"/>
	<path class="st2" d="M541.7,75.9c0.1-0.9,0.2-2,0.1-3c-0.3-1.5-1.7-3.8-2.6-5.2c-0.1-0.2-3.2-3.6-3.6-3.5c-0.5,0.1-1.6,4.6-1.5,5.6
		c0,0.1,0.8,1.1,1,1.2c0.1,0.1,0.4,0.3,0.6,0.5c0.2,0.2,0.4,0.3,0.6,0.5c0.1,0.1,0.2,0.2,0.3,0.3c0.3,0.4,0.6,0.7,0.7,0.9
		c0,0.1,0.1,0.1,0.2,0.2l0.1,0.2l0.1,0.2l0,0.1c0.1,0.1,0.2,0.2,0.2,0.3l0.1,0.2c0.1,0.1,0.2,0.2,0.2,0.3c0.3,0.5,1.7,3.3,1.5,3.9
		c-0.2,0.6-2.1,1.8-2.8,2c-0.6,0.2-1.2,0.4-1.7,0.5c-0.6,0.1-1.1,0.3-1.7,0.5c-0.3,0.1-0.6,0.2-0.8,0.3c-0.2,0.1-0.6,0.2-0.9,0.2
		c-0.6,0.1-1.2,0.2-1.7,0.4c-0.6,0.2-1.3,0.3-2,0.5l-0.1,5c0.1,0,0.2-0.1,0.3-0.1c0.2-0.1,0.8-0.2,1.3-0.4c0.2-0.1,0.5-0.1,0.8-0.2
		c0.2,0,0.4-0.1,0.5-0.2c0.5-0.2,1-0.4,1.6-0.5c0.1,0,0.2-0.1,0.4-0.1c0.2-0.1,0.3-0.1,0.5-0.2c0.4,0,1.3-0.1,1.4-0.2
		c0.1,0,0.2-0.1,0.3-0.2c0.1-0.1,0.3-0.1,0.4-0.2c0.2-0.1,0.3-0.1,0.4-0.2l0.2-0.1c1.2-0.6,2.5-1.5,3.2-2.6c0.5-0.8,0.9-1.7,1.3-2.5
		c0-0.1,0.1-0.2,0.2-0.3l0-0.1c0.2-0.3,0.3-0.6,0.5-0.8c0.2-0.5,0.5-0.9,0.5-1.4c0-0.2-0.1-0.6-0.2-0.9
		C541.6,76.7,541.6,76.3,541.7,75.9z"/>
	<path class="st2" d="M486.2,63.5c0,0.2,0.1,0.4,0.1,0.6c0,0.1,0.1,0.2,0.1,0.2c0,0,0.1,0.1,0.1,0.2c0,0,0.1,0.3,0.2,0.4
		c0.3,0.6,0.7,1.1,1.2,1.4c0.4,0.3,1.4,1,1.4,1.1c0.2,0.2,1,0.4,1.2,0.4c0.3,0,0.8,0.2,1.1,0.3c0.5,0.3,4.2,0,5-0.3
		c0.6-0.2,1.5-0.6,2.2-0.9c0.2-0.1,0.5-0.2,0.7-0.3l0.1,0l0.3-0.1l0.2-0.1l0.1-0.1l0.1,0c0.1,0,0.1,0,0.2-0.1l0.1-0.1l0.1-0.1
		c0.6-0.3,1.1-0.8,1.5-1.2c0.2-0.2,0.6-0.6,0.7-0.7l0.1-0.1l0-0.1l0.1-0.1c0.1-0.2,0.2-0.2,0.4-0.2c0,0,0.1-0.1,0.1-0.1
		c0.1-0.1,0.3-0.8,0.4-1.1c0-0.1,0-0.1,0.1-0.3c0-0.1,0-0.1,0-0.2l0-0.2c0.1-0.2,0.1-0.2,0.1-0.3l0-0.1c0-0.1,0.1-0.2,0.1-0.3
		c0.2-0.4,0.2-1.1,0.2-1.7c0-0.5,0-0.5,0-0.7v-0.1l0-0.7c0-0.3,0.1-1.1,0.1-1.1c0.2-0.1,0.3-0.1,0.5-0.1c0.2,0,0.4,0,0.7-0.1
		c0,0,0.2-0.1,0.3-0.1l0.1,0l0.2,0l0.1-0.1l0.1,0l0.1,0c0.1,0,0.2-0.1,0.3-0.1l0.2-0.1l0.1-0.1c0.1,0,0.3-0.1,0.3-0.1
		c0.1,0,0.2-0.2,0.3-0.3c0.1-0.1,0.1-0.1,0.1-0.2l0-0.1l0.1-0.1c0.1-0.1,0.3,0.1,0.3,0.2c0.1,0.1,0.2,0.2,0.4,0.2
		c0.3-0.1,0.4-0.1,0.5,0c0,0,0.1,0,0.1,0.1c0.1,0.1,0.1,0.1,0.2,0.1c0,0,2.5,0.6,2.5,0.5v-0.1c0.7,0.1,1.3-0.1,1.9-0.4
		c0.2-0.1,0.5-0.6,0.5-0.9c0,0,0.1-0.3,0.1-0.5c0,0,0.1-0.3,0.1-0.3c0-0.2,0-0.2,0.1-0.3c0-0.1,0-0.1,0.1-0.3c0-0.2,0.1-0.4,0.2-0.6
		c0.1-0.1,0.1-0.3,0.1-0.4c0.1-0.4,0.2-0.8,0.2-1.1c0-1.7-0.1-3.3-0.5-4.7c0-0.1-0.3-0.1-0.4-0.1c-0.4,0.2-0.8,2-0.9,2.7
		c0,0.6,0,1.1,0.1,1.7l0,0.4l0,0.2c0,0.2,0.1,0.8,0,0.8c-1.2,0.4-3-0.1-3.9-0.5c-0.4-0.2-0.1-1.5,0-2.1c0.1-0.3,0.2-1.1,0.1-1.3
		c0-0.1-0.4-0.5-0.6-0.2c-0.3,0.5-0.5,1.1-0.7,1.7c-0.1,0.3-0.2,0.6-0.2,1c-0.1,0.4-0.1,0.8-0.3,1.1c-0.2,0.5-1.1,0.9-1.8,1
		c-0.3,0-2.6-0.1-2.7-0.2c-0.1-0.2-0.4-1.1-0.6-1.6c0-0.1-0.7-1.6-0.7-1.6c0,0,0,0-0.1-0.1c0-0.1-0.1-0.1-0.1-0.1
		c-0.1-0.1-0.3-0.1-0.5,0c-0.2,0.2-0.3,0.5-0.4,0.8c-0.2,0.7-0.5,1.7-0.4,2.4c0,0.2,0.2,0.6,0.4,0.9c0,0.1,0.1,0.2,0.1,0.4l0.1,0.3
		l0,0.1c0.3,0.6,0.5,1.2,0.7,1.8c0,0.2,0.1,0.4,0.2,0.5c0,0,0.1,0.3,0.1,0.4c0.1,0.3,0.2,0.6,0.2,1c0.1,0.5,0.5,2.6,0.4,2.7
		c0,0-0.2,0.2-0.2,0.3l-0.1,0.1c-0.2,0.2-0.4,0.4-0.5,0.5c-0.2,0.3-0.7,0.7-0.8,0.7c-0.7,0.5-1.3,0.9-2.2,1.2
		c-0.8,0.3-1.6,0.6-2.5,0.9c-0.4,0.2-1.4,0.2-2.1,0.3c-0.7,0-1.4,0.1-2.1,0c-0.5-0.1-0.9-0.2-1.3-0.3c-0.2-0.1-0.4-0.2-0.6-0.2
		c-0.1,0-0.2,0-0.4-0.1c-1.2-0.7-2.6-1.7-2.9-3.3c-0.1-0.6-0.1-1.4,0-2c0-0.1,0.2-0.4,0.3-0.5c0.1-0.1,0.2-0.3,0.2-0.5
		c0.1-0.2,0.2-0.7,0.3-1c0.1-0.2,0.1-0.4,0.2-0.6c0.1-0.2,0.1-0.4,0.2-0.6c0-0.1,0.2-0.4,0.3-0.7c0-0.1,0.2-0.5,0.1-0.6
		c0,0-0.1-0.3-0.2-0.5c0-0.1-0.1-0.2-0.2-0.2c-0.1-0.1-0.3-0.2-0.5-0.1c-0.5,0.2-1,1.5-1.2,2.2c-0.1,0.2-0.1,0.4-0.2,0.5
		c-0.1,0.2-0.3,0.4-0.3,0.7c0,0.1-0.1,0.4-0.1,0.4l-0.1,0.3c0,0.1-0.1,0.2-0.1,0.3l0,0.1l0,0.1l0,0.1c-0.1,0.5-0.2,1.1-0.3,1.6
		c-0.1,0.9-0.3,2.4,0,3.2C486.1,63.1,486.1,63.4,486.2,63.5z"/>
	<path class="st4" d="M522.5,78.5c0.2-0.2,0.4-0.3,0.6-0.5c0.1-0.1,0.2-0.2,0.3-0.3c0.1-0.1,0.1-0.1,0.2-0.1c0.1,0,0.2-0.1,0.2-0.2
		c0.1-0.1,0.3-0.2,0.1-0.4l-0.2,0l-0.1,0c0,0-0.1-0.2-0.2-0.2c-0.2-0.3-0.3-0.5-0.6-0.7c-0.4-0.3-0.8-0.4-1.2-0.6l-0.2-0.1l-0.1,0
		c-0.1,0-0.3-0.1-0.4-0.1l-0.2-0.1c-0.1,0-0.2,0-0.2-0.1c-0.2,0-0.2,0-0.2-0.1c-0.1,0-0.3-0.1-0.5-0.1c-0.4,0-0.6-0.1-0.7-0.1
		c-0.2-0.1-0.5-0.2-0.8-0.2c-1.1-0.2-2.4-0.2-3.4-0.1c-1.7,0.2-3.3,0.9-4.5,1.6c-0.2,0.1-0.6,0.4-0.9,0.6c-0.1,0.1-0.2,0.2-0.4,0.3
		c-0.1,0.1-0.3,0.2-0.5,0.3c-0.1,0.1-0.3,0.2-0.4,0.3c-0.1,0-0.2,0.1-0.3,0.2l-0.1,0.1c-0.1,0.1-0.1,0.1-0.1,0.1
		c-0.2,0.1-0.7,0.5-0.8,0.6c0,0-0.4,0.4-0.5,0.5c-0.1,0.1-0.2,0.1-0.3,0.2c-0.1,0.1-0.2,0.2-0.3,0.2c-0.4,0.3-0.7,0.7-1.1,1
		c-0.3,0.3-0.7,0.7-1,1c-0.2,0.1-0.4,0.3-0.6,0.4c-0.3,0.1-0.5,0.3-0.7,0.5c0,0-0.1,0.1-0.2,0.1c-0.1,0.1-0.1,0.1-0.2,0.1
		c0,0-0.2,0.1-0.3,0.2c0,0-0.2,0.2-0.3,0.2c-0.1,0.1-0.2,0.1-0.3,0.2c-0.2,0.1-0.4,0.3-0.5,0.4c-0.2,0.1-0.5,0.3-0.7,0.5
		c-0.1,0.1-0.3,0.2-0.3,0.2c0,0.1,0.8,0.1,0.8,0.1c0.7,0,1.7,0,2.1-0.1c0.3,0,0.3,0,0.5,0c0.2,0,0.2,0,0.5,0c0.7,0,0.7,0,0.9,0
		c0.1,0,0.1,0,0.2,0c0.2,0,0.2,0,0.5,0c0.2,0,0.2,0,0.9,0h0.2c0.2,0,1.2,0,1.3-0.1c0.7-0.1,1.4-0.3,2.1-0.4l0.1,0l0.5,0l0.1,0
		l0.7-0.1c0.1,0,0.2-0.1,0.4-0.1c0.1,0,0.3-0.1,0.4-0.1c0.6-0.1,1.2-0.3,1.7-0.5c0.1,0,0.1,0,0.2-0.1c0,0,0.2-0.1,0.2-0.1
		c0.3-0.1,0.5-0.1,0.7-0.2c0.1,0,0.1,0,0.2-0.1c0.1,0,0.2-0.1,0.2-0.1c0.3,0,0.6-0.1,0.7-0.1c0.6-0.2,1.3-0.5,1.8-0.8
		c0,0,0.5-0.2,0.9-0.4c0.3-0.1,0.6-0.3,0.9-0.5c0.5-0.3,1-0.6,1.5-0.9C521.6,79.2,522,78.9,522.5,78.5z"/>
	<path class="st2" d="M539.6,95.6c-0.1-0.2-0.3-0.5-0.4-0.5c-0.2-0.1-0.5-0.3-0.5-0.4c-0.1-0.1-2.3-1.3-2.5-1.3
		c-0.1,0-0.4-0.1-0.5,0.1c-0.2,0-2.6,3.8-2.8,4.5c-0.1,0.5,0.3,0.8,0.8,1.1c0.1,0.1,0.2,0.1,0.3,0.2c0.1,0,0.2,0.1,0.3,0.2
		c0.2,0.1,0.5,0.3,0.6,0.3c0.3,0.2,0.6,0.4,0.9,0.7c0.1,0.1,1,0.6,1.1,0.6c0.7-0.1,1.2-1,1.5-1.6c0.1-0.1,0.3-0.2,0.5-0.4
		c0.2-0.1,0.4-0.2,0.5-0.3c0.3-0.2,0.5-0.4,0.7-0.8c0.1-0.3,0.1-0.6,0.1-1C540.1,96.4,539.9,96,539.6,95.6z"/>
	<path class="st4" d="M471.4,81.1c0.2-0.2,0.4-0.3,0.6-0.5c0.1-0.1,0.2-0.2,0.3-0.3c0.1-0.1,0.1-0.1,0.2-0.1c0.1,0,0.2-0.1,0.2-0.2
		c0.1-0.1,0.3-0.2,0.1-0.4l-0.2,0l-0.1,0c0,0-0.1-0.2-0.2-0.2c-0.2-0.3-0.3-0.5-0.6-0.7c-0.4-0.3-0.8-0.4-1.2-0.6l-0.2-0.1l-0.1,0
		c-0.1,0-0.3-0.1-0.4-0.1l-0.2-0.1c-0.1,0-0.2,0-0.2-0.1c-0.2,0-0.2,0-0.2-0.1c-0.1,0-0.3-0.1-0.5-0.1c-0.4,0-0.6-0.1-0.7-0.1
		c-0.2-0.1-0.5-0.2-0.8-0.2c-1.1-0.2-2.4-0.2-3.4-0.1c-1.7,0.2-3.3,0.9-4.5,1.6c-0.2,0.1-0.6,0.4-0.9,0.6c-0.1,0.1-0.2,0.2-0.4,0.3
		c-0.1,0.1-0.3,0.2-0.5,0.3c-0.1,0.1-0.3,0.2-0.4,0.3c-0.1,0-0.2,0.1-0.3,0.2l-0.1,0.1c-0.1,0.1-0.1,0.1-0.1,0.1
		c-0.2,0.1-0.7,0.5-0.8,0.6c0,0-0.4,0.4-0.5,0.5c-0.1,0.1-0.2,0.1-0.3,0.2c-0.1,0.1-0.2,0.2-0.3,0.2c-0.4,0.3-0.7,0.7-1.1,1
		c-0.3,0.3-0.7,0.7-1,1c-0.2,0.1-0.4,0.3-0.6,0.4c-0.3,0.1-0.5,0.3-0.7,0.5c0,0-0.1,0.1-0.2,0.1c-0.1,0.1-0.1,0.1-0.2,0.1
		c0,0-0.2,0.1-0.3,0.2c0,0-0.2,0.2-0.3,0.2c-0.1,0.1-0.2,0.1-0.3,0.2c-0.2,0.1-0.4,0.3-0.5,0.4c-0.2,0.1-0.5,0.3-0.7,0.5
		c-0.1,0.1-0.3,0.2-0.3,0.2c0,0.1,0.8,0.1,0.8,0.1c0.7,0,1.7,0,2.1-0.1c0.3,0,0.3,0,0.5,0c0.2,0,0.2,0,0.5,0c0.7,0,0.7,0,0.9,0
		c0.1,0,0.1,0,0.2,0c0.2,0,0.2,0,0.5,0c0.2,0,0.2,0,0.9,0h0.2c0.2,0,1.2,0,1.3-0.1c0.7-0.1,1.4-0.3,2.1-0.4l0.1,0l0.5,0l0.1,0
		l0.7-0.1c0.1,0,0.2-0.1,0.4-0.1c0.1,0,0.3-0.1,0.4-0.1c0.6-0.1,1.2-0.3,1.7-0.5c0.1,0,0.1,0,0.2-0.1c0,0,0.2-0.1,0.2-0.1
		c0.3-0.1,0.5-0.1,0.7-0.2c0.1,0,0.1,0,0.2-0.1c0.1,0,0.2-0.1,0.2-0.1c0.3,0,0.6-0.1,0.7-0.1c0.6-0.2,1.3-0.5,1.8-0.8
		c0,0,0.5-0.2,0.9-0.4c0.3-0.1,0.6-0.3,0.9-0.5c0.5-0.3,1-0.6,1.5-0.9C470.6,81.8,471,81.5,471.4,81.1z"/>
</g>
<path class="st1" d="M406.6,79.1c0.2,0.4,2,1.2,2.7,1.4c0.5,0.1,1.7-0.3,2.1-0.5c0.2-0.1,0.5-0.2,0.7-0.4c0.1-0.1,0.2-0.1,0.3-0.2
	c0,0,0.1-0.1,0.1-0.1c0.1,0,0.1-0.1,0.2-0.1c0.1,0-0.1-0.4-0.2-0.4c-0.1-0.1-0.2-0.3-0.2-0.4c-0.1-0.1-0.3-0.5-0.5-0.7
	c-0.3-0.5-0.6-0.9-0.9-1.3c-0.4-0.5-1.9-2.3-2.8-1.7c0,0-0.6,0.6-0.9,0.9c-0.1,0.2-0.3,0.3-0.4,0.5c-0.1,0.1-0.4,0.5-0.4,0.5
	c-0.2,0.1-0.7,1.1-0.7,1.4C405.6,78,406.4,79.1,406.6,79.1z"/>
</svg>
