<?xml version="1.0" encoding="utf-8"?>
<!-- Generator: Adobe Illustrator 23.0.3, SVG Export Plug-In . SVG Version: 6.00 Build 0)  -->
<svg version="1.1" id="Layer_1" xmlns="http://www.w3.org/2000/svg" xmlns:xlink="http://www.w3.org/1999/xlink" x="0px" y="0px"
	 viewBox="0 0 1301 614" style="enable-background:new 0 0 1301 614;" xml:space="preserve">
<style type="text/css">
	.st0{fill-rule:evenodd;clip-rule:evenodd;fill:#231F20;}
	.st1{fill-rule:evenodd;clip-rule:evenodd;fill:#FFFFFF;}
</style>
<g>
	<path class="st0" d="M11.48,428.01c0.43-0.64,12.56,0.97,14.19,1.49c3.57,1.14,7.95,2.53,10.34,3.93
		c0.71,0.42,8.84,1.77,13.74,2.58c3.88,0.64,8.56,1.51,12.3,2.67c4.18,1.3,10.22,2.03,15.7,2.7c0.76,0.09,2.08,0.31,3.22,0.52
		l1.8,0.35l0.9,0.19l0.87,0.17c2.91,0.54,5.94,1.06,9.11,1.25c5.91,0.38,12.3,0.78,17.67,1.61c1.09,0.17,2.03,0.31,3.03,0.54
		c1.11,0.23,2.39,0.52,3.57,0.71c1.04,0.16,2.51,0.43,2.91,0.19c1.16-0.55,3.43-0.36,4.94,0c1.09,0.24,2.58,0.47,3.74,0.52
		c0.83,0.05,0.83,0.05,2.15-0.45c0.26-0.09,1.02,0.59,1.16,0.71c0.14,0.14,3.59,0.52,4.54,0.64c0.71,0.07,13.81,0.47,8.94-0.09
		c-0.62-0.07-6.08-1.25-6.72-1.66c-2.27-1.44,7.8-0.94,7.95-0.92c3.76,0.19,10.71,0.5,11.97,0c2.98-1.21,13.15-6.08,13.95-7.38
		l0.59-0.4c0,0,1.11-0.73,2.29-1.89l0.95-1.37l1.89-1.68c1.14-1.16,1.7-2.46,2.46-4.16c0.43-0.97,1.94-1.89,3.45-2.84
		c5.04-3.1,10.36-6.41,14.43-10.5c1.44-1.44,7.88-6.67,12.34-10.26c0.24-0.21,0.95-0.69,1.42-1.02c0.71-0.45,1.39-0.95,2.03-1.47
		c1.14-0.9,2.22-1.8,3.29-2.77c0.4-0.38,0.9-0.83,1.35-1.16c0.66-0.54,1.47-1.3,2.37-2.1c0.52-0.33,0.52-0.33,0.83-0.59
		c0.69-0.54,1.49-1.18,1.85-1.7c1.63-2.46,1.16-28.83,0.8-37.48v-0.71v-3.22v-4.89c0-4.12-0.02-10.05-0.71-14.19
		c-0.23-1.37-0.47-3.26-0.54-4.63c-0.14-2.77-0.19-3.69-0.29-3.93c-0.38-1.32-0.52-3.43-0.61-5.01c-0.17-2.7-0.24-3.88-0.52-5.86
		c-0.19-1.3-0.5-3.38-0.64-3.93c-0.26-1.09-0.45-2.55-0.62-3.76c-0.16-1.32-0.5-3.62-0.54-3.93l-0.71-3.76
		c-0.57-3.74-1.44-9.36-2.13-12.49c-0.83-3.69-1.71-8.99-2.51-13.72c-2.48-14.85-5.44-32.52-9.08-45.33
		c-3.74-12.98-6.72-29.32-9.32-43.54c-0.33-1.85-0.71-3.93-1.04-5.53c-0.52-2.34-1.11-4.97-1.28-6.6
		c-0.38-4.28-1.09-8.47-2.32-12.13c-0.78-2.36-1.66-8.42-2.32-13.03c-0.28-2.03-1.04-7.85-1.04-7.85c-0.26-2.96-0.76-8.77-1.56-9.93
		c0,0-2.65-3.03-3.88-4.38c-0.38-0.47-0.76-1.02-1.09-1.56c-1.09-1.68-4.28-6.69-4.28-6.69c-0.92-1.59-2.2-5.13-3.12-7.76
		c-0.5-1.44-0.92-3.17-1.25-4.83c-0.21-1.04-0.38-1.84-0.52-3.03c-0.14-0.97-0.33-2.15-0.57-2.95c-1.37-5.23,17.41-38.1,17.41-38.1
		c1.18-0.52,3.12-0.35,4.02,0.38c2.13,1.72,2.88,4.66,3.4,7.66c0.43,2.67,1.7,8.3,2.93,10.07l0.36,0.62c0.47,0.9,0.47,0.9,0.73,1.28
		c0.19,0.31,0.19,0.31,0.71,1.23c0.26,0.5,0.26,0.5,1.47,2.03l0.31,0.64l0.85,1.3l1.32,1.54c1.73,1.96,5.7,6.27,6.08,6.6
		c4.35,3.62,9.18,10.9,10.57,17.15c0.76,3.45-6.36,16.41-8.44,18.42c-1.99,1.94-3.38,5.56-4.23,8.54c-0.4,1.37,0.31,5.27,0.71,7.31
		c0.54,2.6,1.02,5.37,1.44,8.04c1.07,6.95,3.48,16.62,5.34,24.07c2.32,9.22,4.07,18,5.89,27.12c3.38,16.93,8.3,41.41,10.71,52.29
		c0.57,2.53,0.9,5.32,1.23,8.02c0.4,3.05,1.04,8.13,1.28,9.46c0.33,2.08,0.78,4.18,1.23,6.24l0.19,0.71l0.36,2.15l0.16,0.71
		c0.24,0.97,0.71,2.86,0.71,2.86c0.62,3.67,1.09,8.16,1.09,11.78c0,5.3,0.43,11.73,1.23,16.96c1.51,9.77,0.76,22.99-0.33,32.99
		c-0.71,6.27-2.17,12.84-3.74,19.11c-1.04,4.02-3.71,17.12-3.55,18.26c0.09,0.85,7.69-6.22,8.11-6.62c2.37-2.37,6.5-6.48,7.69-7.43
		c5.58-4.47,11.14-9.15,16.51-13.88c8.04-7.1,32.94-27.74,33.06-27.81c1.54-0.83,3.07-1.85,4.4-2.91c1.14-0.92,3.26-2.15,5.06-3.14
		c0.83-0.47,1.75-0.97,2.65-1.44c0.71-0.36,1.75-0.92,2.6-1.42c0.76-0.45,2.01-1.16,2.36-1.47c0.71-0.59,1.32-0.94,2.37-1.3
		c1.06-0.35,1.99-0.83,3.03-1.32c0.95-0.47,1.94-0.87,3.03-1.18c0.87-0.24,2.86-0.97,4.3-1.49c0.85-0.33,3.12-1.14,3.36-1.18
		c5.53-0.85,15.16-2.48,17.88-3.57c4.8-1.94,34.81,5.51,39.42,7.24c3.24,1.23,6.39,3.31,9.06,5.2c3.29,2.34,5.94,6.31,8.23,9.79
		c1.13,1.68,2.13,4.23,3.05,6.6c0.31,0.8,0.66,1.82,0.97,2.67c0.16,0.47,0.24,0.69,0.35,1.25c0.17,0.73,0.43,1.85,0.54,2.13
		c0.33,0.88-0.47,13.46-0.71,14.99c-0.57,3.69-1.56,7.66-2.51,11.42c-1.39,5.65-2.91,11.02-4.63,16.25
		c-0.71,2.13-2.13,4.94-3.31,7.31l-3.38,6.05c-2.15,4.3-4.54,9.11-6.81,12.3c-3.55,4.94-8.56,8.82-13.53,12.35
		c-2.51,1.77-4.9,3.83-7.12,5.91c-1.14,1.07-2.36,2.13-3.69,3.01c-0.64,0.42-1.87,1.25-2.03,1.32c-0.92,0.47-1.51,0.8-2.22,1.4
		c-1.09,0.99-7.57,4.44-10.81,6.19l-1.25,0.71c-0.33,0.21-0.33,0.21-1,0.54l-1.13,0.71l-1.18,0.73l-0.62,0.33
		c-0.99,0.57-2.08,1.21-3.12,1.8l-1.16,0.71c-0.59,0.36-1.21,0.73-1.78,1.07c-6.88,3.93-15.89,6.93-24.81,9.91
		c-3.88,1.3-10.71,3.62-13.13,4.89c-1.37,0.76-3.93,1.49-5.96,2.06c-0.76,0.21-2.91,0.66-4.11,0.9c-1.28,0.26-2.27,0.54-3.55,0.9
		l-0.73,0.26l-1.78,0.62c-1.14,0.38-2.41,0.69-3.76,0.9c-2.32,0.36-4.94,1.02-7.31,1.61c-2.74,0.69-5.34,1.16-8.56,1.61
		c-3.26,0.45-5.53,1.02-8.56,1.8c-11.99,2.98-23.91,5.27-36.23,6.67c-2.98,0.36-5.34,0.9-7.5,1.96c-1.07,0.54-2.44,0.71-3.93,0.64
		c-2.1-0.12-3.57-0.09-5.53,0.35c-5.65,1.25-11.8,2.1-18.56,2.86c-1.61,0.16-1.61,0.16-5.7,0.16c-3.57,0-3.57,0-4.28,0.19
		c-0.19,0.02-1.09,0.38-1.25,0.45c-0.62,0.21-1.49,0.54-2.15,0.71c-1.61,0.4-2.51,0.35-3.93-0.19c-1.8-0.69-2.34-0.71-4.71-0.62
		c-8.73,0.4-22.85,1.04-29.73,0.52c-1.82-0.12-6.93-1.14-10.17-1.78l-1.06-0.19l-3.93-0.16c-1.16-0.07-1.49-0.12-2.32-0.36
		l-0.88-0.28l-0.73-0.26l-1.25-0.17c-3.24-0.33-3.24-0.33-3.38-0.38c-2.34-0.5-4.09-1.18-6.08-2.03c-1.96-0.87-2.7-1.18-2.84-1.16
		c-2.08,0.19-4.92,0.47-6.43-0.09c-0.85-0.33-1.89-1.18-2.74-1.85c-0.33-0.31-0.33-0.31-0.85-0.8c-0.42-0.43-1.06-1.04-1.39-1.18
		c-0.12-0.07-2.86-0.36-2.86-0.36c-1.37-0.16-1.37-0.16-2.51-0.35c-0.97-0.19-1.84-0.45-2.84-0.73l-1.42-0.43l-0.73-0.28l-0.54-0.16
		c-1.14-0.33-1.14-0.33-1.42-0.45c-0.47-0.21-0.47-0.21-1.23-0.45c-3.26-1.01-7.47-3.29-10.9-5.08
		c-2.01-1.07-11.49-6.91-18.82-11.42c-1.49-0.92-2.98-1.85-4.33-2.91l-1.04-0.66l-0.62-0.35l-1.13-0.71l-0.64-0.36l-0.73-0.35
		l-0.71-0.38c-1.61-0.92-3.36-1.94-4.4-2.7c-1.3-0.92-3.78-2.6-5.04-2.91c-4.09-1.02-17.95-9.22-18.85-12.77
		C9.63,431.32,10.34,430.04,11.48,428.01z"/>
	<path class="st1" d="M297.93,424.58c6.12-2.15,16.15-5.65,19.44-6.6c2.96-0.85,5.79-1.73,8.58-2.77l0.52-0.26l1.42-0.54
		c0.55-0.16,1.37-0.5,2.15-0.8c0.23-0.09,1.58-0.66,2.32-0.97c0.92-0.4,2.22-0.95,2.86-1.16c2.41-0.83,8.56-3.86,12.3-5.7
		c0.71-0.38,0.71-0.38,1.32-0.73c0.64-0.36,1.37-0.73,2.08-1.07l0.71-0.35l0.71-0.36l0.71-0.35l1.09-0.64
		c0.94-0.47,3.33-1.73,3.33-1.73c0.92-0.62,1.89-1.3,2.95-1.7c3.17-1.18,13.17-9.11,17.03-12.3c2.29-1.92,7.35-6.05,7.71-6.29
		c1.47-1.06,7.14-6.62,6.79-8.32c-0.02-0.12-2.93-3.67-3.26-3.97l-1.04-0.87c-0.4-0.4-0.4-0.4-1.8-1.8l-0.69-0.38
		c-0.66-0.4-0.9-0.54-1.09-0.87c-0.35-0.57-10.88-6.36-12.11-6.72c-0.57-0.17-2.32-0.88-3.4-1.32c-0.76-0.36-2.74-1.07-4.07-1.54
		c-0.71-0.24-6.15-1.32-9.32-1.96c-6.93-1.37-19.08-3.76-24.97-2.13l-8.56,1.77c-3.12,0.87-6.86,2.08-9.7,3.31
		c-12.35,5.2-22.66,11.26-32,19.32c-8.63,7.47-21.9,18.92-27.12,22.84c-8.09,6.08-17.71,14.99-26.3,22.92
		c-4.28,3.93-8.84,7.92-13.5,11.68c-2.2,1.78-4.42,3.69-6.5,5.63c-0.38,0.35-0.88,0.76-1.35,1.13c-0.59,0.47-1.77,1.44-1.77,1.44
		c-0.38,0.36-0.38,0.36-0.9,0.71l-0.9,0.71c-0.38,0.36-1.42,1.3-1.32,1.44c0.09,0.23,7.28-0.8,8.42-1.04
		c0.78-0.14,1.63-0.35,2.32-0.54c1.04-0.23,2.03-0.47,3.05-0.71c1.11-0.24,2.15-0.5,2.81-1.02c0.95-0.73,1.09-0.88,2.88-0.76
		c2.22,0.14,4.78,0,7.69-0.19l1.77,0.8c0.21,0.05,0.62-0.21,2.2-1.3c0.5-0.33,5.6-1.04,7.78-1.28c4.4-0.47,8.68-1.4,12.49-2.51
		c7.69-2.17,15.3-3.74,23.39-4.99c4.04-0.62,8.06-1.56,11.78-2.48c0.69-0.19,1.8-0.38,2.67-0.54c1.14-0.21,3.5-0.66,3.74-0.71
		c0.66-0.16,1.23-0.36,1.8-0.54C296.02,425.17,297.81,424.6,297.93,424.58z"/>
	<path class="st0" d="M254.04,175.77l0.71-0.35l0.9-0.36l0.78-0.35l0.64-0.36l0.54-0.28l0.71-0.26c1.42-0.71,3.55-1.77,4.42-2.36
		c0.26-0.16,4.52-2.58,7.71-4.42c5.42-3.08,11-6.1,16.58-8.92l34.81-18.38c11.37-5.68,22.49-11.75,33.44-18.02
		c5.39-3.08,11.07-6.17,16.88-8.75c2.96-1.3,5.94-2.7,8.73-4.09l0.9-0.35l0.62-0.36l0.83-0.38c0.88-0.4,1.75-0.92,2.58-1.42
		c1.16-0.71,3.9-2.27,4-2.32c3.19-0.99,4.92,2.27,5.46,4.63c1.49,6.79-3.24,14.97-5.84,19.25c-0.35,0.57-2.46,1.99-3.19,2.25
		l-0.71,0.19l-0.71,0.19l-0.9,0.17c-0.5,0.14-2.03,0.9-2.93,1.35c-3.1,1.54-6.64,3.31-8.89,4.68c-0.36,0.21-1.58,0.64-2.44,0.92
		c-0.66,0.21-1.32,0.47-1.96,0.71c-1.58,0.61-3.38,1.35-4.8,2.06c-1.21,0.59-3.31,1.66-4.02,2.15c-1.32,0.87-2.65,1.7-4.02,2.48
		c-11.35,6.5-24.69,14.1-35.14,18.75c-6.2,2.72-12.16,5.87-17.69,9.27c-5.39,3.33-11.16,6.69-17.12,9.2
		c-5.82,2.41-11,5.77-15.94,9.06c-1.32,0.87-2.63,1.68-4.04,2.43c-1.44,0.78-3.59,1.94-4.23,2.53c-2.15,1.99-5.06,4.68-7,5.32
		c-3,0.99-7.24-0.69-8.2-2.86c-0.62-1.37,0.12-5.39,1.42-5.96c0.92-0.43,1.58-3.05,2.06-4.92l0.17-0.71l0.19-3.38
		c0.02-0.21,0.4-1.09,0.45-1.16c0.02-0.07,0.76-1.3,0.76-1.3c0.5-0.69,0.5-0.69,0.66-1.14
		C251.56,179.22,253.17,175.96,254.04,175.77z"/>
	<path class="st0" d="M1106.19,263.74c0.59-0.14,1.44,0.12,2.55,0.47c0.21,0.07,0.38,1.21,0.38,1.3v0.71l0.38,1.42l0.16,0.73
		l0.19,1.07l0.16,0.71l1.8,7.68c1.11,4.45,2.32,11.57,3.38,17.67c0.16,0.9,1.09,4.66,1.61,6.76c0.19,0.73,0.19,0.73,0.36,1.25
		c0.16,0.54,0.16,0.54,0.35,1.61c0.14,0.76,0.28,1.7,0.36,2.32l0.19,1.8c0.28,3.6,0.28,3.6,0.54,4.47
		c1.73,6.24,2.46,13.88,3.19,21.57c1.42,14.73-0.05,30.41-2.77,43.09c-0.78,3.69-3.55,13.93-5.44,15.54l-0.8-0.09h-0.71
		c-0.09,0.02-0.76,0.85-1.14,1.3c0,0-1.47,2.46-2.08,3.5l-0.33,0.73l-0.38,0.71l-0.36,0.71c-0.33,0.59-0.87,1.39-1.46,2.29
		l-0.71,1.07l-0.71,0.9c-0.83,0.73-0.83,0.73-0.9,0.87c-0.71,2.15-11.66,11.54-14.28,13.48c-2.98,2.17-7.17,4.3-10.64,5.65
		c-0.52,0.19-1.85,0.59-2.7,0.8c-1.07,0.31-2.15,0.59-3.03,0.9c-2.25,0.73-4.38,1.63-6.41,2.58c-7.4,3.48-14.85,6.46-23.22,8.3
		c-1.51,0.36-7.68,1.89-12.3,3.05c-0.19,0.02-1.09,0.35-1.25,0.43c-0.71,0.28-0.71,0.28-1.25,0.45c-0.9,0.31-2.72,0.8-3.74,1.07
		l-2.32,0.28c-0.35,0.02-2.41,0.12-2.58,0.09c-0.26-0.05-0.95,0.09-2.34,0.38c0,0-0.99,0.66-1.16,0.78l-1.06,0.71
		c-0.71,0.36-2.03,0.64-2.51,0.71c-1.16,0.19-3.57,0.64-3.57,0.64c-0.71,0.16-0.71,0.16-1.23,0.33c-0.57,0.19-0.8,0.28-1.25,0.38
		l-1.09,0.16l-1.78,0.19l-1.06,0.17h-1c0,0-2.27,0.54-2.93,0.71l-0.71,0.19l-1.44,0.35l-0.71,0.17c-1.35,0.28-1.35,0.28-2.13,0.54
		l-0.55,0.17c-2.58,0.66-5.16,1.21-8.04,1.44c-4.02,0.31-7.35,0.57-10.52,1.51c-2.29,0.71-5.51,1.21-8.02,1.35
		c-0.24,0-6.22,0.24-7.85,0.16l-3.17-0.21l-0.95,0.21l-0.87,0.19c-1.16,0.14-2.98,0.29-3.95,0.36c-1.37,0.09-2.95,0.33-4.28,0.71
		c-1.16,0.33-1.87,0.54-2.84,0.54c-5.27,0-10.22,0.23-15.54,0.52l-0.71,0.19l-0.88,0.19l-0.9,0.16l-0.73,0.16
		c-0.76,0.09-0.9,0.05-1.78-0.16c-0.57-0.14-0.57-0.14-2.51-0.35c-2.44-0.29-9.7-0.05-11.49,1.16c-1.75,1.16-9.77,1.16-14.54,1.16
		l-11.42,1.06c-0.87,0-2.17-0.07-3.22-0.16c-0.33-0.02-0.9,0.05-1.77,0.16l-2.86,0.35c-5.08,0.17-11.52,0.29-16.96,0.38h-8.75
		l-1.23-0.19h-2.7h-2.93c-3.83,0-12.25-1.3-17.76-2.15c-0.95-0.14-1.73-0.4-2.48-0.71c-0.61-0.24-1.96-0.71-2.32-0.71
		c-0.66,0-1.72,0.38-2.34,0.61c-0.54,0.24-1.4,0.62-1.77,0.64c-2.15,0.14-3.41-0.36-4.8-1.09c-0.73-0.35-2.53-0.42-4.73-0.52
		c-0.71-0.02-2.08-0.14-2.96-0.36l-0.9-0.26l-1.8-0.64l-1.07-0.36c-1.37-0.4-3.97-1.13-4.4-0.76c-5.11,4.18-16.27,41.29-18.87,51.7
		c-0.83,3.26-3.38,13.38-3.38,13.38l-3.57,15.87c-0.14,0.5-0.14,0.5-0.38,2.32c-0.12,1.13-0.31,2.08-0.52,3.05l-0.19,0.88
		l-0.17,1.09l-0.19,0.71l-0.16,1.25l-0.19,1.25c-0.21,1.25-0.54,2.74-0.9,3.9c0,0-0.71,3.15-0.88,3.95
		c-0.76,3.38-2.84,11.82-4.73,12.84c-2.1,1.11-4.16-2.84-4.21-4.63c-0.02-1.23,0.97-9.13,1.8-15.7c0.12-0.97,0.28-2.3,0.35-3.05
		c0.17-1.8,0.33-3.26,0.54-4.99c0.28-2.44,0.95-7.73,1.07-8.2c0.85-3.88,1.47-7.9,1.96-11.78c0.52-4.18,2.39-11.68,3.74-17.12
		l3.93-14.64c0.62-2.39,1.44-5.75,1.8-7.5c0.64-3.24,1.35-6.46,2.06-9.27c0.43-1.75,2.86-9.03,4.89-15.16
		c0.66-1.99,1.89-5.68,1.49-6.76l-1.87-1.51l-0.57-0.33c-0.95-0.76-1.87-1.73-2.74-2.6c-3.08-3.15-7.33-6.03-11.21-8.26
		c-7.61-4.35-15.28-10.83-19.44-18.63c-1.11-2.08-2.2-4.23-3.22-6.5c-0.85-1.92-3.29-7.21-3.29-7.21c-0.16-0.33-3.29,0.52-3.86,0.69
		c-1.61,0.47-3.12,1.16-4.47,1.87c-2.32,1.25-5.09,2.32-7.85,3.4c-1.16,0.45-2.67,1.04-3.55,1.32c-1.42,0.47-2.74,0.92-3.93,1.42
		l-3.76,1.61l-0.71,0.28l-0.71,0.36l-0.9,0.26c-0.9,0.26-0.9,0.26-1.51,0.64c-0.76,0.42-2.18,0.92-3.31,1.32
		c-1.21,0.45-3.67,1.32-4.09,1.51l-0.71,0.35l-0.73,0.35c-0.52,0.26-1.18,0.52-1.77,0.71c-0.33,0.12-1.96,0.64-1.96,0.64
		c-0.8,0.14-1.04,0.24-1.96,0.64c-0.9,0.38-2.13,0.9-2.86,1.14c-0.66,0.23-1.58,0.57-2.48,0.9c-1.73,0.35-1.8,0.38-1.8,0.38
		c-1.28,0.45-2.6,0.92-3.74,1.49c-1.23,0.62-4.02,1.96-4.11,1.99c-4.73,1.28-12.63,3.45-14.81,4.19c-4.73,1.58-10.17,3.4-14.64,4.28
		c-2.51,0.5-3.55,3.22-4.18,5.44c-0.09,0.31-0.33,1.28-0.36,1.61c-0.21,1.87-0.38,3.33-0.64,3.93l-0.26,0.54l-0.71,3.03l-0.26,1.07
		c-0.33,1.11-0.88,2.58-1.35,3.93c-0.14,0.43-0.38,1.47-0.54,2.15c-0.17,0.76-0.31,1.3-0.52,1.94c-0.54,1.61-1.02,3.17-1.51,4.83
		l-0.28,0.9l-0.17,0.71l-0.19,1.06l-0.26,0.73l-0.54,1.42c-3.93,10.48-12.16,31.36-14.99,35.24c-0.36,0.5-0.78,1.11-1.09,1.49
		c-0.33,0.4-0.71,0.92-1.04,1.37c-0.85,1.18-2.03,2.81-2.51,3.57c-0.71,1.18-1.54,2.44-2.93,3.64l-0.29,0.64l-1.06,1.61l-0.76,1.04
		c-1.8,2.41-3.4,5.16-4.94,7.88c-1.61,2.81-3.38,5.18-5.39,7.54c-2.67,3.12-7.45,7.52-11.26,10.97c0,0-0.85,0.87-1.16,1.23
		c-0.45,0.5-1.3,1.4-1.3,1.4s-1.96,1.89-2.7,2.65c-1.37,1.37-4.92,4.73-5.72,5.13c-1.42,0.71-3.22,2.06-4.56,3.15
		c-1.21,0.97-3.05,2.32-4.54,3.41c-1.63,1.18-3.17,1.96-5.49,2.53c-2.15,0.54-4.99,1.25-6.55,2.44c-1.66,1.25-3.45,2.34-5.58,3.19
		c-0.99,0.38-2.1,0.71-3.19,0.97c-1.11,0.28-2.34,0.59-3.4,0.97c-2.37,0.9-5.75,1.47-8.21,1.89c-1.85,0.31-5.34,0.85-5.89,0.87
		c-1.02,0.07-2.41,0.14-3.22,0.54c0,0-18.11-1.09-21.76-1.42c-4.59-0.43-16.79-1.92-16.96-1.96c-0.38-0.14-0.38-0.14-2.32-0.35
		c-1.18-0.14-1.75-0.29-2.67-0.54l-0.54-0.16l-0.71-0.19l-0.54-0.19l-0.71-0.16l-0.71-0.19c-3.52-1.09-7.5-2.34-8.75-2.48
		c-1.37-0.19-3.05-0.78-4.28-1.25c-0.47-0.19-2.39-0.73-3.57-1.06c-0.92-0.26-1.94-0.59-2.84-0.9c-0.59-0.19-1.54-0.52-1.8-0.64
		c-0.8-0.33-1.59-0.66-2.51-0.97c-2.65-0.9-10.71-3.19-16.39-4.82l-7.33-2.13c-1.01-0.31-1.89-0.57-2.84-0.9l-0.57-0.16l-0.71-0.28
		l-0.87-0.36l-1.02-0.28c-1.02-0.52-1.02-0.52-1.02-0.52s-1.35-0.8-1.49-1.02c-0.62-0.78-0.78-0.92-1.75-1.39l-0.76-0.38
		c-0.83-0.54-0.83-0.54-1.66-1.04l-0.69-0.35l-0.73-0.36l-0.54-0.35c-1.21-0.21-1.21-0.21-3.03-1.54c-0.88-0.31-0.88-0.31-1.47-0.76
		c-0.26-0.21-1.39-0.5-1.96-0.23l-1.63,0.09c-1.11-0.28-2.77-1.49-3.36-2.53c0,0-3.59-2.08-4.09-2.32l-1.42-0.5h-1.02l-1.42-1.21
		c-0.57-0.64-2.06-2.3-2.63-2.27c-2.01,0.12-10.43-7.33-12.56-9.29c-1.44-1.35-12.34-11.47-7.92-13.93l0.33-0.57l0.57-0.33
		c0.69-0.47,0.71-0.5,0.92-0.59c0,0,1.44-0.47,2.15-0.71c0.69-0.21,3.62,1.73,4.63,2.41c1.3,0.88,3.19,1.89,4.52,2.55
		c0.26,0.12,2.65,1.56,4.14,2.44c0.69,0.43,1.56,0.94,2.08,1.58l0.71,0.8l0.69-0.16l0.69,0.33c2.72,1.85,6.36,3.67,9.65,5.3
		c1.82,0.9,4.94,2.44,5.18,2.51c1.61,0.55,3.74,1.49,5.18,2.41c2.15,1.35,6.98,2.65,9.55,3.03c3.19,0.45,7,1.96,10.08,3.29
		c0.73,0.33,6.26,1.73,9.81,2.6c0.64,0.16,1.21,0.33,1.78,0.54l0.71,0.26c0.94,0.4,0.94,0.4,1.09,0.45
		c1.92,0.64,4.38,0.95,6.76,1.23c13.57,1.7,26.27,2.13,39.8,1.61l0.9-0.16l1.06-0.19c0.69-0.09,2.72-0.36,4.11-0.52
		c2.41-0.31,5.3-0.54,7.47-0.73c3.83-0.28,9.13-0.76,12.13-1.94c6.03-2.41,17.62-7.21,18.56-7.78c10.19-5.82,20.64-11.8,29.94-18.4
		c2.93-2.08,6.01-4.97,8.28-7.26c2.08-2.06,6.46-6.34,7.97-7.38c1.18-0.83,8.09-9.39,10.43-12.42c3.33-4.38,9.11-12.04,10.31-14.05
		c2.93-4.92,6.17-9.7,9.5-14.24c1.56-2.15,8.87-16.46,8.56-18.73c0,0-6.01,0.12-6.39,0.14c-2.41,0.07-4.42,0.12-5.89-0.26
		c-1.47-0.4-2.96-2.36-3.48-3.76c-1.18-3.1-1.73-6.67-1-10.33c0.21-1.04,0.59-2.29,1-3.22c0.69-1.63,0.94-3.48,1.16-5.7
		c0.26-2.84,3.78-15.94,4.99-16.79c0.64-0.45,7.78-1.75,12.39-2.58c0.64-0.12,1.56-0.35,2.32-0.54c1.21-0.31,2.65-0.66,3.93-0.9
		c0.95-0.16,2.6-0.47,2.86-0.52c1.06-0.24,1.06-0.24,1.42-0.36c0.28-0.09,0.28-0.09,1.63-0.35l0.69-0.19l1.8-0.36l0.9-0.19
		c1.25-0.28,1.61-0.36,1.61-0.36l1.06-0.16l1.61-0.35c0.9-0.19,1.18-0.24,1.61-0.36c0.76-0.24,0.76-0.24,1.42-0.35
		c1-0.21,1.82-0.45,2.67-0.73c0.71-0.24,0.71-0.24,1.25-0.45c1.28-0.5,1.28-0.5,1.77-0.62c1.87-0.45,3.93-0.97,5.56-1.25
		c1.14-0.19,3.64-1.04,5.16-1.61c1.99-0.71,4.04-1.39,6.08-1.96c0.87-0.23,2.24-0.83,3.38-1.32c0.71-0.33,1.47-0.57,2.34-0.8
		c0.28-0.09,3.83-1.35,6.05-2.15c6.88-2.46,15.84-5.94,23.72-9.01c1.77-0.69,3.69-1.39,5.53-2.06l1.06-0.35
		c0.43-0.14,0.95-0.31,1.25-0.43c0.95-0.43,0.95-0.43,1.06-0.47c0.59-0.17,1.94-0.64,1.94-0.64c3.67-1.92,9.29-4.82,11.99-5.58
		c4.14-1.18,8.04-2.88,11.33-4.92c1.75-1.06,3.31-2.03,4.68-3.43c1.84-1.85,4.35-1.7,6.27,0.07c0.97,0.92,2.08,2.55,2.24,4.26
		c0.57,5.34,0.12,11.28-0.35,16.96c-0.07,0.92-0.24,2.63-0.36,3.55l-0.16,1.09l-0.19,0.71l-0.19,2.67l-0.17,1.96
		c-0.05,0.47-0.09,5.16,0.02,5.06c0.26-0.23,3.05,1.37,3.38,1.54c1.35,0.78,2.79,1.49,4.26,2.15c2.74,1.21,6.5,2.88,8.21,3.74
		c1.09,0.54,2.29,1.09,3.48,1.61c1.3,0.57,2.63,1.25,3.85,1.96c2.39,1.37,4.83,2.65,7.4,3.93c10.86,5.42,22.28,7.99,36.14,10.62
		c0.43,0.07,8.42-5.89,9.15-6.55c0.59-0.54,1.37-1.25,1.87-1.63c0.85-0.62,1.89-1.37,2.48-1.87l0.97-0.8l1.39-1.02l1.82-1.49
		c0.94-0.76,0.94-0.76,1.39-1.18l0.59-0.38c0.33-0.28,0.33-0.28,1.39-1.28l0.9-0.73c0.8-0.64,0.8-0.64,0.99-0.78l0.59-0.4l0.57-0.38
		c0,0,0.05-0.05,2.32-2.17c1.28-1.02,3.93-3.19,4.18-3.48c0.17-0.16,0.17-0.16,1.04-0.76c0,0,1.51-1.32,1.89-1.66l1.99-1.58
		c2.67-2.15,7.28-5.98,8.49-7.4c2.6-3.05,5.18-5.94,7.99-8.75c2.51-2.51,5.37-5.13,8.23-7.24c2.41-1.75,6.01-5.06,8.84-7.64
		c2.72-2.51,5.61-5.06,8.47-7.35c2.67-2.13,5.56-5.01,8.23-7.66c5.2-5.2,11.21-11.21,16.79-14.95
		c18.4-12.25,31.71-21.12,61.82-19.34c9.58,0.54,21.24,2.86,27.67,7.4c3.05,2.15,12.32,11.28,13.46,14.61
		c1.04,3.03,1.54,5.11,2.41,9.01l0.38,0.64l0.69,1.44c0.66,1.46,0.47,3.59,0.28,5.89c-1.02,11.94-5.51,25.61-9.11,36.39
		c-1.75,5.2-3.86,9.98-6.34,14.61c-1.3,2.44-2.67,5.01-3.93,7.05c-0.9,1.44-3.38,5.87-3.22,5.63l2.7-0.61
		c0.69-0.17,2.48-0.54,2.48-0.54c0.38-0.09,1.75-0.38,2.51-0.54l1.07-0.16l1.25-0.19l0.71-0.19l0.71-0.17
		c3.93-0.87,10.79-2.43,12.13-2.86c2.96-0.92,6.24-1.7,9.65-2.48c0.5-0.12,1.68-0.59,2.67-0.99c1.11-0.45,3.31-1.3,3.38-1.35
		c2.32-0.4,4-0.71,5.91-1.23c1.37-0.38,3.12-1.07,4.64-1.61c0,0,1.3-0.66,1.94-0.99c0.09-0.02,1.06-0.38,1.25-0.45
		c1.42-0.36,1.42-0.36,1.42-0.36c1.78-0.54,3.62-1.25,5.18-2.06c1.89-0.92,3.76-1.75,5.72-2.48c6.29-2.39,12.82-5.04,18.38-8.2
		c0.43-0.24,2.1-1.49,3-2.18c1.32-1.02,3.6-2.65,3.6-2.65c1.21-0.43,5.94-4.9,6.81-6.03c0.62-0.78-3.57-20.74-4.21-23.06
		c-1.09-3.69-1.82-9.06-2.32-12.84c-0.36-2.51-1.89-9.55-2.86-13.9l-0.19-0.9l-0.16-3.22l-0.19-1.25c-0.19-1.49-0.45-2.72-0.71-4.09
		l-0.19-0.9l-0.17-1.25l-0.19-1.06c-0.21-1.18-0.47-2.63-0.71-3.57c-1.04-4.21-1.89-8.56-2.67-12.84c-0.09-0.47-0.36-1.68-0.54-2.51
		c-0.28-1.32-0.54-2.48-0.71-3.93c-0.16-1.54-0.26-2.2-0.54-3.55c-0.23-1.21-0.59-2.98-0.71-4.11c-0.57-5.58-1.3-10.71-2.58-15.89
		c-1.35-5.32-3.52-15.16-5.27-23.01c-1.02-4.54-1.75-8.89-2.48-13.38c-0.78-4.68-1.92-10.43-2.86-15.16
		c-0.38-1.84-0.78-3.88-1.25-5.53c-0.07-0.23-0.9-4.85-1.23-6.95c-0.85-5.11-1.89-11.26-2.86-15.16l-1.25-9.29
		c-0.24-0.92-0.36-1.51-0.54-2.48c-0.19-1.11-0.5-2.79-0.71-3.4c-1.54-4.59-2.13-10.29-2.67-15.7c-0.02-0.23-0.07-10.92,0-13.74
		c0.05-1.92,0.14-5.79-0.02-5.96c-0.38-0.31-2.65-1.94-3.83-2.79c-0.31-0.21-0.64-0.47-0.88-0.8c-0.35-0.42-0.35-0.42-1.04-0.99
		l-0.9-0.9l-0.8-1.11c-3.08-3.07-7.55-16.03-9.84-22.94c-0.69-2.01,0.09-4.35,0.64-5.72c0.45-1.18,1.39-2.74,2.27-3.59
		c0.33-0.33,1.89-3.81,2.08-4.42c0.52-1.73,1.37-2.98,2.67-3.93c0.76-0.54,1.61-2.72,2.41-4.83c1.04-2.67,2.84-6.36,4.97-8.06
		c1.11-0.9,2.06-1.92,2.72-3.26c0.73-1.59,1.47-3.08,2.67-3.76c0.9-0.5,4.07,0.76,4.68,1.85c0.5,0.54,0.5,0.54,0.66,0.85
		c0.4,0.69,0.71,1.56,0.97,2.41c0.33,0.9,0.76,1.89,1.28,3.03l0.26,0.71l0.35,0.71l0.26,0.71c1.47,3.9,4.4,11.28,5.08,11.87
		c0.09,0.07,2.51,3.38,3.41,4.64c0.23,0.38,1.04,1.09,1.72,1.72c0.81,0.73,1.75,1.61,2.41,2.27c0.57,0.57,1.44,1.44,1.77,1.77
		l1.39,1.28c0.33,0.26,0.33,0.26,3.71,3.78l0.9,0.9c2.18,2.18,5.72,5.87,6.81,8.54c1.14,2.74-3.22,11.35-4.54,13.43
		c-0.97,1.54-3.17,3.48-4.61,4.63c-1.68,1.35-2.84,2.86-4.07,4.68c-1.18,1.8-2.63,3.33-4.14,4.85c-1.14,1.18-1.92,1.99-1.66,2.72
		c0.57,1.56,0.83,3.1,1.09,5.18c0.78,6.67,2.29,15.87,3.55,23.39c0.43,2.55,1.07,5.18,1.89,7.5c0.97,2.77,1.54,5.84,2.03,9.43
		c0.87,6.03,2.27,12.63,3.57,18.56c0.66,2.93,1.32,5.89,1.8,8.73l0.17,1.25l0.19,0.9l0.19,1.07c0.21,1.51,0.21,1.51,0.33,2.15
		l0.19,0.87l0.19,1.09l0.16,0.71l0.26,2.32l0.28,0.9c1.73,5.53,3.4,11.85,3.74,18.02c0.02,0.21,0.02,0.21,0.38,1.61l0.16,0.87
		l0.17,2.34l0.19,1.42c0.21,1.8,0.54,4.63,0.4,4.85c-0.24,0.4-0.24,0.4,0.26,1.18c0.12,0.16,0.12,0.16,0.24,0.92
		c0.36,2.74,0.59,4.45,0.43,4.73l-0.17-0.61c-0.05-0.07-0.31-0.69-0.78-0.97C1106.97,261.14,1106.1,263.37,1106.19,263.74z"/>
	<path class="st0" d="M474.35,226.47c5.87,6.53,9.6,16.69,12.8,25.66c3.36,9.39,6.83,19.15,10.81,28.19
		c0.35,0.85,1.37,3.69,2.03,5.53c0.78,2.2,1.63,4.52,2.51,6.6c0.87,2.13,1.72,4.28,2.51,6.43c0.09,0.28,1.16,2.72,1.68,3.93
		c0.62,1.35,1.49,3.36,1.7,4.09c1.21,4.23,2.55,8.56,3.93,12.68c0.36,1.06,0.73,2.15,0.99,3.22c0.38,1.56,0.76,3,1.23,4.28
		c0.36,0.9,0.69,2.34,0.99,3.76c0.17,0.73,0.36,1.61,0.52,2.32l0.19,0.71l0.19,1.07l0.17,0.71l0.19,1.8l0.16,0.71l0.19,1.06
		l0.17,1.09l0.9,5.35l0.16,1.06l0.19,2.86l0.19,1.25l0.16,1.58c0.19,1.51,0.71,6.43,0.71,6.43l-0.17,4.63
		c-0.09,1.82-0.09,1.82-0.35,3.4c-0.19,1.04-0.55,3.19-0.55,3.19l-0.54,3.05c-0.17,0.92-0.54,2.67-0.54,2.67
		c-3,10.52-6.62,19.7-11.07,28.59c-0.4,0.78-2.34,0.36-2.81-0.16c-0.52-0.62,0.23-7,0.52-9.34c0.57-4.78,0.64-9.18,0.35-13.91
		c-0.99-16.2-3.93-30.98-8.04-44.08c-1.23-4-3.43-10.12-5.16-14.99l-0.28-0.71l-0.78-2.32c-0.16-0.43-0.28-0.73-0.64-1.61
		c-0.33-0.83-0.71-1.77-0.97-2.48c-0.99-2.65-2.67-7.17-3.05-8.39c-0.26-0.9-1.77-4.78-2.77-7.33c-0.55-1.39-1.25-3.22-1.77-4.28
		c-0.62-1.21-1.09-2.58-1.51-3.9c-1.68-5.01-3.55-10.17-5.63-14.83l-1.61-3.57l-0.61-1.42c-0.33-0.71-0.83-1.78-0.99-2.13
		c-1.06-2.44-3.15-7.1-3.81-7.57c-2.96-2.18-4.92-8.66-6.27-13.15c-0.71-2.36,1.35-5.46,2.41-7.05c1.23-1.85,1.78-3.97,2.41-6.5
		C466.1,231.75,470.45,223.45,474.35,226.47z"/>
	<path class="st0" d="M517.03,170.43c0,0,4.09-1.73,5.18-2.15c0.87-0.35,0.87-0.35,1.61-0.71l0.71-0.35l0.9-0.36l0.71-0.35l0.8-0.36
		l1.51-0.73l0.9-0.36l0.69-0.35l1.44-0.62l0.71-0.26l0.71-0.35l0.54-0.28c1.8-0.76,3.76-1.61,5.34-2.39
		c7-3.5,14.14-7.07,21.24-10.17c3.45-1.54,6.91-3.1,10.17-4.85c2.03-1.06,6.95-3.17,10-4.45c3.41-1.44,6.95-3.12,10.36-4.82
		c3.5-1.75,7.14-3.48,10.88-4.89c0.5-0.19,1.32-0.64,1.96-1c0,0,1.68-0.85,2.48-1.25c1.87-0.92,3.81-1.78,5.72-2.58
		c0,0,1.25-0.61,1.96-0.99c0.94-0.45,2.13-1.04,2.84-1.42l0.54-0.26l0.61-0.26l0.64-0.38l1.42-0.71l0.71-0.35l0.71-0.36l0.73-0.35
		c1.66-0.8,3.38-1.63,5.09-2.48l5.25-2.7c3.69-1.85,8.87-4.42,11.26-5.44c3.76-1.61,13.05-6.27,20.34-9.91
		c3.26-1.63,8.09-4.04,9.91-5.18c2.01-1.23,9.41-5.27,10.24-5.25c5.09,0.14,5.56,7.57,4.38,12.22c-1.07,4.33-2.62,8.37-4.9,11.5
		c-1.13,1.56-5.84,3.45-9.27,4.82c-0.57,0.21-1.51,0.85-2.25,1.35c-0.28,0.19-1.54,0.71-2.41,1.07c-0.38,0.16-0.38,0.16-1.42,0.71
		l-0.71,0.35l-0.54,0.36c-1.02,0.52-1.87,0.94-2.84,1.44c-3.45,1.7-7.5,3.74-10.36,4.99c-3.95,1.73-7.88,3.67-11.59,5.53l-1.25,0.71
		l-0.73,0.36c-0.19,0.09-1.87,0.99-2.67,1.42c-1.68,0.92-3.41,1.65-5.18,2.41c-3.48,1.51-6.95,3.22-10.34,4.92
		c-1.73,0.85-3.57,1.7-5.37,2.51c-1,0.43-1.78,0.83-2.58,1.42c-0.71,0.5-1.82,0.99-2.77,1.42c-3.64,1.63-8.66,3.86-11.52,5.53
		c-3.17,1.87-7.19,3.45-10.59,4.73c-4.09,1.51-8.77,3.38-12.32,5.25c-3.41,1.82-7.14,3.74-10.71,5.27
		c-3.64,1.56-7.31,3.48-10.71,5.44c-1.32,0.78-2.96,1.49-4.45,2.06c-0.33,0.12-3.43,1.65-5.27,2.6l-4.89,2.13l-0.71,0.35l-0.9,0.36
		c-0.33,0.14-0.33,0.14-1.25,0.71c-0.78,0.47-1.75,0.97-2.67,1.44c-3.38,1.68-6.86,3.41-10.36,4.9c-1.44,0.62-2.93,1.77-4.07,2.81
		c-1.35,1.23-2.41,2.22-4.31,2.88c-2.39,0.85-6.72-0.54-7.68-2.03c-0.8-1.25-0.59-3.83,0-5.18c0.26-0.59,0.45-0.85,1.02-1.66
		l1.01-0.73l0.29-1.18c0.21-1.18,0.35-1.92,0.64-2.84l0.17-0.73l0.19-3.22c0.09-0.9,0.62-1.94,0.97-2.67
		C514.08,174.19,515.31,171.7,517.03,170.43z"/>
	<path class="st0" d="M804.93,175.61c1.68-0.95,3.79-0.88,3.93,1.58c0.17,3.12-0.54,8.96-1.09,13.22c-0.24,1.94-0.69,3.67-1.25,5.34
		c-0.64,1.96-1.35,4.07-1.23,6.24c0.07,1.35,1.21,4.92,2.01,5.39c2.03,1.23,4.4,2.67,6.81,2.91c3.64,0.35,8.18,0.66,11.07,0
		c3.01-0.69,8.58-3.05,12.3-4.63c1.44-0.62,4.85-2.32,5.53-3.22c0.28-0.38,1.21-10.52,1.54-14.19l0.35-2.86
		c0.31-2.06,0.31-2.06,0.36-2.84v-1.61l-0.19-1.25c-0.07-2.17-0.12-3.1,0.36-4.47c0.16-0.45,0.87-1.8,1.35-2.67
		c0.47-0.87,1.06-2.27,1.51-3.38c0.71-1.7,1.68-4.61,1.96-6.08c0.5-2.53,1.21-4.42,2.72-5.91c0.76-0.73,1.78-1.49,3.08-0.94
		c5.25,2.15,5.11,9.48,4.56,15.96c-0.62,6.86-2.01,23.01-0.59,24.79c1.61,2.01,14.26,0.43,16.37-1.14c0.54-0.4,2.88-1.25,3.93-1.61
		c0.66-0.21,2.44-0.95,3.57-1.42c2.36-0.99,6.74-2.96,7.02-3.26c0.5-0.5-0.26-4.68-0.52-5.94c-0.5-2.58-0.9-5.13-1.23-7.85
		c-0.36-2.86-0.69-5.87-1.25-8.4c-0.28-1.21-1.3-6.17-0.71-6.76c0.66-0.66,3.24-7.66,3.57-9.29c0.59-3.03,2.58-8.68,4.52-10.03
		c0.87-0.62,1.49-1.04,2.7-0.95c1.3,0.12,2.84,1.56,3.22,2.6c2.46,7,6.5,40.16,4.19,47.11c-1.42,4.26-3.05,9.18-4.73,11.68
		c-1.25,1.89-2.65,3.52-4.23,5.11c-0.64,0.64-1.25,1.25-1.47,1.56c-0.33,0.5-0.85,1.04-1.28,1.42c-0.78,0.61-2.65,2.2-2.77,2.41
		c-0.33,0.62-6.39,4.21-7.54,4.75c-0.59,0.26-2.74,0.9-4.28,1.32c-1.84,0.55-3.5,1.32-5.01,2.25c-3.05,1.89-5.89,2.48-10.36,3.31
		c-2.58,0.45-6.34,0.02-9.63-0.38c-1.04-0.12-2.1-0.45-3.03-0.8c-1.66-0.59-2.51-0.9-2.58-0.9c-0.31,0.09-1.11,0.92-1.49,1.3
		c-0.38,0.38-0.83,0.78-1.23,1.09c-0.52,0.43-1.04,0.83-2.11,1.56l-0.64,0.35l-0.66,0.38c-2.2,1.51-4.56,3.12-6.81,4.25
		c-5.39,2.7-10.95,4.61-17.15,6.15c-3.36,0.85-7.54,0.38-10.52-0.16c-3.38-0.62-6.79-2.39-9.06-4.23c-4.33-3.52-6.46-9.2-8.7-15.14
		c-0.83-2.29,0.47-8.61,1.09-11.07c1.18-4.73,2.93-11.19,4.9-15.7C798.36,185.42,801.53,178.23,804.93,175.61z"/>
	<path class="st0" d="M846.6,558.14c0.14-1.49,3.62-5.41,4.68-6.48c0.14-0.14,30.93-12.53,37.41-14.85c3.24-1.16,6.6-2.41,9.82-3.64
		c2.88-1.14,8.54-3.33,9.46-3.67c5.96-2.24,12.89-4.85,18.21-6.6c4.24-1.42,11.68-4.21,17.83-6.53c5.65-2.1,11.52-4.28,17.48-6.15
		c1.01-0.33,2.74-0.99,4.11-1.51l0.9-0.35c1.06-0.47,1.06-0.47,1.25-0.54c0.85-0.33,2.18-0.83,2.65-0.99c0,0,3.52-1.37,5.18-2.03
		l0.9-0.35l0.71-0.29l0.71-0.26c0.76-0.33,1.99-0.85,2.32-0.97c3.52-1.28,7.07-2.84,10.52-4.38c1.54-0.69,3.29-1.56,4.54-2.55
		c1.13-0.92,2.77-1.96,4.21-1.82c1.25,0.14,2.77,1.8,3.31,2.77c0.78,1.44,0.92,5.63,0.36,7.31c-1.42,4.23-2.84,8.3-5.09,11.68
		c-0.76,1.14-2.86,3.62-4.28,3.93c-0.87,0.21-2.77,1.14-3.93,1.7c-1.42,0.71-3.22,1.61-4.47,2.06c-3.74,1.32-6.05,2.2-9.46,3.47
		c-2.24,0.85-12.37,4.78-19.79,7.66c-2.79,1.09-5.96,2.29-8.92,3.12c-3.62,1.04-6.67,2.27-9.81,3.57
		c-6.12,2.55-12.23,4.92-18.75,6.79c-6.08,1.73-12.77,4.18-18.73,6.69c-6.65,2.79-13.08,5.23-19.79,7.76
		c-3.08,1.16-6.17,2.34-9.11,3.48c-0.66,0.26-1.35,0.54-1.96,0.8c-1.25,0.54-1.25,0.54-1.42,0.64l-0.71,0.35l-0.73,0.36
		c-1.63,0.71-3.48,1.54-4.99,2.03c-3.17,1.09-6.17,2.63-8.91,4.21c-2.48,1.4-8.63,4.85-10.71,0.35c-1.42-3.05,1.23-6.19,3.03-8.11
		l0.78-0.02l0.12-0.69l-0.26-0.64v-1.06C845.42,562.52,846.11,559.78,846.6,558.14z"/>
	<path class="st1" d="M887.63,416.92c1.49-0.19,3.81-0.5,4.44-0.52c1.14-0.07,2.82-0.16,3.76-0.38c2.39-0.52,4.49-0.99,7.5-1.25
		c1.92-0.14,3.97-0.57,5.53-1.16c0.73-0.28,5.46-0.73,7.76-0.97c5.72-0.57,15.35-2.98,22.02-4.66c12.42-3.08,24.71-7.07,34.72-12.39
		c7.45-3.95,14.73-8.47,21.45-13.27l1.09-0.85l0.45-0.64l0.95-0.83c0.99-0.78,1.96-1.54,3-2.25c0.26-0.16,1.61-1.25,2.37-1.84
		c0,0,1.01-1.02,1.35-1.35c0.45-0.45,0.8-0.73,1.35-1.14c1.8-1.25,3.86-2.96,5.04-4.87c0.5-0.8,1.42-1.99,2.17-2.91
		c0.28-0.35,0.85-1.11,1.11-1.82l-0.09-3.03c-0.31,1.04-4.21-0.09-4.71-0.43l-0.54-0.28l-1.54-1.06l-1.06-0.73
		c-2.01-1.44-4.61-3.22-7.31-3.83c-1.32-0.31-4.44-1.04-5.18-1.32l-1.61-0.99l-0.71-0.16l-0.71-0.28l-0.9-0.26
		c-3.01-0.95-6.48-1.82-9.44-2.32c-20.24-3.38-40.23,0.05-53.9,8.47c-4.73,2.93-9.58,6.6-13.81,10.12
		c-0.45,0.38-0.99,0.83-1.44,1.14c-0.85,0.54-1.59,0.99-2.2,1.63c-0.42,0.45-0.87,0.85-1.37,1.21c-0.73,0.52-1.51,1.09-2.1,1.75
		c-1.82,2.08-3.88,4.4-6.01,5.94c-1.04,0.73-2.01,1.56-2.91,2.46c-0.9,0.9-2.7,2.7-2.96,2.93c-2.08,1.89-4.45,4.07-6.31,5.63
		c-3.93,3.29-11.8,9.81-12.77,10.59c-4.56,3.69-8.33,7.64-12.23,11.99c-0.95,1.04-1.94,2.03-3.03,2.93
		c-1.77,1.47-2.72,2.27,0.94,2.27C868,418.17,884.65,417.81,887.63,416.92z"/>
	<path class="st0" d="M1157.94,82c-0.09-0.16,0.78-0.97,1.21-1.37l0.76-1.3l0.36-0.62l0.71-1.25l0.71-0.99l1.44-2.13
		c0.78-1.18,1.78-2.65,2.63-3.52c0.97-0.94,1.99-2.03,2.77-3.15c1.49-2.08,14.07-14.38,16.01-14.92c1.3-0.35,4.21,1.47,5.98,2.58
		c0.35,0.23,0.35,0.23,2.41,1.96c0.59,0.47,0.59,0.47,0.87,0.8c0.4,0.45,0.83,0.9,1.32,1.23c2.7,1.8,9.27,6.12,11.78,5.7l0.38-1.14
		c0.23-0.66,0.59-1.28,1.02-1.75c0.5-0.52,0.97-1.04,1.25-1.42c0.26-0.35,1.07-1.42,1.07-1.42c0.76-0.9,2.22-2.65,2.22-2.65
		l0.57-0.45c0.19-0.19,0.64-0.71,0.8-0.92c0.28-0.35,0.73-0.97,1.06-1.44c1.68-2.24,6.1-7.52,9.44-11.49
		c2.81-3.33,7.71-9.25,8.7-10.83c1.3-2.06,3.15-4.04,4.8-5.84c0.4-0.45,0.85-0.97,1.25-1.42c0.45-0.54,1.09-1.3,1.3-1.54
		c0.47-0.45,0.94-0.92,1.37-1.32c0.45-0.4,0.92-0.87,1.32-1.35c4.66-5.49,11.66-9.18,19.75-11.19c2.15-0.54,5.02-0.26,7.14,0
		c1.68,0.19,1.8,0.19,3.93,0.36c0.26,0.02,3.57,0.23,3.57,0.45l0.64,0.36l0.8,0.35l1.16,0.71l1.11,0.76
		c0.64,0.52,0.64,0.52,0.9,0.71c1.32,0.94,2.65,2.15,3.66,3.4c1.75,2.17,3.41,4.8,4.56,7.42c0.57,1.25,1.14,2.67,1.51,3.95
		c0.19,0.52,0.52,1.68,0.54,1.78c0.38,1.63,0.54,5.72,0.54,5.72v0.71c0,0.45,0,0.45-0.19,1.61c-0.19,1.25-0.4,2.13-0.71,3.19
		c-0.07,0.24-0.38,0.73-0.85,1.49c0,0-0.71,1.84-0.92,2.46c-0.61,1.61-1.18,3.05-2.06,4.38c-0.85,1.25-1.63,2.95-2.22,4.35
		c-1.75,4.04-6.67,10.21-10.31,14.78c-3.17,3.97-8.39,7.71-12.82,10.48c-5.44,3.41-24.43,11.61-31.92,12.49
		c-4.99,0.59-14,1.61-16.77,1.61c-9.53,0-17.1-1.68-24.1-4.73c-2.25-1-4.23-2.01-6.01-3.45c-1.82-1.47-3.59-2.81-5.77-4.04
		c-3.15-1.8-11.68,8.91-12.84,10.62c-2.37,3.55-7.62,10.62-11.59,11.78c-1.21,0.35-1.96-0.54-2.34-1.35
		c-0.71-1.58,2.32-8.37,3.15-9.98C1155.62,89.95,1158.29,82.81,1157.94,82z"/>
	<path class="st0" d="M1196.84,107.78c1.51,0.69,2.55,2.08,3.12,3.76l0.16,0.9l0.19,3.03l0.19,6.24c0.07,2.2,0.19,6.12,0.52,7.31
		c0.21,0.76,0.47,1.59,1.23,2.58c0.26,0.33,0.45,0.57,0.64,0.99c0.59,1.25,0.31,3.48,0.09,4.99c-0.33,2.51-0.45,3.5-0.35,6.97
		c0,0,0.78,4,1.06,5.34c1.89,8.47,3.4,23.56,4.66,35.88c0.9,9.13,1.96,19.61,4.63,27.65c0.5,1.54,0.85,4.63,1.06,6.6
		c0.24,2.36,0.66,4.59,1.07,6.6c0.12,0.54,0.76,4.33,1.06,6.24l0.19,1.09c0.12,0.83,0.12,0.83,0.36,2.13l0.19,1.25l0.16,0.71
		c0.24,0.95,0.24,0.95,0.36,1.61c0.19,0.99,0.35,1.96,0.54,2.86l0.16,0.9l0.19,1.23l0.19,1.09c0.24,1.28,0.52,2.67,0.71,3.74
		c0.36,2.13,0.73,4.75,1.07,7.14c0.31,2.13,0.66,4.61,0.9,5.34c0.42,1.49,0.8,3.69,1.06,5.34l0.16,1.44
		c0.12,0.76,0.12,0.76,0.38,2.51c0.14,0.92,0.52,3.19,0.52,3.19c0.57,1.94,0.8,4.21,1.09,6.6c0.28,2.74,0.69,5.56,1.25,8.04
		c0.17,0.85,0.36,1.75,0.52,2.67l0.19,1.09c0.17,1.14,0.17,1.14,0.36,2.13c0.19,1.09,0.4,2.2,0.52,3.22
		c0.16,1.18,0.33,2.29,0.54,3.38c0.12,0.59,0.76,4.31,1.09,6.25l0.17,1.09c0.26,2.32,0.26,2.32,0.35,2.65l0.36,1.44l0.16,1.61
		l0.19,1.07c0.21,0.99,0.38,2.29,0.52,3.4c0.16,1.11,0.31,2.06,0.54,3.03c0.19,0.71,0.54,2.13,0.54,2.13l0.17,1.09
		c0.14,0.71,0.14,0.71,0.35,1.77c0.47,2.06,0.78,4.61,1.09,6.95c0.31,2.55,0.9,7.02,1.07,8.04c1.16,6.53,1.25,15.91,1.25,22.65
		l1.07,24.97c0,10.69-4.38,59.64-9.98,61.91c-1.49,0.62-1.94-2.36-2.15-3.74l-0.16-1.25l-0.19-9.46l-0.19-1.42l-0.17-1.07
		c-0.28-2.17-0.62-4.94-0.71-6.24l-0.19-2.51l-0.16-1.78l-0.19-1.8c-0.19-3.57-0.19-4.92-0.19-8.75l-0.16-1.78v-1.42l-0.19-3.41
		l-0.16-2.67l-0.19-3.38c-0.12-2.22-0.28-5.18-0.35-5.72c-0.95-8.04-1.85-18.73-2.48-26.58c-0.17-1.8-0.57-4.44-1.25-6.79
		l-0.19-0.71l-0.16-2.51l-0.19-1.42l-0.35-1.96l-0.19-1.06l-0.17-0.9c-0.31-2.01-0.64-4.19-1.06-5.54
		c-0.31-0.99-0.45-2.55-0.55-3.64c-0.05-0.64-0.05-0.64-0.35-1.71l-0.36-1.42c-0.92-5.04-2.17-11.94-2.67-14.99
		c-1.85-11.04-3.74-22.75-5.27-33.91c-0.76-5.63-1.56-10.64-2.58-16.41c-0.17-0.92-0.47-1.99-0.73-2.84
		c-0.16-0.59-0.47-2.06-0.69-3.05c-0.36-1.49-0.99-5.37-1.44-8.02c-0.92-5.51-2.32-13.81-3.03-16.96
		c-1.06-4.63-2.7-12.06-2.86-15.54c-0.28-6.13-0.47-8.87-1.25-13.55c0,0-0.5-2.72-0.71-3.93c-0.28-1.51-0.5-2.91-0.71-4.45
		c-1.04-7.76-2.29-17.24-2.67-22.14c-0.19-2.32-0.73-4.68-1.25-6.79c-0.54-2.22-0.92-4.07-1.25-6.25
		c-1.11-7.26-1.77-15.09-1.77-21.94c0-9.27,1.89-18.23,3.74-26.58c0.64-2.81,1.42-5.32,2.32-7.85l0.26-0.71l0.28-1.09l0.26-0.87
		l0.28-0.71l0.16-1.96l0.17-0.9C1193.24,107.4,1194.71,106.95,1196.84,107.78z"/>
	<path class="st0" d="M1269.37,54.08c2.06-1.54,6.2-4.71,6.6-5.7c0.52-1.25-1.82-6.53-2.41-7.05l-0.36-0.61l-0.76-1.04
		c-0.47-0.66-0.97-1.3-1.54-1.87c-1.06-1.06-3.36-3.22-3.59-3.36c-4.56-2.39-12.18-1.59-17.12-0.36c-0.38,0.09-4.3,2.93-5.77,4
		c-1.06,0.76-2.91,2.13-3.03,2.22c-0.61,0.64-2.32,2.24-2.6,2.39c-0.99,0.54-17.4,22.18-18.7,24.29
		c-1.63,2.67,24.38-2.29,24.38-2.29C1250.07,63.46,1261.8,57.77,1269.37,54.08z"/>
</g>
</svg>
